  0
SECTION
  2
HEADER
  9
$ANGBASE
  50
0.0
  9
$ANGDIR
  70
1
  9
$MEASUREMENT
  70
1
  0
ENDSEC
  0
SECTION
  2
TABLES
  0
TABLE
  2
LTYPE
  70
4
  0
LTYPE
  5
40F
  2
CONTINUOUS
  70
0
  3
Solid line
  72
65
  73
0
  40
0.0
  0
LTYPE
  5
410
  2
DASHDOT
 70
0
  3
Dash Dot ____ _ ____ _
 72
65
 73
4
 40
2.0
 49
1.25
 49
-0.25
 49
0.25
 49
-0.25
  0
LTYPE
  5
411
  2
DASHED
 70
0
  3
Dashed __ __ __ __ __
 72
65
 73
2
 40
0.75
 49
0.5
 49
-0.25
  0
LTYPE
  5
43B
  2
DOTTED
 70
0
  3
Dotted .  .  .  .
 72
65
 73
2
 40
0.2
 49
0.0
 49
-0.2
  0
ENDTAB
  0
TABLE
  2
STYLE
  70
4
  0
STYLE
  2
KICAD
  70
0
  40
0
  41
1
  42
1
  50
0
  71
0
  3
isocp.shx
  0
STYLE
  2
KICADB
  70
0
  40
0
  41
1
  42
1
  50
0
  71
0
  3
isocp.shx
  0
STYLE
  2
KICADI
  70
0
  40
0
  41
1
  42
1
  50
15
  71
0
  3
isocp.shx
  0
STYLE
  2
KICADBI
  70
0
  40
0
  41
1
  42
1
  50
15
  71
0
  3
isocp.shx
  0
ENDTAB
  0
TABLE
  2
LAYER
  70
1
  0
LAYER
  2
BLACK
  70
0
  62
7
  6
CONTINUOUS
  0
ENDTAB
  0
ENDSEC
  0
SECTION
  2
ENTITIES
0
LINE
8
BLACK
6
CONTINUOUS
10
258.987
20
-17.7889
11
259.014
21
-17.8115
0
LINE
8
BLACK
6
CONTINUOUS
10
259.014
20
-17.8115
11
259.432
21
-17.8279
0
LINE
8
BLACK
6
CONTINUOUS
10
259.432
20
-17.8279
11
259.9
21
-17.8833
0
LINE
8
BLACK
6
CONTINUOUS
10
259.9
20
-17.8833
11
260.363
21
-17.9752
0
LINE
8
BLACK
6
CONTINUOUS
10
260.363
20
-17.9752
11
260.816
21
-18.1032
0
LINE
8
BLACK
6
CONTINUOUS
10
260.816
20
-18.1032
11
261.258
21
-18.2663
0
LINE
8
BLACK
6
CONTINUOUS
10
261.258
20
-18.2663
11
261.687
21
-18.4637
0
LINE
8
BLACK
6
CONTINUOUS
10
261.687
20
-18.4637
11
262.098
21
-18.694
0
LINE
8
BLACK
6
CONTINUOUS
10
262.098
20
-18.694
11
262.49
21
-18.9559
0
LINE
8
BLACK
6
CONTINUOUS
10
262.49
20
-18.9559
11
262.86
21
-19.2477
0
LINE
8
BLACK
6
CONTINUOUS
10
262.86
20
-19.2477
11
263.206
21
-19.5677
0
LINE
8
BLACK
6
CONTINUOUS
10
263.206
20
-19.5677
11
263.526
21
-19.9138
0
LINE
8
BLACK
6
CONTINUOUS
10
263.526
20
-19.9138
11
263.818
21
-20.284
0
LINE
8
BLACK
6
CONTINUOUS
10
263.818
20
-20.284
11
264.08
21
-20.6759
0
LINE
8
BLACK
6
CONTINUOUS
10
264.08
20
-20.6759
11
264.31
21
-21.0871
0
LINE
8
BLACK
6
CONTINUOUS
10
264.31
20
-21.0871
11
264.507
21
-21.5152
0
LINE
8
BLACK
6
CONTINUOUS
10
264.507
20
-21.5152
11
264.67
21
-21.9574
0
LINE
8
BLACK
6
CONTINUOUS
10
264.67
20
-21.9574
11
264.798
21
-22.4111
0
LINE
8
BLACK
6
CONTINUOUS
10
264.798
20
-22.4111
11
264.89
21
-22.8734
0
LINE
8
BLACK
6
CONTINUOUS
10
264.89
20
-22.8734
11
264.946
21
-23.3415
0
LINE
8
BLACK
6
CONTINUOUS
10
264.946
20
-23.3415
11
264.962
21
-23.7586
0
LINE
8
BLACK
6
CONTINUOUS
10
264.962
20
-23.7586
11
264.971
21
-23.7638
0
LINE
8
BLACK
6
CONTINUOUS
10
264.971
20
-23.7638
11
264.989
21
-23.8118
0
LINE
8
BLACK
6
CONTINUOUS
10
264.989
20
-23.8118
11
265.585
21
-89.2963
0
LINE
8
BLACK
6
CONTINUOUS
10
265.585
20
-89.2963
11
265.58
21
-89.322
0
LINE
8
BLACK
6
CONTINUOUS
10
265.58
20
-89.322
11
265.558
21
-89.3495
0
LINE
8
BLACK
6
CONTINUOUS
10
265.558
20
-89.3495
11
265.541
21
-89.7901
0
LINE
8
BLACK
6
CONTINUOUS
10
265.541
20
-89.7901
11
265.486
21
-90.2804
0
LINE
8
BLACK
6
CONTINUOUS
10
265.486
20
-90.2804
11
265.394
21
-90.7652
0
LINE
8
BLACK
6
CONTINUOUS
10
265.394
20
-90.7652
11
265.266
21
-91.2419
0
LINE
8
BLACK
6
CONTINUOUS
10
265.266
20
-91.2419
11
265.103
21
-91.7076
0
LINE
8
BLACK
6
CONTINUOUS
10
265.103
20
-91.7076
11
264.906
21
-92.1599
0
LINE
8
BLACK
6
CONTINUOUS
10
264.906
20
-92.1599
11
264.676
21
-92.5962
0
LINE
8
BLACK
6
CONTINUOUS
10
264.676
20
-92.5962
11
264.413
21
-93.014
0
LINE
8
BLACK
6
CONTINUOUS
10
264.413
20
-93.014
11
264.12
21
-93.411
0
LINE
8
BLACK
6
CONTINUOUS
10
264.12
20
-93.411
11
263.798
21
-93.785
0
LINE
8
BLACK
6
CONTINUOUS
10
263.798
20
-93.785
11
263.449
21
-94.134
0
LINE
8
BLACK
6
CONTINUOUS
10
263.449
20
-94.134
11
263.075
21
-94.4558
0
LINE
8
BLACK
6
CONTINUOUS
10
263.075
20
-94.4558
11
262.678
21
-94.7489
0
LINE
8
BLACK
6
CONTINUOUS
10
262.678
20
-94.7489
11
262.26
21
-95.0114
0
LINE
8
BLACK
6
CONTINUOUS
10
262.26
20
-95.0114
11
261.824
21
-95.242
0
LINE
8
BLACK
6
CONTINUOUS
10
261.824
20
-95.242
11
261.372
21
-95.4393
0
LINE
8
BLACK
6
CONTINUOUS
10
261.372
20
-95.4393
11
260.906
21
-95.6023
0
LINE
8
BLACK
6
CONTINUOUS
10
260.906
20
-95.6023
11
260.429
21
-95.73
0
LINE
8
BLACK
6
CONTINUOUS
10
260.429
20
-95.73
11
259.945
21
-95.8217
0
LINE
8
BLACK
6
CONTINUOUS
10
259.945
20
-95.8217
11
259.454
21
-95.8769
0
LINE
8
BLACK
6
CONTINUOUS
10
259.454
20
-95.8769
11
259.015
21
-95.8934
0
LINE
8
BLACK
6
CONTINUOUS
10
259.015
20
-95.8934
11
259.009
21
-95.9028
0
LINE
8
BLACK
6
CONTINUOUS
10
259.009
20
-95.9028
11
258.961
21
-95.9204
0
LINE
8
BLACK
6
CONTINUOUS
10
258.961
20
-95.9204
11
253.008
21
-95.9204
0
LINE
8
BLACK
6
CONTINUOUS
10
253.008
20
-95.9204
11
252.998
21
-95.9187
0
LINE
8
BLACK
6
CONTINUOUS
10
252.998
20
-95.9187
11
252.995
21
-95.9193
0
LINE
8
BLACK
6
CONTINUOUS
10
252.995
20
-95.9193
11
252.992
21
-95.9176
0
LINE
8
BLACK
6
CONTINUOUS
10
252.992
20
-95.9176
11
252.982
21
-95.9159
0
LINE
8
BLACK
6
CONTINUOUS
10
252.982
20
-95.9159
11
252.967
21
-95.9033
0
LINE
8
BLACK
6
CONTINUOUS
10
252.967
20
-95.9033
11
252.951
21
-95.8936
0
LINE
8
BLACK
6
CONTINUOUS
10
252.951
20
-95.8936
11
252.948
21
-95.8872
0
LINE
8
BLACK
6
CONTINUOUS
10
252.948
20
-95.8872
11
252.943
21
-95.8829
0
LINE
8
BLACK
6
CONTINUOUS
10
252.943
20
-95.8829
11
252.94
21
-95.8637
0
LINE
8
BLACK
6
CONTINUOUS
10
252.94
20
-95.8637
11
252.933
21
-95.8454
0
LINE
8
BLACK
6
CONTINUOUS
10
252.933
20
-95.8454
11
252.933
21
-76.2001
0
LINE
8
BLACK
6
CONTINUOUS
10
252.933
20
-76.2001
11
252.935
21
-76.1903
0
LINE
8
BLACK
6
CONTINUOUS
10
252.935
20
-76.1903
11
252.934
21
-76.187
0
LINE
8
BLACK
6
CONTINUOUS
10
252.934
20
-76.187
11
252.936
21
-76.1842
0
LINE
8
BLACK
6
CONTINUOUS
10
252.936
20
-76.1842
11
252.938
21
-76.1744
0
LINE
8
BLACK
6
CONTINUOUS
10
252.938
20
-76.1744
11
252.95
21
-76.1595
0
LINE
8
BLACK
6
CONTINUOUS
10
252.95
20
-76.1595
11
252.96
21
-76.1426
0
LINE
8
BLACK
6
CONTINUOUS
10
252.96
20
-76.1426
11
252.966
21
-76.1403
0
LINE
8
BLACK
6
CONTINUOUS
10
252.966
20
-76.1403
11
252.971
21
-76.1351
0
LINE
8
BLACK
6
CONTINUOUS
10
252.971
20
-76.1351
11
252.99
21
-76.1317
0
LINE
8
BLACK
6
CONTINUOUS
10
252.99
20
-76.1317
11
253.008
21
-76.1251
0
LINE
8
BLACK
6
CONTINUOUS
10
253.008
20
-76.1251
11
257.696
21
-76.1251
0
LINE
8
BLACK
6
CONTINUOUS
10
257.696
20
-76.1251
11
257.696
21
-56.0344
0
LINE
8
BLACK
6
CONTINUOUS
10
257.696
20
-56.0344
11
253.008
21
-56.0344
0
LINE
8
BLACK
6
CONTINUOUS
10
253.008
20
-56.0344
11
252.998
21
-56.0327
0
LINE
8
BLACK
6
CONTINUOUS
10
252.998
20
-56.0327
11
252.995
21
-56.0333
0
LINE
8
BLACK
6
CONTINUOUS
10
252.995
20
-56.0333
11
252.992
21
-56.0316
0
LINE
8
BLACK
6
CONTINUOUS
10
252.992
20
-56.0316
11
252.982
21
-56.0299
0
LINE
8
BLACK
6
CONTINUOUS
10
252.982
20
-56.0299
11
252.967
21
-56.0174
0
LINE
8
BLACK
6
CONTINUOUS
10
252.967
20
-56.0174
11
252.951
21
-56.0076
0
LINE
8
BLACK
6
CONTINUOUS
10
252.951
20
-56.0076
11
252.948
21
-56.0013
0
LINE
8
BLACK
6
CONTINUOUS
10
252.948
20
-56.0013
11
252.943
21
-55.9969
0
LINE
8
BLACK
6
CONTINUOUS
10
252.943
20
-55.9969
11
252.94
21
-55.9777
0
LINE
8
BLACK
6
CONTINUOUS
10
252.94
20
-55.9777
11
252.933
21
-55.9594
0
LINE
8
BLACK
6
CONTINUOUS
10
252.933
20
-55.9594
11
252.933
21
-36.3891
0
LINE
8
BLACK
6
CONTINUOUS
10
252.933
20
-36.3891
11
250.627
21
-36.3891
0
LINE
8
BLACK
6
CONTINUOUS
10
250.627
20
-36.3891
11
250.617
21
-36.3874
0
LINE
8
BLACK
6
CONTINUOUS
10
250.617
20
-36.3874
11
250.614
21
-36.388
0
LINE
8
BLACK
6
CONTINUOUS
10
250.614
20
-36.388
11
250.611
21
-36.3863
0
LINE
8
BLACK
6
CONTINUOUS
10
250.611
20
-36.3863
11
250.601
21
-36.3846
0
LINE
8
BLACK
6
CONTINUOUS
10
250.601
20
-36.3846
11
250.586
21
-36.372
0
LINE
8
BLACK
6
CONTINUOUS
10
250.586
20
-36.372
11
250.569
21
-36.3623
0
LINE
8
BLACK
6
CONTINUOUS
10
250.569
20
-36.3623
11
250.567
21
-36.3559
0
LINE
8
BLACK
6
CONTINUOUS
10
250.567
20
-36.3559
11
250.562
21
-36.3516
0
LINE
8
BLACK
6
CONTINUOUS
10
250.562
20
-36.3516
11
250.558
21
-36.3324
0
LINE
8
BLACK
6
CONTINUOUS
10
250.558
20
-36.3324
11
250.552
21
-36.3141
0
LINE
8
BLACK
6
CONTINUOUS
10
250.552
20
-36.3141
11
250.552
21
-17.8594
0
LINE
8
BLACK
6
CONTINUOUS
10
250.552
20
-17.8594
11
250.553
21
-17.8496
0
LINE
8
BLACK
6
CONTINUOUS
10
250.553
20
-17.8496
11
250.553
21
-17.8464
0
LINE
8
BLACK
6
CONTINUOUS
10
250.553
20
-17.8464
11
250.555
21
-17.8435
0
LINE
8
BLACK
6
CONTINUOUS
10
250.555
20
-17.8435
11
250.556
21
-17.8337
0
LINE
8
BLACK
6
CONTINUOUS
10
250.556
20
-17.8337
11
250.569
21
-17.8188
0
LINE
8
BLACK
6
CONTINUOUS
10
250.569
20
-17.8188
11
250.579
21
-17.8019
0
LINE
8
BLACK
6
CONTINUOUS
10
250.579
20
-17.8019
11
250.585
21
-17.7996
0
LINE
8
BLACK
6
CONTINUOUS
10
250.585
20
-17.7996
11
250.589
21
-17.7944
0
LINE
8
BLACK
6
CONTINUOUS
10
250.589
20
-17.7944
11
250.608
21
-17.7911
0
LINE
8
BLACK
6
CONTINUOUS
10
250.608
20
-17.7911
11
250.627
21
-17.7844
0
LINE
8
BLACK
6
CONTINUOUS
10
250.627
20
-17.7844
11
258.961
21
-17.7844
0
LINE
8
BLACK
6
CONTINUOUS
10
258.961
20
-17.7844
11
258.987
21
-17.7889
0
LINE
8
BLACK
6
CONTINUOUS
10
259.009
20
-17.9168
11
258.961
21
-17.9344
0
LINE
8
BLACK
6
CONTINUOUS
10
258.961
20
-17.9344
11
250.702
21
-17.9344
0
LINE
8
BLACK
6
CONTINUOUS
10
250.702
20
-17.9344
11
250.702
21
-36.2391
0
LINE
8
BLACK
6
CONTINUOUS
10
250.702
20
-36.2391
11
253.008
21
-36.2391
0
LINE
8
BLACK
6
CONTINUOUS
10
253.008
20
-36.2391
11
253.018
21
-36.2408
0
LINE
8
BLACK
6
CONTINUOUS
10
253.018
20
-36.2408
11
253.021
21
-36.2402
0
LINE
8
BLACK
6
CONTINUOUS
10
253.021
20
-36.2402
11
253.024
21
-36.2419
0
LINE
8
BLACK
6
CONTINUOUS
10
253.024
20
-36.2419
11
253.034
21
-36.2436
0
LINE
8
BLACK
6
CONTINUOUS
10
253.034
20
-36.2436
11
253.049
21
-36.2561
0
LINE
8
BLACK
6
CONTINUOUS
10
253.049
20
-36.2561
11
253.065
21
-36.2659
0
LINE
8
BLACK
6
CONTINUOUS
10
253.065
20
-36.2659
11
253.068
21
-36.2722
0
LINE
8
BLACK
6
CONTINUOUS
10
253.068
20
-36.2722
11
253.073
21
-36.2766
0
LINE
8
BLACK
6
CONTINUOUS
10
253.073
20
-36.2766
11
253.076
21
-36.2958
0
LINE
8
BLACK
6
CONTINUOUS
10
253.076
20
-36.2958
11
253.083
21
-36.3141
0
LINE
8
BLACK
6
CONTINUOUS
10
253.083
20
-36.3141
11
253.083
21
-55.8844
0
LINE
8
BLACK
6
CONTINUOUS
10
253.083
20
-55.8844
11
257.771
21
-55.8844
0
LINE
8
BLACK
6
CONTINUOUS
10
257.771
20
-55.8844
11
257.78
21
-55.8861
0
LINE
8
BLACK
6
CONTINUOUS
10
257.78
20
-55.8861
11
257.784
21
-55.8856
0
LINE
8
BLACK
6
CONTINUOUS
10
257.784
20
-55.8856
11
257.786
21
-55.8872
0
LINE
8
BLACK
6
CONTINUOUS
10
257.786
20
-55.8872
11
257.796
21
-55.8889
0
LINE
8
BLACK
6
CONTINUOUS
10
257.796
20
-55.8889
11
257.811
21
-55.9015
0
LINE
8
BLACK
6
CONTINUOUS
10
257.811
20
-55.9015
11
257.828
21
-55.9112
0
LINE
8
BLACK
6
CONTINUOUS
10
257.828
20
-55.9112
11
257.83
21
-55.9176
0
LINE
8
BLACK
6
CONTINUOUS
10
257.83
20
-55.9176
11
257.835
21
-55.9219
0
LINE
8
BLACK
6
CONTINUOUS
10
257.835
20
-55.9219
11
257.839
21
-55.9411
0
LINE
8
BLACK
6
CONTINUOUS
10
257.839
20
-55.9411
11
257.846
21
-55.9594
0
LINE
8
BLACK
6
CONTINUOUS
10
257.846
20
-55.9594
11
257.846
21
-76.2001
0
LINE
8
BLACK
6
CONTINUOUS
10
257.846
20
-76.2001
11
257.844
21
-76.2098
0
LINE
8
BLACK
6
CONTINUOUS
10
257.844
20
-76.2098
11
257.844
21
-76.2131
0
LINE
8
BLACK
6
CONTINUOUS
10
257.844
20
-76.2131
11
257.843
21
-76.216
0
LINE
8
BLACK
6
CONTINUOUS
10
257.843
20
-76.216
11
257.841
21
-76.2257
0
LINE
8
BLACK
6
CONTINUOUS
10
257.841
20
-76.2257
11
257.828
21
-76.2406
0
LINE
8
BLACK
6
CONTINUOUS
10
257.828
20
-76.2406
11
257.819
21
-76.2575
0
LINE
8
BLACK
6
CONTINUOUS
10
257.819
20
-76.2575
11
257.812
21
-76.2598
0
LINE
8
BLACK
6
CONTINUOUS
10
257.812
20
-76.2598
11
257.808
21
-76.265
0
LINE
8
BLACK
6
CONTINUOUS
10
257.808
20
-76.265
11
257.789
21
-76.2684
0
LINE
8
BLACK
6
CONTINUOUS
10
257.789
20
-76.2684
11
257.771
21
-76.2751
0
LINE
8
BLACK
6
CONTINUOUS
10
257.771
20
-76.2751
11
253.083
21
-76.2751
0
LINE
8
BLACK
6
CONTINUOUS
10
253.083
20
-76.2751
11
253.083
21
-95.7704
0
LINE
8
BLACK
6
CONTINUOUS
10
253.083
20
-95.7704
11
258.961
21
-95.7704
0
LINE
8
BLACK
6
CONTINUOUS
10
258.961
20
-95.7704
11
258.987
21
-95.7749
0
LINE
8
BLACK
6
CONTINUOUS
10
258.987
20
-95.7749
11
259.014
21
-95.798
0
LINE
8
BLACK
6
CONTINUOUS
10
259.014
20
-95.798
11
259.447
21
-95.7818
0
LINE
8
BLACK
6
CONTINUOUS
10
259.447
20
-95.7818
11
259.93
21
-95.7273
0
LINE
8
BLACK
6
CONTINUOUS
10
259.93
20
-95.7273
11
260.408
21
-95.6369
0
LINE
8
BLACK
6
CONTINUOUS
10
260.408
20
-95.6369
11
260.878
21
-95.511
0
LINE
8
BLACK
6
CONTINUOUS
10
260.878
20
-95.511
11
261.337
21
-95.3504
0
LINE
8
BLACK
6
CONTINUOUS
10
261.337
20
-95.3504
11
261.783
21
-95.156
0
LINE
8
BLACK
6
CONTINUOUS
10
261.783
20
-95.156
11
262.213
21
-94.9287
0
LINE
8
BLACK
6
CONTINUOUS
10
262.213
20
-94.9287
11
262.624
21
-94.67
0
LINE
8
BLACK
6
CONTINUOUS
10
262.624
20
-94.67
11
263.016
21
-94.3812
0
LINE
8
BLACK
6
CONTINUOUS
10
263.016
20
-94.3812
11
263.384
21
-94.064
0
LINE
8
BLACK
6
CONTINUOUS
10
263.384
20
-94.064
11
263.728
21
-93.7201
0
LINE
8
BLACK
6
CONTINUOUS
10
263.728
20
-93.7201
11
264.045
21
-93.3515
0
LINE
8
BLACK
6
CONTINUOUS
10
264.045
20
-93.3515
11
264.334
21
-92.9602
0
LINE
8
BLACK
6
CONTINUOUS
10
264.334
20
-92.9602
11
264.593
21
-92.5485
0
LINE
8
BLACK
6
CONTINUOUS
10
264.593
20
-92.5485
11
264.82
21
-92.1185
0
LINE
8
BLACK
6
CONTINUOUS
10
264.82
20
-92.1185
11
265.015
21
-91.6728
0
LINE
8
BLACK
6
CONTINUOUS
10
265.015
20
-91.6728
11
265.175
21
-91.2137
0
LINE
8
BLACK
6
CONTINUOUS
10
265.175
20
-91.2137
11
265.301
21
-90.744
0
LINE
8
BLACK
6
CONTINUOUS
10
265.301
20
-90.744
11
265.392
21
-90.2662
0
LINE
8
BLACK
6
CONTINUOUS
10
265.392
20
-90.2662
11
265.446
21
-89.7829
0
LINE
8
BLACK
6
CONTINUOUS
10
265.446
20
-89.7829
11
265.462
21
-89.3511
0
LINE
8
BLACK
6
CONTINUOUS
10
265.462
20
-89.3511
11
265.453
21
-89.3457
0
LINE
8
BLACK
6
CONTINUOUS
10
265.453
20
-89.3457
11
265.435
21
-89.2976
0
LINE
8
BLACK
6
CONTINUOUS
10
265.435
20
-89.2976
11
264.839
21
-23.8132
0
LINE
8
BLACK
6
CONTINUOUS
10
264.839
20
-23.8132
11
264.844
21
-23.7875
0
LINE
8
BLACK
6
CONTINUOUS
10
264.844
20
-23.7875
11
264.867
21
-23.7593
0
LINE
8
BLACK
6
CONTINUOUS
10
264.867
20
-23.7593
11
264.851
21
-23.349
0
LINE
8
BLACK
6
CONTINUOUS
10
264.851
20
-23.349
11
264.796
21
-22.8884
0
LINE
8
BLACK
6
CONTINUOUS
10
264.796
20
-22.8884
11
264.706
21
-22.4334
0
LINE
8
BLACK
6
CONTINUOUS
10
264.706
20
-22.4334
11
264.58
21
-21.9869
0
LINE
8
BLACK
6
CONTINUOUS
10
264.58
20
-21.9869
11
264.419
21
-21.5517
0
LINE
8
BLACK
6
CONTINUOUS
10
264.419
20
-21.5517
11
264.225
21
-21.1305
0
LINE
8
BLACK
6
CONTINUOUS
10
264.225
20
-21.1305
11
263.998
21
-20.7258
0
LINE
8
BLACK
6
CONTINUOUS
10
263.998
20
-20.7258
11
263.741
21
-20.3401
0
LINE
8
BLACK
6
CONTINUOUS
10
263.741
20
-20.3401
11
263.453
21
-19.9758
0
LINE
8
BLACK
6
CONTINUOUS
10
263.453
20
-19.9758
11
263.139
21
-19.6351
0
LINE
8
BLACK
6
CONTINUOUS
10
263.139
20
-19.6351
11
262.798
21
-19.3203
0
LINE
8
BLACK
6
CONTINUOUS
10
262.798
20
-19.3203
11
262.434
21
-19.0331
0
LINE
8
BLACK
6
CONTINUOUS
10
262.434
20
-19.0331
11
262.048
21
-18.7754
0
LINE
8
BLACK
6
CONTINUOUS
10
262.048
20
-18.7754
11
261.643
21
-18.5487
0
LINE
8
BLACK
6
CONTINUOUS
10
261.643
20
-18.5487
11
261.222
21
-18.3545
0
LINE
8
BLACK
6
CONTINUOUS
10
261.222
20
-18.3545
11
260.787
21
-18.194
0
LINE
8
BLACK
6
CONTINUOUS
10
260.787
20
-18.194
11
260.34
21
-18.0681
0
LINE
8
BLACK
6
CONTINUOUS
10
260.34
20
-18.0681
11
259.885
21
-17.9776
0
LINE
8
BLACK
6
CONTINUOUS
10
259.885
20
-17.9776
11
259.425
21
-17.923
0
LINE
8
BLACK
6
CONTINUOUS
10
259.425
20
-17.923
11
259.015
21
-17.907
0
LINE
8
BLACK
6
CONTINUOUS
10
259.015
20
-17.907
11
259.009
21
-17.9168
0
LINE
8
BLACK
6
CONTINUOUS
10
256.482
20
-89.1425
11
256.544
21
-88.8235
0
LINE
8
BLACK
6
CONTINUOUS
10
256.544
20
-88.8235
11
256.644
21
-88.5142
0
LINE
8
BLACK
6
CONTINUOUS
10
256.644
20
-88.5142
11
256.78
21
-88.2191
0
LINE
8
BLACK
6
CONTINUOUS
10
256.78
20
-88.2191
11
256.95
21
-87.9424
0
LINE
8
BLACK
6
CONTINUOUS
10
256.95
20
-87.9424
11
257.153
21
-87.6883
0
LINE
8
BLACK
6
CONTINUOUS
10
257.153
20
-87.6883
11
257.384
21
-87.4603
0
LINE
8
BLACK
6
CONTINUOUS
10
257.384
20
-87.4603
11
257.642
21
-87.2618
0
LINE
8
BLACK
6
CONTINUOUS
10
257.642
20
-87.2618
11
257.921
21
-87.0957
0
LINE
8
BLACK
6
CONTINUOUS
10
257.921
20
-87.0957
11
258.218
21
-86.9643
0
LINE
8
BLACK
6
CONTINUOUS
10
258.218
20
-86.9643
11
258.529
21
-86.8696
0
LINE
8
BLACK
6
CONTINUOUS
10
258.529
20
-86.8696
11
258.849
21
-86.8128
0
LINE
8
BLACK
6
CONTINUOUS
10
258.849
20
-86.8128
11
259.173
21
-86.795
0
LINE
8
BLACK
6
CONTINUOUS
10
259.173
20
-86.795
11
259.498
21
-86.8162
0
LINE
8
BLACK
6
CONTINUOUS
10
259.498
20
-86.8162
11
259.817
21
-86.8763
0
LINE
8
BLACK
6
CONTINUOUS
10
259.817
20
-86.8763
11
260.127
21
-86.9743
0
LINE
8
BLACK
6
CONTINUOUS
10
260.127
20
-86.9743
11
260.423
21
-87.1088
0
LINE
8
BLACK
6
CONTINUOUS
10
260.423
20
-87.1088
11
260.7
21
-87.2778
0
LINE
8
BLACK
6
CONTINUOUS
10
260.7
20
-87.2778
11
260.955
21
-87.479
0
LINE
8
BLACK
6
CONTINUOUS
10
260.955
20
-87.479
11
261.184
21
-87.7094
0
LINE
8
BLACK
6
CONTINUOUS
10
261.184
20
-87.7094
11
261.384
21
-87.9657
0
LINE
8
BLACK
6
CONTINUOUS
10
261.384
20
-87.9657
11
261.552
21
-88.2441
0
LINE
8
BLACK
6
CONTINUOUS
10
261.552
20
-88.2441
11
261.685
21
-88.5406
0
LINE
8
BLACK
6
CONTINUOUS
10
261.685
20
-88.5406
11
261.781
21
-88.8509
0
LINE
8
BLACK
6
CONTINUOUS
10
261.781
20
-88.8509
11
261.84
21
-89.1706
0
LINE
8
BLACK
6
CONTINUOUS
10
261.84
20
-89.1706
11
261.859
21
-89.495
0
LINE
8
BLACK
6
CONTINUOUS
10
261.859
20
-89.495
11
261.859
21
-89.5515
0
LINE
8
BLACK
6
CONTINUOUS
10
261.859
20
-89.5515
11
261.832
21
-89.8754
0
LINE
8
BLACK
6
CONTINUOUS
10
261.832
20
-89.8754
11
261.767
21
-90.1938
0
LINE
8
BLACK
6
CONTINUOUS
10
261.767
20
-90.1938
11
261.664
21
-90.502
0
LINE
8
BLACK
6
CONTINUOUS
10
261.664
20
-90.502
11
261.525
21
-90.7957
0
LINE
8
BLACK
6
CONTINUOUS
10
261.525
20
-90.7957
11
261.352
21
-91.0705
0
LINE
8
BLACK
6
CONTINUOUS
10
261.352
20
-91.0705
11
261.147
21
-91.3225
0
LINE
8
BLACK
6
CONTINUOUS
10
261.147
20
-91.3225
11
260.913
21
-91.548
0
LINE
8
BLACK
6
CONTINUOUS
10
260.913
20
-91.548
11
260.653
21
-91.7438
0
LINE
8
BLACK
6
CONTINUOUS
10
260.653
20
-91.7438
11
260.372
21
-91.9071
0
LINE
8
BLACK
6
CONTINUOUS
10
260.372
20
-91.9071
11
260.074
21
-92.0353
0
LINE
8
BLACK
6
CONTINUOUS
10
260.074
20
-92.0353
11
259.762
21
-92.1268
0
LINE
8
BLACK
6
CONTINUOUS
10
259.762
20
-92.1268
11
259.441
21
-92.1802
0
LINE
8
BLACK
6
CONTINUOUS
10
259.441
20
-92.1802
11
259.117
21
-92.1946
0
LINE
8
BLACK
6
CONTINUOUS
10
259.117
20
-92.1946
11
258.793
21
-92.17
0
LINE
8
BLACK
6
CONTINUOUS
10
258.793
20
-92.17
11
258.474
21
-92.1066
0
LINE
8
BLACK
6
CONTINUOUS
10
258.474
20
-92.1066
11
258.165
21
-92.0053
0
LINE
8
BLACK
6
CONTINUOUS
10
258.165
20
-92.0053
11
257.871
21
-91.8678
0
LINE
8
BLACK
6
CONTINUOUS
10
257.871
20
-91.8678
11
257.595
21
-91.6958
0
LINE
8
BLACK
6
CONTINUOUS
10
257.595
20
-91.6958
11
257.342
21
-91.492
0
LINE
8
BLACK
6
CONTINUOUS
10
257.342
20
-91.492
11
257.115
21
-91.2592
0
LINE
8
BLACK
6
CONTINUOUS
10
257.115
20
-91.2592
11
256.918
21
-91.0009
0
LINE
8
BLACK
6
CONTINUOUS
10
256.918
20
-91.0009
11
256.753
21
-90.7207
0
LINE
8
BLACK
6
CONTINUOUS
10
256.753
20
-90.7207
11
256.624
21
-90.4228
0
LINE
8
BLACK
6
CONTINUOUS
10
256.624
20
-90.4228
11
256.53
21
-90.1115
0
LINE
8
BLACK
6
CONTINUOUS
10
256.53
20
-90.1115
11
256.475
21
-89.7912
0
LINE
8
BLACK
6
CONTINUOUS
10
256.475
20
-89.7912
11
256.459
21
-89.4677
0
LINE
8
BLACK
6
CONTINUOUS
10
256.459
20
-89.4677
11
256.459
21
-89.4667
0
LINE
8
BLACK
6
CONTINUOUS
10
256.459
20
-89.4667
11
256.482
21
-89.1425
0
LINE
8
BLACK
6
CONTINUOUS
10
256.623
20
-90.0897
11
256.713
21
-90.3901
0
LINE
8
BLACK
6
CONTINUOUS
10
256.713
20
-90.3901
11
256.838
21
-90.6775
0
LINE
8
BLACK
6
CONTINUOUS
10
256.838
20
-90.6775
11
256.997
21
-90.9477
0
LINE
8
BLACK
6
CONTINUOUS
10
256.997
20
-90.9477
11
257.187
21
-91.1969
0
LINE
8
BLACK
6
CONTINUOUS
10
257.187
20
-91.1969
11
257.406
21
-91.4215
0
LINE
8
BLACK
6
CONTINUOUS
10
257.406
20
-91.4215
11
257.65
21
-91.6182
0
LINE
8
BLACK
6
CONTINUOUS
10
257.65
20
-91.6182
11
257.916
21
-91.7841
0
LINE
8
BLACK
6
CONTINUOUS
10
257.916
20
-91.7841
11
258.2
21
-91.9168
0
LINE
8
BLACK
6
CONTINUOUS
10
258.2
20
-91.9168
11
258.498
21
-92.0144
0
LINE
8
BLACK
6
CONTINUOUS
10
258.498
20
-92.0144
11
258.806
21
-92.0756
0
LINE
8
BLACK
6
CONTINUOUS
10
258.806
20
-92.0756
11
259.118
21
-92.0994
0
LINE
8
BLACK
6
CONTINUOUS
10
259.118
20
-92.0994
11
259.431
21
-92.0854
0
LINE
8
BLACK
6
CONTINUOUS
10
259.431
20
-92.0854
11
259.741
21
-92.034
0
LINE
8
BLACK
6
CONTINUOUS
10
259.741
20
-92.034
11
260.041
21
-91.9457
0
LINE
8
BLACK
6
CONTINUOUS
10
260.041
20
-91.9457
11
260.33
21
-91.822
0
LINE
8
BLACK
6
CONTINUOUS
10
260.33
20
-91.822
11
260.601
21
-91.6645
0
LINE
8
BLACK
6
CONTINUOUS
10
260.601
20
-91.6645
11
260.851
21
-91.4756
0
LINE
8
BLACK
6
CONTINUOUS
10
260.851
20
-91.4756
11
261.077
21
-91.258
0
LINE
8
BLACK
6
CONTINUOUS
10
261.077
20
-91.258
11
261.274
21
-91.0149
0
LINE
8
BLACK
6
CONTINUOUS
10
261.274
20
-91.0149
11
261.442
21
-90.7498
0
LINE
8
BLACK
6
CONTINUOUS
10
261.442
20
-90.7498
11
261.576
21
-90.4665
0
LINE
8
BLACK
6
CONTINUOUS
10
261.576
20
-90.4665
11
261.675
21
-90.1691
0
LINE
8
BLACK
6
CONTINUOUS
10
261.675
20
-90.1691
11
261.738
21
-89.862
0
LINE
8
BLACK
6
CONTINUOUS
10
261.738
20
-89.862
11
261.763
21
-89.5495
0
LINE
8
BLACK
6
CONTINUOUS
10
261.763
20
-89.5495
11
261.764
21
-89.495
0
LINE
8
BLACK
6
CONTINUOUS
10
261.764
20
-89.495
11
261.745
21
-89.182
0
LINE
8
BLACK
6
CONTINUOUS
10
261.745
20
-89.182
11
261.689
21
-88.8736
0
LINE
8
BLACK
6
CONTINUOUS
10
261.689
20
-88.8736
11
261.596
21
-88.5742
0
LINE
8
BLACK
6
CONTINUOUS
10
261.596
20
-88.5742
11
261.467
21
-88.2882
0
LINE
8
BLACK
6
CONTINUOUS
10
261.467
20
-88.2882
11
261.306
21
-88.0196
0
LINE
8
BLACK
6
CONTINUOUS
10
261.306
20
-88.0196
11
261.113
21
-87.7724
0
LINE
8
BLACK
6
CONTINUOUS
10
261.113
20
-87.7724
11
260.892
21
-87.5501
0
LINE
8
BLACK
6
CONTINUOUS
10
260.892
20
-87.5501
11
260.646
21
-87.3561
0
LINE
8
BLACK
6
CONTINUOUS
10
260.646
20
-87.3561
11
260.378
21
-87.193
0
LINE
8
BLACK
6
CONTINUOUS
10
260.378
20
-87.193
11
260.093
21
-87.0632
0
LINE
8
BLACK
6
CONTINUOUS
10
260.093
20
-87.0632
11
259.794
21
-86.9687
0
LINE
8
BLACK
6
CONTINUOUS
10
259.794
20
-86.9687
11
259.486
21
-86.9107
0
LINE
8
BLACK
6
CONTINUOUS
10
259.486
20
-86.9107
11
259.173
21
-86.8902
0
LINE
8
BLACK
6
CONTINUOUS
10
259.173
20
-86.8902
11
258.86
21
-86.9075
0
LINE
8
BLACK
6
CONTINUOUS
10
258.86
20
-86.9075
11
258.551
21
-86.9622
0
LINE
8
BLACK
6
CONTINUOUS
10
258.551
20
-86.9622
11
258.251
21
-87.0536
0
LINE
8
BLACK
6
CONTINUOUS
10
258.251
20
-87.0536
11
257.964
21
-87.1803
0
LINE
8
BLACK
6
CONTINUOUS
10
257.964
20
-87.1803
11
257.695
21
-87.3406
0
LINE
8
BLACK
6
CONTINUOUS
10
257.695
20
-87.3406
11
257.447
21
-87.5321
0
LINE
8
BLACK
6
CONTINUOUS
10
257.447
20
-87.5321
11
257.223
21
-87.752
0
LINE
8
BLACK
6
CONTINUOUS
10
257.223
20
-87.752
11
257.028
21
-87.9972
0
LINE
8
BLACK
6
CONTINUOUS
10
257.028
20
-87.9972
11
256.864
21
-88.2641
0
LINE
8
BLACK
6
CONTINUOUS
10
256.864
20
-88.2641
11
256.732
21
-88.5488
0
LINE
8
BLACK
6
CONTINUOUS
10
256.732
20
-88.5488
11
256.636
21
-88.8472
0
LINE
8
BLACK
6
CONTINUOUS
10
256.636
20
-88.8472
11
256.577
21
-89.155
0
LINE
8
BLACK
6
CONTINUOUS
10
256.577
20
-89.155
11
256.555
21
-89.4677
0
LINE
8
BLACK
6
CONTINUOUS
10
256.555
20
-89.4677
11
256.57
21
-89.7808
0
LINE
8
BLACK
6
CONTINUOUS
10
256.57
20
-89.7808
11
256.623
21
-90.0897
0
LINE
8
BLACK
6
CONTINUOUS
10
255.887
20
-23.8571
11
255.949
21
-23.5381
0
LINE
8
BLACK
6
CONTINUOUS
10
255.949
20
-23.5381
11
256.049
21
-23.2287
0
LINE
8
BLACK
6
CONTINUOUS
10
256.049
20
-23.2287
11
256.185
21
-22.9336
0
LINE
8
BLACK
6
CONTINUOUS
10
256.185
20
-22.9336
11
256.355
21
-22.657
0
LINE
8
BLACK
6
CONTINUOUS
10
256.355
20
-22.657
11
256.558
21
-22.4029
0
LINE
8
BLACK
6
CONTINUOUS
10
256.558
20
-22.4029
11
256.789
21
-22.1749
0
LINE
8
BLACK
6
CONTINUOUS
10
256.789
20
-22.1749
11
257.047
21
-21.9764
0
LINE
8
BLACK
6
CONTINUOUS
10
257.047
20
-21.9764
11
257.326
21
-21.8103
0
LINE
8
BLACK
6
CONTINUOUS
10
257.326
20
-21.8103
11
257.623
21
-21.6789
0
LINE
8
BLACK
6
CONTINUOUS
10
257.623
20
-21.6789
11
257.934
21
-21.5841
0
LINE
8
BLACK
6
CONTINUOUS
10
257.934
20
-21.5841
11
258.254
21
-21.5274
0
LINE
8
BLACK
6
CONTINUOUS
10
258.254
20
-21.5274
11
258.578
21
-21.5096
0
LINE
8
BLACK
6
CONTINUOUS
10
258.578
20
-21.5096
11
258.903
21
-21.5308
0
LINE
8
BLACK
6
CONTINUOUS
10
258.903
20
-21.5308
11
259.222
21
-21.5909
0
LINE
8
BLACK
6
CONTINUOUS
10
259.222
20
-21.5909
11
259.532
21
-21.6889
0
LINE
8
BLACK
6
CONTINUOUS
10
259.532
20
-21.6889
11
259.828
21
-21.8234
0
LINE
8
BLACK
6
CONTINUOUS
10
259.828
20
-21.8234
11
260.105
21
-21.9924
0
LINE
8
BLACK
6
CONTINUOUS
10
260.105
20
-21.9924
11
260.36
21
-22.1936
0
LINE
8
BLACK
6
CONTINUOUS
10
260.36
20
-22.1936
11
260.589
21
-22.424
0
LINE
8
BLACK
6
CONTINUOUS
10
260.589
20
-22.424
11
260.789
21
-22.6802
0
LINE
8
BLACK
6
CONTINUOUS
10
260.789
20
-22.6802
11
260.957
21
-22.9586
0
LINE
8
BLACK
6
CONTINUOUS
10
260.957
20
-22.9586
11
261.09
21
-23.2551
0
LINE
8
BLACK
6
CONTINUOUS
10
261.09
20
-23.2551
11
261.186
21
-23.5655
0
LINE
8
BLACK
6
CONTINUOUS
10
261.186
20
-23.5655
11
261.245
21
-23.8852
0
LINE
8
BLACK
6
CONTINUOUS
10
261.245
20
-23.8852
11
261.264
21
-24.2095
0
LINE
8
BLACK
6
CONTINUOUS
10
261.264
20
-24.2095
11
261.264
21
-24.2661
0
LINE
8
BLACK
6
CONTINUOUS
10
261.264
20
-24.2661
11
261.237
21
-24.59
0
LINE
8
BLACK
6
CONTINUOUS
10
261.237
20
-24.59
11
261.172
21
-24.9083
0
LINE
8
BLACK
6
CONTINUOUS
10
261.172
20
-24.9083
11
261.069
21
-25.2166
0
LINE
8
BLACK
6
CONTINUOUS
10
261.069
20
-25.2166
11
260.93
21
-25.5103
0
LINE
8
BLACK
6
CONTINUOUS
10
260.93
20
-25.5103
11
260.757
21
-25.7851
0
LINE
8
BLACK
6
CONTINUOUS
10
260.757
20
-25.7851
11
260.552
21
-26.0371
0
LINE
8
BLACK
6
CONTINUOUS
10
260.552
20
-26.0371
11
260.318
21
-26.2626
0
LINE
8
BLACK
6
CONTINUOUS
10
260.318
20
-26.2626
11
260.058
21
-26.4584
0
LINE
8
BLACK
6
CONTINUOUS
10
260.058
20
-26.4584
11
259.777
21
-26.6216
0
LINE
8
BLACK
6
CONTINUOUS
10
259.777
20
-26.6216
11
259.479
21
-26.7499
0
LINE
8
BLACK
6
CONTINUOUS
10
259.479
20
-26.7499
11
259.167
21
-26.8414
0
LINE
8
BLACK
6
CONTINUOUS
10
259.167
20
-26.8414
11
258.846
21
-26.8947
0
LINE
8
BLACK
6
CONTINUOUS
10
258.846
20
-26.8947
11
258.522
21
-26.9092
0
LINE
8
BLACK
6
CONTINUOUS
10
258.522
20
-26.9092
11
258.198
21
-26.8845
0
LINE
8
BLACK
6
CONTINUOUS
10
258.198
20
-26.8845
11
257.879
21
-26.8211
0
LINE
8
BLACK
6
CONTINUOUS
10
257.879
20
-26.8211
11
257.57
21
-26.7199
0
LINE
8
BLACK
6
CONTINUOUS
10
257.57
20
-26.7199
11
257.276
21
-26.5823
0
LINE
8
BLACK
6
CONTINUOUS
10
257.276
20
-26.5823
11
257
21
-26.4104
0
LINE
8
BLACK
6
CONTINUOUS
10
257
20
-26.4104
11
256.747
21
-26.2065
0
LINE
8
BLACK
6
CONTINUOUS
10
256.747
20
-26.2065
11
256.52
21
-25.9738
0
LINE
8
BLACK
6
CONTINUOUS
10
256.52
20
-25.9738
11
256.323
21
-25.7154
0
LINE
8
BLACK
6
CONTINUOUS
10
256.323
20
-25.7154
11
256.158
21
-25.4353
0
LINE
8
BLACK
6
CONTINUOUS
10
256.158
20
-25.4353
11
256.029
21
-25.1374
0
LINE
8
BLACK
6
CONTINUOUS
10
256.029
20
-25.1374
11
255.935
21
-24.8261
0
LINE
8
BLACK
6
CONTINUOUS
10
255.935
20
-24.8261
11
255.88
21
-24.5058
0
LINE
8
BLACK
6
CONTINUOUS
10
255.88
20
-24.5058
11
255.864
21
-24.1822
0
LINE
8
BLACK
6
CONTINUOUS
10
255.864
20
-24.1822
11
255.864
21
-24.1812
0
LINE
8
BLACK
6
CONTINUOUS
10
255.864
20
-24.1812
11
255.887
21
-23.8571
0
LINE
8
BLACK
6
CONTINUOUS
10
256.028
20
-24.8043
11
256.118
21
-25.1047
0
LINE
8
BLACK
6
CONTINUOUS
10
256.118
20
-25.1047
11
256.243
21
-25.3921
0
LINE
8
BLACK
6
CONTINUOUS
10
256.243
20
-25.3921
11
256.402
21
-25.6623
0
LINE
8
BLACK
6
CONTINUOUS
10
256.402
20
-25.6623
11
256.592
21
-25.9115
0
LINE
8
BLACK
6
CONTINUOUS
10
256.592
20
-25.9115
11
256.811
21
-26.1361
0
LINE
8
BLACK
6
CONTINUOUS
10
256.811
20
-26.1361
11
257.055
21
-26.3327
0
LINE
8
BLACK
6
CONTINUOUS
10
257.055
20
-26.3327
11
257.321
21
-26.4986
0
LINE
8
BLACK
6
CONTINUOUS
10
257.321
20
-26.4986
11
257.605
21
-26.6314
0
LINE
8
BLACK
6
CONTINUOUS
10
257.605
20
-26.6314
11
257.903
21
-26.729
0
LINE
8
BLACK
6
CONTINUOUS
10
257.903
20
-26.729
11
258.211
21
-26.7902
0
LINE
8
BLACK
6
CONTINUOUS
10
258.211
20
-26.7902
11
258.523
21
-26.814
0
LINE
8
BLACK
6
CONTINUOUS
10
258.523
20
-26.814
11
258.836
21
-26.8
0
LINE
8
BLACK
6
CONTINUOUS
10
258.836
20
-26.8
11
259.146
21
-26.7485
0
LINE
8
BLACK
6
CONTINUOUS
10
259.146
20
-26.7485
11
259.446
21
-26.6603
0
LINE
8
BLACK
6
CONTINUOUS
10
259.446
20
-26.6603
11
259.735
21
-26.5365
0
LINE
8
BLACK
6
CONTINUOUS
10
259.735
20
-26.5365
11
260.006
21
-26.3791
0
LINE
8
BLACK
6
CONTINUOUS
10
260.006
20
-26.3791
11
260.256
21
-26.1902
0
LINE
8
BLACK
6
CONTINUOUS
10
260.256
20
-26.1902
11
260.482
21
-25.9726
0
LINE
8
BLACK
6
CONTINUOUS
10
260.482
20
-25.9726
11
260.679
21
-25.7295
0
LINE
8
BLACK
6
CONTINUOUS
10
260.679
20
-25.7295
11
260.847
21
-25.4644
0
LINE
8
BLACK
6
CONTINUOUS
10
260.847
20
-25.4644
11
260.981
21
-25.1811
0
LINE
8
BLACK
6
CONTINUOUS
10
260.981
20
-25.1811
11
261.08
21
-24.8837
0
LINE
8
BLACK
6
CONTINUOUS
10
261.08
20
-24.8837
11
261.143
21
-24.5765
0
LINE
8
BLACK
6
CONTINUOUS
10
261.143
20
-24.5765
11
261.168
21
-24.2641
0
LINE
8
BLACK
6
CONTINUOUS
10
261.168
20
-24.2641
11
261.169
21
-24.2095
0
LINE
8
BLACK
6
CONTINUOUS
10
261.169
20
-24.2095
11
261.15
21
-23.8966
0
LINE
8
BLACK
6
CONTINUOUS
10
261.15
20
-23.8966
11
261.094
21
-23.5882
0
LINE
8
BLACK
6
CONTINUOUS
10
261.094
20
-23.5882
11
261.001
21
-23.2888
0
LINE
8
BLACK
6
CONTINUOUS
10
261.001
20
-23.2888
11
260.872
21
-23.0027
0
LINE
8
BLACK
6
CONTINUOUS
10
260.872
20
-23.0027
11
260.711
21
-22.7342
0
LINE
8
BLACK
6
CONTINUOUS
10
260.711
20
-22.7342
11
260.518
21
-22.487
0
LINE
8
BLACK
6
CONTINUOUS
10
260.518
20
-22.487
11
260.297
21
-22.2647
0
LINE
8
BLACK
6
CONTINUOUS
10
260.297
20
-22.2647
11
260.051
21
-22.0706
0
LINE
8
BLACK
6
CONTINUOUS
10
260.051
20
-22.0706
11
259.783
21
-21.9075
0
LINE
8
BLACK
6
CONTINUOUS
10
259.783
20
-21.9075
11
259.498
21
-21.7778
0
LINE
8
BLACK
6
CONTINUOUS
10
259.498
20
-21.7778
11
259.199
21
-21.6832
0
LINE
8
BLACK
6
CONTINUOUS
10
259.199
20
-21.6832
11
258.891
21
-21.6253
0
LINE
8
BLACK
6
CONTINUOUS
10
258.891
20
-21.6253
11
258.578
21
-21.6048
0
LINE
8
BLACK
6
CONTINUOUS
10
258.578
20
-21.6048
11
258.265
21
-21.622
0
LINE
8
BLACK
6
CONTINUOUS
10
258.265
20
-21.622
11
257.956
21
-21.6767
0
LINE
8
BLACK
6
CONTINUOUS
10
257.956
20
-21.6767
11
257.656
21
-21.7681
0
LINE
8
BLACK
6
CONTINUOUS
10
257.656
20
-21.7681
11
257.369
21
-21.8949
0
LINE
8
BLACK
6
CONTINUOUS
10
257.369
20
-21.8949
11
257.1
21
-22.0552
0
LINE
8
BLACK
6
CONTINUOUS
10
257.1
20
-22.0552
11
256.852
21
-22.2467
0
LINE
8
BLACK
6
CONTINUOUS
10
256.852
20
-22.2467
11
256.628
21
-22.4666
0
LINE
8
BLACK
6
CONTINUOUS
10
256.628
20
-22.4666
11
256.433
21
-22.7118
0
LINE
8
BLACK
6
CONTINUOUS
10
256.433
20
-22.7118
11
256.269
21
-22.9786
0
LINE
8
BLACK
6
CONTINUOUS
10
256.269
20
-22.9786
11
256.137
21
-23.2633
0
LINE
8
BLACK
6
CONTINUOUS
10
256.137
20
-23.2633
11
256.041
21
-23.5617
0
LINE
8
BLACK
6
CONTINUOUS
10
256.041
20
-23.5617
11
255.982
21
-23.8695
0
LINE
8
BLACK
6
CONTINUOUS
10
255.982
20
-23.8695
11
255.96
21
-24.1822
0
LINE
8
BLACK
6
CONTINUOUS
10
255.96
20
-24.1822
11
255.975
21
-24.4954
0
LINE
8
BLACK
6
CONTINUOUS
10
255.975
20
-24.4954
11
256.028
21
-24.8043
  0
ENDSEC
  0
EOF
