  0
SECTION
  2
HEADER
  9
$ANGBASE
  50
0.0
  9
$ANGDIR
  70
1
  9
$MEASUREMENT
  70
1
  0
ENDSEC
  0
SECTION
  2
TABLES
  0
TABLE
  2
LTYPE
  70
4
  0
LTYPE
  5
40F
  2
CONTINUOUS
  70
0
  3
Solid line
  72
65
  73
0
  40
0.0
  0
LTYPE
  5
410
  2
DASHDOT
 70
0
  3
Dash Dot ____ _ ____ _
 72
65
 73
4
 40
2.0
 49
1.25
 49
-0.25
 49
0.25
 49
-0.25
  0
LTYPE
  5
411
  2
DASHED
 70
0
  3
Dashed __ __ __ __ __
 72
65
 73
2
 40
0.75
 49
0.5
 49
-0.25
  0
LTYPE
  5
43B
  2
DOTTED
 70
0
  3
Dotted .  .  .  .
 72
65
 73
2
 40
0.2
 49
0.0
 49
-0.2
  0
ENDTAB
  0
TABLE
  2
STYLE
  70
4
  0
STYLE
  2
KICAD
  70
0
  40
0
  41
1
  42
1
  50
0
  71
0
  3
isocp.shx
  0
STYLE
  2
KICADB
  70
0
  40
0
  41
1
  42
1
  50
0
  71
0
  3
isocp.shx
  0
STYLE
  2
KICADI
  70
0
  40
0
  41
1
  42
1
  50
15
  71
0
  3
isocp.shx
  0
STYLE
  2
KICADBI
  70
0
  40
0
  41
1
  42
1
  50
15
  71
0
  3
isocp.shx
  0
ENDTAB
  0
TABLE
  2
LAYER
  70
1
  0
LAYER
  2
BLACK
  70
0
  62
7
  6
CONTINUOUS
  0
ENDTAB
  0
ENDSEC
  0
SECTION
  2
ENTITIES
0
LINE
8
BLACK
6
CONTINUOUS
10
26.7891
20
-69.1313
11
26.7793
21
-69.1296
0
LINE
8
BLACK
6
CONTINUOUS
10
26.7793
20
-69.1296
11
26.7761
21
-69.1302
0
LINE
8
BLACK
6
CONTINUOUS
10
26.7761
20
-69.1302
11
26.7732
21
-69.1285
0
LINE
8
BLACK
6
CONTINUOUS
10
26.7732
20
-69.1285
11
26.7634
21
-69.1268
0
LINE
8
BLACK
6
CONTINUOUS
10
26.7634
20
-69.1268
11
26.7485
21
-69.1143
0
LINE
8
BLACK
6
CONTINUOUS
10
26.7485
20
-69.1143
11
26.7316
21
-69.1045
0
LINE
8
BLACK
6
CONTINUOUS
10
26.7316
20
-69.1045
11
26.7293
21
-69.0982
0
LINE
8
BLACK
6
CONTINUOUS
10
26.7293
20
-69.0982
11
26.7241
21
-69.0938
0
LINE
8
BLACK
6
CONTINUOUS
10
26.7241
20
-69.0938
11
26.7207
21
-69.0746
0
LINE
8
BLACK
6
CONTINUOUS
10
26.7207
20
-69.0746
11
26.7141
21
-69.0563
0
LINE
8
BLACK
6
CONTINUOUS
10
26.7141
20
-69.0563
11
26.7141
21
-23.2172
0
LINE
8
BLACK
6
CONTINUOUS
10
26.7141
20
-23.2172
11
26.7158
21
-23.2075
0
LINE
8
BLACK
6
CONTINUOUS
10
26.7158
20
-23.2075
11
26.7152
21
-23.2042
0
LINE
8
BLACK
6
CONTINUOUS
10
26.7152
20
-23.2042
11
26.7169
21
-23.2013
0
LINE
8
BLACK
6
CONTINUOUS
10
26.7169
20
-23.2013
11
26.7186
21
-23.1916
0
LINE
8
BLACK
6
CONTINUOUS
10
26.7186
20
-23.1916
11
26.7311
21
-23.1766
0
LINE
8
BLACK
6
CONTINUOUS
10
26.7311
20
-23.1766
11
26.7409
21
-23.1598
0
LINE
8
BLACK
6
CONTINUOUS
10
26.7409
20
-23.1598
11
26.7472
21
-23.1574
0
LINE
8
BLACK
6
CONTINUOUS
10
26.7472
20
-23.1574
11
26.7516
21
-23.1523
0
LINE
8
BLACK
6
CONTINUOUS
10
26.7516
20
-23.1523
11
26.7708
21
-23.1489
0
LINE
8
BLACK
6
CONTINUOUS
10
26.7708
20
-23.1489
11
26.7891
21
-23.1422
0
LINE
8
BLACK
6
CONTINUOUS
10
26.7891
20
-23.1422
11
33.8578
21
-23.1422
0
LINE
8
BLACK
6
CONTINUOUS
10
33.8578
20
-23.1422
11
33.8578
21
-20.836
0
LINE
8
BLACK
6
CONTINUOUS
10
33.8578
20
-20.836
11
33.8596
21
-20.8262
0
LINE
8
BLACK
6
CONTINUOUS
10
33.8596
20
-20.8262
11
33.859
21
-20.8229
0
LINE
8
BLACK
6
CONTINUOUS
10
33.859
20
-20.8229
11
33.8606
21
-20.82
0
LINE
8
BLACK
6
CONTINUOUS
10
33.8606
20
-20.82
11
33.8624
21
-20.8103
0
LINE
8
BLACK
6
CONTINUOUS
10
33.8624
20
-20.8103
11
33.8749
21
-20.7954
0
LINE
8
BLACK
6
CONTINUOUS
10
33.8749
20
-20.7954
11
33.8846
21
-20.7785
0
LINE
8
BLACK
6
CONTINUOUS
10
33.8846
20
-20.7785
11
33.891
21
-20.7762
0
LINE
8
BLACK
6
CONTINUOUS
10
33.891
20
-20.7762
11
33.8953
21
-20.771
0
LINE
8
BLACK
6
CONTINUOUS
10
33.8953
20
-20.771
11
33.9145
21
-20.7676
0
LINE
8
BLACK
6
CONTINUOUS
10
33.9145
20
-20.7676
11
33.9328
21
-20.761
0
LINE
8
BLACK
6
CONTINUOUS
10
33.9328
20
-20.761
11
37.5047
21
-20.761
0
LINE
8
BLACK
6
CONTINUOUS
10
37.5047
20
-20.761
11
37.5145
21
-20.7627
0
LINE
8
BLACK
6
CONTINUOUS
10
37.5145
20
-20.7627
11
37.5177
21
-20.7621
0
LINE
8
BLACK
6
CONTINUOUS
10
37.5177
20
-20.7621
11
37.5206
21
-20.7638
0
LINE
8
BLACK
6
CONTINUOUS
10
37.5206
20
-20.7638
11
37.5304
21
-20.7655
0
LINE
8
BLACK
6
CONTINUOUS
10
37.5304
20
-20.7655
11
37.5453
21
-20.778
0
LINE
8
BLACK
6
CONTINUOUS
10
37.5453
20
-20.778
11
37.5622
21
-20.7877
0
LINE
8
BLACK
6
CONTINUOUS
10
37.5622
20
-20.7877
11
37.5645
21
-20.7941
0
LINE
8
BLACK
6
CONTINUOUS
10
37.5645
20
-20.7941
11
37.5697
21
-20.7985
0
LINE
8
BLACK
6
CONTINUOUS
10
37.5697
20
-20.7985
11
37.5731
21
-20.8176
0
LINE
8
BLACK
6
CONTINUOUS
10
37.5731
20
-20.8176
11
37.5797
21
-20.836
0
LINE
8
BLACK
6
CONTINUOUS
10
37.5797
20
-20.836
11
37.5797
21
-26.1188
0
LINE
8
BLACK
6
CONTINUOUS
10
37.5797
20
-26.1188
11
47.5579
21
-26.1188
0
LINE
8
BLACK
6
CONTINUOUS
10
47.5579
20
-26.1188
11
48.1458
21
-20.8277
0
LINE
8
BLACK
6
CONTINUOUS
10
48.1458
20
-20.8277
11
48.1478
21
-20.8211
0
LINE
8
BLACK
6
CONTINUOUS
10
48.1478
20
-20.8211
11
48.1474
21
-20.8183
0
LINE
8
BLACK
6
CONTINUOUS
10
48.1474
20
-20.8183
11
48.1494
21
-20.8154
0
LINE
8
BLACK
6
CONTINUOUS
10
48.1494
20
-20.8154
11
48.1531
21
-20.8027
0
LINE
8
BLACK
6
CONTINUOUS
10
48.1531
20
-20.8027
11
48.166
21
-20.7904
0
LINE
8
BLACK
6
CONTINUOUS
10
48.166
20
-20.7904
11
48.1758
21
-20.7756
0
LINE
8
BLACK
6
CONTINUOUS
10
48.1758
20
-20.7756
11
48.184
21
-20.7732
0
LINE
8
BLACK
6
CONTINUOUS
10
48.184
20
-20.7732
11
48.1903
21
-20.7673
0
LINE
8
BLACK
6
CONTINUOUS
10
48.1903
20
-20.7673
11
48.208
21
-20.7661
0
LINE
8
BLACK
6
CONTINUOUS
10
48.208
20
-20.7661
11
48.225
21
-20.7611
0
LINE
8
BLACK
6
CONTINUOUS
10
48.225
20
-20.7611
11
57.75
21
-21.3564
0
LINE
8
BLACK
6
CONTINUOUS
10
57.75
20
-21.3564
11
57.7629
21
-21.3595
0
LINE
8
BLACK
6
CONTINUOUS
10
57.7629
20
-21.3595
11
57.7665
21
-21.3593
0
LINE
8
BLACK
6
CONTINUOUS
10
57.7665
20
-21.3593
11
57.7687
21
-21.3609
0
LINE
8
BLACK
6
CONTINUOUS
10
57.7687
20
-21.3609
11
57.7754
21
-21.3625
0
LINE
8
BLACK
6
CONTINUOUS
10
57.7754
20
-21.3625
11
57.7907
21
-21.3771
0
LINE
8
BLACK
6
CONTINUOUS
10
57.7907
20
-21.3771
11
57.8078
21
-21.3897
0
LINE
8
BLACK
6
CONTINUOUS
10
57.8078
20
-21.3897
11
57.809
21
-21.3945
0
LINE
8
BLACK
6
CONTINUOUS
10
57.809
20
-21.3945
11
57.8125
21
-21.3979
0
LINE
8
BLACK
6
CONTINUOUS
10
57.8125
20
-21.3979
11
57.8149
21
-21.419
0
LINE
8
BLACK
6
CONTINUOUS
10
57.8149
20
-21.419
11
57.8199
21
-21.4396
0
LINE
8
BLACK
6
CONTINUOUS
10
57.8199
20
-21.4396
11
57.2328
21
-26.7233
0
LINE
8
BLACK
6
CONTINUOUS
10
57.2328
20
-26.7233
11
67.2042
21
-27.8964
0
LINE
8
BLACK
6
CONTINUOUS
10
67.2042
20
-27.8964
11
67.7911
21
-22.6136
0
LINE
8
BLACK
6
CONTINUOUS
10
67.7911
20
-22.6136
11
67.7931
21
-22.607
0
LINE
8
BLACK
6
CONTINUOUS
10
67.7931
20
-22.607
11
67.7928
21
-22.6043
0
LINE
8
BLACK
6
CONTINUOUS
10
67.7928
20
-22.6043
11
67.7947
21
-22.6013
0
LINE
8
BLACK
6
CONTINUOUS
10
67.7947
20
-22.6013
11
67.7985
21
-22.5886
0
LINE
8
BLACK
6
CONTINUOUS
10
67.7985
20
-22.5886
11
67.8113
21
-22.5764
0
LINE
8
BLACK
6
CONTINUOUS
10
67.8113
20
-22.5764
11
67.8212
21
-22.5615
0
LINE
8
BLACK
6
CONTINUOUS
10
67.8212
20
-22.5615
11
67.8294
21
-22.5591
0
LINE
8
BLACK
6
CONTINUOUS
10
67.8294
20
-22.5591
11
67.8356
21
-22.5532
0
LINE
8
BLACK
6
CONTINUOUS
10
67.8356
20
-22.5532
11
67.8533
21
-22.5521
0
LINE
8
BLACK
6
CONTINUOUS
10
67.8533
20
-22.5521
11
67.8704
21
-22.547
0
LINE
8
BLACK
6
CONTINUOUS
10
67.8704
20
-22.547
11
77.3954
21
-23.1424
0
LINE
8
BLACK
6
CONTINUOUS
10
77.3954
20
-23.1424
11
77.4013
21
-23.1438
0
LINE
8
BLACK
6
CONTINUOUS
10
77.4013
20
-23.1438
11
77.4037
21
-23.1433
0
LINE
8
BLACK
6
CONTINUOUS
10
77.4037
20
-23.1433
11
77.4068
21
-23.1451
0
LINE
8
BLACK
6
CONTINUOUS
10
77.4068
20
-23.1451
11
77.4207
21
-23.1485
0
LINE
8
BLACK
6
CONTINUOUS
10
77.4207
20
-23.1485
11
77.4332
21
-23.1604
0
LINE
8
BLACK
6
CONTINUOUS
10
77.4332
20
-23.1604
11
77.4481
21
-23.169
0
LINE
8
BLACK
6
CONTINUOUS
10
77.4481
20
-23.169
11
77.4513
21
-23.1776
0
LINE
8
BLACK
6
CONTINUOUS
10
77.4513
20
-23.1776
11
77.4579
21
-23.1838
0
LINE
8
BLACK
6
CONTINUOUS
10
77.4579
20
-23.1838
11
77.4598
21
-23.201
0
LINE
8
BLACK
6
CONTINUOUS
10
77.4598
20
-23.201
11
77.4657
21
-23.2172
0
LINE
8
BLACK
6
CONTINUOUS
10
77.4657
20
-23.2172
11
77.4657
21
-29.1041
0
LINE
8
BLACK
6
CONTINUOUS
10
77.4657
20
-29.1041
11
86.8496
21
-30.2771
0
LINE
8
BLACK
6
CONTINUOUS
10
86.8496
20
-30.2771
11
87.4365
21
-24.9949
0
LINE
8
BLACK
6
CONTINUOUS
10
87.4365
20
-24.9949
11
87.4394
21
-24.985
0
LINE
8
BLACK
6
CONTINUOUS
10
87.4394
20
-24.985
11
87.4392
21
-24.9816
0
LINE
8
BLACK
6
CONTINUOUS
10
87.4392
20
-24.9816
11
87.4411
21
-24.979
0
LINE
8
BLACK
6
CONTINUOUS
10
87.4411
20
-24.979
11
87.4438
21
-24.9699
0
LINE
8
BLACK
6
CONTINUOUS
10
87.4438
20
-24.9699
11
87.4581
21
-24.9563
0
LINE
8
BLACK
6
CONTINUOUS
10
87.4581
20
-24.9563
11
87.4698
21
-24.9405
0
LINE
8
BLACK
6
CONTINUOUS
10
87.4698
20
-24.9405
11
87.4762
21
-24.939
0
LINE
8
BLACK
6
CONTINUOUS
10
87.4762
20
-24.939
11
87.4809
21
-24.9345
0
LINE
8
BLACK
6
CONTINUOUS
10
87.4809
20
-24.9345
11
87.5006
21
-24.9332
0
LINE
8
BLACK
6
CONTINUOUS
10
87.5006
20
-24.9332
11
87.5198
21
-24.9287
0
LINE
8
BLACK
6
CONTINUOUS
10
87.5198
20
-24.9287
11
97.6401
21
-26.1193
0
LINE
8
BLACK
6
CONTINUOUS
10
97.6401
20
-26.1193
11
97.6492
21
-26.122
0
LINE
8
BLACK
6
CONTINUOUS
10
97.6492
20
-26.122
11
97.6524
21
-26.1218
0
LINE
8
BLACK
6
CONTINUOUS
10
97.6524
20
-26.1218
11
97.6552
21
-26.1238
0
LINE
8
BLACK
6
CONTINUOUS
10
97.6552
20
-26.1238
11
97.665
21
-26.1268
0
LINE
8
BLACK
6
CONTINUOUS
10
97.665
20
-26.1268
11
97.6782
21
-26.1408
0
LINE
8
BLACK
6
CONTINUOUS
10
97.6782
20
-26.1408
11
97.6938
21
-26.1522
0
LINE
8
BLACK
6
CONTINUOUS
10
97.6938
20
-26.1522
11
97.6954
21
-26.159
0
LINE
8
BLACK
6
CONTINUOUS
10
97.6954
20
-26.159
11
97.7002
21
-26.1641
0
LINE
8
BLACK
6
CONTINUOUS
10
97.7002
20
-26.1641
11
97.7013
21
-26.1833
0
LINE
8
BLACK
6
CONTINUOUS
10
97.7013
20
-26.1833
11
97.7059
21
-26.2021
0
LINE
8
BLACK
6
CONTINUOUS
10
97.7059
20
-26.2021
11
97.1182
21
-31.4907
0
LINE
8
BLACK
6
CONTINUOUS
10
97.1182
20
-31.4907
11
106.505
21
-33.2508
0
LINE
8
BLACK
6
CONTINUOUS
10
106.505
20
-33.2508
11
107.679
21
-28.5568
0
LINE
8
BLACK
6
CONTINUOUS
10
107.679
20
-28.5568
11
107.68
21
-28.5534
0
LINE
8
BLACK
6
CONTINUOUS
10
107.68
20
-28.5534
11
107.68
21
-28.5517
0
LINE
8
BLACK
6
CONTINUOUS
10
107.68
20
-28.5517
11
107.682
21
-28.5493
0
LINE
8
BLACK
6
CONTINUOUS
10
107.682
20
-28.5493
11
107.69
21
-28.533
0
LINE
8
BLACK
6
CONTINUOUS
10
107.69
20
-28.533
11
107.702
21
-28.5238
0
LINE
8
BLACK
6
CONTINUOUS
10
107.702
20
-28.5238
11
107.712
21
-28.5113
0
LINE
8
BLACK
6
CONTINUOUS
10
107.712
20
-28.5113
11
107.722
21
-28.5091
0
LINE
8
BLACK
6
CONTINUOUS
10
107.722
20
-28.5091
11
107.731
21
-28.5029
0
LINE
8
BLACK
6
CONTINUOUS
10
107.731
20
-28.5029
11
107.747
21
-28.504
0
LINE
8
BLACK
6
CONTINUOUS
10
107.747
20
-28.504
11
107.762
21
-28.5008
0
LINE
8
BLACK
6
CONTINUOUS
10
107.762
20
-28.5008
11
116.097
21
-29.6914
0
LINE
8
BLACK
6
CONTINUOUS
10
116.097
20
-29.6914
11
116.098
21
-29.6918
0
LINE
8
BLACK
6
CONTINUOUS
10
116.098
20
-29.6918
11
116.098
21
-29.6917
0
LINE
8
BLACK
6
CONTINUOUS
10
116.098
20
-29.6917
11
119.67
21
-30.287
0
LINE
8
BLACK
6
CONTINUOUS
10
119.67
20
-30.287
11
119.685
21
-30.2922
0
LINE
8
BLACK
6
CONTINUOUS
10
119.685
20
-30.2922
11
119.688
21
-30.2925
0
LINE
8
BLACK
6
CONTINUOUS
10
119.688
20
-30.2925
11
119.69
21
-30.294
0
LINE
8
BLACK
6
CONTINUOUS
10
119.69
20
-30.294
11
119.695
21
-30.2957
0
LINE
8
BLACK
6
CONTINUOUS
10
119.695
20
-30.2957
11
119.709
21
-30.3126
0
LINE
8
BLACK
6
CONTINUOUS
10
119.709
20
-30.3126
11
119.725
21
-30.3281
0
LINE
8
BLACK
6
CONTINUOUS
10
119.725
20
-30.3281
11
119.726
21
-30.3318
0
LINE
8
BLACK
6
CONTINUOUS
10
119.726
20
-30.3318
11
119.728
21
-30.3347
0
LINE
8
BLACK
6
CONTINUOUS
10
119.728
20
-30.3347
11
119.728
21
-30.357
0
LINE
8
BLACK
6
CONTINUOUS
10
119.728
20
-30.357
11
119.731
21
-30.3792
0
LINE
8
BLACK
6
CONTINUOUS
10
119.731
20
-30.3792
11
117.945
21
-37.5229
0
LINE
8
BLACK
6
CONTINUOUS
10
117.945
20
-37.5229
11
117.944
21
-37.5235
0
LINE
8
BLACK
6
CONTINUOUS
10
117.944
20
-37.5235
11
117.945
21
-37.5238
0
LINE
8
BLACK
6
CONTINUOUS
10
117.945
20
-37.5238
11
114.987
21
-48.7613
0
LINE
8
BLACK
6
CONTINUOUS
10
114.987
20
-48.7613
11
122.057
21
-50.5288
0
LINE
8
BLACK
6
CONTINUOUS
10
122.057
20
-50.5288
11
122.066
21
-50.5327
0
LINE
8
BLACK
6
CONTINUOUS
10
122.066
20
-50.5327
11
122.069
21
-50.5329
0
LINE
8
BLACK
6
CONTINUOUS
10
122.069
20
-50.5329
11
122.072
21
-50.5352
0
LINE
8
BLACK
6
CONTINUOUS
10
122.072
20
-50.5352
11
122.081
21
-50.5395
0
LINE
8
BLACK
6
CONTINUOUS
10
122.081
20
-50.5395
11
122.092
21
-50.555
0
LINE
8
BLACK
6
CONTINUOUS
10
122.092
20
-50.555
11
122.106
21
-50.5682
0
LINE
8
BLACK
6
CONTINUOUS
10
122.106
20
-50.5682
11
122.107
21
-50.5753
0
LINE
8
BLACK
6
CONTINUOUS
10
122.107
20
-50.5753
11
122.111
21
-50.581
0
LINE
8
BLACK
6
CONTINUOUS
10
122.111
20
-50.581
11
122.11
21
-50.6001
0
LINE
8
BLACK
6
CONTINUOUS
10
122.11
20
-50.6001
11
122.112
21
-50.6192
0
LINE
8
BLACK
6
CONTINUOUS
10
122.112
20
-50.6192
11
117.963
21
-67.809
0
LINE
8
BLACK
6
CONTINUOUS
10
117.963
20
-67.809
11
128.604
21
-70.1737
0
LINE
8
BLACK
6
CONTINUOUS
10
128.604
20
-70.1737
11
128.614
21
-70.178
0
LINE
8
BLACK
6
CONTINUOUS
10
128.614
20
-70.178
11
128.618
21
-70.1782
0
LINE
8
BLACK
6
CONTINUOUS
10
128.618
20
-70.1782
11
128.62
21
-70.1804
0
LINE
8
BLACK
6
CONTINUOUS
10
128.62
20
-70.1804
11
128.628
21
-70.1837
0
LINE
8
BLACK
6
CONTINUOUS
10
128.628
20
-70.1837
11
128.64
21
-70.1997
0
LINE
8
BLACK
6
CONTINUOUS
10
128.64
20
-70.1997
11
128.655
21
-70.2136
0
LINE
8
BLACK
6
CONTINUOUS
10
128.655
20
-70.2136
11
128.655
21
-70.2196
0
LINE
8
BLACK
6
CONTINUOUS
10
128.655
20
-70.2196
11
128.659
21
-70.2244
0
LINE
8
BLACK
6
CONTINUOUS
10
128.659
20
-70.2244
11
128.658
21
-70.2445
0
LINE
8
BLACK
6
CONTINUOUS
10
128.658
20
-70.2445
11
128.661
21
-70.2645
0
LINE
8
BLACK
6
CONTINUOUS
10
128.661
20
-70.2645
11
124.493
21
-87.5286
0
LINE
8
BLACK
6
CONTINUOUS
10
124.493
20
-87.5286
11
124.49
21
-87.5366
0
LINE
8
BLACK
6
CONTINUOUS
10
124.49
20
-87.5366
11
124.49
21
-87.5397
0
LINE
8
BLACK
6
CONTINUOUS
10
124.49
20
-87.5397
11
124.487
21
-87.5423
0
LINE
8
BLACK
6
CONTINUOUS
10
124.487
20
-87.5423
11
124.483
21
-87.5525
0
LINE
8
BLACK
6
CONTINUOUS
10
124.483
20
-87.5525
11
124.468
21
-87.5637
0
LINE
8
BLACK
6
CONTINUOUS
10
124.468
20
-87.5637
11
124.455
21
-87.5776
0
LINE
8
BLACK
6
CONTINUOUS
10
124.455
20
-87.5776
11
124.448
21
-87.5785
0
LINE
8
BLACK
6
CONTINUOUS
10
124.448
20
-87.5785
11
124.442
21
-87.5829
0
LINE
8
BLACK
6
CONTINUOUS
10
124.442
20
-87.5829
11
124.423
21
-87.5818
0
LINE
8
BLACK
6
CONTINUOUS
10
124.423
20
-87.5818
11
124.404
21
-87.5842
0
LINE
8
BLACK
6
CONTINUOUS
10
124.404
20
-87.5842
11
119.12
21
-86.4099
0
LINE
8
BLACK
6
CONTINUOUS
10
119.12
20
-86.4099
11
116.159
21
-100.029
0
LINE
8
BLACK
6
CONTINUOUS
10
116.159
20
-100.029
11
116.155
21
-100.04
0
LINE
8
BLACK
6
CONTINUOUS
10
116.155
20
-100.04
11
116.155
21
-100.043
0
LINE
8
BLACK
6
CONTINUOUS
10
116.155
20
-100.043
11
116.152
21
-100.045
0
LINE
8
BLACK
6
CONTINUOUS
10
116.152
20
-100.045
11
116.149
21
-100.053
0
LINE
8
BLACK
6
CONTINUOUS
10
116.149
20
-100.053
11
116.133
21
-100.065
0
LINE
8
BLACK
6
CONTINUOUS
10
116.133
20
-100.065
11
116.119
21
-100.08
0
LINE
8
BLACK
6
CONTINUOUS
10
116.119
20
-100.08
11
116.113
21
-100.081
0
LINE
8
BLACK
6
CONTINUOUS
10
116.113
20
-100.081
11
116.109
21
-100.084
0
LINE
8
BLACK
6
CONTINUOUS
10
116.109
20
-100.084
11
116.088
21
-100.083
0
LINE
8
BLACK
6
CONTINUOUS
10
116.088
20
-100.083
11
116.068
21
-100.085
0
LINE
8
BLACK
6
CONTINUOUS
10
116.068
20
-100.085
11
106.543
21
-97.7041
0
LINE
8
BLACK
6
CONTINUOUS
10
106.543
20
-97.7041
11
106.542
21
-97.7036
0
LINE
8
BLACK
6
CONTINUOUS
10
106.542
20
-97.7036
11
106.541
21
-97.7037
0
LINE
8
BLACK
6
CONTINUOUS
10
106.541
20
-97.7037
11
99.9928
21
-95.9177
0
LINE
8
BLACK
6
CONTINUOUS
10
99.9928
20
-95.9177
11
99.9793
21
-95.9114
0
LINE
8
BLACK
6
CONTINUOUS
10
99.9793
20
-95.9114
11
99.9759
21
-95.9108
0
LINE
8
BLACK
6
CONTINUOUS
10
99.9759
20
-95.9108
11
99.9744
21
-95.909
0
LINE
8
BLACK
6
CONTINUOUS
10
99.9744
20
-95.909
11
99.9693
21
-95.9066
0
LINE
8
BLACK
6
CONTINUOUS
10
99.9693
20
-95.9066
11
99.9568
21
-95.8886
0
LINE
8
BLACK
6
CONTINUOUS
10
99.9568
20
-95.8886
11
99.9424
21
-95.8719
0
LINE
8
BLACK
6
CONTINUOUS
10
99.9424
20
-95.8719
11
99.9424
21
-95.8678
0
LINE
8
BLACK
6
CONTINUOUS
10
99.9424
20
-95.8678
11
99.9401
21
-95.8645
0
LINE
8
BLACK
6
CONTINUOUS
10
99.9401
20
-95.8645
11
99.9421
21
-95.8426
0
LINE
8
BLACK
6
CONTINUOUS
10
99.9421
20
-95.8426
11
99.9418
21
-95.8206
0
LINE
8
BLACK
6
CONTINUOUS
10
99.9418
20
-95.8206
11
104.08
21
-83.9979
0
LINE
8
BLACK
6
CONTINUOUS
10
104.08
20
-83.9979
11
90.5504
21
-81.6449
0
LINE
8
BLACK
6
CONTINUOUS
10
90.5504
20
-81.6449
11
88.7758
21
-93.4753
0
LINE
8
BLACK
6
CONTINUOUS
10
88.7758
20
-93.4753
11
88.7739
21
-93.4811
0
LINE
8
BLACK
6
CONTINUOUS
10
88.7739
20
-93.4811
11
88.7741
21
-93.4836
0
LINE
8
BLACK
6
CONTINUOUS
10
88.7741
20
-93.4836
11
88.772
21
-93.4865
0
LINE
8
BLACK
6
CONTINUOUS
10
88.772
20
-93.4865
11
88.7675
21
-93.5
0
LINE
8
BLACK
6
CONTINUOUS
10
88.7675
20
-93.5
11
88.7546
21
-93.5114
0
LINE
8
BLACK
6
CONTINUOUS
10
88.7546
20
-93.5114
11
88.7446
21
-93.5256
0
LINE
8
BLACK
6
CONTINUOUS
10
88.7446
20
-93.5256
11
88.7359
21
-93.5279
0
LINE
8
BLACK
6
CONTINUOUS
10
88.7359
20
-93.5279
11
88.7291
21
-93.5339
0
LINE
8
BLACK
6
CONTINUOUS
10
88.7291
20
-93.5339
11
88.7118
21
-93.5344
0
LINE
8
BLACK
6
CONTINUOUS
10
88.7118
20
-93.5344
11
88.695
21
-93.5389
0
LINE
8
BLACK
6
CONTINUOUS
10
88.695
20
-93.5389
11
68.4544
21
-91.7529
0
LINE
8
BLACK
6
CONTINUOUS
10
68.4544
20
-91.7529
11
68.4517
21
-91.7522
0
LINE
8
BLACK
6
CONTINUOUS
10
68.4517
20
-91.7522
11
68.4504
21
-91.7524
0
LINE
8
BLACK
6
CONTINUOUS
10
68.4504
20
-91.7524
11
60.1169
21
-90.5619
0
LINE
8
BLACK
6
CONTINUOUS
10
60.1169
20
-90.5619
11
45.2377
21
-88.7764
0
LINE
8
BLACK
6
CONTINUOUS
10
45.2377
20
-88.7764
11
31.5483
21
-88.1813
0
LINE
8
BLACK
6
CONTINUOUS
10
31.5483
20
-88.1813
11
31.5413
21
-88.1797
0
LINE
8
BLACK
6
CONTINUOUS
10
31.5413
20
-88.1797
11
31.5386
21
-88.1802
0
LINE
8
BLACK
6
CONTINUOUS
10
31.5386
20
-88.1802
11
31.5355
21
-88.1784
0
LINE
8
BLACK
6
CONTINUOUS
10
31.5355
20
-88.1784
11
31.5229
21
-88.1756
0
LINE
8
BLACK
6
CONTINUOUS
10
31.5229
20
-88.1756
11
31.5097
21
-88.1635
0
LINE
8
BLACK
6
CONTINUOUS
10
31.5097
20
-88.1635
11
31.4941
21
-88.1545
0
LINE
8
BLACK
6
CONTINUOUS
10
31.4941
20
-88.1545
11
31.4913
21
-88.1466
0
LINE
8
BLACK
6
CONTINUOUS
10
31.4913
20
-88.1466
11
31.4851
21
-88.141
0
LINE
8
BLACK
6
CONTINUOUS
10
31.4851
20
-88.141
11
31.4827
21
-88.1232
0
LINE
8
BLACK
6
CONTINUOUS
10
31.4827
20
-88.1232
11
31.4766
21
-88.1063
0
LINE
8
BLACK
6
CONTINUOUS
10
31.4766
20
-88.1063
11
31.4766
21
-69.1313
0
LINE
8
BLACK
6
CONTINUOUS
10
31.4766
20
-69.1313
11
26.7891
21
-69.1313
0
LINE
8
BLACK
6
CONTINUOUS
10
31.5516
20
-68.9813
11
31.5613
21
-68.983
0
LINE
8
BLACK
6
CONTINUOUS
10
31.5613
20
-68.983
11
31.5646
21
-68.9824
0
LINE
8
BLACK
6
CONTINUOUS
10
31.5646
20
-68.9824
11
31.5675
21
-68.9841
0
LINE
8
BLACK
6
CONTINUOUS
10
31.5675
20
-68.9841
11
31.5772
21
-68.9858
0
LINE
8
BLACK
6
CONTINUOUS
10
31.5772
20
-68.9858
11
31.5922
21
-68.9984
0
LINE
8
BLACK
6
CONTINUOUS
10
31.5922
20
-68.9984
11
31.609
21
-69.0081
0
LINE
8
BLACK
6
CONTINUOUS
10
31.609
20
-69.0081
11
31.6114
21
-69.0145
0
LINE
8
BLACK
6
CONTINUOUS
10
31.6114
20
-69.0145
11
31.6165
21
-69.0188
0
LINE
8
BLACK
6
CONTINUOUS
10
31.6165
20
-69.0188
11
31.6199
21
-69.038
0
LINE
8
BLACK
6
CONTINUOUS
10
31.6199
20
-69.038
11
31.6266
21
-69.0563
0
LINE
8
BLACK
6
CONTINUOUS
10
31.6266
20
-69.0563
11
31.6266
21
-88.0345
0
LINE
8
BLACK
6
CONTINUOUS
10
31.6266
20
-88.0345
11
45.247
21
-88.6267
0
LINE
8
BLACK
6
CONTINUOUS
10
45.247
20
-88.6267
11
45.251
21
-88.6276
0
LINE
8
BLACK
6
CONTINUOUS
10
45.251
20
-88.6276
11
45.2527
21
-88.6272
0
LINE
8
BLACK
6
CONTINUOUS
10
45.2527
20
-88.6272
11
60.1355
21
-90.4131
0
LINE
8
BLACK
6
CONTINUOUS
10
60.1355
20
-90.4131
11
60.1367
21
-90.4134
0
LINE
8
BLACK
6
CONTINUOUS
10
60.1367
20
-90.4134
11
60.1372
21
-90.4133
0
LINE
8
BLACK
6
CONTINUOUS
10
60.1372
20
-90.4133
11
68.4696
21
-91.6037
0
LINE
8
BLACK
6
CONTINUOUS
10
68.4696
20
-91.6037
11
88.6379
21
-93.3832
0
LINE
8
BLACK
6
CONTINUOUS
10
88.6379
20
-93.3832
11
90.4134
21
-81.5468
0
LINE
8
BLACK
6
CONTINUOUS
10
90.4134
20
-81.5468
11
90.417
21
-81.5359
0
LINE
8
BLACK
6
CONTINUOUS
10
90.417
20
-81.5359
11
90.417
21
-81.5324
0
LINE
8
BLACK
6
CONTINUOUS
10
90.417
20
-81.5324
11
90.419
21
-81.53
0
LINE
8
BLACK
6
CONTINUOUS
10
90.419
20
-81.53
11
90.4217
21
-81.5221
0
LINE
8
BLACK
6
CONTINUOUS
10
90.4217
20
-81.5221
11
90.4369
21
-81.5086
0
LINE
8
BLACK
6
CONTINUOUS
10
90.4369
20
-81.5086
11
90.4499
21
-81.493
0
LINE
8
BLACK
6
CONTINUOUS
10
90.4499
20
-81.493
11
90.4557
21
-81.492
0
LINE
8
BLACK
6
CONTINUOUS
10
90.4557
20
-81.492
11
90.4601
21
-81.4881
0
LINE
8
BLACK
6
CONTINUOUS
10
90.4601
20
-81.4881
11
90.4804
21
-81.4876
0
LINE
8
BLACK
6
CONTINUOUS
10
90.4804
20
-81.4876
11
90.5004
21
-81.484
0
LINE
8
BLACK
6
CONTINUOUS
10
90.5004
20
-81.484
11
104.193
21
-83.8652
0
LINE
8
BLACK
6
CONTINUOUS
10
104.193
20
-83.8652
11
104.216
21
-83.8736
0
LINE
8
BLACK
6
CONTINUOUS
10
104.216
20
-83.8736
11
104.216
21
-83.8737
0
LINE
8
BLACK
6
CONTINUOUS
10
104.216
20
-83.8737
11
104.217
21
-83.8739
0
LINE
8
BLACK
6
CONTINUOUS
10
104.217
20
-83.8739
11
104.217
21
-83.8741
0
LINE
8
BLACK
6
CONTINUOUS
10
104.217
20
-83.8741
11
104.233
21
-83.8934
0
LINE
8
BLACK
6
CONTINUOUS
10
104.233
20
-83.8934
11
104.25
21
-83.9126
0
LINE
8
BLACK
6
CONTINUOUS
10
104.25
20
-83.9126
11
104.25
21
-83.913
0
LINE
8
BLACK
6
CONTINUOUS
10
104.25
20
-83.913
11
104.25
21
-83.9133
0
LINE
8
BLACK
6
CONTINUOUS
10
104.25
20
-83.9133
11
104.25
21
-83.9387
0
LINE
8
BLACK
6
CONTINUOUS
10
104.25
20
-83.9387
11
104.251
21
-83.9639
0
LINE
8
BLACK
6
CONTINUOUS
10
104.251
20
-83.9639
11
100.11
21
-95.7942
0
LINE
8
BLACK
6
CONTINUOUS
10
100.11
20
-95.7942
11
106.58
21
-97.5588
0
LINE
8
BLACK
6
CONTINUOUS
10
106.58
20
-97.5588
11
116.029
21
-99.9211
0
LINE
8
BLACK
6
CONTINUOUS
10
116.029
20
-99.9211
11
118.989
21
-86.3045
0
LINE
8
BLACK
6
CONTINUOUS
10
118.989
20
-86.3045
11
118.993
21
-86.295
0
LINE
8
BLACK
6
CONTINUOUS
10
118.993
20
-86.295
11
118.993
21
-86.2916
0
LINE
8
BLACK
6
CONTINUOUS
10
118.993
20
-86.2916
11
118.996
21
-86.2892
0
LINE
8
BLACK
6
CONTINUOUS
10
118.996
20
-86.2892
11
118.999
21
-86.2803
0
LINE
8
BLACK
6
CONTINUOUS
10
118.999
20
-86.2803
11
119.015
21
-86.2683
0
LINE
8
BLACK
6
CONTINUOUS
10
119.015
20
-86.2683
11
119.028
21
-86.2538
0
LINE
8
BLACK
6
CONTINUOUS
10
119.028
20
-86.2538
11
119.035
21
-86.253
0
LINE
8
BLACK
6
CONTINUOUS
10
119.035
20
-86.253
11
119.04
21
-86.2489
0
LINE
8
BLACK
6
CONTINUOUS
10
119.04
20
-86.2489
11
119.059
21
-86.2497
0
LINE
8
BLACK
6
CONTINUOUS
10
119.059
20
-86.2497
11
119.079
21
-86.2472
0
LINE
8
BLACK
6
CONTINUOUS
10
119.079
20
-86.2472
11
124.365
21
-87.4218
0
LINE
8
BLACK
6
CONTINUOUS
10
124.365
20
-87.4218
11
128.497
21
-70.3036
0
LINE
8
BLACK
6
CONTINUOUS
10
128.497
20
-70.3036
11
117.856
21
-67.9389
0
LINE
8
BLACK
6
CONTINUOUS
10
117.856
20
-67.9389
11
117.845
21
-67.9346
0
LINE
8
BLACK
6
CONTINUOUS
10
117.845
20
-67.9346
11
117.842
21
-67.9344
0
LINE
8
BLACK
6
CONTINUOUS
10
117.842
20
-67.9344
11
117.84
21
-67.9323
0
LINE
8
BLACK
6
CONTINUOUS
10
117.84
20
-67.9323
11
117.832
21
-67.9289
0
LINE
8
BLACK
6
CONTINUOUS
10
117.832
20
-67.9289
11
117.819
21
-67.9129
0
LINE
8
BLACK
6
CONTINUOUS
10
117.819
20
-67.9129
11
117.805
21
-67.8991
0
LINE
8
BLACK
6
CONTINUOUS
10
117.805
20
-67.8991
11
117.804
21
-67.893
0
LINE
8
BLACK
6
CONTINUOUS
10
117.804
20
-67.893
11
117.8
21
-67.8882
0
LINE
8
BLACK
6
CONTINUOUS
10
117.8
20
-67.8882
11
117.801
21
-67.8681
0
LINE
8
BLACK
6
CONTINUOUS
10
117.801
20
-67.8681
11
117.799
21
-67.8481
0
LINE
8
BLACK
6
CONTINUOUS
10
117.799
20
-67.8481
11
121.949
21
-50.6563
0
LINE
8
BLACK
6
CONTINUOUS
10
121.949
20
-50.6563
11
114.877
21
-48.8884
0
LINE
8
BLACK
6
CONTINUOUS
10
114.877
20
-48.8884
11
114.867
21
-48.8841
0
LINE
8
BLACK
6
CONTINUOUS
10
114.867
20
-48.8841
11
114.864
21
-48.8838
0
LINE
8
BLACK
6
CONTINUOUS
10
114.864
20
-48.8838
11
114.862
21
-48.8815
0
LINE
8
BLACK
6
CONTINUOUS
10
114.862
20
-48.8815
11
114.853
21
-48.8778
0
LINE
8
BLACK
6
CONTINUOUS
10
114.853
20
-48.8778
11
114.842
21
-48.8617
0
LINE
8
BLACK
6
CONTINUOUS
10
114.842
20
-48.8617
11
114.828
21
-48.8477
0
LINE
8
BLACK
6
CONTINUOUS
10
114.828
20
-48.8477
11
114.827
21
-48.8414
0
LINE
8
BLACK
6
CONTINUOUS
10
114.827
20
-48.8414
11
114.823
21
-48.8363
0
LINE
8
BLACK
6
CONTINUOUS
10
114.823
20
-48.8363
11
114.825
21
-48.8164
0
LINE
8
BLACK
6
CONTINUOUS
10
114.825
20
-48.8164
11
114.823
21
-48.7966
0
LINE
8
BLACK
6
CONTINUOUS
10
114.823
20
-48.7966
11
117.799
21
-37.4861
0
LINE
8
BLACK
6
CONTINUOUS
10
117.799
20
-37.4861
11
119.565
21
-30.4216
0
LINE
8
BLACK
6
CONTINUOUS
10
119.565
20
-30.4216
11
116.075
21
-29.8398
0
LINE
8
BLACK
6
CONTINUOUS
10
116.075
20
-29.8398
11
107.808
21
-28.6588
0
LINE
8
BLACK
6
CONTINUOUS
10
107.808
20
-28.6588
11
106.634
21
-33.3557
0
LINE
8
BLACK
6
CONTINUOUS
10
106.634
20
-33.3557
11
106.631
21
-33.3614
0
LINE
8
BLACK
6
CONTINUOUS
10
106.631
20
-33.3614
11
106.631
21
-33.3639
0
LINE
8
BLACK
6
CONTINUOUS
10
106.631
20
-33.3639
11
106.629
21
-33.3666
0
LINE
8
BLACK
6
CONTINUOUS
10
106.629
20
-33.3666
11
106.623
21
-33.3795
0
LINE
8
BLACK
6
CONTINUOUS
10
106.623
20
-33.3795
11
106.609
21
-33.3897
0
LINE
8
BLACK
6
CONTINUOUS
10
106.609
20
-33.3897
11
106.598
21
-33.4029
0
LINE
8
BLACK
6
CONTINUOUS
10
106.598
20
-33.4029
11
106.589
21
-33.4043
0
LINE
8
BLACK
6
CONTINUOUS
10
106.589
20
-33.4043
11
106.582
21
-33.4096
0
LINE
8
BLACK
6
CONTINUOUS
10
106.582
20
-33.4096
11
106.564
21
-33.4084
0
LINE
8
BLACK
6
CONTINUOUS
10
106.564
20
-33.4084
11
106.547
21
-33.4112
0
LINE
8
BLACK
6
CONTINUOUS
10
106.547
20
-33.4112
11
97.0222
21
-31.6253
0
LINE
8
BLACK
6
CONTINUOUS
10
97.0222
20
-31.6253
11
97.0172
21
-31.6234
0
LINE
8
BLACK
6
CONTINUOUS
10
97.0172
20
-31.6234
11
97.0149
21
-31.6236
0
LINE
8
BLACK
6
CONTINUOUS
10
97.0149
20
-31.6236
11
97.0122
21
-31.6215
0
LINE
8
BLACK
6
CONTINUOUS
10
97.0122
20
-31.6215
11
96.9978
21
-31.6161
0
LINE
8
BLACK
6
CONTINUOUS
10
96.9978
20
-31.6161
11
96.9871
21
-31.6031
0
LINE
8
BLACK
6
CONTINUOUS
10
96.9871
20
-31.6031
11
96.9736
21
-31.5932
0
LINE
8
BLACK
6
CONTINUOUS
10
96.9736
20
-31.5932
11
96.9713
21
-31.5839
0
LINE
8
BLACK
6
CONTINUOUS
10
96.9713
20
-31.5839
11
96.9653
21
-31.5765
0
LINE
8
BLACK
6
CONTINUOUS
10
96.9653
20
-31.5765
11
96.9655
21
-31.5597
0
LINE
8
BLACK
6
CONTINUOUS
10
96.9655
20
-31.5597
11
96.9615
21
-31.5433
0
LINE
8
BLACK
6
CONTINUOUS
10
96.9615
20
-31.5433
11
97.5486
21
-26.2596
0
LINE
8
BLACK
6
CONTINUOUS
10
97.5486
20
-26.2596
11
87.5772
21
-25.0865
0
LINE
8
BLACK
6
CONTINUOUS
10
87.5772
20
-25.0865
11
86.9902
21
-30.3692
0
LINE
8
BLACK
6
CONTINUOUS
10
86.9902
20
-30.3692
11
86.9872
21
-30.3796
0
LINE
8
BLACK
6
CONTINUOUS
10
86.9872
20
-30.3796
11
86.9874
21
-30.383
0
LINE
8
BLACK
6
CONTINUOUS
10
86.9874
20
-30.383
11
86.9854
21
-30.3856
0
LINE
8
BLACK
6
CONTINUOUS
10
86.9854
20
-30.3856
11
86.9829
21
-30.3942
0
LINE
8
BLACK
6
CONTINUOUS
10
86.9829
20
-30.3942
11
86.9685
21
-30.408
0
LINE
8
BLACK
6
CONTINUOUS
10
86.9685
20
-30.408
11
86.9564
21
-30.424
0
LINE
8
BLACK
6
CONTINUOUS
10
86.9564
20
-30.424
11
86.9503
21
-30.4253
0
LINE
8
BLACK
6
CONTINUOUS
10
86.9503
20
-30.4253
11
86.9458
21
-30.4297
0
LINE
8
BLACK
6
CONTINUOUS
10
86.9458
20
-30.4297
11
86.9259
21
-30.4309
0
LINE
8
BLACK
6
CONTINUOUS
10
86.9259
20
-30.4309
11
86.9064
21
-30.4354
0
LINE
8
BLACK
6
CONTINUOUS
10
86.9064
20
-30.4354
11
77.3814
21
-29.2448
0
LINE
8
BLACK
6
CONTINUOUS
10
77.3814
20
-29.2448
11
77.3789
21
-29.244
0
LINE
8
BLACK
6
CONTINUOUS
10
77.3789
20
-29.244
11
77.3777
21
-29.2442
0
LINE
8
BLACK
6
CONTINUOUS
10
77.3777
20
-29.2442
11
77.3755
21
-29.2429
0
LINE
8
BLACK
6
CONTINUOUS
10
77.3755
20
-29.2429
11
77.3565
21
-29.2371
0
LINE
8
BLACK
6
CONTINUOUS
10
77.3565
20
-29.2371
11
77.3463
21
-29.2261
0
LINE
8
BLACK
6
CONTINUOUS
10
77.3463
20
-29.2261
11
77.3332
21
-29.2185
0
LINE
8
BLACK
6
CONTINUOUS
10
77.3332
20
-29.2185
11
77.3293
21
-29.2078
0
LINE
8
BLACK
6
CONTINUOUS
10
77.3293
20
-29.2078
11
77.3216
21
-29.1995
0
LINE
8
BLACK
6
CONTINUOUS
10
77.3216
20
-29.1995
11
77.3208
21
-29.1845
0
LINE
8
BLACK
6
CONTINUOUS
10
77.3208
20
-29.1845
11
77.3157
21
-29.1703
0
LINE
8
BLACK
6
CONTINUOUS
10
77.3157
20
-29.1703
11
77.3157
21
-23.2877
0
LINE
8
BLACK
6
CONTINUOUS
10
77.3157
20
-23.2877
11
67.9323
21
-22.7012
0
LINE
8
BLACK
6
CONTINUOUS
10
67.9323
20
-22.7012
11
67.3449
21
-27.988
0
LINE
8
BLACK
6
CONTINUOUS
10
67.3449
20
-27.988
11
67.342
21
-27.9979
0
LINE
8
BLACK
6
CONTINUOUS
10
67.342
20
-27.9979
11
67.3422
21
-28.0013
0
LINE
8
BLACK
6
CONTINUOUS
10
67.3422
20
-28.0013
11
67.3402
21
-28.0039
0
LINE
8
BLACK
6
CONTINUOUS
10
67.3402
20
-28.0039
11
67.3376
21
-28.013
0
LINE
8
BLACK
6
CONTINUOUS
10
67.3376
20
-28.013
11
67.3233
21
-28.0266
0
LINE
8
BLACK
6
CONTINUOUS
10
67.3233
20
-28.0266
11
67.3115
21
-28.0424
0
LINE
8
BLACK
6
CONTINUOUS
10
67.3115
20
-28.0424
11
67.3052
21
-28.0439
0
LINE
8
BLACK
6
CONTINUOUS
10
67.3052
20
-28.0439
11
67.3005
21
-28.0484
0
LINE
8
BLACK
6
CONTINUOUS
10
67.3005
20
-28.0484
11
67.2808
21
-28.0497
0
LINE
8
BLACK
6
CONTINUOUS
10
67.2808
20
-28.0497
11
67.2616
21
-28.0542
0
LINE
8
BLACK
6
CONTINUOUS
10
67.2616
20
-28.0542
11
57.1413
21
-26.8636
0
LINE
8
BLACK
6
CONTINUOUS
10
57.1413
20
-26.8636
11
57.1322
21
-26.8608
0
LINE
8
BLACK
6
CONTINUOUS
10
57.1322
20
-26.8608
11
57.1289
21
-26.8611
0
LINE
8
BLACK
6
CONTINUOUS
10
57.1289
20
-26.8611
11
57.1262
21
-26.859
0
LINE
8
BLACK
6
CONTINUOUS
10
57.1262
20
-26.859
11
57.1163
21
-26.8561
0
LINE
8
BLACK
6
CONTINUOUS
10
57.1163
20
-26.8561
11
57.1031
21
-26.8421
0
LINE
8
BLACK
6
CONTINUOUS
10
57.1031
20
-26.8421
11
57.0876
21
-26.8307
0
LINE
8
BLACK
6
CONTINUOUS
10
57.0876
20
-26.8307
11
57.086
21
-26.8238
0
LINE
8
BLACK
6
CONTINUOUS
10
57.086
20
-26.8238
11
57.0812
21
-26.8187
0
LINE
8
BLACK
6
CONTINUOUS
10
57.0812
20
-26.8187
11
57.0801
21
-26.7995
0
LINE
8
BLACK
6
CONTINUOUS
10
57.0801
20
-26.7995
11
57.0755
21
-26.7808
0
LINE
8
BLACK
6
CONTINUOUS
10
57.0755
20
-26.7808
11
57.6621
21
-21.5012
0
LINE
8
BLACK
6
CONTINUOUS
10
57.6621
20
-21.5012
11
48.287
21
-20.9153
0
LINE
8
BLACK
6
CONTINUOUS
10
48.287
20
-20.9153
11
47.6996
21
-26.2021
0
LINE
8
BLACK
6
CONTINUOUS
10
47.6996
20
-26.2021
11
47.6986
21
-26.2053
0
LINE
8
BLACK
6
CONTINUOUS
10
47.6986
20
-26.2053
11
47.6989
21
-26.2068
0
LINE
8
BLACK
6
CONTINUOUS
10
47.6989
20
-26.2068
11
47.6975
21
-26.2093
0
LINE
8
BLACK
6
CONTINUOUS
10
47.6975
20
-26.2093
11
47.6923
21
-26.227
0
LINE
8
BLACK
6
CONTINUOUS
10
47.6923
20
-26.227
11
47.681
21
-26.2378
0
LINE
8
BLACK
6
CONTINUOUS
10
47.681
20
-26.2378
11
47.6732
21
-26.2512
0
LINE
8
BLACK
6
CONTINUOUS
10
47.6732
20
-26.2512
11
47.663
21
-26.2549
0
LINE
8
BLACK
6
CONTINUOUS
10
47.663
20
-26.2549
11
47.6551
21
-26.2625
0
LINE
8
BLACK
6
CONTINUOUS
10
47.6551
20
-26.2625
11
47.6396
21
-26.2635
0
LINE
8
BLACK
6
CONTINUOUS
10
47.6396
20
-26.2635
11
47.625
21
-26.2688
0
LINE
8
BLACK
6
CONTINUOUS
10
47.625
20
-26.2688
11
37.5047
21
-26.2688
0
LINE
8
BLACK
6
CONTINUOUS
10
37.5047
20
-26.2688
11
37.495
21
-26.2671
0
LINE
8
BLACK
6
CONTINUOUS
10
37.495
20
-26.2671
11
37.4917
21
-26.2676
0
LINE
8
BLACK
6
CONTINUOUS
10
37.4917
20
-26.2676
11
37.4888
21
-26.266
0
LINE
8
BLACK
6
CONTINUOUS
10
37.4888
20
-26.266
11
37.4791
21
-26.2642
0
LINE
8
BLACK
6
CONTINUOUS
10
37.4791
20
-26.2642
11
37.4641
21
-26.2517
0
LINE
8
BLACK
6
CONTINUOUS
10
37.4641
20
-26.2517
11
37.4473
21
-26.242
0
LINE
8
BLACK
6
CONTINUOUS
10
37.4473
20
-26.242
11
37.445
21
-26.2356
0
LINE
8
BLACK
6
CONTINUOUS
10
37.445
20
-26.2356
11
37.4398
21
-26.2313
0
LINE
8
BLACK
6
CONTINUOUS
10
37.4398
20
-26.2313
11
37.4364
21
-26.2121
0
LINE
8
BLACK
6
CONTINUOUS
10
37.4364
20
-26.2121
11
37.4297
21
-26.1938
0
LINE
8
BLACK
6
CONTINUOUS
10
37.4297
20
-26.1938
11
37.4297
21
-20.911
0
LINE
8
BLACK
6
CONTINUOUS
10
37.4297
20
-20.911
11
34.0078
21
-20.911
0
LINE
8
BLACK
6
CONTINUOUS
10
34.0078
20
-20.911
11
34.0078
21
-23.2172
0
LINE
8
BLACK
6
CONTINUOUS
10
34.0078
20
-23.2172
11
34.0061
21
-23.2269
0
LINE
8
BLACK
6
CONTINUOUS
10
34.0061
20
-23.2269
11
34.0067
21
-23.2302
0
LINE
8
BLACK
6
CONTINUOUS
10
34.0067
20
-23.2302
11
34.005
21
-23.2331
0
LINE
8
BLACK
6
CONTINUOUS
10
34.005
20
-23.2331
11
34.0033
21
-23.2429
0
LINE
8
BLACK
6
CONTINUOUS
10
34.0033
20
-23.2429
11
33.9908
21
-23.2578
0
LINE
8
BLACK
6
CONTINUOUS
10
33.9908
20
-23.2578
11
33.981
21
-23.2747
0
LINE
8
BLACK
6
CONTINUOUS
10
33.981
20
-23.2747
11
33.9747
21
-23.277
0
LINE
8
BLACK
6
CONTINUOUS
10
33.9747
20
-23.277
11
33.9703
21
-23.2822
0
LINE
8
BLACK
6
CONTINUOUS
10
33.9703
20
-23.2822
11
33.9511
21
-23.2855
0
LINE
8
BLACK
6
CONTINUOUS
10
33.9511
20
-23.2855
11
33.9328
21
-23.2922
0
LINE
8
BLACK
6
CONTINUOUS
10
33.9328
20
-23.2922
11
26.8641
21
-23.2922
0
LINE
8
BLACK
6
CONTINUOUS
10
26.8641
20
-23.2922
11
26.8641
21
-68.9813
0
LINE
8
BLACK
6
CONTINUOUS
10
26.8641
20
-68.9813
11
31.5516
21
-68.9813
0
LINE
8
BLACK
6
CONTINUOUS
10
242.302
20
-20.7627
11
242.305
21
-20.7621
0
LINE
8
BLACK
6
CONTINUOUS
10
242.305
20
-20.7621
11
242.308
21
-20.7638
0
LINE
8
BLACK
6
CONTINUOUS
10
242.308
20
-20.7638
11
242.318
21
-20.7655
0
LINE
8
BLACK
6
CONTINUOUS
10
242.318
20
-20.7655
11
242.333
21
-20.778
0
LINE
8
BLACK
6
CONTINUOUS
10
242.333
20
-20.778
11
242.35
21
-20.7877
0
LINE
8
BLACK
6
CONTINUOUS
10
242.35
20
-20.7877
11
242.352
21
-20.7941
0
LINE
8
BLACK
6
CONTINUOUS
10
242.352
20
-20.7941
11
242.357
21
-20.7985
0
LINE
8
BLACK
6
CONTINUOUS
10
242.357
20
-20.7985
11
242.361
21
-20.8176
0
LINE
8
BLACK
6
CONTINUOUS
10
242.361
20
-20.8176
11
242.367
21
-20.836
0
LINE
8
BLACK
6
CONTINUOUS
10
242.367
20
-20.836
11
242.367
21
-26.1188
0
LINE
8
BLACK
6
CONTINUOUS
10
242.367
20
-26.1188
11
244.674
21
-26.1188
0
LINE
8
BLACK
6
CONTINUOUS
10
244.674
20
-26.1188
11
244.683
21
-26.1205
0
LINE
8
BLACK
6
CONTINUOUS
10
244.683
20
-26.1205
11
244.687
21
-26.1199
0
LINE
8
BLACK
6
CONTINUOUS
10
244.687
20
-26.1199
11
244.69
21
-26.1216
0
LINE
8
BLACK
6
CONTINUOUS
10
244.69
20
-26.1216
11
244.699
21
-26.1233
0
LINE
8
BLACK
6
CONTINUOUS
10
244.699
20
-26.1233
11
244.714
21
-26.1358
0
LINE
8
BLACK
6
CONTINUOUS
10
244.714
20
-26.1358
11
244.731
21
-26.1456
0
LINE
8
BLACK
6
CONTINUOUS
10
244.731
20
-26.1456
11
244.733
21
-26.1519
0
LINE
8
BLACK
6
CONTINUOUS
10
244.733
20
-26.1519
11
244.739
21
-26.1563
0
LINE
8
BLACK
6
CONTINUOUS
10
244.739
20
-26.1563
11
244.742
21
-26.1755
0
LINE
8
BLACK
6
CONTINUOUS
10
244.742
20
-26.1755
11
244.749
21
-26.1938
0
LINE
8
BLACK
6
CONTINUOUS
10
244.749
20
-26.1938
11
244.749
21
-39.811
0
LINE
8
BLACK
6
CONTINUOUS
10
244.749
20
-39.811
11
249.436
21
-39.811
0
LINE
8
BLACK
6
CONTINUOUS
10
249.436
20
-39.811
11
249.446
21
-39.8127
0
LINE
8
BLACK
6
CONTINUOUS
10
249.446
20
-39.8127
11
249.449
21
-39.8121
0
LINE
8
BLACK
6
CONTINUOUS
10
249.449
20
-39.8121
11
249.452
21
-39.8138
0
LINE
8
BLACK
6
CONTINUOUS
10
249.452
20
-39.8138
11
249.462
21
-39.8155
0
LINE
8
BLACK
6
CONTINUOUS
10
249.462
20
-39.8155
11
249.477
21
-39.828
0
LINE
8
BLACK
6
CONTINUOUS
10
249.477
20
-39.828
11
249.494
21
-39.8378
0
LINE
8
BLACK
6
CONTINUOUS
10
249.494
20
-39.8378
11
249.496
21
-39.8441
0
LINE
8
BLACK
6
CONTINUOUS
10
249.496
20
-39.8441
11
249.501
21
-39.8485
0
LINE
8
BLACK
6
CONTINUOUS
10
249.501
20
-39.8485
11
249.504
21
-39.8677
0
LINE
8
BLACK
6
CONTINUOUS
10
249.504
20
-39.8677
11
249.511
21
-39.886
0
LINE
8
BLACK
6
CONTINUOUS
10
249.511
20
-39.886
11
249.511
21
-66.0787
0
LINE
8
BLACK
6
CONTINUOUS
10
249.511
20
-66.0787
11
250.106
21
-88.1043
0
LINE
8
BLACK
6
CONTINUOUS
10
250.106
20
-88.1043
11
250.105
21
-88.1159
0
LINE
8
BLACK
6
CONTINUOUS
10
250.105
20
-88.1159
11
250.105
21
-88.1193
0
LINE
8
BLACK
6
CONTINUOUS
10
250.105
20
-88.1193
11
250.104
21
-88.122
0
LINE
8
BLACK
6
CONTINUOUS
10
250.104
20
-88.122
11
250.103
21
-88.1301
0
LINE
8
BLACK
6
CONTINUOUS
10
250.103
20
-88.1301
11
250.09
21
-88.1461
0
LINE
8
BLACK
6
CONTINUOUS
10
250.09
20
-88.1461
11
250.08
21
-88.1638
0
LINE
8
BLACK
6
CONTINUOUS
10
250.08
20
-88.1638
11
250.074
21
-88.1657
0
LINE
8
BLACK
6
CONTINUOUS
10
250.074
20
-88.1657
11
250.071
21
-88.1702
0
LINE
8
BLACK
6
CONTINUOUS
10
250.071
20
-88.1702
11
250.051
21
-88.1743
0
LINE
8
BLACK
6
CONTINUOUS
10
250.051
20
-88.1743
11
250.031
21
-88.1813
0
LINE
8
BLACK
6
CONTINUOUS
10
250.031
20
-88.1813
11
240.509
21
-88.1813
0
LINE
8
BLACK
6
CONTINUOUS
10
240.509
20
-88.1813
11
229.796
21
-88.7765
0
LINE
8
BLACK
6
CONTINUOUS
10
229.796
20
-88.7765
11
207.772
21
-90.5622
0
LINE
8
BLACK
6
CONTINUOUS
10
207.772
20
-90.5622
11
192.89
21
-92.348
0
LINE
8
BLACK
6
CONTINUOUS
10
192.89
20
-92.348
11
192.882
21
-92.3475
0
LINE
8
BLACK
6
CONTINUOUS
10
192.882
20
-92.3475
11
192.879
21
-92.3485
0
LINE
8
BLACK
6
CONTINUOUS
10
192.879
20
-92.3485
11
192.876
21
-92.3472
0
LINE
8
BLACK
6
CONTINUOUS
10
192.876
20
-92.3472
11
192.864
21
-92.3465
0
LINE
8
BLACK
6
CONTINUOUS
10
192.864
20
-92.3465
11
192.849
21
-92.3363
0
LINE
8
BLACK
6
CONTINUOUS
10
192.849
20
-92.3363
11
192.831
21
-92.3294
0
LINE
8
BLACK
6
CONTINUOUS
10
192.831
20
-92.3294
11
192.828
21
-92.3227
0
LINE
8
BLACK
6
CONTINUOUS
10
192.828
20
-92.3227
11
192.821
21
-92.3185
0
LINE
8
BLACK
6
CONTINUOUS
10
192.821
20
-92.3185
11
192.816
21
-92.3006
0
LINE
8
BLACK
6
CONTINUOUS
10
192.816
20
-92.3006
11
192.807
21
-92.2841
0
LINE
8
BLACK
6
CONTINUOUS
10
192.807
20
-92.2841
11
191.032
21
-79.8568
0
LINE
8
BLACK
6
CONTINUOUS
10
191.032
20
-79.8568
11
178.685
21
-81.6206
0
LINE
8
BLACK
6
CONTINUOUS
10
178.685
20
-81.6206
11
181.644
21
-94.6381
0
LINE
8
BLACK
6
CONTINUOUS
10
181.644
20
-94.6381
11
181.644
21
-94.6483
0
LINE
8
BLACK
6
CONTINUOUS
10
181.644
20
-94.6483
11
181.645
21
-94.6515
0
LINE
8
BLACK
6
CONTINUOUS
10
181.645
20
-94.6515
11
181.644
21
-94.6546
0
LINE
8
BLACK
6
CONTINUOUS
10
181.644
20
-94.6546
11
181.645
21
-94.6642
0
LINE
8
BLACK
6
CONTINUOUS
10
181.645
20
-94.6642
11
181.636
21
-94.6816
0
LINE
8
BLACK
6
CONTINUOUS
10
181.636
20
-94.6816
11
181.63
21
-94.7004
0
LINE
8
BLACK
6
CONTINUOUS
10
181.63
20
-94.7004
11
181.624
21
-94.7039
0
LINE
8
BLACK
6
CONTINUOUS
10
181.624
20
-94.7039
11
181.621
21
-94.7098
0
LINE
8
BLACK
6
CONTINUOUS
10
181.621
20
-94.7098
11
181.603
21
-94.7174
0
LINE
8
BLACK
6
CONTINUOUS
10
181.603
20
-94.7174
11
181.587
21
-94.728
0
LINE
8
BLACK
6
CONTINUOUS
10
181.587
20
-94.728
11
165.513
21
-98.2999
0
LINE
8
BLACK
6
CONTINUOUS
10
165.513
20
-98.2999
11
165.503
21
-98.3003
0
LINE
8
BLACK
6
CONTINUOUS
10
165.503
20
-98.3003
11
165.5
21
-98.3016
0
LINE
8
BLACK
6
CONTINUOUS
10
165.5
20
-98.3016
11
165.497
21
-98.3006
0
LINE
8
BLACK
6
CONTINUOUS
10
165.497
20
-98.3006
11
165.487
21
-98.301
0
LINE
8
BLACK
6
CONTINUOUS
10
165.487
20
-98.301
11
165.47
21
-98.2919
0
LINE
8
BLACK
6
CONTINUOUS
10
165.47
20
-98.2919
11
165.451
21
-98.286
0
LINE
8
BLACK
6
CONTINUOUS
10
165.451
20
-98.286
11
165.448
21
-98.2804
0
LINE
8
BLACK
6
CONTINUOUS
10
165.448
20
-98.2804
11
165.442
21
-98.2773
0
LINE
8
BLACK
6
CONTINUOUS
10
165.442
20
-98.2773
11
165.434
21
-98.2592
0
LINE
8
BLACK
6
CONTINUOUS
10
165.434
20
-98.2592
11
165.424
21
-98.2426
0
LINE
8
BLACK
6
CONTINUOUS
10
165.424
20
-98.2426
11
162.463
21
-84.6225
0
LINE
8
BLACK
6
CONTINUOUS
10
162.463
20
-84.6225
11
153.605
21
-86.3939
0
LINE
8
BLACK
6
CONTINUOUS
10
153.605
20
-86.3939
11
153.596
21
-86.3941
0
LINE
8
BLACK
6
CONTINUOUS
10
153.596
20
-86.3941
11
153.593
21
-86.3954
0
LINE
8
BLACK
6
CONTINUOUS
10
153.593
20
-86.3954
11
153.59
21
-86.3943
0
LINE
8
BLACK
6
CONTINUOUS
10
153.59
20
-86.3943
11
153.579
21
-86.3945
0
LINE
8
BLACK
6
CONTINUOUS
10
153.579
20
-86.3945
11
153.563
21
-86.3853
0
LINE
8
BLACK
6
CONTINUOUS
10
153.563
20
-86.3853
11
153.544
21
-86.3792
0
LINE
8
BLACK
6
CONTINUOUS
10
153.544
20
-86.3792
11
153.541
21
-86.3733
0
LINE
8
BLACK
6
CONTINUOUS
10
153.541
20
-86.3733
11
153.534
21
-86.3699
0
LINE
8
BLACK
6
CONTINUOUS
10
153.534
20
-86.3699
11
153.527
21
-86.352
0
LINE
8
BLACK
6
CONTINUOUS
10
153.527
20
-86.352
11
153.517
21
-86.3356
0
LINE
8
BLACK
6
CONTINUOUS
10
153.517
20
-86.3356
11
149.945
21
-69.0715
0
LINE
8
BLACK
6
CONTINUOUS
10
149.945
20
-69.0715
11
149.945
21
-69.0626
0
LINE
8
BLACK
6
CONTINUOUS
10
149.945
20
-69.0626
11
149.944
21
-69.0596
0
LINE
8
BLACK
6
CONTINUOUS
10
149.944
20
-69.0596
11
149.945
21
-69.0563
0
LINE
8
BLACK
6
CONTINUOUS
10
149.945
20
-69.0563
11
149.945
21
-69.0455
0
LINE
8
BLACK
6
CONTINUOUS
10
149.945
20
-69.0455
11
149.954
21
-69.0288
0
LINE
8
BLACK
6
CONTINUOUS
10
149.954
20
-69.0288
11
149.959
21
-69.0107
0
LINE
8
BLACK
6
CONTINUOUS
10
149.959
20
-69.0107
11
149.966
21
-69.0067
0
LINE
8
BLACK
6
CONTINUOUS
10
149.966
20
-69.0067
11
149.969
21
-69.0003
0
LINE
8
BLACK
6
CONTINUOUS
10
149.969
20
-69.0003
11
149.987
21
-68.9933
0
LINE
8
BLACK
6
CONTINUOUS
10
149.987
20
-68.9933
11
150.003
21
-68.9831
0
LINE
8
BLACK
6
CONTINUOUS
10
150.003
20
-68.9831
11
160.644
21
-66.6183
0
LINE
8
BLACK
6
CONTINUOUS
10
160.644
20
-66.6183
11
155.916
21
-46.5222
0
LINE
8
BLACK
6
CONTINUOUS
10
155.916
20
-46.5222
11
153.01
21
-47.1033
0
LINE
8
BLACK
6
CONTINUOUS
10
153.01
20
-47.1033
11
153.002
21
-47.1035
0
LINE
8
BLACK
6
CONTINUOUS
10
153.002
20
-47.1035
11
152.999
21
-47.1046
0
LINE
8
BLACK
6
CONTINUOUS
10
152.999
20
-47.1046
11
152.996
21
-47.1036
0
LINE
8
BLACK
6
CONTINUOUS
10
152.996
20
-47.1036
11
152.984
21
-47.1039
0
LINE
8
BLACK
6
CONTINUOUS
10
152.984
20
-47.1039
11
152.968
21
-47.095
0
LINE
8
BLACK
6
CONTINUOUS
10
152.968
20
-47.095
11
152.95
21
-47.0896
0
LINE
8
BLACK
6
CONTINUOUS
10
152.95
20
-47.0896
11
152.946
21
-47.083
0
LINE
8
BLACK
6
CONTINUOUS
10
152.946
20
-47.083
11
152.939
21
-47.0792
0
LINE
8
BLACK
6
CONTINUOUS
10
152.939
20
-47.0792
11
152.932
21
-47.0621
0
LINE
8
BLACK
6
CONTINUOUS
10
152.932
20
-47.0621
11
152.922
21
-47.0466
0
LINE
8
BLACK
6
CONTINUOUS
10
152.922
20
-47.0466
11
149.35
21
-31.5685
0
LINE
8
BLACK
6
CONTINUOUS
10
149.35
20
-31.5685
11
149.35
21
-31.5622
0
LINE
8
BLACK
6
CONTINUOUS
10
149.35
20
-31.5622
11
149.349
21
-31.5599
0
LINE
8
BLACK
6
CONTINUOUS
10
149.349
20
-31.5599
11
149.35
21
-31.5565
0
LINE
8
BLACK
6
CONTINUOUS
10
149.35
20
-31.5565
11
149.349
21
-31.5424
0
LINE
8
BLACK
6
CONTINUOUS
10
149.349
20
-31.5424
11
149.357
21
-31.527
0
LINE
8
BLACK
6
CONTINUOUS
10
149.357
20
-31.527
11
149.361
21
-31.5101
0
LINE
8
BLACK
6
CONTINUOUS
10
149.361
20
-31.5101
11
149.368
21
-31.5047
0
LINE
8
BLACK
6
CONTINUOUS
10
149.368
20
-31.5047
11
149.372
21
-31.4967
0
LINE
8
BLACK
6
CONTINUOUS
10
149.372
20
-31.4967
11
149.388
21
-31.4899
0
LINE
8
BLACK
6
CONTINUOUS
10
149.388
20
-31.4899
11
149.402
21
-31.4796
0
LINE
8
BLACK
6
CONTINUOUS
10
149.402
20
-31.4796
11
159.523
21
-28.5031
0
LINE
8
BLACK
6
CONTINUOUS
10
159.523
20
-28.5031
11
159.53
21
-28.5022
0
LINE
8
BLACK
6
CONTINUOUS
10
159.53
20
-28.5022
11
159.533
21
-28.5008
0
LINE
8
BLACK
6
CONTINUOUS
10
159.533
20
-28.5008
11
159.536
21
-28.5015
0
LINE
8
BLACK
6
CONTINUOUS
10
159.536
20
-28.5015
11
159.549
21
-28.5002
0
LINE
8
BLACK
6
CONTINUOUS
10
159.549
20
-28.5002
11
159.565
21
-28.5075
0
LINE
8
BLACK
6
CONTINUOUS
10
159.565
20
-28.5075
11
159.583
21
-28.5111
0
LINE
8
BLACK
6
CONTINUOUS
10
159.583
20
-28.5111
11
159.588
21
-28.5175
0
LINE
8
BLACK
6
CONTINUOUS
10
159.588
20
-28.5175
11
159.596
21
-28.5207
0
LINE
8
BLACK
6
CONTINUOUS
10
159.596
20
-28.5207
11
159.604
21
-28.537
0
LINE
8
BLACK
6
CONTINUOUS
10
159.604
20
-28.537
11
159.615
21
-28.5513
0
LINE
8
BLACK
6
CONTINUOUS
10
159.615
20
-28.5513
11
161.38
21
-33.8471
0
LINE
8
BLACK
6
CONTINUOUS
10
161.38
20
-33.8471
11
170.764
21
-32.0877
0
LINE
8
BLACK
6
CONTINUOUS
10
170.764
20
-32.0877
11
169.591
21
-27.1039
0
LINE
8
BLACK
6
CONTINUOUS
10
169.591
20
-27.1039
11
169.591
21
-27.0922
0
LINE
8
BLACK
6
CONTINUOUS
10
169.591
20
-27.0922
11
169.589
21
-27.0889
0
LINE
8
BLACK
6
CONTINUOUS
10
169.589
20
-27.0889
11
169.59
21
-27.086
0
LINE
8
BLACK
6
CONTINUOUS
10
169.59
20
-27.086
11
169.59
21
-27.0779
0
LINE
8
BLACK
6
CONTINUOUS
10
169.59
20
-27.0779
11
169.599
21
-27.0596
0
LINE
8
BLACK
6
CONTINUOUS
10
169.599
20
-27.0596
11
169.605
21
-27.0402
0
LINE
8
BLACK
6
CONTINUOUS
10
169.605
20
-27.0402
11
169.61
21
-27.0372
0
LINE
8
BLACK
6
CONTINUOUS
10
169.61
20
-27.0372
11
169.613
21
-27.0321
0
LINE
8
BLACK
6
CONTINUOUS
10
169.613
20
-27.0321
11
169.632
21
-27.024
0
LINE
8
BLACK
6
CONTINUOUS
10
169.632
20
-27.024
11
169.649
21
-27.0133
0
LINE
8
BLACK
6
CONTINUOUS
10
169.649
20
-27.0133
11
179.769
21
-24.9297
0
LINE
8
BLACK
6
CONTINUOUS
10
179.769
20
-24.9297
11
179.78
21
-24.9294
0
LINE
8
BLACK
6
CONTINUOUS
10
179.78
20
-24.9294
11
179.783
21
-24.9282
0
LINE
8
BLACK
6
CONTINUOUS
10
179.783
20
-24.9282
11
179.786
21
-24.9292
0
LINE
8
BLACK
6
CONTINUOUS
10
179.786
20
-24.9292
11
179.795
21
-24.9289
0
LINE
8
BLACK
6
CONTINUOUS
10
179.795
20
-24.9289
11
179.813
21
-24.9383
0
LINE
8
BLACK
6
CONTINUOUS
10
179.813
20
-24.9383
11
179.831
21
-24.9446
0
LINE
8
BLACK
6
CONTINUOUS
10
179.831
20
-24.9446
11
179.835
21
-24.9502
0
LINE
8
BLACK
6
CONTINUOUS
10
179.835
20
-24.9502
11
179.841
21
-24.9533
0
LINE
8
BLACK
6
CONTINUOUS
10
179.841
20
-24.9533
11
179.848
21
-24.9716
0
LINE
8
BLACK
6
CONTINUOUS
10
179.848
20
-24.9716
11
179.858
21
-24.9884
0
LINE
8
BLACK
6
CONTINUOUS
10
179.858
20
-24.9884
11
181.034
21
-30.8689
0
LINE
8
BLACK
6
CONTINUOUS
10
181.034
20
-30.8689
11
190.417
21
-29.1095
0
LINE
8
BLACK
6
CONTINUOUS
10
190.417
20
-29.1095
11
189.83
21
-24.1189
0
LINE
8
BLACK
6
CONTINUOUS
10
189.83
20
-24.1189
11
189.831
21
-24.1109
0
LINE
8
BLACK
6
CONTINUOUS
10
189.831
20
-24.1109
11
189.83
21
-24.108
0
LINE
8
BLACK
6
CONTINUOUS
10
189.83
20
-24.108
11
189.831
21
-24.1048
0
LINE
8
BLACK
6
CONTINUOUS
10
189.831
20
-24.1048
11
189.832
21
-24.0929
0
LINE
8
BLACK
6
CONTINUOUS
10
189.832
20
-24.0929
11
189.842
21
-24.0775
0
LINE
8
BLACK
6
CONTINUOUS
10
189.842
20
-24.0775
11
189.849
21
-24.0603
0
LINE
8
BLACK
6
CONTINUOUS
10
189.849
20
-24.0603
11
189.856
21
-24.0566
0
LINE
8
BLACK
6
CONTINUOUS
10
189.856
20
-24.0566
11
189.86
21
-24.05
0
LINE
8
BLACK
6
CONTINUOUS
10
189.86
20
-24.05
11
189.878
21
-24.0447
0
LINE
8
BLACK
6
CONTINUOUS
10
189.878
20
-24.0447
11
189.894
21
-24.036
0
LINE
8
BLACK
6
CONTINUOUS
10
189.894
20
-24.036
11
200.014
21
-22.5477
0
LINE
8
BLACK
6
CONTINUOUS
10
200.014
20
-22.5477
11
200.027
21
-22.548
0
LINE
8
BLACK
6
CONTINUOUS
10
200.027
20
-22.548
11
200.03
21
-22.547
0
LINE
8
BLACK
6
CONTINUOUS
10
200.03
20
-22.547
11
200.033
21
-22.5482
0
LINE
8
BLACK
6
CONTINUOUS
10
200.033
20
-22.5482
11
200.04
21
-22.5484
0
LINE
8
BLACK
6
CONTINUOUS
10
200.04
20
-22.5484
11
200.058
21
-22.5593
0
LINE
8
BLACK
6
CONTINUOUS
10
200.058
20
-22.5593
11
200.077
21
-22.5676
0
LINE
8
BLACK
6
CONTINUOUS
10
200.077
20
-22.5676
11
200.079
21
-22.5725
0
LINE
8
BLACK
6
CONTINUOUS
10
200.079
20
-22.5725
11
200.084
21
-22.5753
0
LINE
8
BLACK
6
CONTINUOUS
10
200.084
20
-22.5753
11
200.091
21
-22.595
0
LINE
8
BLACK
6
CONTINUOUS
10
200.091
20
-22.595
11
200.1
21
-22.6136
0
LINE
8
BLACK
6
CONTINUOUS
10
200.1
20
-22.6136
11
200.687
21
-27.9004
0
LINE
8
BLACK
6
CONTINUOUS
10
200.687
20
-27.9004
11
210.07
21
-27.3139
0
LINE
8
BLACK
6
CONTINUOUS
10
210.07
20
-27.3139
11
210.07
21
-21.7289
0
LINE
8
BLACK
6
CONTINUOUS
10
210.07
20
-21.7289
11
210.071
21
-21.7244
0
LINE
8
BLACK
6
CONTINUOUS
10
210.071
20
-21.7244
11
210.071
21
-21.7224
0
LINE
8
BLACK
6
CONTINUOUS
10
210.071
20
-21.7224
11
210.072
21
-21.7195
0
LINE
8
BLACK
6
CONTINUOUS
10
210.072
20
-21.7195
11
210.075
21
-21.7033
0
LINE
8
BLACK
6
CONTINUOUS
10
210.075
20
-21.7033
11
210.086
21
-21.6907
0
LINE
8
BLACK
6
CONTINUOUS
10
210.086
20
-21.6907
11
210.092
21
-21.6759
0
LINE
8
BLACK
6
CONTINUOUS
10
210.092
20
-21.6759
11
210.102
21
-21.6717
0
LINE
8
BLACK
6
CONTINUOUS
10
210.102
20
-21.6717
11
210.108
21
-21.664
0
LINE
8
BLACK
6
CONTINUOUS
10
210.108
20
-21.664
11
210.124
21
-21.6611
0
LINE
8
BLACK
6
CONTINUOUS
10
210.124
20
-21.6611
11
210.139
21
-21.6542
0
LINE
8
BLACK
6
CONTINUOUS
10
210.139
20
-21.6542
11
220.259
21
-20.7612
0
LINE
8
BLACK
6
CONTINUOUS
10
220.259
20
-20.7612
11
220.276
21
-20.7627
0
LINE
8
BLACK
6
CONTINUOUS
10
220.276
20
-20.7627
11
220.279
21
-20.7621
0
LINE
8
BLACK
6
CONTINUOUS
10
220.279
20
-20.7621
11
220.281
21
-20.7631
0
LINE
8
BLACK
6
CONTINUOUS
10
220.281
20
-20.7631
11
220.285
21
-20.7635
0
LINE
8
BLACK
6
CONTINUOUS
10
220.285
20
-20.7635
11
220.304
21
-20.7764
0
LINE
8
BLACK
6
CONTINUOUS
10
220.304
20
-20.7764
11
220.323
21
-20.7877
0
LINE
8
BLACK
6
CONTINUOUS
10
220.323
20
-20.7877
11
220.324
21
-20.7909
0
LINE
8
BLACK
6
CONTINUOUS
10
220.324
20
-20.7909
11
220.327
21
-20.7929
0
LINE
8
BLACK
6
CONTINUOUS
10
220.327
20
-20.7929
11
220.333
21
-20.8147
0
LINE
8
BLACK
6
CONTINUOUS
10
220.333
20
-20.8147
11
220.341
21
-20.836
0
LINE
8
BLACK
6
CONTINUOUS
10
220.341
20
-20.836
11
220.341
21
-26.1188
0
LINE
8
BLACK
6
CONTINUOUS
10
220.341
20
-26.1188
11
231.502
21
-26.1188
0
LINE
8
BLACK
6
CONTINUOUS
10
231.502
20
-26.1188
11
231.502
21
-20.836
0
LINE
8
BLACK
6
CONTINUOUS
10
231.502
20
-20.836
11
231.503
21
-20.8262
0
LINE
8
BLACK
6
CONTINUOUS
10
231.503
20
-20.8262
11
231.503
21
-20.8229
0
LINE
8
BLACK
6
CONTINUOUS
10
231.503
20
-20.8229
11
231.505
21
-20.82
0
LINE
8
BLACK
6
CONTINUOUS
10
231.505
20
-20.82
11
231.506
21
-20.8103
0
LINE
8
BLACK
6
CONTINUOUS
10
231.506
20
-20.8103
11
231.519
21
-20.7954
0
LINE
8
BLACK
6
CONTINUOUS
10
231.519
20
-20.7954
11
231.529
21
-20.7785
0
LINE
8
BLACK
6
CONTINUOUS
10
231.529
20
-20.7785
11
231.535
21
-20.7762
0
LINE
8
BLACK
6
CONTINUOUS
10
231.535
20
-20.7762
11
231.539
21
-20.771
0
LINE
8
BLACK
6
CONTINUOUS
10
231.539
20
-20.771
11
231.558
21
-20.7676
0
LINE
8
BLACK
6
CONTINUOUS
10
231.558
20
-20.7676
11
231.577
21
-20.761
0
LINE
8
BLACK
6
CONTINUOUS
10
231.577
20
-20.761
11
242.292
21
-20.761
0
LINE
8
BLACK
6
CONTINUOUS
10
242.292
20
-20.761
11
242.302
21
-20.7627
0
LINE
8
BLACK
6
CONTINUOUS
10
231.652
20
-20.911
11
231.652
21
-26.1938
0
LINE
8
BLACK
6
CONTINUOUS
10
231.652
20
-26.1938
11
231.65
21
-26.2035
0
LINE
8
BLACK
6
CONTINUOUS
10
231.65
20
-26.2035
11
231.651
21
-26.2068
0
LINE
8
BLACK
6
CONTINUOUS
10
231.651
20
-26.2068
11
231.649
21
-26.2097
0
LINE
8
BLACK
6
CONTINUOUS
10
231.649
20
-26.2097
11
231.647
21
-26.2194
0
LINE
8
BLACK
6
CONTINUOUS
10
231.647
20
-26.2194
11
231.635
21
-26.2344
0
LINE
8
BLACK
6
CONTINUOUS
10
231.635
20
-26.2344
11
231.625
21
-26.2512
0
LINE
8
BLACK
6
CONTINUOUS
10
231.625
20
-26.2512
11
231.619
21
-26.2535
0
LINE
8
BLACK
6
CONTINUOUS
10
231.619
20
-26.2535
11
231.614
21
-26.2587
0
LINE
8
BLACK
6
CONTINUOUS
10
231.614
20
-26.2587
11
231.595
21
-26.2621
0
LINE
8
BLACK
6
CONTINUOUS
10
231.595
20
-26.2621
11
231.577
21
-26.2688
0
LINE
8
BLACK
6
CONTINUOUS
10
231.577
20
-26.2688
11
220.266
21
-26.2688
0
LINE
8
BLACK
6
CONTINUOUS
10
220.266
20
-26.2688
11
220.256
21
-26.2671
0
LINE
8
BLACK
6
CONTINUOUS
10
220.256
20
-26.2671
11
220.253
21
-26.2676
0
LINE
8
BLACK
6
CONTINUOUS
10
220.253
20
-26.2676
11
220.25
21
-26.266
0
LINE
8
BLACK
6
CONTINUOUS
10
220.25
20
-26.266
11
220.24
21
-26.2642
0
LINE
8
BLACK
6
CONTINUOUS
10
220.24
20
-26.2642
11
220.225
21
-26.2517
0
LINE
8
BLACK
6
CONTINUOUS
10
220.225
20
-26.2517
11
220.208
21
-26.242
0
LINE
8
BLACK
6
CONTINUOUS
10
220.208
20
-26.242
11
220.206
21
-26.2356
0
LINE
8
BLACK
6
CONTINUOUS
10
220.206
20
-26.2356
11
220.201
21
-26.2313
0
LINE
8
BLACK
6
CONTINUOUS
10
220.201
20
-26.2313
11
220.197
21
-26.2121
0
LINE
8
BLACK
6
CONTINUOUS
10
220.197
20
-26.2121
11
220.191
21
-26.1938
0
LINE
8
BLACK
6
CONTINUOUS
10
220.191
20
-26.1938
11
220.191
21
-20.9179
0
LINE
8
BLACK
6
CONTINUOUS
10
220.191
20
-20.9179
11
210.22
21
-21.7976
0
LINE
8
BLACK
6
CONTINUOUS
10
210.22
20
-21.7976
11
210.22
21
-27.3844
0
LINE
8
BLACK
6
CONTINUOUS
10
210.22
20
-27.3844
11
210.219
21
-27.3904
0
LINE
8
BLACK
6
CONTINUOUS
10
210.219
20
-27.3904
11
210.22
21
-27.3928
0
LINE
8
BLACK
6
CONTINUOUS
10
210.22
20
-27.3928
11
210.218
21
-27.3959
0
LINE
8
BLACK
6
CONTINUOUS
10
210.218
20
-27.3959
11
210.216
21
-27.41
0
LINE
8
BLACK
6
CONTINUOUS
10
210.216
20
-27.41
11
210.205
21
-27.4233
0
LINE
8
BLACK
6
CONTINUOUS
10
210.205
20
-27.4233
11
210.197
21
-27.4387
0
LINE
8
BLACK
6
CONTINUOUS
10
210.197
20
-27.4387
11
210.189
21
-27.4424
0
LINE
8
BLACK
6
CONTINUOUS
10
210.189
20
-27.4424
11
210.183
21
-27.4493
0
LINE
8
BLACK
6
CONTINUOUS
10
210.183
20
-27.4493
11
210.166
21
-27.4523
0
LINE
8
BLACK
6
CONTINUOUS
10
210.166
20
-27.4523
11
210.15
21
-27.4593
0
LINE
8
BLACK
6
CONTINUOUS
10
210.15
20
-27.4593
11
200.625
21
-28.0546
0
LINE
8
BLACK
6
CONTINUOUS
10
200.625
20
-28.0546
11
200.618
21
-28.0538
0
LINE
8
BLACK
6
CONTINUOUS
10
200.618
20
-28.0538
11
200.616
21
-28.0546
0
LINE
8
BLACK
6
CONTINUOUS
10
200.616
20
-28.0546
11
200.612
21
-28.0531
0
LINE
8
BLACK
6
CONTINUOUS
10
200.612
20
-28.0531
11
200.599
21
-28.0517
0
LINE
8
BLACK
6
CONTINUOUS
10
200.599
20
-28.0517
11
200.585
21
-28.0411
0
LINE
8
BLACK
6
CONTINUOUS
10
200.585
20
-28.0411
11
200.569
21
-28.034
0
LINE
8
BLACK
6
CONTINUOUS
10
200.569
20
-28.034
11
200.565
21
-28.0263
0
LINE
8
BLACK
6
CONTINUOUS
10
200.565
20
-28.0263
11
200.558
21
-28.0212
0
LINE
8
BLACK
6
CONTINUOUS
10
200.558
20
-28.0212
11
200.554
21
-28.0039
0
LINE
8
BLACK
6
CONTINUOUS
10
200.554
20
-28.0039
11
200.546
21
-27.988
0
LINE
8
BLACK
6
CONTINUOUS
10
200.546
20
-27.988
11
199.959
21
-22.7074
0
LINE
8
BLACK
6
CONTINUOUS
10
199.959
20
-22.7074
11
189.988
21
-24.1738
0
LINE
8
BLACK
6
CONTINUOUS
10
189.988
20
-24.1738
11
190.575
21
-29.1616
0
LINE
8
BLACK
6
CONTINUOUS
10
190.575
20
-29.1616
11
190.574
21
-29.1673
0
LINE
8
BLACK
6
CONTINUOUS
10
190.574
20
-29.1673
11
190.575
21
-29.1695
0
LINE
8
BLACK
6
CONTINUOUS
10
190.575
20
-29.1695
11
190.574
21
-29.1728
0
LINE
8
BLACK
6
CONTINUOUS
10
190.574
20
-29.1728
11
190.573
21
-29.1876
0
LINE
8
BLACK
6
CONTINUOUS
10
190.573
20
-29.1876
11
190.564
21
-29.2018
0
LINE
8
BLACK
6
CONTINUOUS
10
190.564
20
-29.2018
11
190.558
21
-29.2179
0
LINE
8
BLACK
6
CONTINUOUS
10
190.558
20
-29.2179
11
190.55
21
-29.2227
0
LINE
8
BLACK
6
CONTINUOUS
10
190.55
20
-29.2227
11
190.545
21
-29.2305
0
LINE
8
BLACK
6
CONTINUOUS
10
190.545
20
-29.2305
11
190.529
21
-29.2354
0
LINE
8
BLACK
6
CONTINUOUS
10
190.529
20
-29.2354
11
190.514
21
-29.2441
0
LINE
8
BLACK
6
CONTINUOUS
10
190.514
20
-29.2441
11
180.989
21
-31.03
0
LINE
8
BLACK
6
CONTINUOUS
10
180.989
20
-31.03
11
180.98
21
-31.0301
0
LINE
8
BLACK
6
CONTINUOUS
10
180.98
20
-31.0301
11
180.977
21
-31.0313
0
LINE
8
BLACK
6
CONTINUOUS
10
180.977
20
-31.0313
11
180.974
21
-31.0302
0
LINE
8
BLACK
6
CONTINUOUS
10
180.974
20
-31.0302
11
180.963
21
-31.0303
0
LINE
8
BLACK
6
CONTINUOUS
10
180.963
20
-31.0303
11
180.946
21
-31.0209
0
LINE
8
BLACK
6
CONTINUOUS
10
180.946
20
-31.0209
11
180.928
21
-31.0148
0
LINE
8
BLACK
6
CONTINUOUS
10
180.928
20
-31.0148
11
180.925
21
-31.0086
0
LINE
8
BLACK
6
CONTINUOUS
10
180.925
20
-31.0086
11
180.918
21
-31.0051
0
LINE
8
BLACK
6
CONTINUOUS
10
180.918
20
-31.0051
11
180.912
21
-30.9873
0
LINE
8
BLACK
6
CONTINUOUS
10
180.912
20
-30.9873
11
180.902
21
-30.971
0
LINE
8
BLACK
6
CONTINUOUS
10
180.902
20
-30.971
11
179.726
21
-25.0918
0
LINE
8
BLACK
6
CONTINUOUS
10
179.726
20
-25.0918
11
169.755
21
-27.1446
0
LINE
8
BLACK
6
CONTINUOUS
10
169.755
20
-27.1446
11
170.928
21
-32.1297
0
LINE
8
BLACK
6
CONTINUOUS
10
170.928
20
-32.1297
11
170.929
21
-32.1428
0
LINE
8
BLACK
6
CONTINUOUS
10
170.929
20
-32.1428
11
170.93
21
-32.1461
0
LINE
8
BLACK
6
CONTINUOUS
10
170.93
20
-32.1461
11
170.929
21
-32.1487
0
LINE
8
BLACK
6
CONTINUOUS
10
170.929
20
-32.1487
11
170.929
21
-32.1557
0
LINE
8
BLACK
6
CONTINUOUS
10
170.929
20
-32.1557
11
170.92
21
-32.1746
0
LINE
8
BLACK
6
CONTINUOUS
10
170.92
20
-32.1746
11
170.913
21
-32.1945
0
LINE
8
BLACK
6
CONTINUOUS
10
170.913
20
-32.1945
11
170.908
21
-32.197
0
LINE
8
BLACK
6
CONTINUOUS
10
170.908
20
-32.197
11
170.906
21
-32.2015
0
LINE
8
BLACK
6
CONTINUOUS
10
170.906
20
-32.2015
11
170.887
21
-32.2099
0
LINE
8
BLACK
6
CONTINUOUS
10
170.887
20
-32.2099
11
170.869
21
-32.2206
0
LINE
8
BLACK
6
CONTINUOUS
10
170.869
20
-32.2206
11
161.344
21
-34.0066
0
LINE
8
BLACK
6
CONTINUOUS
10
161.344
20
-34.0066
11
161.342
21
-34.0066
0
LINE
8
BLACK
6
CONTINUOUS
10
161.342
20
-34.0066
11
161.341
21
-34.007
0
LINE
8
BLACK
6
CONTINUOUS
10
161.341
20
-34.007
11
161.339
21
-34.0066
0
LINE
8
BLACK
6
CONTINUOUS
10
161.339
20
-34.0066
11
161.318
21
-34.0068
0
LINE
8
BLACK
6
CONTINUOUS
10
161.318
20
-34.0068
11
161.305
21
-33.9997
0
LINE
8
BLACK
6
CONTINUOUS
10
161.305
20
-33.9997
11
161.291
21
-33.9967
0
LINE
8
BLACK
6
CONTINUOUS
10
161.291
20
-33.9967
11
161.283
21
-33.9875
0
LINE
8
BLACK
6
CONTINUOUS
10
161.283
20
-33.9875
11
161.273
21
-33.9817
0
LINE
8
BLACK
6
CONTINUOUS
10
161.273
20
-33.9817
11
161.268
21
-33.968
0
LINE
8
BLACK
6
CONTINUOUS
10
161.268
20
-33.968
11
161.259
21
-33.9566
0
LINE
8
BLACK
6
CONTINUOUS
10
161.259
20
-33.9566
11
159.496
21
-28.6674
0
LINE
8
BLACK
6
CONTINUOUS
10
159.496
20
-28.6674
11
149.513
21
-31.6036
0
LINE
8
BLACK
6
CONTINUOUS
10
149.513
20
-31.6036
11
153.052
21
-46.9419
0
LINE
8
BLACK
6
CONTINUOUS
10
153.052
20
-46.9419
11
155.957
21
-46.3609
0
LINE
8
BLACK
6
CONTINUOUS
10
155.957
20
-46.3609
11
155.965
21
-46.3607
0
LINE
8
BLACK
6
CONTINUOUS
10
155.965
20
-46.3607
11
155.968
21
-46.3595
0
LINE
8
BLACK
6
CONTINUOUS
10
155.968
20
-46.3595
11
155.971
21
-46.3606
0
LINE
8
BLACK
6
CONTINUOUS
10
155.971
20
-46.3606
11
155.983
21
-46.3603
0
LINE
8
BLACK
6
CONTINUOUS
10
155.983
20
-46.3603
11
155.999
21
-46.3691
0
LINE
8
BLACK
6
CONTINUOUS
10
155.999
20
-46.3691
11
156.017
21
-46.3743
0
LINE
8
BLACK
6
CONTINUOUS
10
156.017
20
-46.3743
11
156.021
21
-46.381
0
LINE
8
BLACK
6
CONTINUOUS
10
156.021
20
-46.381
11
156.028
21
-46.3849
0
LINE
8
BLACK
6
CONTINUOUS
10
156.028
20
-46.3849
11
156.035
21
-46.4019
0
LINE
8
BLACK
6
CONTINUOUS
10
156.035
20
-46.4019
11
156.045
21
-46.4172
0
LINE
8
BLACK
6
CONTINUOUS
10
156.045
20
-46.4172
11
160.808
21
-66.6579
0
LINE
8
BLACK
6
CONTINUOUS
10
160.808
20
-66.6579
11
160.808
21
-66.6686
0
LINE
8
BLACK
6
CONTINUOUS
10
160.808
20
-66.6686
11
160.809
21
-66.6717
0
LINE
8
BLACK
6
CONTINUOUS
10
160.809
20
-66.6717
11
160.808
21
-66.6748
0
LINE
8
BLACK
6
CONTINUOUS
10
160.808
20
-66.6748
11
160.809
21
-66.6839
0
LINE
8
BLACK
6
CONTINUOUS
10
160.809
20
-66.6839
11
160.8
21
-66.7017
0
LINE
8
BLACK
6
CONTINUOUS
10
160.8
20
-66.7017
11
160.794
21
-66.7207
0
LINE
8
BLACK
6
CONTINUOUS
10
160.794
20
-66.7207
11
160.789
21
-66.7241
0
LINE
8
BLACK
6
CONTINUOUS
10
160.789
20
-66.7241
11
160.786
21
-66.7297
0
LINE
8
BLACK
6
CONTINUOUS
10
160.786
20
-66.7297
11
160.768
21
-66.7376
0
LINE
8
BLACK
6
CONTINUOUS
10
160.768
20
-66.7376
11
160.751
21
-66.7483
0
LINE
8
BLACK
6
CONTINUOUS
10
160.751
20
-66.7483
11
150.107
21
-69.1135
0
LINE
8
BLACK
6
CONTINUOUS
10
150.107
20
-69.1135
11
153.649
21
-86.2322
0
LINE
8
BLACK
6
CONTINUOUS
10
153.649
20
-86.2322
11
162.506
21
-84.4609
0
LINE
8
BLACK
6
CONTINUOUS
10
162.506
20
-84.4609
11
162.515
21
-84.4607
0
LINE
8
BLACK
6
CONTINUOUS
10
162.515
20
-84.4607
11
162.517
21
-84.4595
0
LINE
8
BLACK
6
CONTINUOUS
10
162.517
20
-84.4595
11
162.521
21
-84.4606
0
LINE
8
BLACK
6
CONTINUOUS
10
162.521
20
-84.4606
11
162.532
21
-84.4603
0
LINE
8
BLACK
6
CONTINUOUS
10
162.532
20
-84.4603
11
162.548
21
-84.4694
0
LINE
8
BLACK
6
CONTINUOUS
10
162.548
20
-84.4694
11
162.566
21
-84.4751
0
LINE
8
BLACK
6
CONTINUOUS
10
162.566
20
-84.4751
11
162.57
21
-84.4814
0
LINE
8
BLACK
6
CONTINUOUS
10
162.57
20
-84.4814
11
162.577
21
-84.4849
0
LINE
8
BLACK
6
CONTINUOUS
10
162.577
20
-84.4849
11
162.584
21
-84.5025
0
LINE
8
BLACK
6
CONTINUOUS
10
162.584
20
-84.5025
11
162.594
21
-84.5185
0
LINE
8
BLACK
6
CONTINUOUS
10
162.594
20
-84.5185
11
165.554
21
-98.1371
0
LINE
8
BLACK
6
CONTINUOUS
10
165.554
20
-98.1371
11
181.481
21
-94.5979
0
LINE
8
BLACK
6
CONTINUOUS
10
181.481
20
-94.5979
11
178.521
21
-81.5745
0
LINE
8
BLACK
6
CONTINUOUS
10
178.521
20
-81.5745
11
178.52
21
-81.5586
0
LINE
8
BLACK
6
CONTINUOUS
10
178.52
20
-81.5586
11
178.519
21
-81.5554
0
LINE
8
BLACK
6
CONTINUOUS
10
178.519
20
-81.5554
11
178.52
21
-81.5535
0
LINE
8
BLACK
6
CONTINUOUS
10
178.52
20
-81.5535
11
178.519
21
-81.5485
0
LINE
8
BLACK
6
CONTINUOUS
10
178.519
20
-81.5485
11
178.53
21
-81.5286
0
LINE
8
BLACK
6
CONTINUOUS
10
178.53
20
-81.5286
11
178.538
21
-81.5078
0
LINE
8
BLACK
6
CONTINUOUS
10
178.538
20
-81.5078
11
178.541
21
-81.5061
0
LINE
8
BLACK
6
CONTINUOUS
10
178.541
20
-81.5061
11
178.543
21
-81.5029
0
LINE
8
BLACK
6
CONTINUOUS
10
178.543
20
-81.5029
11
178.564
21
-81.4942
0
LINE
8
BLACK
6
CONTINUOUS
10
178.564
20
-81.4942
11
178.583
21
-81.4836
0
LINE
8
BLACK
6
CONTINUOUS
10
178.583
20
-81.4836
11
191.085
21
-79.6977
0
LINE
8
BLACK
6
CONTINUOUS
10
191.085
20
-79.6977
11
191.095
21
-79.698
0
LINE
8
BLACK
6
CONTINUOUS
10
191.095
20
-79.698
11
191.098
21
-79.697
0
LINE
8
BLACK
6
CONTINUOUS
10
191.098
20
-79.697
11
191.101
21
-79.6982
0
LINE
8
BLACK
6
CONTINUOUS
10
191.101
20
-79.6982
11
191.111
21
-79.6985
0
LINE
8
BLACK
6
CONTINUOUS
10
191.111
20
-79.6985
11
191.127
21
-79.7088
0
LINE
8
BLACK
6
CONTINUOUS
10
191.127
20
-79.7088
11
191.146
21
-79.7161
0
LINE
8
BLACK
6
CONTINUOUS
10
191.146
20
-79.7161
11
191.149
21
-79.7221
0
LINE
8
BLACK
6
CONTINUOUS
10
191.149
20
-79.7221
11
191.154
21
-79.7256
0
LINE
8
BLACK
6
CONTINUOUS
10
191.154
20
-79.7256
11
191.161
21
-79.7442
0
LINE
8
BLACK
6
CONTINUOUS
10
191.161
20
-79.7442
11
191.17
21
-79.7613
0
LINE
8
BLACK
6
CONTINUOUS
10
191.17
20
-79.7613
11
192.945
21
-92.1903
0
LINE
8
BLACK
6
CONTINUOUS
10
192.945
20
-92.1903
11
207.755
21
-90.4131
0
LINE
8
BLACK
6
CONTINUOUS
10
207.755
20
-90.4131
11
207.757
21
-90.4132
0
LINE
8
BLACK
6
CONTINUOUS
10
207.757
20
-90.4132
11
207.758
21
-90.4128
0
LINE
8
BLACK
6
CONTINUOUS
10
207.758
20
-90.4128
11
229.785
21
-88.6269
0
LINE
8
BLACK
6
CONTINUOUS
10
229.785
20
-88.6269
11
229.786
21
-88.627
0
LINE
8
BLACK
6
CONTINUOUS
10
229.786
20
-88.627
11
229.787
21
-88.6268
0
LINE
8
BLACK
6
CONTINUOUS
10
229.787
20
-88.6268
11
240.502
21
-88.0314
0
LINE
8
BLACK
6
CONTINUOUS
10
240.502
20
-88.0314
11
240.505
21
-88.0318
0
LINE
8
BLACK
6
CONTINUOUS
10
240.505
20
-88.0318
11
240.506
21
-88.0313
0
LINE
8
BLACK
6
CONTINUOUS
10
240.506
20
-88.0313
11
249.954
21
-88.0313
0
LINE
8
BLACK
6
CONTINUOUS
10
249.954
20
-88.0313
11
249.361
21
-66.0818
0
LINE
8
BLACK
6
CONTINUOUS
10
249.361
20
-66.0818
11
249.361
21
-66.0804
0
LINE
8
BLACK
6
CONTINUOUS
10
249.361
20
-66.0804
11
249.361
21
-66.0797
0
LINE
8
BLACK
6
CONTINUOUS
10
249.361
20
-66.0797
11
249.361
21
-39.961
0
LINE
8
BLACK
6
CONTINUOUS
10
249.361
20
-39.961
11
244.674
21
-39.961
0
LINE
8
BLACK
6
CONTINUOUS
10
244.674
20
-39.961
11
244.664
21
-39.9593
0
LINE
8
BLACK
6
CONTINUOUS
10
244.664
20
-39.9593
11
244.661
21
-39.9598
0
LINE
8
BLACK
6
CONTINUOUS
10
244.661
20
-39.9598
11
244.658
21
-39.9582
0
LINE
8
BLACK
6
CONTINUOUS
10
244.658
20
-39.9582
11
244.648
21
-39.9564
0
LINE
8
BLACK
6
CONTINUOUS
10
244.648
20
-39.9564
11
244.633
21
-39.9439
0
LINE
8
BLACK
6
CONTINUOUS
10
244.633
20
-39.9439
11
244.616
21
-39.9342
0
LINE
8
BLACK
6
CONTINUOUS
10
244.616
20
-39.9342
11
244.614
21
-39.9278
0
LINE
8
BLACK
6
CONTINUOUS
10
244.614
20
-39.9278
11
244.609
21
-39.9235
0
LINE
8
BLACK
6
CONTINUOUS
10
244.609
20
-39.9235
11
244.605
21
-39.9043
0
LINE
8
BLACK
6
CONTINUOUS
10
244.605
20
-39.9043
11
244.599
21
-39.886
0
LINE
8
BLACK
6
CONTINUOUS
10
244.599
20
-39.886
11
244.599
21
-26.2688
0
LINE
8
BLACK
6
CONTINUOUS
10
244.599
20
-26.2688
11
242.292
21
-26.2688
0
LINE
8
BLACK
6
CONTINUOUS
10
242.292
20
-26.2688
11
242.283
21
-26.2671
0
LINE
8
BLACK
6
CONTINUOUS
10
242.283
20
-26.2671
11
242.279
21
-26.2676
0
LINE
8
BLACK
6
CONTINUOUS
10
242.279
20
-26.2676
11
242.276
21
-26.266
0
LINE
8
BLACK
6
CONTINUOUS
10
242.276
20
-26.266
11
242.267
21
-26.2642
0
LINE
8
BLACK
6
CONTINUOUS
10
242.267
20
-26.2642
11
242.252
21
-26.2517
0
LINE
8
BLACK
6
CONTINUOUS
10
242.252
20
-26.2517
11
242.235
21
-26.242
0
LINE
8
BLACK
6
CONTINUOUS
10
242.235
20
-26.242
11
242.233
21
-26.2356
0
LINE
8
BLACK
6
CONTINUOUS
10
242.233
20
-26.2356
11
242.227
21
-26.2313
0
LINE
8
BLACK
6
CONTINUOUS
10
242.227
20
-26.2313
11
242.224
21
-26.2121
0
LINE
8
BLACK
6
CONTINUOUS
10
242.224
20
-26.2121
11
242.217
21
-26.1938
0
LINE
8
BLACK
6
CONTINUOUS
10
242.217
20
-26.1938
11
242.217
21
-20.911
0
LINE
8
BLACK
6
CONTINUOUS
10
242.217
20
-20.911
11
231.652
21
-20.911
0
LINE
8
BLACK
6
CONTINUOUS
10
142.885
20
-89.2237
11
142.888
21
-89.2231
0
LINE
8
BLACK
6
CONTINUOUS
10
142.888
20
-89.2231
11
142.891
21
-89.2248
0
LINE
8
BLACK
6
CONTINUOUS
10
142.891
20
-89.2248
11
142.901
21
-89.2265
0
LINE
8
BLACK
6
CONTINUOUS
10
142.901
20
-89.2265
11
142.916
21
-89.239
0
LINE
8
BLACK
6
CONTINUOUS
10
142.916
20
-89.239
11
142.933
21
-89.2487
0
LINE
8
BLACK
6
CONTINUOUS
10
142.933
20
-89.2487
11
142.935
21
-89.2551
0
LINE
8
BLACK
6
CONTINUOUS
10
142.935
20
-89.2551
11
142.94
21
-89.2595
0
LINE
8
BLACK
6
CONTINUOUS
10
142.94
20
-89.2595
11
142.943
21
-89.2786
0
LINE
8
BLACK
6
CONTINUOUS
10
142.943
20
-89.2786
11
142.95
21
-89.2969
0
LINE
8
BLACK
6
CONTINUOUS
10
142.95
20
-89.2969
11
142.95
21
-95.2501
0
LINE
8
BLACK
6
CONTINUOUS
10
142.95
20
-95.2501
11
142.948
21
-95.2598
0
LINE
8
BLACK
6
CONTINUOUS
10
142.948
20
-95.2598
11
142.949
21
-95.2631
0
LINE
8
BLACK
6
CONTINUOUS
10
142.949
20
-95.2631
11
142.947
21
-95.266
0
LINE
8
BLACK
6
CONTINUOUS
10
142.947
20
-95.266
11
142.946
21
-95.2757
0
LINE
8
BLACK
6
CONTINUOUS
10
142.946
20
-95.2757
11
142.933
21
-95.2907
0
LINE
8
BLACK
6
CONTINUOUS
10
142.933
20
-95.2907
11
142.923
21
-95.3075
0
LINE
8
BLACK
6
CONTINUOUS
10
142.923
20
-95.3075
11
142.917
21
-95.3098
0
LINE
8
BLACK
6
CONTINUOUS
10
142.917
20
-95.3098
11
142.913
21
-95.315
0
LINE
8
BLACK
6
CONTINUOUS
10
142.913
20
-95.315
11
142.893
21
-95.3184
0
LINE
8
BLACK
6
CONTINUOUS
10
142.893
20
-95.3184
11
142.875
21
-95.3251
0
LINE
8
BLACK
6
CONTINUOUS
10
142.875
20
-95.3251
11
134.541
21
-95.3251
0
LINE
8
BLACK
6
CONTINUOUS
10
134.541
20
-95.3251
11
134.531
21
-95.3234
0
LINE
8
BLACK
6
CONTINUOUS
10
134.531
20
-95.3234
11
134.528
21
-95.3239
0
LINE
8
BLACK
6
CONTINUOUS
10
134.528
20
-95.3239
11
134.525
21
-95.3223
0
LINE
8
BLACK
6
CONTINUOUS
10
134.525
20
-95.3223
11
134.515
21
-95.3206
0
LINE
8
BLACK
6
CONTINUOUS
10
134.515
20
-95.3206
11
134.5
21
-95.308
0
LINE
8
BLACK
6
CONTINUOUS
10
134.5
20
-95.308
11
134.483
21
-95.2983
0
LINE
8
BLACK
6
CONTINUOUS
10
134.483
20
-95.2983
11
134.481
21
-95.2919
0
LINE
8
BLACK
6
CONTINUOUS
10
134.481
20
-95.2919
11
134.476
21
-95.2876
0
LINE
8
BLACK
6
CONTINUOUS
10
134.476
20
-95.2876
11
134.472
21
-95.2684
0
LINE
8
BLACK
6
CONTINUOUS
10
134.472
20
-95.2684
11
134.466
21
-95.2501
0
LINE
8
BLACK
6
CONTINUOUS
10
134.466
20
-95.2501
11
134.466
21
-89.2969
0
LINE
8
BLACK
6
CONTINUOUS
10
134.466
20
-89.2969
11
134.467
21
-89.2872
0
LINE
8
BLACK
6
CONTINUOUS
10
134.467
20
-89.2872
11
134.467
21
-89.2839
0
LINE
8
BLACK
6
CONTINUOUS
10
134.467
20
-89.2839
11
134.469
21
-89.281
0
LINE
8
BLACK
6
CONTINUOUS
10
134.469
20
-89.281
11
134.47
21
-89.2713
0
LINE
8
BLACK
6
CONTINUOUS
10
134.47
20
-89.2713
11
134.483
21
-89.2564
0
LINE
8
BLACK
6
CONTINUOUS
10
134.483
20
-89.2564
11
134.493
21
-89.2395
0
LINE
8
BLACK
6
CONTINUOUS
10
134.493
20
-89.2395
11
134.499
21
-89.2372
0
LINE
8
BLACK
6
CONTINUOUS
10
134.499
20
-89.2372
11
134.503
21
-89.232
0
LINE
8
BLACK
6
CONTINUOUS
10
134.503
20
-89.232
11
134.522
21
-89.2286
0
LINE
8
BLACK
6
CONTINUOUS
10
134.522
20
-89.2286
11
134.541
21
-89.2219
0
LINE
8
BLACK
6
CONTINUOUS
10
134.541
20
-89.2219
11
142.875
21
-89.2219
0
LINE
8
BLACK
6
CONTINUOUS
10
142.875
20
-89.2219
11
142.885
21
-89.2237
0
LINE
8
BLACK
6
CONTINUOUS
10
134.616
20
-89.3719
11
134.616
21
-95.1751
0
LINE
8
BLACK
6
CONTINUOUS
10
134.616
20
-95.1751
11
142.8
21
-95.1751
0
LINE
8
BLACK
6
CONTINUOUS
10
142.8
20
-95.1751
11
142.8
21
-89.3719
0
LINE
8
BLACK
6
CONTINUOUS
10
142.8
20
-89.3719
11
134.616
21
-89.3719
0
LINE
8
BLACK
6
CONTINUOUS
10
144.671
20
-32.0736
11
144.674
21
-32.073
0
LINE
8
BLACK
6
CONTINUOUS
10
144.674
20
-32.073
11
144.677
21
-32.0747
0
LINE
8
BLACK
6
CONTINUOUS
10
144.677
20
-32.0747
11
144.687
21
-32.0764
0
LINE
8
BLACK
6
CONTINUOUS
10
144.687
20
-32.0764
11
144.702
21
-32.089
0
LINE
8
BLACK
6
CONTINUOUS
10
144.702
20
-32.089
11
144.719
21
-32.0987
0
LINE
8
BLACK
6
CONTINUOUS
10
144.719
20
-32.0987
11
144.721
21
-32.1051
0
LINE
8
BLACK
6
CONTINUOUS
10
144.721
20
-32.1051
11
144.726
21
-32.1094
0
LINE
8
BLACK
6
CONTINUOUS
10
144.726
20
-32.1094
11
144.729
21
-32.1286
0
LINE
8
BLACK
6
CONTINUOUS
10
144.729
20
-32.1286
11
144.736
21
-32.1469
0
LINE
8
BLACK
6
CONTINUOUS
10
144.736
20
-32.1469
11
144.736
21
-63.1032
0
LINE
8
BLACK
6
CONTINUOUS
10
144.736
20
-63.1032
11
144.734
21
-63.1129
0
LINE
8
BLACK
6
CONTINUOUS
10
144.734
20
-63.1129
11
144.735
21
-63.1162
0
LINE
8
BLACK
6
CONTINUOUS
10
144.735
20
-63.1162
11
144.733
21
-63.1191
0
LINE
8
BLACK
6
CONTINUOUS
10
144.733
20
-63.1191
11
144.732
21
-63.1288
0
LINE
8
BLACK
6
CONTINUOUS
10
144.732
20
-63.1288
11
144.719
21
-63.1438
0
LINE
8
BLACK
6
CONTINUOUS
10
144.719
20
-63.1438
11
144.709
21
-63.1606
0
LINE
8
BLACK
6
CONTINUOUS
10
144.709
20
-63.1606
11
144.703
21
-63.1629
0
LINE
8
BLACK
6
CONTINUOUS
10
144.703
20
-63.1629
11
144.699
21
-63.1681
0
LINE
8
BLACK
6
CONTINUOUS
10
144.699
20
-63.1681
11
144.679
21
-63.1715
0
LINE
8
BLACK
6
CONTINUOUS
10
144.679
20
-63.1715
11
144.661
21
-63.1782
0
LINE
8
BLACK
6
CONTINUOUS
10
144.661
20
-63.1782
11
141.089
21
-63.1782
0
LINE
8
BLACK
6
CONTINUOUS
10
141.089
20
-63.1782
11
141.079
21
-63.1765
0
LINE
8
BLACK
6
CONTINUOUS
10
141.079
20
-63.1765
11
141.076
21
-63.177
0
LINE
8
BLACK
6
CONTINUOUS
10
141.076
20
-63.177
11
141.073
21
-63.1754
0
LINE
8
BLACK
6
CONTINUOUS
10
141.073
20
-63.1754
11
141.064
21
-63.1737
0
LINE
8
BLACK
6
CONTINUOUS
10
141.064
20
-63.1737
11
141.049
21
-63.1611
0
LINE
8
BLACK
6
CONTINUOUS
10
141.049
20
-63.1611
11
141.032
21
-63.1514
0
LINE
8
BLACK
6
CONTINUOUS
10
141.032
20
-63.1514
11
141.029
21
-63.145
0
LINE
8
BLACK
6
CONTINUOUS
10
141.029
20
-63.145
11
141.024
21
-63.1407
0
LINE
8
BLACK
6
CONTINUOUS
10
141.024
20
-63.1407
11
141.021
21
-63.1215
0
LINE
8
BLACK
6
CONTINUOUS
10
141.021
20
-63.1215
11
141.014
21
-63.1032
0
LINE
8
BLACK
6
CONTINUOUS
10
141.014
20
-63.1032
11
141.014
21
-50.0813
0
LINE
8
BLACK
6
CONTINUOUS
10
141.014
20
-50.0813
11
133.945
21
-50.0813
0
LINE
8
BLACK
6
CONTINUOUS
10
133.945
20
-50.0813
11
133.936
21
-50.0796
0
LINE
8
BLACK
6
CONTINUOUS
10
133.936
20
-50.0796
11
133.932
21
-50.0802
0
LINE
8
BLACK
6
CONTINUOUS
10
133.932
20
-50.0802
11
133.93
21
-50.0785
0
LINE
8
BLACK
6
CONTINUOUS
10
133.93
20
-50.0785
11
133.92
21
-50.0768
0
LINE
8
BLACK
6
CONTINUOUS
10
133.92
20
-50.0768
11
133.905
21
-50.0642
0
LINE
8
BLACK
6
CONTINUOUS
10
133.905
20
-50.0642
11
133.888
21
-50.0545
0
LINE
8
BLACK
6
CONTINUOUS
10
133.888
20
-50.0545
11
133.886
21
-50.0481
0
LINE
8
BLACK
6
CONTINUOUS
10
133.886
20
-50.0481
11
133.88
21
-50.0438
0
LINE
8
BLACK
6
CONTINUOUS
10
133.88
20
-50.0438
11
133.877
21
-50.0246
0
LINE
8
BLACK
6
CONTINUOUS
10
133.877
20
-50.0246
11
133.87
21
-50.0063
0
LINE
8
BLACK
6
CONTINUOUS
10
133.87
20
-50.0063
11
133.87
21
-41.6719
0
LINE
8
BLACK
6
CONTINUOUS
10
133.87
20
-41.6719
11
133.872
21
-41.6622
0
LINE
8
BLACK
6
CONTINUOUS
10
133.872
20
-41.6622
11
133.872
21
-41.6589
0
LINE
8
BLACK
6
CONTINUOUS
10
133.872
20
-41.6589
11
133.873
21
-41.656
0
LINE
8
BLACK
6
CONTINUOUS
10
133.873
20
-41.656
11
133.875
21
-41.6463
0
LINE
8
BLACK
6
CONTINUOUS
10
133.875
20
-41.6463
11
133.887
21
-41.6313
0
LINE
8
BLACK
6
CONTINUOUS
10
133.887
20
-41.6313
11
133.897
21
-41.6145
0
LINE
8
BLACK
6
CONTINUOUS
10
133.897
20
-41.6145
11
133.904
21
-41.6121
0
LINE
8
BLACK
6
CONTINUOUS
10
133.904
20
-41.6121
11
133.908
21
-41.607
0
LINE
8
BLACK
6
CONTINUOUS
10
133.908
20
-41.607
11
133.927
21
-41.6036
0
LINE
8
BLACK
6
CONTINUOUS
10
133.927
20
-41.6036
11
133.945
21
-41.5969
0
LINE
8
BLACK
6
CONTINUOUS
10
133.945
20
-41.5969
11
141.014
21
-41.5969
0
LINE
8
BLACK
6
CONTINUOUS
10
141.014
20
-41.5969
11
141.014
21
-32.1469
0
LINE
8
BLACK
6
CONTINUOUS
10
141.014
20
-32.1469
11
141.016
21
-32.1372
0
LINE
8
BLACK
6
CONTINUOUS
10
141.016
20
-32.1372
11
141.015
21
-32.1339
0
LINE
8
BLACK
6
CONTINUOUS
10
141.015
20
-32.1339
11
141.017
21
-32.131
0
LINE
8
BLACK
6
CONTINUOUS
10
141.017
20
-32.131
11
141.019
21
-32.1212
0
LINE
8
BLACK
6
CONTINUOUS
10
141.019
20
-32.1212
11
141.031
21
-32.1063
0
LINE
8
BLACK
6
CONTINUOUS
10
141.031
20
-32.1063
11
141.041
21
-32.0894
0
LINE
8
BLACK
6
CONTINUOUS
10
141.041
20
-32.0894
11
141.047
21
-32.0871
0
LINE
8
BLACK
6
CONTINUOUS
10
141.047
20
-32.0871
11
141.052
21
-32.0819
0
LINE
8
BLACK
6
CONTINUOUS
10
141.052
20
-32.0819
11
141.071
21
-32.0786
0
LINE
8
BLACK
6
CONTINUOUS
10
141.071
20
-32.0786
11
141.089
21
-32.0719
0
LINE
8
BLACK
6
CONTINUOUS
10
141.089
20
-32.0719
11
144.661
21
-32.0719
0
LINE
8
BLACK
6
CONTINUOUS
10
144.661
20
-32.0719
11
144.671
21
-32.0736
0
LINE
8
BLACK
6
CONTINUOUS
10
141.164
20
-32.2219
11
141.164
21
-41.6719
0
LINE
8
BLACK
6
CONTINUOUS
10
141.164
20
-41.6719
11
141.162
21
-41.6817
0
LINE
8
BLACK
6
CONTINUOUS
10
141.162
20
-41.6817
11
141.163
21
-41.6849
0
LINE
8
BLACK
6
CONTINUOUS
10
141.163
20
-41.6849
11
141.161
21
-41.6878
0
LINE
8
BLACK
6
CONTINUOUS
10
141.161
20
-41.6878
11
141.16
21
-41.6976
0
LINE
8
BLACK
6
CONTINUOUS
10
141.16
20
-41.6976
11
141.147
21
-41.7125
0
LINE
8
BLACK
6
CONTINUOUS
10
141.147
20
-41.7125
11
141.137
21
-41.7294
0
LINE
8
BLACK
6
CONTINUOUS
10
141.137
20
-41.7294
11
141.131
21
-41.7317
0
LINE
8
BLACK
6
CONTINUOUS
10
141.131
20
-41.7317
11
141.127
21
-41.7369
0
LINE
8
BLACK
6
CONTINUOUS
10
141.127
20
-41.7369
11
141.107
21
-41.7402
0
LINE
8
BLACK
6
CONTINUOUS
10
141.107
20
-41.7402
11
141.089
21
-41.7469
0
LINE
8
BLACK
6
CONTINUOUS
10
141.089
20
-41.7469
11
134.02
21
-41.7469
0
LINE
8
BLACK
6
CONTINUOUS
10
134.02
20
-41.7469
11
134.02
21
-49.9313
0
LINE
8
BLACK
6
CONTINUOUS
10
134.02
20
-49.9313
11
141.089
21
-49.9313
0
LINE
8
BLACK
6
CONTINUOUS
10
141.089
20
-49.9313
11
141.099
21
-49.933
0
LINE
8
BLACK
6
CONTINUOUS
10
141.099
20
-49.933
11
141.102
21
-49.9324
0
LINE
8
BLACK
6
CONTINUOUS
10
141.102
20
-49.9324
11
141.105
21
-49.9341
0
LINE
8
BLACK
6
CONTINUOUS
10
141.105
20
-49.9341
11
141.115
21
-49.9358
0
LINE
8
BLACK
6
CONTINUOUS
10
141.115
20
-49.9358
11
141.13
21
-49.9483
0
LINE
8
BLACK
6
CONTINUOUS
10
141.13
20
-49.9483
11
141.147
21
-49.9581
0
LINE
8
BLACK
6
CONTINUOUS
10
141.147
20
-49.9581
11
141.149
21
-49.9644
0
LINE
8
BLACK
6
CONTINUOUS
10
141.149
20
-49.9644
11
141.154
21
-49.9688
0
LINE
8
BLACK
6
CONTINUOUS
10
141.154
20
-49.9688
11
141.158
21
-49.988
0
LINE
8
BLACK
6
CONTINUOUS
10
141.158
20
-49.988
11
141.164
21
-50.0063
0
LINE
8
BLACK
6
CONTINUOUS
10
141.164
20
-50.0063
11
141.164
21
-63.0282
0
LINE
8
BLACK
6
CONTINUOUS
10
141.164
20
-63.0282
11
144.586
21
-63.0282
0
LINE
8
BLACK
6
CONTINUOUS
10
144.586
20
-63.0282
11
144.586
21
-32.2219
0
LINE
8
BLACK
6
CONTINUOUS
10
144.586
20
-32.2219
11
141.164
21
-32.2219
0
LINE
8
BLACK
6
CONTINUOUS
10
129.193
20
-32.0736
11
129.196
21
-32.073
0
LINE
8
BLACK
6
CONTINUOUS
10
129.196
20
-32.073
11
129.199
21
-32.0747
0
LINE
8
BLACK
6
CONTINUOUS
10
129.199
20
-32.0747
11
129.209
21
-32.0764
0
LINE
8
BLACK
6
CONTINUOUS
10
129.209
20
-32.0764
11
129.224
21
-32.089
0
LINE
8
BLACK
6
CONTINUOUS
10
129.224
20
-32.089
11
129.24
21
-32.0987
0
LINE
8
BLACK
6
CONTINUOUS
10
129.24
20
-32.0987
11
129.243
21
-32.1051
0
LINE
8
BLACK
6
CONTINUOUS
10
129.243
20
-32.1051
11
129.248
21
-32.1094
0
LINE
8
BLACK
6
CONTINUOUS
10
129.248
20
-32.1094
11
129.251
21
-32.1286
0
LINE
8
BLACK
6
CONTINUOUS
10
129.251
20
-32.1286
11
129.258
21
-32.1469
0
LINE
8
BLACK
6
CONTINUOUS
10
129.258
20
-32.1469
11
129.258
21
-63.1032
0
LINE
8
BLACK
6
CONTINUOUS
10
129.258
20
-63.1032
11
129.256
21
-63.1129
0
LINE
8
BLACK
6
CONTINUOUS
10
129.256
20
-63.1129
11
129.257
21
-63.1162
0
LINE
8
BLACK
6
CONTINUOUS
10
129.257
20
-63.1162
11
129.255
21
-63.1191
0
LINE
8
BLACK
6
CONTINUOUS
10
129.255
20
-63.1191
11
129.253
21
-63.1288
0
LINE
8
BLACK
6
CONTINUOUS
10
129.253
20
-63.1288
11
129.241
21
-63.1438
0
LINE
8
BLACK
6
CONTINUOUS
10
129.241
20
-63.1438
11
129.231
21
-63.1606
0
LINE
8
BLACK
6
CONTINUOUS
10
129.231
20
-63.1606
11
129.225
21
-63.1629
0
LINE
8
BLACK
6
CONTINUOUS
10
129.225
20
-63.1629
11
129.22
21
-63.1681
0
LINE
8
BLACK
6
CONTINUOUS
10
129.22
20
-63.1681
11
129.201
21
-63.1715
0
LINE
8
BLACK
6
CONTINUOUS
10
129.201
20
-63.1715
11
129.183
21
-63.1782
0
LINE
8
BLACK
6
CONTINUOUS
10
129.183
20
-63.1782
11
125.611
21
-63.1782
0
LINE
8
BLACK
6
CONTINUOUS
10
125.611
20
-63.1782
11
125.601
21
-63.1765
0
LINE
8
BLACK
6
CONTINUOUS
10
125.601
20
-63.1765
11
125.598
21
-63.177
0
LINE
8
BLACK
6
CONTINUOUS
10
125.598
20
-63.177
11
125.595
21
-63.1754
0
LINE
8
BLACK
6
CONTINUOUS
10
125.595
20
-63.1754
11
125.585
21
-63.1737
0
LINE
8
BLACK
6
CONTINUOUS
10
125.585
20
-63.1737
11
125.57
21
-63.1611
0
LINE
8
BLACK
6
CONTINUOUS
10
125.57
20
-63.1611
11
125.554
21
-63.1514
0
LINE
8
BLACK
6
CONTINUOUS
10
125.554
20
-63.1514
11
125.551
21
-63.145
0
LINE
8
BLACK
6
CONTINUOUS
10
125.551
20
-63.145
11
125.546
21
-63.1407
0
LINE
8
BLACK
6
CONTINUOUS
10
125.546
20
-63.1407
11
125.543
21
-63.1215
0
LINE
8
BLACK
6
CONTINUOUS
10
125.543
20
-63.1215
11
125.536
21
-63.1032
0
LINE
8
BLACK
6
CONTINUOUS
10
125.536
20
-63.1032
11
125.536
21
-32.1469
0
LINE
8
BLACK
6
CONTINUOUS
10
125.536
20
-32.1469
11
125.538
21
-32.1372
0
LINE
8
BLACK
6
CONTINUOUS
10
125.538
20
-32.1372
11
125.537
21
-32.1339
0
LINE
8
BLACK
6
CONTINUOUS
10
125.537
20
-32.1339
11
125.539
21
-32.131
0
LINE
8
BLACK
6
CONTINUOUS
10
125.539
20
-32.131
11
125.541
21
-32.1212
0
LINE
8
BLACK
6
CONTINUOUS
10
125.541
20
-32.1212
11
125.553
21
-32.1063
0
LINE
8
BLACK
6
CONTINUOUS
10
125.553
20
-32.1063
11
125.563
21
-32.0894
0
LINE
8
BLACK
6
CONTINUOUS
10
125.563
20
-32.0894
11
125.569
21
-32.0871
0
LINE
8
BLACK
6
CONTINUOUS
10
125.569
20
-32.0871
11
125.574
21
-32.0819
0
LINE
8
BLACK
6
CONTINUOUS
10
125.574
20
-32.0819
11
125.593
21
-32.0786
0
LINE
8
BLACK
6
CONTINUOUS
10
125.593
20
-32.0786
11
125.611
21
-32.0719
0
LINE
8
BLACK
6
CONTINUOUS
10
125.611
20
-32.0719
11
129.183
21
-32.0719
0
LINE
8
BLACK
6
CONTINUOUS
10
129.183
20
-32.0719
11
129.193
21
-32.0736
0
LINE
8
BLACK
6
CONTINUOUS
10
125.686
20
-32.2219
11
125.686
21
-63.0282
0
LINE
8
BLACK
6
CONTINUOUS
10
125.686
20
-63.0282
11
129.108
21
-63.0282
0
LINE
8
BLACK
6
CONTINUOUS
10
129.108
20
-63.0282
11
129.108
21
-32.2219
0
LINE
8
BLACK
6
CONTINUOUS
10
129.108
20
-32.2219
11
125.686
21
-32.2219
0
LINE
8
BLACK
6
CONTINUOUS
10
209.556
20
-97.0858
11
189.915
21
-100.062
0
LINE
8
BLACK
6
CONTINUOUS
10
189.915
20
-100.062
11
157.175
21
-108.395
0
LINE
8
BLACK
6
CONTINUOUS
10
157.175
20
-108.395
11
157.169
21
-108.394
0
LINE
8
BLACK
6
CONTINUOUS
10
157.169
20
-108.394
11
157.163
21
-108.397
0
LINE
8
BLACK
6
CONTINUOUS
10
157.163
20
-108.397
11
121.444
21
-108.397
0
LINE
8
BLACK
6
CONTINUOUS
10
121.444
20
-108.397
11
121.439
21
-108.395
0
LINE
8
BLACK
6
CONTINUOUS
10
121.439
20
-108.395
11
121.433
21
-108.396
0
LINE
8
BLACK
6
CONTINUOUS
10
121.433
20
-108.396
11
88.6926
21
-101.252
0
LINE
8
BLACK
6
CONTINUOUS
10
88.6926
20
-101.252
11
69.0508
21
-98.2764
0
LINE
8
BLACK
6
CONTINUOUS
10
69.0508
20
-98.2764
11
51.7905
21
-97.086
0
LINE
8
BLACK
6
CONTINUOUS
10
51.7905
20
-97.086
11
17.2641
21
-97.086
0
LINE
8
BLACK
6
CONTINUOUS
10
17.2641
20
-97.086
11
16.7766
21
-97.0674
0
LINE
8
BLACK
6
CONTINUOUS
10
16.7766
20
-97.0674
11
16.292
21
-97.0118
0
LINE
8
BLACK
6
CONTINUOUS
10
16.292
20
-97.0118
11
15.813
21
-96.9193
0
LINE
8
BLACK
6
CONTINUOUS
10
15.813
20
-96.9193
11
15.3424
21
-96.7907
0
LINE
8
BLACK
6
CONTINUOUS
10
15.3424
20
-96.7907
11
14.883
21
-96.6266
0
LINE
8
BLACK
6
CONTINUOUS
10
14.883
20
-96.6266
11
14.4374
21
-96.428
0
LINE
8
BLACK
6
CONTINUOUS
10
14.4374
20
-96.428
11
14.0083
21
-96.196
0
LINE
8
BLACK
6
CONTINUOUS
10
14.0083
20
-96.196
11
13.598
21
-95.932
0
LINE
8
BLACK
6
CONTINUOUS
10
13.598
20
-95.932
11
13.2091
21
-95.6375
0
LINE
8
BLACK
6
CONTINUOUS
10
13.2091
20
-95.6375
11
12.8437
21
-95.3143
0
LINE
8
BLACK
6
CONTINUOUS
10
12.8437
20
-95.3143
11
12.5041
21
-94.9641
0
LINE
8
BLACK
6
CONTINUOUS
10
12.5041
20
-94.9641
11
12.192
21
-94.5891
0
LINE
8
BLACK
6
CONTINUOUS
10
12.192
20
-94.5891
11
11.9095
21
-94.1915
0
LINE
8
BLACK
6
CONTINUOUS
10
11.9095
20
-94.1915
11
11.658
21
-93.7734
0
LINE
8
BLACK
6
CONTINUOUS
10
11.658
20
-93.7734
11
11.4391
21
-93.3375
0
LINE
8
BLACK
6
CONTINUOUS
10
11.4391
20
-93.3375
11
11.2541
21
-92.8861
0
LINE
8
BLACK
6
CONTINUOUS
10
11.2541
20
-92.8861
11
11.104
21
-92.4219
0
LINE
8
BLACK
6
CONTINUOUS
10
11.104
20
-92.4219
11
10.9897
21
-91.9477
0
LINE
8
BLACK
6
CONTINUOUS
10
10.9897
20
-91.9477
11
10.9118
21
-91.4661
0
LINE
8
BLACK
6
CONTINUOUS
10
10.9118
20
-91.4661
11
10.8708
21
-90.98
0
LINE
8
BLACK
6
CONTINUOUS
10
10.8708
20
-90.98
11
10.867
21
-90.4938
0
LINE
8
BLACK
6
CONTINUOUS
10
10.867
20
-90.4938
11
10.867
21
-90.4937
0
LINE
8
BLACK
6
CONTINUOUS
10
10.867
20
-90.4937
11
10.867
21
-24.011
0
LINE
8
BLACK
6
CONTINUOUS
10
10.867
20
-24.011
11
10.8673
21
-24.0102
0
LINE
8
BLACK
6
CONTINUOUS
10
10.8673
20
-24.0102
11
10.867
21
-24.0094
0
LINE
8
BLACK
6
CONTINUOUS
10
10.867
20
-24.0094
11
10.8993
21
-23.5331
0
LINE
8
BLACK
6
CONTINUOUS
10
10.8993
20
-23.5331
11
10.9671
21
-23.0604
0
LINE
8
BLACK
6
CONTINUOUS
10
10.9671
20
-23.0604
11
11.07
21
-22.5942
0
LINE
8
BLACK
6
CONTINUOUS
10
11.07
20
-22.5942
11
11.2075
21
-22.1369
0
LINE
8
BLACK
6
CONTINUOUS
10
11.2075
20
-22.1369
11
11.3788
21
-21.6912
0
LINE
8
BLACK
6
CONTINUOUS
10
11.3788
20
-21.6912
11
11.5829
21
-21.2595
0
LINE
8
BLACK
6
CONTINUOUS
10
11.5829
20
-21.2595
11
11.8186
21
-20.8443
0
LINE
8
BLACK
6
CONTINUOUS
10
11.8186
20
-20.8443
11
12.0848
21
-20.4479
0
LINE
8
BLACK
6
CONTINUOUS
10
12.0848
20
-20.4479
11
12.3798
21
-20.0725
0
LINE
8
BLACK
6
CONTINUOUS
10
12.3798
20
-20.0725
11
12.7021
21
-19.7202
0
LINE
8
BLACK
6
CONTINUOUS
10
12.7021
20
-19.7202
11
13.0498
21
-19.3929
0
LINE
8
BLACK
6
CONTINUOUS
10
13.0498
20
-19.3929
11
13.421
21
-19.0926
0
LINE
8
BLACK
6
CONTINUOUS
10
13.421
20
-19.0926
11
13.8135
21
-18.8208
0
LINE
8
BLACK
6
CONTINUOUS
10
13.8135
20
-18.8208
11
14.2253
21
-18.5791
0
LINE
8
BLACK
6
CONTINUOUS
10
14.2253
20
-18.5791
11
14.654
21
-18.3689
0
LINE
8
BLACK
6
CONTINUOUS
10
14.654
20
-18.3689
11
15.0973
21
-18.1912
0
LINE
8
BLACK
6
CONTINUOUS
10
15.0973
20
-18.1912
11
15.5525
21
-18.0473
0
LINE
8
BLACK
6
CONTINUOUS
10
15.5525
20
-18.0473
11
16.0172
21
-17.9377
0
LINE
8
BLACK
6
CONTINUOUS
10
16.0172
20
-17.9377
11
16.4889
21
-17.8632
0
LINE
8
BLACK
6
CONTINUOUS
10
16.4889
20
-17.8632
11
16.9647
21
-17.8241
0
LINE
8
BLACK
6
CONTINUOUS
10
16.9647
20
-17.8241
11
17.4406
21
-17.8207
0
LINE
8
BLACK
6
CONTINUOUS
10
17.4406
20
-17.8207
11
17.4407
21
-17.8207
0
LINE
8
BLACK
6
CONTINUOUS
10
17.4407
20
-17.8207
11
44.0531
21
-17.8094
0
LINE
8
BLACK
6
CONTINUOUS
10
44.0531
20
-17.8094
11
44.0547
21
-17.81
0
LINE
8
BLACK
6
CONTINUOUS
10
44.0547
20
-17.81
11
44.0563
21
-17.8095
0
LINE
8
BLACK
6
CONTINUOUS
10
44.0563
20
-17.8095
11
63.1063
21
-19.0001
0
LINE
8
BLACK
6
CONTINUOUS
10
63.1063
20
-19.0001
11
63.1068
21
-19.0004
0
LINE
8
BLACK
6
CONTINUOUS
10
63.1068
20
-19.0004
11
63.1073
21
-19.0002
0
LINE
8
BLACK
6
CONTINUOUS
10
63.1073
20
-19.0002
11
84.5386
21
-20.7861
0
LINE
8
BLACK
6
CONTINUOUS
10
84.5386
20
-20.7861
11
84.5408
21
-20.7872
0
LINE
8
BLACK
6
CONTINUOUS
10
84.5408
20
-20.7872
11
84.5431
21
-20.7867
0
LINE
8
BLACK
6
CONTINUOUS
10
84.5431
20
-20.7867
11
104.784
21
-24.3586
0
LINE
8
BLACK
6
CONTINUOUS
10
104.784
20
-24.3586
11
104.784
21
-24.3588
0
LINE
8
BLACK
6
CONTINUOUS
10
104.784
20
-24.3588
11
104.785
21
-24.3587
0
LINE
8
BLACK
6
CONTINUOUS
10
104.785
20
-24.3587
11
123.235
21
-27.9297
0
LINE
8
BLACK
6
CONTINUOUS
10
123.235
20
-27.9297
11
145.847
21
-27.9297
0
LINE
8
BLACK
6
CONTINUOUS
10
145.847
20
-27.9297
11
164.297
21
-24.3587
0
LINE
8
BLACK
6
CONTINUOUS
10
164.297
20
-24.3587
11
164.297
21
-24.3588
0
LINE
8
BLACK
6
CONTINUOUS
10
164.297
20
-24.3588
11
164.298
21
-24.3586
0
LINE
8
BLACK
6
CONTINUOUS
10
164.298
20
-24.3586
11
184.538
21
-20.7867
0
LINE
8
BLACK
6
CONTINUOUS
10
184.538
20
-20.7867
11
184.541
21
-20.7872
0
LINE
8
BLACK
6
CONTINUOUS
10
184.541
20
-20.7872
11
184.543
21
-20.7861
0
LINE
8
BLACK
6
CONTINUOUS
10
184.543
20
-20.7861
11
205.974
21
-19.0002
0
LINE
8
BLACK
6
CONTINUOUS
10
205.974
20
-19.0002
11
205.975
21
-19.0004
0
LINE
8
BLACK
6
CONTINUOUS
10
205.975
20
-19.0004
11
205.975
21
-19.0001
0
LINE
8
BLACK
6
CONTINUOUS
10
205.975
20
-19.0001
11
225.025
21
-17.8095
0
LINE
8
BLACK
6
CONTINUOUS
10
225.025
20
-17.8095
11
225.027
21
-17.81
0
LINE
8
BLACK
6
CONTINUOUS
10
225.027
20
-17.81
11
225.028
21
-17.8094
0
LINE
8
BLACK
6
CONTINUOUS
10
225.028
20
-17.8094
11
258.961
21
-17.8094
0
LINE
8
BLACK
6
CONTINUOUS
10
258.961
20
-17.8094
11
259.432
21
-17.8279
0
LINE
8
BLACK
6
CONTINUOUS
10
259.432
20
-17.8279
11
259.9
21
-17.8833
0
LINE
8
BLACK
6
CONTINUOUS
10
259.9
20
-17.8833
11
260.363
21
-17.9752
0
LINE
8
BLACK
6
CONTINUOUS
10
260.363
20
-17.9752
11
260.816
21
-18.1032
0
LINE
8
BLACK
6
CONTINUOUS
10
260.816
20
-18.1032
11
261.258
21
-18.2663
0
LINE
8
BLACK
6
CONTINUOUS
10
261.258
20
-18.2663
11
261.687
21
-18.4637
0
LINE
8
BLACK
6
CONTINUOUS
10
261.687
20
-18.4637
11
262.098
21
-18.694
0
LINE
8
BLACK
6
CONTINUOUS
10
262.098
20
-18.694
11
262.49
21
-18.9559
0
LINE
8
BLACK
6
CONTINUOUS
10
262.49
20
-18.9559
11
262.86
21
-19.2477
0
LINE
8
BLACK
6
CONTINUOUS
10
262.86
20
-19.2477
11
263.206
21
-19.5677
0
LINE
8
BLACK
6
CONTINUOUS
10
263.206
20
-19.5677
11
263.526
21
-19.9138
0
LINE
8
BLACK
6
CONTINUOUS
10
263.526
20
-19.9138
11
263.818
21
-20.284
0
LINE
8
BLACK
6
CONTINUOUS
10
263.818
20
-20.284
11
264.08
21
-20.6759
0
LINE
8
BLACK
6
CONTINUOUS
10
264.08
20
-20.6759
11
264.31
21
-21.0871
0
LINE
8
BLACK
6
CONTINUOUS
10
264.31
20
-21.0871
11
264.507
21
-21.5152
0
LINE
8
BLACK
6
CONTINUOUS
10
264.507
20
-21.5152
11
264.67
21
-21.9574
0
LINE
8
BLACK
6
CONTINUOUS
10
264.67
20
-21.9574
11
264.798
21
-22.4111
0
LINE
8
BLACK
6
CONTINUOUS
10
264.798
20
-22.4111
11
264.89
21
-22.8734
0
LINE
8
BLACK
6
CONTINUOUS
10
264.89
20
-22.8734
11
264.946
21
-23.3415
0
LINE
8
BLACK
6
CONTINUOUS
10
264.946
20
-23.3415
11
264.964
21
-23.8125
0
LINE
8
BLACK
6
CONTINUOUS
10
264.964
20
-23.8125
11
264.964
21
-23.8125
0
LINE
8
BLACK
6
CONTINUOUS
10
264.964
20
-23.8125
11
265.56
21
-89.2965
0
LINE
8
BLACK
6
CONTINUOUS
10
265.56
20
-89.2965
11
265.56
21
-89.2967
0
LINE
8
BLACK
6
CONTINUOUS
10
265.56
20
-89.2967
11
265.56
21
-89.2969
0
LINE
8
BLACK
6
CONTINUOUS
10
265.56
20
-89.2969
11
265.541
21
-89.7901
0
LINE
8
BLACK
6
CONTINUOUS
10
265.541
20
-89.7901
11
265.486
21
-90.2804
0
LINE
8
BLACK
6
CONTINUOUS
10
265.486
20
-90.2804
11
265.394
21
-90.7652
0
LINE
8
BLACK
6
CONTINUOUS
10
265.394
20
-90.7652
11
265.266
21
-91.2419
0
LINE
8
BLACK
6
CONTINUOUS
10
265.266
20
-91.2419
11
265.103
21
-91.7076
0
LINE
8
BLACK
6
CONTINUOUS
10
265.103
20
-91.7076
11
264.906
21
-92.1599
0
LINE
8
BLACK
6
CONTINUOUS
10
264.906
20
-92.1599
11
264.676
21
-92.5962
0
LINE
8
BLACK
6
CONTINUOUS
10
264.676
20
-92.5962
11
264.413
21
-93.014
0
LINE
8
BLACK
6
CONTINUOUS
10
264.413
20
-93.014
11
264.12
21
-93.411
0
LINE
8
BLACK
6
CONTINUOUS
10
264.12
20
-93.411
11
263.798
21
-93.785
0
LINE
8
BLACK
6
CONTINUOUS
10
263.798
20
-93.785
11
263.449
21
-94.134
0
LINE
8
BLACK
6
CONTINUOUS
10
263.449
20
-94.134
11
263.075
21
-94.4558
0
LINE
8
BLACK
6
CONTINUOUS
10
263.075
20
-94.4558
11
262.678
21
-94.7489
0
LINE
8
BLACK
6
CONTINUOUS
10
262.678
20
-94.7489
11
262.26
21
-95.0114
0
LINE
8
BLACK
6
CONTINUOUS
10
262.26
20
-95.0114
11
261.824
21
-95.242
0
LINE
8
BLACK
6
CONTINUOUS
10
261.824
20
-95.242
11
261.372
21
-95.4393
0
LINE
8
BLACK
6
CONTINUOUS
10
261.372
20
-95.4393
11
260.906
21
-95.6023
0
LINE
8
BLACK
6
CONTINUOUS
10
260.906
20
-95.6023
11
260.429
21
-95.73
0
LINE
8
BLACK
6
CONTINUOUS
10
260.429
20
-95.73
11
259.945
21
-95.8217
0
LINE
8
BLACK
6
CONTINUOUS
10
259.945
20
-95.8217
11
259.454
21
-95.8769
0
LINE
8
BLACK
6
CONTINUOUS
10
259.454
20
-95.8769
11
258.961
21
-95.8954
0
LINE
8
BLACK
6
CONTINUOUS
10
258.961
20
-95.8954
11
258.961
21
-95.8954
0
LINE
8
BLACK
6
CONTINUOUS
10
258.961
20
-95.8954
11
227.411
21
-95.8954
0
LINE
8
BLACK
6
CONTINUOUS
10
227.411
20
-95.8954
11
209.556
21
-97.0858
0
LINE
8
BLACK
6
CONTINUOUS
10
205.982
20
-19.0999
11
184.553
21
-20.8856
0
LINE
8
BLACK
6
CONTINUOUS
10
184.553
20
-20.8856
11
164.315
21
-24.457
0
LINE
8
BLACK
6
CONTINUOUS
10
164.315
20
-24.457
11
145.861
21
-28.0288
0
LINE
8
BLACK
6
CONTINUOUS
10
145.861
20
-28.0288
11
145.856
21
-28.0278
0
LINE
8
BLACK
6
CONTINUOUS
10
145.856
20
-28.0278
11
145.852
21
-28.0297
0
LINE
8
BLACK
6
CONTINUOUS
10
145.852
20
-28.0297
11
123.23
21
-28.0297
0
LINE
8
BLACK
6
CONTINUOUS
10
123.23
20
-28.0297
11
123.225
21
-28.0278
0
LINE
8
BLACK
6
CONTINUOUS
10
123.225
20
-28.0278
11
123.22
21
-28.0288
0
LINE
8
BLACK
6
CONTINUOUS
10
123.22
20
-28.0288
11
104.766
21
-24.457
0
LINE
8
BLACK
6
CONTINUOUS
10
104.766
20
-24.457
11
84.528
21
-20.8856
0
LINE
8
BLACK
6
CONTINUOUS
10
84.528
20
-20.8856
11
63.0996
21
-19.0999
0
LINE
8
BLACK
6
CONTINUOUS
10
63.0996
20
-19.0999
11
44.0516
21
-17.9094
0
LINE
8
BLACK
6
CONTINUOUS
10
44.0516
20
-17.9094
11
17.4407
21
-17.9207
0
LINE
8
BLACK
6
CONTINUOUS
10
17.4407
20
-17.9207
11
17.44
21
-17.9203
0
LINE
8
BLACK
6
CONTINUOUS
10
17.44
20
-17.9203
11
17.4392
21
-17.9206
0
LINE
8
BLACK
6
CONTINUOUS
10
17.4392
20
-17.9206
11
17.4296
21
-17.9163
0
LINE
8
BLACK
6
CONTINUOUS
10
17.4296
20
-17.9163
11
16.969
21
-17.9196
0
LINE
8
BLACK
6
CONTINUOUS
10
16.969
20
-17.9196
11
16.5002
21
-17.9581
0
LINE
8
BLACK
6
CONTINUOUS
10
16.5002
20
-17.9581
11
16.0357
21
-18.0315
0
LINE
8
BLACK
6
CONTINUOUS
10
16.0357
20
-18.0315
11
15.5779
21
-18.1394
0
LINE
8
BLACK
6
CONTINUOUS
10
15.5779
20
-18.1394
11
15.1295
21
-18.2813
0
LINE
8
BLACK
6
CONTINUOUS
10
15.1295
20
-18.2813
11
14.6929
21
-18.4562
0
LINE
8
BLACK
6
CONTINUOUS
10
14.6929
20
-18.4562
11
14.2706
21
-18.6633
0
LINE
8
BLACK
6
CONTINUOUS
10
14.2706
20
-18.6633
11
13.865
21
-18.9014
0
LINE
8
BLACK
6
CONTINUOUS
10
13.865
20
-18.9014
11
13.4783
21
-19.1691
0
LINE
8
BLACK
6
CONTINUOUS
10
13.4783
20
-19.1691
11
13.1127
21
-19.4649
0
LINE
8
BLACK
6
CONTINUOUS
10
13.1127
20
-19.4649
11
12.7702
21
-19.7873
0
LINE
8
BLACK
6
CONTINUOUS
10
12.7702
20
-19.7873
11
12.4527
21
-20.1343
0
LINE
8
BLACK
6
CONTINUOUS
10
12.4527
20
-20.1343
11
12.1621
21
-20.5041
0
LINE
8
BLACK
6
CONTINUOUS
10
12.1621
20
-20.5041
11
11.9
21
-20.8946
0
LINE
8
BLACK
6
CONTINUOUS
10
11.9
20
-20.8946
11
11.6677
21
-21.3036
0
LINE
8
BLACK
6
CONTINUOUS
10
11.6677
20
-21.3036
11
11.4667
21
-21.7288
0
LINE
8
BLACK
6
CONTINUOUS
10
11.4667
20
-21.7288
11
11.298
21
-22.1678
0
LINE
8
BLACK
6
CONTINUOUS
10
11.298
20
-22.1678
11
11.1625
21
-22.6183
0
LINE
8
BLACK
6
CONTINUOUS
10
11.1625
20
-22.6183
11
11.0612
21
-23.0775
0
LINE
8
BLACK
6
CONTINUOUS
10
11.0612
20
-23.0775
11
10.9944
21
-23.5431
0
LINE
8
BLACK
6
CONTINUOUS
10
10.9944
20
-23.5431
11
10.9633
21
-24.002
0
LINE
8
BLACK
6
CONTINUOUS
10
10.9633
20
-24.002
11
10.967
21
-24.011
0
LINE
8
BLACK
6
CONTINUOUS
10
10.967
20
-24.011
11
10.967
21
-90.4937
0
LINE
8
BLACK
6
CONTINUOUS
10
10.967
20
-90.4937
11
10.9667
21
-90.4944
0
LINE
8
BLACK
6
CONTINUOUS
10
10.9667
20
-90.4944
11
10.967
21
-90.4952
0
LINE
8
BLACK
6
CONTINUOUS
10
10.967
20
-90.4952
11
10.9624
21
-90.5053
0
LINE
8
BLACK
6
CONTINUOUS
10
10.9624
20
-90.5053
11
10.9661
21
-90.9756
0
LINE
8
BLACK
6
CONTINUOUS
10
10.9661
20
-90.9756
11
11.0065
21
-91.4545
0
LINE
8
BLACK
6
CONTINUOUS
10
11.0065
20
-91.4545
11
11.0832
21
-91.9289
0
LINE
8
BLACK
6
CONTINUOUS
10
11.0832
20
-91.9289
11
11.1958
21
-92.396
0
LINE
8
BLACK
6
CONTINUOUS
10
11.1958
20
-92.396
11
11.3437
21
-92.8533
0
LINE
8
BLACK
6
CONTINUOUS
10
11.3437
20
-92.8533
11
11.5259
21
-93.2979
0
LINE
8
BLACK
6
CONTINUOUS
10
11.5259
20
-93.2979
11
11.7416
21
-93.7274
0
LINE
8
BLACK
6
CONTINUOUS
10
11.7416
20
-93.7274
11
11.9893
21
-94.1392
0
LINE
8
BLACK
6
CONTINUOUS
10
11.9893
20
-94.1392
11
12.2676
21
-94.531
0
LINE
8
BLACK
6
CONTINUOUS
10
12.2676
20
-94.531
11
12.575
21
-94.9004
0
LINE
8
BLACK
6
CONTINUOUS
10
12.575
20
-94.9004
11
12.9096
21
-95.2453
0
LINE
8
BLACK
6
CONTINUOUS
10
12.9096
20
-95.2453
11
13.2695
21
-95.5637
0
LINE
8
BLACK
6
CONTINUOUS
10
13.2695
20
-95.5637
11
13.6527
21
-95.8538
0
LINE
8
BLACK
6
CONTINUOUS
10
13.6527
20
-95.8538
11
14.0568
21
-96.1139
0
LINE
8
BLACK
6
CONTINUOUS
10
14.0568
20
-96.1139
11
14.4795
21
-96.3424
0
LINE
8
BLACK
6
CONTINUOUS
10
14.4795
20
-96.3424
11
14.9185
21
-96.5381
0
LINE
8
BLACK
6
CONTINUOUS
10
14.9185
20
-96.5381
11
15.371
21
-96.6997
0
LINE
8
BLACK
6
CONTINUOUS
10
15.371
20
-96.6997
11
15.8346
21
-96.8264
0
LINE
8
BLACK
6
CONTINUOUS
10
15.8346
20
-96.8264
11
16.3064
21
-96.9175
0
LINE
8
BLACK
6
CONTINUOUS
10
16.3064
20
-96.9175
11
16.7839
21
-96.9723
0
LINE
8
BLACK
6
CONTINUOUS
10
16.7839
20
-96.9723
11
17.2539
21
-96.9903
0
LINE
8
BLACK
6
CONTINUOUS
10
17.2539
20
-96.9903
11
17.2641
21
-96.986
0
LINE
8
BLACK
6
CONTINUOUS
10
17.2641
20
-96.986
11
51.7922
21
-96.986
0
LINE
8
BLACK
6
CONTINUOUS
10
51.7922
20
-96.986
11
51.7939
21
-96.9867
0
LINE
8
BLACK
6
CONTINUOUS
10
51.7939
20
-96.9867
11
51.7957
21
-96.9861
0
LINE
8
BLACK
6
CONTINUOUS
10
51.7957
20
-96.9861
11
69.0597
21
-98.1768
0
LINE
8
BLACK
6
CONTINUOUS
10
69.0597
20
-98.1768
11
69.0617
21
-98.1777
0
LINE
8
BLACK
6
CONTINUOUS
10
69.0617
20
-98.1777
11
69.0638
21
-98.1772
0
LINE
8
BLACK
6
CONTINUOUS
10
69.0638
20
-98.1772
11
88.7091
21
-101.154
0
LINE
8
BLACK
6
CONTINUOUS
10
88.7091
20
-101.154
11
88.7106
21
-101.155
0
LINE
8
BLACK
6
CONTINUOUS
10
88.7106
20
-101.155
11
88.7123
21
-101.154
0
LINE
8
BLACK
6
CONTINUOUS
10
88.7123
20
-101.154
11
121.449
21
-108.297
0
LINE
8
BLACK
6
CONTINUOUS
10
121.449
20
-108.297
11
157.156
21
-108.297
0
LINE
8
BLACK
6
CONTINUOUS
10
157.156
20
-108.297
11
189.893
21
-99.9641
0
LINE
8
BLACK
6
CONTINUOUS
10
189.893
20
-99.9641
11
189.895
21
-99.9645
0
LINE
8
BLACK
6
CONTINUOUS
10
189.895
20
-99.9645
11
189.897
21
-99.9631
0
LINE
8
BLACK
6
CONTINUOUS
10
189.897
20
-99.9631
11
209.543
21
-96.9866
0
LINE
8
BLACK
6
CONTINUOUS
10
209.543
20
-96.9866
11
209.545
21
-96.9871
0
LINE
8
BLACK
6
CONTINUOUS
10
209.545
20
-96.9871
11
209.547
21
-96.9861
0
LINE
8
BLACK
6
CONTINUOUS
10
209.547
20
-96.9861
11
227.406
21
-95.7955
0
LINE
8
BLACK
6
CONTINUOUS
10
227.406
20
-95.7955
11
227.408
21
-95.7961
0
LINE
8
BLACK
6
CONTINUOUS
10
227.408
20
-95.7961
11
227.41
21
-95.7954
0
LINE
8
BLACK
6
CONTINUOUS
10
227.41
20
-95.7954
11
258.961
21
-95.7954
0
LINE
8
BLACK
6
CONTINUOUS
10
258.961
20
-95.7954
11
258.971
21
-95.7996
0
LINE
8
BLACK
6
CONTINUOUS
10
258.971
20
-95.7996
11
259.447
21
-95.7818
0
LINE
8
BLACK
6
CONTINUOUS
10
259.447
20
-95.7818
11
259.93
21
-95.7273
0
LINE
8
BLACK
6
CONTINUOUS
10
259.93
20
-95.7273
11
260.408
21
-95.6369
0
LINE
8
BLACK
6
CONTINUOUS
10
260.408
20
-95.6369
11
260.878
21
-95.511
0
LINE
8
BLACK
6
CONTINUOUS
10
260.878
20
-95.511
11
261.337
21
-95.3504
0
LINE
8
BLACK
6
CONTINUOUS
10
261.337
20
-95.3504
11
261.783
21
-95.156
0
LINE
8
BLACK
6
CONTINUOUS
10
261.783
20
-95.156
11
262.213
21
-94.9287
0
LINE
8
BLACK
6
CONTINUOUS
10
262.213
20
-94.9287
11
262.624
21
-94.67
0
LINE
8
BLACK
6
CONTINUOUS
10
262.624
20
-94.67
11
263.016
21
-94.3812
0
LINE
8
BLACK
6
CONTINUOUS
10
263.016
20
-94.3812
11
263.384
21
-94.064
0
LINE
8
BLACK
6
CONTINUOUS
10
263.384
20
-94.064
11
263.728
21
-93.7201
0
LINE
8
BLACK
6
CONTINUOUS
10
263.728
20
-93.7201
11
264.045
21
-93.3515
0
LINE
8
BLACK
6
CONTINUOUS
10
264.045
20
-93.3515
11
264.334
21
-92.9602
0
LINE
8
BLACK
6
CONTINUOUS
10
264.334
20
-92.9602
11
264.593
21
-92.5485
0
LINE
8
BLACK
6
CONTINUOUS
10
264.593
20
-92.5485
11
264.82
21
-92.1185
0
LINE
8
BLACK
6
CONTINUOUS
10
264.82
20
-92.1185
11
265.015
21
-91.6728
0
LINE
8
BLACK
6
CONTINUOUS
10
265.015
20
-91.6728
11
265.175
21
-91.2137
0
LINE
8
BLACK
6
CONTINUOUS
10
265.175
20
-91.2137
11
265.301
21
-90.744
0
LINE
8
BLACK
6
CONTINUOUS
10
265.301
20
-90.744
11
265.392
21
-90.2662
0
LINE
8
BLACK
6
CONTINUOUS
10
265.392
20
-90.2662
11
265.446
21
-89.7829
0
LINE
8
BLACK
6
CONTINUOUS
10
265.446
20
-89.7829
11
265.464
21
-89.3072
0
LINE
8
BLACK
6
CONTINUOUS
10
265.464
20
-89.3072
11
265.46
21
-89.2974
0
LINE
8
BLACK
6
CONTINUOUS
10
265.46
20
-89.2974
11
264.864
21
-23.813
0
LINE
8
BLACK
6
CONTINUOUS
10
264.864
20
-23.813
11
264.864
21
-23.8127
0
LINE
8
BLACK
6
CONTINUOUS
10
264.864
20
-23.8127
11
264.864
21
-23.8125
0
LINE
8
BLACK
6
CONTINUOUS
10
264.864
20
-23.8125
11
264.868
21
-23.8024
0
LINE
8
BLACK
6
CONTINUOUS
10
264.868
20
-23.8024
11
264.851
21
-23.349
0
LINE
8
BLACK
6
CONTINUOUS
10
264.851
20
-23.349
11
264.796
21
-22.8884
0
LINE
8
BLACK
6
CONTINUOUS
10
264.796
20
-22.8884
11
264.706
21
-22.4334
0
LINE
8
BLACK
6
CONTINUOUS
10
264.706
20
-22.4334
11
264.58
21
-21.9869
0
LINE
8
BLACK
6
CONTINUOUS
10
264.58
20
-21.9869
11
264.419
21
-21.5517
0
LINE
8
BLACK
6
CONTINUOUS
10
264.419
20
-21.5517
11
264.225
21
-21.1305
0
LINE
8
BLACK
6
CONTINUOUS
10
264.225
20
-21.1305
11
263.998
21
-20.7258
0
LINE
8
BLACK
6
CONTINUOUS
10
263.998
20
-20.7258
11
263.741
21
-20.3401
0
LINE
8
BLACK
6
CONTINUOUS
10
263.741
20
-20.3401
11
263.453
21
-19.9758
0
LINE
8
BLACK
6
CONTINUOUS
10
263.453
20
-19.9758
11
263.139
21
-19.6351
0
LINE
8
BLACK
6
CONTINUOUS
10
263.139
20
-19.6351
11
262.798
21
-19.3203
0
LINE
8
BLACK
6
CONTINUOUS
10
262.798
20
-19.3203
11
262.434
21
-19.0331
0
LINE
8
BLACK
6
CONTINUOUS
10
262.434
20
-19.0331
11
262.048
21
-18.7754
0
LINE
8
BLACK
6
CONTINUOUS
10
262.048
20
-18.7754
11
261.643
21
-18.5487
0
LINE
8
BLACK
6
CONTINUOUS
10
261.643
20
-18.5487
11
261.222
21
-18.3545
0
LINE
8
BLACK
6
CONTINUOUS
10
261.222
20
-18.3545
11
260.787
21
-18.194
0
LINE
8
BLACK
6
CONTINUOUS
10
260.787
20
-18.194
11
260.34
21
-18.0681
0
LINE
8
BLACK
6
CONTINUOUS
10
260.34
20
-18.0681
11
259.885
21
-17.9776
0
LINE
8
BLACK
6
CONTINUOUS
10
259.885
20
-17.9776
11
259.425
21
-17.923
0
LINE
8
BLACK
6
CONTINUOUS
10
259.425
20
-17.923
11
258.971
21
-17.9052
0
LINE
8
BLACK
6
CONTINUOUS
10
258.971
20
-17.9052
11
258.961
21
-17.9094
0
LINE
8
BLACK
6
CONTINUOUS
10
258.961
20
-17.9094
11
225.03
21
-17.9094
0
LINE
8
BLACK
6
CONTINUOUS
10
225.03
20
-17.9094
11
205.982
21
-19.0999
0
LINE
8
BLACK
6
CONTINUOUS
10
14.5872
20
-90.3336
11
14.6489
21
-90.0146
0
LINE
8
BLACK
6
CONTINUOUS
10
14.6489
20
-90.0146
11
14.7485
21
-89.7052
0
LINE
8
BLACK
6
CONTINUOUS
10
14.7485
20
-89.7052
11
14.8846
21
-89.4101
0
LINE
8
BLACK
6
CONTINUOUS
10
14.8846
20
-89.4101
11
15.0551
21
-89.1335
0
LINE
8
BLACK
6
CONTINUOUS
10
15.0551
20
-89.1335
11
15.2576
21
-88.8794
0
LINE
8
BLACK
6
CONTINUOUS
10
15.2576
20
-88.8794
11
15.4892
21
-88.6514
0
LINE
8
BLACK
6
CONTINUOUS
10
15.4892
20
-88.6514
11
15.7465
21
-88.4529
0
LINE
8
BLACK
6
CONTINUOUS
10
15.7465
20
-88.4529
11
16.0257
21
-88.2868
0
LINE
8
BLACK
6
CONTINUOUS
10
16.0257
20
-88.2868
11
16.3229
21
-88.1554
0
LINE
8
BLACK
6
CONTINUOUS
10
16.3229
20
-88.1554
11
16.6338
21
-88.0606
0
LINE
8
BLACK
6
CONTINUOUS
10
16.6338
20
-88.0606
11
16.9537
21
-88.0039
0
LINE
8
BLACK
6
CONTINUOUS
10
16.9537
20
-88.0039
11
17.2782
21
-87.9861
0
LINE
8
BLACK
6
CONTINUOUS
10
17.2782
20
-87.9861
11
17.6025
21
-88.0073
0
LINE
8
BLACK
6
CONTINUOUS
10
17.6025
20
-88.0073
11
17.9218
21
-88.0674
0
LINE
8
BLACK
6
CONTINUOUS
10
17.9218
20
-88.0674
11
18.2317
21
-88.1654
0
LINE
8
BLACK
6
CONTINUOUS
10
18.2317
20
-88.1654
11
18.5275
21
-88.2999
0
LINE
8
BLACK
6
CONTINUOUS
10
18.5275
20
-88.2999
11
18.805
21
-88.4689
0
LINE
8
BLACK
6
CONTINUOUS
10
18.805
20
-88.4689
11
19.0602
21
-88.6701
0
LINE
8
BLACK
6
CONTINUOUS
10
19.0602
20
-88.6701
11
19.2894
21
-88.9005
0
LINE
8
BLACK
6
CONTINUOUS
10
19.2894
20
-88.9005
11
19.4892
21
-89.1567
0
LINE
8
BLACK
6
CONTINUOUS
10
19.4892
20
-89.1567
11
19.6568
21
-89.4351
0
LINE
8
BLACK
6
CONTINUOUS
10
19.6568
20
-89.4351
11
19.7898
21
-89.7316
0
LINE
8
BLACK
6
CONTINUOUS
10
19.7898
20
-89.7316
11
19.8861
21
-90.042
0
LINE
8
BLACK
6
CONTINUOUS
10
19.8861
20
-90.042
11
19.9445
21
-90.3617
0
LINE
8
BLACK
6
CONTINUOUS
10
19.9445
20
-90.3617
11
19.9641
21
-90.686
0
LINE
8
BLACK
6
CONTINUOUS
10
19.9641
20
-90.686
11
19.9635
21
-90.7426
0
LINE
8
BLACK
6
CONTINUOUS
10
19.9635
20
-90.7426
11
19.9371
21
-91.0665
0
LINE
8
BLACK
6
CONTINUOUS
10
19.9371
20
-91.0665
11
19.8721
21
-91.3848
0
LINE
8
BLACK
6
CONTINUOUS
10
19.8721
20
-91.3848
11
19.7692
21
-91.6931
0
LINE
8
BLACK
6
CONTINUOUS
10
19.7692
20
-91.6931
11
19.6301
21
-91.9868
0
LINE
8
BLACK
6
CONTINUOUS
10
19.6301
20
-91.9868
11
19.4567
21
-92.2616
0
LINE
8
BLACK
6
CONTINUOUS
10
19.4567
20
-92.2616
11
19.2515
21
-92.5136
0
LINE
8
BLACK
6
CONTINUOUS
10
19.2515
20
-92.5136
11
19.0176
21
-92.7391
0
LINE
8
BLACK
6
CONTINUOUS
10
19.0176
20
-92.7391
11
18.7582
21
-92.9349
0
LINE
8
BLACK
6
CONTINUOUS
10
18.7582
20
-92.9349
11
18.4772
21
-93.0981
0
LINE
8
BLACK
6
CONTINUOUS
10
18.4772
20
-93.0981
11
18.1787
21
-93.2264
0
LINE
8
BLACK
6
CONTINUOUS
10
18.1787
20
-93.2264
11
17.8669
21
-93.3179
0
LINE
8
BLACK
6
CONTINUOUS
10
17.8669
20
-93.3179
11
17.5463
21
-93.3712
0
LINE
8
BLACK
6
CONTINUOUS
10
17.5463
20
-93.3712
11
17.2217
21
-93.3857
0
LINE
8
BLACK
6
CONTINUOUS
10
17.2217
20
-93.3857
11
16.8976
21
-93.361
0
LINE
8
BLACK
6
CONTINUOUS
10
16.8976
20
-93.361
11
16.5789
21
-93.2976
0
LINE
8
BLACK
6
CONTINUOUS
10
16.5789
20
-93.2976
11
16.2701
21
-93.1964
0
LINE
8
BLACK
6
CONTINUOUS
10
16.2701
20
-93.1964
11
15.9758
21
-93.0588
0
LINE
8
BLACK
6
CONTINUOUS
10
15.9758
20
-93.0588
11
15.7
21
-92.8869
0
LINE
8
BLACK
6
CONTINUOUS
10
15.7
20
-92.8869
11
15.4469
21
-92.683
0
LINE
8
BLACK
6
CONTINUOUS
10
15.4469
20
-92.683
11
15.2202
21
-92.4503
0
LINE
8
BLACK
6
CONTINUOUS
10
15.2202
20
-92.4503
11
15.023
21
-92.1919
0
LINE
8
BLACK
6
CONTINUOUS
10
15.023
20
-92.1919
11
14.8584
21
-91.9118
0
LINE
8
BLACK
6
CONTINUOUS
10
14.8584
20
-91.9118
11
14.7285
21
-91.6139
0
LINE
8
BLACK
6
CONTINUOUS
10
14.7285
20
-91.6139
11
14.6354
21
-91.3026
0
LINE
8
BLACK
6
CONTINUOUS
10
14.6354
20
-91.3026
11
14.5804
21
-90.9823
0
LINE
8
BLACK
6
CONTINUOUS
10
14.5804
20
-90.9823
11
14.5643
21
-90.6587
0
LINE
8
BLACK
6
CONTINUOUS
10
14.5643
20
-90.6587
11
14.5642
21
-90.6577
0
LINE
8
BLACK
6
CONTINUOUS
10
14.5642
20
-90.6577
11
14.5872
21
-90.3336
0
LINE
8
BLACK
6
CONTINUOUS
10
14.7281
20
-91.2808
11
14.818
21
-91.5812
0
LINE
8
BLACK
6
CONTINUOUS
10
14.818
20
-91.5812
11
14.9432
21
-91.8686
0
LINE
8
BLACK
6
CONTINUOUS
10
14.9432
20
-91.8686
11
15.1021
21
-92.1388
0
LINE
8
BLACK
6
CONTINUOUS
10
15.1021
20
-92.1388
11
15.2923
21
-92.388
0
LINE
8
BLACK
6
CONTINUOUS
10
15.2923
20
-92.388
11
15.511
21
-92.6126
0
LINE
8
BLACK
6
CONTINUOUS
10
15.511
20
-92.6126
11
15.7552
21
-92.8092
0
LINE
8
BLACK
6
CONTINUOUS
10
15.7552
20
-92.8092
11
16.0212
21
-92.9751
0
LINE
8
BLACK
6
CONTINUOUS
10
16.0212
20
-92.9751
11
16.3052
21
-93.1079
0
LINE
8
BLACK
6
CONTINUOUS
10
16.3052
20
-93.1079
11
16.6031
21
-93.2055
0
LINE
8
BLACK
6
CONTINUOUS
10
16.6031
20
-93.2055
11
16.9106
21
-93.2667
0
LINE
8
BLACK
6
CONTINUOUS
10
16.9106
20
-93.2667
11
17.2232
21
-93.2905
0
LINE
8
BLACK
6
CONTINUOUS
10
17.2232
20
-93.2905
11
17.5364
21
-93.2765
0
LINE
8
BLACK
6
CONTINUOUS
10
17.5364
20
-93.2765
11
17.8456
21
-93.225
0
LINE
8
BLACK
6
CONTINUOUS
10
17.8456
20
-93.225
11
18.1464
21
-93.1368
0
LINE
8
BLACK
6
CONTINUOUS
10
18.1464
20
-93.1368
11
18.4344
21
-93.013
0
LINE
8
BLACK
6
CONTINUOUS
10
18.4344
20
-93.013
11
18.7055
21
-92.8556
0
LINE
8
BLACK
6
CONTINUOUS
10
18.7055
20
-92.8556
11
18.9557
21
-92.6667
0
LINE
8
BLACK
6
CONTINUOUS
10
18.9557
20
-92.6667
11
19.1814
21
-92.4491
0
LINE
8
BLACK
6
CONTINUOUS
10
19.1814
20
-92.4491
11
19.3794
21
-92.206
0
LINE
8
BLACK
6
CONTINUOUS
10
19.3794
20
-92.206
11
19.5466
21
-91.9409
0
LINE
8
BLACK
6
CONTINUOUS
10
19.5466
20
-91.9409
11
19.6809
21
-91.6576
0
LINE
8
BLACK
6
CONTINUOUS
10
19.6809
20
-91.6576
11
19.7801
21
-91.3602
0
LINE
8
BLACK
6
CONTINUOUS
10
19.7801
20
-91.3602
11
19.8428
21
-91.053
0
LINE
8
BLACK
6
CONTINUOUS
10
19.8428
20
-91.053
11
19.8683
21
-90.7406
0
LINE
8
BLACK
6
CONTINUOUS
10
19.8683
20
-90.7406
11
19.8688
21
-90.686
0
LINE
8
BLACK
6
CONTINUOUS
10
19.8688
20
-90.686
11
19.85
21
-90.3731
0
LINE
8
BLACK
6
CONTINUOUS
10
19.85
20
-90.3731
11
19.7936
21
-90.0647
0
LINE
8
BLACK
6
CONTINUOUS
10
19.7936
20
-90.0647
11
19.7007
21
-89.7653
0
LINE
8
BLACK
6
CONTINUOUS
10
19.7007
20
-89.7653
11
19.5724
21
-89.4792
0
LINE
8
BLACK
6
CONTINUOUS
10
19.5724
20
-89.4792
11
19.4107
21
-89.2107
0
LINE
8
BLACK
6
CONTINUOUS
10
19.4107
20
-89.2107
11
19.2179
21
-88.9635
0
LINE
8
BLACK
6
CONTINUOUS
10
19.2179
20
-88.9635
11
18.9968
21
-88.7412
0
LINE
8
BLACK
6
CONTINUOUS
10
18.9968
20
-88.7412
11
18.7506
21
-88.5471
0
LINE
8
BLACK
6
CONTINUOUS
10
18.7506
20
-88.5471
11
18.4829
21
-88.384
0
LINE
8
BLACK
6
CONTINUOUS
10
18.4829
20
-88.384
11
18.1975
21
-88.2543
0
LINE
8
BLACK
6
CONTINUOUS
10
18.1975
20
-88.2543
11
17.8986
21
-88.1597
0
LINE
8
BLACK
6
CONTINUOUS
10
17.8986
20
-88.1597
11
17.5905
21
-88.1018
0
LINE
8
BLACK
6
CONTINUOUS
10
17.5905
20
-88.1018
11
17.2777
21
-88.0813
0
LINE
8
BLACK
6
CONTINUOUS
10
17.2777
20
-88.0813
11
16.9647
21
-88.0985
0
LINE
8
BLACK
6
CONTINUOUS
10
16.9647
20
-88.0985
11
16.656
21
-88.1532
0
LINE
8
BLACK
6
CONTINUOUS
10
16.656
20
-88.1532
11
16.3561
21
-88.2446
0
LINE
8
BLACK
6
CONTINUOUS
10
16.3561
20
-88.2446
11
16.0694
21
-88.3714
0
LINE
8
BLACK
6
CONTINUOUS
10
16.0694
20
-88.3714
11
15.8
21
-88.5317
0
LINE
8
BLACK
6
CONTINUOUS
10
15.8
20
-88.5317
11
15.5518
21
-88.7232
0
LINE
8
BLACK
6
CONTINUOUS
10
15.5518
20
-88.7232
11
15.3284
21
-88.9431
0
LINE
8
BLACK
6
CONTINUOUS
10
15.3284
20
-88.9431
11
15.133
21
-89.1883
0
LINE
8
BLACK
6
CONTINUOUS
10
15.133
20
-89.1883
11
14.9685
21
-89.4551
0
LINE
8
BLACK
6
CONTINUOUS
10
14.9685
20
-89.4551
11
14.8373
21
-89.7398
0
LINE
8
BLACK
6
CONTINUOUS
10
14.8373
20
-89.7398
11
14.7412
21
-90.0382
0
LINE
8
BLACK
6
CONTINUOUS
10
14.7412
20
-90.0382
11
14.6816
21
-90.346
0
LINE
8
BLACK
6
CONTINUOUS
10
14.6816
20
-90.346
11
14.6595
21
-90.6587
0
LINE
8
BLACK
6
CONTINUOUS
10
14.6595
20
-90.6587
11
14.6751
21
-90.9719
0
LINE
8
BLACK
6
CONTINUOUS
10
14.6751
20
-90.9719
11
14.7281
21
-91.2808
0
LINE
8
BLACK
6
CONTINUOUS
10
256.482
20
-89.1425
11
256.544
21
-88.8235
0
LINE
8
BLACK
6
CONTINUOUS
10
256.544
20
-88.8235
11
256.644
21
-88.5142
0
LINE
8
BLACK
6
CONTINUOUS
10
256.644
20
-88.5142
11
256.78
21
-88.2191
0
LINE
8
BLACK
6
CONTINUOUS
10
256.78
20
-88.2191
11
256.95
21
-87.9424
0
LINE
8
BLACK
6
CONTINUOUS
10
256.95
20
-87.9424
11
257.153
21
-87.6883
0
LINE
8
BLACK
6
CONTINUOUS
10
257.153
20
-87.6883
11
257.384
21
-87.4603
0
LINE
8
BLACK
6
CONTINUOUS
10
257.384
20
-87.4603
11
257.642
21
-87.2618
0
LINE
8
BLACK
6
CONTINUOUS
10
257.642
20
-87.2618
11
257.921
21
-87.0957
0
LINE
8
BLACK
6
CONTINUOUS
10
257.921
20
-87.0957
11
258.218
21
-86.9643
0
LINE
8
BLACK
6
CONTINUOUS
10
258.218
20
-86.9643
11
258.529
21
-86.8696
0
LINE
8
BLACK
6
CONTINUOUS
10
258.529
20
-86.8696
11
258.849
21
-86.8128
0
LINE
8
BLACK
6
CONTINUOUS
10
258.849
20
-86.8128
11
259.173
21
-86.795
0
LINE
8
BLACK
6
CONTINUOUS
10
259.173
20
-86.795
11
259.498
21
-86.8162
0
LINE
8
BLACK
6
CONTINUOUS
10
259.498
20
-86.8162
11
259.817
21
-86.8763
0
LINE
8
BLACK
6
CONTINUOUS
10
259.817
20
-86.8763
11
260.127
21
-86.9743
0
LINE
8
BLACK
6
CONTINUOUS
10
260.127
20
-86.9743
11
260.423
21
-87.1088
0
LINE
8
BLACK
6
CONTINUOUS
10
260.423
20
-87.1088
11
260.7
21
-87.2778
0
LINE
8
BLACK
6
CONTINUOUS
10
260.7
20
-87.2778
11
260.955
21
-87.479
0
LINE
8
BLACK
6
CONTINUOUS
10
260.955
20
-87.479
11
261.184
21
-87.7094
0
LINE
8
BLACK
6
CONTINUOUS
10
261.184
20
-87.7094
11
261.384
21
-87.9657
0
LINE
8
BLACK
6
CONTINUOUS
10
261.384
20
-87.9657
11
261.552
21
-88.2441
0
LINE
8
BLACK
6
CONTINUOUS
10
261.552
20
-88.2441
11
261.685
21
-88.5406
0
LINE
8
BLACK
6
CONTINUOUS
10
261.685
20
-88.5406
11
261.781
21
-88.8509
0
LINE
8
BLACK
6
CONTINUOUS
10
261.781
20
-88.8509
11
261.84
21
-89.1706
0
LINE
8
BLACK
6
CONTINUOUS
10
261.84
20
-89.1706
11
261.859
21
-89.495
0
LINE
8
BLACK
6
CONTINUOUS
10
261.859
20
-89.495
11
261.859
21
-89.5515
0
LINE
8
BLACK
6
CONTINUOUS
10
261.859
20
-89.5515
11
261.832
21
-89.8754
0
LINE
8
BLACK
6
CONTINUOUS
10
261.832
20
-89.8754
11
261.767
21
-90.1938
0
LINE
8
BLACK
6
CONTINUOUS
10
261.767
20
-90.1938
11
261.664
21
-90.502
0
LINE
8
BLACK
6
CONTINUOUS
10
261.664
20
-90.502
11
261.525
21
-90.7957
0
LINE
8
BLACK
6
CONTINUOUS
10
261.525
20
-90.7957
11
261.352
21
-91.0705
0
LINE
8
BLACK
6
CONTINUOUS
10
261.352
20
-91.0705
11
261.147
21
-91.3225
0
LINE
8
BLACK
6
CONTINUOUS
10
261.147
20
-91.3225
11
260.913
21
-91.548
0
LINE
8
BLACK
6
CONTINUOUS
10
260.913
20
-91.548
11
260.653
21
-91.7438
0
LINE
8
BLACK
6
CONTINUOUS
10
260.653
20
-91.7438
11
260.372
21
-91.9071
0
LINE
8
BLACK
6
CONTINUOUS
10
260.372
20
-91.9071
11
260.074
21
-92.0353
0
LINE
8
BLACK
6
CONTINUOUS
10
260.074
20
-92.0353
11
259.762
21
-92.1268
0
LINE
8
BLACK
6
CONTINUOUS
10
259.762
20
-92.1268
11
259.441
21
-92.1802
0
LINE
8
BLACK
6
CONTINUOUS
10
259.441
20
-92.1802
11
259.117
21
-92.1946
0
LINE
8
BLACK
6
CONTINUOUS
10
259.117
20
-92.1946
11
258.793
21
-92.17
0
LINE
8
BLACK
6
CONTINUOUS
10
258.793
20
-92.17
11
258.474
21
-92.1066
0
LINE
8
BLACK
6
CONTINUOUS
10
258.474
20
-92.1066
11
258.165
21
-92.0053
0
LINE
8
BLACK
6
CONTINUOUS
10
258.165
20
-92.0053
11
257.871
21
-91.8678
0
LINE
8
BLACK
6
CONTINUOUS
10
257.871
20
-91.8678
11
257.595
21
-91.6958
0
LINE
8
BLACK
6
CONTINUOUS
10
257.595
20
-91.6958
11
257.342
21
-91.492
0
LINE
8
BLACK
6
CONTINUOUS
10
257.342
20
-91.492
11
257.115
21
-91.2592
0
LINE
8
BLACK
6
CONTINUOUS
10
257.115
20
-91.2592
11
256.918
21
-91.0009
0
LINE
8
BLACK
6
CONTINUOUS
10
256.918
20
-91.0009
11
256.753
21
-90.7207
0
LINE
8
BLACK
6
CONTINUOUS
10
256.753
20
-90.7207
11
256.624
21
-90.4228
0
LINE
8
BLACK
6
CONTINUOUS
10
256.624
20
-90.4228
11
256.53
21
-90.1115
0
LINE
8
BLACK
6
CONTINUOUS
10
256.53
20
-90.1115
11
256.475
21
-89.7912
0
LINE
8
BLACK
6
CONTINUOUS
10
256.475
20
-89.7912
11
256.459
21
-89.4677
0
LINE
8
BLACK
6
CONTINUOUS
10
256.459
20
-89.4677
11
256.459
21
-89.4667
0
LINE
8
BLACK
6
CONTINUOUS
10
256.459
20
-89.4667
11
256.482
21
-89.1425
0
LINE
8
BLACK
6
CONTINUOUS
10
256.623
20
-90.0897
11
256.713
21
-90.3901
0
LINE
8
BLACK
6
CONTINUOUS
10
256.713
20
-90.3901
11
256.838
21
-90.6775
0
LINE
8
BLACK
6
CONTINUOUS
10
256.838
20
-90.6775
11
256.997
21
-90.9477
0
LINE
8
BLACK
6
CONTINUOUS
10
256.997
20
-90.9477
11
257.187
21
-91.1969
0
LINE
8
BLACK
6
CONTINUOUS
10
257.187
20
-91.1969
11
257.406
21
-91.4215
0
LINE
8
BLACK
6
CONTINUOUS
10
257.406
20
-91.4215
11
257.65
21
-91.6182
0
LINE
8
BLACK
6
CONTINUOUS
10
257.65
20
-91.6182
11
257.916
21
-91.7841
0
LINE
8
BLACK
6
CONTINUOUS
10
257.916
20
-91.7841
11
258.2
21
-91.9168
0
LINE
8
BLACK
6
CONTINUOUS
10
258.2
20
-91.9168
11
258.498
21
-92.0144
0
LINE
8
BLACK
6
CONTINUOUS
10
258.498
20
-92.0144
11
258.806
21
-92.0756
0
LINE
8
BLACK
6
CONTINUOUS
10
258.806
20
-92.0756
11
259.118
21
-92.0994
0
LINE
8
BLACK
6
CONTINUOUS
10
259.118
20
-92.0994
11
259.431
21
-92.0854
0
LINE
8
BLACK
6
CONTINUOUS
10
259.431
20
-92.0854
11
259.741
21
-92.034
0
LINE
8
BLACK
6
CONTINUOUS
10
259.741
20
-92.034
11
260.041
21
-91.9457
0
LINE
8
BLACK
6
CONTINUOUS
10
260.041
20
-91.9457
11
260.33
21
-91.822
0
LINE
8
BLACK
6
CONTINUOUS
10
260.33
20
-91.822
11
260.601
21
-91.6645
0
LINE
8
BLACK
6
CONTINUOUS
10
260.601
20
-91.6645
11
260.851
21
-91.4756
0
LINE
8
BLACK
6
CONTINUOUS
10
260.851
20
-91.4756
11
261.077
21
-91.258
0
LINE
8
BLACK
6
CONTINUOUS
10
261.077
20
-91.258
11
261.274
21
-91.0149
0
LINE
8
BLACK
6
CONTINUOUS
10
261.274
20
-91.0149
11
261.442
21
-90.7498
0
LINE
8
BLACK
6
CONTINUOUS
10
261.442
20
-90.7498
11
261.576
21
-90.4665
0
LINE
8
BLACK
6
CONTINUOUS
10
261.576
20
-90.4665
11
261.675
21
-90.1691
0
LINE
8
BLACK
6
CONTINUOUS
10
261.675
20
-90.1691
11
261.738
21
-89.862
0
LINE
8
BLACK
6
CONTINUOUS
10
261.738
20
-89.862
11
261.763
21
-89.5495
0
LINE
8
BLACK
6
CONTINUOUS
10
261.763
20
-89.5495
11
261.764
21
-89.495
0
LINE
8
BLACK
6
CONTINUOUS
10
261.764
20
-89.495
11
261.745
21
-89.182
0
LINE
8
BLACK
6
CONTINUOUS
10
261.745
20
-89.182
11
261.689
21
-88.8736
0
LINE
8
BLACK
6
CONTINUOUS
10
261.689
20
-88.8736
11
261.596
21
-88.5742
0
LINE
8
BLACK
6
CONTINUOUS
10
261.596
20
-88.5742
11
261.467
21
-88.2882
0
LINE
8
BLACK
6
CONTINUOUS
10
261.467
20
-88.2882
11
261.306
21
-88.0196
0
LINE
8
BLACK
6
CONTINUOUS
10
261.306
20
-88.0196
11
261.113
21
-87.7724
0
LINE
8
BLACK
6
CONTINUOUS
10
261.113
20
-87.7724
11
260.892
21
-87.5501
0
LINE
8
BLACK
6
CONTINUOUS
10
260.892
20
-87.5501
11
260.646
21
-87.3561
0
LINE
8
BLACK
6
CONTINUOUS
10
260.646
20
-87.3561
11
260.378
21
-87.193
0
LINE
8
BLACK
6
CONTINUOUS
10
260.378
20
-87.193
11
260.093
21
-87.0632
0
LINE
8
BLACK
6
CONTINUOUS
10
260.093
20
-87.0632
11
259.794
21
-86.9687
0
LINE
8
BLACK
6
CONTINUOUS
10
259.794
20
-86.9687
11
259.486
21
-86.9107
0
LINE
8
BLACK
6
CONTINUOUS
10
259.486
20
-86.9107
11
259.173
21
-86.8902
0
LINE
8
BLACK
6
CONTINUOUS
10
259.173
20
-86.8902
11
258.86
21
-86.9075
0
LINE
8
BLACK
6
CONTINUOUS
10
258.86
20
-86.9075
11
258.551
21
-86.9622
0
LINE
8
BLACK
6
CONTINUOUS
10
258.551
20
-86.9622
11
258.251
21
-87.0536
0
LINE
8
BLACK
6
CONTINUOUS
10
258.251
20
-87.0536
11
257.964
21
-87.1803
0
LINE
8
BLACK
6
CONTINUOUS
10
257.964
20
-87.1803
11
257.695
21
-87.3406
0
LINE
8
BLACK
6
CONTINUOUS
10
257.695
20
-87.3406
11
257.447
21
-87.5321
0
LINE
8
BLACK
6
CONTINUOUS
10
257.447
20
-87.5321
11
257.223
21
-87.752
0
LINE
8
BLACK
6
CONTINUOUS
10
257.223
20
-87.752
11
257.028
21
-87.9972
0
LINE
8
BLACK
6
CONTINUOUS
10
257.028
20
-87.9972
11
256.864
21
-88.2641
0
LINE
8
BLACK
6
CONTINUOUS
10
256.864
20
-88.2641
11
256.732
21
-88.5488
0
LINE
8
BLACK
6
CONTINUOUS
10
256.732
20
-88.5488
11
256.636
21
-88.8472
0
LINE
8
BLACK
6
CONTINUOUS
10
256.636
20
-88.8472
11
256.577
21
-89.155
0
LINE
8
BLACK
6
CONTINUOUS
10
256.577
20
-89.155
11
256.555
21
-89.4677
0
LINE
8
BLACK
6
CONTINUOUS
10
256.555
20
-89.4677
11
256.57
21
-89.7808
0
LINE
8
BLACK
6
CONTINUOUS
10
256.57
20
-89.7808
11
256.623
21
-90.0897
0
LINE
8
BLACK
6
CONTINUOUS
10
136.626
20
-77.0383
11
136.688
21
-76.7192
0
LINE
8
BLACK
6
CONTINUOUS
10
136.688
20
-76.7192
11
136.788
21
-76.4099
0
LINE
8
BLACK
6
CONTINUOUS
10
136.788
20
-76.4099
11
136.924
21
-76.1148
0
LINE
8
BLACK
6
CONTINUOUS
10
136.924
20
-76.1148
11
137.094
21
-75.8382
0
LINE
8
BLACK
6
CONTINUOUS
10
137.094
20
-75.8382
11
137.297
21
-75.584
0
LINE
8
BLACK
6
CONTINUOUS
10
137.297
20
-75.584
11
137.528
21
-75.3561
0
LINE
8
BLACK
6
CONTINUOUS
10
137.528
20
-75.3561
11
137.786
21
-75.1576
0
LINE
8
BLACK
6
CONTINUOUS
10
137.786
20
-75.1576
11
138.065
21
-74.9914
0
LINE
8
BLACK
6
CONTINUOUS
10
138.065
20
-74.9914
11
138.362
21
-74.86
0
LINE
8
BLACK
6
CONTINUOUS
10
138.362
20
-74.86
11
138.673
21
-74.7653
0
LINE
8
BLACK
6
CONTINUOUS
10
138.673
20
-74.7653
11
138.993
21
-74.7086
0
LINE
8
BLACK
6
CONTINUOUS
10
138.993
20
-74.7086
11
139.317
21
-74.6907
0
LINE
8
BLACK
6
CONTINUOUS
10
139.317
20
-74.6907
11
139.642
21
-74.712
0
LINE
8
BLACK
6
CONTINUOUS
10
139.642
20
-74.712
11
139.961
21
-74.772
0
LINE
8
BLACK
6
CONTINUOUS
10
139.961
20
-74.772
11
140.271
21
-74.87
0
LINE
8
BLACK
6
CONTINUOUS
10
140.271
20
-74.87
11
140.567
21
-75.0045
0
LINE
8
BLACK
6
CONTINUOUS
10
140.567
20
-75.0045
11
140.844
21
-75.1736
0
LINE
8
BLACK
6
CONTINUOUS
10
140.844
20
-75.1736
11
141.099
21
-75.3748
0
LINE
8
BLACK
6
CONTINUOUS
10
141.099
20
-75.3748
11
141.329
21
-75.6051
0
LINE
8
BLACK
6
CONTINUOUS
10
141.329
20
-75.6051
11
141.528
21
-75.8614
0
LINE
8
BLACK
6
CONTINUOUS
10
141.528
20
-75.8614
11
141.696
21
-76.1398
0
LINE
8
BLACK
6
CONTINUOUS
10
141.696
20
-76.1398
11
141.829
21
-76.4363
0
LINE
8
BLACK
6
CONTINUOUS
10
141.829
20
-76.4363
11
141.925
21
-76.7467
0
LINE
8
BLACK
6
CONTINUOUS
10
141.925
20
-76.7467
11
141.984
21
-77.0663
0
LINE
8
BLACK
6
CONTINUOUS
10
141.984
20
-77.0663
11
142.003
21
-77.3907
0
LINE
8
BLACK
6
CONTINUOUS
10
142.003
20
-77.3907
11
142.003
21
-77.4472
0
LINE
8
BLACK
6
CONTINUOUS
10
142.003
20
-77.4472
11
141.976
21
-77.7711
0
LINE
8
BLACK
6
CONTINUOUS
10
141.976
20
-77.7711
11
141.911
21
-78.0895
0
LINE
8
BLACK
6
CONTINUOUS
10
141.911
20
-78.0895
11
141.808
21
-78.3978
0
LINE
8
BLACK
6
CONTINUOUS
10
141.808
20
-78.3978
11
141.669
21
-78.6914
0
LINE
8
BLACK
6
CONTINUOUS
10
141.669
20
-78.6914
11
141.496
21
-78.9663
0
LINE
8
BLACK
6
CONTINUOUS
10
141.496
20
-78.9663
11
141.291
21
-79.2183
0
LINE
8
BLACK
6
CONTINUOUS
10
141.291
20
-79.2183
11
141.057
21
-79.4438
0
LINE
8
BLACK
6
CONTINUOUS
10
141.057
20
-79.4438
11
140.797
21
-79.6396
0
LINE
8
BLACK
6
CONTINUOUS
10
140.797
20
-79.6396
11
140.516
21
-79.8028
0
LINE
8
BLACK
6
CONTINUOUS
10
140.516
20
-79.8028
11
140.218
21
-79.9311
0
LINE
8
BLACK
6
CONTINUOUS
10
140.218
20
-79.9311
11
139.906
21
-80.0225
0
LINE
8
BLACK
6
CONTINUOUS
10
139.906
20
-80.0225
11
139.585
21
-80.0759
0
LINE
8
BLACK
6
CONTINUOUS
10
139.585
20
-80.0759
11
139.261
21
-80.0904
0
LINE
8
BLACK
6
CONTINUOUS
10
139.261
20
-80.0904
11
138.937
21
-80.0657
0
LINE
8
BLACK
6
CONTINUOUS
10
138.937
20
-80.0657
11
138.618
21
-80.0023
0
LINE
8
BLACK
6
CONTINUOUS
10
138.618
20
-80.0023
11
138.309
21
-79.9011
0
LINE
8
BLACK
6
CONTINUOUS
10
138.309
20
-79.9011
11
138.015
21
-79.7635
0
LINE
8
BLACK
6
CONTINUOUS
10
138.015
20
-79.7635
11
137.739
21
-79.5915
0
LINE
8
BLACK
6
CONTINUOUS
10
137.739
20
-79.5915
11
137.486
21
-79.3877
0
LINE
8
BLACK
6
CONTINUOUS
10
137.486
20
-79.3877
11
137.259
21
-79.1549
0
LINE
8
BLACK
6
CONTINUOUS
10
137.259
20
-79.1549
11
137.062
21
-78.8966
0
LINE
8
BLACK
6
CONTINUOUS
10
137.062
20
-78.8966
11
136.898
21
-78.6165
0
LINE
8
BLACK
6
CONTINUOUS
10
136.898
20
-78.6165
11
136.768
21
-78.3186
0
LINE
8
BLACK
6
CONTINUOUS
10
136.768
20
-78.3186
11
136.675
21
-78.0072
0
LINE
8
BLACK
6
CONTINUOUS
10
136.675
20
-78.0072
11
136.62
21
-77.687
0
LINE
8
BLACK
6
CONTINUOUS
10
136.62
20
-77.687
11
136.603
21
-77.3634
0
LINE
8
BLACK
6
CONTINUOUS
10
136.603
20
-77.3634
11
136.603
21
-77.3624
0
LINE
8
BLACK
6
CONTINUOUS
10
136.603
20
-77.3624
11
136.626
21
-77.0383
0
LINE
8
BLACK
6
CONTINUOUS
10
136.767
20
-77.9855
11
136.857
21
-78.2858
0
LINE
8
BLACK
6
CONTINUOUS
10
136.857
20
-78.2858
11
136.982
21
-78.5732
0
LINE
8
BLACK
6
CONTINUOUS
10
136.982
20
-78.5732
11
137.141
21
-78.8435
0
LINE
8
BLACK
6
CONTINUOUS
10
137.141
20
-78.8435
11
137.331
21
-79.0927
0
LINE
8
BLACK
6
CONTINUOUS
10
137.331
20
-79.0927
11
137.55
21
-79.3172
0
LINE
8
BLACK
6
CONTINUOUS
10
137.55
20
-79.3172
11
137.794
21
-79.5139
0
LINE
8
BLACK
6
CONTINUOUS
10
137.794
20
-79.5139
11
138.06
21
-79.6798
0
LINE
8
BLACK
6
CONTINUOUS
10
138.06
20
-79.6798
11
138.344
21
-79.8125
0
LINE
8
BLACK
6
CONTINUOUS
10
138.344
20
-79.8125
11
138.642
21
-79.9102
0
LINE
8
BLACK
6
CONTINUOUS
10
138.642
20
-79.9102
11
138.95
21
-79.9713
0
LINE
8
BLACK
6
CONTINUOUS
10
138.95
20
-79.9713
11
139.262
21
-79.9951
0
LINE
8
BLACK
6
CONTINUOUS
10
139.262
20
-79.9951
11
139.576
21
-79.9812
0
LINE
8
BLACK
6
CONTINUOUS
10
139.576
20
-79.9812
11
139.885
21
-79.9297
0
LINE
8
BLACK
6
CONTINUOUS
10
139.885
20
-79.9297
11
140.186
21
-79.8415
0
LINE
8
BLACK
6
CONTINUOUS
10
140.186
20
-79.8415
11
140.474
21
-79.7177
0
LINE
8
BLACK
6
CONTINUOUS
10
140.474
20
-79.7177
11
140.745
21
-79.5602
0
LINE
8
BLACK
6
CONTINUOUS
10
140.745
20
-79.5602
11
140.995
21
-79.3714
0
LINE
8
BLACK
6
CONTINUOUS
10
140.995
20
-79.3714
11
141.221
21
-79.1538
0
LINE
8
BLACK
6
CONTINUOUS
10
141.221
20
-79.1538
11
141.419
21
-78.9107
0
LINE
8
BLACK
6
CONTINUOUS
10
141.419
20
-78.9107
11
141.586
21
-78.6455
0
LINE
8
BLACK
6
CONTINUOUS
10
141.586
20
-78.6455
11
141.72
21
-78.3622
0
LINE
8
BLACK
6
CONTINUOUS
10
141.72
20
-78.3622
11
141.819
21
-78.0648
0
LINE
8
BLACK
6
CONTINUOUS
10
141.819
20
-78.0648
11
141.882
21
-77.7577
0
LINE
8
BLACK
6
CONTINUOUS
10
141.882
20
-77.7577
11
141.907
21
-77.4452
0
LINE
8
BLACK
6
CONTINUOUS
10
141.907
20
-77.4452
11
141.908
21
-77.3907
0
LINE
8
BLACK
6
CONTINUOUS
10
141.908
20
-77.3907
11
141.889
21
-77.0778
0
LINE
8
BLACK
6
CONTINUOUS
10
141.889
20
-77.0778
11
141.833
21
-76.7694
0
LINE
8
BLACK
6
CONTINUOUS
10
141.833
20
-76.7694
11
141.74
21
-76.47
0
LINE
8
BLACK
6
CONTINUOUS
10
141.74
20
-76.47
11
141.612
21
-76.1839
0
LINE
8
BLACK
6
CONTINUOUS
10
141.612
20
-76.1839
11
141.45
21
-75.9153
0
LINE
8
BLACK
6
CONTINUOUS
10
141.45
20
-75.9153
11
141.257
21
-75.6681
0
LINE
8
BLACK
6
CONTINUOUS
10
141.257
20
-75.6681
11
141.036
21
-75.4459
0
LINE
8
BLACK
6
CONTINUOUS
10
141.036
20
-75.4459
11
140.79
21
-75.2518
0
LINE
8
BLACK
6
CONTINUOUS
10
140.79
20
-75.2518
11
140.522
21
-75.0887
0
LINE
8
BLACK
6
CONTINUOUS
10
140.522
20
-75.0887
11
140.237
21
-74.9589
0
LINE
8
BLACK
6
CONTINUOUS
10
140.237
20
-74.9589
11
139.938
21
-74.8644
0
LINE
8
BLACK
6
CONTINUOUS
10
139.938
20
-74.8644
11
139.63
21
-74.8065
0
LINE
8
BLACK
6
CONTINUOUS
10
139.63
20
-74.8065
11
139.317
21
-74.786
0
LINE
8
BLACK
6
CONTINUOUS
10
139.317
20
-74.786
11
139.004
21
-74.8032
0
LINE
8
BLACK
6
CONTINUOUS
10
139.004
20
-74.8032
11
138.695
21
-74.8579
0
LINE
8
BLACK
6
CONTINUOUS
10
138.695
20
-74.8579
11
138.395
21
-74.9493
0
LINE
8
BLACK
6
CONTINUOUS
10
138.395
20
-74.9493
11
138.109
21
-75.0761
0
LINE
8
BLACK
6
CONTINUOUS
10
138.109
20
-75.0761
11
137.839
21
-75.2364
0
LINE
8
BLACK
6
CONTINUOUS
10
137.839
20
-75.2364
11
137.591
21
-75.4278
0
LINE
8
BLACK
6
CONTINUOUS
10
137.591
20
-75.4278
11
137.368
21
-75.6478
0
LINE
8
BLACK
6
CONTINUOUS
10
137.368
20
-75.6478
11
137.172
21
-75.8929
0
LINE
8
BLACK
6
CONTINUOUS
10
137.172
20
-75.8929
11
137.008
21
-76.1598
0
LINE
8
BLACK
6
CONTINUOUS
10
137.008
20
-76.1598
11
136.876
21
-76.4445
0
LINE
8
BLACK
6
CONTINUOUS
10
136.876
20
-76.4445
11
136.78
21
-76.7429
0
LINE
8
BLACK
6
CONTINUOUS
10
136.78
20
-76.7429
11
136.721
21
-77.0507
0
LINE
8
BLACK
6
CONTINUOUS
10
136.721
20
-77.0507
11
136.699
21
-77.3634
0
LINE
8
BLACK
6
CONTINUOUS
10
136.699
20
-77.3634
11
136.714
21
-77.6765
0
LINE
8
BLACK
6
CONTINUOUS
10
136.714
20
-77.6765
11
136.767
21
-77.9855
0
LINE
8
BLACK
6
CONTINUOUS
10
255.887
20
-23.8571
11
255.949
21
-23.5381
0
LINE
8
BLACK
6
CONTINUOUS
10
255.949
20
-23.5381
11
256.049
21
-23.2287
0
LINE
8
BLACK
6
CONTINUOUS
10
256.049
20
-23.2287
11
256.185
21
-22.9336
0
LINE
8
BLACK
6
CONTINUOUS
10
256.185
20
-22.9336
11
256.355
21
-22.657
0
LINE
8
BLACK
6
CONTINUOUS
10
256.355
20
-22.657
11
256.558
21
-22.4029
0
LINE
8
BLACK
6
CONTINUOUS
10
256.558
20
-22.4029
11
256.789
21
-22.1749
0
LINE
8
BLACK
6
CONTINUOUS
10
256.789
20
-22.1749
11
257.047
21
-21.9764
0
LINE
8
BLACK
6
CONTINUOUS
10
257.047
20
-21.9764
11
257.326
21
-21.8103
0
LINE
8
BLACK
6
CONTINUOUS
10
257.326
20
-21.8103
11
257.623
21
-21.6789
0
LINE
8
BLACK
6
CONTINUOUS
10
257.623
20
-21.6789
11
257.934
21
-21.5841
0
LINE
8
BLACK
6
CONTINUOUS
10
257.934
20
-21.5841
11
258.254
21
-21.5274
0
LINE
8
BLACK
6
CONTINUOUS
10
258.254
20
-21.5274
11
258.578
21
-21.5096
0
LINE
8
BLACK
6
CONTINUOUS
10
258.578
20
-21.5096
11
258.903
21
-21.5308
0
LINE
8
BLACK
6
CONTINUOUS
10
258.903
20
-21.5308
11
259.222
21
-21.5909
0
LINE
8
BLACK
6
CONTINUOUS
10
259.222
20
-21.5909
11
259.532
21
-21.6889
0
LINE
8
BLACK
6
CONTINUOUS
10
259.532
20
-21.6889
11
259.828
21
-21.8234
0
LINE
8
BLACK
6
CONTINUOUS
10
259.828
20
-21.8234
11
260.105
21
-21.9924
0
LINE
8
BLACK
6
CONTINUOUS
10
260.105
20
-21.9924
11
260.36
21
-22.1936
0
LINE
8
BLACK
6
CONTINUOUS
10
260.36
20
-22.1936
11
260.589
21
-22.424
0
LINE
8
BLACK
6
CONTINUOUS
10
260.589
20
-22.424
11
260.789
21
-22.6802
0
LINE
8
BLACK
6
CONTINUOUS
10
260.789
20
-22.6802
11
260.957
21
-22.9586
0
LINE
8
BLACK
6
CONTINUOUS
10
260.957
20
-22.9586
11
261.09
21
-23.2551
0
LINE
8
BLACK
6
CONTINUOUS
10
261.09
20
-23.2551
11
261.186
21
-23.5655
0
LINE
8
BLACK
6
CONTINUOUS
10
261.186
20
-23.5655
11
261.245
21
-23.8852
0
LINE
8
BLACK
6
CONTINUOUS
10
261.245
20
-23.8852
11
261.264
21
-24.2095
0
LINE
8
BLACK
6
CONTINUOUS
10
261.264
20
-24.2095
11
261.264
21
-24.2661
0
LINE
8
BLACK
6
CONTINUOUS
10
261.264
20
-24.2661
11
261.237
21
-24.59
0
LINE
8
BLACK
6
CONTINUOUS
10
261.237
20
-24.59
11
261.172
21
-24.9083
0
LINE
8
BLACK
6
CONTINUOUS
10
261.172
20
-24.9083
11
261.069
21
-25.2166
0
LINE
8
BLACK
6
CONTINUOUS
10
261.069
20
-25.2166
11
260.93
21
-25.5103
0
LINE
8
BLACK
6
CONTINUOUS
10
260.93
20
-25.5103
11
260.757
21
-25.7851
0
LINE
8
BLACK
6
CONTINUOUS
10
260.757
20
-25.7851
11
260.552
21
-26.0371
0
LINE
8
BLACK
6
CONTINUOUS
10
260.552
20
-26.0371
11
260.318
21
-26.2626
0
LINE
8
BLACK
6
CONTINUOUS
10
260.318
20
-26.2626
11
260.058
21
-26.4584
0
LINE
8
BLACK
6
CONTINUOUS
10
260.058
20
-26.4584
11
259.777
21
-26.6216
0
LINE
8
BLACK
6
CONTINUOUS
10
259.777
20
-26.6216
11
259.479
21
-26.7499
0
LINE
8
BLACK
6
CONTINUOUS
10
259.479
20
-26.7499
11
259.167
21
-26.8414
0
LINE
8
BLACK
6
CONTINUOUS
10
259.167
20
-26.8414
11
258.846
21
-26.8947
0
LINE
8
BLACK
6
CONTINUOUS
10
258.846
20
-26.8947
11
258.522
21
-26.9092
0
LINE
8
BLACK
6
CONTINUOUS
10
258.522
20
-26.9092
11
258.198
21
-26.8845
0
LINE
8
BLACK
6
CONTINUOUS
10
258.198
20
-26.8845
11
257.879
21
-26.8211
0
LINE
8
BLACK
6
CONTINUOUS
10
257.879
20
-26.8211
11
257.57
21
-26.7199
0
LINE
8
BLACK
6
CONTINUOUS
10
257.57
20
-26.7199
11
257.276
21
-26.5823
0
LINE
8
BLACK
6
CONTINUOUS
10
257.276
20
-26.5823
11
257
21
-26.4104
0
LINE
8
BLACK
6
CONTINUOUS
10
257
20
-26.4104
11
256.747
21
-26.2065
0
LINE
8
BLACK
6
CONTINUOUS
10
256.747
20
-26.2065
11
256.52
21
-25.9738
0
LINE
8
BLACK
6
CONTINUOUS
10
256.52
20
-25.9738
11
256.323
21
-25.7154
0
LINE
8
BLACK
6
CONTINUOUS
10
256.323
20
-25.7154
11
256.158
21
-25.4353
0
LINE
8
BLACK
6
CONTINUOUS
10
256.158
20
-25.4353
11
256.029
21
-25.1374
0
LINE
8
BLACK
6
CONTINUOUS
10
256.029
20
-25.1374
11
255.935
21
-24.8261
0
LINE
8
BLACK
6
CONTINUOUS
10
255.935
20
-24.8261
11
255.88
21
-24.5058
0
LINE
8
BLACK
6
CONTINUOUS
10
255.88
20
-24.5058
11
255.864
21
-24.1822
0
LINE
8
BLACK
6
CONTINUOUS
10
255.864
20
-24.1822
11
255.864
21
-24.1812
0
LINE
8
BLACK
6
CONTINUOUS
10
255.864
20
-24.1812
11
255.887
21
-23.8571
0
LINE
8
BLACK
6
CONTINUOUS
10
256.028
20
-24.8043
11
256.118
21
-25.1047
0
LINE
8
BLACK
6
CONTINUOUS
10
256.118
20
-25.1047
11
256.243
21
-25.3921
0
LINE
8
BLACK
6
CONTINUOUS
10
256.243
20
-25.3921
11
256.402
21
-25.6623
0
LINE
8
BLACK
6
CONTINUOUS
10
256.402
20
-25.6623
11
256.592
21
-25.9115
0
LINE
8
BLACK
6
CONTINUOUS
10
256.592
20
-25.9115
11
256.811
21
-26.1361
0
LINE
8
BLACK
6
CONTINUOUS
10
256.811
20
-26.1361
11
257.055
21
-26.3327
0
LINE
8
BLACK
6
CONTINUOUS
10
257.055
20
-26.3327
11
257.321
21
-26.4986
0
LINE
8
BLACK
6
CONTINUOUS
10
257.321
20
-26.4986
11
257.605
21
-26.6314
0
LINE
8
BLACK
6
CONTINUOUS
10
257.605
20
-26.6314
11
257.903
21
-26.729
0
LINE
8
BLACK
6
CONTINUOUS
10
257.903
20
-26.729
11
258.211
21
-26.7902
0
LINE
8
BLACK
6
CONTINUOUS
10
258.211
20
-26.7902
11
258.523
21
-26.814
0
LINE
8
BLACK
6
CONTINUOUS
10
258.523
20
-26.814
11
258.836
21
-26.8
0
LINE
8
BLACK
6
CONTINUOUS
10
258.836
20
-26.8
11
259.146
21
-26.7485
0
LINE
8
BLACK
6
CONTINUOUS
10
259.146
20
-26.7485
11
259.446
21
-26.6603
0
LINE
8
BLACK
6
CONTINUOUS
10
259.446
20
-26.6603
11
259.735
21
-26.5365
0
LINE
8
BLACK
6
CONTINUOUS
10
259.735
20
-26.5365
11
260.006
21
-26.3791
0
LINE
8
BLACK
6
CONTINUOUS
10
260.006
20
-26.3791
11
260.256
21
-26.1902
0
LINE
8
BLACK
6
CONTINUOUS
10
260.256
20
-26.1902
11
260.482
21
-25.9726
0
LINE
8
BLACK
6
CONTINUOUS
10
260.482
20
-25.9726
11
260.679
21
-25.7295
0
LINE
8
BLACK
6
CONTINUOUS
10
260.679
20
-25.7295
11
260.847
21
-25.4644
0
LINE
8
BLACK
6
CONTINUOUS
10
260.847
20
-25.4644
11
260.981
21
-25.1811
0
LINE
8
BLACK
6
CONTINUOUS
10
260.981
20
-25.1811
11
261.08
21
-24.8837
0
LINE
8
BLACK
6
CONTINUOUS
10
261.08
20
-24.8837
11
261.143
21
-24.5765
0
LINE
8
BLACK
6
CONTINUOUS
10
261.143
20
-24.5765
11
261.168
21
-24.2641
0
LINE
8
BLACK
6
CONTINUOUS
10
261.168
20
-24.2641
11
261.169
21
-24.2095
0
LINE
8
BLACK
6
CONTINUOUS
10
261.169
20
-24.2095
11
261.15
21
-23.8966
0
LINE
8
BLACK
6
CONTINUOUS
10
261.15
20
-23.8966
11
261.094
21
-23.5882
0
LINE
8
BLACK
6
CONTINUOUS
10
261.094
20
-23.5882
11
261.001
21
-23.2888
0
LINE
8
BLACK
6
CONTINUOUS
10
261.001
20
-23.2888
11
260.872
21
-23.0027
0
LINE
8
BLACK
6
CONTINUOUS
10
260.872
20
-23.0027
11
260.711
21
-22.7342
0
LINE
8
BLACK
6
CONTINUOUS
10
260.711
20
-22.7342
11
260.518
21
-22.487
0
LINE
8
BLACK
6
CONTINUOUS
10
260.518
20
-22.487
11
260.297
21
-22.2647
0
LINE
8
BLACK
6
CONTINUOUS
10
260.297
20
-22.2647
11
260.051
21
-22.0706
0
LINE
8
BLACK
6
CONTINUOUS
10
260.051
20
-22.0706
11
259.783
21
-21.9075
0
LINE
8
BLACK
6
CONTINUOUS
10
259.783
20
-21.9075
11
259.498
21
-21.7778
0
LINE
8
BLACK
6
CONTINUOUS
10
259.498
20
-21.7778
11
259.199
21
-21.6832
0
LINE
8
BLACK
6
CONTINUOUS
10
259.199
20
-21.6832
11
258.891
21
-21.6253
0
LINE
8
BLACK
6
CONTINUOUS
10
258.891
20
-21.6253
11
258.578
21
-21.6048
0
LINE
8
BLACK
6
CONTINUOUS
10
258.578
20
-21.6048
11
258.265
21
-21.622
0
LINE
8
BLACK
6
CONTINUOUS
10
258.265
20
-21.622
11
257.956
21
-21.6767
0
LINE
8
BLACK
6
CONTINUOUS
10
257.956
20
-21.6767
11
257.656
21
-21.7681
0
LINE
8
BLACK
6
CONTINUOUS
10
257.656
20
-21.7681
11
257.369
21
-21.8949
0
LINE
8
BLACK
6
CONTINUOUS
10
257.369
20
-21.8949
11
257.1
21
-22.0552
0
LINE
8
BLACK
6
CONTINUOUS
10
257.1
20
-22.0552
11
256.852
21
-22.2467
0
LINE
8
BLACK
6
CONTINUOUS
10
256.852
20
-22.2467
11
256.628
21
-22.4666
0
LINE
8
BLACK
6
CONTINUOUS
10
256.628
20
-22.4666
11
256.433
21
-22.7118
0
LINE
8
BLACK
6
CONTINUOUS
10
256.433
20
-22.7118
11
256.269
21
-22.9786
0
LINE
8
BLACK
6
CONTINUOUS
10
256.269
20
-22.9786
11
256.137
21
-23.2633
0
LINE
8
BLACK
6
CONTINUOUS
10
256.137
20
-23.2633
11
256.041
21
-23.5617
0
LINE
8
BLACK
6
CONTINUOUS
10
256.041
20
-23.5617
11
255.982
21
-23.8695
0
LINE
8
BLACK
6
CONTINUOUS
10
255.982
20
-23.8695
11
255.96
21
-24.1822
0
LINE
8
BLACK
6
CONTINUOUS
10
255.96
20
-24.1822
11
255.975
21
-24.4954
0
LINE
8
BLACK
6
CONTINUOUS
10
255.975
20
-24.4954
11
256.028
21
-24.8043
0
LINE
8
BLACK
6
CONTINUOUS
10
14.5721
20
-23.8502
11
14.6338
21
-23.5312
0
LINE
8
BLACK
6
CONTINUOUS
10
14.6338
20
-23.5312
11
14.7334
21
-23.2219
0
LINE
8
BLACK
6
CONTINUOUS
10
14.7334
20
-23.2219
11
14.8695
21
-22.9268
0
LINE
8
BLACK
6
CONTINUOUS
10
14.8695
20
-22.9268
11
15.04
21
-22.6501
0
LINE
8
BLACK
6
CONTINUOUS
10
15.04
20
-22.6501
11
15.2425
21
-22.396
0
LINE
8
BLACK
6
CONTINUOUS
10
15.2425
20
-22.396
11
15.4741
21
-22.168
0
LINE
8
BLACK
6
CONTINUOUS
10
15.4741
20
-22.168
11
15.7314
21
-21.9695
0
LINE
8
BLACK
6
CONTINUOUS
10
15.7314
20
-21.9695
11
16.0106
21
-21.8034
0
LINE
8
BLACK
6
CONTINUOUS
10
16.0106
20
-21.8034
11
16.3079
21
-21.672
0
LINE
8
BLACK
6
CONTINUOUS
10
16.3079
20
-21.672
11
16.6187
21
-21.5773
0
LINE
8
BLACK
6
CONTINUOUS
10
16.6187
20
-21.5773
11
16.9387
21
-21.5206
0
LINE
8
BLACK
6
CONTINUOUS
10
16.9387
20
-21.5206
11
17.2631
21
-21.5027
0
LINE
8
BLACK
6
CONTINUOUS
10
17.2631
20
-21.5027
11
17.5874
21
-21.5239
0
LINE
8
BLACK
6
CONTINUOUS
10
17.5874
20
-21.5239
11
17.9068
21
-21.584
0
LINE
8
BLACK
6
CONTINUOUS
10
17.9068
20
-21.584
11
18.2166
21
-21.682
0
LINE
8
BLACK
6
CONTINUOUS
10
18.2166
20
-21.682
11
18.5124
21
-21.8165
0
LINE
8
BLACK
6
CONTINUOUS
10
18.5124
20
-21.8165
11
18.7899
21
-21.9856
0
LINE
8
BLACK
6
CONTINUOUS
10
18.7899
20
-21.9856
11
19.0451
21
-22.1867
0
LINE
8
BLACK
6
CONTINUOUS
10
19.0451
20
-22.1867
11
19.2743
21
-22.4171
0
LINE
8
BLACK
6
CONTINUOUS
10
19.2743
20
-22.4171
11
19.4741
21
-22.6734
0
LINE
8
BLACK
6
CONTINUOUS
10
19.4741
20
-22.6734
11
19.6417
21
-22.9518
0
LINE
8
BLACK
6
CONTINUOUS
10
19.6417
20
-22.9518
11
19.7747
21
-23.2483
0
LINE
8
BLACK
6
CONTINUOUS
10
19.7747
20
-23.2483
11
19.8711
21
-23.5586
0
LINE
8
BLACK
6
CONTINUOUS
10
19.8711
20
-23.5586
11
19.9294
21
-23.8783
0
LINE
8
BLACK
6
CONTINUOUS
10
19.9294
20
-23.8783
11
19.949
21
-24.2027
0
LINE
8
BLACK
6
CONTINUOUS
10
19.949
20
-24.2027
11
19.9484
21
-24.2592
0
LINE
8
BLACK
6
CONTINUOUS
10
19.9484
20
-24.2592
11
19.9221
21
-24.5831
0
LINE
8
BLACK
6
CONTINUOUS
10
19.9221
20
-24.5831
11
19.857
21
-24.9015
0
LINE
8
BLACK
6
CONTINUOUS
10
19.857
20
-24.9015
11
19.7542
21
-25.2097
0
LINE
8
BLACK
6
CONTINUOUS
10
19.7542
20
-25.2097
11
19.615
21
-25.5034
0
LINE
8
BLACK
6
CONTINUOUS
10
19.615
20
-25.5034
11
19.4416
21
-25.7782
0
LINE
8
BLACK
6
CONTINUOUS
10
19.4416
20
-25.7782
11
19.2365
21
-26.0302
0
LINE
8
BLACK
6
CONTINUOUS
10
19.2365
20
-26.0302
11
19.0025
21
-26.2558
0
LINE
8
BLACK
6
CONTINUOUS
10
19.0025
20
-26.2558
11
18.7432
21
-26.4515
0
LINE
8
BLACK
6
CONTINUOUS
10
18.7432
20
-26.4515
11
18.4622
21
-26.6148
0
LINE
8
BLACK
6
CONTINUOUS
10
18.4622
20
-26.6148
11
18.1636
21
-26.743
0
LINE
8
BLACK
6
CONTINUOUS
10
18.1636
20
-26.743
11
17.8518
21
-26.8345
0
LINE
8
BLACK
6
CONTINUOUS
10
17.8518
20
-26.8345
11
17.5312
21
-26.8879
0
LINE
8
BLACK
6
CONTINUOUS
10
17.5312
20
-26.8879
11
17.2066
21
-26.9023
0
LINE
8
BLACK
6
CONTINUOUS
10
17.2066
20
-26.9023
11
16.8826
21
-26.8777
0
LINE
8
BLACK
6
CONTINUOUS
10
16.8826
20
-26.8777
11
16.5639
21
-26.8143
0
LINE
8
BLACK
6
CONTINUOUS
10
16.5639
20
-26.8143
11
16.2551
21
-26.7131
0
LINE
8
BLACK
6
CONTINUOUS
10
16.2551
20
-26.7131
11
15.9607
21
-26.5755
0
LINE
8
BLACK
6
CONTINUOUS
10
15.9607
20
-26.5755
11
15.6849
21
-26.4035
0
LINE
8
BLACK
6
CONTINUOUS
10
15.6849
20
-26.4035
11
15.4319
21
-26.1997
0
LINE
8
BLACK
6
CONTINUOUS
10
15.4319
20
-26.1997
11
15.2051
21
-25.9669
0
LINE
8
BLACK
6
CONTINUOUS
10
15.2051
20
-25.9669
11
15.008
21
-25.7086
0
LINE
8
BLACK
6
CONTINUOUS
10
15.008
20
-25.7086
11
14.8433
21
-25.4284
0
LINE
8
BLACK
6
CONTINUOUS
10
14.8433
20
-25.4284
11
14.7134
21
-25.1305
0
LINE
8
BLACK
6
CONTINUOUS
10
14.7134
20
-25.1305
11
14.6203
21
-24.8192
0
LINE
8
BLACK
6
CONTINUOUS
10
14.6203
20
-24.8192
11
14.5653
21
-24.4989
0
LINE
8
BLACK
6
CONTINUOUS
10
14.5653
20
-24.4989
11
14.5492
21
-24.1754
0
LINE
8
BLACK
6
CONTINUOUS
10
14.5492
20
-24.1754
11
14.5491
21
-24.1744
0
LINE
8
BLACK
6
CONTINUOUS
10
14.5491
20
-24.1744
11
14.5721
21
-23.8502
0
LINE
8
BLACK
6
CONTINUOUS
10
14.7131
20
-24.7975
11
14.8029
21
-25.0978
0
LINE
8
BLACK
6
CONTINUOUS
10
14.8029
20
-25.0978
11
14.9281
21
-25.3852
0
LINE
8
BLACK
6
CONTINUOUS
10
14.9281
20
-25.3852
11
15.087
21
-25.6554
0
LINE
8
BLACK
6
CONTINUOUS
10
15.087
20
-25.6554
11
15.2772
21
-25.9047
0
LINE
8
BLACK
6
CONTINUOUS
10
15.2772
20
-25.9047
11
15.496
21
-26.1292
0
LINE
8
BLACK
6
CONTINUOUS
10
15.496
20
-26.1292
11
15.7401
21
-26.3259
0
LINE
8
BLACK
6
CONTINUOUS
10
15.7401
20
-26.3259
11
16.0061
21
-26.4918
0
LINE
8
BLACK
6
CONTINUOUS
10
16.0061
20
-26.4918
11
16.2901
21
-26.6245
0
LINE
8
BLACK
6
CONTINUOUS
10
16.2901
20
-26.6245
11
16.588
21
-26.7222
0
LINE
8
BLACK
6
CONTINUOUS
10
16.588
20
-26.7222
11
16.8955
21
-26.7833
0
LINE
8
BLACK
6
CONTINUOUS
10
16.8955
20
-26.7833
11
17.2081
21
-26.8071
0
LINE
8
BLACK
6
CONTINUOUS
10
17.2081
20
-26.8071
11
17.5213
21
-26.7931
0
LINE
8
BLACK
6
CONTINUOUS
10
17.5213
20
-26.7931
11
17.8305
21
-26.7417
0
LINE
8
BLACK
6
CONTINUOUS
10
17.8305
20
-26.7417
11
18.1313
21
-26.6534
0
LINE
8
BLACK
6
CONTINUOUS
10
18.1313
20
-26.6534
11
18.4194
21
-26.5297
0
LINE
8
BLACK
6
CONTINUOUS
10
18.4194
20
-26.5297
11
18.6904
21
-26.3722
0
LINE
8
BLACK
6
CONTINUOUS
10
18.6904
20
-26.3722
11
18.9407
21
-26.1833
0
LINE
8
BLACK
6
CONTINUOUS
10
18.9407
20
-26.1833
11
19.1663
21
-25.9658
0
LINE
8
BLACK
6
CONTINUOUS
10
19.1663
20
-25.9658
11
19.3643
21
-25.7226
0
LINE
8
BLACK
6
CONTINUOUS
10
19.3643
20
-25.7226
11
19.5316
21
-25.4575
0
LINE
8
BLACK
6
CONTINUOUS
10
19.5316
20
-25.4575
11
19.6658
21
-25.1742
0
LINE
8
BLACK
6
CONTINUOUS
10
19.6658
20
-25.1742
11
19.765
21
-24.8768
0
LINE
8
BLACK
6
CONTINUOUS
10
19.765
20
-24.8768
11
19.8278
21
-24.5697
0
LINE
8
BLACK
6
CONTINUOUS
10
19.8278
20
-24.5697
11
19.8532
21
-24.2572
0
LINE
8
BLACK
6
CONTINUOUS
10
19.8532
20
-24.2572
11
19.8538
21
-24.2027
0
LINE
8
BLACK
6
CONTINUOUS
10
19.8538
20
-24.2027
11
19.8349
21
-23.8897
0
LINE
8
BLACK
6
CONTINUOUS
10
19.8349
20
-23.8897
11
19.7786
21
-23.5813
0
LINE
8
BLACK
6
CONTINUOUS
10
19.7786
20
-23.5813
11
19.6856
21
-23.2819
0
LINE
8
BLACK
6
CONTINUOUS
10
19.6856
20
-23.2819
11
19.5573
21
-22.9959
0
LINE
8
BLACK
6
CONTINUOUS
10
19.5573
20
-22.9959
11
19.3956
21
-22.7273
0
LINE
8
BLACK
6
CONTINUOUS
10
19.3956
20
-22.7273
11
19.2029
21
-22.4801
0
LINE
8
BLACK
6
CONTINUOUS
10
19.2029
20
-22.4801
11
18.9818
21
-22.2579
0
LINE
8
BLACK
6
CONTINUOUS
10
18.9818
20
-22.2579
11
18.7356
21
-22.0638
0
LINE
8
BLACK
6
CONTINUOUS
10
18.7356
20
-22.0638
11
18.4678
21
-21.9007
0
LINE
8
BLACK
6
CONTINUOUS
10
18.4678
20
-21.9007
11
18.1825
21
-21.7709
0
LINE
8
BLACK
6
CONTINUOUS
10
18.1825
20
-21.7709
11
17.8836
21
-21.6764
0
LINE
8
BLACK
6
CONTINUOUS
10
17.8836
20
-21.6764
11
17.5755
21
-21.6184
0
LINE
8
BLACK
6
CONTINUOUS
10
17.5755
20
-21.6184
11
17.2626
21
-21.5979
0
LINE
8
BLACK
6
CONTINUOUS
10
17.2626
20
-21.5979
11
16.9496
21
-21.6152
0
LINE
8
BLACK
6
CONTINUOUS
10
16.9496
20
-21.6152
11
16.6409
21
-21.6699
0
LINE
8
BLACK
6
CONTINUOUS
10
16.6409
20
-21.6699
11
16.3411
21
-21.7613
0
LINE
8
BLACK
6
CONTINUOUS
10
16.3411
20
-21.7613
11
16.0543
21
-21.888
0
LINE
8
BLACK
6
CONTINUOUS
10
16.0543
20
-21.888
11
15.7849
21
-22.0483
0
LINE
8
BLACK
6
CONTINUOUS
10
15.7849
20
-22.0483
11
15.5367
21
-22.2398
0
LINE
8
BLACK
6
CONTINUOUS
10
15.5367
20
-22.2398
11
15.3133
21
-22.4597
0
LINE
8
BLACK
6
CONTINUOUS
10
15.3133
20
-22.4597
11
15.1179
21
-22.7049
0
LINE
8
BLACK
6
CONTINUOUS
10
15.1179
20
-22.7049
11
14.9534
21
-22.9718
0
LINE
8
BLACK
6
CONTINUOUS
10
14.9534
20
-22.9718
11
14.8222
21
-23.2565
0
LINE
8
BLACK
6
CONTINUOUS
10
14.8222
20
-23.2565
11
14.7261
21
-23.5549
0
LINE
8
BLACK
6
CONTINUOUS
10
14.7261
20
-23.5549
11
14.6665
21
-23.8627
0
LINE
8
BLACK
6
CONTINUOUS
10
14.6665
20
-23.8627
11
14.6444
21
-24.1754
0
LINE
8
BLACK
6
CONTINUOUS
10
14.6444
20
-24.1754
11
14.66
21
-24.4885
0
LINE
8
BLACK
6
CONTINUOUS
10
14.66
20
-24.4885
11
14.7131
21
-24.7975
  0
ENDSEC
  0
EOF
