  0
SECTION
  2
HEADER
  9
$ANGBASE
  50
0.0
  9
$ANGDIR
  70
1
  9
$MEASUREMENT
  70
1
  0
ENDSEC
  0
SECTION
  2
TABLES
  0
TABLE
  2
LTYPE
  70
4
  0
LTYPE
  5
40F
  2
CONTINUOUS
  70
0
  3
Solid line
  72
65
  73
0
  40
0.0
  0
LTYPE
  5
410
  2
DASHDOT
 70
0
  3
Dash Dot ____ _ ____ _
 72
65
 73
4
 40
2.0
 49
1.25
 49
-0.25
 49
0.25
 49
-0.25
  0
LTYPE
  5
411
  2
DASHED
 70
0
  3
Dashed __ __ __ __ __
 72
65
 73
2
 40
0.75
 49
0.5
 49
-0.25
  0
LTYPE
  5
43B
  2
DOTTED
 70
0
  3
Dotted .  .  .  .
 72
65
 73
2
 40
0.2
 49
0.0
 49
-0.2
  0
ENDTAB
  0
TABLE
  2
STYLE
  70
4
  0
STYLE
  2
KICAD
  70
0
  40
0
  41
1
  42
1
  50
0
  71
0
  3
isocp.shx
  0
STYLE
  2
KICADB
  70
0
  40
0
  41
1
  42
1
  50
0
  71
0
  3
isocp.shx
  0
STYLE
  2
KICADI
  70
0
  40
0
  41
1
  42
1
  50
15
  71
0
  3
isocp.shx
  0
STYLE
  2
KICADBI
  70
0
  40
0
  41
1
  42
1
  50
15
  71
0
  3
isocp.shx
  0
ENDTAB
  0
TABLE
  2
LAYER
  70
1
  0
LAYER
  2
BLACK
  70
0
  62
7
  6
CONTINUOUS
  0
ENDTAB
  0
ENDSEC
  0
SECTION
  2
ENTITIES
0
LINE
8
BLACK
6
CONTINUOUS
10
23.2269
20
-17.7861
11
23.2302
21
-17.7855
0
LINE
8
BLACK
6
CONTINUOUS
10
23.2302
20
-17.7855
11
23.2331
21
-17.7872
0
LINE
8
BLACK
6
CONTINUOUS
10
23.2331
20
-17.7872
11
23.2427
21
-17.7889
0
LINE
8
BLACK
6
CONTINUOUS
10
23.2427
20
-17.7889
11
23.2577
21
-17.8014
0
LINE
8
BLACK
6
CONTINUOUS
10
23.2577
20
-17.8014
11
23.2747
21
-17.8112
0
LINE
8
BLACK
6
CONTINUOUS
10
23.2747
20
-17.8112
11
23.2769
21
-17.8175
0
LINE
8
BLACK
6
CONTINUOUS
10
23.2769
20
-17.8175
11
23.2821
21
-17.8218
0
LINE
8
BLACK
6
CONTINUOUS
10
23.2821
20
-17.8218
11
23.2855
21
-17.841
0
LINE
8
BLACK
6
CONTINUOUS
10
23.2855
20
-17.841
11
23.2922
21
-17.8594
0
LINE
8
BLACK
6
CONTINUOUS
10
23.2922
20
-17.8594
11
23.2922
21
-36.9094
0
LINE
8
BLACK
6
CONTINUOUS
10
23.2922
20
-36.9094
11
23.2905
21
-36.9191
0
LINE
8
BLACK
6
CONTINUOUS
10
23.2905
20
-36.9191
11
23.2911
21
-36.9224
0
LINE
8
BLACK
6
CONTINUOUS
10
23.2911
20
-36.9224
11
23.2894
21
-36.9253
0
LINE
8
BLACK
6
CONTINUOUS
10
23.2894
20
-36.9253
11
23.2877
21
-36.9351
0
LINE
8
BLACK
6
CONTINUOUS
10
23.2877
20
-36.9351
11
23.2752
21
-36.95
0
LINE
8
BLACK
6
CONTINUOUS
10
23.2752
20
-36.95
11
23.2654
21
-36.9669
0
LINE
8
BLACK
6
CONTINUOUS
10
23.2654
20
-36.9669
11
23.2591
21
-36.9692
0
LINE
8
BLACK
6
CONTINUOUS
10
23.2591
20
-36.9692
11
23.2547
21
-36.9744
0
LINE
8
BLACK
6
CONTINUOUS
10
23.2547
20
-36.9744
11
23.2355
21
-36.9777
0
LINE
8
BLACK
6
CONTINUOUS
10
23.2355
20
-36.9777
11
23.2172
21
-36.9844
0
LINE
8
BLACK
6
CONTINUOUS
10
23.2172
20
-36.9844
11
20.911
21
-36.9844
0
LINE
8
BLACK
6
CONTINUOUS
10
20.911
20
-36.9844
11
20.911
21
-56.5547
0
LINE
8
BLACK
6
CONTINUOUS
10
20.911
20
-56.5547
11
20.9092
21
-56.5645
0
LINE
8
BLACK
6
CONTINUOUS
10
20.9092
20
-56.5645
11
20.9098
21
-56.5678
0
LINE
8
BLACK
6
CONTINUOUS
10
20.9098
20
-56.5678
11
20.9081
21
-56.5706
0
LINE
8
BLACK
6
CONTINUOUS
10
20.9081
20
-56.5706
11
20.9064
21
-56.5804
0
LINE
8
BLACK
6
CONTINUOUS
10
20.9064
20
-56.5804
11
20.8939
21
-56.5953
0
LINE
8
BLACK
6
CONTINUOUS
10
20.8939
20
-56.5953
11
20.8842
21
-56.6122
0
LINE
8
BLACK
6
CONTINUOUS
10
20.8842
20
-56.6122
11
20.8778
21
-56.6145
0
LINE
8
BLACK
6
CONTINUOUS
10
20.8778
20
-56.6145
11
20.8735
21
-56.6197
0
LINE
8
BLACK
6
CONTINUOUS
10
20.8735
20
-56.6197
11
20.8543
21
-56.6231
0
LINE
8
BLACK
6
CONTINUOUS
10
20.8543
20
-56.6231
11
20.836
21
-56.6297
0
LINE
8
BLACK
6
CONTINUOUS
10
20.836
20
-56.6297
11
16.1485
21
-56.6297
0
LINE
8
BLACK
6
CONTINUOUS
10
16.1485
20
-56.6297
11
16.1485
21
-76.7204
0
LINE
8
BLACK
6
CONTINUOUS
10
16.1485
20
-76.7204
11
25.5985
21
-76.7204
0
LINE
8
BLACK
6
CONTINUOUS
10
25.5985
20
-76.7204
11
25.6082
21
-76.7221
0
LINE
8
BLACK
6
CONTINUOUS
10
25.6082
20
-76.7221
11
25.6115
21
-76.7215
0
LINE
8
BLACK
6
CONTINUOUS
10
25.6115
20
-76.7215
11
25.6144
21
-76.7232
0
LINE
8
BLACK
6
CONTINUOUS
10
25.6144
20
-76.7232
11
25.6241
21
-76.7249
0
LINE
8
BLACK
6
CONTINUOUS
10
25.6241
20
-76.7249
11
25.639
21
-76.7374
0
LINE
8
BLACK
6
CONTINUOUS
10
25.639
20
-76.7374
11
25.6559
21
-76.7472
0
LINE
8
BLACK
6
CONTINUOUS
10
25.6559
20
-76.7472
11
25.6582
21
-76.7535
0
LINE
8
BLACK
6
CONTINUOUS
10
25.6582
20
-76.7535
11
25.6634
21
-76.7579
0
LINE
8
BLACK
6
CONTINUOUS
10
25.6634
20
-76.7579
11
25.6668
21
-76.7771
0
LINE
8
BLACK
6
CONTINUOUS
10
25.6668
20
-76.7771
11
25.6735
21
-76.7954
0
LINE
8
BLACK
6
CONTINUOUS
10
25.6735
20
-76.7954
11
25.6735
21
-97.036
0
LINE
8
BLACK
6
CONTINUOUS
10
25.6735
20
-97.036
11
25.6717
21
-97.0458
0
LINE
8
BLACK
6
CONTINUOUS
10
25.6717
20
-97.0458
11
25.6723
21
-97.049
0
LINE
8
BLACK
6
CONTINUOUS
10
25.6723
20
-97.049
11
25.6707
21
-97.0519
0
LINE
8
BLACK
6
CONTINUOUS
10
25.6707
20
-97.0519
11
25.6689
21
-97.0617
0
LINE
8
BLACK
6
CONTINUOUS
10
25.6689
20
-97.0617
11
25.6564
21
-97.0766
0
LINE
8
BLACK
6
CONTINUOUS
10
25.6564
20
-97.0766
11
25.6467
21
-97.0935
0
LINE
8
BLACK
6
CONTINUOUS
10
25.6467
20
-97.0935
11
25.6403
21
-97.0958
0
LINE
8
BLACK
6
CONTINUOUS
10
25.6403
20
-97.0958
11
25.636
21
-97.101
0
LINE
8
BLACK
6
CONTINUOUS
10
25.636
20
-97.101
11
25.6168
21
-97.1044
0
LINE
8
BLACK
6
CONTINUOUS
10
25.6168
20
-97.1044
11
25.5985
21
-97.111
0
LINE
8
BLACK
6
CONTINUOUS
10
25.5985
20
-97.111
11
17.2641
21
-97.111
0
LINE
8
BLACK
6
CONTINUOUS
10
17.2641
20
-97.111
11
17.2384
21
-97.1065
0
LINE
8
BLACK
6
CONTINUOUS
10
17.2384
20
-97.1065
11
17.2116
21
-97.084
0
LINE
8
BLACK
6
CONTINUOUS
10
17.2116
20
-97.084
11
16.7766
21
-97.0673
0
LINE
8
BLACK
6
CONTINUOUS
10
16.7766
20
-97.0673
11
16.292
21
-97.0115
0
LINE
8
BLACK
6
CONTINUOUS
10
16.292
20
-97.0115
11
15.8131
21
-96.919
0
LINE
8
BLACK
6
CONTINUOUS
10
15.8131
20
-96.919
11
15.3426
21
-96.7902
0
LINE
8
BLACK
6
CONTINUOUS
10
15.3426
20
-96.7902
11
14.8833
21
-96.6261
0
LINE
8
BLACK
6
CONTINUOUS
10
14.8833
20
-96.6261
11
14.4378
21
-96.4274
0
LINE
8
BLACK
6
CONTINUOUS
10
14.4378
20
-96.4274
11
14.0087
21
-96.1954
0
LINE
8
BLACK
6
CONTINUOUS
10
14.0087
20
-96.1954
11
13.5985
21
-95.9314
0
LINE
8
BLACK
6
CONTINUOUS
10
13.5985
20
-95.9314
11
13.2097
21
-95.6369
0
LINE
8
BLACK
6
CONTINUOUS
10
13.2097
20
-95.6369
11
12.8443
21
-95.3137
0
LINE
8
BLACK
6
CONTINUOUS
10
12.8443
20
-95.3137
11
12.5047
21
-94.9636
0
LINE
8
BLACK
6
CONTINUOUS
10
12.5047
20
-94.9636
11
12.1927
21
-94.5886
0
LINE
8
BLACK
6
CONTINUOUS
10
12.1927
20
-94.5886
11
11.9101
21
-94.191
0
LINE
8
BLACK
6
CONTINUOUS
10
11.9101
20
-94.191
11
11.6586
21
-93.773
0
LINE
8
BLACK
6
CONTINUOUS
10
11.6586
20
-93.773
11
11.4397
21
-93.3371
0
LINE
8
BLACK
6
CONTINUOUS
10
11.4397
20
-93.3371
11
11.2546
21
-92.8858
0
LINE
8
BLACK
6
CONTINUOUS
10
11.2546
20
-92.8858
11
11.1045
21
-92.4217
0
LINE
8
BLACK
6
CONTINUOUS
10
11.1045
20
-92.4217
11
10.99
21
-91.9475
0
LINE
8
BLACK
6
CONTINUOUS
10
10.99
20
-91.9475
11
10.9121
21
-91.466
0
LINE
8
BLACK
6
CONTINUOUS
10
10.9121
20
-91.466
11
10.871
21
-90.98
0
LINE
8
BLACK
6
CONTINUOUS
10
10.871
20
-90.98
11
10.8675
21
-90.5465
0
LINE
8
BLACK
6
CONTINUOUS
10
10.8675
20
-90.5465
11
10.8595
21
-90.5419
0
LINE
8
BLACK
6
CONTINUOUS
10
10.8595
20
-90.5419
11
10.842
21
-90.4937
0
LINE
8
BLACK
6
CONTINUOUS
10
10.842
20
-90.4937
11
10.842
21
-24.011
0
LINE
8
BLACK
6
CONTINUOUS
10
10.842
20
-24.011
11
10.8465
21
-23.9853
0
LINE
8
BLACK
6
CONTINUOUS
10
10.8465
20
-23.9853
11
10.8706
21
-23.9566
0
LINE
8
BLACK
6
CONTINUOUS
10
10.8706
20
-23.9566
11
10.8993
21
-23.5331
0
LINE
8
BLACK
6
CONTINUOUS
10
10.8993
20
-23.5331
11
10.9671
21
-23.0604
0
LINE
8
BLACK
6
CONTINUOUS
10
10.9671
20
-23.0604
11
11.07
21
-22.5942
0
LINE
8
BLACK
6
CONTINUOUS
10
11.07
20
-22.5942
11
11.2075
21
-22.1369
0
LINE
8
BLACK
6
CONTINUOUS
10
11.2075
20
-22.1369
11
11.3788
21
-21.6912
0
LINE
8
BLACK
6
CONTINUOUS
10
11.3788
20
-21.6912
11
11.5829
21
-21.2595
0
LINE
8
BLACK
6
CONTINUOUS
10
11.5829
20
-21.2595
11
11.8186
21
-20.8443
0
LINE
8
BLACK
6
CONTINUOUS
10
11.8186
20
-20.8443
11
12.0848
21
-20.4479
0
LINE
8
BLACK
6
CONTINUOUS
10
12.0848
20
-20.4479
11
12.3798
21
-20.0725
0
LINE
8
BLACK
6
CONTINUOUS
10
12.3798
20
-20.0725
11
12.7021
21
-19.7202
0
LINE
8
BLACK
6
CONTINUOUS
10
12.7021
20
-19.7202
11
13.0498
21
-19.3929
0
LINE
8
BLACK
6
CONTINUOUS
10
13.0498
20
-19.3929
11
13.421
21
-19.0926
0
LINE
8
BLACK
6
CONTINUOUS
10
13.421
20
-19.0926
11
13.8135
21
-18.8208
0
LINE
8
BLACK
6
CONTINUOUS
10
13.8135
20
-18.8208
11
14.2253
21
-18.5791
0
LINE
8
BLACK
6
CONTINUOUS
10
14.2253
20
-18.5791
11
14.654
21
-18.3689
0
LINE
8
BLACK
6
CONTINUOUS
10
14.654
20
-18.3689
11
15.0973
21
-18.1912
0
LINE
8
BLACK
6
CONTINUOUS
10
15.0973
20
-18.1912
11
15.5525
21
-18.0473
0
LINE
8
BLACK
6
CONTINUOUS
10
15.5525
20
-18.0473
11
16.0172
21
-17.9377
0
LINE
8
BLACK
6
CONTINUOUS
10
16.0172
20
-17.9377
11
16.4889
21
-17.8632
0
LINE
8
BLACK
6
CONTINUOUS
10
16.4889
20
-17.8632
11
16.9647
21
-17.8241
0
LINE
8
BLACK
6
CONTINUOUS
10
16.9647
20
-17.8241
11
17.3879
21
-17.8211
0
LINE
8
BLACK
6
CONTINUOUS
10
17.3879
20
-17.8211
11
17.3924
21
-17.8133
0
LINE
8
BLACK
6
CONTINUOUS
10
17.3924
20
-17.8133
11
17.4406
21
-17.7957
0
LINE
8
BLACK
6
CONTINUOUS
10
17.4406
20
-17.7957
11
23.2171
21
-17.7844
0
LINE
8
BLACK
6
CONTINUOUS
10
23.2171
20
-17.7844
11
23.2269
21
-17.7861
0
LINE
8
BLACK
6
CONTINUOUS
10
16.969
20
-17.9196
11
16.5002
21
-17.9581
0
LINE
8
BLACK
6
CONTINUOUS
10
16.5002
20
-17.9581
11
16.0357
21
-18.0315
0
LINE
8
BLACK
6
CONTINUOUS
10
16.0357
20
-18.0315
11
15.5779
21
-18.1394
0
LINE
8
BLACK
6
CONTINUOUS
10
15.5779
20
-18.1394
11
15.1295
21
-18.2813
0
LINE
8
BLACK
6
CONTINUOUS
10
15.1295
20
-18.2813
11
14.6929
21
-18.4562
0
LINE
8
BLACK
6
CONTINUOUS
10
14.6929
20
-18.4562
11
14.2706
21
-18.6633
0
LINE
8
BLACK
6
CONTINUOUS
10
14.2706
20
-18.6633
11
13.865
21
-18.9014
0
LINE
8
BLACK
6
CONTINUOUS
10
13.865
20
-18.9014
11
13.4783
21
-19.1691
0
LINE
8
BLACK
6
CONTINUOUS
10
13.4783
20
-19.1691
11
13.1127
21
-19.4649
0
LINE
8
BLACK
6
CONTINUOUS
10
13.1127
20
-19.4649
11
12.7702
21
-19.7873
0
LINE
8
BLACK
6
CONTINUOUS
10
12.7702
20
-19.7873
11
12.4527
21
-20.1343
0
LINE
8
BLACK
6
CONTINUOUS
10
12.4527
20
-20.1343
11
12.1621
21
-20.5041
0
LINE
8
BLACK
6
CONTINUOUS
10
12.1621
20
-20.5041
11
11.9
21
-20.8946
0
LINE
8
BLACK
6
CONTINUOUS
10
11.9
20
-20.8946
11
11.6677
21
-21.3036
0
LINE
8
BLACK
6
CONTINUOUS
10
11.6677
20
-21.3036
11
11.4667
21
-21.7288
0
LINE
8
BLACK
6
CONTINUOUS
10
11.4667
20
-21.7288
11
11.298
21
-22.1678
0
LINE
8
BLACK
6
CONTINUOUS
10
11.298
20
-22.1678
11
11.1625
21
-22.6183
0
LINE
8
BLACK
6
CONTINUOUS
10
11.1625
20
-22.6183
11
11.0612
21
-23.0775
0
LINE
8
BLACK
6
CONTINUOUS
10
11.0612
20
-23.0775
11
10.9944
21
-23.5431
0
LINE
8
BLACK
6
CONTINUOUS
10
10.9944
20
-23.5431
11
10.9663
21
-23.958
0
LINE
8
BLACK
6
CONTINUOUS
10
10.9663
20
-23.958
11
10.9744
21
-23.9628
0
LINE
8
BLACK
6
CONTINUOUS
10
10.9744
20
-23.9628
11
10.992
21
-24.011
0
LINE
8
BLACK
6
CONTINUOUS
10
10.992
20
-24.011
11
10.992
21
-90.4937
0
LINE
8
BLACK
6
CONTINUOUS
10
10.992
20
-90.4937
11
10.9875
21
-90.5193
0
LINE
8
BLACK
6
CONTINUOUS
10
10.9875
20
-90.5193
11
10.9628
21
-90.5487
0
LINE
8
BLACK
6
CONTINUOUS
10
10.9628
20
-90.5487
11
10.9663
21
-90.9755
0
LINE
8
BLACK
6
CONTINUOUS
10
10.9663
20
-90.9755
11
11.0067
21
-91.4544
0
LINE
8
BLACK
6
CONTINUOUS
10
11.0067
20
-91.4544
11
11.0835
21
-91.9287
0
LINE
8
BLACK
6
CONTINUOUS
10
11.0835
20
-91.9287
11
11.1963
21
-92.3958
0
LINE
8
BLACK
6
CONTINUOUS
10
11.1963
20
-92.3958
11
11.3442
21
-92.853
0
LINE
8
BLACK
6
CONTINUOUS
10
11.3442
20
-92.853
11
11.5265
21
-93.2976
0
LINE
8
BLACK
6
CONTINUOUS
10
11.5265
20
-93.2976
11
11.7422
21
-93.727
0
LINE
8
BLACK
6
CONTINUOUS
10
11.7422
20
-93.727
11
11.9899
21
-94.1388
0
LINE
8
BLACK
6
CONTINUOUS
10
11.9899
20
-94.1388
11
12.2682
21
-94.5304
0
LINE
8
BLACK
6
CONTINUOUS
10
12.2682
20
-94.5304
11
12.5756
21
-94.8998
0
LINE
8
BLACK
6
CONTINUOUS
10
12.5756
20
-94.8998
11
12.9102
21
-95.2447
0
LINE
8
BLACK
6
CONTINUOUS
10
12.9102
20
-95.2447
11
13.2701
21
-95.5631
0
LINE
8
BLACK
6
CONTINUOUS
10
13.2701
20
-95.5631
11
13.6532
21
-95.8532
0
LINE
8
BLACK
6
CONTINUOUS
10
13.6532
20
-95.8532
11
14.0572
21
-96.1133
0
LINE
8
BLACK
6
CONTINUOUS
10
14.0572
20
-96.1133
11
14.4799
21
-96.3418
0
LINE
8
BLACK
6
CONTINUOUS
10
14.4799
20
-96.3418
11
14.9188
21
-96.5375
0
LINE
8
BLACK
6
CONTINUOUS
10
14.9188
20
-96.5375
11
15.3713
21
-96.6993
0
LINE
8
BLACK
6
CONTINUOUS
10
15.3713
20
-96.6993
11
15.8348
21
-96.8261
0
LINE
8
BLACK
6
CONTINUOUS
10
15.8348
20
-96.8261
11
16.3066
21
-96.9172
0
LINE
8
BLACK
6
CONTINUOUS
10
16.3066
20
-96.9172
11
16.7839
21
-96.9722
0
LINE
8
BLACK
6
CONTINUOUS
10
16.7839
20
-96.9722
11
17.2101
21
-96.9886
0
LINE
8
BLACK
6
CONTINUOUS
10
17.2101
20
-96.9886
11
17.2159
21
-96.9786
0
LINE
8
BLACK
6
CONTINUOUS
10
17.2159
20
-96.9786
11
17.2641
21
-96.961
0
LINE
8
BLACK
6
CONTINUOUS
10
17.2641
20
-96.961
11
25.5235
21
-96.961
0
LINE
8
BLACK
6
CONTINUOUS
10
25.5235
20
-96.961
11
25.5235
21
-76.8704
0
LINE
8
BLACK
6
CONTINUOUS
10
25.5235
20
-76.8704
11
16.0735
21
-76.8704
0
LINE
8
BLACK
6
CONTINUOUS
10
16.0735
20
-76.8704
11
16.0637
21
-76.8687
0
LINE
8
BLACK
6
CONTINUOUS
10
16.0637
20
-76.8687
11
16.0604
21
-76.8692
0
LINE
8
BLACK
6
CONTINUOUS
10
16.0604
20
-76.8692
11
16.0575
21
-76.8676
0
LINE
8
BLACK
6
CONTINUOUS
10
16.0575
20
-76.8676
11
16.0478
21
-76.8659
0
LINE
8
BLACK
6
CONTINUOUS
10
16.0478
20
-76.8659
11
16.0329
21
-76.8533
0
LINE
8
BLACK
6
CONTINUOUS
10
16.0329
20
-76.8533
11
16.016
21
-76.8436
0
LINE
8
BLACK
6
CONTINUOUS
10
16.016
20
-76.8436
11
16.0137
21
-76.8372
0
LINE
8
BLACK
6
CONTINUOUS
10
16.0137
20
-76.8372
11
16.0085
21
-76.8329
0
LINE
8
BLACK
6
CONTINUOUS
10
16.0085
20
-76.8329
11
16.0051
21
-76.8137
0
LINE
8
BLACK
6
CONTINUOUS
10
16.0051
20
-76.8137
11
15.9985
21
-76.7954
0
LINE
8
BLACK
6
CONTINUOUS
10
15.9985
20
-76.7954
11
15.9985
21
-56.5547
0
LINE
8
BLACK
6
CONTINUOUS
10
15.9985
20
-56.5547
11
16.0002
21
-56.545
0
LINE
8
BLACK
6
CONTINUOUS
10
16.0002
20
-56.545
11
15.9996
21
-56.5417
0
LINE
8
BLACK
6
CONTINUOUS
10
15.9996
20
-56.5417
11
16.0013
21
-56.5388
0
LINE
8
BLACK
6
CONTINUOUS
10
16.0013
20
-56.5388
11
16.003
21
-56.5291
0
LINE
8
BLACK
6
CONTINUOUS
10
16.003
20
-56.5291
11
16.0155
21
-56.5142
0
LINE
8
BLACK
6
CONTINUOUS
10
16.0155
20
-56.5142
11
16.0252
21
-56.4973
0
LINE
8
BLACK
6
CONTINUOUS
10
16.0252
20
-56.4973
11
16.0316
21
-56.495
0
LINE
8
BLACK
6
CONTINUOUS
10
16.0316
20
-56.495
11
16.036
21
-56.4898
0
LINE
8
BLACK
6
CONTINUOUS
10
16.036
20
-56.4898
11
16.0551
21
-56.4864
0
LINE
8
BLACK
6
CONTINUOUS
10
16.0551
20
-56.4864
11
16.0735
21
-56.4797
0
LINE
8
BLACK
6
CONTINUOUS
10
16.0735
20
-56.4797
11
20.761
21
-56.4797
0
LINE
8
BLACK
6
CONTINUOUS
10
20.761
20
-56.4797
11
20.761
21
-36.9094
0
LINE
8
BLACK
6
CONTINUOUS
10
20.761
20
-36.9094
11
20.7627
21
-36.8997
0
LINE
8
BLACK
6
CONTINUOUS
10
20.7627
20
-36.8997
11
20.7621
21
-36.8964
0
LINE
8
BLACK
6
CONTINUOUS
10
20.7621
20
-36.8964
11
20.7638
21
-36.8935
0
LINE
8
BLACK
6
CONTINUOUS
10
20.7638
20
-36.8935
11
20.7655
21
-36.8838
0
LINE
8
BLACK
6
CONTINUOUS
10
20.7655
20
-36.8838
11
20.778
21
-36.8688
0
LINE
8
BLACK
6
CONTINUOUS
10
20.778
20
-36.8688
11
20.7877
21
-36.852
0
LINE
8
BLACK
6
CONTINUOUS
10
20.7877
20
-36.852
11
20.7941
21
-36.8496
0
LINE
8
BLACK
6
CONTINUOUS
10
20.7941
20
-36.8496
11
20.7985
21
-36.8445
0
LINE
8
BLACK
6
CONTINUOUS
10
20.7985
20
-36.8445
11
20.8176
21
-36.8411
0
LINE
8
BLACK
6
CONTINUOUS
10
20.8176
20
-36.8411
11
20.836
21
-36.8344
0
LINE
8
BLACK
6
CONTINUOUS
10
20.836
20
-36.8344
11
23.1422
21
-36.8344
0
LINE
8
BLACK
6
CONTINUOUS
10
23.1422
20
-36.8344
11
23.1422
21
-17.9345
0
LINE
8
BLACK
6
CONTINUOUS
10
23.1422
20
-17.9345
11
17.4408
21
-17.9457
0
LINE
8
BLACK
6
CONTINUOUS
10
17.4408
20
-17.9457
11
17.4152
21
-17.9412
0
LINE
8
BLACK
6
CONTINUOUS
10
17.4152
20
-17.9412
11
17.3858
21
-17.9166
0
LINE
8
BLACK
6
CONTINUOUS
10
17.3858
20
-17.9166
11
16.969
21
-17.9196
0
LINE
8
BLACK
6
CONTINUOUS
10
14.5892
20
-90.3317
11
14.6509
21
-90.0126
0
LINE
8
BLACK
6
CONTINUOUS
10
14.6509
20
-90.0126
11
14.7505
21
-89.7033
0
LINE
8
BLACK
6
CONTINUOUS
10
14.7505
20
-89.7033
11
14.8865
21
-89.4082
0
LINE
8
BLACK
6
CONTINUOUS
10
14.8865
20
-89.4082
11
15.0571
21
-89.1316
0
LINE
8
BLACK
6
CONTINUOUS
10
15.0571
20
-89.1316
11
15.2596
21
-88.8774
0
LINE
8
BLACK
6
CONTINUOUS
10
15.2596
20
-88.8774
11
15.4911
21
-88.6495
0
LINE
8
BLACK
6
CONTINUOUS
10
15.4911
20
-88.6495
11
15.7484
21
-88.451
0
LINE
8
BLACK
6
CONTINUOUS
10
15.7484
20
-88.451
11
16.0277
21
-88.2848
0
LINE
8
BLACK
6
CONTINUOUS
10
16.0277
20
-88.2848
11
16.3249
21
-88.1534
0
LINE
8
BLACK
6
CONTINUOUS
10
16.3249
20
-88.1534
11
16.6358
21
-88.0587
0
LINE
8
BLACK
6
CONTINUOUS
10
16.6358
20
-88.0587
11
16.9557
21
-88.002
0
LINE
8
BLACK
6
CONTINUOUS
10
16.9557
20
-88.002
11
17.2802
21
-87.9841
0
LINE
8
BLACK
6
CONTINUOUS
10
17.2802
20
-87.9841
11
17.6045
21
-88.0054
0
LINE
8
BLACK
6
CONTINUOUS
10
17.6045
20
-88.0054
11
17.9238
21
-88.0654
0
LINE
8
BLACK
6
CONTINUOUS
10
17.9238
20
-88.0654
11
18.2337
21
-88.1634
0
LINE
8
BLACK
6
CONTINUOUS
10
18.2337
20
-88.1634
11
18.5295
21
-88.2979
0
LINE
8
BLACK
6
CONTINUOUS
10
18.5295
20
-88.2979
11
18.807
21
-88.467
0
LINE
8
BLACK
6
CONTINUOUS
10
18.807
20
-88.467
11
19.0622
21
-88.6682
0
LINE
8
BLACK
6
CONTINUOUS
10
19.0622
20
-88.6682
11
19.2914
21
-88.8986
0
LINE
8
BLACK
6
CONTINUOUS
10
19.2914
20
-88.8986
11
19.4912
21
-89.1548
0
LINE
8
BLACK
6
CONTINUOUS
10
19.4912
20
-89.1548
11
19.6588
21
-89.4332
0
LINE
8
BLACK
6
CONTINUOUS
10
19.6588
20
-89.4332
11
19.7918
21
-89.7297
0
LINE
8
BLACK
6
CONTINUOUS
10
19.7918
20
-89.7297
11
19.8881
21
-90.0401
0
LINE
8
BLACK
6
CONTINUOUS
10
19.8881
20
-90.0401
11
19.9465
21
-90.3597
0
LINE
8
BLACK
6
CONTINUOUS
10
19.9465
20
-90.3597
11
19.9661
21
-90.6841
0
LINE
8
BLACK
6
CONTINUOUS
10
19.9661
20
-90.6841
11
19.9655
21
-90.7406
0
LINE
8
BLACK
6
CONTINUOUS
10
19.9655
20
-90.7406
11
19.9391
21
-91.0645
0
LINE
8
BLACK
6
CONTINUOUS
10
19.9391
20
-91.0645
11
19.8741
21
-91.3829
0
LINE
8
BLACK
6
CONTINUOUS
10
19.8741
20
-91.3829
11
19.7712
21
-91.6912
0
LINE
8
BLACK
6
CONTINUOUS
10
19.7712
20
-91.6912
11
19.6321
21
-91.9848
0
LINE
8
BLACK
6
CONTINUOUS
10
19.6321
20
-91.9848
11
19.4587
21
-92.2597
0
LINE
8
BLACK
6
CONTINUOUS
10
19.4587
20
-92.2597
11
19.2535
21
-92.5117
0
LINE
8
BLACK
6
CONTINUOUS
10
19.2535
20
-92.5117
11
19.0196
21
-92.7372
0
LINE
8
BLACK
6
CONTINUOUS
10
19.0196
20
-92.7372
11
18.7602
21
-92.933
0
LINE
8
BLACK
6
CONTINUOUS
10
18.7602
20
-92.933
11
18.4792
21
-93.0962
0
LINE
8
BLACK
6
CONTINUOUS
10
18.4792
20
-93.0962
11
18.1806
21
-93.2245
0
LINE
8
BLACK
6
CONTINUOUS
10
18.1806
20
-93.2245
11
17.8688
21
-93.316
0
LINE
8
BLACK
6
CONTINUOUS
10
17.8688
20
-93.316
11
17.5483
21
-93.3693
0
LINE
8
BLACK
6
CONTINUOUS
10
17.5483
20
-93.3693
11
17.2236
21
-93.3838
0
LINE
8
BLACK
6
CONTINUOUS
10
17.2236
20
-93.3838
11
16.8996
21
-93.3591
0
LINE
8
BLACK
6
CONTINUOUS
10
16.8996
20
-93.3591
11
16.5809
21
-93.2957
0
LINE
8
BLACK
6
CONTINUOUS
10
16.5809
20
-93.2957
11
16.2721
21
-93.1945
0
LINE
8
BLACK
6
CONTINUOUS
10
16.2721
20
-93.1945
11
15.9777
21
-93.0569
0
LINE
8
BLACK
6
CONTINUOUS
10
15.9777
20
-93.0569
11
15.702
21
-92.8849
0
LINE
8
BLACK
6
CONTINUOUS
10
15.702
20
-92.8849
11
15.4489
21
-92.6811
0
LINE
8
BLACK
6
CONTINUOUS
10
15.4489
20
-92.6811
11
15.2222
21
-92.4483
0
LINE
8
BLACK
6
CONTINUOUS
10
15.2222
20
-92.4483
11
15.025
21
-92.19
0
LINE
8
BLACK
6
CONTINUOUS
10
15.025
20
-92.19
11
14.8603
21
-91.9099
0
LINE
8
BLACK
6
CONTINUOUS
10
14.8603
20
-91.9099
11
14.7305
21
-91.612
0
LINE
8
BLACK
6
CONTINUOUS
10
14.7305
20
-91.612
11
14.6374
21
-91.3006
0
LINE
8
BLACK
6
CONTINUOUS
10
14.6374
20
-91.3006
11
14.5824
21
-90.9804
0
LINE
8
BLACK
6
CONTINUOUS
10
14.5824
20
-90.9804
11
14.5663
21
-90.6568
0
LINE
8
BLACK
6
CONTINUOUS
10
14.5663
20
-90.6568
11
14.5662
21
-90.6558
0
LINE
8
BLACK
6
CONTINUOUS
10
14.5662
20
-90.6558
11
14.5892
21
-90.3317
0
LINE
8
BLACK
6
CONTINUOUS
10
14.7301
20
-91.2789
11
14.8199
21
-91.5792
0
LINE
8
BLACK
6
CONTINUOUS
10
14.8199
20
-91.5792
11
14.9452
21
-91.8666
0
LINE
8
BLACK
6
CONTINUOUS
10
14.9452
20
-91.8666
11
15.1041
21
-92.1369
0
LINE
8
BLACK
6
CONTINUOUS
10
15.1041
20
-92.1369
11
15.2943
21
-92.3861
0
LINE
8
BLACK
6
CONTINUOUS
10
15.2943
20
-92.3861
11
15.513
21
-92.6107
0
LINE
8
BLACK
6
CONTINUOUS
10
15.513
20
-92.6107
11
15.7572
21
-92.8073
0
LINE
8
BLACK
6
CONTINUOUS
10
15.7572
20
-92.8073
11
16.0232
21
-92.9732
0
LINE
8
BLACK
6
CONTINUOUS
10
16.0232
20
-92.9732
11
16.3072
21
-93.1059
0
LINE
8
BLACK
6
CONTINUOUS
10
16.3072
20
-93.1059
11
16.6051
21
-93.2036
0
LINE
8
BLACK
6
CONTINUOUS
10
16.6051
20
-93.2036
11
16.9126
21
-93.2647
0
LINE
8
BLACK
6
CONTINUOUS
10
16.9126
20
-93.2647
11
17.2251
21
-93.2885
0
LINE
8
BLACK
6
CONTINUOUS
10
17.2251
20
-93.2885
11
17.5383
21
-93.2746
0
LINE
8
BLACK
6
CONTINUOUS
10
17.5383
20
-93.2746
11
17.8476
21
-93.2231
0
LINE
8
BLACK
6
CONTINUOUS
10
17.8476
20
-93.2231
11
18.1484
21
-93.1349
0
LINE
8
BLACK
6
CONTINUOUS
10
18.1484
20
-93.1349
11
18.4364
21
-93.0111
0
LINE
8
BLACK
6
CONTINUOUS
10
18.4364
20
-93.0111
11
18.7075
21
-92.8536
0
LINE
8
BLACK
6
CONTINUOUS
10
18.7075
20
-92.8536
11
18.9577
21
-92.6648
0
LINE
8
BLACK
6
CONTINUOUS
10
18.9577
20
-92.6648
11
19.1834
21
-92.4472
0
LINE
8
BLACK
6
CONTINUOUS
10
19.1834
20
-92.4472
11
19.3813
21
-92.2041
0
LINE
8
BLACK
6
CONTINUOUS
10
19.3813
20
-92.2041
11
19.5486
21
-91.9389
0
LINE
8
BLACK
6
CONTINUOUS
10
19.5486
20
-91.9389
11
19.6828
21
-91.6556
0
LINE
8
BLACK
6
CONTINUOUS
10
19.6828
20
-91.6556
11
19.7821
21
-91.3583
0
LINE
8
BLACK
6
CONTINUOUS
10
19.7821
20
-91.3583
11
19.8448
21
-91.0511
0
LINE
8
BLACK
6
CONTINUOUS
10
19.8448
20
-91.0511
11
19.8702
21
-90.7386
0
LINE
8
BLACK
6
CONTINUOUS
10
19.8702
20
-90.7386
11
19.8708
21
-90.6841
0
LINE
8
BLACK
6
CONTINUOUS
10
19.8708
20
-90.6841
11
19.8519
21
-90.3712
0
LINE
8
BLACK
6
CONTINUOUS
10
19.8519
20
-90.3712
11
19.7956
21
-90.0628
0
LINE
8
BLACK
6
CONTINUOUS
10
19.7956
20
-90.0628
11
19.7027
21
-89.7634
0
LINE
8
BLACK
6
CONTINUOUS
10
19.7027
20
-89.7634
11
19.5744
21
-89.4773
0
LINE
8
BLACK
6
CONTINUOUS
10
19.5744
20
-89.4773
11
19.4127
21
-89.2087
0
LINE
8
BLACK
6
CONTINUOUS
10
19.4127
20
-89.2087
11
19.2199
21
-88.9615
0
LINE
8
BLACK
6
CONTINUOUS
10
19.2199
20
-88.9615
11
18.9988
21
-88.7393
0
LINE
8
BLACK
6
CONTINUOUS
10
18.9988
20
-88.7393
11
18.7526
21
-88.5452
0
LINE
8
BLACK
6
CONTINUOUS
10
18.7526
20
-88.5452
11
18.4849
21
-88.3821
0
LINE
8
BLACK
6
CONTINUOUS
10
18.4849
20
-88.3821
11
18.1995
21
-88.2524
0
LINE
8
BLACK
6
CONTINUOUS
10
18.1995
20
-88.2524
11
17.9006
21
-88.1578
0
LINE
8
BLACK
6
CONTINUOUS
10
17.9006
20
-88.1578
11
17.5925
21
-88.0999
0
LINE
8
BLACK
6
CONTINUOUS
10
17.5925
20
-88.0999
11
17.2797
21
-88.0794
0
LINE
8
BLACK
6
CONTINUOUS
10
17.2797
20
-88.0794
11
16.9667
21
-88.0966
0
LINE
8
BLACK
6
CONTINUOUS
10
16.9667
20
-88.0966
11
16.658
21
-88.1513
0
LINE
8
BLACK
6
CONTINUOUS
10
16.658
20
-88.1513
11
16.3581
21
-88.2427
0
LINE
8
BLACK
6
CONTINUOUS
10
16.3581
20
-88.2427
11
16.0714
21
-88.3695
0
LINE
8
BLACK
6
CONTINUOUS
10
16.0714
20
-88.3695
11
15.802
21
-88.5298
0
LINE
8
BLACK
6
CONTINUOUS
10
15.802
20
-88.5298
11
15.5538
21
-88.7212
0
LINE
8
BLACK
6
CONTINUOUS
10
15.5538
20
-88.7212
11
15.3303
21
-88.9412
0
LINE
8
BLACK
6
CONTINUOUS
10
15.3303
20
-88.9412
11
15.135
21
-89.1863
0
LINE
8
BLACK
6
CONTINUOUS
10
15.135
20
-89.1863
11
14.9705
21
-89.4532
0
LINE
8
BLACK
6
CONTINUOUS
10
14.9705
20
-89.4532
11
14.8392
21
-89.7379
0
LINE
8
BLACK
6
CONTINUOUS
10
14.8392
20
-89.7379
11
14.7431
21
-90.0363
0
LINE
8
BLACK
6
CONTINUOUS
10
14.7431
20
-90.0363
11
14.6836
21
-90.3441
0
LINE
8
BLACK
6
CONTINUOUS
10
14.6836
20
-90.3441
11
14.6614
21
-90.6568
0
LINE
8
BLACK
6
CONTINUOUS
10
14.6614
20
-90.6568
11
14.677
21
-90.9699
0
LINE
8
BLACK
6
CONTINUOUS
10
14.677
20
-90.9699
11
14.7301
21
-91.2789
0
LINE
8
BLACK
6
CONTINUOUS
10
14.5721
20
-23.8502
11
14.6338
21
-23.5312
0
LINE
8
BLACK
6
CONTINUOUS
10
14.6338
20
-23.5312
11
14.7334
21
-23.2219
0
LINE
8
BLACK
6
CONTINUOUS
10
14.7334
20
-23.2219
11
14.8695
21
-22.9268
0
LINE
8
BLACK
6
CONTINUOUS
10
14.8695
20
-22.9268
11
15.04
21
-22.6501
0
LINE
8
BLACK
6
CONTINUOUS
10
15.04
20
-22.6501
11
15.2425
21
-22.396
0
LINE
8
BLACK
6
CONTINUOUS
10
15.2425
20
-22.396
11
15.4741
21
-22.168
0
LINE
8
BLACK
6
CONTINUOUS
10
15.4741
20
-22.168
11
15.7314
21
-21.9695
0
LINE
8
BLACK
6
CONTINUOUS
10
15.7314
20
-21.9695
11
16.0106
21
-21.8034
0
LINE
8
BLACK
6
CONTINUOUS
10
16.0106
20
-21.8034
11
16.3079
21
-21.672
0
LINE
8
BLACK
6
CONTINUOUS
10
16.3079
20
-21.672
11
16.6187
21
-21.5773
0
LINE
8
BLACK
6
CONTINUOUS
10
16.6187
20
-21.5773
11
16.9387
21
-21.5206
0
LINE
8
BLACK
6
CONTINUOUS
10
16.9387
20
-21.5206
11
17.2631
21
-21.5027
0
LINE
8
BLACK
6
CONTINUOUS
10
17.2631
20
-21.5027
11
17.5874
21
-21.5239
0
LINE
8
BLACK
6
CONTINUOUS
10
17.5874
20
-21.5239
11
17.9068
21
-21.584
0
LINE
8
BLACK
6
CONTINUOUS
10
17.9068
20
-21.584
11
18.2166
21
-21.682
0
LINE
8
BLACK
6
CONTINUOUS
10
18.2166
20
-21.682
11
18.5124
21
-21.8165
0
LINE
8
BLACK
6
CONTINUOUS
10
18.5124
20
-21.8165
11
18.7899
21
-21.9856
0
LINE
8
BLACK
6
CONTINUOUS
10
18.7899
20
-21.9856
11
19.0451
21
-22.1867
0
LINE
8
BLACK
6
CONTINUOUS
10
19.0451
20
-22.1867
11
19.2743
21
-22.4171
0
LINE
8
BLACK
6
CONTINUOUS
10
19.2743
20
-22.4171
11
19.4741
21
-22.6734
0
LINE
8
BLACK
6
CONTINUOUS
10
19.4741
20
-22.6734
11
19.6417
21
-22.9518
0
LINE
8
BLACK
6
CONTINUOUS
10
19.6417
20
-22.9518
11
19.7747
21
-23.2483
0
LINE
8
BLACK
6
CONTINUOUS
10
19.7747
20
-23.2483
11
19.8711
21
-23.5586
0
LINE
8
BLACK
6
CONTINUOUS
10
19.8711
20
-23.5586
11
19.9294
21
-23.8783
0
LINE
8
BLACK
6
CONTINUOUS
10
19.9294
20
-23.8783
11
19.949
21
-24.2027
0
LINE
8
BLACK
6
CONTINUOUS
10
19.949
20
-24.2027
11
19.9484
21
-24.2592
0
LINE
8
BLACK
6
CONTINUOUS
10
19.9484
20
-24.2592
11
19.9221
21
-24.5831
0
LINE
8
BLACK
6
CONTINUOUS
10
19.9221
20
-24.5831
11
19.857
21
-24.9015
0
LINE
8
BLACK
6
CONTINUOUS
10
19.857
20
-24.9015
11
19.7542
21
-25.2097
0
LINE
8
BLACK
6
CONTINUOUS
10
19.7542
20
-25.2097
11
19.615
21
-25.5034
0
LINE
8
BLACK
6
CONTINUOUS
10
19.615
20
-25.5034
11
19.4416
21
-25.7782
0
LINE
8
BLACK
6
CONTINUOUS
10
19.4416
20
-25.7782
11
19.2365
21
-26.0302
0
LINE
8
BLACK
6
CONTINUOUS
10
19.2365
20
-26.0302
11
19.0025
21
-26.2558
0
LINE
8
BLACK
6
CONTINUOUS
10
19.0025
20
-26.2558
11
18.7432
21
-26.4515
0
LINE
8
BLACK
6
CONTINUOUS
10
18.7432
20
-26.4515
11
18.4622
21
-26.6148
0
LINE
8
BLACK
6
CONTINUOUS
10
18.4622
20
-26.6148
11
18.1636
21
-26.743
0
LINE
8
BLACK
6
CONTINUOUS
10
18.1636
20
-26.743
11
17.8518
21
-26.8345
0
LINE
8
BLACK
6
CONTINUOUS
10
17.8518
20
-26.8345
11
17.5312
21
-26.8879
0
LINE
8
BLACK
6
CONTINUOUS
10
17.5312
20
-26.8879
11
17.2066
21
-26.9023
0
LINE
8
BLACK
6
CONTINUOUS
10
17.2066
20
-26.9023
11
16.8826
21
-26.8777
0
LINE
8
BLACK
6
CONTINUOUS
10
16.8826
20
-26.8777
11
16.5639
21
-26.8143
0
LINE
8
BLACK
6
CONTINUOUS
10
16.5639
20
-26.8143
11
16.2551
21
-26.7131
0
LINE
8
BLACK
6
CONTINUOUS
10
16.2551
20
-26.7131
11
15.9607
21
-26.5755
0
LINE
8
BLACK
6
CONTINUOUS
10
15.9607
20
-26.5755
11
15.6849
21
-26.4035
0
LINE
8
BLACK
6
CONTINUOUS
10
15.6849
20
-26.4035
11
15.4319
21
-26.1997
0
LINE
8
BLACK
6
CONTINUOUS
10
15.4319
20
-26.1997
11
15.2051
21
-25.9669
0
LINE
8
BLACK
6
CONTINUOUS
10
15.2051
20
-25.9669
11
15.008
21
-25.7086
0
LINE
8
BLACK
6
CONTINUOUS
10
15.008
20
-25.7086
11
14.8433
21
-25.4284
0
LINE
8
BLACK
6
CONTINUOUS
10
14.8433
20
-25.4284
11
14.7134
21
-25.1305
0
LINE
8
BLACK
6
CONTINUOUS
10
14.7134
20
-25.1305
11
14.6203
21
-24.8192
0
LINE
8
BLACK
6
CONTINUOUS
10
14.6203
20
-24.8192
11
14.5653
21
-24.4989
0
LINE
8
BLACK
6
CONTINUOUS
10
14.5653
20
-24.4989
11
14.5492
21
-24.1754
0
LINE
8
BLACK
6
CONTINUOUS
10
14.5492
20
-24.1754
11
14.5491
21
-24.1744
0
LINE
8
BLACK
6
CONTINUOUS
10
14.5491
20
-24.1744
11
14.5721
21
-23.8502
0
LINE
8
BLACK
6
CONTINUOUS
10
14.7131
20
-24.7975
11
14.8029
21
-25.0978
0
LINE
8
BLACK
6
CONTINUOUS
10
14.8029
20
-25.0978
11
14.9281
21
-25.3852
0
LINE
8
BLACK
6
CONTINUOUS
10
14.9281
20
-25.3852
11
15.087
21
-25.6554
0
LINE
8
BLACK
6
CONTINUOUS
10
15.087
20
-25.6554
11
15.2772
21
-25.9047
0
LINE
8
BLACK
6
CONTINUOUS
10
15.2772
20
-25.9047
11
15.496
21
-26.1292
0
LINE
8
BLACK
6
CONTINUOUS
10
15.496
20
-26.1292
11
15.7401
21
-26.3259
0
LINE
8
BLACK
6
CONTINUOUS
10
15.7401
20
-26.3259
11
16.0061
21
-26.4918
0
LINE
8
BLACK
6
CONTINUOUS
10
16.0061
20
-26.4918
11
16.2901
21
-26.6245
0
LINE
8
BLACK
6
CONTINUOUS
10
16.2901
20
-26.6245
11
16.588
21
-26.7222
0
LINE
8
BLACK
6
CONTINUOUS
10
16.588
20
-26.7222
11
16.8955
21
-26.7833
0
LINE
8
BLACK
6
CONTINUOUS
10
16.8955
20
-26.7833
11
17.2081
21
-26.8071
0
LINE
8
BLACK
6
CONTINUOUS
10
17.2081
20
-26.8071
11
17.5213
21
-26.7931
0
LINE
8
BLACK
6
CONTINUOUS
10
17.5213
20
-26.7931
11
17.8305
21
-26.7417
0
LINE
8
BLACK
6
CONTINUOUS
10
17.8305
20
-26.7417
11
18.1313
21
-26.6534
0
LINE
8
BLACK
6
CONTINUOUS
10
18.1313
20
-26.6534
11
18.4194
21
-26.5297
0
LINE
8
BLACK
6
CONTINUOUS
10
18.4194
20
-26.5297
11
18.6904
21
-26.3722
0
LINE
8
BLACK
6
CONTINUOUS
10
18.6904
20
-26.3722
11
18.9407
21
-26.1833
0
LINE
8
BLACK
6
CONTINUOUS
10
18.9407
20
-26.1833
11
19.1663
21
-25.9658
0
LINE
8
BLACK
6
CONTINUOUS
10
19.1663
20
-25.9658
11
19.3643
21
-25.7226
0
LINE
8
BLACK
6
CONTINUOUS
10
19.3643
20
-25.7226
11
19.5316
21
-25.4575
0
LINE
8
BLACK
6
CONTINUOUS
10
19.5316
20
-25.4575
11
19.6658
21
-25.1742
0
LINE
8
BLACK
6
CONTINUOUS
10
19.6658
20
-25.1742
11
19.765
21
-24.8768
0
LINE
8
BLACK
6
CONTINUOUS
10
19.765
20
-24.8768
11
19.8278
21
-24.5697
0
LINE
8
BLACK
6
CONTINUOUS
10
19.8278
20
-24.5697
11
19.8532
21
-24.2572
0
LINE
8
BLACK
6
CONTINUOUS
10
19.8532
20
-24.2572
11
19.8538
21
-24.2027
0
LINE
8
BLACK
6
CONTINUOUS
10
19.8538
20
-24.2027
11
19.8349
21
-23.8897
0
LINE
8
BLACK
6
CONTINUOUS
10
19.8349
20
-23.8897
11
19.7786
21
-23.5813
0
LINE
8
BLACK
6
CONTINUOUS
10
19.7786
20
-23.5813
11
19.6856
21
-23.2819
0
LINE
8
BLACK
6
CONTINUOUS
10
19.6856
20
-23.2819
11
19.5573
21
-22.9959
0
LINE
8
BLACK
6
CONTINUOUS
10
19.5573
20
-22.9959
11
19.3956
21
-22.7273
0
LINE
8
BLACK
6
CONTINUOUS
10
19.3956
20
-22.7273
11
19.2029
21
-22.4801
0
LINE
8
BLACK
6
CONTINUOUS
10
19.2029
20
-22.4801
11
18.9818
21
-22.2579
0
LINE
8
BLACK
6
CONTINUOUS
10
18.9818
20
-22.2579
11
18.7356
21
-22.0638
0
LINE
8
BLACK
6
CONTINUOUS
10
18.7356
20
-22.0638
11
18.4678
21
-21.9007
0
LINE
8
BLACK
6
CONTINUOUS
10
18.4678
20
-21.9007
11
18.1825
21
-21.7709
0
LINE
8
BLACK
6
CONTINUOUS
10
18.1825
20
-21.7709
11
17.8836
21
-21.6764
0
LINE
8
BLACK
6
CONTINUOUS
10
17.8836
20
-21.6764
11
17.5755
21
-21.6184
0
LINE
8
BLACK
6
CONTINUOUS
10
17.5755
20
-21.6184
11
17.2626
21
-21.5979
0
LINE
8
BLACK
6
CONTINUOUS
10
17.2626
20
-21.5979
11
16.9496
21
-21.6152
0
LINE
8
BLACK
6
CONTINUOUS
10
16.9496
20
-21.6152
11
16.6409
21
-21.6699
0
LINE
8
BLACK
6
CONTINUOUS
10
16.6409
20
-21.6699
11
16.3411
21
-21.7613
0
LINE
8
BLACK
6
CONTINUOUS
10
16.3411
20
-21.7613
11
16.0543
21
-21.888
0
LINE
8
BLACK
6
CONTINUOUS
10
16.0543
20
-21.888
11
15.7849
21
-22.0483
0
LINE
8
BLACK
6
CONTINUOUS
10
15.7849
20
-22.0483
11
15.5367
21
-22.2398
0
LINE
8
BLACK
6
CONTINUOUS
10
15.5367
20
-22.2398
11
15.3133
21
-22.4597
0
LINE
8
BLACK
6
CONTINUOUS
10
15.3133
20
-22.4597
11
15.1179
21
-22.7049
0
LINE
8
BLACK
6
CONTINUOUS
10
15.1179
20
-22.7049
11
14.9534
21
-22.9718
0
LINE
8
BLACK
6
CONTINUOUS
10
14.9534
20
-22.9718
11
14.8222
21
-23.2565
0
LINE
8
BLACK
6
CONTINUOUS
10
14.8222
20
-23.2565
11
14.7261
21
-23.5549
0
LINE
8
BLACK
6
CONTINUOUS
10
14.7261
20
-23.5549
11
14.6665
21
-23.8627
0
LINE
8
BLACK
6
CONTINUOUS
10
14.6665
20
-23.8627
11
14.6444
21
-24.1754
0
LINE
8
BLACK
6
CONTINUOUS
10
14.6444
20
-24.1754
11
14.66
21
-24.4885
0
LINE
8
BLACK
6
CONTINUOUS
10
14.66
20
-24.4885
11
14.7131
21
-24.7975
  0
ENDSEC
  0
EOF
