  0
SECTION
  2
HEADER
  9
$ANGBASE
  50
0.0
  9
$ANGDIR
  70
1
  9
$MEASUREMENT
  70
1
  0
ENDSEC
  0
SECTION
  2
TABLES
  0
TABLE
  2
LTYPE
  70
4
  0
LTYPE
  5
40F
  2
CONTINUOUS
  70
0
  3
Solid line
  72
65
  73
0
  40
0.0
  0
LTYPE
  5
410
  2
DASHDOT
 70
0
  3
Dash Dot ____ _ ____ _
 72
65
 73
4
 40
2.0
 49
1.25
 49
-0.25
 49
0.25
 49
-0.25
  0
LTYPE
  5
411
  2
DASHED
 70
0
  3
Dashed __ __ __ __ __
 72
65
 73
2
 40
0.75
 49
0.5
 49
-0.25
  0
LTYPE
  5
43B
  2
DOTTED
 70
0
  3
Dotted .  .  .  .
 72
65
 73
2
 40
0.2
 49
0.0
 49
-0.2
  0
ENDTAB
  0
TABLE
  2
STYLE
  70
4
  0
STYLE
  2
KICAD
  70
0
  40
0
  41
1
  42
1
  50
0
  71
0
  3
isocp.shx
  0
STYLE
  2
KICADB
  70
0
  40
0
  41
1
  42
1
  50
0
  71
0
  3
isocp.shx
  0
STYLE
  2
KICADI
  70
0
  40
0
  41
1
  42
1
  50
15
  71
0
  3
isocp.shx
  0
STYLE
  2
KICADBI
  70
0
  40
0
  41
1
  42
1
  50
15
  71
0
  3
isocp.shx
  0
ENDTAB
  0
TABLE
  2
LAYER
  70
1
  0
LAYER
  2
BLACK
  70
0
  62
7
  6
CONTINUOUS
  0
ENDTAB
  0
ENDSEC
  0
SECTION
  2
ENTITIES
0
LINE
8
BLACK
6
CONTINUOUS
10
10.917
20
-90.4937
11
10.917
21
-24.011
0
LINE
8
BLACK
6
CONTINUOUS
10
69.0563
20
-98.2266
11
88.7016
21
-101.203
0
ARC
8
BLACK
10
258.961
20
-89.297
40
6.5484
50
-90.0004
51
0.000437479
0
LINE
8
BLACK
6
CONTINUOUS
10
123.23
20
-27.9797
11
145.852
21
-27.9797
0
LINE
8
BLACK
6
CONTINUOUS
10
51.7922
20
-97.036
11
17.2641
21
-97.036
0
ARC
8
BLACK
10
258.961
20
-23.8125
40
5.95311
50
-0.000192491
51
90.0004
0
LINE
8
BLACK
6
CONTINUOUS
10
227.41
20
-95.8454
11
258.961
21
-95.8454
0
ARC
8
BLACK
10
17.249
20
-24.2027
40
6.33491
50
88.2659
51
178.266
0
LINE
8
BLACK
6
CONTINUOUS
10
184.547
20
-20.836
11
205.978
21
-19.05
0
CIRCLE
8
BLACK
10
139.303
20
-77.3907
40
2.65
0
LINE
8
BLACK
6
CONTINUOUS
10
209.55
20
-97.036
11
189.905
21
-100.013
0
LINE
8
BLACK
6
CONTINUOUS
10
104.775
20
-24.4078
11
123.23
21
-27.9797
0
LINE
8
BLACK
6
CONTINUOUS
10
88.7016
20
-101.203
11
121.444
21
-108.347
0
LINE
8
BLACK
6
CONTINUOUS
10
145.852
20
-27.9797
11
164.306
21
-24.4078
0
LINE
8
BLACK
6
CONTINUOUS
10
164.306
20
-24.4078
11
184.547
21
-20.836
0
LINE
8
BLACK
6
CONTINUOUS
10
17.4407
20
-17.8707
11
44.0532
21
-17.8594
0
CIRCLE
8
BLACK
10
258.564
20
-24.2095
40
2.65
0
LINE
8
BLACK
6
CONTINUOUS
10
227.41
20
-95.8454
11
209.55
21
-97.036
0
LINE
8
BLACK
6
CONTINUOUS
10
44.0532
20
-17.8594
11
63.1032
21
-19.05
0
LINE
8
BLACK
6
CONTINUOUS
10
121.444
20
-108.347
11
157.163
21
-108.347
0
LINE
8
BLACK
6
CONTINUOUS
10
265.51
20
-89.2969
11
264.914
21
-23.8125
0
ARC
8
BLACK
10
17.2641
20
-90.686
40
6.35
50
-181.736
51
-90
0
CIRCLE
8
BLACK
10
17.2641
20
-90.686
40
2.65
0
LINE
8
BLACK
6
CONTINUOUS
10
258.961
20
-17.8594
11
225.028
21
-17.8594
0
LINE
8
BLACK
6
CONTINUOUS
10
84.5344
20
-20.836
11
104.775
21
-24.4078
0
LINE
8
BLACK
6
CONTINUOUS
10
51.7922
20
-97.036
11
69.0563
21
-98.2266
0
CIRCLE
8
BLACK
10
17.249
20
-24.2027
40
2.65
0
LINE
8
BLACK
6
CONTINUOUS
10
157.163
20
-108.347
11
189.905
21
-100.013
0
CIRCLE
8
BLACK
10
259.159
20
-89.495
40
2.65
0
LINE
8
BLACK
6
CONTINUOUS
10
205.978
20
-19.05
11
225.028
21
-17.8594
0
LINE
8
BLACK
6
CONTINUOUS
10
63.1032
20
-19.05
11
84.5344
21
-20.836
  0
ENDSEC
  0
EOF
