  0
SECTION
  2
HEADER
  9
$ANGBASE
  50
0.0
  9
$ANGDIR
  70
1
  9
$MEASUREMENT
  70
1
  0
ENDSEC
  0
SECTION
  2
TABLES
  0
TABLE
  2
LTYPE
  70
4
  0
LTYPE
  5
40F
  2
CONTINUOUS
  70
0
  3
Solid line
  72
65
  73
0
  40
0.0
  0
LTYPE
  5
410
  2
DASHDOT
 70
0
  3
Dash Dot ____ _ ____ _
 72
65
 73
4
 40
2.0
 49
1.25
 49
-0.25
 49
0.25
 49
-0.25
  0
LTYPE
  5
411
  2
DASHED
 70
0
  3
Dashed __ __ __ __ __
 72
65
 73
2
 40
0.75
 49
0.5
 49
-0.25
  0
LTYPE
  5
43B
  2
DOTTED
 70
0
  3
Dotted .  .  .  .
 72
65
 73
2
 40
0.2
 49
0.0
 49
-0.2
  0
ENDTAB
  0
TABLE
  2
STYLE
  70
4
  0
STYLE
  2
KICAD
  70
0
  40
0
  41
1
  42
1
  50
0
  71
0
  3
isocp.shx
  0
STYLE
  2
KICADB
  70
0
  40
0
  41
1
  42
1
  50
0
  71
0
  3
isocp.shx
  0
STYLE
  2
KICADI
  70
0
  40
0
  41
1
  42
1
  50
15
  71
0
  3
isocp.shx
  0
STYLE
  2
KICADBI
  70
0
  40
0
  41
1
  42
1
  50
15
  71
0
  3
isocp.shx
  0
ENDTAB
  0
TABLE
  2
LAYER
  70
1
  0
LAYER
  2
BLACK
  70
0
  62
7
  6
CONTINUOUS
  0
ENDTAB
  0
ENDSEC
  0
SECTION
  2
ENTITIES
0
LINE
8
BLACK
6
CONTINUOUS
10
10.917
20
-90.4937
11
10.917
21
-24.011
0
LINE
8
BLACK
6
CONTINUOUS
10
69.0563
20
-98.2266
11
88.7016
21
-101.203
0
ARC
8
BLACK
10
258.961
20
-89.297
40
6.5484
50
-90.0004
51
0.000437479
0
LINE
8
BLACK
6
CONTINUOUS
10
123.23
20
-27.9797
11
145.852
21
-27.9797
0
LINE
8
BLACK
6
CONTINUOUS
10
51.7922
20
-97.036
11
17.2641
21
-97.036
0
ARC
8
BLACK
10
258.961
20
-23.8125
40
5.95311
50
-0.000192491
51
90.0004
0
LINE
8
BLACK
6
CONTINUOUS
10
227.41
20
-95.8454
11
258.961
21
-95.8454
0
ARC
8
BLACK
10
17.249
20
-24.2027
40
6.33491
50
88.2659
51
178.266
0
LINE
8
BLACK
6
CONTINUOUS
10
184.547
20
-20.836
11
205.978
21
-19.05
0
CIRCLE
8
BLACK
10
139.303
20
-77.3907
40
2.65
0
LINE
8
BLACK
6
CONTINUOUS
10
209.55
20
-97.036
11
189.905
21
-100.013
0
LINE
8
BLACK
6
CONTINUOUS
10
104.775
20
-24.4078
11
123.23
21
-27.9797
0
LINE
8
BLACK
6
CONTINUOUS
10
88.7016
20
-101.203
11
121.444
21
-108.347
0
LINE
8
BLACK
6
CONTINUOUS
10
145.852
20
-27.9797
11
164.306
21
-24.4078
0
LINE
8
BLACK
6
CONTINUOUS
10
164.306
20
-24.4078
11
184.547
21
-20.836
0
LINE
8
BLACK
6
CONTINUOUS
10
17.4407
20
-17.8707
11
44.0532
21
-17.8594
0
CIRCLE
8
BLACK
10
258.564
20
-24.2095
40
2.65
0
LINE
8
BLACK
6
CONTINUOUS
10
227.41
20
-95.8454
11
209.55
21
-97.036
0
LINE
8
BLACK
6
CONTINUOUS
10
44.0532
20
-17.8594
11
63.1032
21
-19.05
0
LINE
8
BLACK
6
CONTINUOUS
10
121.444
20
-108.347
11
157.163
21
-108.347
0
LINE
8
BLACK
6
CONTINUOUS
10
265.51
20
-89.2969
11
264.914
21
-23.8125
0
ARC
8
BLACK
10
17.2641
20
-90.686
40
6.35
50
-181.736
51
-90
0
CIRCLE
8
BLACK
10
17.2641
20
-90.686
40
2.65
0
LINE
8
BLACK
6
CONTINUOUS
10
258.961
20
-17.8594
11
225.028
21
-17.8594
0
LINE
8
BLACK
6
CONTINUOUS
10
84.5344
20
-20.836
11
104.775
21
-24.4078
0
LINE
8
BLACK
6
CONTINUOUS
10
51.7922
20
-97.036
11
69.0563
21
-98.2266
0
CIRCLE
8
BLACK
10
17.249
20
-24.2027
40
2.65
0
LINE
8
BLACK
6
CONTINUOUS
10
157.163
20
-108.347
11
189.905
21
-100.013
0
CIRCLE
8
BLACK
10
259.159
20
-89.495
40
2.65
0
LINE
8
BLACK
6
CONTINUOUS
10
205.978
20
-19.05
11
225.028
21
-17.8594
0
LINE
8
BLACK
6
CONTINUOUS
10
63.1032
20
-19.05
11
84.5344
21
-20.836
0
LINE
8
BLACK
6
CONTINUOUS
10
122.039
20
-50.6016
11
117.872
21
-67.8657
0
LINE
8
BLACK
6
CONTINUOUS
10
114.895
20
-48.8157
11
122.039
21
-50.6016
0
LINE
8
BLACK
6
CONTINUOUS
10
160.735
20
-66.6751
11
155.972
21
-46.4344
0
LINE
8
BLACK
6
CONTINUOUS
10
26.7891
20
-23.2172
11
26.7891
21
-27.3844
0
LINE
8
BLACK
6
CONTINUOUS
10
190.5
20
-29.1703
11
180.975
21
-30.9563
0
LINE
8
BLACK
6
CONTINUOUS
10
90.4876
20
-81.5579
11
104.18
21
-83.9391
0
LINE
8
BLACK
6
CONTINUOUS
10
57.15
20
-26.7891
11
67.2704
21
-27.9797
0
LINE
8
BLACK
6
CONTINUOUS
10
33.9328
20
-23.2172
11
26.7891
21
-23.2172
0
LINE
8
BLACK
6
CONTINUOUS
10
117.872
20
-67.8657
11
128.588
21
-70.2469
0
LINE
8
BLACK
6
CONTINUOUS
10
231.577
20
-26.1938
11
220.266
21
-26.1938
0
LINE
8
BLACK
6
CONTINUOUS
10
153.591
20
-86.3204
11
150.019
21
-69.0563
0
LINE
8
BLACK
6
CONTINUOUS
10
231.577
20
-20.836
11
231.577
21
-26.1938
0
LINE
8
BLACK
6
CONTINUOUS
10
144.661
20
-63.1032
11
144.661
21
-32.1469
0
LINE
8
BLACK
6
CONTINUOUS
10
106.561
20
-97.6313
11
116.086
21
-100.013
0
LINE
8
BLACK
6
CONTINUOUS
10
142.875
20
-89.2969
11
134.541
21
-89.2969
0
LINE
8
BLACK
6
CONTINUOUS
10
210.145
20
-27.3844
11
200.62
21
-27.9797
0
LINE
8
BLACK
6
CONTINUOUS
10
133.945
20
-41.6719
11
133.945
21
-50.0063
0
LINE
8
BLACK
6
CONTINUOUS
10
26.7891
20
-69.0563
11
31.5516
21
-69.0563
0
LINE
8
BLACK
6
CONTINUOUS
10
45.2438
20
-88.7016
11
60.1266
21
-90.4876
0
LINE
8
BLACK
6
CONTINUOUS
10
31.5516
20
-69.0563
11
31.5516
21
-85.7251
0
LINE
8
BLACK
6
CONTINUOUS
10
124.42
20
-87.511
11
128.588
21
-70.2469
0
LINE
8
BLACK
6
CONTINUOUS
10
152.995
20
-47.0297
11
155.972
21
-46.4344
0
LINE
8
BLACK
6
CONTINUOUS
10
181.57
20
-94.6548
11
165.497
21
-98.2266
0
LINE
8
BLACK
6
CONTINUOUS
10
86.9157
20
-30.361
11
87.511
21
-25.0031
0
LINE
8
BLACK
6
CONTINUOUS
10
249.436
20
-39.886
11
249.436
21
-66.0797
0
LINE
8
BLACK
6
CONTINUOUS
10
57.7454
20
-21.4313
11
57.15
21
-26.7891
0
LINE
8
BLACK
6
CONTINUOUS
10
31.5516
20
-88.1063
11
45.2438
21
-88.7016
0
LINE
8
BLACK
6
CONTINUOUS
10
249.436
20
-66.0797
11
250.031
21
-88.1063
0
LINE
8
BLACK
6
CONTINUOUS
10
244.674
20
-39.886
11
249.436
21
-39.886
0
LINE
8
BLACK
6
CONTINUOUS
10
169.664
20
-27.0867
11
170.855
21
-32.1469
0
LINE
8
BLACK
6
CONTINUOUS
10
189.905
20
-24.1102
11
190.5
21
-29.1703
0
LINE
8
BLACK
6
CONTINUOUS
10
119.658
20
-30.361
11
117.872
21
-37.5047
0
LINE
8
BLACK
6
CONTINUOUS
10
77.3907
20
-23.2172
11
67.8657
21
-22.6219
0
LINE
8
BLACK
6
CONTINUOUS
10
244.674
20
-26.1938
11
244.674
21
-39.886
0
LINE
8
BLACK
6
CONTINUOUS
10
141.089
20
-63.1032
11
144.661
21
-63.1032
0
LINE
8
BLACK
6
CONTINUOUS
10
119.063
20
-86.3204
11
124.42
21
-87.511
0
LINE
8
BLACK
6
CONTINUOUS
10
162.52
20
-84.5344
11
153.591
21
-86.3204
0
LINE
8
BLACK
6
CONTINUOUS
10
104.18
20
-83.9391
11
100.013
21
-95.8454
0
LINE
8
BLACK
6
CONTINUOUS
10
170.855
20
-32.1469
11
161.33
21
-33.9328
0
LINE
8
BLACK
6
CONTINUOUS
10
149.424
20
-31.5516
11
152.995
21
-47.0297
0
LINE
8
BLACK
6
CONTINUOUS
10
150.019
20
-69.0563
11
160.735
21
-66.6751
0
LINE
8
BLACK
6
CONTINUOUS
10
97.036
20
-31.5516
11
106.561
21
-33.3375
0
LINE
8
BLACK
6
CONTINUOUS
10
149.424
20
-31.5516
11
159.544
21
-28.575
0
LINE
8
BLACK
6
CONTINUOUS
10
77.3907
20
-23.2172
11
77.3907
21
-29.1703
0
LINE
8
BLACK
6
CONTINUOUS
10
133.945
20
-50.0063
11
141.089
21
-50.0063
0
LINE
8
BLACK
6
CONTINUOUS
10
240.506
20
-88.1063
11
229.791
21
-88.7016
0
LINE
8
BLACK
6
CONTINUOUS
10
116.086
20
-100.013
11
119.063
21
-86.3204
0
LINE
8
BLACK
6
CONTINUOUS
10
37.5047
20
-20.836
11
33.9328
21
-20.836
0
LINE
8
BLACK
6
CONTINUOUS
10
97.6313
20
-26.1938
11
97.036
21
-31.5516
0
LINE
8
BLACK
6
CONTINUOUS
10
26.7891
20
-66.6751
11
26.7891
21
-69.0563
0
LINE
8
BLACK
6
CONTINUOUS
10
200.62
20
-27.9797
11
200.025
21
-22.6219
0
LINE
8
BLACK
6
CONTINUOUS
10
141.089
20
-50.0063
11
141.089
21
-63.1032
0
LINE
8
BLACK
6
CONTINUOUS
10
26.7891
20
-47.0297
11
26.7891
21
-66.6751
0
LINE
8
BLACK
6
CONTINUOUS
10
191.095
20
-79.7719
11
178.594
21
-81.5579
0
LINE
8
BLACK
6
CONTINUOUS
10
134.541
20
-89.2969
11
134.541
21
-95.2501
0
LINE
8
BLACK
6
CONTINUOUS
10
129.183
20
-63.1032
11
125.611
21
-63.1032
0
LINE
8
BLACK
6
CONTINUOUS
10
210.145
20
-21.7289
11
210.145
21
-27.3844
0
LINE
8
BLACK
6
CONTINUOUS
10
142.875
20
-95.2501
11
142.875
21
-89.2969
0
LINE
8
BLACK
6
CONTINUOUS
10
88.7016
20
-93.4641
11
90.4876
21
-81.5579
0
LINE
8
BLACK
6
CONTINUOUS
10
129.183
20
-32.1469
11
129.183
21
-63.1032
0
LINE
8
BLACK
6
CONTINUOUS
10
242.292
20
-26.1938
11
244.674
21
-26.1938
0
LINE
8
BLACK
6
CONTINUOUS
10
144.661
20
-32.1469
11
141.089
21
-32.1469
0
LINE
8
BLACK
6
CONTINUOUS
10
68.461
20
-91.6782
11
88.7016
21
-93.4641
0
LINE
8
BLACK
6
CONTINUOUS
10
37.5047
20
-26.1938
11
47.625
21
-26.1938
0
LINE
8
BLACK
6
CONTINUOUS
10
26.7891
20
-27.3844
11
26.7891
21
-47.0297
0
LINE
8
BLACK
6
CONTINUOUS
10
31.5516
20
-85.7251
11
31.5516
21
-88.1063
0
LINE
8
BLACK
6
CONTINUOUS
10
37.5047
20
-20.836
11
37.5047
21
-26.1938
0
LINE
8
BLACK
6
CONTINUOUS
10
207.764
20
-90.4876
11
192.881
21
-92.2735
0
LINE
8
BLACK
6
CONTINUOUS
10
210.145
20
-21.7289
11
220.266
21
-20.836
0
LINE
8
BLACK
6
CONTINUOUS
10
67.2704
20
-27.9797
11
67.8657
21
-22.6219
0
LINE
8
BLACK
6
CONTINUOUS
10
106.561
20
-33.3375
11
107.752
21
-28.575
0
LINE
8
BLACK
6
CONTINUOUS
10
116.086
20
-29.7656
11
107.752
21
-28.575
0
LINE
8
BLACK
6
CONTINUOUS
10
189.905
20
-24.1102
11
200.025
21
-22.6219
0
LINE
8
BLACK
6
CONTINUOUS
10
117.872
20
-37.5047
11
114.895
21
-48.8157
0
LINE
8
BLACK
6
CONTINUOUS
10
97.6313
20
-26.1938
11
87.511
21
-25.0031
0
LINE
8
BLACK
6
CONTINUOUS
10
169.664
20
-27.0867
11
179.785
21
-25.0031
0
LINE
8
BLACK
6
CONTINUOUS
10
106.561
20
-97.6313
11
100.013
21
-95.8454
0
LINE
8
BLACK
6
CONTINUOUS
10
220.266
20
-26.1938
11
220.266
21
-20.836
0
LINE
8
BLACK
6
CONTINUOUS
10
60.1266
20
-90.4876
11
68.461
21
-91.6782
0
LINE
8
BLACK
6
CONTINUOUS
10
57.7454
20
-21.4313
11
48.2204
21
-20.836
0
LINE
8
BLACK
6
CONTINUOUS
10
161.33
20
-33.9328
11
159.544
21
-28.575
0
LINE
8
BLACK
6
CONTINUOUS
10
125.611
20
-63.1032
11
125.611
21
-32.1469
0
LINE
8
BLACK
6
CONTINUOUS
10
125.611
20
-32.1469
11
129.183
21
-32.1469
0
LINE
8
BLACK
6
CONTINUOUS
10
192.881
20
-92.2735
11
191.095
21
-79.7719
0
LINE
8
BLACK
6
CONTINUOUS
10
77.3907
20
-29.1703
11
86.9157
21
-30.361
0
LINE
8
BLACK
6
CONTINUOUS
10
250.031
20
-88.1063
11
240.506
21
-88.1063
0
LINE
8
BLACK
6
CONTINUOUS
10
141.089
20
-32.1469
11
141.089
21
-41.6719
0
LINE
8
BLACK
6
CONTINUOUS
10
134.541
20
-95.2501
11
142.875
21
-95.2501
0
LINE
8
BLACK
6
CONTINUOUS
10
116.086
20
-29.7656
11
119.658
21
-30.361
0
LINE
8
BLACK
6
CONTINUOUS
10
47.625
20
-26.1938
11
48.2204
21
-20.836
0
LINE
8
BLACK
6
CONTINUOUS
10
180.975
20
-30.9563
11
179.785
21
-25.0031
0
LINE
8
BLACK
6
CONTINUOUS
10
33.9328
20
-20.836
11
33.9328
21
-23.2172
0
LINE
8
BLACK
6
CONTINUOUS
10
231.577
20
-20.836
11
242.292
21
-20.836
0
LINE
8
BLACK
6
CONTINUOUS
10
229.791
20
-88.7016
11
207.764
21
-90.4876
0
LINE
8
BLACK
6
CONTINUOUS
10
141.089
20
-41.6719
11
133.945
21
-41.6719
0
LINE
8
BLACK
6
CONTINUOUS
10
242.292
20
-20.836
11
242.292
21
-26.1938
0
LINE
8
BLACK
6
CONTINUOUS
10
165.497
20
-98.2266
11
162.52
21
-84.5344
0
LINE
8
BLACK
6
CONTINUOUS
10
178.594
20
-81.5579
11
181.57
21
-94.6548
  0
ENDSEC
  0
EOF
