%TF.GenerationSoftware,KiCad,Pcbnew,(6.0.4)*%
%TF.CreationDate,2022-10-11T12:11:30-07:00*%
%TF.ProjectId,tiddlywink,74696464-6c79-4776-996e-6b2e6b696361,rev?*%
%TF.SameCoordinates,Original*%
%TF.FileFunction,Paste,Bot*%
%TF.FilePolarity,Positive*%
%FSLAX46Y46*%
G04 Gerber Fmt 4.6, Leading zero omitted, Abs format (unit mm)*
G04 Created by KiCad (PCBNEW (6.0.4)) date 2022-10-11 12:11:30*
%MOMM*%
%LPD*%
G01*
G04 APERTURE LIST*
G04 Aperture macros list*
%AMRotRect*
0 Rectangle, with rotation*
0 The origin of the aperture is its center*
0 $1 length*
0 $2 width*
0 $3 Rotation angle, in degrees counterclockwise*
0 Add horizontal line*
21,1,$1,$2,0,0,$3*%
G04 Aperture macros list end*
%ADD10RotRect,1.200000X1.400000X99.000000*%
%ADD11RotRect,1.200000X1.400000X84.000000*%
%ADD12RotRect,1.200000X1.400000X81.000000*%
%ADD13R,1.400000X1.200000*%
%ADD14RotRect,1.200000X1.400000X93.000000*%
%ADD15RotRect,1.200000X1.400000X78.000000*%
%ADD16RotRect,1.200000X1.400000X102.000000*%
%ADD17RotRect,1.200000X1.400000X87.000000*%
%ADD18RotRect,1.200000X1.400000X96.000000*%
G04 APERTURE END LIST*
D10*
%TO.C,D17*%
X188384847Y-58829118D03*
X187852969Y-55470978D03*
%TD*%
D11*
%TO.C,D13*%
X77212992Y-58245422D03*
X77568388Y-54864048D03*
%TD*%
D12*
%TO.C,D14*%
X96770080Y-61210370D03*
X97301958Y-57852230D03*
%TD*%
%TO.C,D33*%
X81887255Y-97524463D03*
X82419133Y-94166323D03*
%TD*%
D11*
%TO.C,D3*%
X74831740Y-38004780D03*
X75187136Y-34623406D03*
%TD*%
D13*
%TO.C,D38*%
X243483017Y-92782889D03*
X243483017Y-89382889D03*
%TD*%
D14*
%TO.C,D9*%
X219759468Y-36225824D03*
X219581526Y-32830484D03*
%TD*%
D13*
%TO.C,D10*%
X241101765Y-35632841D03*
X241101765Y-32232841D03*
%TD*%
%TO.C,D31*%
X41671910Y-93378202D03*
X41671910Y-89978202D03*
%TD*%
%TO.C,D11*%
X36909406Y-55278170D03*
X36909406Y-51878170D03*
%TD*%
D15*
%TO.C,D15*%
X115732585Y-64766029D03*
X116439485Y-61440327D03*
%TD*%
D12*
%TO.C,D24*%
X101532584Y-82046325D03*
X102064462Y-78688185D03*
%TD*%
D14*
%TO.C,D37*%
X222140720Y-93971185D03*
X221962778Y-90575845D03*
%TD*%
D16*
%TO.C,D16*%
X169422342Y-61789464D03*
X168715442Y-58463762D03*
%TD*%
D17*
%TO.C,D12*%
X58251703Y-55871153D03*
X58429645Y-52475813D03*
%TD*%
D11*
%TO.C,D32*%
X62925480Y-95750141D03*
X63280876Y-92368767D03*
%TD*%
D18*
%TO.C,D18*%
X207941935Y-56459483D03*
X207586539Y-53078109D03*
%TD*%
D10*
%TO.C,D7*%
X181241091Y-40374415D03*
X180709213Y-37016275D03*
%TD*%
D14*
%TO.C,D29*%
X222140720Y-75516482D03*
X221962778Y-72121142D03*
%TD*%
D13*
%TO.C,D1*%
X36909406Y-35632841D03*
X36909406Y-32232841D03*
%TD*%
%TO.C,D20*%
X245864269Y-54682857D03*
X245864269Y-51282857D03*
%TD*%
D14*
%TO.C,D19*%
X226903224Y-54680527D03*
X226725282Y-51285187D03*
%TD*%
D18*
%TO.C,D28*%
X202584118Y-76700125D03*
X202228722Y-73318751D03*
%TD*%
D10*
%TO.C,D27*%
X183622343Y-79665073D03*
X183090465Y-76306933D03*
%TD*%
D18*
%TO.C,D8*%
X200202866Y-37409467D03*
X199847470Y-34028093D03*
%TD*%
D17*
%TO.C,D2*%
X55870451Y-36225824D03*
X56048393Y-32830484D03*
%TD*%
D16*
%TO.C,D26*%
X164659838Y-83220732D03*
X163952938Y-79895030D03*
%TD*%
D11*
%TO.C,D23*%
X81975496Y-79081377D03*
X82330892Y-75700003D03*
%TD*%
D16*
%TO.C,D6*%
X162278586Y-43334761D03*
X161571686Y-40009059D03*
%TD*%
D13*
%TO.C,D30*%
X246459582Y-74328186D03*
X246459582Y-70928186D03*
%TD*%
D15*
%TO.C,D25*%
X121090402Y-85006671D03*
X121797302Y-81680969D03*
%TD*%
D17*
%TO.C,D22*%
X63014207Y-76111795D03*
X63192149Y-72716455D03*
%TD*%
D18*
%TO.C,D36*%
X202584118Y-95750141D03*
X202228722Y-92368767D03*
%TD*%
D15*
%TO.C,D5*%
X113351333Y-44525387D03*
X114058233Y-41199685D03*
%TD*%
D16*
%TO.C,D35*%
X176566098Y-101080122D03*
X175859198Y-97754420D03*
%TD*%
D12*
%TO.C,D4*%
X94388828Y-40969728D03*
X94920706Y-37611588D03*
%TD*%
D15*
%TO.C,D34*%
X108588829Y-103461374D03*
X109295729Y-100135672D03*
%TD*%
D13*
%TO.C,D21*%
X36909406Y-74923499D03*
X36909406Y-71523499D03*
%TD*%
M02*
