M48
; DRILL file {KiCad (6.0.4)} date Tue Oct  4 13:57:16 2022
; FORMAT={-:-/ absolute / inch / decimal}
; #@! TF.CreationDate,2022-10-04T13:57:16-07:00
; #@! TF.GenerationSoftware,Kicad,Pcbnew,(6.0.4)
; #@! TF.FileFunction,NonPlated,1,2,NPTH
FMAT,2
INCH
; #@! TA.AperFunction,NonPlated,NPTH,ComponentDrill
T1C0.0689
; #@! TA.AperFunction,NonPlated,NPTH,ComponentDrill
T2C0.1570
%
G90
G05
T1
X1.1125Y-1.0781
X1.1125Y-1.8516
X1.1125Y-2.625
X1.3Y-3.375
X1.5125Y-1.0781
X1.5125Y-1.8516
X1.5125Y-2.625
X1.7Y-3.375
X1.8862Y-1.0911
X1.98Y-1.8645
X2.1675Y-2.6614
X2.1675Y-3.4583
X2.2857Y-1.112
X2.3794Y-1.8855
X2.5669Y-2.6823
X2.5669Y-3.4792
X2.6605Y-1.151
X2.7542Y-1.9244
X2.9417Y-2.7447
X2.9417Y-3.5182
X3.0583Y-1.1928
X3.152Y-1.9662
X3.3395Y-2.7865
X3.3395Y-3.56
X3.4353Y-1.2343
X3.529Y-2.0312
X3.7165Y-2.8515
X3.8304Y-1.2969
X3.9241Y-2.0938
X4.0239Y-3.705
X4.1116Y-2.9141
X4.2106Y-1.3647
X4.3044Y-2.1615
X4.4136Y-3.795
X4.4919Y-2.9819
X4.6019Y-1.4478
X4.6956Y-2.2447
X4.8831Y-3.065
X5.9919Y-1.4713
X6.0856Y-3.0181
X6.2731Y-2.1978
X6.3831Y-1.3881
X6.4769Y-2.935
X6.5551Y-3.7481
X6.6644Y-2.1147
X6.7634Y-1.3204
X6.8572Y-2.8672
X6.9449Y-3.6581
X7.0447Y-2.0469
X7.1585Y-1.2578
X7.2522Y-2.8047
X7.4397Y-1.9843
X7.5355Y-1.1928
X7.6292Y-2.7397
X7.6292Y-3.5131
X7.8167Y-1.9428
X7.9333Y-1.151
X8.027Y-2.6978
X8.027Y-3.4713
X8.2145Y-1.901
X8.3081Y-1.112
X8.4018Y-2.6589
X8.4018Y-3.4323
X8.5893Y-1.862
X8.7075Y-1.0911
X8.8013Y-2.638
X8.8013Y-3.4114
X8.9888Y-1.8411
X9.175Y-1.0781
X9.2688Y-3.3516
X9.3625Y-1.8281
X9.3625Y-2.6016
X9.575Y-1.0781
X9.6688Y-3.3516
X9.7625Y-1.8281
X9.7625Y-2.6016
T2
X1.3125Y-1.0781
X1.3125Y-1.8516
X1.3125Y-2.625
X1.5Y-3.375
X2.0859Y-1.1016
X2.1797Y-1.875
X2.3672Y-2.6719
X2.3672Y-3.4688
X2.8594Y-1.1719
X2.9531Y-1.9453
X3.1406Y-2.7656
X3.1406Y-3.5391
X3.6328Y-1.2656
X3.7266Y-2.0625
X3.9141Y-2.8828
X4.2188Y-3.75
X4.4063Y-1.4063
X4.5Y-2.2031
X4.6875Y-3.0234
X6.1875Y-1.4297
X6.2813Y-2.9766
X6.4688Y-2.1563
X6.75Y-3.7031
X6.9609Y-1.2891
X7.0547Y-2.8359
X7.2422Y-2.0156
X7.7344Y-1.1719
X7.8281Y-2.7188
X7.8281Y-3.4922
X8.0156Y-1.9219
X8.5078Y-1.1016
X8.6016Y-2.6484
X8.6016Y-3.4219
X8.7891Y-1.8516
X9.375Y-1.0781
X9.4688Y-3.3516
X9.5625Y-1.8281
X9.5625Y-2.6016
T0
M30
