%TF.GenerationSoftware,KiCad,Pcbnew,(6.0.4)*%
%TF.CreationDate,2022-10-12T07:30:41-07:00*%
%TF.ProjectId,tiddlywink,74696464-6c79-4776-996e-6b2e6b696361,rev?*%
%TF.SameCoordinates,Original*%
%TF.FileFunction,Soldermask,Top*%
%TF.FilePolarity,Negative*%
%FSLAX46Y46*%
G04 Gerber Fmt 4.6, Leading zero omitted, Abs format (unit mm)*
G04 Created by KiCad (PCBNEW (6.0.4)) date 2022-10-12 07:30:41*
%MOMM*%
%LPD*%
G01*
G04 APERTURE LIST*
%ADD10C,3.800000*%
%ADD11C,1.750000*%
%ADD12C,3.987800*%
%ADD13R,1.700000X1.000000*%
%ADD14R,1.752600X1.752600*%
%ADD15C,1.752600*%
%ADD16C,0.800000*%
G04 APERTURE END LIST*
D10*
%TO.C,*%
X186928282Y-83939133D03*
%TD*%
%TO.C,*%
X91678202Y-85725072D03*
%TD*%
%TO.C,*%
X229195505Y-77986003D03*
%TD*%
%TO.C,*%
X232767383Y-39290658D03*
%TD*%
%TO.C,*%
X49410979Y-77986003D03*
%TD*%
%TO.C,*%
X44648475Y-39290658D03*
%TD*%
D11*
%TO.C,MX30*%
X237807704Y-66079743D03*
D12*
X242887704Y-66079743D03*
D11*
X247967704Y-66079743D03*
%TD*%
%TO.C,MX13*%
X80061609Y-49941984D03*
D12*
X75009438Y-49410979D03*
D11*
X69957267Y-48879974D03*
%TD*%
%TO.C,MX24*%
X94399814Y-72428812D03*
D12*
X99417271Y-73223499D03*
D11*
X104434728Y-74018186D03*
%TD*%
D12*
%TO.C,MX18*%
X203597046Y-48815666D03*
D11*
X198544875Y-49346671D03*
X208649217Y-48284661D03*
%TD*%
%TO.C,MX10*%
X243205200Y-27384398D03*
D12*
X238125200Y-27384398D03*
D11*
X233045200Y-27384398D03*
%TD*%
%TO.C,MX29*%
X223552909Y-67004502D03*
D12*
X218479871Y-67270369D03*
D11*
X213406833Y-67536236D03*
%TD*%
%TO.C,MX8*%
X201505461Y-29234645D03*
X191401119Y-30296655D03*
D12*
X196453290Y-29765650D03*
%TD*%
D11*
%TO.C,MX6*%
X152193642Y-37370284D03*
D12*
X157162632Y-36314093D03*
D11*
X162131622Y-35257902D03*
%TD*%
%TO.C,MX27*%
X174171756Y-72827560D03*
X184206670Y-71238186D03*
D12*
X179189213Y-72032873D03*
%TD*%
D11*
%TO.C,MX31*%
X33020032Y-85725072D03*
D12*
X38100032Y-85725072D03*
D11*
X43180032Y-85725072D03*
%TD*%
D13*
%TO.C,RST1*%
X133771990Y-66560995D03*
X140071990Y-66560995D03*
X133771990Y-70360995D03*
X140071990Y-70360995D03*
%TD*%
D12*
%TO.C,MX28*%
X198834542Y-69056308D03*
D11*
X193782371Y-69587313D03*
X203886713Y-68525303D03*
%TD*%
%TO.C,MX36*%
X193782371Y-89232642D03*
D12*
X198834542Y-88701637D03*
D11*
X203886713Y-88170632D03*
%TD*%
%TO.C,MX4*%
X87256058Y-31352215D03*
D12*
X92273515Y-32146902D03*
D11*
X97290972Y-32941589D03*
%TD*%
D12*
%TO.C,MX22*%
X60126613Y-67865682D03*
D11*
X65199651Y-68131549D03*
X55053575Y-67599815D03*
%TD*%
D12*
%TO.C,MX25*%
X119062600Y-76795377D03*
D11*
X114093610Y-75739186D03*
X124031590Y-77851568D03*
%TD*%
D12*
%TO.C,MX15*%
X114300096Y-55959422D03*
D11*
X109331106Y-54903231D03*
X119269086Y-57015613D03*
%TD*%
D12*
%TO.C,MX17*%
X183951717Y-51196918D03*
D11*
X178934260Y-51991605D03*
X188969174Y-50402231D03*
%TD*%
%TO.C,MX3*%
X77680357Y-30296655D03*
X67576015Y-29234645D03*
D12*
X72628186Y-29765650D03*
%TD*%
D11*
%TO.C,MX34*%
X102206540Y-94107329D03*
X112106140Y-96392831D03*
D12*
X107156340Y-95250080D03*
%TD*%
D14*
%TO.C,PM1*%
X127516051Y-33552638D03*
D15*
X127516051Y-36092638D03*
X127516051Y-38632638D03*
X127516051Y-41172638D03*
X127516051Y-43712638D03*
X127516051Y-46252638D03*
X127516051Y-48792638D03*
X127516051Y-51332638D03*
X127516051Y-53872638D03*
X127516051Y-56412638D03*
X127516051Y-58952638D03*
X127516051Y-61492638D03*
X142756051Y-61492638D03*
X142756051Y-58952638D03*
X142756051Y-56412638D03*
X142756051Y-53872638D03*
X142756051Y-51332638D03*
X142756051Y-48792638D03*
X142756051Y-46252638D03*
X142756051Y-43712638D03*
X142756051Y-41172638D03*
X142756051Y-38632638D03*
X142756051Y-36092638D03*
X142756051Y-33552638D03*
%TD*%
D11*
%TO.C,MX38*%
X235426452Y-85129759D03*
X245586452Y-85129759D03*
D12*
X240506452Y-85129759D03*
%TD*%
D10*
%TO.C,REF\u002A\u002A*%
X171450144Y-44053162D03*
%TD*%
D12*
%TO.C,MX7*%
X176807961Y-32742215D03*
D11*
X181825418Y-31947528D03*
X171790504Y-33536902D03*
%TD*%
%TO.C,MX32*%
X65199651Y-88372191D03*
X55053575Y-87840457D03*
D12*
X60126613Y-88106324D03*
%TD*%
D11*
%TO.C,MX19*%
X228315413Y-46763860D03*
D12*
X223242375Y-47029727D03*
D11*
X218169337Y-47295594D03*
%TD*%
%TO.C,MX9*%
X221171657Y-27713844D03*
D12*
X216098619Y-27979711D03*
D11*
X211025581Y-28245578D03*
%TD*%
%TO.C,MX35*%
X166500344Y-95202205D03*
D12*
X171450144Y-94059454D03*
D11*
X176399944Y-92916703D03*
%TD*%
%TO.C,MX20*%
X247967704Y-46434414D03*
D12*
X242887704Y-46434414D03*
D11*
X237807704Y-46434414D03*
%TD*%
%TO.C,MX23*%
X84824113Y-70777939D03*
D12*
X79771942Y-70246934D03*
D11*
X74719771Y-69715929D03*
%TD*%
%TO.C,MX33*%
X84824113Y-90423268D03*
D12*
X79771942Y-89892263D03*
D11*
X74719771Y-89361258D03*
%TD*%
D10*
%TO.C,REF\u002A\u002A*%
X139303242Y-86320385D03*
%TD*%
D11*
%TO.C,MX14*%
X89637310Y-51592857D03*
X99672224Y-53182231D03*
D12*
X94654767Y-52387544D03*
%TD*%
%TO.C,MX37*%
X218479871Y-86915698D03*
D11*
X213406833Y-87181565D03*
X223552909Y-86649831D03*
%TD*%
D12*
%TO.C,MX21*%
X33337528Y-66675056D03*
D11*
X28257528Y-66675056D03*
X38417528Y-66675056D03*
%TD*%
%TO.C,MX12*%
X60437147Y-47890907D03*
X50291071Y-47359173D03*
D12*
X55364109Y-47625040D03*
%TD*%
D11*
%TO.C,MX2*%
X47909819Y-27713844D03*
D12*
X52982857Y-27979711D03*
D11*
X58055895Y-28245578D03*
%TD*%
%TO.C,MX5*%
X116887834Y-36774971D03*
X106949854Y-34662589D03*
D12*
X111918844Y-35718780D03*
%TD*%
%TO.C,MX11*%
X33337528Y-47029727D03*
D11*
X38417528Y-47029727D03*
X28257528Y-47029727D03*
%TD*%
%TO.C,MX16*%
X159337398Y-55824987D03*
X169275378Y-53712605D03*
D12*
X164306388Y-54768796D03*
%TD*%
D10*
%TO.C,REF\u002A\u002A*%
X105370401Y-44648475D03*
%TD*%
D11*
%TO.C,MX1*%
X28257528Y-27384398D03*
D12*
X33337528Y-27384398D03*
D11*
X38417528Y-27384398D03*
%TD*%
%TO.C,MX26*%
X154574894Y-76660942D03*
X164512874Y-74548560D03*
D12*
X159543884Y-75604751D03*
%TD*%
D16*
%TO.C,D17*%
X188384847Y-58829118D03*
X187852969Y-55470978D03*
%TD*%
%TO.C,D13*%
X77212992Y-58245422D03*
X77568388Y-54864048D03*
%TD*%
%TO.C,D14*%
X96770080Y-61210370D03*
X97301958Y-57852230D03*
%TD*%
%TO.C,D33*%
X81887255Y-97524463D03*
X82419133Y-94166323D03*
%TD*%
%TO.C,D3*%
X74831740Y-38004780D03*
X75187136Y-34623406D03*
%TD*%
%TO.C,D38*%
X243483017Y-92782889D03*
X243483017Y-89382889D03*
%TD*%
%TO.C,D9*%
X219759468Y-36225824D03*
X219581526Y-32830484D03*
%TD*%
%TO.C,D10*%
X241101765Y-35632841D03*
X241101765Y-32232841D03*
%TD*%
%TO.C,D31*%
X41671910Y-93378202D03*
X41671910Y-89978202D03*
%TD*%
%TO.C,D11*%
X36909406Y-55278170D03*
X36909406Y-51878170D03*
%TD*%
%TO.C,D15*%
X115732585Y-64766029D03*
X116439485Y-61440327D03*
%TD*%
%TO.C,D24*%
X101532584Y-82046325D03*
X102064462Y-78688185D03*
%TD*%
%TO.C,D37*%
X222140720Y-93971185D03*
X221962778Y-90575845D03*
%TD*%
%TO.C,D16*%
X169422342Y-61789464D03*
X168715442Y-58463762D03*
%TD*%
%TO.C,D12*%
X58251703Y-55871153D03*
X58429645Y-52475813D03*
%TD*%
%TO.C,D32*%
X62925480Y-95750141D03*
X63280876Y-92368767D03*
%TD*%
%TO.C,D18*%
X207941935Y-56459483D03*
X207586539Y-53078109D03*
%TD*%
%TO.C,D7*%
X181241091Y-40374415D03*
X180709213Y-37016275D03*
%TD*%
%TO.C,D29*%
X222140720Y-75516482D03*
X221962778Y-72121142D03*
%TD*%
%TO.C,D1*%
X36909406Y-35632841D03*
X36909406Y-32232841D03*
%TD*%
%TO.C,D20*%
X245864269Y-54682857D03*
X245864269Y-51282857D03*
%TD*%
%TO.C,D19*%
X226903224Y-54680527D03*
X226725282Y-51285187D03*
%TD*%
%TO.C,D28*%
X202584118Y-76700125D03*
X202228722Y-73318751D03*
%TD*%
%TO.C,D27*%
X183622343Y-79665073D03*
X183090465Y-76306933D03*
%TD*%
%TO.C,D8*%
X200202866Y-37409467D03*
X199847470Y-34028093D03*
%TD*%
%TO.C,D2*%
X55870451Y-36225824D03*
X56048393Y-32830484D03*
%TD*%
%TO.C,D26*%
X164659838Y-83220732D03*
X163952938Y-79895030D03*
%TD*%
%TO.C,D23*%
X81975496Y-79081377D03*
X82330892Y-75700003D03*
%TD*%
%TO.C,D6*%
X162278586Y-43334761D03*
X161571686Y-40009059D03*
%TD*%
%TO.C,D30*%
X246459582Y-74328186D03*
X246459582Y-70928186D03*
%TD*%
%TO.C,D25*%
X121090402Y-85006671D03*
X121797302Y-81680969D03*
%TD*%
%TO.C,D22*%
X63014207Y-76111795D03*
X63192149Y-72716455D03*
%TD*%
%TO.C,D36*%
X202584118Y-95750141D03*
X202228722Y-92368767D03*
%TD*%
%TO.C,D5*%
X113351333Y-44525387D03*
X114058233Y-41199685D03*
%TD*%
%TO.C,D35*%
X176566098Y-101080122D03*
X175859198Y-97754420D03*
%TD*%
%TO.C,D4*%
X94388828Y-40969728D03*
X94920706Y-37611588D03*
%TD*%
%TO.C,D34*%
X108588829Y-103461374D03*
X109295729Y-100135672D03*
%TD*%
%TO.C,D21*%
X36909406Y-74923499D03*
X36909406Y-71523499D03*
%TD*%
M02*
