%TF.GenerationSoftware,KiCad,Pcbnew,(6.0.4)*%
%TF.CreationDate,2022-10-04T13:57:12-07:00*%
%TF.ProjectId,tiddlywink,74696464-6c79-4776-996e-6b2e6b696361,rev?*%
%TF.SameCoordinates,Original*%
%TF.FileFunction,Soldermask,Bot*%
%TF.FilePolarity,Negative*%
%FSLAX46Y46*%
G04 Gerber Fmt 4.6, Leading zero omitted, Abs format (unit mm)*
G04 Created by KiCad (PCBNEW (6.0.4)) date 2022-10-04 13:57:12*
%MOMM*%
%LPD*%
G01*
G04 APERTURE LIST*
G04 Aperture macros list*
%AMRotRect*
0 Rectangle, with rotation*
0 The origin of the aperture is its center*
0 $1 length*
0 $2 width*
0 $3 Rotation angle, in degrees counterclockwise*
0 Add horizontal line*
21,1,$1,$2,0,0,$3*%
G04 Aperture macros list end*
%ADD10C,3.800000*%
%ADD11C,1.750000*%
%ADD12C,3.987800*%
%ADD13C,2.250000*%
%ADD14R,1.752600X1.752600*%
%ADD15C,1.752600*%
%ADD16RotRect,1.200000X1.400000X99.000000*%
%ADD17C,0.800000*%
%ADD18RotRect,1.200000X1.400000X84.000000*%
%ADD19RotRect,1.200000X1.400000X81.000000*%
%ADD20R,1.400000X1.200000*%
%ADD21RotRect,1.200000X1.400000X93.000000*%
%ADD22RotRect,1.200000X1.400000X78.000000*%
%ADD23R,1.700000X1.000000*%
%ADD24RotRect,1.200000X1.400000X102.000000*%
%ADD25RotRect,1.200000X1.400000X87.000000*%
%ADD26RotRect,1.200000X1.400000X96.000000*%
G04 APERTURE END LIST*
D10*
%TO.C,REF\u002A\u002A*%
X139303242Y-86320385D03*
%TD*%
%TO.C,REF\u002A\u002A*%
X105370401Y-44648475D03*
%TD*%
%TO.C,REF\u002A\u002A*%
X171450144Y-44053162D03*
%TD*%
%TO.C,REF\u002A\u002A*%
X47625040Y-59531300D03*
%TD*%
%TO.C,REF\u002A\u002A*%
X230981444Y-58935987D03*
%TD*%
D11*
%TO.C,MX30*%
X237807704Y-66079743D03*
D12*
X242887704Y-66079743D03*
D11*
X247967704Y-66079743D03*
D13*
X239077704Y-63539743D03*
X245427704Y-60999743D03*
%TD*%
D11*
%TO.C,MX13*%
X80061609Y-49941984D03*
D12*
X75009438Y-49410979D03*
D11*
X69957267Y-48879974D03*
D13*
X71485812Y-46486640D03*
X78066528Y-44624310D03*
%TD*%
D11*
%TO.C,MX24*%
X94399814Y-72428812D03*
D12*
X99417271Y-73223499D03*
D11*
X104434728Y-74018186D03*
D13*
X96051522Y-70118755D03*
X102720686Y-68603386D03*
%TD*%
D12*
%TO.C,MX18*%
X203597046Y-48815666D03*
D11*
X198544875Y-49346671D03*
X208649217Y-48284661D03*
D13*
X199542415Y-46687834D03*
X205592127Y-43497992D03*
%TD*%
D11*
%TO.C,MX10*%
X243205200Y-27384398D03*
D12*
X238125200Y-27384398D03*
D11*
X233045200Y-27384398D03*
D13*
X234315200Y-24844398D03*
X240665200Y-22304398D03*
%TD*%
D11*
%TO.C,MX29*%
X223552909Y-67004502D03*
D12*
X218479871Y-67270369D03*
D11*
X213406833Y-67536236D03*
D13*
X214542159Y-64933250D03*
X220750523Y-62064398D03*
%TD*%
D11*
%TO.C,MX8*%
X201505461Y-29234645D03*
X191401119Y-30296655D03*
D12*
X196453290Y-29765650D03*
D13*
X192398659Y-27637818D03*
X198448371Y-24447976D03*
%TD*%
D11*
%TO.C,MX6*%
X152193642Y-37370284D03*
D12*
X157162632Y-36314093D03*
D11*
X162131622Y-35257902D03*
D13*
X152907794Y-34621742D03*
X158590936Y-30817007D03*
%TD*%
D11*
%TO.C,MX27*%
X174171756Y-72827560D03*
X184206670Y-71238186D03*
D12*
X179189213Y-72032873D03*
D13*
X175028777Y-70120160D03*
X180903254Y-66618073D03*
%TD*%
D11*
%TO.C,MX31*%
X33020032Y-85725072D03*
D12*
X38100032Y-85725072D03*
D11*
X43180032Y-85725072D03*
D13*
X34290032Y-83185072D03*
X40640032Y-80645072D03*
%TD*%
D12*
%TO.C,MX28*%
X198834542Y-69056308D03*
D11*
X193782371Y-69587313D03*
X203886713Y-68525303D03*
D13*
X194779911Y-66928476D03*
X200829623Y-63738634D03*
%TD*%
D11*
%TO.C,MX36*%
X193782371Y-89232642D03*
D12*
X198834542Y-88701637D03*
D11*
X203886713Y-88170632D03*
D13*
X194779911Y-86573805D03*
X200829623Y-83383963D03*
%TD*%
D11*
%TO.C,MX4*%
X87256058Y-31352215D03*
D12*
X92273515Y-32146902D03*
D11*
X97290972Y-32941589D03*
D13*
X88907766Y-29042158D03*
X95576930Y-27526789D03*
%TD*%
D12*
%TO.C,MX22*%
X60126613Y-67865682D03*
D11*
X65199651Y-68131549D03*
X55053575Y-67599815D03*
D13*
X56454768Y-65129763D03*
X62928999Y-62925577D03*
%TD*%
D12*
%TO.C,MX25*%
X119062600Y-76795377D03*
D11*
X114093610Y-75739186D03*
X124031590Y-77851568D03*
D13*
X115863953Y-73518739D03*
X122603286Y-72354483D03*
%TD*%
D12*
%TO.C,MX15*%
X114300096Y-55959422D03*
D11*
X109331106Y-54903231D03*
X119269086Y-57015613D03*
D13*
X111101449Y-52682784D03*
X117840782Y-51518528D03*
%TD*%
D12*
%TO.C,MX17*%
X183951717Y-51196918D03*
D11*
X178934260Y-51991605D03*
X188969174Y-50402231D03*
D13*
X179791281Y-49284205D03*
X185665758Y-45782118D03*
%TD*%
D11*
%TO.C,MX3*%
X77680357Y-30296655D03*
X67576015Y-29234645D03*
D12*
X72628186Y-29765650D03*
D13*
X69104560Y-26841311D03*
X75685276Y-24978981D03*
%TD*%
D11*
%TO.C,MX34*%
X102206540Y-94107329D03*
X112106140Y-96392831D03*
D12*
X107156340Y-95250080D03*
D13*
X104015366Y-91918117D03*
X110773991Y-90871656D03*
%TD*%
D14*
%TO.C,PM1*%
X127516051Y-33552638D03*
D15*
X127516051Y-36092638D03*
X127516051Y-38632638D03*
X127516051Y-41172638D03*
X127516051Y-43712638D03*
X127516051Y-46252638D03*
X127516051Y-48792638D03*
X127516051Y-51332638D03*
X127516051Y-53872638D03*
X127516051Y-56412638D03*
X127516051Y-58952638D03*
X127516051Y-61492638D03*
X142756051Y-61492638D03*
X142756051Y-58952638D03*
X142756051Y-56412638D03*
X142756051Y-53872638D03*
X142756051Y-51332638D03*
X142756051Y-48792638D03*
X142756051Y-46252638D03*
X142756051Y-43712638D03*
X142756051Y-41172638D03*
X142756051Y-38632638D03*
X142756051Y-36092638D03*
X142756051Y-33552638D03*
%TD*%
D11*
%TO.C,MX38*%
X235426452Y-85129759D03*
X245586452Y-85129759D03*
D12*
X240506452Y-85129759D03*
D13*
X236696452Y-82589759D03*
X243046452Y-80049759D03*
%TD*%
D12*
%TO.C,MX7*%
X176807961Y-32742215D03*
D11*
X181825418Y-31947528D03*
X171790504Y-33536902D03*
D13*
X172647525Y-30829502D03*
X178522002Y-27327415D03*
%TD*%
D11*
%TO.C,MX32*%
X65199651Y-88372191D03*
X55053575Y-87840457D03*
D12*
X60126613Y-88106324D03*
D13*
X56454768Y-85370405D03*
X62928999Y-83166219D03*
%TD*%
D11*
%TO.C,MX19*%
X228315413Y-46763860D03*
D12*
X223242375Y-47029727D03*
D11*
X218169337Y-47295594D03*
D13*
X219304663Y-44692608D03*
X225513027Y-41823756D03*
%TD*%
D11*
%TO.C,MX9*%
X221171657Y-27713844D03*
D12*
X216098619Y-27979711D03*
D11*
X211025581Y-28245578D03*
D13*
X212160907Y-25642592D03*
X218369271Y-22773740D03*
%TD*%
D11*
%TO.C,MX35*%
X166500344Y-95202205D03*
D12*
X171450144Y-94059454D03*
D11*
X176399944Y-92916703D03*
D13*
X167166418Y-92441618D03*
X172782293Y-88538278D03*
%TD*%
D11*
%TO.C,MX20*%
X247967704Y-46434414D03*
D12*
X242887704Y-46434414D03*
D11*
X237807704Y-46434414D03*
D13*
X239077704Y-43894414D03*
X245427704Y-41354414D03*
%TD*%
D11*
%TO.C,MX23*%
X84824113Y-70777939D03*
D12*
X79771942Y-70246934D03*
D11*
X74719771Y-69715929D03*
D13*
X76248316Y-67322595D03*
X82829032Y-65460265D03*
%TD*%
D11*
%TO.C,MX33*%
X84824113Y-90423268D03*
D12*
X79771942Y-89892263D03*
D11*
X74719771Y-89361258D03*
D13*
X76248316Y-86967924D03*
X82829032Y-85105594D03*
%TD*%
D11*
%TO.C,MX14*%
X89637310Y-51592857D03*
X99672224Y-53182231D03*
D12*
X94654767Y-52387544D03*
D13*
X91289018Y-49282800D03*
X97958182Y-47767431D03*
%TD*%
D12*
%TO.C,MX37*%
X218479871Y-86915698D03*
D11*
X213406833Y-87181565D03*
X223552909Y-86649831D03*
D13*
X214542159Y-84578579D03*
X220750523Y-81709727D03*
%TD*%
D12*
%TO.C,MX21*%
X33337528Y-66675056D03*
D11*
X28257528Y-66675056D03*
X38417528Y-66675056D03*
D13*
X29527528Y-64135056D03*
X35877528Y-61595056D03*
%TD*%
D11*
%TO.C,MX12*%
X60437147Y-47890907D03*
X50291071Y-47359173D03*
D12*
X55364109Y-47625040D03*
D13*
X51692264Y-44889121D03*
X58166495Y-42684935D03*
%TD*%
D11*
%TO.C,MX2*%
X47909819Y-27713844D03*
D12*
X52982857Y-27979711D03*
D11*
X58055895Y-28245578D03*
D13*
X49311012Y-25243792D03*
X55785243Y-23039606D03*
%TD*%
D11*
%TO.C,MX5*%
X116887834Y-36774971D03*
X106949854Y-34662589D03*
D12*
X111918844Y-35718780D03*
D13*
X108720197Y-32442142D03*
X115459530Y-31277886D03*
%TD*%
D12*
%TO.C,MX11*%
X33337528Y-47029727D03*
D11*
X38417528Y-47029727D03*
X28257528Y-47029727D03*
D13*
X29527528Y-44489727D03*
X35877528Y-41949727D03*
%TD*%
D11*
%TO.C,MX16*%
X159337398Y-55824987D03*
X169275378Y-53712605D03*
D12*
X164306388Y-54768796D03*
D13*
X160051550Y-53076445D03*
X165734692Y-49271710D03*
%TD*%
D11*
%TO.C,MX1*%
X28257528Y-27384398D03*
D12*
X33337528Y-27384398D03*
D11*
X38417528Y-27384398D03*
D13*
X29527528Y-24844398D03*
X35877528Y-22304398D03*
%TD*%
D11*
%TO.C,MX26*%
X154574894Y-76660942D03*
X164512874Y-74548560D03*
D12*
X159543884Y-75604751D03*
D13*
X155289046Y-73912400D03*
X160972188Y-70107665D03*
%TD*%
D16*
%TO.C,D17*%
X188384847Y-58829118D03*
D17*
X188384847Y-58829118D03*
X187852969Y-55470978D03*
D16*
X187852969Y-55470978D03*
%TD*%
D18*
%TO.C,D13*%
X77212992Y-58245422D03*
D17*
X77212992Y-58245422D03*
D18*
X77568388Y-54864048D03*
D17*
X77568388Y-54864048D03*
%TD*%
D19*
%TO.C,D14*%
X96770080Y-61210370D03*
D17*
X96770080Y-61210370D03*
D19*
X97301958Y-57852230D03*
D17*
X97301958Y-57852230D03*
%TD*%
%TO.C,D33*%
X81887255Y-97524463D03*
D19*
X81887255Y-97524463D03*
D17*
X82419133Y-94166323D03*
D19*
X82419133Y-94166323D03*
%TD*%
D18*
%TO.C,D3*%
X74831740Y-38004780D03*
D17*
X74831740Y-38004780D03*
D18*
X75187136Y-34623406D03*
D17*
X75187136Y-34623406D03*
%TD*%
%TO.C,D38*%
X243483017Y-92782889D03*
D20*
X243483017Y-92782889D03*
D17*
X243483017Y-89382889D03*
D20*
X243483017Y-89382889D03*
%TD*%
D21*
%TO.C,D9*%
X219759468Y-36225824D03*
D17*
X219759468Y-36225824D03*
X219581526Y-32830484D03*
D21*
X219581526Y-32830484D03*
%TD*%
D17*
%TO.C,D10*%
X241101765Y-35632841D03*
D20*
X241101765Y-35632841D03*
X241101765Y-32232841D03*
D17*
X241101765Y-32232841D03*
%TD*%
D20*
%TO.C,D31*%
X41671910Y-93378202D03*
D17*
X41671910Y-93378202D03*
X41671910Y-89978202D03*
D20*
X41671910Y-89978202D03*
%TD*%
D17*
%TO.C,D11*%
X36909406Y-55278170D03*
D20*
X36909406Y-55278170D03*
D17*
X36909406Y-51878170D03*
D20*
X36909406Y-51878170D03*
%TD*%
D17*
%TO.C,D15*%
X115732585Y-64766029D03*
D22*
X115732585Y-64766029D03*
D17*
X116439485Y-61440327D03*
D22*
X116439485Y-61440327D03*
%TD*%
D19*
%TO.C,D24*%
X101532584Y-82046325D03*
D17*
X101532584Y-82046325D03*
D19*
X102064462Y-78688185D03*
D17*
X102064462Y-78688185D03*
%TD*%
D21*
%TO.C,D37*%
X222140720Y-93971185D03*
D17*
X222140720Y-93971185D03*
X221962778Y-90575845D03*
D21*
X221962778Y-90575845D03*
%TD*%
D23*
%TO.C,RST1*%
X138286051Y-38581284D03*
X131986051Y-38581284D03*
X138286051Y-42381284D03*
X131986051Y-42381284D03*
%TD*%
D24*
%TO.C,D16*%
X169422342Y-61789464D03*
D17*
X169422342Y-61789464D03*
D24*
X168715442Y-58463762D03*
D17*
X168715442Y-58463762D03*
%TD*%
%TO.C,D12*%
X58251703Y-55871153D03*
D25*
X58251703Y-55871153D03*
X58429645Y-52475813D03*
D17*
X58429645Y-52475813D03*
%TD*%
D18*
%TO.C,D32*%
X62925480Y-95750141D03*
D17*
X62925480Y-95750141D03*
D18*
X63280876Y-92368767D03*
D17*
X63280876Y-92368767D03*
%TD*%
D26*
%TO.C,D18*%
X207941935Y-56459483D03*
D17*
X207941935Y-56459483D03*
D26*
X207586539Y-53078109D03*
D17*
X207586539Y-53078109D03*
%TD*%
%TO.C,D7*%
X181241091Y-40374415D03*
D16*
X181241091Y-40374415D03*
X180709213Y-37016275D03*
D17*
X180709213Y-37016275D03*
%TD*%
%TO.C,D29*%
X222140720Y-75516482D03*
D21*
X222140720Y-75516482D03*
D17*
X221962778Y-72121142D03*
D21*
X221962778Y-72121142D03*
%TD*%
D17*
%TO.C,D1*%
X36909406Y-35632841D03*
D20*
X36909406Y-35632841D03*
D17*
X36909406Y-32232841D03*
D20*
X36909406Y-32232841D03*
%TD*%
D17*
%TO.C,D20*%
X245864269Y-54682857D03*
D20*
X245864269Y-54682857D03*
X245864269Y-51282857D03*
D17*
X245864269Y-51282857D03*
%TD*%
%TO.C,D19*%
X226903224Y-54680527D03*
D21*
X226903224Y-54680527D03*
D17*
X226725282Y-51285187D03*
D21*
X226725282Y-51285187D03*
%TD*%
D17*
%TO.C,D28*%
X202584118Y-76700125D03*
D26*
X202584118Y-76700125D03*
X202228722Y-73318751D03*
D17*
X202228722Y-73318751D03*
%TD*%
%TO.C,D27*%
X183622343Y-79665073D03*
D16*
X183622343Y-79665073D03*
D17*
X183090465Y-76306933D03*
D16*
X183090465Y-76306933D03*
%TD*%
D26*
%TO.C,D8*%
X200202866Y-37409467D03*
D17*
X200202866Y-37409467D03*
X199847470Y-34028093D03*
D26*
X199847470Y-34028093D03*
%TD*%
D25*
%TO.C,D2*%
X55870451Y-36225824D03*
D17*
X55870451Y-36225824D03*
X56048393Y-32830484D03*
D25*
X56048393Y-32830484D03*
%TD*%
D17*
%TO.C,D26*%
X164659838Y-83220732D03*
D24*
X164659838Y-83220732D03*
X163952938Y-79895030D03*
D17*
X163952938Y-79895030D03*
%TD*%
D18*
%TO.C,D23*%
X81975496Y-79081377D03*
D17*
X81975496Y-79081377D03*
D18*
X82330892Y-75700003D03*
D17*
X82330892Y-75700003D03*
%TD*%
%TO.C,D6*%
X162278586Y-43334761D03*
D24*
X162278586Y-43334761D03*
X161571686Y-40009059D03*
D17*
X161571686Y-40009059D03*
%TD*%
%TO.C,D30*%
X246459582Y-74328186D03*
D20*
X246459582Y-74328186D03*
D17*
X246459582Y-70928186D03*
D20*
X246459582Y-70928186D03*
%TD*%
D17*
%TO.C,D25*%
X121090402Y-85006671D03*
D22*
X121090402Y-85006671D03*
D17*
X121797302Y-81680969D03*
D22*
X121797302Y-81680969D03*
%TD*%
D17*
%TO.C,D22*%
X63014207Y-76111795D03*
D25*
X63014207Y-76111795D03*
X63192149Y-72716455D03*
D17*
X63192149Y-72716455D03*
%TD*%
%TO.C,D36*%
X202584118Y-95750141D03*
D26*
X202584118Y-95750141D03*
X202228722Y-92368767D03*
D17*
X202228722Y-92368767D03*
%TD*%
D22*
%TO.C,D5*%
X113351333Y-44525387D03*
D17*
X113351333Y-44525387D03*
D22*
X114058233Y-41199685D03*
D17*
X114058233Y-41199685D03*
%TD*%
%TO.C,D35*%
X176566098Y-101080122D03*
D24*
X176566098Y-101080122D03*
D17*
X175859198Y-97754420D03*
D24*
X175859198Y-97754420D03*
%TD*%
D19*
%TO.C,D4*%
X94388828Y-40969728D03*
D17*
X94388828Y-40969728D03*
D19*
X94920706Y-37611588D03*
D17*
X94920706Y-37611588D03*
%TD*%
%TO.C,D34*%
X108588829Y-103461374D03*
D22*
X108588829Y-103461374D03*
D17*
X109295729Y-100135672D03*
D22*
X109295729Y-100135672D03*
%TD*%
D20*
%TO.C,D21*%
X36909406Y-74923499D03*
D17*
X36909406Y-74923499D03*
X36909406Y-71523499D03*
D20*
X36909406Y-71523499D03*
%TD*%
M02*
