M48
; DRILL file {KiCad (6.0.4)} date Thu Oct 13 15:03:24 2022
; FORMAT={-:-/ absolute / inch / decimal}
; #@! TF.CreationDate,2022-10-13T15:03:24-07:00
; #@! TF.GenerationSoftware,Kicad,Pcbnew,(6.0.4)
; #@! TF.FileFunction,Plated,1,2,PTH
FMAT,2
INCH
; #@! TA.AperFunction,Plated,PTH,ViaDrill
T1C0.0157
; #@! TA.AperFunction,Plated,PTH,ComponentDrill
T2C0.0157
; #@! TA.AperFunction,Plated,PTH,ComponentDrill
T3C0.0430
; #@! TA.AperFunction,Plated,PTH,ComponentDrill
T4C0.0579
; #@! TA.AperFunction,Plated,PTH,ComponentDrill
T5C0.0866
%
G90
G05
T1
X2.4844Y-2.1711
X2.4844Y-2.2282
X2.5313Y-2.1711
X2.5313Y-2.2282
X2.5781Y-2.1711
X2.5781Y-2.2282
X4.0313Y-2.3813
X4.0313Y-2.4384
X4.0781Y-2.3813
X4.0781Y-2.4384
X4.1002Y-2.4709
X4.125Y-2.3813
X4.125Y-2.4384
X4.9441Y-3.5724
X4.9453Y-3.6744
X5.0707Y-2.6034
X5.1094Y-2.4375
X5.1094Y-2.5963
X5.1563Y-2.4375
X5.1563Y-2.5963
X5.1956Y-2.5963
X5.2031Y-2.4375
X5.7188Y-3.5994
X5.7188Y-3.6744
X6.7584Y-2.3339
X6.7895Y-2.4383
X6.7957Y-2.3172
X6.7977Y-2.3783
X6.8394Y-2.3026
X6.8438Y-2.3672
X8.3008Y-2.1299
X8.3158Y-2.213
X8.3403Y-2.1247
X8.3436Y-2.1817
X8.3906Y-2.1243
X8.3906Y-2.1813
T2
X1.4531Y-1.269
X1.4531Y-1.4029
X1.4531Y-2.0424
X1.4531Y-2.1763
X1.4531Y-2.8159
X1.4531Y-2.9497
X1.8281Y-3.3081
X1.8281Y-3.4419
X2.1996Y-1.4262
X2.2066Y-1.2925
X2.2934Y-2.1997
X2.3004Y-2.066
X2.4809Y-2.9965
X2.4879Y-2.8629
X2.6918Y-3.559
X2.6988Y-3.4254
X2.9461Y-1.4963
X2.9601Y-1.3631
X3.0399Y-2.2931
X3.0539Y-2.16
X3.2274Y-3.1134
X3.2414Y-2.9803
X3.4618Y-3.6291
X3.4757Y-3.4959
X3.7161Y-1.613
X3.737Y-1.4808
X3.8098Y-2.4099
X3.8308Y-2.2776
X3.9973Y-3.2302
X4.0183Y-3.098
X4.4627Y-1.753
X4.4905Y-1.622
X4.533Y-3.8858
X4.5564Y-2.5498
X4.5608Y-3.7548
X4.5842Y-2.4189
X4.7673Y-3.3467
X4.7952Y-3.2158
X6.3611Y-1.5752
X6.3889Y-1.7061
X6.4548Y-3.1455
X6.4827Y-3.2764
X6.6423Y-2.3017
X6.6702Y-2.4327
X7.0642Y-3.5673
X7.092Y-3.6983
X7.1145Y-1.4573
X7.1355Y-1.5895
X7.2083Y-3.0042
X7.2292Y-3.1364
X7.3958Y-2.1839
X7.4167Y-2.3161
X7.868Y-1.3397
X7.882Y-1.4728
X7.9618Y-2.8866
X7.9758Y-3.0197
X8.1493Y-3.3788
X8.1633Y-3.5119
X8.1727Y-2.0897
X8.1867Y-2.2228
X8.6449Y-1.2925
X8.6519Y-1.4262
X8.7387Y-2.8394
X8.7457Y-2.9731
X8.9262Y-2.0191
X8.9262Y-3.3316
X8.9332Y-2.1528
X8.9332Y-3.4653
X9.4922Y-1.269
X9.4922Y-1.4029
X9.6797Y-2.019
X9.6797Y-2.1529
X9.7031Y-2.7924
X9.7031Y-2.9263
X9.7969Y-3.2846
X9.7969Y-3.4185
T3
X5.0203Y-1.321
X5.0203Y-1.421
X5.0203Y-1.521
X5.0203Y-1.621
X5.0203Y-1.721
X5.0203Y-1.821
X5.0203Y-1.921
X5.0203Y-2.021
X5.0203Y-2.121
X5.0203Y-2.221
X5.0203Y-2.321
X5.0203Y-2.421
X5.6203Y-1.321
X5.6203Y-1.421
X5.6203Y-1.521
X5.6203Y-1.621
X5.6203Y-1.721
X5.6203Y-1.821
X5.6203Y-1.921
X5.6203Y-2.021
X5.6203Y-2.121
X5.6203Y-2.221
X5.6203Y-2.321
X5.6203Y-2.421
T4
X1.1625Y-0.9781
X1.1625Y-1.7516
X1.1625Y-2.525
X1.35Y-3.275
X1.4125Y-0.8781
X1.4125Y-1.6516
X1.4125Y-2.425
X1.6Y-3.175
X1.9414Y-0.9939
X2.0351Y-1.7673
X2.1963Y-0.9071
X2.2226Y-2.5642
X2.2226Y-3.361
X2.29Y-1.6805
X2.4775Y-2.4774
X2.4775Y-3.2743
X2.7207Y-1.0567
X2.8144Y-1.8302
X2.9797Y-0.9834
X3.0019Y-2.6505
X3.0019Y-3.4239
X3.0735Y-1.7569
X3.261Y-2.5772
X3.261Y-3.3506
X3.5003Y-1.1434
X3.5941Y-1.9403
X3.7629Y-1.0837
X3.7816Y-2.7606
X3.8566Y-1.8806
X4.0441Y-2.7009
X4.0951Y-3.6188
X4.2803Y-1.2772
X4.3612Y-3.5776
X4.3741Y-2.0741
X4.5457Y-1.2314
X4.5616Y-2.8944
X4.6394Y-2.0283
X4.8269Y-2.8486
X6.02Y-1.3631
X6.1137Y-2.9099
X6.2437Y-1.2133
X6.3012Y-2.0896
X6.3375Y-2.7601
X6.525Y-1.9398
X6.5814Y-3.6394
X6.7971Y-1.2138
X6.8025Y-3.4858
X6.8909Y-2.7606
X7.0284Y-1.0759
X7.0784Y-1.9403
X7.1222Y-2.6228
X7.3097Y-1.8024
X7.5748Y-1.0881
X7.6685Y-2.635
X7.6685Y-3.4084
X7.8129Y-0.9625
X7.856Y-1.8381
X7.9067Y-2.5094
X7.9067Y-3.2828
X8.0942Y-1.7125
X8.3528Y-1.0096
X8.4465Y-2.5564
X8.4465Y-3.3299
X8.5972Y-0.8966
X8.634Y-1.7596
X8.691Y-2.4435
X8.691Y-3.2169
X8.8785Y-1.6466
X9.225Y-0.9781
X9.3188Y-3.2516
X9.4125Y-1.7281
X9.4125Y-2.5016
X9.475Y-0.8781
X9.5688Y-3.1516
X9.6625Y-1.6281
X9.6625Y-2.4016
T5
X1.7578Y-1.5469
X1.9453Y-3.0703
X3.6094Y-3.375
X4.1484Y-1.7578
X6.75Y-1.7344
X7.3594Y-3.3047
X9.0234Y-3.0703
X9.1641Y-1.5469
T0
M30
