%TF.GenerationSoftware,KiCad,Pcbnew,(6.0.4)*%
%TF.CreationDate,2022-10-04T13:57:12-07:00*%
%TF.ProjectId,tiddlywink,74696464-6c79-4776-996e-6b2e6b696361,rev?*%
%TF.SameCoordinates,Original*%
%TF.FileFunction,Profile,NP*%
%FSLAX46Y46*%
G04 Gerber Fmt 4.6, Leading zero omitted, Abs format (unit mm)*
G04 Created by KiCad (PCBNEW (6.0.4)) date 2022-10-04 13:57:12*
%MOMM*%
%LPD*%
G01*
G04 APERTURE LIST*
%TA.AperFunction,Profile*%
%ADD10C,0.100000*%
%TD*%
G04 APERTURE END LIST*
D10*
X252412793Y-39290658D02*
G75*
G03*
X250031460Y-36909407I-2381293J-42D01*
G01*
X69056308Y-98226645D02*
X88701637Y-101203210D01*
X225028314Y-17859390D02*
X204787672Y-19050016D01*
X204787672Y-19050016D02*
X184547030Y-21431268D01*
X257175215Y-58935987D02*
X257175215Y-73223499D01*
X257175264Y-58935987D02*
G75*
G03*
X254793964Y-56554736I-2381264J-13D01*
G01*
X250031460Y-94654711D02*
G75*
G03*
X252412711Y-92273515I40J2381211D01*
G01*
X252412711Y-39290658D02*
X252412712Y-55959422D01*
X23812521Y-20240642D02*
X23812520Y-36909406D01*
X19050016Y-76200064D02*
X26193772Y-76200064D01*
X63103178Y-19050016D02*
X84534446Y-21431268D01*
X252412712Y-55959422D02*
X252412712Y-56554735D01*
X28575024Y-95250080D02*
X50006292Y-95250080D01*
X16668736Y-73818812D02*
G75*
G03*
X19050016Y-76200064I2381264J12D01*
G01*
X21431268Y-57150048D02*
X19050016Y-57150049D01*
X26193772Y-76200064D02*
X26193772Y-92868828D01*
X250031460Y-94654766D02*
X228600192Y-94654767D01*
X26193772Y-17859391D02*
G75*
G03*
X23812521Y-20240642I-2J-2381249D01*
G01*
X209550176Y-97036019D02*
X189904847Y-100012584D01*
X88701637Y-101203210D02*
X121443852Y-108346966D01*
X254793964Y-75604715D02*
G75*
G03*
X257175215Y-73223499I36J2381215D01*
G01*
X227409566Y-95845392D02*
G75*
G03*
X228600192Y-94654767I34J1190592D01*
G01*
X146446998Y-28575024D02*
X164306388Y-25003146D01*
X26193772Y-17859391D02*
X44053162Y-17859390D01*
X227409566Y-95845393D02*
X209550176Y-97036019D01*
X50006281Y-95250080D02*
G75*
G03*
X51792231Y-97036019I1785919J-20D01*
G01*
X252412712Y-56554735D02*
X254793964Y-56554736D01*
X16668765Y-59531300D02*
X16668764Y-73818812D01*
X121443852Y-108346966D02*
X157162632Y-108346966D01*
X104775088Y-24407833D02*
X122634478Y-28575024D01*
X184547030Y-21431268D02*
X164306388Y-25003146D01*
X23812520Y-37504719D02*
G75*
G03*
X21431269Y-39885971I0J-2381251D01*
G01*
X247650208Y-17859391D02*
X225028314Y-17859390D01*
X84534446Y-21431268D02*
X104775088Y-24407833D01*
X122634478Y-28575024D02*
X146446998Y-28575024D01*
X26193720Y-92868828D02*
G75*
G03*
X28575024Y-95250080I2381280J28D01*
G01*
X250031459Y-20240642D02*
X250031460Y-36909406D01*
X252412712Y-75604751D02*
X252412711Y-92273515D01*
X254793964Y-75604750D02*
X252412712Y-75604751D01*
X51792231Y-97036019D02*
X69056308Y-98226645D01*
X21431269Y-39885971D02*
X21431268Y-57150048D01*
X19050016Y-57150065D02*
G75*
G03*
X16668765Y-59531300I-16J-2381235D01*
G01*
X157162632Y-108346966D02*
X189904847Y-100012584D01*
X44053162Y-17859390D02*
X63103178Y-19050016D01*
X250031409Y-20240642D02*
G75*
G03*
X247650208Y-17859391I-2381209J42D01*
G01*
X23812520Y-36909406D02*
X23812520Y-37504719D01*
M02*
