%TF.GenerationSoftware,KiCad,Pcbnew,(6.0.4)*%
%TF.CreationDate,2022-10-29T14:00:47-07:00*%
%TF.ProjectId,tiddlywink_square,74696464-6c79-4776-996e-6b5f73717561,rev?*%
%TF.SameCoordinates,Original*%
%TF.FileFunction,Profile,NP*%
%FSLAX46Y46*%
G04 Gerber Fmt 4.6, Leading zero omitted, Abs format (unit mm)*
G04 Created by KiCad (PCBNEW (6.0.4)) date 2022-10-29 14:00:47*
%MOMM*%
%LPD*%
G01*
G04 APERTURE LIST*
%TA.AperFunction,Profile*%
%ADD10C,0.100000*%
%TD*%
G04 APERTURE END LIST*
D10*
X10916990Y-90493678D02*
X10916990Y-24010962D01*
X69056308Y-98226645D02*
X88701637Y-101203210D01*
X258961155Y-95845397D02*
G75*
G03*
X265509597Y-89296950I45J6548397D01*
G01*
X123229791Y-27979711D02*
X145851685Y-27979711D01*
X51792231Y-97036019D02*
X17264077Y-97036019D01*
X264914310Y-23812520D02*
G75*
G03*
X258961155Y-17859390I-5953110J20D01*
G01*
X227409566Y-95845393D02*
X258961155Y-95845392D01*
X17440698Y-17870650D02*
G75*
G03*
X10916990Y-24010962I-191698J-6332010D01*
G01*
X184547030Y-20835955D02*
X205978298Y-19050016D01*
X209550176Y-97036019D02*
X189904847Y-100012584D01*
X104775088Y-24407833D02*
X123229791Y-27979711D01*
X88701637Y-101203210D02*
X121443852Y-108346966D01*
X145851685Y-27979711D02*
X164306388Y-24407833D01*
X164306388Y-24407833D02*
X184547030Y-20835955D01*
X17440698Y-17870656D02*
X44053162Y-17859390D01*
X227409566Y-95845393D02*
X209550176Y-97036019D01*
X44053162Y-17859390D02*
X63103178Y-19050016D01*
X121443852Y-108346966D02*
X157162632Y-108346966D01*
X265509597Y-89296950D02*
X264914285Y-23812520D01*
X10916995Y-90493678D02*
G75*
G03*
X17264077Y-97036019I6347085J-192342D01*
G01*
X258961155Y-17859390D02*
X225028314Y-17859390D01*
X84534446Y-20835955D02*
X104775088Y-24407833D01*
X51792231Y-97036019D02*
X69056308Y-98226645D01*
X157162632Y-108346966D02*
X189904847Y-100012584D01*
X205978298Y-19050016D02*
X225028314Y-17859390D01*
X63103178Y-19050016D02*
X84534446Y-20835955D01*
M02*
