%TF.GenerationSoftware,KiCad,Pcbnew,7.0.6*%
%TF.CreationDate,2023-09-29T23:08:14-04:00*%
%TF.ProjectId,tiddlywink_square,74696464-6c79-4776-996e-6b5f73717561,rev?*%
%TF.SameCoordinates,Original*%
%TF.FileFunction,Soldermask,Top*%
%TF.FilePolarity,Negative*%
%FSLAX46Y46*%
G04 Gerber Fmt 4.6, Leading zero omitted, Abs format (unit mm)*
G04 Created by KiCad (PCBNEW 7.0.6) date 2023-09-29 23:08:14*
%MOMM*%
%LPD*%
G01*
G04 APERTURE LIST*
G04 Aperture macros list*
%AMRotRect*
0 Rectangle, with rotation*
0 The origin of the aperture is its center*
0 $1 length*
0 $2 width*
0 $3 Rotation angle, in degrees counterclockwise*
0 Add horizontal line*
21,1,$1,$2,0,0,$3*%
G04 Aperture macros list end*
%ADD10C,1.750000*%
%ADD11C,3.987800*%
%ADD12R,1.000000X1.700000*%
%ADD13C,0.900000*%
%ADD14C,10.600000*%
%ADD15RotRect,2.000000X2.000000X78.000000*%
%ADD16C,2.000000*%
%ADD17C,3.200000*%
%ADD18R,1.752600X1.752600*%
%ADD19C,1.752600*%
%ADD20RotRect,2.000000X2.000000X102.000000*%
%ADD21C,0.800000*%
%TA.AperFunction,Profile*%
%ADD22C,0.100000*%
%TD*%
G04 APERTURE END LIST*
D10*
%TO.C,MX30*%
X237807704Y-66079743D03*
D11*
X242887704Y-66079743D03*
D10*
X247967704Y-66079743D03*
%TD*%
%TO.C,MX13*%
X69957267Y-48879974D03*
D11*
X75009438Y-49410979D03*
D10*
X80061609Y-49941984D03*
%TD*%
%TO.C,MX24*%
X94399814Y-72428812D03*
D11*
X99417271Y-73223499D03*
D10*
X104434728Y-74018186D03*
%TD*%
%TO.C,MX18*%
X198544875Y-49346671D03*
D11*
X203597046Y-48815666D03*
D10*
X208649217Y-48284661D03*
%TD*%
%TO.C,MX10*%
X233045200Y-27384398D03*
D11*
X238125200Y-27384398D03*
D10*
X243205200Y-27384398D03*
%TD*%
%TO.C,MX29*%
X213406833Y-67536236D03*
D11*
X218479871Y-67270369D03*
D10*
X223552909Y-67004502D03*
%TD*%
%TO.C,MX8*%
X191401119Y-30296655D03*
D11*
X196453290Y-29765650D03*
D10*
X201505461Y-29234645D03*
%TD*%
%TO.C,MX6*%
X152193642Y-37370284D03*
D11*
X157162632Y-36314093D03*
D10*
X162131622Y-35257902D03*
%TD*%
%TO.C,MX27*%
X174171756Y-72827560D03*
D11*
X179189213Y-72032873D03*
D10*
X184206670Y-71238186D03*
%TD*%
%TO.C,MX31*%
X33020032Y-85725072D03*
D11*
X38100032Y-85725072D03*
D10*
X43180032Y-85725072D03*
%TD*%
D12*
%TO.C,RST1*%
X43400000Y-65280000D03*
X43400000Y-58980000D03*
X47200000Y-65280000D03*
X47200000Y-58980000D03*
%TD*%
D13*
%TO.C,REF\u002A\u002A*%
X13289077Y-24220962D03*
X14453328Y-21410213D03*
X14453328Y-27031711D03*
X17264077Y-20245962D03*
D14*
X17264077Y-24220962D03*
D13*
X17264077Y-28195962D03*
X20074826Y-21410213D03*
X20074826Y-27031711D03*
X21239077Y-24220962D03*
%TD*%
%TO.C,REF\u002A\u002A*%
X255184155Y-89494950D03*
X256348406Y-86684201D03*
X256348406Y-92305699D03*
X259159155Y-85519950D03*
D14*
X259159155Y-89494950D03*
D13*
X259159155Y-93469950D03*
X261969904Y-86684201D03*
X261969904Y-92305699D03*
X263134155Y-89494950D03*
%TD*%
D10*
%TO.C,MX28*%
X193782371Y-69587313D03*
D11*
X198834542Y-69056308D03*
D10*
X203886713Y-68525303D03*
%TD*%
%TO.C,MX36*%
X193782371Y-89232642D03*
D11*
X198834542Y-88701637D03*
D10*
X203886713Y-88170632D03*
%TD*%
%TO.C,MX4*%
X87256058Y-31352215D03*
D11*
X92273515Y-32146902D03*
D10*
X97290972Y-32941589D03*
%TD*%
%TO.C,MX22*%
X55053575Y-67599815D03*
D11*
X60126613Y-67865682D03*
D10*
X65199651Y-68131549D03*
%TD*%
D11*
%TO.C,MX25*%
X119062600Y-76795377D03*
%TD*%
D15*
%TO.C,KNOB2*%
X115057893Y-83611705D03*
D16*
X119948631Y-84651263D03*
X117503262Y-84131484D03*
D17*
X113584973Y-75631072D03*
X124540227Y-77959682D03*
D16*
X122963351Y-70468123D03*
X118072613Y-69428565D03*
%TD*%
D13*
%TO.C,REF\u002A\u002A*%
X135328242Y-77390690D03*
X136492493Y-74579941D03*
X136492493Y-80201439D03*
X139303242Y-73415690D03*
D14*
X139303242Y-77390690D03*
D13*
X139303242Y-81365690D03*
X142113991Y-74579941D03*
X142113991Y-80201439D03*
X143278242Y-77390690D03*
%TD*%
D10*
%TO.C,MX15*%
X109331106Y-54903231D03*
D11*
X114300096Y-55959422D03*
D10*
X119269086Y-57015613D03*
%TD*%
%TO.C,MX17*%
X178934260Y-51991605D03*
D11*
X183951717Y-51196918D03*
D10*
X188969174Y-50402231D03*
%TD*%
%TO.C,MX3*%
X67576015Y-29234645D03*
D11*
X72628186Y-29765650D03*
D10*
X77680357Y-30296655D03*
%TD*%
%TO.C,MX34*%
X102206540Y-94107329D03*
D11*
X107156340Y-95250080D03*
D10*
X112106140Y-96392831D03*
%TD*%
D18*
%TO.C,PM1*%
X127516051Y-33552638D03*
D19*
X127516051Y-36092638D03*
X127516051Y-38632638D03*
X127516051Y-41172638D03*
X127516051Y-43712638D03*
X127516051Y-46252638D03*
X127516051Y-48792638D03*
X127516051Y-51332638D03*
X127516051Y-53872638D03*
X127516051Y-56412638D03*
X127516051Y-58952638D03*
X127516051Y-61492638D03*
X142756051Y-61492638D03*
X142756051Y-58952638D03*
X142756051Y-56412638D03*
X142756051Y-53872638D03*
X142756051Y-51332638D03*
X142756051Y-48792638D03*
X142756051Y-46252638D03*
X142756051Y-43712638D03*
X142756051Y-41172638D03*
X142756051Y-38632638D03*
X142756051Y-36092638D03*
X142756051Y-33552638D03*
%TD*%
D10*
%TO.C,MX38*%
X235426452Y-85129759D03*
D11*
X240506452Y-85129759D03*
D10*
X245586452Y-85129759D03*
%TD*%
%TO.C,MX7*%
X171790504Y-33536902D03*
D11*
X176807961Y-32742215D03*
D10*
X181825418Y-31947528D03*
%TD*%
D13*
%TO.C,REF\u002A\u002A*%
X13289077Y-90686018D03*
X14453328Y-87875269D03*
X14453328Y-93496767D03*
X17264077Y-86711018D03*
D14*
X17264077Y-90686018D03*
D13*
X17264077Y-94661018D03*
X20074826Y-87875269D03*
X20074826Y-93496767D03*
X21239077Y-90686018D03*
%TD*%
D10*
%TO.C,MX32*%
X55053575Y-87840457D03*
D11*
X60126613Y-88106324D03*
D10*
X65199651Y-88372191D03*
%TD*%
%TO.C,MX19*%
X218169337Y-47295594D03*
D11*
X223242375Y-47029727D03*
D10*
X228315413Y-46763860D03*
%TD*%
%TO.C,MX9*%
X211025581Y-28245578D03*
D11*
X216098619Y-27979711D03*
D10*
X221171657Y-27713844D03*
%TD*%
%TO.C,MX35*%
X166500344Y-95202205D03*
D11*
X171450144Y-94059454D03*
D10*
X176399944Y-92916703D03*
%TD*%
%TO.C,MX20*%
X237807704Y-46434414D03*
D11*
X242887704Y-46434414D03*
D10*
X247967704Y-46434414D03*
%TD*%
%TO.C,MX23*%
X74719771Y-69715929D03*
D11*
X79771942Y-70246934D03*
D10*
X84824113Y-70777939D03*
%TD*%
%TO.C,MX33*%
X74719771Y-89361258D03*
D11*
X79771942Y-89892263D03*
D10*
X84824113Y-90423268D03*
%TD*%
D20*
%TO.C,KNOB1*%
X158657853Y-83460637D03*
D16*
X163548591Y-82421079D03*
X161103222Y-82940858D03*
D17*
X154066257Y-76769056D03*
X165021511Y-74440446D03*
D16*
X160533871Y-68237939D03*
X155643133Y-69277497D03*
%TD*%
D10*
%TO.C,MX14*%
X89637310Y-51592857D03*
D11*
X94654767Y-52387544D03*
D10*
X99672224Y-53182231D03*
%TD*%
%TO.C,MX37*%
X213406833Y-87181565D03*
D11*
X218479871Y-86915698D03*
D10*
X223552909Y-86649831D03*
%TD*%
%TO.C,MX21*%
X28257528Y-66675056D03*
D11*
X33337528Y-66675056D03*
D10*
X38417528Y-66675056D03*
%TD*%
%TO.C,MX12*%
X50291071Y-47359173D03*
D11*
X55364109Y-47625040D03*
D10*
X60437147Y-47890907D03*
%TD*%
%TO.C,MX2*%
X47909819Y-27713844D03*
D11*
X52982857Y-27979711D03*
D10*
X58055895Y-28245578D03*
%TD*%
D13*
%TO.C,REF\u002A\u002A*%
X254589155Y-24209520D03*
X255753406Y-21398771D03*
X255753406Y-27020269D03*
X258564155Y-20234520D03*
D14*
X258564155Y-24209520D03*
D13*
X258564155Y-28184520D03*
X261374904Y-21398771D03*
X261374904Y-27020269D03*
X262539155Y-24209520D03*
%TD*%
D10*
%TO.C,MX5*%
X106949854Y-34662589D03*
D11*
X111918844Y-35718780D03*
D10*
X116887834Y-36774971D03*
%TD*%
%TO.C,MX11*%
X28257528Y-47029727D03*
D11*
X33337528Y-47029727D03*
D10*
X38417528Y-47029727D03*
%TD*%
%TO.C,MX16*%
X159337398Y-55824987D03*
D11*
X164306388Y-54768796D03*
D10*
X169275378Y-53712605D03*
%TD*%
%TO.C,MX1*%
X28257528Y-27384398D03*
D11*
X33337528Y-27384398D03*
D10*
X38417528Y-27384398D03*
%TD*%
D11*
%TO.C,MX26*%
X159543884Y-75604751D03*
%TD*%
D21*
%TO.C,D17*%
X188384847Y-58829118D03*
X187852969Y-55470978D03*
%TD*%
%TO.C,D13*%
X77212992Y-58245422D03*
X77568388Y-54864048D03*
%TD*%
%TO.C,D14*%
X96770080Y-61210370D03*
X97301958Y-57852230D03*
%TD*%
%TO.C,D33*%
X87928478Y-92178111D03*
X88283874Y-88796737D03*
%TD*%
%TO.C,D3*%
X74831740Y-38004780D03*
X75187136Y-34623406D03*
%TD*%
%TO.C,D38*%
X248840834Y-86829759D03*
X248840834Y-83429759D03*
%TD*%
%TO.C,D9*%
X219759468Y-36225824D03*
X219581526Y-32830484D03*
%TD*%
%TO.C,D10*%
X241101765Y-35632841D03*
X241101765Y-32232841D03*
%TD*%
%TO.C,D31*%
X46434414Y-87425072D03*
X46434414Y-84025072D03*
%TD*%
%TO.C,D11*%
X36909406Y-55278170D03*
X36909406Y-51878170D03*
%TD*%
%TO.C,D15*%
X115732585Y-64766029D03*
X116439485Y-61440327D03*
%TD*%
%TO.C,D24*%
X101532584Y-82046325D03*
X102064462Y-78688185D03*
%TD*%
%TO.C,D37*%
X226903224Y-88018055D03*
X226725282Y-84622715D03*
%TD*%
%TO.C,D16*%
X169422342Y-61789464D03*
X168715442Y-58463762D03*
%TD*%
%TO.C,D12*%
X58251703Y-55871153D03*
X58429645Y-52475813D03*
%TD*%
%TO.C,D32*%
X68372024Y-90399307D03*
X68549966Y-87003967D03*
%TD*%
%TO.C,D18*%
X207941935Y-56459483D03*
X207586539Y-53078109D03*
%TD*%
%TO.C,D7*%
X181241091Y-40374415D03*
X180709213Y-37016275D03*
%TD*%
%TO.C,D29*%
X222140720Y-75516482D03*
X221962778Y-72121142D03*
%TD*%
%TO.C,D1*%
X36909406Y-35632841D03*
X36909406Y-32232841D03*
%TD*%
%TO.C,D20*%
X245864269Y-54682857D03*
X245864269Y-51282857D03*
%TD*%
%TO.C,D19*%
X226903224Y-54680527D03*
X226725282Y-51285187D03*
%TD*%
%TO.C,D28*%
X202584118Y-76700125D03*
X202228722Y-73318751D03*
%TD*%
%TO.C,D27*%
X183622343Y-79665073D03*
X183090465Y-76306933D03*
%TD*%
%TO.C,D8*%
X200202866Y-37409467D03*
X199847470Y-34028093D03*
%TD*%
%TO.C,D2*%
X55870451Y-36225824D03*
X56048393Y-32830484D03*
%TD*%
%TO.C,D26*%
X169775792Y-81907018D03*
X169068892Y-78581316D03*
%TD*%
%TO.C,D23*%
X81975496Y-79081377D03*
X82330892Y-75700003D03*
%TD*%
%TO.C,D6*%
X162278586Y-43334761D03*
X161571686Y-40009059D03*
%TD*%
%TO.C,D30*%
X246459582Y-74328186D03*
X246459582Y-70928186D03*
%TD*%
%TO.C,D25*%
X109184142Y-83220732D03*
X109891042Y-79895030D03*
%TD*%
%TO.C,D22*%
X63014207Y-76111795D03*
X63192149Y-72716455D03*
%TD*%
%TO.C,D36*%
X207346622Y-89201698D03*
X206991226Y-85820324D03*
%TD*%
%TO.C,D5*%
X113351333Y-44525387D03*
X114058233Y-41199685D03*
%TD*%
%TO.C,D35*%
X180137976Y-93936366D03*
X179431076Y-90610664D03*
%TD*%
%TO.C,D4*%
X94388828Y-40969728D03*
X94920706Y-37611588D03*
%TD*%
%TO.C,D34*%
X115137272Y-98698870D03*
X115844172Y-95373168D03*
%TD*%
%TO.C,D21*%
X36909406Y-74923499D03*
X36909406Y-71523499D03*
%TD*%
D22*
X10916990Y-90493678D02*
X10916990Y-24010962D01*
X69056308Y-98226645D02*
X88701637Y-101203210D01*
X258961155Y-95845397D02*
G75*
G03*
X265509597Y-89296950I45J6548397D01*
G01*
X123229791Y-27979711D02*
X145851685Y-27979711D01*
X51792231Y-97036019D02*
X17264077Y-97036019D01*
X264914310Y-23812520D02*
G75*
G03*
X258961155Y-17859390I-5953110J20D01*
G01*
X227409566Y-95845393D02*
X258961155Y-95845392D01*
X17440698Y-17870650D02*
G75*
G03*
X10916990Y-24010962I-191698J-6332010D01*
G01*
X184547030Y-20835955D02*
X205978298Y-19050016D01*
X141953242Y-77390690D02*
G75*
G03*
X141953242Y-77390690I-2650000J0D01*
G01*
X209550176Y-97036019D02*
X189904847Y-100012584D01*
X104775088Y-24407833D02*
X123229791Y-27979711D01*
X88701637Y-101203210D02*
X121443852Y-108346966D01*
X145851685Y-27979711D02*
X164306388Y-24407833D01*
X164306388Y-24407833D02*
X184547030Y-20835955D01*
X17440698Y-17870656D02*
X44053162Y-17859390D01*
X261214155Y-24209520D02*
G75*
G03*
X261214155Y-24209520I-2650000J0D01*
G01*
X227409566Y-95845393D02*
X209550176Y-97036019D01*
X44053162Y-17859390D02*
X63103178Y-19050016D01*
X121443852Y-108346966D02*
X157162632Y-108346966D01*
X265509597Y-89296950D02*
X264914285Y-23812520D01*
X10916995Y-90493678D02*
G75*
G03*
X17264077Y-97036019I6347085J-192342D01*
G01*
X19914080Y-90686020D02*
G75*
G03*
X19914080Y-90686020I-2650000J0D01*
G01*
X258961155Y-17859390D02*
X225028314Y-17859390D01*
X84534446Y-20835955D02*
X104775088Y-24407833D01*
X51792231Y-97036019D02*
X69056308Y-98226645D01*
X19899000Y-24202660D02*
G75*
G03*
X19899000Y-24202660I-2650000J0D01*
G01*
X157162632Y-108346966D02*
X189904847Y-100012584D01*
X261809155Y-89494950D02*
G75*
G03*
X261809155Y-89494950I-2650000J0D01*
G01*
X205978298Y-19050016D02*
X225028314Y-17859390D01*
X63103178Y-19050016D02*
X84534446Y-20835955D01*
M02*
