%TF.GenerationSoftware,KiCad,Pcbnew,7.0.6*%
%TF.CreationDate,2023-09-29T23:10:54-04:00*%
%TF.ProjectId,tiddlywink,74696464-6c79-4776-996e-6b2e6b696361,rev?*%
%TF.SameCoordinates,Original*%
%TF.FileFunction,Legend,Top*%
%TF.FilePolarity,Positive*%
%FSLAX46Y46*%
G04 Gerber Fmt 4.6, Leading zero omitted, Abs format (unit mm)*
G04 Created by KiCad (PCBNEW 7.0.6) date 2023-09-29 23:10:54*
%MOMM*%
%LPD*%
G01*
G04 APERTURE LIST*
%ADD10C,0.300000*%
%ADD11C,0.150000*%
%ADD12C,0.120000*%
%ADD13R,1.752600X1.752600*%
%ADD14C,1.752600*%
%TA.AperFunction,Profile*%
%ADD15C,0.100000*%
%TD*%
G04 APERTURE END LIST*
D10*
X132311566Y-106644042D02*
X132311566Y-105144042D01*
X132311566Y-105715471D02*
X132454424Y-105644042D01*
X132454424Y-105644042D02*
X132740138Y-105644042D01*
X132740138Y-105644042D02*
X132882995Y-105715471D01*
X132882995Y-105715471D02*
X132954424Y-105786899D01*
X132954424Y-105786899D02*
X133025852Y-105929756D01*
X133025852Y-105929756D02*
X133025852Y-106358328D01*
X133025852Y-106358328D02*
X132954424Y-106501185D01*
X132954424Y-106501185D02*
X132882995Y-106572614D01*
X132882995Y-106572614D02*
X132740138Y-106644042D01*
X132740138Y-106644042D02*
X132454424Y-106644042D01*
X132454424Y-106644042D02*
X132311566Y-106572614D01*
X133525852Y-105644042D02*
X133882995Y-106644042D01*
X134240138Y-105644042D02*
X133882995Y-106644042D01*
X133882995Y-106644042D02*
X133740138Y-107001185D01*
X133740138Y-107001185D02*
X133668709Y-107072614D01*
X133668709Y-107072614D02*
X133525852Y-107144042D01*
X134811566Y-106501185D02*
X134882995Y-106572614D01*
X134882995Y-106572614D02*
X134811566Y-106644042D01*
X134811566Y-106644042D02*
X134740138Y-106572614D01*
X134740138Y-106572614D02*
X134811566Y-106501185D01*
X134811566Y-106501185D02*
X134811566Y-106644042D01*
X134811566Y-105715471D02*
X134882995Y-105786899D01*
X134882995Y-105786899D02*
X134811566Y-105858328D01*
X134811566Y-105858328D02*
X134740138Y-105786899D01*
X134740138Y-105786899D02*
X134811566Y-105715471D01*
X134811566Y-105715471D02*
X134811566Y-105858328D01*
X136668709Y-106644042D02*
X136668709Y-105144042D01*
X136668709Y-105144042D02*
X137025852Y-105144042D01*
X137025852Y-105144042D02*
X137240138Y-105215471D01*
X137240138Y-105215471D02*
X137382995Y-105358328D01*
X137382995Y-105358328D02*
X137454424Y-105501185D01*
X137454424Y-105501185D02*
X137525852Y-105786899D01*
X137525852Y-105786899D02*
X137525852Y-106001185D01*
X137525852Y-106001185D02*
X137454424Y-106286899D01*
X137454424Y-106286899D02*
X137382995Y-106429756D01*
X137382995Y-106429756D02*
X137240138Y-106572614D01*
X137240138Y-106572614D02*
X137025852Y-106644042D01*
X137025852Y-106644042D02*
X136668709Y-106644042D01*
X138168709Y-106644042D02*
X138168709Y-105644042D01*
X138168709Y-105929756D02*
X138240138Y-105786899D01*
X138240138Y-105786899D02*
X138311567Y-105715471D01*
X138311567Y-105715471D02*
X138454424Y-105644042D01*
X138454424Y-105644042D02*
X138597281Y-105644042D01*
X139097280Y-106501185D02*
X139168709Y-106572614D01*
X139168709Y-106572614D02*
X139097280Y-106644042D01*
X139097280Y-106644042D02*
X139025852Y-106572614D01*
X139025852Y-106572614D02*
X139097280Y-106501185D01*
X139097280Y-106501185D02*
X139097280Y-106644042D01*
X140954423Y-106644042D02*
X140954423Y-105144042D01*
X140954423Y-105858328D02*
X141811566Y-105858328D01*
X141811566Y-106644042D02*
X141811566Y-105144042D01*
X142525852Y-106644042D02*
X142525852Y-105644042D01*
X142525852Y-105144042D02*
X142454424Y-105215471D01*
X142454424Y-105215471D02*
X142525852Y-105286899D01*
X142525852Y-105286899D02*
X142597281Y-105215471D01*
X142597281Y-105215471D02*
X142525852Y-105144042D01*
X142525852Y-105144042D02*
X142525852Y-105286899D01*
X143882996Y-105644042D02*
X143882996Y-106858328D01*
X143882996Y-106858328D02*
X143811567Y-107001185D01*
X143811567Y-107001185D02*
X143740138Y-107072614D01*
X143740138Y-107072614D02*
X143597281Y-107144042D01*
X143597281Y-107144042D02*
X143382996Y-107144042D01*
X143382996Y-107144042D02*
X143240138Y-107072614D01*
X143882996Y-106572614D02*
X143740138Y-106644042D01*
X143740138Y-106644042D02*
X143454424Y-106644042D01*
X143454424Y-106644042D02*
X143311567Y-106572614D01*
X143311567Y-106572614D02*
X143240138Y-106501185D01*
X143240138Y-106501185D02*
X143168710Y-106358328D01*
X143168710Y-106358328D02*
X143168710Y-105929756D01*
X143168710Y-105929756D02*
X143240138Y-105786899D01*
X143240138Y-105786899D02*
X143311567Y-105715471D01*
X143311567Y-105715471D02*
X143454424Y-105644042D01*
X143454424Y-105644042D02*
X143740138Y-105644042D01*
X143740138Y-105644042D02*
X143882996Y-105715471D01*
X144525853Y-106572614D02*
X144668710Y-106644042D01*
X144668710Y-106644042D02*
X144954424Y-106644042D01*
X144954424Y-106644042D02*
X145097281Y-106572614D01*
X145097281Y-106572614D02*
X145168710Y-106429756D01*
X145168710Y-106429756D02*
X145168710Y-106358328D01*
X145168710Y-106358328D02*
X145097281Y-106215471D01*
X145097281Y-106215471D02*
X144954424Y-106144042D01*
X144954424Y-106144042D02*
X144740139Y-106144042D01*
X144740139Y-106144042D02*
X144597281Y-106072614D01*
X144597281Y-106072614D02*
X144525853Y-105929756D01*
X144525853Y-105929756D02*
X144525853Y-105858328D01*
X144525853Y-105858328D02*
X144597281Y-105715471D01*
X144597281Y-105715471D02*
X144740139Y-105644042D01*
X144740139Y-105644042D02*
X144954424Y-105644042D01*
X144954424Y-105644042D02*
X145097281Y-105715471D01*
X145811567Y-106644042D02*
X145811567Y-105144042D01*
X145811567Y-105715471D02*
X145954425Y-105644042D01*
X145954425Y-105644042D02*
X146240139Y-105644042D01*
X146240139Y-105644042D02*
X146382996Y-105715471D01*
X146382996Y-105715471D02*
X146454425Y-105786899D01*
X146454425Y-105786899D02*
X146525853Y-105929756D01*
X146525853Y-105929756D02*
X146525853Y-106358328D01*
X146525853Y-106358328D02*
X146454425Y-106501185D01*
X146454425Y-106501185D02*
X146382996Y-106572614D01*
X146382996Y-106572614D02*
X146240139Y-106644042D01*
X146240139Y-106644042D02*
X145954425Y-106644042D01*
X145954425Y-106644042D02*
X145811567Y-106572614D01*
X147025853Y-105644042D02*
X147382996Y-106644042D01*
X147740139Y-105644042D02*
X147382996Y-106644042D01*
X147382996Y-106644042D02*
X147240139Y-107001185D01*
X147240139Y-107001185D02*
X147168710Y-107072614D01*
X147168710Y-107072614D02*
X147025853Y-107144042D01*
D11*
X129084575Y-46614933D02*
X129084575Y-45814933D01*
X129084575Y-45814933D02*
X129275051Y-45814933D01*
X129275051Y-45814933D02*
X129389337Y-45853028D01*
X129389337Y-45853028D02*
X129465527Y-45929218D01*
X129465527Y-45929218D02*
X129503622Y-46005409D01*
X129503622Y-46005409D02*
X129541718Y-46157790D01*
X129541718Y-46157790D02*
X129541718Y-46272076D01*
X129541718Y-46272076D02*
X129503622Y-46424457D01*
X129503622Y-46424457D02*
X129465527Y-46500647D01*
X129465527Y-46500647D02*
X129389337Y-46576838D01*
X129389337Y-46576838D02*
X129275051Y-46614933D01*
X129275051Y-46614933D02*
X129084575Y-46614933D01*
X130036956Y-45814933D02*
X130113146Y-45814933D01*
X130113146Y-45814933D02*
X130189337Y-45853028D01*
X130189337Y-45853028D02*
X130227432Y-45891123D01*
X130227432Y-45891123D02*
X130265527Y-45967314D01*
X130265527Y-45967314D02*
X130303622Y-46119695D01*
X130303622Y-46119695D02*
X130303622Y-46310171D01*
X130303622Y-46310171D02*
X130265527Y-46462552D01*
X130265527Y-46462552D02*
X130227432Y-46538742D01*
X130227432Y-46538742D02*
X130189337Y-46576838D01*
X130189337Y-46576838D02*
X130113146Y-46614933D01*
X130113146Y-46614933D02*
X130036956Y-46614933D01*
X130036956Y-46614933D02*
X129960765Y-46576838D01*
X129960765Y-46576838D02*
X129922670Y-46538742D01*
X129922670Y-46538742D02*
X129884575Y-46462552D01*
X129884575Y-46462552D02*
X129846479Y-46310171D01*
X129846479Y-46310171D02*
X129846479Y-46119695D01*
X129846479Y-46119695D02*
X129884575Y-45967314D01*
X129884575Y-45967314D02*
X129922670Y-45891123D01*
X129922670Y-45891123D02*
X129960765Y-45853028D01*
X129960765Y-45853028D02*
X130036956Y-45814933D01*
X140273241Y-53815885D02*
X140387527Y-53853980D01*
X140387527Y-53853980D02*
X140425622Y-53892076D01*
X140425622Y-53892076D02*
X140463718Y-53968266D01*
X140463718Y-53968266D02*
X140463718Y-54082552D01*
X140463718Y-54082552D02*
X140425622Y-54158742D01*
X140425622Y-54158742D02*
X140387527Y-54196838D01*
X140387527Y-54196838D02*
X140311337Y-54234933D01*
X140311337Y-54234933D02*
X140006575Y-54234933D01*
X140006575Y-54234933D02*
X140006575Y-53434933D01*
X140006575Y-53434933D02*
X140273241Y-53434933D01*
X140273241Y-53434933D02*
X140349432Y-53473028D01*
X140349432Y-53473028D02*
X140387527Y-53511123D01*
X140387527Y-53511123D02*
X140425622Y-53587314D01*
X140425622Y-53587314D02*
X140425622Y-53663504D01*
X140425622Y-53663504D02*
X140387527Y-53739695D01*
X140387527Y-53739695D02*
X140349432Y-53777790D01*
X140349432Y-53777790D02*
X140273241Y-53815885D01*
X140273241Y-53815885D02*
X140006575Y-53815885D01*
X141225622Y-54234933D02*
X140768479Y-54234933D01*
X140997051Y-54234933D02*
X140997051Y-53434933D01*
X140997051Y-53434933D02*
X140920860Y-53549218D01*
X140920860Y-53549218D02*
X140844670Y-53625409D01*
X140844670Y-53625409D02*
X140768479Y-53663504D01*
X140273241Y-58895885D02*
X140387527Y-58933980D01*
X140387527Y-58933980D02*
X140425622Y-58972076D01*
X140425622Y-58972076D02*
X140463718Y-59048266D01*
X140463718Y-59048266D02*
X140463718Y-59162552D01*
X140463718Y-59162552D02*
X140425622Y-59238742D01*
X140425622Y-59238742D02*
X140387527Y-59276838D01*
X140387527Y-59276838D02*
X140311337Y-59314933D01*
X140311337Y-59314933D02*
X140006575Y-59314933D01*
X140006575Y-59314933D02*
X140006575Y-58514933D01*
X140006575Y-58514933D02*
X140273241Y-58514933D01*
X140273241Y-58514933D02*
X140349432Y-58553028D01*
X140349432Y-58553028D02*
X140387527Y-58591123D01*
X140387527Y-58591123D02*
X140425622Y-58667314D01*
X140425622Y-58667314D02*
X140425622Y-58743504D01*
X140425622Y-58743504D02*
X140387527Y-58819695D01*
X140387527Y-58819695D02*
X140349432Y-58857790D01*
X140349432Y-58857790D02*
X140273241Y-58895885D01*
X140273241Y-58895885D02*
X140006575Y-58895885D01*
X140768479Y-58591123D02*
X140806575Y-58553028D01*
X140806575Y-58553028D02*
X140882765Y-58514933D01*
X140882765Y-58514933D02*
X141073241Y-58514933D01*
X141073241Y-58514933D02*
X141149432Y-58553028D01*
X141149432Y-58553028D02*
X141187527Y-58591123D01*
X141187527Y-58591123D02*
X141225622Y-58667314D01*
X141225622Y-58667314D02*
X141225622Y-58743504D01*
X141225622Y-58743504D02*
X141187527Y-58857790D01*
X141187527Y-58857790D02*
X140730384Y-59314933D01*
X140730384Y-59314933D02*
X141225622Y-59314933D01*
X140330384Y-43655885D02*
X140063718Y-43655885D01*
X140063718Y-44074933D02*
X140063718Y-43274933D01*
X140063718Y-43274933D02*
X140444670Y-43274933D01*
X141092289Y-43541599D02*
X141092289Y-44074933D01*
X140901813Y-43236838D02*
X140711336Y-43808266D01*
X140711336Y-43808266D02*
X141206575Y-43808266D01*
X129084575Y-44074933D02*
X129084575Y-43274933D01*
X129084575Y-43274933D02*
X129275051Y-43274933D01*
X129275051Y-43274933D02*
X129389337Y-43313028D01*
X129389337Y-43313028D02*
X129465527Y-43389218D01*
X129465527Y-43389218D02*
X129503622Y-43465409D01*
X129503622Y-43465409D02*
X129541718Y-43617790D01*
X129541718Y-43617790D02*
X129541718Y-43732076D01*
X129541718Y-43732076D02*
X129503622Y-43884457D01*
X129503622Y-43884457D02*
X129465527Y-43960647D01*
X129465527Y-43960647D02*
X129389337Y-44036838D01*
X129389337Y-44036838D02*
X129275051Y-44074933D01*
X129275051Y-44074933D02*
X129084575Y-44074933D01*
X130303622Y-44074933D02*
X129846479Y-44074933D01*
X130075051Y-44074933D02*
X130075051Y-43274933D01*
X130075051Y-43274933D02*
X129998860Y-43389218D01*
X129998860Y-43389218D02*
X129922670Y-43465409D01*
X129922670Y-43465409D02*
X129846479Y-43503504D01*
X129084575Y-36454933D02*
X129084575Y-35654933D01*
X129084575Y-35654933D02*
X129275051Y-35654933D01*
X129275051Y-35654933D02*
X129389337Y-35693028D01*
X129389337Y-35693028D02*
X129465527Y-35769218D01*
X129465527Y-35769218D02*
X129503622Y-35845409D01*
X129503622Y-35845409D02*
X129541718Y-35997790D01*
X129541718Y-35997790D02*
X129541718Y-36112076D01*
X129541718Y-36112076D02*
X129503622Y-36264457D01*
X129503622Y-36264457D02*
X129465527Y-36340647D01*
X129465527Y-36340647D02*
X129389337Y-36416838D01*
X129389337Y-36416838D02*
X129275051Y-36454933D01*
X129275051Y-36454933D02*
X129084575Y-36454933D01*
X129846479Y-35731123D02*
X129884575Y-35693028D01*
X129884575Y-35693028D02*
X129960765Y-35654933D01*
X129960765Y-35654933D02*
X130151241Y-35654933D01*
X130151241Y-35654933D02*
X130227432Y-35693028D01*
X130227432Y-35693028D02*
X130265527Y-35731123D01*
X130265527Y-35731123D02*
X130303622Y-35807314D01*
X130303622Y-35807314D02*
X130303622Y-35883504D01*
X130303622Y-35883504D02*
X130265527Y-35997790D01*
X130265527Y-35997790D02*
X129808384Y-36454933D01*
X129808384Y-36454933D02*
X130303622Y-36454933D01*
X140044670Y-33914933D02*
X139778003Y-33533980D01*
X139587527Y-33914933D02*
X139587527Y-33114933D01*
X139587527Y-33114933D02*
X139892289Y-33114933D01*
X139892289Y-33114933D02*
X139968479Y-33153028D01*
X139968479Y-33153028D02*
X140006574Y-33191123D01*
X140006574Y-33191123D02*
X140044670Y-33267314D01*
X140044670Y-33267314D02*
X140044670Y-33381599D01*
X140044670Y-33381599D02*
X140006574Y-33457790D01*
X140006574Y-33457790D02*
X139968479Y-33495885D01*
X139968479Y-33495885D02*
X139892289Y-33533980D01*
X139892289Y-33533980D02*
X139587527Y-33533980D01*
X140349431Y-33686361D02*
X140730384Y-33686361D01*
X140273241Y-33914933D02*
X140539908Y-33114933D01*
X140539908Y-33114933D02*
X140806574Y-33914933D01*
X140997050Y-33114933D02*
X141187526Y-33914933D01*
X141187526Y-33914933D02*
X141339907Y-33343504D01*
X141339907Y-33343504D02*
X141492288Y-33914933D01*
X141492288Y-33914933D02*
X141682765Y-33114933D01*
X129351241Y-61435885D02*
X129465527Y-61473980D01*
X129465527Y-61473980D02*
X129503622Y-61512076D01*
X129503622Y-61512076D02*
X129541718Y-61588266D01*
X129541718Y-61588266D02*
X129541718Y-61702552D01*
X129541718Y-61702552D02*
X129503622Y-61778742D01*
X129503622Y-61778742D02*
X129465527Y-61816838D01*
X129465527Y-61816838D02*
X129389337Y-61854933D01*
X129389337Y-61854933D02*
X129084575Y-61854933D01*
X129084575Y-61854933D02*
X129084575Y-61054933D01*
X129084575Y-61054933D02*
X129351241Y-61054933D01*
X129351241Y-61054933D02*
X129427432Y-61093028D01*
X129427432Y-61093028D02*
X129465527Y-61131123D01*
X129465527Y-61131123D02*
X129503622Y-61207314D01*
X129503622Y-61207314D02*
X129503622Y-61283504D01*
X129503622Y-61283504D02*
X129465527Y-61359695D01*
X129465527Y-61359695D02*
X129427432Y-61397790D01*
X129427432Y-61397790D02*
X129351241Y-61435885D01*
X129351241Y-61435885D02*
X129084575Y-61435885D01*
X130265527Y-61054933D02*
X129884575Y-61054933D01*
X129884575Y-61054933D02*
X129846479Y-61435885D01*
X129846479Y-61435885D02*
X129884575Y-61397790D01*
X129884575Y-61397790D02*
X129960765Y-61359695D01*
X129960765Y-61359695D02*
X130151241Y-61359695D01*
X130151241Y-61359695D02*
X130227432Y-61397790D01*
X130227432Y-61397790D02*
X130265527Y-61435885D01*
X130265527Y-61435885D02*
X130303622Y-61512076D01*
X130303622Y-61512076D02*
X130303622Y-61702552D01*
X130303622Y-61702552D02*
X130265527Y-61778742D01*
X130265527Y-61778742D02*
X130227432Y-61816838D01*
X130227432Y-61816838D02*
X130151241Y-61854933D01*
X130151241Y-61854933D02*
X129960765Y-61854933D01*
X129960765Y-61854933D02*
X129884575Y-61816838D01*
X129884575Y-61816838D02*
X129846479Y-61778742D01*
X129084575Y-54234933D02*
X129084575Y-53434933D01*
X129084575Y-53434933D02*
X129275051Y-53434933D01*
X129275051Y-53434933D02*
X129389337Y-53473028D01*
X129389337Y-53473028D02*
X129465527Y-53549218D01*
X129465527Y-53549218D02*
X129503622Y-53625409D01*
X129503622Y-53625409D02*
X129541718Y-53777790D01*
X129541718Y-53777790D02*
X129541718Y-53892076D01*
X129541718Y-53892076D02*
X129503622Y-54044457D01*
X129503622Y-54044457D02*
X129465527Y-54120647D01*
X129465527Y-54120647D02*
X129389337Y-54196838D01*
X129389337Y-54196838D02*
X129275051Y-54234933D01*
X129275051Y-54234933D02*
X129084575Y-54234933D01*
X129808384Y-53434933D02*
X130341718Y-53434933D01*
X130341718Y-53434933D02*
X129998860Y-54234933D01*
X140330384Y-51275885D02*
X140063718Y-51275885D01*
X140063718Y-51694933D02*
X140063718Y-50894933D01*
X140063718Y-50894933D02*
X140444670Y-50894933D01*
X140673241Y-50894933D02*
X141206575Y-50894933D01*
X141206575Y-50894933D02*
X140863717Y-51694933D01*
X140330384Y-46195885D02*
X140063718Y-46195885D01*
X140063718Y-46614933D02*
X140063718Y-45814933D01*
X140063718Y-45814933D02*
X140444670Y-45814933D01*
X141130384Y-45814933D02*
X140749432Y-45814933D01*
X140749432Y-45814933D02*
X140711336Y-46195885D01*
X140711336Y-46195885D02*
X140749432Y-46157790D01*
X140749432Y-46157790D02*
X140825622Y-46119695D01*
X140825622Y-46119695D02*
X141016098Y-46119695D01*
X141016098Y-46119695D02*
X141092289Y-46157790D01*
X141092289Y-46157790D02*
X141130384Y-46195885D01*
X141130384Y-46195885D02*
X141168479Y-46272076D01*
X141168479Y-46272076D02*
X141168479Y-46462552D01*
X141168479Y-46462552D02*
X141130384Y-46538742D01*
X141130384Y-46538742D02*
X141092289Y-46576838D01*
X141092289Y-46576838D02*
X141016098Y-46614933D01*
X141016098Y-46614933D02*
X140825622Y-46614933D01*
X140825622Y-46614933D02*
X140749432Y-46576838D01*
X140749432Y-46576838D02*
X140711336Y-46538742D01*
X140273241Y-61435885D02*
X140387527Y-61473980D01*
X140387527Y-61473980D02*
X140425622Y-61512076D01*
X140425622Y-61512076D02*
X140463718Y-61588266D01*
X140463718Y-61588266D02*
X140463718Y-61702552D01*
X140463718Y-61702552D02*
X140425622Y-61778742D01*
X140425622Y-61778742D02*
X140387527Y-61816838D01*
X140387527Y-61816838D02*
X140311337Y-61854933D01*
X140311337Y-61854933D02*
X140006575Y-61854933D01*
X140006575Y-61854933D02*
X140006575Y-61054933D01*
X140006575Y-61054933D02*
X140273241Y-61054933D01*
X140273241Y-61054933D02*
X140349432Y-61093028D01*
X140349432Y-61093028D02*
X140387527Y-61131123D01*
X140387527Y-61131123D02*
X140425622Y-61207314D01*
X140425622Y-61207314D02*
X140425622Y-61283504D01*
X140425622Y-61283504D02*
X140387527Y-61359695D01*
X140387527Y-61359695D02*
X140349432Y-61397790D01*
X140349432Y-61397790D02*
X140273241Y-61435885D01*
X140273241Y-61435885D02*
X140006575Y-61435885D01*
X141149432Y-61054933D02*
X140997051Y-61054933D01*
X140997051Y-61054933D02*
X140920860Y-61093028D01*
X140920860Y-61093028D02*
X140882765Y-61131123D01*
X140882765Y-61131123D02*
X140806575Y-61245409D01*
X140806575Y-61245409D02*
X140768479Y-61397790D01*
X140768479Y-61397790D02*
X140768479Y-61702552D01*
X140768479Y-61702552D02*
X140806575Y-61778742D01*
X140806575Y-61778742D02*
X140844670Y-61816838D01*
X140844670Y-61816838D02*
X140920860Y-61854933D01*
X140920860Y-61854933D02*
X141073241Y-61854933D01*
X141073241Y-61854933D02*
X141149432Y-61816838D01*
X141149432Y-61816838D02*
X141187527Y-61778742D01*
X141187527Y-61778742D02*
X141225622Y-61702552D01*
X141225622Y-61702552D02*
X141225622Y-61512076D01*
X141225622Y-61512076D02*
X141187527Y-61435885D01*
X141187527Y-61435885D02*
X141149432Y-61397790D01*
X141149432Y-61397790D02*
X141073241Y-61359695D01*
X141073241Y-61359695D02*
X140920860Y-61359695D01*
X140920860Y-61359695D02*
X140844670Y-61397790D01*
X140844670Y-61397790D02*
X140806575Y-61435885D01*
X140806575Y-61435885D02*
X140768479Y-61512076D01*
X129351241Y-58895885D02*
X129465527Y-58933980D01*
X129465527Y-58933980D02*
X129503622Y-58972076D01*
X129503622Y-58972076D02*
X129541718Y-59048266D01*
X129541718Y-59048266D02*
X129541718Y-59162552D01*
X129541718Y-59162552D02*
X129503622Y-59238742D01*
X129503622Y-59238742D02*
X129465527Y-59276838D01*
X129465527Y-59276838D02*
X129389337Y-59314933D01*
X129389337Y-59314933D02*
X129084575Y-59314933D01*
X129084575Y-59314933D02*
X129084575Y-58514933D01*
X129084575Y-58514933D02*
X129351241Y-58514933D01*
X129351241Y-58514933D02*
X129427432Y-58553028D01*
X129427432Y-58553028D02*
X129465527Y-58591123D01*
X129465527Y-58591123D02*
X129503622Y-58667314D01*
X129503622Y-58667314D02*
X129503622Y-58743504D01*
X129503622Y-58743504D02*
X129465527Y-58819695D01*
X129465527Y-58819695D02*
X129427432Y-58857790D01*
X129427432Y-58857790D02*
X129351241Y-58895885D01*
X129351241Y-58895885D02*
X129084575Y-58895885D01*
X130227432Y-58781599D02*
X130227432Y-59314933D01*
X130036956Y-58476838D02*
X129846479Y-59048266D01*
X129846479Y-59048266D02*
X130341718Y-59048266D01*
X139987527Y-35693028D02*
X139911337Y-35654933D01*
X139911337Y-35654933D02*
X139797051Y-35654933D01*
X139797051Y-35654933D02*
X139682765Y-35693028D01*
X139682765Y-35693028D02*
X139606575Y-35769218D01*
X139606575Y-35769218D02*
X139568480Y-35845409D01*
X139568480Y-35845409D02*
X139530384Y-35997790D01*
X139530384Y-35997790D02*
X139530384Y-36112076D01*
X139530384Y-36112076D02*
X139568480Y-36264457D01*
X139568480Y-36264457D02*
X139606575Y-36340647D01*
X139606575Y-36340647D02*
X139682765Y-36416838D01*
X139682765Y-36416838D02*
X139797051Y-36454933D01*
X139797051Y-36454933D02*
X139873242Y-36454933D01*
X139873242Y-36454933D02*
X139987527Y-36416838D01*
X139987527Y-36416838D02*
X140025623Y-36378742D01*
X140025623Y-36378742D02*
X140025623Y-36112076D01*
X140025623Y-36112076D02*
X139873242Y-36112076D01*
X140368480Y-36454933D02*
X140368480Y-35654933D01*
X140368480Y-35654933D02*
X140825623Y-36454933D01*
X140825623Y-36454933D02*
X140825623Y-35654933D01*
X141206575Y-36454933D02*
X141206575Y-35654933D01*
X141206575Y-35654933D02*
X141397051Y-35654933D01*
X141397051Y-35654933D02*
X141511337Y-35693028D01*
X141511337Y-35693028D02*
X141587527Y-35769218D01*
X141587527Y-35769218D02*
X141625622Y-35845409D01*
X141625622Y-35845409D02*
X141663718Y-35997790D01*
X141663718Y-35997790D02*
X141663718Y-36112076D01*
X141663718Y-36112076D02*
X141625622Y-36264457D01*
X141625622Y-36264457D02*
X141587527Y-36340647D01*
X141587527Y-36340647D02*
X141511337Y-36416838D01*
X141511337Y-36416838D02*
X141397051Y-36454933D01*
X141397051Y-36454933D02*
X141206575Y-36454933D01*
X140273241Y-56355885D02*
X140387527Y-56393980D01*
X140387527Y-56393980D02*
X140425622Y-56432076D01*
X140425622Y-56432076D02*
X140463718Y-56508266D01*
X140463718Y-56508266D02*
X140463718Y-56622552D01*
X140463718Y-56622552D02*
X140425622Y-56698742D01*
X140425622Y-56698742D02*
X140387527Y-56736838D01*
X140387527Y-56736838D02*
X140311337Y-56774933D01*
X140311337Y-56774933D02*
X140006575Y-56774933D01*
X140006575Y-56774933D02*
X140006575Y-55974933D01*
X140006575Y-55974933D02*
X140273241Y-55974933D01*
X140273241Y-55974933D02*
X140349432Y-56013028D01*
X140349432Y-56013028D02*
X140387527Y-56051123D01*
X140387527Y-56051123D02*
X140425622Y-56127314D01*
X140425622Y-56127314D02*
X140425622Y-56203504D01*
X140425622Y-56203504D02*
X140387527Y-56279695D01*
X140387527Y-56279695D02*
X140349432Y-56317790D01*
X140349432Y-56317790D02*
X140273241Y-56355885D01*
X140273241Y-56355885D02*
X140006575Y-56355885D01*
X140730384Y-55974933D02*
X141225622Y-55974933D01*
X141225622Y-55974933D02*
X140958956Y-56279695D01*
X140958956Y-56279695D02*
X141073241Y-56279695D01*
X141073241Y-56279695D02*
X141149432Y-56317790D01*
X141149432Y-56317790D02*
X141187527Y-56355885D01*
X141187527Y-56355885D02*
X141225622Y-56432076D01*
X141225622Y-56432076D02*
X141225622Y-56622552D01*
X141225622Y-56622552D02*
X141187527Y-56698742D01*
X141187527Y-56698742D02*
X141149432Y-56736838D01*
X141149432Y-56736838D02*
X141073241Y-56774933D01*
X141073241Y-56774933D02*
X140844670Y-56774933D01*
X140844670Y-56774933D02*
X140768479Y-56736838D01*
X140768479Y-56736838D02*
X140730384Y-56698742D01*
X129065527Y-40773028D02*
X128989337Y-40734933D01*
X128989337Y-40734933D02*
X128875051Y-40734933D01*
X128875051Y-40734933D02*
X128760765Y-40773028D01*
X128760765Y-40773028D02*
X128684575Y-40849218D01*
X128684575Y-40849218D02*
X128646480Y-40925409D01*
X128646480Y-40925409D02*
X128608384Y-41077790D01*
X128608384Y-41077790D02*
X128608384Y-41192076D01*
X128608384Y-41192076D02*
X128646480Y-41344457D01*
X128646480Y-41344457D02*
X128684575Y-41420647D01*
X128684575Y-41420647D02*
X128760765Y-41496838D01*
X128760765Y-41496838D02*
X128875051Y-41534933D01*
X128875051Y-41534933D02*
X128951242Y-41534933D01*
X128951242Y-41534933D02*
X129065527Y-41496838D01*
X129065527Y-41496838D02*
X129103623Y-41458742D01*
X129103623Y-41458742D02*
X129103623Y-41192076D01*
X129103623Y-41192076D02*
X128951242Y-41192076D01*
X129446480Y-41534933D02*
X129446480Y-40734933D01*
X129446480Y-40734933D02*
X129903623Y-41534933D01*
X129903623Y-41534933D02*
X129903623Y-40734933D01*
X130284575Y-41534933D02*
X130284575Y-40734933D01*
X130284575Y-40734933D02*
X130475051Y-40734933D01*
X130475051Y-40734933D02*
X130589337Y-40773028D01*
X130589337Y-40773028D02*
X130665527Y-40849218D01*
X130665527Y-40849218D02*
X130703622Y-40925409D01*
X130703622Y-40925409D02*
X130741718Y-41077790D01*
X130741718Y-41077790D02*
X130741718Y-41192076D01*
X130741718Y-41192076D02*
X130703622Y-41344457D01*
X130703622Y-41344457D02*
X130665527Y-41420647D01*
X130665527Y-41420647D02*
X130589337Y-41496838D01*
X130589337Y-41496838D02*
X130475051Y-41534933D01*
X130475051Y-41534933D02*
X130284575Y-41534933D01*
X129065527Y-38233028D02*
X128989337Y-38194933D01*
X128989337Y-38194933D02*
X128875051Y-38194933D01*
X128875051Y-38194933D02*
X128760765Y-38233028D01*
X128760765Y-38233028D02*
X128684575Y-38309218D01*
X128684575Y-38309218D02*
X128646480Y-38385409D01*
X128646480Y-38385409D02*
X128608384Y-38537790D01*
X128608384Y-38537790D02*
X128608384Y-38652076D01*
X128608384Y-38652076D02*
X128646480Y-38804457D01*
X128646480Y-38804457D02*
X128684575Y-38880647D01*
X128684575Y-38880647D02*
X128760765Y-38956838D01*
X128760765Y-38956838D02*
X128875051Y-38994933D01*
X128875051Y-38994933D02*
X128951242Y-38994933D01*
X128951242Y-38994933D02*
X129065527Y-38956838D01*
X129065527Y-38956838D02*
X129103623Y-38918742D01*
X129103623Y-38918742D02*
X129103623Y-38652076D01*
X129103623Y-38652076D02*
X128951242Y-38652076D01*
X129446480Y-38994933D02*
X129446480Y-38194933D01*
X129446480Y-38194933D02*
X129903623Y-38994933D01*
X129903623Y-38994933D02*
X129903623Y-38194933D01*
X130284575Y-38994933D02*
X130284575Y-38194933D01*
X130284575Y-38194933D02*
X130475051Y-38194933D01*
X130475051Y-38194933D02*
X130589337Y-38233028D01*
X130589337Y-38233028D02*
X130665527Y-38309218D01*
X130665527Y-38309218D02*
X130703622Y-38385409D01*
X130703622Y-38385409D02*
X130741718Y-38537790D01*
X130741718Y-38537790D02*
X130741718Y-38652076D01*
X130741718Y-38652076D02*
X130703622Y-38804457D01*
X130703622Y-38804457D02*
X130665527Y-38880647D01*
X130665527Y-38880647D02*
X130589337Y-38956838D01*
X130589337Y-38956838D02*
X130475051Y-38994933D01*
X130475051Y-38994933D02*
X130284575Y-38994933D01*
X140330384Y-48735885D02*
X140063718Y-48735885D01*
X140063718Y-49154933D02*
X140063718Y-48354933D01*
X140063718Y-48354933D02*
X140444670Y-48354933D01*
X141092289Y-48354933D02*
X140939908Y-48354933D01*
X140939908Y-48354933D02*
X140863717Y-48393028D01*
X140863717Y-48393028D02*
X140825622Y-48431123D01*
X140825622Y-48431123D02*
X140749432Y-48545409D01*
X140749432Y-48545409D02*
X140711336Y-48697790D01*
X140711336Y-48697790D02*
X140711336Y-49002552D01*
X140711336Y-49002552D02*
X140749432Y-49078742D01*
X140749432Y-49078742D02*
X140787527Y-49116838D01*
X140787527Y-49116838D02*
X140863717Y-49154933D01*
X140863717Y-49154933D02*
X141016098Y-49154933D01*
X141016098Y-49154933D02*
X141092289Y-49116838D01*
X141092289Y-49116838D02*
X141130384Y-49078742D01*
X141130384Y-49078742D02*
X141168479Y-49002552D01*
X141168479Y-49002552D02*
X141168479Y-48812076D01*
X141168479Y-48812076D02*
X141130384Y-48735885D01*
X141130384Y-48735885D02*
X141092289Y-48697790D01*
X141092289Y-48697790D02*
X141016098Y-48659695D01*
X141016098Y-48659695D02*
X140863717Y-48659695D01*
X140863717Y-48659695D02*
X140787527Y-48697790D01*
X140787527Y-48697790D02*
X140749432Y-48735885D01*
X140749432Y-48735885D02*
X140711336Y-48812076D01*
X129541718Y-51618742D02*
X129503622Y-51656838D01*
X129503622Y-51656838D02*
X129389337Y-51694933D01*
X129389337Y-51694933D02*
X129313146Y-51694933D01*
X129313146Y-51694933D02*
X129198860Y-51656838D01*
X129198860Y-51656838D02*
X129122670Y-51580647D01*
X129122670Y-51580647D02*
X129084575Y-51504457D01*
X129084575Y-51504457D02*
X129046479Y-51352076D01*
X129046479Y-51352076D02*
X129046479Y-51237790D01*
X129046479Y-51237790D02*
X129084575Y-51085409D01*
X129084575Y-51085409D02*
X129122670Y-51009218D01*
X129122670Y-51009218D02*
X129198860Y-50933028D01*
X129198860Y-50933028D02*
X129313146Y-50894933D01*
X129313146Y-50894933D02*
X129389337Y-50894933D01*
X129389337Y-50894933D02*
X129503622Y-50933028D01*
X129503622Y-50933028D02*
X129541718Y-50971123D01*
X130227432Y-50894933D02*
X130075051Y-50894933D01*
X130075051Y-50894933D02*
X129998860Y-50933028D01*
X129998860Y-50933028D02*
X129960765Y-50971123D01*
X129960765Y-50971123D02*
X129884575Y-51085409D01*
X129884575Y-51085409D02*
X129846479Y-51237790D01*
X129846479Y-51237790D02*
X129846479Y-51542552D01*
X129846479Y-51542552D02*
X129884575Y-51618742D01*
X129884575Y-51618742D02*
X129922670Y-51656838D01*
X129922670Y-51656838D02*
X129998860Y-51694933D01*
X129998860Y-51694933D02*
X130151241Y-51694933D01*
X130151241Y-51694933D02*
X130227432Y-51656838D01*
X130227432Y-51656838D02*
X130265527Y-51618742D01*
X130265527Y-51618742D02*
X130303622Y-51542552D01*
X130303622Y-51542552D02*
X130303622Y-51352076D01*
X130303622Y-51352076D02*
X130265527Y-51275885D01*
X130265527Y-51275885D02*
X130227432Y-51237790D01*
X130227432Y-51237790D02*
X130151241Y-51199695D01*
X130151241Y-51199695D02*
X129998860Y-51199695D01*
X129998860Y-51199695D02*
X129922670Y-51237790D01*
X129922670Y-51237790D02*
X129884575Y-51275885D01*
X129884575Y-51275885D02*
X129846479Y-51352076D01*
X140197956Y-39084933D02*
X139931289Y-38703980D01*
X139740813Y-39084933D02*
X139740813Y-38284933D01*
X139740813Y-38284933D02*
X140045575Y-38284933D01*
X140045575Y-38284933D02*
X140121765Y-38323028D01*
X140121765Y-38323028D02*
X140159860Y-38361123D01*
X140159860Y-38361123D02*
X140197956Y-38437314D01*
X140197956Y-38437314D02*
X140197956Y-38551599D01*
X140197956Y-38551599D02*
X140159860Y-38627790D01*
X140159860Y-38627790D02*
X140121765Y-38665885D01*
X140121765Y-38665885D02*
X140045575Y-38703980D01*
X140045575Y-38703980D02*
X139740813Y-38703980D01*
X140502717Y-39046838D02*
X140617003Y-39084933D01*
X140617003Y-39084933D02*
X140807479Y-39084933D01*
X140807479Y-39084933D02*
X140883670Y-39046838D01*
X140883670Y-39046838D02*
X140921765Y-39008742D01*
X140921765Y-39008742D02*
X140959860Y-38932552D01*
X140959860Y-38932552D02*
X140959860Y-38856361D01*
X140959860Y-38856361D02*
X140921765Y-38780171D01*
X140921765Y-38780171D02*
X140883670Y-38742076D01*
X140883670Y-38742076D02*
X140807479Y-38703980D01*
X140807479Y-38703980D02*
X140655098Y-38665885D01*
X140655098Y-38665885D02*
X140578908Y-38627790D01*
X140578908Y-38627790D02*
X140540813Y-38589695D01*
X140540813Y-38589695D02*
X140502717Y-38513504D01*
X140502717Y-38513504D02*
X140502717Y-38437314D01*
X140502717Y-38437314D02*
X140540813Y-38361123D01*
X140540813Y-38361123D02*
X140578908Y-38323028D01*
X140578908Y-38323028D02*
X140655098Y-38284933D01*
X140655098Y-38284933D02*
X140845575Y-38284933D01*
X140845575Y-38284933D02*
X140959860Y-38323028D01*
X141188432Y-38284933D02*
X141645575Y-38284933D01*
X141417003Y-39084933D02*
X141417003Y-38284933D01*
X129373702Y-33114933D02*
X129830845Y-33114933D01*
X129602273Y-33914933D02*
X129602273Y-33114933D01*
X130021321Y-33114933D02*
X130554655Y-33914933D01*
X130554655Y-33114933D02*
X130021321Y-33914933D01*
X131011798Y-33114933D02*
X131087988Y-33114933D01*
X131087988Y-33114933D02*
X131164179Y-33153028D01*
X131164179Y-33153028D02*
X131202274Y-33191123D01*
X131202274Y-33191123D02*
X131240369Y-33267314D01*
X131240369Y-33267314D02*
X131278464Y-33419695D01*
X131278464Y-33419695D02*
X131278464Y-33610171D01*
X131278464Y-33610171D02*
X131240369Y-33762552D01*
X131240369Y-33762552D02*
X131202274Y-33838742D01*
X131202274Y-33838742D02*
X131164179Y-33876838D01*
X131164179Y-33876838D02*
X131087988Y-33914933D01*
X131087988Y-33914933D02*
X131011798Y-33914933D01*
X131011798Y-33914933D02*
X130935607Y-33876838D01*
X130935607Y-33876838D02*
X130897512Y-33838742D01*
X130897512Y-33838742D02*
X130859417Y-33762552D01*
X130859417Y-33762552D02*
X130821321Y-33610171D01*
X130821321Y-33610171D02*
X130821321Y-33419695D01*
X130821321Y-33419695D02*
X130859417Y-33267314D01*
X130859417Y-33267314D02*
X130897512Y-33191123D01*
X130897512Y-33191123D02*
X130935607Y-33153028D01*
X130935607Y-33153028D02*
X131011798Y-33114933D01*
X132192750Y-33076838D02*
X131507036Y-34105409D01*
X132459417Y-33914933D02*
X132459417Y-33114933D01*
X132459417Y-33114933D02*
X132649893Y-33114933D01*
X132649893Y-33114933D02*
X132764179Y-33153028D01*
X132764179Y-33153028D02*
X132840369Y-33229218D01*
X132840369Y-33229218D02*
X132878464Y-33305409D01*
X132878464Y-33305409D02*
X132916560Y-33457790D01*
X132916560Y-33457790D02*
X132916560Y-33572076D01*
X132916560Y-33572076D02*
X132878464Y-33724457D01*
X132878464Y-33724457D02*
X132840369Y-33800647D01*
X132840369Y-33800647D02*
X132764179Y-33876838D01*
X132764179Y-33876838D02*
X132649893Y-33914933D01*
X132649893Y-33914933D02*
X132459417Y-33914933D01*
X133183226Y-33114933D02*
X133678464Y-33114933D01*
X133678464Y-33114933D02*
X133411798Y-33419695D01*
X133411798Y-33419695D02*
X133526083Y-33419695D01*
X133526083Y-33419695D02*
X133602274Y-33457790D01*
X133602274Y-33457790D02*
X133640369Y-33495885D01*
X133640369Y-33495885D02*
X133678464Y-33572076D01*
X133678464Y-33572076D02*
X133678464Y-33762552D01*
X133678464Y-33762552D02*
X133640369Y-33838742D01*
X133640369Y-33838742D02*
X133602274Y-33876838D01*
X133602274Y-33876838D02*
X133526083Y-33914933D01*
X133526083Y-33914933D02*
X133297512Y-33914933D01*
X133297512Y-33914933D02*
X133221321Y-33876838D01*
X133221321Y-33876838D02*
X133183226Y-33838742D01*
X129084575Y-49154933D02*
X129084575Y-48354933D01*
X129084575Y-48354933D02*
X129275051Y-48354933D01*
X129275051Y-48354933D02*
X129389337Y-48393028D01*
X129389337Y-48393028D02*
X129465527Y-48469218D01*
X129465527Y-48469218D02*
X129503622Y-48545409D01*
X129503622Y-48545409D02*
X129541718Y-48697790D01*
X129541718Y-48697790D02*
X129541718Y-48812076D01*
X129541718Y-48812076D02*
X129503622Y-48964457D01*
X129503622Y-48964457D02*
X129465527Y-49040647D01*
X129465527Y-49040647D02*
X129389337Y-49116838D01*
X129389337Y-49116838D02*
X129275051Y-49154933D01*
X129275051Y-49154933D02*
X129084575Y-49154933D01*
X130227432Y-48621599D02*
X130227432Y-49154933D01*
X130036956Y-48316838D02*
X129846479Y-48888266D01*
X129846479Y-48888266D02*
X130341718Y-48888266D01*
X129122670Y-56355885D02*
X129389336Y-56355885D01*
X129503622Y-56774933D02*
X129122670Y-56774933D01*
X129122670Y-56774933D02*
X129122670Y-55974933D01*
X129122670Y-55974933D02*
X129503622Y-55974933D01*
X130189337Y-55974933D02*
X130036956Y-55974933D01*
X130036956Y-55974933D02*
X129960765Y-56013028D01*
X129960765Y-56013028D02*
X129922670Y-56051123D01*
X129922670Y-56051123D02*
X129846480Y-56165409D01*
X129846480Y-56165409D02*
X129808384Y-56317790D01*
X129808384Y-56317790D02*
X129808384Y-56622552D01*
X129808384Y-56622552D02*
X129846480Y-56698742D01*
X129846480Y-56698742D02*
X129884575Y-56736838D01*
X129884575Y-56736838D02*
X129960765Y-56774933D01*
X129960765Y-56774933D02*
X130113146Y-56774933D01*
X130113146Y-56774933D02*
X130189337Y-56736838D01*
X130189337Y-56736838D02*
X130227432Y-56698742D01*
X130227432Y-56698742D02*
X130265527Y-56622552D01*
X130265527Y-56622552D02*
X130265527Y-56432076D01*
X130265527Y-56432076D02*
X130227432Y-56355885D01*
X130227432Y-56355885D02*
X130189337Y-56317790D01*
X130189337Y-56317790D02*
X130113146Y-56279695D01*
X130113146Y-56279695D02*
X129960765Y-56279695D01*
X129960765Y-56279695D02*
X129884575Y-56317790D01*
X129884575Y-56317790D02*
X129846480Y-56355885D01*
X129846480Y-56355885D02*
X129808384Y-56432076D01*
X139530384Y-40734933D02*
X139797051Y-41534933D01*
X139797051Y-41534933D02*
X140063717Y-40734933D01*
X140787527Y-41458742D02*
X140749431Y-41496838D01*
X140749431Y-41496838D02*
X140635146Y-41534933D01*
X140635146Y-41534933D02*
X140558955Y-41534933D01*
X140558955Y-41534933D02*
X140444669Y-41496838D01*
X140444669Y-41496838D02*
X140368479Y-41420647D01*
X140368479Y-41420647D02*
X140330384Y-41344457D01*
X140330384Y-41344457D02*
X140292288Y-41192076D01*
X140292288Y-41192076D02*
X140292288Y-41077790D01*
X140292288Y-41077790D02*
X140330384Y-40925409D01*
X140330384Y-40925409D02*
X140368479Y-40849218D01*
X140368479Y-40849218D02*
X140444669Y-40773028D01*
X140444669Y-40773028D02*
X140558955Y-40734933D01*
X140558955Y-40734933D02*
X140635146Y-40734933D01*
X140635146Y-40734933D02*
X140749431Y-40773028D01*
X140749431Y-40773028D02*
X140787527Y-40811123D01*
X141587527Y-41458742D02*
X141549431Y-41496838D01*
X141549431Y-41496838D02*
X141435146Y-41534933D01*
X141435146Y-41534933D02*
X141358955Y-41534933D01*
X141358955Y-41534933D02*
X141244669Y-41496838D01*
X141244669Y-41496838D02*
X141168479Y-41420647D01*
X141168479Y-41420647D02*
X141130384Y-41344457D01*
X141130384Y-41344457D02*
X141092288Y-41192076D01*
X141092288Y-41192076D02*
X141092288Y-41077790D01*
X141092288Y-41077790D02*
X141130384Y-40925409D01*
X141130384Y-40925409D02*
X141168479Y-40849218D01*
X141168479Y-40849218D02*
X141244669Y-40773028D01*
X141244669Y-40773028D02*
X141358955Y-40734933D01*
X141358955Y-40734933D02*
X141435146Y-40734933D01*
X141435146Y-40734933D02*
X141549431Y-40773028D01*
X141549431Y-40773028D02*
X141587527Y-40811123D01*
D12*
%TO.C,RST1*%
X134171990Y-67460995D02*
X134171990Y-69460995D01*
X135221990Y-66160995D02*
X135671990Y-65710995D01*
X135221990Y-70760995D02*
X135671990Y-71210995D01*
X135671990Y-65710995D02*
X138171990Y-65710995D01*
X135671990Y-71210995D02*
X138171990Y-71210995D01*
X138621990Y-66160995D02*
X138171990Y-65710995D01*
X138621990Y-70760995D02*
X138171990Y-71210995D01*
X139671990Y-67460995D02*
X139671990Y-69460995D01*
%TO.C, *%
G36*
X147946908Y-101830214D02*
G01*
X147969726Y-103671714D01*
X147311908Y-103671806D01*
X146654091Y-103671898D01*
X146656423Y-103511230D01*
X146865757Y-103511230D01*
X147310257Y-103485638D01*
X147754757Y-103460047D01*
X147800747Y-100200381D01*
X146865757Y-100200381D01*
X146865757Y-103511230D01*
X146656423Y-103511230D01*
X146680170Y-101874782D01*
X146688612Y-101342694D01*
X146697460Y-100871813D01*
X146706133Y-100487004D01*
X146714051Y-100213126D01*
X146720631Y-100075042D01*
X146722503Y-100063401D01*
X146808435Y-100052382D01*
X147019168Y-100036838D01*
X147310349Y-100020008D01*
X147331424Y-100018925D01*
X147924091Y-99988714D01*
X147946908Y-101830214D01*
G37*
G36*
X129170424Y-98832904D02*
G01*
X129453166Y-98849776D01*
X129656440Y-98865136D01*
X129734238Y-98875237D01*
X129747785Y-98959046D01*
X129766472Y-99156153D01*
X129775165Y-99269047D01*
X129802611Y-99650047D01*
X129185628Y-99675015D01*
X128568644Y-99699983D01*
X128593371Y-99269047D01*
X128747091Y-99269047D01*
X128756339Y-99419409D01*
X128813206Y-99494389D01*
X128961371Y-99520195D01*
X129170424Y-99523047D01*
X129421027Y-99517498D01*
X129545993Y-99483378D01*
X129589004Y-99394479D01*
X129593757Y-99269047D01*
X129584508Y-99118685D01*
X129527641Y-99043705D01*
X129379476Y-99017899D01*
X129170424Y-99015047D01*
X128919821Y-99020596D01*
X128794854Y-99054717D01*
X128751844Y-99143616D01*
X128747091Y-99269047D01*
X128593371Y-99269047D01*
X128594367Y-99251682D01*
X128620091Y-98803381D01*
X129170424Y-98832904D01*
G37*
G36*
X147100794Y-98810677D02*
G01*
X147394924Y-98825801D01*
X147966424Y-98865440D01*
X147966424Y-99692381D01*
X147387868Y-99692381D01*
X147089123Y-99684668D01*
X146861115Y-99664443D01*
X146753011Y-99636077D01*
X146752868Y-99635936D01*
X146715292Y-99519308D01*
X146698714Y-99311298D01*
X146699413Y-99269047D01*
X146950424Y-99269047D01*
X146961468Y-99425236D01*
X147025238Y-99499212D01*
X147187688Y-99521611D01*
X147331424Y-99523047D01*
X147565707Y-99515684D01*
X147676671Y-99473171D01*
X147710270Y-99364871D01*
X147712424Y-99269047D01*
X147701379Y-99112859D01*
X147637609Y-99038883D01*
X147475160Y-99016483D01*
X147331424Y-99015047D01*
X147097141Y-99022410D01*
X146986177Y-99064923D01*
X146952578Y-99173223D01*
X146950424Y-99269047D01*
X146699413Y-99269047D01*
X146702545Y-99079899D01*
X146726196Y-98893104D01*
X146759924Y-98820934D01*
X146871025Y-98808828D01*
X147100794Y-98810677D01*
G37*
G36*
X135557245Y-101383618D02*
G01*
X135683782Y-101449070D01*
X135748703Y-101554039D01*
X135772043Y-101748531D01*
X135774424Y-101925669D01*
X135767927Y-102193138D01*
X135732025Y-102342342D01*
X135642103Y-102424281D01*
X135507790Y-102478098D01*
X135258669Y-102552417D01*
X135081523Y-102556019D01*
X134893558Y-102486901D01*
X134843091Y-102462019D01*
X134662285Y-102287210D01*
X134592146Y-102034933D01*
X134594929Y-102017191D01*
X134768619Y-102017191D01*
X134792822Y-102199899D01*
X134886920Y-102284021D01*
X135099944Y-102305913D01*
X135202149Y-102300787D01*
X135429085Y-102275057D01*
X135537653Y-102212067D01*
X135578665Y-102067383D01*
X135588705Y-101962751D01*
X135584131Y-101732472D01*
X135504073Y-101600181D01*
X135429965Y-101551947D01*
X135215758Y-101519001D01*
X135007936Y-101612199D01*
X134845792Y-101791583D01*
X134768619Y-102017191D01*
X134594929Y-102017191D01*
X134635544Y-101758307D01*
X134791869Y-101513905D01*
X135030308Y-101343014D01*
X135292110Y-101311872D01*
X135557245Y-101383618D01*
G37*
G36*
X131934493Y-101373636D02*
G01*
X131956495Y-101382430D01*
X132110971Y-101460060D01*
X132188642Y-101562338D01*
X132215651Y-101743849D01*
X132218424Y-101929310D01*
X132211210Y-102189387D01*
X132170966Y-102333801D01*
X132069790Y-102416146D01*
X131937246Y-102469372D01*
X131703530Y-102544676D01*
X131541551Y-102556521D01*
X131366833Y-102506799D01*
X131307569Y-102483488D01*
X131125660Y-102348328D01*
X131021353Y-102198096D01*
X130973625Y-102021792D01*
X130976142Y-102011958D01*
X131205414Y-102011958D01*
X131232969Y-102189858D01*
X131346639Y-102278461D01*
X131558579Y-102316957D01*
X131803228Y-102298064D01*
X131915166Y-102265655D01*
X132020959Y-102146574D01*
X132053682Y-101945578D01*
X132016331Y-101732039D01*
X131911900Y-101575330D01*
X131884596Y-101557637D01*
X131657255Y-101516964D01*
X131441809Y-101604807D01*
X131277962Y-101782645D01*
X131205414Y-102011958D01*
X130976142Y-102011958D01*
X131020073Y-101840285D01*
X131090014Y-101709255D01*
X131323536Y-101437898D01*
X131608862Y-101324579D01*
X131934493Y-101373636D01*
G37*
G36*
X124603479Y-98789212D02*
G01*
X124955795Y-98794098D01*
X125404304Y-98802804D01*
X125924647Y-98814952D01*
X126191866Y-98821871D01*
X126826293Y-98838379D01*
X127311906Y-98854864D01*
X127669047Y-98879088D01*
X127918057Y-98918816D01*
X128079276Y-98981813D01*
X128173047Y-99075841D01*
X128219709Y-99208665D01*
X128239603Y-99388049D01*
X128252213Y-99608284D01*
X128281424Y-100073381D01*
X126693772Y-100229771D01*
X126746706Y-101421576D01*
X126767959Y-101927754D01*
X126787491Y-102443014D01*
X126803231Y-102909436D01*
X126813107Y-103269100D01*
X126813565Y-103290714D01*
X126827489Y-103968047D01*
X126192016Y-103992534D01*
X125556542Y-104017021D01*
X125501098Y-102680201D01*
X125481280Y-102162116D01*
X125464553Y-101648236D01*
X125452313Y-101187401D01*
X125445956Y-100828451D01*
X125445373Y-100729547D01*
X125445091Y-100115714D01*
X125000591Y-100114558D01*
X124702432Y-100103637D01*
X124445044Y-100077175D01*
X124354617Y-100059480D01*
X124250507Y-100022423D01*
X124195042Y-99954957D01*
X124179241Y-99817115D01*
X124194124Y-99568932D01*
X124208548Y-99409427D01*
X124238568Y-99113054D01*
X124263344Y-98910869D01*
X124429091Y-98910869D01*
X124429091Y-99832904D01*
X125656757Y-99988714D01*
X125707861Y-101893714D01*
X125723094Y-102443036D01*
X125737620Y-102932609D01*
X125750639Y-103338113D01*
X125761352Y-103635232D01*
X125768958Y-103799645D01*
X125771361Y-103824519D01*
X125854871Y-103834701D01*
X126053273Y-103831552D01*
X126185924Y-103824519D01*
X126588091Y-103798714D01*
X126587907Y-102994381D01*
X126584228Y-102575646D01*
X126574397Y-102058625D01*
X126559989Y-101514185D01*
X126545574Y-101089381D01*
X126503424Y-99988714D01*
X127286591Y-99964370D01*
X128069757Y-99940026D01*
X128068461Y-99625703D01*
X128051808Y-99392919D01*
X128012606Y-99230598D01*
X128004961Y-99216590D01*
X127894916Y-99174442D01*
X127631506Y-99134627D01*
X127230699Y-99098900D01*
X126708461Y-99069014D01*
X126630424Y-99065561D01*
X126134901Y-99042347D01*
X125661362Y-99016610D01*
X125253104Y-98990950D01*
X124953426Y-98967966D01*
X124873591Y-98960097D01*
X124429091Y-98910869D01*
X124263344Y-98910869D01*
X124265534Y-98892999D01*
X124283945Y-98793754D01*
X124284846Y-98792403D01*
X124371710Y-98788521D01*
X124603479Y-98789212D01*
G37*
G36*
X150705916Y-99902651D02*
G01*
X151039513Y-100110533D01*
X151295080Y-100460399D01*
X151390027Y-100767825D01*
X151429562Y-101204180D01*
X151415374Y-101738978D01*
X151349150Y-102341732D01*
X151232579Y-102981957D01*
X151132526Y-103396547D01*
X151041231Y-103449229D01*
X150835871Y-103485339D01*
X150571047Y-103503324D01*
X150301360Y-103501630D01*
X150081411Y-103478706D01*
X149965801Y-103432997D01*
X149963559Y-103429798D01*
X149952324Y-103312954D01*
X149969150Y-103084467D01*
X150000405Y-102858298D01*
X150060691Y-102388509D01*
X150084738Y-101961279D01*
X150073522Y-101607550D01*
X150028018Y-101358262D01*
X149949525Y-101244479D01*
X149790883Y-101228125D01*
X149670874Y-101326077D01*
X149584203Y-101551955D01*
X149525577Y-101919380D01*
X149490424Y-102425521D01*
X149448091Y-103375381D01*
X148863817Y-103400707D01*
X148559711Y-103402713D01*
X148321870Y-103383709D01*
X148201321Y-103347801D01*
X148200858Y-103347348D01*
X148182720Y-103257230D01*
X148389757Y-103257230D01*
X148834257Y-103231638D01*
X149278757Y-103206047D01*
X149250072Y-102684181D01*
X149252029Y-102211200D01*
X149304877Y-101773855D01*
X149400249Y-101410288D01*
X149529778Y-101158640D01*
X149599787Y-101090078D01*
X149855419Y-100973842D01*
X150060262Y-101011525D01*
X150172382Y-101140356D01*
X150221157Y-101325283D01*
X150250605Y-101631033D01*
X150259909Y-102010113D01*
X150248252Y-102415026D01*
X150214818Y-102798277D01*
X150202452Y-102888547D01*
X150148530Y-103248381D01*
X150535164Y-103248381D01*
X150774681Y-103239725D01*
X150901711Y-103188478D01*
X150973037Y-103056719D01*
X151010582Y-102930881D01*
X151142046Y-102367257D01*
X151225835Y-101808632D01*
X151254522Y-101313792D01*
X151243658Y-101085556D01*
X151145094Y-100624005D01*
X150953685Y-100302333D01*
X150660551Y-100113367D01*
X150256815Y-100049937D01*
X149981618Y-100066284D01*
X149629638Y-100095101D01*
X149226575Y-100111076D01*
X149015957Y-100112243D01*
X148499157Y-100106034D01*
X148445193Y-100555374D01*
X148424401Y-100814970D01*
X148407201Y-101193920D01*
X148395328Y-101642250D01*
X148390516Y-102109992D01*
X148390493Y-102130972D01*
X148389757Y-103257230D01*
X148182720Y-103257230D01*
X148179625Y-103241855D01*
X148168053Y-102999852D01*
X148165106Y-102653827D01*
X148169745Y-102236264D01*
X148180931Y-101779651D01*
X148197628Y-101316473D01*
X148218797Y-100879215D01*
X148243401Y-100500365D01*
X148270400Y-100212408D01*
X148298758Y-100047830D01*
X148306912Y-100028100D01*
X148416894Y-99977778D01*
X148661327Y-99929871D01*
X149005330Y-99887849D01*
X149414025Y-99855186D01*
X149852530Y-99835355D01*
X150279210Y-99831736D01*
X150705916Y-99902651D01*
G37*
G36*
X152715009Y-98973286D02*
G01*
X152855440Y-99077373D01*
X152929270Y-99277265D01*
X152957623Y-99599244D01*
X152961757Y-99957674D01*
X152961757Y-100809676D01*
X153236924Y-100627459D01*
X153542169Y-100430860D01*
X153751050Y-100329540D01*
X153907984Y-100324683D01*
X154057389Y-100417471D01*
X154243681Y-100609087D01*
X154285657Y-100655378D01*
X154475606Y-100879869D01*
X154607563Y-101063958D01*
X154651263Y-101161072D01*
X154582308Y-101251445D01*
X154404717Y-101396430D01*
X154156185Y-101565423D01*
X154143263Y-101573522D01*
X153893629Y-101738142D01*
X153713343Y-101873715D01*
X153639400Y-101952279D01*
X153639153Y-101954522D01*
X153701219Y-102031383D01*
X153869296Y-102188552D01*
X154116282Y-102401677D01*
X154358819Y-102601220D01*
X154650086Y-102840974D01*
X154884784Y-103043276D01*
X155035876Y-103184228D01*
X155078424Y-103237350D01*
X155030724Y-103356735D01*
X154910067Y-103550806D01*
X154750116Y-103774511D01*
X154584535Y-103982802D01*
X154446989Y-104130628D01*
X154377674Y-104175114D01*
X154267490Y-104124163D01*
X154061840Y-103992023D01*
X153797650Y-103803085D01*
X153681424Y-103715204D01*
X153409426Y-103510823D01*
X153187447Y-103352525D01*
X153049802Y-103264421D01*
X153025257Y-103254137D01*
X152987579Y-103326239D01*
X152964819Y-103515484D01*
X152961757Y-103632942D01*
X152961757Y-104017503D01*
X152324824Y-103992775D01*
X151687890Y-103968047D01*
X151684459Y-101470381D01*
X151681171Y-99077117D01*
X151858372Y-99077117D01*
X151880898Y-101437915D01*
X151903424Y-103798714D01*
X152305591Y-103824519D01*
X152707757Y-103850325D01*
X152707757Y-103337686D01*
X152729614Y-103006638D01*
X152796177Y-102837724D01*
X152908930Y-102829351D01*
X153056521Y-102964213D01*
X153177671Y-103076277D01*
X153397346Y-103250858D01*
X153673994Y-103455332D01*
X153757073Y-103514247D01*
X154063366Y-103721868D01*
X154270738Y-103827887D01*
X154415781Y-103832241D01*
X154535087Y-103734868D01*
X154665246Y-103535705D01*
X154678809Y-103512674D01*
X154829527Y-103255948D01*
X154108257Y-102680664D01*
X153814321Y-102434428D01*
X153577952Y-102213976D01*
X153426870Y-102046606D01*
X153386038Y-101969481D01*
X153450856Y-101857361D01*
X153622599Y-101688260D01*
X153865698Y-101496678D01*
X153894911Y-101475963D01*
X154404731Y-101118345D01*
X154143521Y-100788541D01*
X153882312Y-100458737D01*
X153603163Y-100647059D01*
X153354576Y-100816698D01*
X153122467Y-100978003D01*
X153104276Y-100990845D01*
X152937290Y-101089528D01*
X152822062Y-101098019D01*
X152751369Y-100999443D01*
X152717990Y-100776923D01*
X152714701Y-100413585D01*
X152724849Y-100104287D01*
X152738772Y-99695270D01*
X152738311Y-99426945D01*
X152720539Y-99271058D01*
X152682527Y-99199354D01*
X152629421Y-99183449D01*
X152460096Y-99169469D01*
X152217740Y-99136350D01*
X152177231Y-99129817D01*
X151858372Y-99077117D01*
X151681171Y-99077117D01*
X151681028Y-98972714D01*
X152149854Y-98947388D01*
X152486854Y-98938719D01*
X152715009Y-98973286D01*
G37*
G36*
X132705216Y-98778425D02*
G01*
X132935482Y-98790026D01*
X133106802Y-98816423D01*
X133228165Y-98879851D01*
X133308561Y-99002545D01*
X133356980Y-99206740D01*
X133382412Y-99514672D01*
X133393847Y-99948576D01*
X133399922Y-100496714D01*
X133412966Y-101766714D01*
X133556528Y-101406048D01*
X133764932Y-101028279D01*
X134059806Y-100676926D01*
X134390779Y-100406614D01*
X134562116Y-100315507D01*
X134818126Y-100245354D01*
X135137454Y-100204570D01*
X135260280Y-100200381D01*
X135682909Y-100200381D01*
X135732091Y-98803381D01*
X136256187Y-98778305D01*
X136551926Y-98771105D01*
X136726020Y-98793036D01*
X136825276Y-98855978D01*
X136878189Y-98936171D01*
X136909665Y-99057029D01*
X136931898Y-99291995D01*
X136945154Y-99652498D01*
X136949700Y-100149964D01*
X136945803Y-100795821D01*
X136936548Y-101440902D01*
X136925069Y-102049798D01*
X136912554Y-102600984D01*
X136899674Y-103072476D01*
X136887101Y-103442291D01*
X136875505Y-103688444D01*
X136865555Y-103788952D01*
X136864879Y-103790020D01*
X136770375Y-103811984D01*
X136555842Y-103842148D01*
X136300501Y-103870555D01*
X136002408Y-103893675D01*
X135829781Y-103883692D01*
X135740836Y-103833980D01*
X135707835Y-103776572D01*
X135638266Y-103692914D01*
X135490268Y-103645803D01*
X135225438Y-103625586D01*
X135097091Y-103623067D01*
X134516403Y-103555252D01*
X134053951Y-103367130D01*
X133710939Y-103059674D01*
X133488570Y-102633859D01*
X133403494Y-102251823D01*
X133396438Y-102203735D01*
X133607048Y-102203735D01*
X133713578Y-102623899D01*
X133956393Y-102982435D01*
X134319179Y-103254485D01*
X134742317Y-103406470D01*
X135072530Y-103452963D01*
X135398259Y-103461260D01*
X135525484Y-103449418D01*
X135743787Y-103426870D01*
X135840745Y-103459982D01*
X135859091Y-103533893D01*
X135896393Y-103619816D01*
X136032532Y-103661671D01*
X136270944Y-103671714D01*
X136682798Y-103671714D01*
X136744021Y-101658764D01*
X136758991Y-101072709D01*
X136767598Y-100526471D01*
X136769817Y-100048378D01*
X136765623Y-99666754D01*
X136754992Y-99409927D01*
X136746078Y-99330430D01*
X136702470Y-99141611D01*
X136630865Y-99048885D01*
X136480371Y-99018078D01*
X136276425Y-99015047D01*
X135865939Y-99015047D01*
X135841348Y-99712013D01*
X135816757Y-100408978D01*
X135302613Y-100410513D01*
X134774231Y-100488181D01*
X134325433Y-100711508D01*
X133967904Y-101071023D01*
X133713333Y-101557260D01*
X133653119Y-101746802D01*
X133607048Y-102203735D01*
X133396438Y-102203735D01*
X133377854Y-102077089D01*
X133359327Y-102023768D01*
X133346400Y-102103257D01*
X133337560Y-102326953D01*
X133331292Y-102706256D01*
X133330192Y-102803881D01*
X133319091Y-103841047D01*
X133033341Y-103841047D01*
X132739281Y-103857973D01*
X132484311Y-103893703D01*
X132279623Y-103907901D01*
X132179082Y-103833131D01*
X132168336Y-103809036D01*
X132073820Y-103716496D01*
X131861889Y-103675782D01*
X131716733Y-103671714D01*
X131151492Y-103613530D01*
X130658586Y-103448033D01*
X130263885Y-103188804D01*
X129993262Y-102849426D01*
X129942645Y-102740381D01*
X129887374Y-102614806D01*
X129862499Y-102626036D01*
X129853998Y-102788991D01*
X129853124Y-102835630D01*
X129833620Y-103131773D01*
X129794841Y-103407130D01*
X129741924Y-103671714D01*
X129096341Y-103671808D01*
X128450757Y-103671903D01*
X128453259Y-103502381D01*
X128747091Y-103502381D01*
X129569198Y-103502381D01*
X129620819Y-102888547D01*
X129637281Y-102547753D01*
X129640060Y-102273012D01*
X130044358Y-102273012D01*
X130054976Y-102359232D01*
X130190921Y-102728515D01*
X130460455Y-103042287D01*
X130832050Y-103282597D01*
X131274177Y-103431491D01*
X131755311Y-103471017D01*
X131969484Y-103449418D01*
X132187787Y-103426870D01*
X132284745Y-103459982D01*
X132303091Y-103533893D01*
X132340560Y-103619993D01*
X132477200Y-103661820D01*
X132712952Y-103671714D01*
X133122813Y-103671714D01*
X133178967Y-101738744D01*
X133192982Y-101157601D01*
X133200857Y-100610202D01*
X133202566Y-100127157D01*
X133198083Y-99739075D01*
X133187383Y-99476566D01*
X133180931Y-99410411D01*
X133126741Y-99015047D01*
X132309939Y-99015047D01*
X132260757Y-100412047D01*
X131889557Y-100388066D01*
X131380098Y-100432622D01*
X130920789Y-100617918D01*
X130534596Y-100919279D01*
X130244483Y-101312032D01*
X130073415Y-101771501D01*
X130044358Y-102273012D01*
X129640060Y-102273012D01*
X129641795Y-102101508D01*
X129634392Y-101613269D01*
X129620033Y-101237547D01*
X129567625Y-100200381D01*
X128747091Y-100200381D01*
X128747091Y-103502381D01*
X128453259Y-103502381D01*
X128476687Y-101914975D01*
X128487168Y-101385872D01*
X128501580Y-100915175D01*
X128518709Y-100528836D01*
X128537345Y-100252807D01*
X128556274Y-100113042D01*
X128561354Y-100101961D01*
X128670978Y-100068421D01*
X128897786Y-100037086D01*
X129152307Y-100017294D01*
X129473971Y-100011601D01*
X129665255Y-100041268D01*
X129762519Y-100112135D01*
X129764844Y-100115714D01*
X129802227Y-100255803D01*
X129830690Y-100516066D01*
X129845434Y-100847396D01*
X129846461Y-100950882D01*
X129847757Y-101659050D01*
X130084262Y-101206328D01*
X130405485Y-100738578D01*
X130807558Y-100418006D01*
X131299766Y-100238322D01*
X131569406Y-100200381D01*
X132091424Y-100158047D01*
X132140728Y-98753469D01*
X132705216Y-98778425D01*
G37*
G36*
X137980402Y-98914193D02*
G01*
X138014196Y-98919340D01*
X138348969Y-98974320D01*
X138324925Y-99427330D01*
X138323352Y-99670620D01*
X138344626Y-99820578D01*
X138371152Y-99846187D01*
X138573451Y-99750925D01*
X138817383Y-99640099D01*
X139052208Y-99536205D01*
X139227188Y-99461738D01*
X139290966Y-99438380D01*
X139344001Y-99506627D01*
X139456005Y-99687214D01*
X139604700Y-99943914D01*
X139635195Y-99998181D01*
X139948253Y-100557981D01*
X140220790Y-100077129D01*
X140406892Y-99755041D01*
X140546161Y-99562931D01*
X140677353Y-99484665D01*
X140839219Y-99504108D01*
X141070514Y-99605126D01*
X141200335Y-99669312D01*
X141480159Y-99803928D01*
X141671135Y-99871243D01*
X141835893Y-99879637D01*
X142037066Y-99837490D01*
X142173051Y-99799465D01*
X142442998Y-99735292D01*
X142654974Y-99707433D01*
X142734157Y-99713870D01*
X142811113Y-99811842D01*
X142907346Y-100027689D01*
X143002070Y-100314760D01*
X143002393Y-100315900D01*
X143090122Y-100587091D01*
X143171285Y-100771943D01*
X143229071Y-100832600D01*
X143231362Y-100831504D01*
X143308042Y-100737935D01*
X143431351Y-100542672D01*
X143531015Y-100367106D01*
X143673879Y-100137118D01*
X143802701Y-99984302D01*
X143868035Y-99946380D01*
X144179228Y-100023481D01*
X144423716Y-100255444D01*
X144547610Y-100490126D01*
X144648023Y-100713020D01*
X144727905Y-100853030D01*
X144754466Y-100877396D01*
X144798011Y-100802197D01*
X144872583Y-100601547D01*
X144964566Y-100313338D01*
X144998439Y-100198492D01*
X145094729Y-99883051D01*
X145179676Y-99636446D01*
X145238970Y-99499196D01*
X145250522Y-99484773D01*
X145352896Y-99492994D01*
X145567998Y-99547598D01*
X145849526Y-99636807D01*
X145853216Y-99638073D01*
X146145607Y-99745026D01*
X146313209Y-99833288D01*
X146393564Y-99932359D01*
X146424214Y-100071736D01*
X146425895Y-100088047D01*
X146405335Y-100279943D01*
X146324719Y-100605258D01*
X146190406Y-101041646D01*
X146008756Y-101566762D01*
X145991647Y-101613920D01*
X145828700Y-102068146D01*
X145683207Y-102486083D01*
X145566935Y-102832993D01*
X145491649Y-103074135D01*
X145472495Y-103146693D01*
X145411907Y-103345371D01*
X145346354Y-103457033D01*
X145343606Y-103458905D01*
X145232819Y-103457462D01*
X145010184Y-103411970D01*
X144730372Y-103334184D01*
X144437338Y-103237290D01*
X144265230Y-103151689D01*
X144171549Y-103044325D01*
X144113799Y-102882144D01*
X144104699Y-102847523D01*
X144022469Y-102528714D01*
X143839732Y-102876774D01*
X143683734Y-103117136D01*
X143510027Y-103239610D01*
X143377543Y-103275645D01*
X143119102Y-103328983D01*
X142908691Y-103381672D01*
X142823507Y-103390144D01*
X142742446Y-103351445D01*
X142656993Y-103248190D01*
X142558631Y-103062996D01*
X142438843Y-102778476D01*
X142289113Y-102377246D01*
X142100924Y-101841922D01*
X141975338Y-101476426D01*
X141586567Y-100339471D01*
X141297652Y-100968426D01*
X141050542Y-101520163D01*
X140809340Y-102083752D01*
X140587404Y-102625809D01*
X140398090Y-103112952D01*
X140254756Y-103511799D01*
X140173538Y-103777748D01*
X140101013Y-104021266D01*
X140021845Y-104139633D01*
X139901864Y-104174778D01*
X139849539Y-104175302D01*
X139644380Y-104142492D01*
X139361724Y-104063288D01*
X139182257Y-104000052D01*
X138939388Y-103889944D01*
X138777936Y-103784627D01*
X138737757Y-103726726D01*
X138769037Y-103606867D01*
X138852673Y-103373357D01*
X138973363Y-103067774D01*
X139034091Y-102921606D01*
X139165902Y-102600275D01*
X139267569Y-102335691D01*
X139323907Y-102168151D01*
X139330424Y-102135249D01*
X139286279Y-102034200D01*
X139166757Y-101825395D01*
X138991225Y-101541425D01*
X138822424Y-101280416D01*
X138314424Y-100509308D01*
X138314424Y-101996786D01*
X138312587Y-102541125D01*
X138305735Y-102939279D01*
X138291855Y-103214371D01*
X138268935Y-103389523D01*
X138234962Y-103487857D01*
X138187925Y-103532495D01*
X138180499Y-103535655D01*
X137996364Y-103572523D01*
X137737745Y-103586488D01*
X137462616Y-103579452D01*
X137228955Y-103553315D01*
X137094737Y-103509980D01*
X137085122Y-103499735D01*
X137072914Y-103394737D01*
X137066216Y-103143722D01*
X137064957Y-102769915D01*
X137069069Y-102296540D01*
X137078480Y-101746824D01*
X137092115Y-101180535D01*
X137149197Y-99090436D01*
X137298424Y-99090436D01*
X137298424Y-103342325D01*
X137696181Y-103316519D01*
X138093939Y-103290714D01*
X138098348Y-101216381D01*
X138100458Y-100223602D01*
X138452648Y-100223602D01*
X138502504Y-100342276D01*
X138630041Y-100567972D01*
X138815400Y-100869297D01*
X139038722Y-101214854D01*
X139280146Y-101573249D01*
X139519815Y-101913087D01*
X139531794Y-101929576D01*
X139537347Y-102062437D01*
X139468538Y-102327686D01*
X139330088Y-102707979D01*
X139298961Y-102785285D01*
X139166161Y-103120563D01*
X139062246Y-103401083D01*
X139001540Y-103587209D01*
X138991757Y-103635341D01*
X139066299Y-103722388D01*
X139253028Y-103812717D01*
X139496600Y-103884974D01*
X139721977Y-103917070D01*
X139813990Y-103898986D01*
X139897305Y-103816357D01*
X139988252Y-103641294D01*
X140103161Y-103345905D01*
X140175138Y-103143136D01*
X140317759Y-102758823D01*
X140507846Y-102280237D01*
X140721293Y-101766565D01*
X140933992Y-101276996D01*
X140947752Y-101246226D01*
X141125901Y-100843138D01*
X141275983Y-100493020D01*
X141381705Y-100235114D01*
X141785757Y-100235114D01*
X141814938Y-100406666D01*
X141894594Y-100686418D01*
X142012892Y-101043880D01*
X142157999Y-101448564D01*
X142318085Y-101869980D01*
X142481316Y-102277640D01*
X142635861Y-102641053D01*
X142769888Y-102929731D01*
X142871564Y-103113184D01*
X142922277Y-103163714D01*
X143261321Y-103096964D01*
X143530477Y-102888965D01*
X143744733Y-102528091D01*
X143746213Y-102524681D01*
X143866333Y-102279066D01*
X143974451Y-102112015D01*
X144033880Y-102064492D01*
X144101096Y-102138717D01*
X144184068Y-102332582D01*
X144248059Y-102543173D01*
X144331480Y-102822940D01*
X144420703Y-102985955D01*
X144551402Y-103082140D01*
X144666937Y-103129398D01*
X144965149Y-103220769D01*
X145148648Y-103225653D01*
X145251828Y-103137816D01*
X145295238Y-103015547D01*
X145344096Y-102853125D01*
X145439225Y-102567904D01*
X145568255Y-102195937D01*
X145718817Y-101773280D01*
X145768952Y-101634786D01*
X145966573Y-101087787D01*
X146108679Y-100677864D01*
X146198221Y-100383167D01*
X146238144Y-100181851D01*
X146231399Y-100052069D01*
X146180933Y-99971974D01*
X146089695Y-99919719D01*
X146004621Y-99888512D01*
X145716662Y-99789393D01*
X145527114Y-99745220D01*
X145403796Y-99777607D01*
X145314528Y-99908166D01*
X145227127Y-100158507D01*
X145132506Y-100474208D01*
X145023906Y-100819538D01*
X144926283Y-101104013D01*
X144853652Y-101288016D01*
X144828796Y-101332768D01*
X144763170Y-101298183D01*
X144647621Y-101140997D01*
X144503778Y-100892082D01*
X144458072Y-100803601D01*
X144256386Y-100442697D01*
X144096473Y-100243554D01*
X144007193Y-100200971D01*
X143879430Y-100276751D01*
X143708029Y-100489275D01*
X143563757Y-100721973D01*
X143406131Y-100979777D01*
X143270898Y-101167257D01*
X143185860Y-101246131D01*
X143182757Y-101246585D01*
X143119151Y-101173861D01*
X143024911Y-100976864D01*
X142917516Y-100693673D01*
X142886424Y-100600915D01*
X142770419Y-100267936D01*
X142677315Y-100068634D01*
X142588849Y-99972433D01*
X142496891Y-99948712D01*
X142266551Y-99976533D01*
X142032545Y-100049878D01*
X141852984Y-100145342D01*
X141785757Y-100235114D01*
X141381705Y-100235114D01*
X141385533Y-100225775D01*
X141442088Y-100071300D01*
X141447091Y-100048331D01*
X141377801Y-99979713D01*
X141209610Y-99880738D01*
X141002035Y-99780863D01*
X140814590Y-99709543D01*
X140727899Y-99692381D01*
X140672705Y-99761312D01*
X140558464Y-99945267D01*
X140406054Y-100209983D01*
X140340960Y-100327380D01*
X140180499Y-100614070D01*
X140051782Y-100833442D01*
X139975122Y-100951308D01*
X139963702Y-100962381D01*
X139912778Y-100893629D01*
X139801551Y-100710124D01*
X139650401Y-100445985D01*
X139584424Y-100327380D01*
X139419734Y-100040520D01*
X139281882Y-99821440D01*
X139192924Y-99704381D01*
X139176327Y-99693773D01*
X139021301Y-99743803D01*
X138819006Y-99862454D01*
X138622580Y-100010824D01*
X138485160Y-100150008D01*
X138452648Y-100223602D01*
X138100458Y-100223602D01*
X138102757Y-99142047D01*
X137700591Y-99116242D01*
X137298424Y-99090436D01*
X137149197Y-99090436D01*
X137153069Y-98948645D01*
X137416247Y-98906502D01*
X137681128Y-98892544D01*
X137980402Y-98914193D01*
G37*
%TO.C,KNOB2*%
X113430484Y-83572490D02*
X113555231Y-82985602D01*
X113786301Y-83341420D02*
X113430484Y-83572490D01*
X113555231Y-82985602D02*
X113786301Y-83341420D01*
X112023268Y-81535398D02*
X123565410Y-83988756D01*
X112875706Y-77524993D02*
X112023268Y-81535398D01*
X124417847Y-79978351D02*
X123565410Y-83988756D01*
X118958644Y-77284451D02*
X119166556Y-76306303D01*
X118573526Y-76691421D02*
X119551674Y-76899333D01*
X113707353Y-73612403D02*
X114559790Y-69601998D01*
X114559790Y-69601998D02*
X116907345Y-70100986D01*
X119059269Y-70558391D02*
X121602453Y-71098962D01*
X123754378Y-71556368D02*
X126101932Y-72055356D01*
X126101932Y-72055356D02*
X125249494Y-76065761D01*
X122062600Y-76795377D02*
G75*
G03*
X122062600Y-76795377I-3000000J0D01*
G01*
%TO.C,KNOB1*%
X157155190Y-84086740D02*
X157030443Y-83499852D01*
X157386261Y-83730922D02*
X157155190Y-84086740D01*
X157030443Y-83499852D02*
X157386261Y-83730922D01*
X155041074Y-82798130D02*
X166583216Y-80344772D01*
X154188637Y-78787725D02*
X155041074Y-82798130D01*
X165730778Y-76334367D02*
X166583216Y-80344772D01*
X159647840Y-76093825D02*
X159439928Y-75115677D01*
X159054810Y-75708707D02*
X160032958Y-75500795D01*
X153356990Y-74875135D02*
X152504552Y-70864730D01*
X152504552Y-70864730D02*
X154852106Y-70365742D01*
X157004031Y-69908336D02*
X159547215Y-69367765D01*
X161699139Y-68910360D02*
X164046694Y-68411372D01*
X164046694Y-68411372D02*
X164899131Y-72421777D01*
X162543884Y-75604751D02*
G75*
G03*
X162543884Y-75604751I-3000000J0D01*
G01*
%TD*%
D13*
%TO.C,PM1*%
X127516051Y-33552638D03*
D14*
X127516051Y-36092638D03*
X127516051Y-38632638D03*
X127516051Y-41172638D03*
X127516051Y-43712638D03*
X127516051Y-46252638D03*
X127516051Y-48792638D03*
X127516051Y-51332638D03*
X127516051Y-53872638D03*
X127516051Y-56412638D03*
X127516051Y-58952638D03*
X127516051Y-61492638D03*
X142756051Y-61492638D03*
X142756051Y-58952638D03*
X142756051Y-56412638D03*
X142756051Y-53872638D03*
X142756051Y-51332638D03*
X142756051Y-48792638D03*
X142756051Y-46252638D03*
X142756051Y-43712638D03*
X142756051Y-41172638D03*
X142756051Y-38632638D03*
X142756051Y-36092638D03*
X142756051Y-33552638D03*
%TD*%
D15*
X252412793Y-39290658D02*
G75*
G03*
X250031460Y-36909407I-2381293J-42D01*
G01*
X69056308Y-98226645D02*
X88701637Y-101203210D01*
X225028314Y-17859390D02*
X204787672Y-19050016D01*
X204787672Y-19050016D02*
X184547030Y-21431268D01*
X257175215Y-58935987D02*
X257175215Y-73223499D01*
X257175264Y-58935987D02*
G75*
G03*
X254793964Y-56554736I-2381264J-13D01*
G01*
X250031460Y-94654711D02*
G75*
G03*
X252412711Y-92273515I40J2381211D01*
G01*
X252412711Y-39290658D02*
X252412712Y-55959422D01*
X23812521Y-20240642D02*
X23812520Y-36909406D01*
X19050016Y-76200064D02*
X26193772Y-76200064D01*
X63103178Y-19050016D02*
X84534446Y-21431268D01*
X252412712Y-55959422D02*
X252412712Y-56554735D01*
X28575024Y-95250080D02*
X50006292Y-95250080D01*
X16668736Y-73818812D02*
G75*
G03*
X19050016Y-76200064I2381264J12D01*
G01*
X21431268Y-57150048D02*
X19050016Y-57150049D01*
X26193772Y-76200064D02*
X26193772Y-92868828D01*
X250031460Y-94654766D02*
X228600192Y-94654767D01*
X26193772Y-17859391D02*
G75*
G03*
X23812521Y-20240642I-2J-2381249D01*
G01*
X209550176Y-97036019D02*
X189904847Y-100012584D01*
X88701637Y-101203210D02*
X121443852Y-108346966D01*
X254793964Y-75604715D02*
G75*
G03*
X257175215Y-73223499I36J2381215D01*
G01*
X227409566Y-95845392D02*
G75*
G03*
X228600192Y-94654767I34J1190592D01*
G01*
X146446998Y-28575024D02*
X164306388Y-25003146D01*
X26193772Y-17859391D02*
X44053162Y-17859390D01*
X227409566Y-95845393D02*
X209550176Y-97036019D01*
X50006281Y-95250080D02*
G75*
G03*
X51792231Y-97036019I1785919J-20D01*
G01*
X252412712Y-56554735D02*
X254793964Y-56554736D01*
X16668765Y-59531300D02*
X16668764Y-73818812D01*
X121443852Y-108346966D02*
X157162632Y-108346966D01*
X104775088Y-24407833D02*
X122634478Y-28575024D01*
X184547030Y-21431268D02*
X164306388Y-25003146D01*
X23812520Y-37504719D02*
G75*
G03*
X21431269Y-39885971I0J-2381251D01*
G01*
X247650208Y-17859391D02*
X225028314Y-17859390D01*
X84534446Y-21431268D02*
X104775088Y-24407833D01*
X122634478Y-28575024D02*
X146446998Y-28575024D01*
X26193720Y-92868828D02*
G75*
G03*
X28575024Y-95250080I2381280J28D01*
G01*
X250031459Y-20240642D02*
X250031460Y-36909406D01*
X252412712Y-75604751D02*
X252412711Y-92273515D01*
X254793964Y-75604750D02*
X252412712Y-75604751D01*
X51792231Y-97036019D02*
X69056308Y-98226645D01*
X21431269Y-39885971D02*
X21431268Y-57150048D01*
X19050016Y-57150065D02*
G75*
G03*
X16668765Y-59531300I-16J-2381235D01*
G01*
X157162632Y-108346966D02*
X189904847Y-100012584D01*
X44053162Y-17859390D02*
X63103178Y-19050016D01*
X250031409Y-20240642D02*
G75*
G03*
X247650208Y-17859391I-2381209J42D01*
G01*
X23812520Y-36909406D02*
X23812520Y-37504719D01*
M02*
