  0
SECTION
  2
HEADER
  9
$ANGBASE
  50
0.0
  9
$ANGDIR
  70
1
  9
$MEASUREMENT
  70
1
  0
ENDSEC
  0
SECTION
  2
TABLES
  0
TABLE
  2
LTYPE
  70
4
  0
LTYPE
  5
40F
  2
CONTINUOUS
  70
0
  3
Solid line
  72
65
  73
0
  40
0.0
  0
LTYPE
  5
410
  2
DASHDOT
 70
0
  3
Dash Dot ____ _ ____ _
 72
65
 73
4
 40
2.0
 49
1.25
 49
-0.25
 49
0.25
 49
-0.25
  0
LTYPE
  5
411
  2
DASHED
 70
0
  3
Dashed __ __ __ __ __
 72
65
 73
2
 40
0.75
 49
0.5
 49
-0.25
  0
LTYPE
  5
43B
  2
DOTTED
 70
0
  3
Dotted .  .  .  .
 72
65
 73
2
 40
0.2
 49
0.0
 49
-0.2
  0
ENDTAB
  0
TABLE
  2
STYLE
  70
4
  0
STYLE
  2
KICAD
  70
0
  40
0
  41
1
  42
1
  50
0
  71
0
  3
isocp.shx
  0
STYLE
  2
KICADB
  70
0
  40
0
  41
1
  42
1
  50
0
  71
0
  3
isocp.shx
  0
STYLE
  2
KICADI
  70
0
  40
0
  41
1
  42
1
  50
15
  71
0
  3
isocp.shx
  0
STYLE
  2
KICADBI
  70
0
  40
0
  41
1
  42
1
  50
15
  71
0
  3
isocp.shx
  0
ENDTAB
  0
TABLE
  2
LAYER
  70
1
  0
LAYER
  2
BLACK
  70
0
  62
7
  6
CONTINUOUS
  0
ENDTAB
  0
ENDSEC
  0
SECTION
  2
ENTITIES
0
LINE
8
BLACK
6
CONTINUOUS
10
209.556
20
-97.0858
11
189.915
21
-100.062
0
LINE
8
BLACK
6
CONTINUOUS
10
189.915
20
-100.062
11
157.175
21
-108.395
0
LINE
8
BLACK
6
CONTINUOUS
10
157.175
20
-108.395
11
157.169
21
-108.394
0
LINE
8
BLACK
6
CONTINUOUS
10
157.169
20
-108.394
11
157.163
21
-108.397
0
LINE
8
BLACK
6
CONTINUOUS
10
157.163
20
-108.397
11
121.444
21
-108.397
0
LINE
8
BLACK
6
CONTINUOUS
10
121.444
20
-108.397
11
121.439
21
-108.395
0
LINE
8
BLACK
6
CONTINUOUS
10
121.439
20
-108.395
11
121.433
21
-108.396
0
LINE
8
BLACK
6
CONTINUOUS
10
121.433
20
-108.396
11
88.6926
21
-101.252
0
LINE
8
BLACK
6
CONTINUOUS
10
88.6926
20
-101.252
11
69.0508
21
-98.2764
0
LINE
8
BLACK
6
CONTINUOUS
10
69.0508
20
-98.2764
11
51.7905
21
-97.086
0
LINE
8
BLACK
6
CONTINUOUS
10
51.7905
20
-97.086
11
17.2641
21
-97.086
0
LINE
8
BLACK
6
CONTINUOUS
10
17.2641
20
-97.086
11
16.7766
21
-97.0674
0
LINE
8
BLACK
6
CONTINUOUS
10
16.7766
20
-97.0674
11
16.292
21
-97.0118
0
LINE
8
BLACK
6
CONTINUOUS
10
16.292
20
-97.0118
11
15.813
21
-96.9193
0
LINE
8
BLACK
6
CONTINUOUS
10
15.813
20
-96.9193
11
15.3424
21
-96.7907
0
LINE
8
BLACK
6
CONTINUOUS
10
15.3424
20
-96.7907
11
14.883
21
-96.6266
0
LINE
8
BLACK
6
CONTINUOUS
10
14.883
20
-96.6266
11
14.4374
21
-96.428
0
LINE
8
BLACK
6
CONTINUOUS
10
14.4374
20
-96.428
11
14.0083
21
-96.196
0
LINE
8
BLACK
6
CONTINUOUS
10
14.0083
20
-96.196
11
13.598
21
-95.932
0
LINE
8
BLACK
6
CONTINUOUS
10
13.598
20
-95.932
11
13.2091
21
-95.6375
0
LINE
8
BLACK
6
CONTINUOUS
10
13.2091
20
-95.6375
11
12.8437
21
-95.3143
0
LINE
8
BLACK
6
CONTINUOUS
10
12.8437
20
-95.3143
11
12.5041
21
-94.9641
0
LINE
8
BLACK
6
CONTINUOUS
10
12.5041
20
-94.9641
11
12.192
21
-94.5891
0
LINE
8
BLACK
6
CONTINUOUS
10
12.192
20
-94.5891
11
11.9095
21
-94.1915
0
LINE
8
BLACK
6
CONTINUOUS
10
11.9095
20
-94.1915
11
11.658
21
-93.7734
0
LINE
8
BLACK
6
CONTINUOUS
10
11.658
20
-93.7734
11
11.4391
21
-93.3375
0
LINE
8
BLACK
6
CONTINUOUS
10
11.4391
20
-93.3375
11
11.2541
21
-92.8861
0
LINE
8
BLACK
6
CONTINUOUS
10
11.2541
20
-92.8861
11
11.104
21
-92.4219
0
LINE
8
BLACK
6
CONTINUOUS
10
11.104
20
-92.4219
11
10.9897
21
-91.9477
0
LINE
8
BLACK
6
CONTINUOUS
10
10.9897
20
-91.9477
11
10.9118
21
-91.4661
0
LINE
8
BLACK
6
CONTINUOUS
10
10.9118
20
-91.4661
11
10.8708
21
-90.98
0
LINE
8
BLACK
6
CONTINUOUS
10
10.8708
20
-90.98
11
10.867
21
-90.4938
0
LINE
8
BLACK
6
CONTINUOUS
10
10.867
20
-90.4938
11
10.867
21
-90.4937
0
LINE
8
BLACK
6
CONTINUOUS
10
10.867
20
-90.4937
11
10.867
21
-24.011
0
LINE
8
BLACK
6
CONTINUOUS
10
10.867
20
-24.011
11
10.8673
21
-24.0102
0
LINE
8
BLACK
6
CONTINUOUS
10
10.8673
20
-24.0102
11
10.867
21
-24.0094
0
LINE
8
BLACK
6
CONTINUOUS
10
10.867
20
-24.0094
11
10.8993
21
-23.5331
0
LINE
8
BLACK
6
CONTINUOUS
10
10.8993
20
-23.5331
11
10.9671
21
-23.0604
0
LINE
8
BLACK
6
CONTINUOUS
10
10.9671
20
-23.0604
11
11.07
21
-22.5942
0
LINE
8
BLACK
6
CONTINUOUS
10
11.07
20
-22.5942
11
11.2075
21
-22.1369
0
LINE
8
BLACK
6
CONTINUOUS
10
11.2075
20
-22.1369
11
11.3788
21
-21.6912
0
LINE
8
BLACK
6
CONTINUOUS
10
11.3788
20
-21.6912
11
11.5829
21
-21.2595
0
LINE
8
BLACK
6
CONTINUOUS
10
11.5829
20
-21.2595
11
11.8186
21
-20.8443
0
LINE
8
BLACK
6
CONTINUOUS
10
11.8186
20
-20.8443
11
12.0848
21
-20.4479
0
LINE
8
BLACK
6
CONTINUOUS
10
12.0848
20
-20.4479
11
12.3798
21
-20.0725
0
LINE
8
BLACK
6
CONTINUOUS
10
12.3798
20
-20.0725
11
12.7021
21
-19.7202
0
LINE
8
BLACK
6
CONTINUOUS
10
12.7021
20
-19.7202
11
13.0498
21
-19.3929
0
LINE
8
BLACK
6
CONTINUOUS
10
13.0498
20
-19.3929
11
13.421
21
-19.0926
0
LINE
8
BLACK
6
CONTINUOUS
10
13.421
20
-19.0926
11
13.8135
21
-18.8208
0
LINE
8
BLACK
6
CONTINUOUS
10
13.8135
20
-18.8208
11
14.2253
21
-18.5791
0
LINE
8
BLACK
6
CONTINUOUS
10
14.2253
20
-18.5791
11
14.654
21
-18.3689
0
LINE
8
BLACK
6
CONTINUOUS
10
14.654
20
-18.3689
11
15.0973
21
-18.1912
0
LINE
8
BLACK
6
CONTINUOUS
10
15.0973
20
-18.1912
11
15.5525
21
-18.0473
0
LINE
8
BLACK
6
CONTINUOUS
10
15.5525
20
-18.0473
11
16.0172
21
-17.9377
0
LINE
8
BLACK
6
CONTINUOUS
10
16.0172
20
-17.9377
11
16.4889
21
-17.8632
0
LINE
8
BLACK
6
CONTINUOUS
10
16.4889
20
-17.8632
11
16.9647
21
-17.8241
0
LINE
8
BLACK
6
CONTINUOUS
10
16.9647
20
-17.8241
11
17.4406
21
-17.8207
0
LINE
8
BLACK
6
CONTINUOUS
10
17.4406
20
-17.8207
11
17.4407
21
-17.8207
0
LINE
8
BLACK
6
CONTINUOUS
10
17.4407
20
-17.8207
11
44.0531
21
-17.8094
0
LINE
8
BLACK
6
CONTINUOUS
10
44.0531
20
-17.8094
11
44.0547
21
-17.81
0
LINE
8
BLACK
6
CONTINUOUS
10
44.0547
20
-17.81
11
44.0563
21
-17.8095
0
LINE
8
BLACK
6
CONTINUOUS
10
44.0563
20
-17.8095
11
63.1063
21
-19.0001
0
LINE
8
BLACK
6
CONTINUOUS
10
63.1063
20
-19.0001
11
63.1068
21
-19.0004
0
LINE
8
BLACK
6
CONTINUOUS
10
63.1068
20
-19.0004
11
63.1073
21
-19.0002
0
LINE
8
BLACK
6
CONTINUOUS
10
63.1073
20
-19.0002
11
84.5386
21
-20.7861
0
LINE
8
BLACK
6
CONTINUOUS
10
84.5386
20
-20.7861
11
84.5408
21
-20.7872
0
LINE
8
BLACK
6
CONTINUOUS
10
84.5408
20
-20.7872
11
84.5431
21
-20.7867
0
LINE
8
BLACK
6
CONTINUOUS
10
84.5431
20
-20.7867
11
104.784
21
-24.3586
0
LINE
8
BLACK
6
CONTINUOUS
10
104.784
20
-24.3586
11
104.784
21
-24.3588
0
LINE
8
BLACK
6
CONTINUOUS
10
104.784
20
-24.3588
11
104.785
21
-24.3587
0
LINE
8
BLACK
6
CONTINUOUS
10
104.785
20
-24.3587
11
123.235
21
-27.9297
0
LINE
8
BLACK
6
CONTINUOUS
10
123.235
20
-27.9297
11
145.847
21
-27.9297
0
LINE
8
BLACK
6
CONTINUOUS
10
145.847
20
-27.9297
11
164.297
21
-24.3587
0
LINE
8
BLACK
6
CONTINUOUS
10
164.297
20
-24.3587
11
164.297
21
-24.3588
0
LINE
8
BLACK
6
CONTINUOUS
10
164.297
20
-24.3588
11
164.298
21
-24.3586
0
LINE
8
BLACK
6
CONTINUOUS
10
164.298
20
-24.3586
11
184.538
21
-20.7867
0
LINE
8
BLACK
6
CONTINUOUS
10
184.538
20
-20.7867
11
184.541
21
-20.7872
0
LINE
8
BLACK
6
CONTINUOUS
10
184.541
20
-20.7872
11
184.543
21
-20.7861
0
LINE
8
BLACK
6
CONTINUOUS
10
184.543
20
-20.7861
11
205.974
21
-19.0002
0
LINE
8
BLACK
6
CONTINUOUS
10
205.974
20
-19.0002
11
205.975
21
-19.0004
0
LINE
8
BLACK
6
CONTINUOUS
10
205.975
20
-19.0004
11
205.975
21
-19.0001
0
LINE
8
BLACK
6
CONTINUOUS
10
205.975
20
-19.0001
11
225.025
21
-17.8095
0
LINE
8
BLACK
6
CONTINUOUS
10
225.025
20
-17.8095
11
225.027
21
-17.81
0
LINE
8
BLACK
6
CONTINUOUS
10
225.027
20
-17.81
11
225.028
21
-17.8094
0
LINE
8
BLACK
6
CONTINUOUS
10
225.028
20
-17.8094
11
258.961
21
-17.8094
0
LINE
8
BLACK
6
CONTINUOUS
10
258.961
20
-17.8094
11
259.432
21
-17.8279
0
LINE
8
BLACK
6
CONTINUOUS
10
259.432
20
-17.8279
11
259.9
21
-17.8833
0
LINE
8
BLACK
6
CONTINUOUS
10
259.9
20
-17.8833
11
260.363
21
-17.9752
0
LINE
8
BLACK
6
CONTINUOUS
10
260.363
20
-17.9752
11
260.816
21
-18.1032
0
LINE
8
BLACK
6
CONTINUOUS
10
260.816
20
-18.1032
11
261.258
21
-18.2663
0
LINE
8
BLACK
6
CONTINUOUS
10
261.258
20
-18.2663
11
261.687
21
-18.4637
0
LINE
8
BLACK
6
CONTINUOUS
10
261.687
20
-18.4637
11
262.098
21
-18.694
0
LINE
8
BLACK
6
CONTINUOUS
10
262.098
20
-18.694
11
262.49
21
-18.9559
0
LINE
8
BLACK
6
CONTINUOUS
10
262.49
20
-18.9559
11
262.86
21
-19.2477
0
LINE
8
BLACK
6
CONTINUOUS
10
262.86
20
-19.2477
11
263.206
21
-19.5677
0
LINE
8
BLACK
6
CONTINUOUS
10
263.206
20
-19.5677
11
263.526
21
-19.9138
0
LINE
8
BLACK
6
CONTINUOUS
10
263.526
20
-19.9138
11
263.818
21
-20.284
0
LINE
8
BLACK
6
CONTINUOUS
10
263.818
20
-20.284
11
264.08
21
-20.6759
0
LINE
8
BLACK
6
CONTINUOUS
10
264.08
20
-20.6759
11
264.31
21
-21.0871
0
LINE
8
BLACK
6
CONTINUOUS
10
264.31
20
-21.0871
11
264.507
21
-21.5152
0
LINE
8
BLACK
6
CONTINUOUS
10
264.507
20
-21.5152
11
264.67
21
-21.9574
0
LINE
8
BLACK
6
CONTINUOUS
10
264.67
20
-21.9574
11
264.798
21
-22.4111
0
LINE
8
BLACK
6
CONTINUOUS
10
264.798
20
-22.4111
11
264.89
21
-22.8734
0
LINE
8
BLACK
6
CONTINUOUS
10
264.89
20
-22.8734
11
264.946
21
-23.3415
0
LINE
8
BLACK
6
CONTINUOUS
10
264.946
20
-23.3415
11
264.964
21
-23.8125
0
LINE
8
BLACK
6
CONTINUOUS
10
264.964
20
-23.8125
11
264.964
21
-23.8125
0
LINE
8
BLACK
6
CONTINUOUS
10
264.964
20
-23.8125
11
265.56
21
-89.2965
0
LINE
8
BLACK
6
CONTINUOUS
10
265.56
20
-89.2965
11
265.56
21
-89.2967
0
LINE
8
BLACK
6
CONTINUOUS
10
265.56
20
-89.2967
11
265.56
21
-89.2969
0
LINE
8
BLACK
6
CONTINUOUS
10
265.56
20
-89.2969
11
265.541
21
-89.7901
0
LINE
8
BLACK
6
CONTINUOUS
10
265.541
20
-89.7901
11
265.486
21
-90.2804
0
LINE
8
BLACK
6
CONTINUOUS
10
265.486
20
-90.2804
11
265.394
21
-90.7652
0
LINE
8
BLACK
6
CONTINUOUS
10
265.394
20
-90.7652
11
265.266
21
-91.2419
0
LINE
8
BLACK
6
CONTINUOUS
10
265.266
20
-91.2419
11
265.103
21
-91.7076
0
LINE
8
BLACK
6
CONTINUOUS
10
265.103
20
-91.7076
11
264.906
21
-92.1599
0
LINE
8
BLACK
6
CONTINUOUS
10
264.906
20
-92.1599
11
264.676
21
-92.5962
0
LINE
8
BLACK
6
CONTINUOUS
10
264.676
20
-92.5962
11
264.413
21
-93.014
0
LINE
8
BLACK
6
CONTINUOUS
10
264.413
20
-93.014
11
264.12
21
-93.411
0
LINE
8
BLACK
6
CONTINUOUS
10
264.12
20
-93.411
11
263.798
21
-93.785
0
LINE
8
BLACK
6
CONTINUOUS
10
263.798
20
-93.785
11
263.449
21
-94.134
0
LINE
8
BLACK
6
CONTINUOUS
10
263.449
20
-94.134
11
263.075
21
-94.4558
0
LINE
8
BLACK
6
CONTINUOUS
10
263.075
20
-94.4558
11
262.678
21
-94.7489
0
LINE
8
BLACK
6
CONTINUOUS
10
262.678
20
-94.7489
11
262.26
21
-95.0114
0
LINE
8
BLACK
6
CONTINUOUS
10
262.26
20
-95.0114
11
261.824
21
-95.242
0
LINE
8
BLACK
6
CONTINUOUS
10
261.824
20
-95.242
11
261.372
21
-95.4393
0
LINE
8
BLACK
6
CONTINUOUS
10
261.372
20
-95.4393
11
260.906
21
-95.6023
0
LINE
8
BLACK
6
CONTINUOUS
10
260.906
20
-95.6023
11
260.429
21
-95.73
0
LINE
8
BLACK
6
CONTINUOUS
10
260.429
20
-95.73
11
259.945
21
-95.8217
0
LINE
8
BLACK
6
CONTINUOUS
10
259.945
20
-95.8217
11
259.454
21
-95.8769
0
LINE
8
BLACK
6
CONTINUOUS
10
259.454
20
-95.8769
11
258.961
21
-95.8954
0
LINE
8
BLACK
6
CONTINUOUS
10
258.961
20
-95.8954
11
258.961
21
-95.8954
0
LINE
8
BLACK
6
CONTINUOUS
10
258.961
20
-95.8954
11
227.411
21
-95.8954
0
LINE
8
BLACK
6
CONTINUOUS
10
227.411
20
-95.8954
11
209.556
21
-97.0858
0
LINE
8
BLACK
6
CONTINUOUS
10
205.982
20
-19.0999
11
184.553
21
-20.8856
0
LINE
8
BLACK
6
CONTINUOUS
10
184.553
20
-20.8856
11
164.315
21
-24.457
0
LINE
8
BLACK
6
CONTINUOUS
10
164.315
20
-24.457
11
145.861
21
-28.0288
0
LINE
8
BLACK
6
CONTINUOUS
10
145.861
20
-28.0288
11
145.856
21
-28.0278
0
LINE
8
BLACK
6
CONTINUOUS
10
145.856
20
-28.0278
11
145.852
21
-28.0297
0
LINE
8
BLACK
6
CONTINUOUS
10
145.852
20
-28.0297
11
123.23
21
-28.0297
0
LINE
8
BLACK
6
CONTINUOUS
10
123.23
20
-28.0297
11
123.225
21
-28.0278
0
LINE
8
BLACK
6
CONTINUOUS
10
123.225
20
-28.0278
11
123.22
21
-28.0288
0
LINE
8
BLACK
6
CONTINUOUS
10
123.22
20
-28.0288
11
104.766
21
-24.457
0
LINE
8
BLACK
6
CONTINUOUS
10
104.766
20
-24.457
11
84.528
21
-20.8856
0
LINE
8
BLACK
6
CONTINUOUS
10
84.528
20
-20.8856
11
63.0996
21
-19.0999
0
LINE
8
BLACK
6
CONTINUOUS
10
63.0996
20
-19.0999
11
44.0516
21
-17.9094
0
LINE
8
BLACK
6
CONTINUOUS
10
44.0516
20
-17.9094
11
17.4407
21
-17.9207
0
LINE
8
BLACK
6
CONTINUOUS
10
17.4407
20
-17.9207
11
17.44
21
-17.9203
0
LINE
8
BLACK
6
CONTINUOUS
10
17.44
20
-17.9203
11
17.4392
21
-17.9206
0
LINE
8
BLACK
6
CONTINUOUS
10
17.4392
20
-17.9206
11
17.4296
21
-17.9163
0
LINE
8
BLACK
6
CONTINUOUS
10
17.4296
20
-17.9163
11
16.969
21
-17.9196
0
LINE
8
BLACK
6
CONTINUOUS
10
16.969
20
-17.9196
11
16.5002
21
-17.9581
0
LINE
8
BLACK
6
CONTINUOUS
10
16.5002
20
-17.9581
11
16.0357
21
-18.0315
0
LINE
8
BLACK
6
CONTINUOUS
10
16.0357
20
-18.0315
11
15.5779
21
-18.1394
0
LINE
8
BLACK
6
CONTINUOUS
10
15.5779
20
-18.1394
11
15.1295
21
-18.2813
0
LINE
8
BLACK
6
CONTINUOUS
10
15.1295
20
-18.2813
11
14.6929
21
-18.4562
0
LINE
8
BLACK
6
CONTINUOUS
10
14.6929
20
-18.4562
11
14.2706
21
-18.6633
0
LINE
8
BLACK
6
CONTINUOUS
10
14.2706
20
-18.6633
11
13.865
21
-18.9014
0
LINE
8
BLACK
6
CONTINUOUS
10
13.865
20
-18.9014
11
13.4783
21
-19.1691
0
LINE
8
BLACK
6
CONTINUOUS
10
13.4783
20
-19.1691
11
13.1127
21
-19.4649
0
LINE
8
BLACK
6
CONTINUOUS
10
13.1127
20
-19.4649
11
12.7702
21
-19.7873
0
LINE
8
BLACK
6
CONTINUOUS
10
12.7702
20
-19.7873
11
12.4527
21
-20.1343
0
LINE
8
BLACK
6
CONTINUOUS
10
12.4527
20
-20.1343
11
12.1621
21
-20.5041
0
LINE
8
BLACK
6
CONTINUOUS
10
12.1621
20
-20.5041
11
11.9
21
-20.8946
0
LINE
8
BLACK
6
CONTINUOUS
10
11.9
20
-20.8946
11
11.6677
21
-21.3036
0
LINE
8
BLACK
6
CONTINUOUS
10
11.6677
20
-21.3036
11
11.4667
21
-21.7288
0
LINE
8
BLACK
6
CONTINUOUS
10
11.4667
20
-21.7288
11
11.298
21
-22.1678
0
LINE
8
BLACK
6
CONTINUOUS
10
11.298
20
-22.1678
11
11.1625
21
-22.6183
0
LINE
8
BLACK
6
CONTINUOUS
10
11.1625
20
-22.6183
11
11.0612
21
-23.0775
0
LINE
8
BLACK
6
CONTINUOUS
10
11.0612
20
-23.0775
11
10.9944
21
-23.5431
0
LINE
8
BLACK
6
CONTINUOUS
10
10.9944
20
-23.5431
11
10.9633
21
-24.002
0
LINE
8
BLACK
6
CONTINUOUS
10
10.9633
20
-24.002
11
10.967
21
-24.011
0
LINE
8
BLACK
6
CONTINUOUS
10
10.967
20
-24.011
11
10.967
21
-90.4937
0
LINE
8
BLACK
6
CONTINUOUS
10
10.967
20
-90.4937
11
10.9667
21
-90.4944
0
LINE
8
BLACK
6
CONTINUOUS
10
10.9667
20
-90.4944
11
10.967
21
-90.4952
0
LINE
8
BLACK
6
CONTINUOUS
10
10.967
20
-90.4952
11
10.9624
21
-90.5053
0
LINE
8
BLACK
6
CONTINUOUS
10
10.9624
20
-90.5053
11
10.9661
21
-90.9756
0
LINE
8
BLACK
6
CONTINUOUS
10
10.9661
20
-90.9756
11
11.0065
21
-91.4545
0
LINE
8
BLACK
6
CONTINUOUS
10
11.0065
20
-91.4545
11
11.0832
21
-91.9289
0
LINE
8
BLACK
6
CONTINUOUS
10
11.0832
20
-91.9289
11
11.1958
21
-92.396
0
LINE
8
BLACK
6
CONTINUOUS
10
11.1958
20
-92.396
11
11.3437
21
-92.8533
0
LINE
8
BLACK
6
CONTINUOUS
10
11.3437
20
-92.8533
11
11.5259
21
-93.2979
0
LINE
8
BLACK
6
CONTINUOUS
10
11.5259
20
-93.2979
11
11.7416
21
-93.7274
0
LINE
8
BLACK
6
CONTINUOUS
10
11.7416
20
-93.7274
11
11.9893
21
-94.1392
0
LINE
8
BLACK
6
CONTINUOUS
10
11.9893
20
-94.1392
11
12.2676
21
-94.531
0
LINE
8
BLACK
6
CONTINUOUS
10
12.2676
20
-94.531
11
12.575
21
-94.9004
0
LINE
8
BLACK
6
CONTINUOUS
10
12.575
20
-94.9004
11
12.9096
21
-95.2453
0
LINE
8
BLACK
6
CONTINUOUS
10
12.9096
20
-95.2453
11
13.2695
21
-95.5637
0
LINE
8
BLACK
6
CONTINUOUS
10
13.2695
20
-95.5637
11
13.6527
21
-95.8538
0
LINE
8
BLACK
6
CONTINUOUS
10
13.6527
20
-95.8538
11
14.0568
21
-96.1139
0
LINE
8
BLACK
6
CONTINUOUS
10
14.0568
20
-96.1139
11
14.4795
21
-96.3424
0
LINE
8
BLACK
6
CONTINUOUS
10
14.4795
20
-96.3424
11
14.9185
21
-96.5381
0
LINE
8
BLACK
6
CONTINUOUS
10
14.9185
20
-96.5381
11
15.371
21
-96.6997
0
LINE
8
BLACK
6
CONTINUOUS
10
15.371
20
-96.6997
11
15.8346
21
-96.8264
0
LINE
8
BLACK
6
CONTINUOUS
10
15.8346
20
-96.8264
11
16.3064
21
-96.9175
0
LINE
8
BLACK
6
CONTINUOUS
10
16.3064
20
-96.9175
11
16.7839
21
-96.9723
0
LINE
8
BLACK
6
CONTINUOUS
10
16.7839
20
-96.9723
11
17.2539
21
-96.9903
0
LINE
8
BLACK
6
CONTINUOUS
10
17.2539
20
-96.9903
11
17.2641
21
-96.986
0
LINE
8
BLACK
6
CONTINUOUS
10
17.2641
20
-96.986
11
51.7922
21
-96.986
0
LINE
8
BLACK
6
CONTINUOUS
10
51.7922
20
-96.986
11
51.7939
21
-96.9867
0
LINE
8
BLACK
6
CONTINUOUS
10
51.7939
20
-96.9867
11
51.7957
21
-96.9861
0
LINE
8
BLACK
6
CONTINUOUS
10
51.7957
20
-96.9861
11
69.0597
21
-98.1768
0
LINE
8
BLACK
6
CONTINUOUS
10
69.0597
20
-98.1768
11
69.0617
21
-98.1777
0
LINE
8
BLACK
6
CONTINUOUS
10
69.0617
20
-98.1777
11
69.0638
21
-98.1772
0
LINE
8
BLACK
6
CONTINUOUS
10
69.0638
20
-98.1772
11
88.7091
21
-101.154
0
LINE
8
BLACK
6
CONTINUOUS
10
88.7091
20
-101.154
11
88.7106
21
-101.155
0
LINE
8
BLACK
6
CONTINUOUS
10
88.7106
20
-101.155
11
88.7123
21
-101.154
0
LINE
8
BLACK
6
CONTINUOUS
10
88.7123
20
-101.154
11
121.449
21
-108.297
0
LINE
8
BLACK
6
CONTINUOUS
10
121.449
20
-108.297
11
157.156
21
-108.297
0
LINE
8
BLACK
6
CONTINUOUS
10
157.156
20
-108.297
11
189.893
21
-99.9641
0
LINE
8
BLACK
6
CONTINUOUS
10
189.893
20
-99.9641
11
189.895
21
-99.9645
0
LINE
8
BLACK
6
CONTINUOUS
10
189.895
20
-99.9645
11
189.897
21
-99.9631
0
LINE
8
BLACK
6
CONTINUOUS
10
189.897
20
-99.9631
11
209.543
21
-96.9866
0
LINE
8
BLACK
6
CONTINUOUS
10
209.543
20
-96.9866
11
209.545
21
-96.9871
0
LINE
8
BLACK
6
CONTINUOUS
10
209.545
20
-96.9871
11
209.547
21
-96.9861
0
LINE
8
BLACK
6
CONTINUOUS
10
209.547
20
-96.9861
11
227.406
21
-95.7955
0
LINE
8
BLACK
6
CONTINUOUS
10
227.406
20
-95.7955
11
227.408
21
-95.7961
0
LINE
8
BLACK
6
CONTINUOUS
10
227.408
20
-95.7961
11
227.41
21
-95.7954
0
LINE
8
BLACK
6
CONTINUOUS
10
227.41
20
-95.7954
11
258.961
21
-95.7954
0
LINE
8
BLACK
6
CONTINUOUS
10
258.961
20
-95.7954
11
258.971
21
-95.7996
0
LINE
8
BLACK
6
CONTINUOUS
10
258.971
20
-95.7996
11
259.447
21
-95.7818
0
LINE
8
BLACK
6
CONTINUOUS
10
259.447
20
-95.7818
11
259.93
21
-95.7273
0
LINE
8
BLACK
6
CONTINUOUS
10
259.93
20
-95.7273
11
260.408
21
-95.6369
0
LINE
8
BLACK
6
CONTINUOUS
10
260.408
20
-95.6369
11
260.878
21
-95.511
0
LINE
8
BLACK
6
CONTINUOUS
10
260.878
20
-95.511
11
261.337
21
-95.3504
0
LINE
8
BLACK
6
CONTINUOUS
10
261.337
20
-95.3504
11
261.783
21
-95.156
0
LINE
8
BLACK
6
CONTINUOUS
10
261.783
20
-95.156
11
262.213
21
-94.9287
0
LINE
8
BLACK
6
CONTINUOUS
10
262.213
20
-94.9287
11
262.624
21
-94.67
0
LINE
8
BLACK
6
CONTINUOUS
10
262.624
20
-94.67
11
263.016
21
-94.3812
0
LINE
8
BLACK
6
CONTINUOUS
10
263.016
20
-94.3812
11
263.384
21
-94.064
0
LINE
8
BLACK
6
CONTINUOUS
10
263.384
20
-94.064
11
263.728
21
-93.7201
0
LINE
8
BLACK
6
CONTINUOUS
10
263.728
20
-93.7201
11
264.045
21
-93.3515
0
LINE
8
BLACK
6
CONTINUOUS
10
264.045
20
-93.3515
11
264.334
21
-92.9602
0
LINE
8
BLACK
6
CONTINUOUS
10
264.334
20
-92.9602
11
264.593
21
-92.5485
0
LINE
8
BLACK
6
CONTINUOUS
10
264.593
20
-92.5485
11
264.82
21
-92.1185
0
LINE
8
BLACK
6
CONTINUOUS
10
264.82
20
-92.1185
11
265.015
21
-91.6728
0
LINE
8
BLACK
6
CONTINUOUS
10
265.015
20
-91.6728
11
265.175
21
-91.2137
0
LINE
8
BLACK
6
CONTINUOUS
10
265.175
20
-91.2137
11
265.301
21
-90.744
0
LINE
8
BLACK
6
CONTINUOUS
10
265.301
20
-90.744
11
265.392
21
-90.2662
0
LINE
8
BLACK
6
CONTINUOUS
10
265.392
20
-90.2662
11
265.446
21
-89.7829
0
LINE
8
BLACK
6
CONTINUOUS
10
265.446
20
-89.7829
11
265.464
21
-89.3072
0
LINE
8
BLACK
6
CONTINUOUS
10
265.464
20
-89.3072
11
265.46
21
-89.2974
0
LINE
8
BLACK
6
CONTINUOUS
10
265.46
20
-89.2974
11
264.864
21
-23.813
0
LINE
8
BLACK
6
CONTINUOUS
10
264.864
20
-23.813
11
264.864
21
-23.8127
0
LINE
8
BLACK
6
CONTINUOUS
10
264.864
20
-23.8127
11
264.864
21
-23.8125
0
LINE
8
BLACK
6
CONTINUOUS
10
264.864
20
-23.8125
11
264.868
21
-23.8024
0
LINE
8
BLACK
6
CONTINUOUS
10
264.868
20
-23.8024
11
264.851
21
-23.349
0
LINE
8
BLACK
6
CONTINUOUS
10
264.851
20
-23.349
11
264.796
21
-22.8884
0
LINE
8
BLACK
6
CONTINUOUS
10
264.796
20
-22.8884
11
264.706
21
-22.4334
0
LINE
8
BLACK
6
CONTINUOUS
10
264.706
20
-22.4334
11
264.58
21
-21.9869
0
LINE
8
BLACK
6
CONTINUOUS
10
264.58
20
-21.9869
11
264.419
21
-21.5517
0
LINE
8
BLACK
6
CONTINUOUS
10
264.419
20
-21.5517
11
264.225
21
-21.1305
0
LINE
8
BLACK
6
CONTINUOUS
10
264.225
20
-21.1305
11
263.998
21
-20.7258
0
LINE
8
BLACK
6
CONTINUOUS
10
263.998
20
-20.7258
11
263.741
21
-20.3401
0
LINE
8
BLACK
6
CONTINUOUS
10
263.741
20
-20.3401
11
263.453
21
-19.9758
0
LINE
8
BLACK
6
CONTINUOUS
10
263.453
20
-19.9758
11
263.139
21
-19.6351
0
LINE
8
BLACK
6
CONTINUOUS
10
263.139
20
-19.6351
11
262.798
21
-19.3203
0
LINE
8
BLACK
6
CONTINUOUS
10
262.798
20
-19.3203
11
262.434
21
-19.0331
0
LINE
8
BLACK
6
CONTINUOUS
10
262.434
20
-19.0331
11
262.048
21
-18.7754
0
LINE
8
BLACK
6
CONTINUOUS
10
262.048
20
-18.7754
11
261.643
21
-18.5487
0
LINE
8
BLACK
6
CONTINUOUS
10
261.643
20
-18.5487
11
261.222
21
-18.3545
0
LINE
8
BLACK
6
CONTINUOUS
10
261.222
20
-18.3545
11
260.787
21
-18.194
0
LINE
8
BLACK
6
CONTINUOUS
10
260.787
20
-18.194
11
260.34
21
-18.0681
0
LINE
8
BLACK
6
CONTINUOUS
10
260.34
20
-18.0681
11
259.885
21
-17.9776
0
LINE
8
BLACK
6
CONTINUOUS
10
259.885
20
-17.9776
11
259.425
21
-17.923
0
LINE
8
BLACK
6
CONTINUOUS
10
259.425
20
-17.923
11
258.971
21
-17.9052
0
LINE
8
BLACK
6
CONTINUOUS
10
258.971
20
-17.9052
11
258.961
21
-17.9094
0
LINE
8
BLACK
6
CONTINUOUS
10
258.961
20
-17.9094
11
225.03
21
-17.9094
0
LINE
8
BLACK
6
CONTINUOUS
10
225.03
20
-17.9094
11
205.982
21
-19.0999
0
LINE
8
BLACK
6
CONTINUOUS
10
14.5872
20
-90.3336
11
14.6489
21
-90.0146
0
LINE
8
BLACK
6
CONTINUOUS
10
14.6489
20
-90.0146
11
14.7485
21
-89.7052
0
LINE
8
BLACK
6
CONTINUOUS
10
14.7485
20
-89.7052
11
14.8846
21
-89.4101
0
LINE
8
BLACK
6
CONTINUOUS
10
14.8846
20
-89.4101
11
15.0551
21
-89.1335
0
LINE
8
BLACK
6
CONTINUOUS
10
15.0551
20
-89.1335
11
15.2576
21
-88.8794
0
LINE
8
BLACK
6
CONTINUOUS
10
15.2576
20
-88.8794
11
15.4892
21
-88.6514
0
LINE
8
BLACK
6
CONTINUOUS
10
15.4892
20
-88.6514
11
15.7465
21
-88.4529
0
LINE
8
BLACK
6
CONTINUOUS
10
15.7465
20
-88.4529
11
16.0257
21
-88.2868
0
LINE
8
BLACK
6
CONTINUOUS
10
16.0257
20
-88.2868
11
16.3229
21
-88.1554
0
LINE
8
BLACK
6
CONTINUOUS
10
16.3229
20
-88.1554
11
16.6338
21
-88.0606
0
LINE
8
BLACK
6
CONTINUOUS
10
16.6338
20
-88.0606
11
16.9537
21
-88.0039
0
LINE
8
BLACK
6
CONTINUOUS
10
16.9537
20
-88.0039
11
17.2782
21
-87.9861
0
LINE
8
BLACK
6
CONTINUOUS
10
17.2782
20
-87.9861
11
17.6025
21
-88.0073
0
LINE
8
BLACK
6
CONTINUOUS
10
17.6025
20
-88.0073
11
17.9218
21
-88.0674
0
LINE
8
BLACK
6
CONTINUOUS
10
17.9218
20
-88.0674
11
18.2317
21
-88.1654
0
LINE
8
BLACK
6
CONTINUOUS
10
18.2317
20
-88.1654
11
18.5275
21
-88.2999
0
LINE
8
BLACK
6
CONTINUOUS
10
18.5275
20
-88.2999
11
18.805
21
-88.4689
0
LINE
8
BLACK
6
CONTINUOUS
10
18.805
20
-88.4689
11
19.0602
21
-88.6701
0
LINE
8
BLACK
6
CONTINUOUS
10
19.0602
20
-88.6701
11
19.2894
21
-88.9005
0
LINE
8
BLACK
6
CONTINUOUS
10
19.2894
20
-88.9005
11
19.4892
21
-89.1567
0
LINE
8
BLACK
6
CONTINUOUS
10
19.4892
20
-89.1567
11
19.6568
21
-89.4351
0
LINE
8
BLACK
6
CONTINUOUS
10
19.6568
20
-89.4351
11
19.7898
21
-89.7316
0
LINE
8
BLACK
6
CONTINUOUS
10
19.7898
20
-89.7316
11
19.8861
21
-90.042
0
LINE
8
BLACK
6
CONTINUOUS
10
19.8861
20
-90.042
11
19.9445
21
-90.3617
0
LINE
8
BLACK
6
CONTINUOUS
10
19.9445
20
-90.3617
11
19.9641
21
-90.686
0
LINE
8
BLACK
6
CONTINUOUS
10
19.9641
20
-90.686
11
19.9635
21
-90.7426
0
LINE
8
BLACK
6
CONTINUOUS
10
19.9635
20
-90.7426
11
19.9371
21
-91.0665
0
LINE
8
BLACK
6
CONTINUOUS
10
19.9371
20
-91.0665
11
19.8721
21
-91.3848
0
LINE
8
BLACK
6
CONTINUOUS
10
19.8721
20
-91.3848
11
19.7692
21
-91.6931
0
LINE
8
BLACK
6
CONTINUOUS
10
19.7692
20
-91.6931
11
19.6301
21
-91.9868
0
LINE
8
BLACK
6
CONTINUOUS
10
19.6301
20
-91.9868
11
19.4567
21
-92.2616
0
LINE
8
BLACK
6
CONTINUOUS
10
19.4567
20
-92.2616
11
19.2515
21
-92.5136
0
LINE
8
BLACK
6
CONTINUOUS
10
19.2515
20
-92.5136
11
19.0176
21
-92.7391
0
LINE
8
BLACK
6
CONTINUOUS
10
19.0176
20
-92.7391
11
18.7582
21
-92.9349
0
LINE
8
BLACK
6
CONTINUOUS
10
18.7582
20
-92.9349
11
18.4772
21
-93.0981
0
LINE
8
BLACK
6
CONTINUOUS
10
18.4772
20
-93.0981
11
18.1787
21
-93.2264
0
LINE
8
BLACK
6
CONTINUOUS
10
18.1787
20
-93.2264
11
17.8669
21
-93.3179
0
LINE
8
BLACK
6
CONTINUOUS
10
17.8669
20
-93.3179
11
17.5463
21
-93.3712
0
LINE
8
BLACK
6
CONTINUOUS
10
17.5463
20
-93.3712
11
17.2217
21
-93.3857
0
LINE
8
BLACK
6
CONTINUOUS
10
17.2217
20
-93.3857
11
16.8976
21
-93.361
0
LINE
8
BLACK
6
CONTINUOUS
10
16.8976
20
-93.361
11
16.5789
21
-93.2976
0
LINE
8
BLACK
6
CONTINUOUS
10
16.5789
20
-93.2976
11
16.2701
21
-93.1964
0
LINE
8
BLACK
6
CONTINUOUS
10
16.2701
20
-93.1964
11
15.9758
21
-93.0588
0
LINE
8
BLACK
6
CONTINUOUS
10
15.9758
20
-93.0588
11
15.7
21
-92.8869
0
LINE
8
BLACK
6
CONTINUOUS
10
15.7
20
-92.8869
11
15.4469
21
-92.683
0
LINE
8
BLACK
6
CONTINUOUS
10
15.4469
20
-92.683
11
15.2202
21
-92.4503
0
LINE
8
BLACK
6
CONTINUOUS
10
15.2202
20
-92.4503
11
15.023
21
-92.1919
0
LINE
8
BLACK
6
CONTINUOUS
10
15.023
20
-92.1919
11
14.8584
21
-91.9118
0
LINE
8
BLACK
6
CONTINUOUS
10
14.8584
20
-91.9118
11
14.7285
21
-91.6139
0
LINE
8
BLACK
6
CONTINUOUS
10
14.7285
20
-91.6139
11
14.6354
21
-91.3026
0
LINE
8
BLACK
6
CONTINUOUS
10
14.6354
20
-91.3026
11
14.5804
21
-90.9823
0
LINE
8
BLACK
6
CONTINUOUS
10
14.5804
20
-90.9823
11
14.5643
21
-90.6587
0
LINE
8
BLACK
6
CONTINUOUS
10
14.5643
20
-90.6587
11
14.5642
21
-90.6577
0
LINE
8
BLACK
6
CONTINUOUS
10
14.5642
20
-90.6577
11
14.5872
21
-90.3336
0
LINE
8
BLACK
6
CONTINUOUS
10
14.7281
20
-91.2808
11
14.818
21
-91.5812
0
LINE
8
BLACK
6
CONTINUOUS
10
14.818
20
-91.5812
11
14.9432
21
-91.8686
0
LINE
8
BLACK
6
CONTINUOUS
10
14.9432
20
-91.8686
11
15.1021
21
-92.1388
0
LINE
8
BLACK
6
CONTINUOUS
10
15.1021
20
-92.1388
11
15.2923
21
-92.388
0
LINE
8
BLACK
6
CONTINUOUS
10
15.2923
20
-92.388
11
15.511
21
-92.6126
0
LINE
8
BLACK
6
CONTINUOUS
10
15.511
20
-92.6126
11
15.7552
21
-92.8092
0
LINE
8
BLACK
6
CONTINUOUS
10
15.7552
20
-92.8092
11
16.0212
21
-92.9751
0
LINE
8
BLACK
6
CONTINUOUS
10
16.0212
20
-92.9751
11
16.3052
21
-93.1079
0
LINE
8
BLACK
6
CONTINUOUS
10
16.3052
20
-93.1079
11
16.6031
21
-93.2055
0
LINE
8
BLACK
6
CONTINUOUS
10
16.6031
20
-93.2055
11
16.9106
21
-93.2667
0
LINE
8
BLACK
6
CONTINUOUS
10
16.9106
20
-93.2667
11
17.2232
21
-93.2905
0
LINE
8
BLACK
6
CONTINUOUS
10
17.2232
20
-93.2905
11
17.5364
21
-93.2765
0
LINE
8
BLACK
6
CONTINUOUS
10
17.5364
20
-93.2765
11
17.8456
21
-93.225
0
LINE
8
BLACK
6
CONTINUOUS
10
17.8456
20
-93.225
11
18.1464
21
-93.1368
0
LINE
8
BLACK
6
CONTINUOUS
10
18.1464
20
-93.1368
11
18.4344
21
-93.013
0
LINE
8
BLACK
6
CONTINUOUS
10
18.4344
20
-93.013
11
18.7055
21
-92.8556
0
LINE
8
BLACK
6
CONTINUOUS
10
18.7055
20
-92.8556
11
18.9557
21
-92.6667
0
LINE
8
BLACK
6
CONTINUOUS
10
18.9557
20
-92.6667
11
19.1814
21
-92.4491
0
LINE
8
BLACK
6
CONTINUOUS
10
19.1814
20
-92.4491
11
19.3794
21
-92.206
0
LINE
8
BLACK
6
CONTINUOUS
10
19.3794
20
-92.206
11
19.5466
21
-91.9409
0
LINE
8
BLACK
6
CONTINUOUS
10
19.5466
20
-91.9409
11
19.6809
21
-91.6576
0
LINE
8
BLACK
6
CONTINUOUS
10
19.6809
20
-91.6576
11
19.7801
21
-91.3602
0
LINE
8
BLACK
6
CONTINUOUS
10
19.7801
20
-91.3602
11
19.8428
21
-91.053
0
LINE
8
BLACK
6
CONTINUOUS
10
19.8428
20
-91.053
11
19.8683
21
-90.7406
0
LINE
8
BLACK
6
CONTINUOUS
10
19.8683
20
-90.7406
11
19.8688
21
-90.686
0
LINE
8
BLACK
6
CONTINUOUS
10
19.8688
20
-90.686
11
19.85
21
-90.3731
0
LINE
8
BLACK
6
CONTINUOUS
10
19.85
20
-90.3731
11
19.7936
21
-90.0647
0
LINE
8
BLACK
6
CONTINUOUS
10
19.7936
20
-90.0647
11
19.7007
21
-89.7653
0
LINE
8
BLACK
6
CONTINUOUS
10
19.7007
20
-89.7653
11
19.5724
21
-89.4792
0
LINE
8
BLACK
6
CONTINUOUS
10
19.5724
20
-89.4792
11
19.4107
21
-89.2107
0
LINE
8
BLACK
6
CONTINUOUS
10
19.4107
20
-89.2107
11
19.2179
21
-88.9635
0
LINE
8
BLACK
6
CONTINUOUS
10
19.2179
20
-88.9635
11
18.9968
21
-88.7412
0
LINE
8
BLACK
6
CONTINUOUS
10
18.9968
20
-88.7412
11
18.7506
21
-88.5471
0
LINE
8
BLACK
6
CONTINUOUS
10
18.7506
20
-88.5471
11
18.4829
21
-88.384
0
LINE
8
BLACK
6
CONTINUOUS
10
18.4829
20
-88.384
11
18.1975
21
-88.2543
0
LINE
8
BLACK
6
CONTINUOUS
10
18.1975
20
-88.2543
11
17.8986
21
-88.1597
0
LINE
8
BLACK
6
CONTINUOUS
10
17.8986
20
-88.1597
11
17.5905
21
-88.1018
0
LINE
8
BLACK
6
CONTINUOUS
10
17.5905
20
-88.1018
11
17.2777
21
-88.0813
0
LINE
8
BLACK
6
CONTINUOUS
10
17.2777
20
-88.0813
11
16.9647
21
-88.0985
0
LINE
8
BLACK
6
CONTINUOUS
10
16.9647
20
-88.0985
11
16.656
21
-88.1532
0
LINE
8
BLACK
6
CONTINUOUS
10
16.656
20
-88.1532
11
16.3561
21
-88.2446
0
LINE
8
BLACK
6
CONTINUOUS
10
16.3561
20
-88.2446
11
16.0694
21
-88.3714
0
LINE
8
BLACK
6
CONTINUOUS
10
16.0694
20
-88.3714
11
15.8
21
-88.5317
0
LINE
8
BLACK
6
CONTINUOUS
10
15.8
20
-88.5317
11
15.5518
21
-88.7232
0
LINE
8
BLACK
6
CONTINUOUS
10
15.5518
20
-88.7232
11
15.3284
21
-88.9431
0
LINE
8
BLACK
6
CONTINUOUS
10
15.3284
20
-88.9431
11
15.133
21
-89.1883
0
LINE
8
BLACK
6
CONTINUOUS
10
15.133
20
-89.1883
11
14.9685
21
-89.4551
0
LINE
8
BLACK
6
CONTINUOUS
10
14.9685
20
-89.4551
11
14.8373
21
-89.7398
0
LINE
8
BLACK
6
CONTINUOUS
10
14.8373
20
-89.7398
11
14.7412
21
-90.0382
0
LINE
8
BLACK
6
CONTINUOUS
10
14.7412
20
-90.0382
11
14.6816
21
-90.346
0
LINE
8
BLACK
6
CONTINUOUS
10
14.6816
20
-90.346
11
14.6595
21
-90.6587
0
LINE
8
BLACK
6
CONTINUOUS
10
14.6595
20
-90.6587
11
14.6751
21
-90.9719
0
LINE
8
BLACK
6
CONTINUOUS
10
14.6751
20
-90.9719
11
14.7281
21
-91.2808
0
LINE
8
BLACK
6
CONTINUOUS
10
256.482
20
-89.1425
11
256.544
21
-88.8235
0
LINE
8
BLACK
6
CONTINUOUS
10
256.544
20
-88.8235
11
256.644
21
-88.5142
0
LINE
8
BLACK
6
CONTINUOUS
10
256.644
20
-88.5142
11
256.78
21
-88.2191
0
LINE
8
BLACK
6
CONTINUOUS
10
256.78
20
-88.2191
11
256.95
21
-87.9424
0
LINE
8
BLACK
6
CONTINUOUS
10
256.95
20
-87.9424
11
257.153
21
-87.6883
0
LINE
8
BLACK
6
CONTINUOUS
10
257.153
20
-87.6883
11
257.384
21
-87.4603
0
LINE
8
BLACK
6
CONTINUOUS
10
257.384
20
-87.4603
11
257.642
21
-87.2618
0
LINE
8
BLACK
6
CONTINUOUS
10
257.642
20
-87.2618
11
257.921
21
-87.0957
0
LINE
8
BLACK
6
CONTINUOUS
10
257.921
20
-87.0957
11
258.218
21
-86.9643
0
LINE
8
BLACK
6
CONTINUOUS
10
258.218
20
-86.9643
11
258.529
21
-86.8696
0
LINE
8
BLACK
6
CONTINUOUS
10
258.529
20
-86.8696
11
258.849
21
-86.8128
0
LINE
8
BLACK
6
CONTINUOUS
10
258.849
20
-86.8128
11
259.173
21
-86.795
0
LINE
8
BLACK
6
CONTINUOUS
10
259.173
20
-86.795
11
259.498
21
-86.8162
0
LINE
8
BLACK
6
CONTINUOUS
10
259.498
20
-86.8162
11
259.817
21
-86.8763
0
LINE
8
BLACK
6
CONTINUOUS
10
259.817
20
-86.8763
11
260.127
21
-86.9743
0
LINE
8
BLACK
6
CONTINUOUS
10
260.127
20
-86.9743
11
260.423
21
-87.1088
0
LINE
8
BLACK
6
CONTINUOUS
10
260.423
20
-87.1088
11
260.7
21
-87.2778
0
LINE
8
BLACK
6
CONTINUOUS
10
260.7
20
-87.2778
11
260.955
21
-87.479
0
LINE
8
BLACK
6
CONTINUOUS
10
260.955
20
-87.479
11
261.184
21
-87.7094
0
LINE
8
BLACK
6
CONTINUOUS
10
261.184
20
-87.7094
11
261.384
21
-87.9657
0
LINE
8
BLACK
6
CONTINUOUS
10
261.384
20
-87.9657
11
261.552
21
-88.2441
0
LINE
8
BLACK
6
CONTINUOUS
10
261.552
20
-88.2441
11
261.685
21
-88.5406
0
LINE
8
BLACK
6
CONTINUOUS
10
261.685
20
-88.5406
11
261.781
21
-88.8509
0
LINE
8
BLACK
6
CONTINUOUS
10
261.781
20
-88.8509
11
261.84
21
-89.1706
0
LINE
8
BLACK
6
CONTINUOUS
10
261.84
20
-89.1706
11
261.859
21
-89.495
0
LINE
8
BLACK
6
CONTINUOUS
10
261.859
20
-89.495
11
261.859
21
-89.5515
0
LINE
8
BLACK
6
CONTINUOUS
10
261.859
20
-89.5515
11
261.832
21
-89.8754
0
LINE
8
BLACK
6
CONTINUOUS
10
261.832
20
-89.8754
11
261.767
21
-90.1938
0
LINE
8
BLACK
6
CONTINUOUS
10
261.767
20
-90.1938
11
261.664
21
-90.502
0
LINE
8
BLACK
6
CONTINUOUS
10
261.664
20
-90.502
11
261.525
21
-90.7957
0
LINE
8
BLACK
6
CONTINUOUS
10
261.525
20
-90.7957
11
261.352
21
-91.0705
0
LINE
8
BLACK
6
CONTINUOUS
10
261.352
20
-91.0705
11
261.147
21
-91.3225
0
LINE
8
BLACK
6
CONTINUOUS
10
261.147
20
-91.3225
11
260.913
21
-91.548
0
LINE
8
BLACK
6
CONTINUOUS
10
260.913
20
-91.548
11
260.653
21
-91.7438
0
LINE
8
BLACK
6
CONTINUOUS
10
260.653
20
-91.7438
11
260.372
21
-91.9071
0
LINE
8
BLACK
6
CONTINUOUS
10
260.372
20
-91.9071
11
260.074
21
-92.0353
0
LINE
8
BLACK
6
CONTINUOUS
10
260.074
20
-92.0353
11
259.762
21
-92.1268
0
LINE
8
BLACK
6
CONTINUOUS
10
259.762
20
-92.1268
11
259.441
21
-92.1802
0
LINE
8
BLACK
6
CONTINUOUS
10
259.441
20
-92.1802
11
259.117
21
-92.1946
0
LINE
8
BLACK
6
CONTINUOUS
10
259.117
20
-92.1946
11
258.793
21
-92.17
0
LINE
8
BLACK
6
CONTINUOUS
10
258.793
20
-92.17
11
258.474
21
-92.1066
0
LINE
8
BLACK
6
CONTINUOUS
10
258.474
20
-92.1066
11
258.165
21
-92.0053
0
LINE
8
BLACK
6
CONTINUOUS
10
258.165
20
-92.0053
11
257.871
21
-91.8678
0
LINE
8
BLACK
6
CONTINUOUS
10
257.871
20
-91.8678
11
257.595
21
-91.6958
0
LINE
8
BLACK
6
CONTINUOUS
10
257.595
20
-91.6958
11
257.342
21
-91.492
0
LINE
8
BLACK
6
CONTINUOUS
10
257.342
20
-91.492
11
257.115
21
-91.2592
0
LINE
8
BLACK
6
CONTINUOUS
10
257.115
20
-91.2592
11
256.918
21
-91.0009
0
LINE
8
BLACK
6
CONTINUOUS
10
256.918
20
-91.0009
11
256.753
21
-90.7207
0
LINE
8
BLACK
6
CONTINUOUS
10
256.753
20
-90.7207
11
256.624
21
-90.4228
0
LINE
8
BLACK
6
CONTINUOUS
10
256.624
20
-90.4228
11
256.53
21
-90.1115
0
LINE
8
BLACK
6
CONTINUOUS
10
256.53
20
-90.1115
11
256.475
21
-89.7912
0
LINE
8
BLACK
6
CONTINUOUS
10
256.475
20
-89.7912
11
256.459
21
-89.4677
0
LINE
8
BLACK
6
CONTINUOUS
10
256.459
20
-89.4677
11
256.459
21
-89.4667
0
LINE
8
BLACK
6
CONTINUOUS
10
256.459
20
-89.4667
11
256.482
21
-89.1425
0
LINE
8
BLACK
6
CONTINUOUS
10
256.623
20
-90.0897
11
256.713
21
-90.3901
0
LINE
8
BLACK
6
CONTINUOUS
10
256.713
20
-90.3901
11
256.838
21
-90.6775
0
LINE
8
BLACK
6
CONTINUOUS
10
256.838
20
-90.6775
11
256.997
21
-90.9477
0
LINE
8
BLACK
6
CONTINUOUS
10
256.997
20
-90.9477
11
257.187
21
-91.1969
0
LINE
8
BLACK
6
CONTINUOUS
10
257.187
20
-91.1969
11
257.406
21
-91.4215
0
LINE
8
BLACK
6
CONTINUOUS
10
257.406
20
-91.4215
11
257.65
21
-91.6182
0
LINE
8
BLACK
6
CONTINUOUS
10
257.65
20
-91.6182
11
257.916
21
-91.7841
0
LINE
8
BLACK
6
CONTINUOUS
10
257.916
20
-91.7841
11
258.2
21
-91.9168
0
LINE
8
BLACK
6
CONTINUOUS
10
258.2
20
-91.9168
11
258.498
21
-92.0144
0
LINE
8
BLACK
6
CONTINUOUS
10
258.498
20
-92.0144
11
258.806
21
-92.0756
0
LINE
8
BLACK
6
CONTINUOUS
10
258.806
20
-92.0756
11
259.118
21
-92.0994
0
LINE
8
BLACK
6
CONTINUOUS
10
259.118
20
-92.0994
11
259.431
21
-92.0854
0
LINE
8
BLACK
6
CONTINUOUS
10
259.431
20
-92.0854
11
259.741
21
-92.034
0
LINE
8
BLACK
6
CONTINUOUS
10
259.741
20
-92.034
11
260.041
21
-91.9457
0
LINE
8
BLACK
6
CONTINUOUS
10
260.041
20
-91.9457
11
260.33
21
-91.822
0
LINE
8
BLACK
6
CONTINUOUS
10
260.33
20
-91.822
11
260.601
21
-91.6645
0
LINE
8
BLACK
6
CONTINUOUS
10
260.601
20
-91.6645
11
260.851
21
-91.4756
0
LINE
8
BLACK
6
CONTINUOUS
10
260.851
20
-91.4756
11
261.077
21
-91.258
0
LINE
8
BLACK
6
CONTINUOUS
10
261.077
20
-91.258
11
261.274
21
-91.0149
0
LINE
8
BLACK
6
CONTINUOUS
10
261.274
20
-91.0149
11
261.442
21
-90.7498
0
LINE
8
BLACK
6
CONTINUOUS
10
261.442
20
-90.7498
11
261.576
21
-90.4665
0
LINE
8
BLACK
6
CONTINUOUS
10
261.576
20
-90.4665
11
261.675
21
-90.1691
0
LINE
8
BLACK
6
CONTINUOUS
10
261.675
20
-90.1691
11
261.738
21
-89.862
0
LINE
8
BLACK
6
CONTINUOUS
10
261.738
20
-89.862
11
261.763
21
-89.5495
0
LINE
8
BLACK
6
CONTINUOUS
10
261.763
20
-89.5495
11
261.764
21
-89.495
0
LINE
8
BLACK
6
CONTINUOUS
10
261.764
20
-89.495
11
261.745
21
-89.182
0
LINE
8
BLACK
6
CONTINUOUS
10
261.745
20
-89.182
11
261.689
21
-88.8736
0
LINE
8
BLACK
6
CONTINUOUS
10
261.689
20
-88.8736
11
261.596
21
-88.5742
0
LINE
8
BLACK
6
CONTINUOUS
10
261.596
20
-88.5742
11
261.467
21
-88.2882
0
LINE
8
BLACK
6
CONTINUOUS
10
261.467
20
-88.2882
11
261.306
21
-88.0196
0
LINE
8
BLACK
6
CONTINUOUS
10
261.306
20
-88.0196
11
261.113
21
-87.7724
0
LINE
8
BLACK
6
CONTINUOUS
10
261.113
20
-87.7724
11
260.892
21
-87.5501
0
LINE
8
BLACK
6
CONTINUOUS
10
260.892
20
-87.5501
11
260.646
21
-87.3561
0
LINE
8
BLACK
6
CONTINUOUS
10
260.646
20
-87.3561
11
260.378
21
-87.193
0
LINE
8
BLACK
6
CONTINUOUS
10
260.378
20
-87.193
11
260.093
21
-87.0632
0
LINE
8
BLACK
6
CONTINUOUS
10
260.093
20
-87.0632
11
259.794
21
-86.9687
0
LINE
8
BLACK
6
CONTINUOUS
10
259.794
20
-86.9687
11
259.486
21
-86.9107
0
LINE
8
BLACK
6
CONTINUOUS
10
259.486
20
-86.9107
11
259.173
21
-86.8902
0
LINE
8
BLACK
6
CONTINUOUS
10
259.173
20
-86.8902
11
258.86
21
-86.9075
0
LINE
8
BLACK
6
CONTINUOUS
10
258.86
20
-86.9075
11
258.551
21
-86.9622
0
LINE
8
BLACK
6
CONTINUOUS
10
258.551
20
-86.9622
11
258.251
21
-87.0536
0
LINE
8
BLACK
6
CONTINUOUS
10
258.251
20
-87.0536
11
257.964
21
-87.1803
0
LINE
8
BLACK
6
CONTINUOUS
10
257.964
20
-87.1803
11
257.695
21
-87.3406
0
LINE
8
BLACK
6
CONTINUOUS
10
257.695
20
-87.3406
11
257.447
21
-87.5321
0
LINE
8
BLACK
6
CONTINUOUS
10
257.447
20
-87.5321
11
257.223
21
-87.752
0
LINE
8
BLACK
6
CONTINUOUS
10
257.223
20
-87.752
11
257.028
21
-87.9972
0
LINE
8
BLACK
6
CONTINUOUS
10
257.028
20
-87.9972
11
256.864
21
-88.2641
0
LINE
8
BLACK
6
CONTINUOUS
10
256.864
20
-88.2641
11
256.732
21
-88.5488
0
LINE
8
BLACK
6
CONTINUOUS
10
256.732
20
-88.5488
11
256.636
21
-88.8472
0
LINE
8
BLACK
6
CONTINUOUS
10
256.636
20
-88.8472
11
256.577
21
-89.155
0
LINE
8
BLACK
6
CONTINUOUS
10
256.577
20
-89.155
11
256.555
21
-89.4677
0
LINE
8
BLACK
6
CONTINUOUS
10
256.555
20
-89.4677
11
256.57
21
-89.7808
0
LINE
8
BLACK
6
CONTINUOUS
10
256.57
20
-89.7808
11
256.623
21
-90.0897
0
LINE
8
BLACK
6
CONTINUOUS
10
136.626
20
-77.0383
11
136.688
21
-76.7192
0
LINE
8
BLACK
6
CONTINUOUS
10
136.688
20
-76.7192
11
136.788
21
-76.4099
0
LINE
8
BLACK
6
CONTINUOUS
10
136.788
20
-76.4099
11
136.924
21
-76.1148
0
LINE
8
BLACK
6
CONTINUOUS
10
136.924
20
-76.1148
11
137.094
21
-75.8382
0
LINE
8
BLACK
6
CONTINUOUS
10
137.094
20
-75.8382
11
137.297
21
-75.584
0
LINE
8
BLACK
6
CONTINUOUS
10
137.297
20
-75.584
11
137.528
21
-75.3561
0
LINE
8
BLACK
6
CONTINUOUS
10
137.528
20
-75.3561
11
137.786
21
-75.1576
0
LINE
8
BLACK
6
CONTINUOUS
10
137.786
20
-75.1576
11
138.065
21
-74.9914
0
LINE
8
BLACK
6
CONTINUOUS
10
138.065
20
-74.9914
11
138.362
21
-74.86
0
LINE
8
BLACK
6
CONTINUOUS
10
138.362
20
-74.86
11
138.673
21
-74.7653
0
LINE
8
BLACK
6
CONTINUOUS
10
138.673
20
-74.7653
11
138.993
21
-74.7086
0
LINE
8
BLACK
6
CONTINUOUS
10
138.993
20
-74.7086
11
139.317
21
-74.6907
0
LINE
8
BLACK
6
CONTINUOUS
10
139.317
20
-74.6907
11
139.642
21
-74.712
0
LINE
8
BLACK
6
CONTINUOUS
10
139.642
20
-74.712
11
139.961
21
-74.772
0
LINE
8
BLACK
6
CONTINUOUS
10
139.961
20
-74.772
11
140.271
21
-74.87
0
LINE
8
BLACK
6
CONTINUOUS
10
140.271
20
-74.87
11
140.567
21
-75.0045
0
LINE
8
BLACK
6
CONTINUOUS
10
140.567
20
-75.0045
11
140.844
21
-75.1736
0
LINE
8
BLACK
6
CONTINUOUS
10
140.844
20
-75.1736
11
141.099
21
-75.3748
0
LINE
8
BLACK
6
CONTINUOUS
10
141.099
20
-75.3748
11
141.329
21
-75.6051
0
LINE
8
BLACK
6
CONTINUOUS
10
141.329
20
-75.6051
11
141.528
21
-75.8614
0
LINE
8
BLACK
6
CONTINUOUS
10
141.528
20
-75.8614
11
141.696
21
-76.1398
0
LINE
8
BLACK
6
CONTINUOUS
10
141.696
20
-76.1398
11
141.829
21
-76.4363
0
LINE
8
BLACK
6
CONTINUOUS
10
141.829
20
-76.4363
11
141.925
21
-76.7467
0
LINE
8
BLACK
6
CONTINUOUS
10
141.925
20
-76.7467
11
141.984
21
-77.0663
0
LINE
8
BLACK
6
CONTINUOUS
10
141.984
20
-77.0663
11
142.003
21
-77.3907
0
LINE
8
BLACK
6
CONTINUOUS
10
142.003
20
-77.3907
11
142.003
21
-77.4472
0
LINE
8
BLACK
6
CONTINUOUS
10
142.003
20
-77.4472
11
141.976
21
-77.7711
0
LINE
8
BLACK
6
CONTINUOUS
10
141.976
20
-77.7711
11
141.911
21
-78.0895
0
LINE
8
BLACK
6
CONTINUOUS
10
141.911
20
-78.0895
11
141.808
21
-78.3978
0
LINE
8
BLACK
6
CONTINUOUS
10
141.808
20
-78.3978
11
141.669
21
-78.6914
0
LINE
8
BLACK
6
CONTINUOUS
10
141.669
20
-78.6914
11
141.496
21
-78.9663
0
LINE
8
BLACK
6
CONTINUOUS
10
141.496
20
-78.9663
11
141.291
21
-79.2183
0
LINE
8
BLACK
6
CONTINUOUS
10
141.291
20
-79.2183
11
141.057
21
-79.4438
0
LINE
8
BLACK
6
CONTINUOUS
10
141.057
20
-79.4438
11
140.797
21
-79.6396
0
LINE
8
BLACK
6
CONTINUOUS
10
140.797
20
-79.6396
11
140.516
21
-79.8028
0
LINE
8
BLACK
6
CONTINUOUS
10
140.516
20
-79.8028
11
140.218
21
-79.9311
0
LINE
8
BLACK
6
CONTINUOUS
10
140.218
20
-79.9311
11
139.906
21
-80.0225
0
LINE
8
BLACK
6
CONTINUOUS
10
139.906
20
-80.0225
11
139.585
21
-80.0759
0
LINE
8
BLACK
6
CONTINUOUS
10
139.585
20
-80.0759
11
139.261
21
-80.0904
0
LINE
8
BLACK
6
CONTINUOUS
10
139.261
20
-80.0904
11
138.937
21
-80.0657
0
LINE
8
BLACK
6
CONTINUOUS
10
138.937
20
-80.0657
11
138.618
21
-80.0023
0
LINE
8
BLACK
6
CONTINUOUS
10
138.618
20
-80.0023
11
138.309
21
-79.9011
0
LINE
8
BLACK
6
CONTINUOUS
10
138.309
20
-79.9011
11
138.015
21
-79.7635
0
LINE
8
BLACK
6
CONTINUOUS
10
138.015
20
-79.7635
11
137.739
21
-79.5915
0
LINE
8
BLACK
6
CONTINUOUS
10
137.739
20
-79.5915
11
137.486
21
-79.3877
0
LINE
8
BLACK
6
CONTINUOUS
10
137.486
20
-79.3877
11
137.259
21
-79.1549
0
LINE
8
BLACK
6
CONTINUOUS
10
137.259
20
-79.1549
11
137.062
21
-78.8966
0
LINE
8
BLACK
6
CONTINUOUS
10
137.062
20
-78.8966
11
136.898
21
-78.6165
0
LINE
8
BLACK
6
CONTINUOUS
10
136.898
20
-78.6165
11
136.768
21
-78.3186
0
LINE
8
BLACK
6
CONTINUOUS
10
136.768
20
-78.3186
11
136.675
21
-78.0072
0
LINE
8
BLACK
6
CONTINUOUS
10
136.675
20
-78.0072
11
136.62
21
-77.687
0
LINE
8
BLACK
6
CONTINUOUS
10
136.62
20
-77.687
11
136.603
21
-77.3634
0
LINE
8
BLACK
6
CONTINUOUS
10
136.603
20
-77.3634
11
136.603
21
-77.3624
0
LINE
8
BLACK
6
CONTINUOUS
10
136.603
20
-77.3624
11
136.626
21
-77.0383
0
LINE
8
BLACK
6
CONTINUOUS
10
136.767
20
-77.9855
11
136.857
21
-78.2858
0
LINE
8
BLACK
6
CONTINUOUS
10
136.857
20
-78.2858
11
136.982
21
-78.5732
0
LINE
8
BLACK
6
CONTINUOUS
10
136.982
20
-78.5732
11
137.141
21
-78.8435
0
LINE
8
BLACK
6
CONTINUOUS
10
137.141
20
-78.8435
11
137.331
21
-79.0927
0
LINE
8
BLACK
6
CONTINUOUS
10
137.331
20
-79.0927
11
137.55
21
-79.3172
0
LINE
8
BLACK
6
CONTINUOUS
10
137.55
20
-79.3172
11
137.794
21
-79.5139
0
LINE
8
BLACK
6
CONTINUOUS
10
137.794
20
-79.5139
11
138.06
21
-79.6798
0
LINE
8
BLACK
6
CONTINUOUS
10
138.06
20
-79.6798
11
138.344
21
-79.8125
0
LINE
8
BLACK
6
CONTINUOUS
10
138.344
20
-79.8125
11
138.642
21
-79.9102
0
LINE
8
BLACK
6
CONTINUOUS
10
138.642
20
-79.9102
11
138.95
21
-79.9713
0
LINE
8
BLACK
6
CONTINUOUS
10
138.95
20
-79.9713
11
139.262
21
-79.9951
0
LINE
8
BLACK
6
CONTINUOUS
10
139.262
20
-79.9951
11
139.576
21
-79.9812
0
LINE
8
BLACK
6
CONTINUOUS
10
139.576
20
-79.9812
11
139.885
21
-79.9297
0
LINE
8
BLACK
6
CONTINUOUS
10
139.885
20
-79.9297
11
140.186
21
-79.8415
0
LINE
8
BLACK
6
CONTINUOUS
10
140.186
20
-79.8415
11
140.474
21
-79.7177
0
LINE
8
BLACK
6
CONTINUOUS
10
140.474
20
-79.7177
11
140.745
21
-79.5602
0
LINE
8
BLACK
6
CONTINUOUS
10
140.745
20
-79.5602
11
140.995
21
-79.3714
0
LINE
8
BLACK
6
CONTINUOUS
10
140.995
20
-79.3714
11
141.221
21
-79.1538
0
LINE
8
BLACK
6
CONTINUOUS
10
141.221
20
-79.1538
11
141.419
21
-78.9107
0
LINE
8
BLACK
6
CONTINUOUS
10
141.419
20
-78.9107
11
141.586
21
-78.6455
0
LINE
8
BLACK
6
CONTINUOUS
10
141.586
20
-78.6455
11
141.72
21
-78.3622
0
LINE
8
BLACK
6
CONTINUOUS
10
141.72
20
-78.3622
11
141.819
21
-78.0648
0
LINE
8
BLACK
6
CONTINUOUS
10
141.819
20
-78.0648
11
141.882
21
-77.7577
0
LINE
8
BLACK
6
CONTINUOUS
10
141.882
20
-77.7577
11
141.907
21
-77.4452
0
LINE
8
BLACK
6
CONTINUOUS
10
141.907
20
-77.4452
11
141.908
21
-77.3907
0
LINE
8
BLACK
6
CONTINUOUS
10
141.908
20
-77.3907
11
141.889
21
-77.0778
0
LINE
8
BLACK
6
CONTINUOUS
10
141.889
20
-77.0778
11
141.833
21
-76.7694
0
LINE
8
BLACK
6
CONTINUOUS
10
141.833
20
-76.7694
11
141.74
21
-76.47
0
LINE
8
BLACK
6
CONTINUOUS
10
141.74
20
-76.47
11
141.612
21
-76.1839
0
LINE
8
BLACK
6
CONTINUOUS
10
141.612
20
-76.1839
11
141.45
21
-75.9153
0
LINE
8
BLACK
6
CONTINUOUS
10
141.45
20
-75.9153
11
141.257
21
-75.6681
0
LINE
8
BLACK
6
CONTINUOUS
10
141.257
20
-75.6681
11
141.036
21
-75.4459
0
LINE
8
BLACK
6
CONTINUOUS
10
141.036
20
-75.4459
11
140.79
21
-75.2518
0
LINE
8
BLACK
6
CONTINUOUS
10
140.79
20
-75.2518
11
140.522
21
-75.0887
0
LINE
8
BLACK
6
CONTINUOUS
10
140.522
20
-75.0887
11
140.237
21
-74.9589
0
LINE
8
BLACK
6
CONTINUOUS
10
140.237
20
-74.9589
11
139.938
21
-74.8644
0
LINE
8
BLACK
6
CONTINUOUS
10
139.938
20
-74.8644
11
139.63
21
-74.8065
0
LINE
8
BLACK
6
CONTINUOUS
10
139.63
20
-74.8065
11
139.317
21
-74.786
0
LINE
8
BLACK
6
CONTINUOUS
10
139.317
20
-74.786
11
139.004
21
-74.8032
0
LINE
8
BLACK
6
CONTINUOUS
10
139.004
20
-74.8032
11
138.695
21
-74.8579
0
LINE
8
BLACK
6
CONTINUOUS
10
138.695
20
-74.8579
11
138.395
21
-74.9493
0
LINE
8
BLACK
6
CONTINUOUS
10
138.395
20
-74.9493
11
138.109
21
-75.0761
0
LINE
8
BLACK
6
CONTINUOUS
10
138.109
20
-75.0761
11
137.839
21
-75.2364
0
LINE
8
BLACK
6
CONTINUOUS
10
137.839
20
-75.2364
11
137.591
21
-75.4278
0
LINE
8
BLACK
6
CONTINUOUS
10
137.591
20
-75.4278
11
137.368
21
-75.6478
0
LINE
8
BLACK
6
CONTINUOUS
10
137.368
20
-75.6478
11
137.172
21
-75.8929
0
LINE
8
BLACK
6
CONTINUOUS
10
137.172
20
-75.8929
11
137.008
21
-76.1598
0
LINE
8
BLACK
6
CONTINUOUS
10
137.008
20
-76.1598
11
136.876
21
-76.4445
0
LINE
8
BLACK
6
CONTINUOUS
10
136.876
20
-76.4445
11
136.78
21
-76.7429
0
LINE
8
BLACK
6
CONTINUOUS
10
136.78
20
-76.7429
11
136.721
21
-77.0507
0
LINE
8
BLACK
6
CONTINUOUS
10
136.721
20
-77.0507
11
136.699
21
-77.3634
0
LINE
8
BLACK
6
CONTINUOUS
10
136.699
20
-77.3634
11
136.714
21
-77.6765
0
LINE
8
BLACK
6
CONTINUOUS
10
136.714
20
-77.6765
11
136.767
21
-77.9855
0
LINE
8
BLACK
6
CONTINUOUS
10
255.887
20
-23.8571
11
255.949
21
-23.5381
0
LINE
8
BLACK
6
CONTINUOUS
10
255.949
20
-23.5381
11
256.049
21
-23.2287
0
LINE
8
BLACK
6
CONTINUOUS
10
256.049
20
-23.2287
11
256.185
21
-22.9336
0
LINE
8
BLACK
6
CONTINUOUS
10
256.185
20
-22.9336
11
256.355
21
-22.657
0
LINE
8
BLACK
6
CONTINUOUS
10
256.355
20
-22.657
11
256.558
21
-22.4029
0
LINE
8
BLACK
6
CONTINUOUS
10
256.558
20
-22.4029
11
256.789
21
-22.1749
0
LINE
8
BLACK
6
CONTINUOUS
10
256.789
20
-22.1749
11
257.047
21
-21.9764
0
LINE
8
BLACK
6
CONTINUOUS
10
257.047
20
-21.9764
11
257.326
21
-21.8103
0
LINE
8
BLACK
6
CONTINUOUS
10
257.326
20
-21.8103
11
257.623
21
-21.6789
0
LINE
8
BLACK
6
CONTINUOUS
10
257.623
20
-21.6789
11
257.934
21
-21.5841
0
LINE
8
BLACK
6
CONTINUOUS
10
257.934
20
-21.5841
11
258.254
21
-21.5274
0
LINE
8
BLACK
6
CONTINUOUS
10
258.254
20
-21.5274
11
258.578
21
-21.5096
0
LINE
8
BLACK
6
CONTINUOUS
10
258.578
20
-21.5096
11
258.903
21
-21.5308
0
LINE
8
BLACK
6
CONTINUOUS
10
258.903
20
-21.5308
11
259.222
21
-21.5909
0
LINE
8
BLACK
6
CONTINUOUS
10
259.222
20
-21.5909
11
259.532
21
-21.6889
0
LINE
8
BLACK
6
CONTINUOUS
10
259.532
20
-21.6889
11
259.828
21
-21.8234
0
LINE
8
BLACK
6
CONTINUOUS
10
259.828
20
-21.8234
11
260.105
21
-21.9924
0
LINE
8
BLACK
6
CONTINUOUS
10
260.105
20
-21.9924
11
260.36
21
-22.1936
0
LINE
8
BLACK
6
CONTINUOUS
10
260.36
20
-22.1936
11
260.589
21
-22.424
0
LINE
8
BLACK
6
CONTINUOUS
10
260.589
20
-22.424
11
260.789
21
-22.6802
0
LINE
8
BLACK
6
CONTINUOUS
10
260.789
20
-22.6802
11
260.957
21
-22.9586
0
LINE
8
BLACK
6
CONTINUOUS
10
260.957
20
-22.9586
11
261.09
21
-23.2551
0
LINE
8
BLACK
6
CONTINUOUS
10
261.09
20
-23.2551
11
261.186
21
-23.5655
0
LINE
8
BLACK
6
CONTINUOUS
10
261.186
20
-23.5655
11
261.245
21
-23.8852
0
LINE
8
BLACK
6
CONTINUOUS
10
261.245
20
-23.8852
11
261.264
21
-24.2095
0
LINE
8
BLACK
6
CONTINUOUS
10
261.264
20
-24.2095
11
261.264
21
-24.2661
0
LINE
8
BLACK
6
CONTINUOUS
10
261.264
20
-24.2661
11
261.237
21
-24.59
0
LINE
8
BLACK
6
CONTINUOUS
10
261.237
20
-24.59
11
261.172
21
-24.9083
0
LINE
8
BLACK
6
CONTINUOUS
10
261.172
20
-24.9083
11
261.069
21
-25.2166
0
LINE
8
BLACK
6
CONTINUOUS
10
261.069
20
-25.2166
11
260.93
21
-25.5103
0
LINE
8
BLACK
6
CONTINUOUS
10
260.93
20
-25.5103
11
260.757
21
-25.7851
0
LINE
8
BLACK
6
CONTINUOUS
10
260.757
20
-25.7851
11
260.552
21
-26.0371
0
LINE
8
BLACK
6
CONTINUOUS
10
260.552
20
-26.0371
11
260.318
21
-26.2626
0
LINE
8
BLACK
6
CONTINUOUS
10
260.318
20
-26.2626
11
260.058
21
-26.4584
0
LINE
8
BLACK
6
CONTINUOUS
10
260.058
20
-26.4584
11
259.777
21
-26.6216
0
LINE
8
BLACK
6
CONTINUOUS
10
259.777
20
-26.6216
11
259.479
21
-26.7499
0
LINE
8
BLACK
6
CONTINUOUS
10
259.479
20
-26.7499
11
259.167
21
-26.8414
0
LINE
8
BLACK
6
CONTINUOUS
10
259.167
20
-26.8414
11
258.846
21
-26.8947
0
LINE
8
BLACK
6
CONTINUOUS
10
258.846
20
-26.8947
11
258.522
21
-26.9092
0
LINE
8
BLACK
6
CONTINUOUS
10
258.522
20
-26.9092
11
258.198
21
-26.8845
0
LINE
8
BLACK
6
CONTINUOUS
10
258.198
20
-26.8845
11
257.879
21
-26.8211
0
LINE
8
BLACK
6
CONTINUOUS
10
257.879
20
-26.8211
11
257.57
21
-26.7199
0
LINE
8
BLACK
6
CONTINUOUS
10
257.57
20
-26.7199
11
257.276
21
-26.5823
0
LINE
8
BLACK
6
CONTINUOUS
10
257.276
20
-26.5823
11
257
21
-26.4104
0
LINE
8
BLACK
6
CONTINUOUS
10
257
20
-26.4104
11
256.747
21
-26.2065
0
LINE
8
BLACK
6
CONTINUOUS
10
256.747
20
-26.2065
11
256.52
21
-25.9738
0
LINE
8
BLACK
6
CONTINUOUS
10
256.52
20
-25.9738
11
256.323
21
-25.7154
0
LINE
8
BLACK
6
CONTINUOUS
10
256.323
20
-25.7154
11
256.158
21
-25.4353
0
LINE
8
BLACK
6
CONTINUOUS
10
256.158
20
-25.4353
11
256.029
21
-25.1374
0
LINE
8
BLACK
6
CONTINUOUS
10
256.029
20
-25.1374
11
255.935
21
-24.8261
0
LINE
8
BLACK
6
CONTINUOUS
10
255.935
20
-24.8261
11
255.88
21
-24.5058
0
LINE
8
BLACK
6
CONTINUOUS
10
255.88
20
-24.5058
11
255.864
21
-24.1822
0
LINE
8
BLACK
6
CONTINUOUS
10
255.864
20
-24.1822
11
255.864
21
-24.1812
0
LINE
8
BLACK
6
CONTINUOUS
10
255.864
20
-24.1812
11
255.887
21
-23.8571
0
LINE
8
BLACK
6
CONTINUOUS
10
256.028
20
-24.8043
11
256.118
21
-25.1047
0
LINE
8
BLACK
6
CONTINUOUS
10
256.118
20
-25.1047
11
256.243
21
-25.3921
0
LINE
8
BLACK
6
CONTINUOUS
10
256.243
20
-25.3921
11
256.402
21
-25.6623
0
LINE
8
BLACK
6
CONTINUOUS
10
256.402
20
-25.6623
11
256.592
21
-25.9115
0
LINE
8
BLACK
6
CONTINUOUS
10
256.592
20
-25.9115
11
256.811
21
-26.1361
0
LINE
8
BLACK
6
CONTINUOUS
10
256.811
20
-26.1361
11
257.055
21
-26.3327
0
LINE
8
BLACK
6
CONTINUOUS
10
257.055
20
-26.3327
11
257.321
21
-26.4986
0
LINE
8
BLACK
6
CONTINUOUS
10
257.321
20
-26.4986
11
257.605
21
-26.6314
0
LINE
8
BLACK
6
CONTINUOUS
10
257.605
20
-26.6314
11
257.903
21
-26.729
0
LINE
8
BLACK
6
CONTINUOUS
10
257.903
20
-26.729
11
258.211
21
-26.7902
0
LINE
8
BLACK
6
CONTINUOUS
10
258.211
20
-26.7902
11
258.523
21
-26.814
0
LINE
8
BLACK
6
CONTINUOUS
10
258.523
20
-26.814
11
258.836
21
-26.8
0
LINE
8
BLACK
6
CONTINUOUS
10
258.836
20
-26.8
11
259.146
21
-26.7485
0
LINE
8
BLACK
6
CONTINUOUS
10
259.146
20
-26.7485
11
259.446
21
-26.6603
0
LINE
8
BLACK
6
CONTINUOUS
10
259.446
20
-26.6603
11
259.735
21
-26.5365
0
LINE
8
BLACK
6
CONTINUOUS
10
259.735
20
-26.5365
11
260.006
21
-26.3791
0
LINE
8
BLACK
6
CONTINUOUS
10
260.006
20
-26.3791
11
260.256
21
-26.1902
0
LINE
8
BLACK
6
CONTINUOUS
10
260.256
20
-26.1902
11
260.482
21
-25.9726
0
LINE
8
BLACK
6
CONTINUOUS
10
260.482
20
-25.9726
11
260.679
21
-25.7295
0
LINE
8
BLACK
6
CONTINUOUS
10
260.679
20
-25.7295
11
260.847
21
-25.4644
0
LINE
8
BLACK
6
CONTINUOUS
10
260.847
20
-25.4644
11
260.981
21
-25.1811
0
LINE
8
BLACK
6
CONTINUOUS
10
260.981
20
-25.1811
11
261.08
21
-24.8837
0
LINE
8
BLACK
6
CONTINUOUS
10
261.08
20
-24.8837
11
261.143
21
-24.5765
0
LINE
8
BLACK
6
CONTINUOUS
10
261.143
20
-24.5765
11
261.168
21
-24.2641
0
LINE
8
BLACK
6
CONTINUOUS
10
261.168
20
-24.2641
11
261.169
21
-24.2095
0
LINE
8
BLACK
6
CONTINUOUS
10
261.169
20
-24.2095
11
261.15
21
-23.8966
0
LINE
8
BLACK
6
CONTINUOUS
10
261.15
20
-23.8966
11
261.094
21
-23.5882
0
LINE
8
BLACK
6
CONTINUOUS
10
261.094
20
-23.5882
11
261.001
21
-23.2888
0
LINE
8
BLACK
6
CONTINUOUS
10
261.001
20
-23.2888
11
260.872
21
-23.0027
0
LINE
8
BLACK
6
CONTINUOUS
10
260.872
20
-23.0027
11
260.711
21
-22.7342
0
LINE
8
BLACK
6
CONTINUOUS
10
260.711
20
-22.7342
11
260.518
21
-22.487
0
LINE
8
BLACK
6
CONTINUOUS
10
260.518
20
-22.487
11
260.297
21
-22.2647
0
LINE
8
BLACK
6
CONTINUOUS
10
260.297
20
-22.2647
11
260.051
21
-22.0706
0
LINE
8
BLACK
6
CONTINUOUS
10
260.051
20
-22.0706
11
259.783
21
-21.9075
0
LINE
8
BLACK
6
CONTINUOUS
10
259.783
20
-21.9075
11
259.498
21
-21.7778
0
LINE
8
BLACK
6
CONTINUOUS
10
259.498
20
-21.7778
11
259.199
21
-21.6832
0
LINE
8
BLACK
6
CONTINUOUS
10
259.199
20
-21.6832
11
258.891
21
-21.6253
0
LINE
8
BLACK
6
CONTINUOUS
10
258.891
20
-21.6253
11
258.578
21
-21.6048
0
LINE
8
BLACK
6
CONTINUOUS
10
258.578
20
-21.6048
11
258.265
21
-21.622
0
LINE
8
BLACK
6
CONTINUOUS
10
258.265
20
-21.622
11
257.956
21
-21.6767
0
LINE
8
BLACK
6
CONTINUOUS
10
257.956
20
-21.6767
11
257.656
21
-21.7681
0
LINE
8
BLACK
6
CONTINUOUS
10
257.656
20
-21.7681
11
257.369
21
-21.8949
0
LINE
8
BLACK
6
CONTINUOUS
10
257.369
20
-21.8949
11
257.1
21
-22.0552
0
LINE
8
BLACK
6
CONTINUOUS
10
257.1
20
-22.0552
11
256.852
21
-22.2467
0
LINE
8
BLACK
6
CONTINUOUS
10
256.852
20
-22.2467
11
256.628
21
-22.4666
0
LINE
8
BLACK
6
CONTINUOUS
10
256.628
20
-22.4666
11
256.433
21
-22.7118
0
LINE
8
BLACK
6
CONTINUOUS
10
256.433
20
-22.7118
11
256.269
21
-22.9786
0
LINE
8
BLACK
6
CONTINUOUS
10
256.269
20
-22.9786
11
256.137
21
-23.2633
0
LINE
8
BLACK
6
CONTINUOUS
10
256.137
20
-23.2633
11
256.041
21
-23.5617
0
LINE
8
BLACK
6
CONTINUOUS
10
256.041
20
-23.5617
11
255.982
21
-23.8695
0
LINE
8
BLACK
6
CONTINUOUS
10
255.982
20
-23.8695
11
255.96
21
-24.1822
0
LINE
8
BLACK
6
CONTINUOUS
10
255.96
20
-24.1822
11
255.975
21
-24.4954
0
LINE
8
BLACK
6
CONTINUOUS
10
255.975
20
-24.4954
11
256.028
21
-24.8043
0
LINE
8
BLACK
6
CONTINUOUS
10
14.5721
20
-23.8502
11
14.6338
21
-23.5312
0
LINE
8
BLACK
6
CONTINUOUS
10
14.6338
20
-23.5312
11
14.7334
21
-23.2219
0
LINE
8
BLACK
6
CONTINUOUS
10
14.7334
20
-23.2219
11
14.8695
21
-22.9268
0
LINE
8
BLACK
6
CONTINUOUS
10
14.8695
20
-22.9268
11
15.04
21
-22.6501
0
LINE
8
BLACK
6
CONTINUOUS
10
15.04
20
-22.6501
11
15.2425
21
-22.396
0
LINE
8
BLACK
6
CONTINUOUS
10
15.2425
20
-22.396
11
15.4741
21
-22.168
0
LINE
8
BLACK
6
CONTINUOUS
10
15.4741
20
-22.168
11
15.7314
21
-21.9695
0
LINE
8
BLACK
6
CONTINUOUS
10
15.7314
20
-21.9695
11
16.0106
21
-21.8034
0
LINE
8
BLACK
6
CONTINUOUS
10
16.0106
20
-21.8034
11
16.3079
21
-21.672
0
LINE
8
BLACK
6
CONTINUOUS
10
16.3079
20
-21.672
11
16.6187
21
-21.5773
0
LINE
8
BLACK
6
CONTINUOUS
10
16.6187
20
-21.5773
11
16.9387
21
-21.5206
0
LINE
8
BLACK
6
CONTINUOUS
10
16.9387
20
-21.5206
11
17.2631
21
-21.5027
0
LINE
8
BLACK
6
CONTINUOUS
10
17.2631
20
-21.5027
11
17.5874
21
-21.5239
0
LINE
8
BLACK
6
CONTINUOUS
10
17.5874
20
-21.5239
11
17.9068
21
-21.584
0
LINE
8
BLACK
6
CONTINUOUS
10
17.9068
20
-21.584
11
18.2166
21
-21.682
0
LINE
8
BLACK
6
CONTINUOUS
10
18.2166
20
-21.682
11
18.5124
21
-21.8165
0
LINE
8
BLACK
6
CONTINUOUS
10
18.5124
20
-21.8165
11
18.7899
21
-21.9856
0
LINE
8
BLACK
6
CONTINUOUS
10
18.7899
20
-21.9856
11
19.0451
21
-22.1867
0
LINE
8
BLACK
6
CONTINUOUS
10
19.0451
20
-22.1867
11
19.2743
21
-22.4171
0
LINE
8
BLACK
6
CONTINUOUS
10
19.2743
20
-22.4171
11
19.4741
21
-22.6734
0
LINE
8
BLACK
6
CONTINUOUS
10
19.4741
20
-22.6734
11
19.6417
21
-22.9518
0
LINE
8
BLACK
6
CONTINUOUS
10
19.6417
20
-22.9518
11
19.7747
21
-23.2483
0
LINE
8
BLACK
6
CONTINUOUS
10
19.7747
20
-23.2483
11
19.8711
21
-23.5586
0
LINE
8
BLACK
6
CONTINUOUS
10
19.8711
20
-23.5586
11
19.9294
21
-23.8783
0
LINE
8
BLACK
6
CONTINUOUS
10
19.9294
20
-23.8783
11
19.949
21
-24.2027
0
LINE
8
BLACK
6
CONTINUOUS
10
19.949
20
-24.2027
11
19.9484
21
-24.2592
0
LINE
8
BLACK
6
CONTINUOUS
10
19.9484
20
-24.2592
11
19.9221
21
-24.5831
0
LINE
8
BLACK
6
CONTINUOUS
10
19.9221
20
-24.5831
11
19.857
21
-24.9015
0
LINE
8
BLACK
6
CONTINUOUS
10
19.857
20
-24.9015
11
19.7542
21
-25.2097
0
LINE
8
BLACK
6
CONTINUOUS
10
19.7542
20
-25.2097
11
19.615
21
-25.5034
0
LINE
8
BLACK
6
CONTINUOUS
10
19.615
20
-25.5034
11
19.4416
21
-25.7782
0
LINE
8
BLACK
6
CONTINUOUS
10
19.4416
20
-25.7782
11
19.2365
21
-26.0302
0
LINE
8
BLACK
6
CONTINUOUS
10
19.2365
20
-26.0302
11
19.0025
21
-26.2558
0
LINE
8
BLACK
6
CONTINUOUS
10
19.0025
20
-26.2558
11
18.7432
21
-26.4515
0
LINE
8
BLACK
6
CONTINUOUS
10
18.7432
20
-26.4515
11
18.4622
21
-26.6148
0
LINE
8
BLACK
6
CONTINUOUS
10
18.4622
20
-26.6148
11
18.1636
21
-26.743
0
LINE
8
BLACK
6
CONTINUOUS
10
18.1636
20
-26.743
11
17.8518
21
-26.8345
0
LINE
8
BLACK
6
CONTINUOUS
10
17.8518
20
-26.8345
11
17.5312
21
-26.8879
0
LINE
8
BLACK
6
CONTINUOUS
10
17.5312
20
-26.8879
11
17.2066
21
-26.9023
0
LINE
8
BLACK
6
CONTINUOUS
10
17.2066
20
-26.9023
11
16.8826
21
-26.8777
0
LINE
8
BLACK
6
CONTINUOUS
10
16.8826
20
-26.8777
11
16.5639
21
-26.8143
0
LINE
8
BLACK
6
CONTINUOUS
10
16.5639
20
-26.8143
11
16.2551
21
-26.7131
0
LINE
8
BLACK
6
CONTINUOUS
10
16.2551
20
-26.7131
11
15.9607
21
-26.5755
0
LINE
8
BLACK
6
CONTINUOUS
10
15.9607
20
-26.5755
11
15.6849
21
-26.4035
0
LINE
8
BLACK
6
CONTINUOUS
10
15.6849
20
-26.4035
11
15.4319
21
-26.1997
0
LINE
8
BLACK
6
CONTINUOUS
10
15.4319
20
-26.1997
11
15.2051
21
-25.9669
0
LINE
8
BLACK
6
CONTINUOUS
10
15.2051
20
-25.9669
11
15.008
21
-25.7086
0
LINE
8
BLACK
6
CONTINUOUS
10
15.008
20
-25.7086
11
14.8433
21
-25.4284
0
LINE
8
BLACK
6
CONTINUOUS
10
14.8433
20
-25.4284
11
14.7134
21
-25.1305
0
LINE
8
BLACK
6
CONTINUOUS
10
14.7134
20
-25.1305
11
14.6203
21
-24.8192
0
LINE
8
BLACK
6
CONTINUOUS
10
14.6203
20
-24.8192
11
14.5653
21
-24.4989
0
LINE
8
BLACK
6
CONTINUOUS
10
14.5653
20
-24.4989
11
14.5492
21
-24.1754
0
LINE
8
BLACK
6
CONTINUOUS
10
14.5492
20
-24.1754
11
14.5491
21
-24.1744
0
LINE
8
BLACK
6
CONTINUOUS
10
14.5491
20
-24.1744
11
14.5721
21
-23.8502
0
LINE
8
BLACK
6
CONTINUOUS
10
14.7131
20
-24.7975
11
14.8029
21
-25.0978
0
LINE
8
BLACK
6
CONTINUOUS
10
14.8029
20
-25.0978
11
14.9281
21
-25.3852
0
LINE
8
BLACK
6
CONTINUOUS
10
14.9281
20
-25.3852
11
15.087
21
-25.6554
0
LINE
8
BLACK
6
CONTINUOUS
10
15.087
20
-25.6554
11
15.2772
21
-25.9047
0
LINE
8
BLACK
6
CONTINUOUS
10
15.2772
20
-25.9047
11
15.496
21
-26.1292
0
LINE
8
BLACK
6
CONTINUOUS
10
15.496
20
-26.1292
11
15.7401
21
-26.3259
0
LINE
8
BLACK
6
CONTINUOUS
10
15.7401
20
-26.3259
11
16.0061
21
-26.4918
0
LINE
8
BLACK
6
CONTINUOUS
10
16.0061
20
-26.4918
11
16.2901
21
-26.6245
0
LINE
8
BLACK
6
CONTINUOUS
10
16.2901
20
-26.6245
11
16.588
21
-26.7222
0
LINE
8
BLACK
6
CONTINUOUS
10
16.588
20
-26.7222
11
16.8955
21
-26.7833
0
LINE
8
BLACK
6
CONTINUOUS
10
16.8955
20
-26.7833
11
17.2081
21
-26.8071
0
LINE
8
BLACK
6
CONTINUOUS
10
17.2081
20
-26.8071
11
17.5213
21
-26.7931
0
LINE
8
BLACK
6
CONTINUOUS
10
17.5213
20
-26.7931
11
17.8305
21
-26.7417
0
LINE
8
BLACK
6
CONTINUOUS
10
17.8305
20
-26.7417
11
18.1313
21
-26.6534
0
LINE
8
BLACK
6
CONTINUOUS
10
18.1313
20
-26.6534
11
18.4194
21
-26.5297
0
LINE
8
BLACK
6
CONTINUOUS
10
18.4194
20
-26.5297
11
18.6904
21
-26.3722
0
LINE
8
BLACK
6
CONTINUOUS
10
18.6904
20
-26.3722
11
18.9407
21
-26.1833
0
LINE
8
BLACK
6
CONTINUOUS
10
18.9407
20
-26.1833
11
19.1663
21
-25.9658
0
LINE
8
BLACK
6
CONTINUOUS
10
19.1663
20
-25.9658
11
19.3643
21
-25.7226
0
LINE
8
BLACK
6
CONTINUOUS
10
19.3643
20
-25.7226
11
19.5316
21
-25.4575
0
LINE
8
BLACK
6
CONTINUOUS
10
19.5316
20
-25.4575
11
19.6658
21
-25.1742
0
LINE
8
BLACK
6
CONTINUOUS
10
19.6658
20
-25.1742
11
19.765
21
-24.8768
0
LINE
8
BLACK
6
CONTINUOUS
10
19.765
20
-24.8768
11
19.8278
21
-24.5697
0
LINE
8
BLACK
6
CONTINUOUS
10
19.8278
20
-24.5697
11
19.8532
21
-24.2572
0
LINE
8
BLACK
6
CONTINUOUS
10
19.8532
20
-24.2572
11
19.8538
21
-24.2027
0
LINE
8
BLACK
6
CONTINUOUS
10
19.8538
20
-24.2027
11
19.8349
21
-23.8897
0
LINE
8
BLACK
6
CONTINUOUS
10
19.8349
20
-23.8897
11
19.7786
21
-23.5813
0
LINE
8
BLACK
6
CONTINUOUS
10
19.7786
20
-23.5813
11
19.6856
21
-23.2819
0
LINE
8
BLACK
6
CONTINUOUS
10
19.6856
20
-23.2819
11
19.5573
21
-22.9959
0
LINE
8
BLACK
6
CONTINUOUS
10
19.5573
20
-22.9959
11
19.3956
21
-22.7273
0
LINE
8
BLACK
6
CONTINUOUS
10
19.3956
20
-22.7273
11
19.2029
21
-22.4801
0
LINE
8
BLACK
6
CONTINUOUS
10
19.2029
20
-22.4801
11
18.9818
21
-22.2579
0
LINE
8
BLACK
6
CONTINUOUS
10
18.9818
20
-22.2579
11
18.7356
21
-22.0638
0
LINE
8
BLACK
6
CONTINUOUS
10
18.7356
20
-22.0638
11
18.4678
21
-21.9007
0
LINE
8
BLACK
6
CONTINUOUS
10
18.4678
20
-21.9007
11
18.1825
21
-21.7709
0
LINE
8
BLACK
6
CONTINUOUS
10
18.1825
20
-21.7709
11
17.8836
21
-21.6764
0
LINE
8
BLACK
6
CONTINUOUS
10
17.8836
20
-21.6764
11
17.5755
21
-21.6184
0
LINE
8
BLACK
6
CONTINUOUS
10
17.5755
20
-21.6184
11
17.2626
21
-21.5979
0
LINE
8
BLACK
6
CONTINUOUS
10
17.2626
20
-21.5979
11
16.9496
21
-21.6152
0
LINE
8
BLACK
6
CONTINUOUS
10
16.9496
20
-21.6152
11
16.6409
21
-21.6699
0
LINE
8
BLACK
6
CONTINUOUS
10
16.6409
20
-21.6699
11
16.3411
21
-21.7613
0
LINE
8
BLACK
6
CONTINUOUS
10
16.3411
20
-21.7613
11
16.0543
21
-21.888
0
LINE
8
BLACK
6
CONTINUOUS
10
16.0543
20
-21.888
11
15.7849
21
-22.0483
0
LINE
8
BLACK
6
CONTINUOUS
10
15.7849
20
-22.0483
11
15.5367
21
-22.2398
0
LINE
8
BLACK
6
CONTINUOUS
10
15.5367
20
-22.2398
11
15.3133
21
-22.4597
0
LINE
8
BLACK
6
CONTINUOUS
10
15.3133
20
-22.4597
11
15.1179
21
-22.7049
0
LINE
8
BLACK
6
CONTINUOUS
10
15.1179
20
-22.7049
11
14.9534
21
-22.9718
0
LINE
8
BLACK
6
CONTINUOUS
10
14.9534
20
-22.9718
11
14.8222
21
-23.2565
0
LINE
8
BLACK
6
CONTINUOUS
10
14.8222
20
-23.2565
11
14.7261
21
-23.5549
0
LINE
8
BLACK
6
CONTINUOUS
10
14.7261
20
-23.5549
11
14.6665
21
-23.8627
0
LINE
8
BLACK
6
CONTINUOUS
10
14.6665
20
-23.8627
11
14.6444
21
-24.1754
0
LINE
8
BLACK
6
CONTINUOUS
10
14.6444
20
-24.1754
11
14.66
21
-24.4885
0
LINE
8
BLACK
6
CONTINUOUS
10
14.66
20
-24.4885
11
14.7131
21
-24.7975
  0
ENDSEC
  0
EOF
