  0
SECTION
  2
HEADER
  9
$ANGBASE
  50
0.0
  9
$ANGDIR
  70
1
  9
$MEASUREMENT
  70
1
  0
ENDSEC
  0
SECTION
  2
TABLES
  0
TABLE
  2
LTYPE
  70
4
  0
LTYPE
  5
40F
  2
CONTINUOUS
  70
0
  3
Solid line
  72
65
  73
0
  40
0.0
  0
LTYPE
  5
410
  2
DASHDOT
 70
0
  3
Dash Dot ____ _ ____ _
 72
65
 73
4
 40
2.0
 49
1.25
 49
-0.25
 49
0.25
 49
-0.25
  0
LTYPE
  5
411
  2
DASHED
 70
0
  3
Dashed __ __ __ __ __
 72
65
 73
2
 40
0.75
 49
0.5
 49
-0.25
  0
LTYPE
  5
43B
  2
DOTTED
 70
0
  3
Dotted .  .  .  .
 72
65
 73
2
 40
0.2
 49
0.0
 49
-0.2
  0
ENDTAB
  0
TABLE
  2
STYLE
  70
4
  0
STYLE
  2
KICAD
  70
0
  40
0
  41
1
  42
1
  50
0
  71
0
  3
isocp.shx
  0
STYLE
  2
KICADB
  70
0
  40
0
  41
1
  42
1
  50
0
  71
0
  3
isocp.shx
  0
STYLE
  2
KICADI
  70
0
  40
0
  41
1
  42
1
  50
15
  71
0
  3
isocp.shx
  0
STYLE
  2
KICADBI
  70
0
  40
0
  41
1
  42
1
  50
15
  71
0
  3
isocp.shx
  0
ENDTAB
  0
TABLE
  2
LAYER
  70
1
  0
LAYER
  2
BLACK
  70
0
  62
7
  6
CONTINUOUS
  0
ENDTAB
  0
ENDSEC
  0
SECTION
  2
ENTITIES
0
LINE
8
BLACK
6
CONTINUOUS
10
28.282
20
-95.2824
11
27.9932
21
-95.2294
0
LINE
8
BLACK
6
CONTINUOUS
10
27.9932
20
-95.2294
11
27.7129
21
-95.1421
0
LINE
8
BLACK
6
CONTINUOUS
10
27.7129
20
-95.1421
11
27.4452
21
-95.0216
0
LINE
8
BLACK
6
CONTINUOUS
10
27.4452
20
-95.0216
11
27.1939
21
-94.8697
0
LINE
8
BLACK
6
CONTINUOUS
10
27.1939
20
-94.8697
11
26.9628
21
-94.6887
0
LINE
8
BLACK
6
CONTINUOUS
10
26.9628
20
-94.6887
11
26.7552
21
-94.4811
0
LINE
8
BLACK
6
CONTINUOUS
10
26.7552
20
-94.4811
11
26.5741
21
-94.2499
0
LINE
8
BLACK
6
CONTINUOUS
10
26.5741
20
-94.2499
11
26.4222
21
-93.9987
0
LINE
8
BLACK
6
CONTINUOUS
10
26.4222
20
-93.9987
11
26.3017
21
-93.731
0
LINE
8
BLACK
6
CONTINUOUS
10
26.3017
20
-93.731
11
26.2144
21
-93.4507
0
LINE
8
BLACK
6
CONTINUOUS
10
26.2144
20
-93.4507
11
26.1614
21
-93.1619
0
LINE
8
BLACK
6
CONTINUOUS
10
26.1614
20
-93.1619
11
26.1437
21
-92.8688
0
LINE
8
BLACK
6
CONTINUOUS
10
26.1437
20
-92.8688
11
26.1438
21
-92.8688
0
LINE
8
BLACK
6
CONTINUOUS
10
26.1438
20
-92.8688
11
26.1438
21
-76.2501
0
LINE
8
BLACK
6
CONTINUOUS
10
26.1438
20
-76.2501
11
19.05
21
-76.2501
0
LINE
8
BLACK
6
CONTINUOUS
10
19.05
20
-76.2501
11
18.757
21
-76.2323
0
LINE
8
BLACK
6
CONTINUOUS
10
18.757
20
-76.2323
11
18.4682
21
-76.1794
0
LINE
8
BLACK
6
CONTINUOUS
10
18.4682
20
-76.1794
11
18.1879
21
-76.0921
0
LINE
8
BLACK
6
CONTINUOUS
10
18.1879
20
-76.0921
11
17.9201
21
-75.9716
0
LINE
8
BLACK
6
CONTINUOUS
10
17.9201
20
-75.9716
11
17.6689
21
-75.8197
0
LINE
8
BLACK
6
CONTINUOUS
10
17.6689
20
-75.8197
11
17.4378
21
-75.6386
0
LINE
8
BLACK
6
CONTINUOUS
10
17.4378
20
-75.6386
11
17.2302
21
-75.431
0
LINE
8
BLACK
6
CONTINUOUS
10
17.2302
20
-75.431
11
17.0491
21
-75.1999
0
LINE
8
BLACK
6
CONTINUOUS
10
17.0491
20
-75.1999
11
16.8972
21
-74.9487
0
LINE
8
BLACK
6
CONTINUOUS
10
16.8972
20
-74.9487
11
16.7767
21
-74.6809
0
LINE
8
BLACK
6
CONTINUOUS
10
16.7767
20
-74.6809
11
16.6894
21
-74.4007
0
LINE
8
BLACK
6
CONTINUOUS
10
16.6894
20
-74.4007
11
16.6365
21
-74.1119
0
LINE
8
BLACK
6
CONTINUOUS
10
16.6365
20
-74.1119
11
16.6187
21
-73.8188
0
LINE
8
BLACK
6
CONTINUOUS
10
16.6187
20
-73.8188
11
16.6188
21
-73.8188
0
LINE
8
BLACK
6
CONTINUOUS
10
16.6188
20
-73.8188
11
16.6188
21
-59.5313
0
LINE
8
BLACK
6
CONTINUOUS
10
16.6188
20
-59.5313
11
16.6365
21
-59.2382
0
LINE
8
BLACK
6
CONTINUOUS
10
16.6365
20
-59.2382
11
16.6894
21
-58.9495
0
LINE
8
BLACK
6
CONTINUOUS
10
16.6894
20
-58.9495
11
16.7768
21
-58.6692
0
LINE
8
BLACK
6
CONTINUOUS
10
16.7768
20
-58.6692
11
16.8973
21
-58.4014
0
LINE
8
BLACK
6
CONTINUOUS
10
16.8973
20
-58.4014
11
17.0491
21
-58.1502
0
LINE
8
BLACK
6
CONTINUOUS
10
17.0491
20
-58.1502
11
17.2302
21
-57.9191
0
LINE
8
BLACK
6
CONTINUOUS
10
17.2302
20
-57.9191
11
17.4378
21
-57.7115
0
LINE
8
BLACK
6
CONTINUOUS
10
17.4378
20
-57.7115
11
17.6689
21
-57.5304
0
LINE
8
BLACK
6
CONTINUOUS
10
17.6689
20
-57.5304
11
17.9202
21
-57.3785
0
LINE
8
BLACK
6
CONTINUOUS
10
17.9202
20
-57.3785
11
18.1879
21
-57.2581
0
LINE
8
BLACK
6
CONTINUOUS
10
18.1879
20
-57.2581
11
18.4682
21
-57.1707
0
LINE
8
BLACK
6
CONTINUOUS
10
18.4682
20
-57.1707
11
18.757
21
-57.1178
0
LINE
8
BLACK
6
CONTINUOUS
10
18.757
20
-57.1178
11
19.05
21
-57.1001
0
LINE
8
BLACK
6
CONTINUOUS
10
19.05
20
-57.1001
11
19.05
21
-57.1
0
LINE
8
BLACK
6
CONTINUOUS
10
19.05
20
-57.1
11
21.3813
21
-57.1
0
LINE
8
BLACK
6
CONTINUOUS
10
21.3813
20
-57.1
11
21.3813
21
-39.886
0
LINE
8
BLACK
6
CONTINUOUS
10
21.3813
20
-39.886
11
21.399
21
-39.5929
0
LINE
8
BLACK
6
CONTINUOUS
10
21.399
20
-39.5929
11
21.4519
21
-39.3041
0
LINE
8
BLACK
6
CONTINUOUS
10
21.4519
20
-39.3041
11
21.5393
21
-39.0238
0
LINE
8
BLACK
6
CONTINUOUS
10
21.5393
20
-39.0238
11
21.6598
21
-38.7561
0
LINE
8
BLACK
6
CONTINUOUS
10
21.6598
20
-38.7561
11
21.8116
21
-38.5049
0
LINE
8
BLACK
6
CONTINUOUS
10
21.8116
20
-38.5049
11
21.9927
21
-38.2738
0
LINE
8
BLACK
6
CONTINUOUS
10
21.9927
20
-38.2738
11
22.2003
21
-38.0662
0
LINE
8
BLACK
6
CONTINUOUS
10
22.2003
20
-38.0662
11
22.4314
21
-37.8851
0
LINE
8
BLACK
6
CONTINUOUS
10
22.4314
20
-37.8851
11
22.6827
21
-37.7332
0
LINE
8
BLACK
6
CONTINUOUS
10
22.6827
20
-37.7332
11
22.9504
21
-37.6127
0
LINE
8
BLACK
6
CONTINUOUS
10
22.9504
20
-37.6127
11
23.2307
21
-37.5254
0
LINE
8
BLACK
6
CONTINUOUS
10
23.2307
20
-37.5254
11
23.5195
21
-37.4724
0
LINE
8
BLACK
6
CONTINUOUS
10
23.5195
20
-37.4724
11
23.7625
21
-37.4577
0
LINE
8
BLACK
6
CONTINUOUS
10
23.7625
20
-37.4577
11
23.7625
21
-36.9094
0
LINE
8
BLACK
6
CONTINUOUS
10
23.7625
20
-36.9094
11
23.7625
21
-20.2406
0
LINE
8
BLACK
6
CONTINUOUS
10
23.7625
20
-20.2406
11
23.7625
21
-20.2406
0
LINE
8
BLACK
6
CONTINUOUS
10
23.7625
20
-20.2406
11
23.7802
21
-19.9476
0
LINE
8
BLACK
6
CONTINUOUS
10
23.7802
20
-19.9476
11
23.8332
21
-19.6588
0
LINE
8
BLACK
6
CONTINUOUS
10
23.8332
20
-19.6588
11
23.9205
21
-19.3785
0
LINE
8
BLACK
6
CONTINUOUS
10
23.9205
20
-19.3785
11
24.041
21
-19.1108
0
LINE
8
BLACK
6
CONTINUOUS
10
24.041
20
-19.1108
11
24.1929
21
-18.8595
0
LINE
8
BLACK
6
CONTINUOUS
10
24.1929
20
-18.8595
11
24.374
21
-18.6284
0
LINE
8
BLACK
6
CONTINUOUS
10
24.374
20
-18.6284
11
24.5816
21
-18.4208
0
LINE
8
BLACK
6
CONTINUOUS
10
24.5816
20
-18.4208
11
24.8127
21
-18.2398
0
LINE
8
BLACK
6
CONTINUOUS
10
24.8127
20
-18.2398
11
25.0639
21
-18.0879
0
LINE
8
BLACK
6
CONTINUOUS
10
25.0639
20
-18.0879
11
25.3316
21
-17.9674
0
LINE
8
BLACK
6
CONTINUOUS
10
25.3316
20
-17.9674
11
25.6119
21
-17.88
0
LINE
8
BLACK
6
CONTINUOUS
10
25.6119
20
-17.88
11
25.9007
21
-17.8271
0
LINE
8
BLACK
6
CONTINUOUS
10
25.9007
20
-17.8271
11
26.1938
21
-17.8094
0
LINE
8
BLACK
6
CONTINUOUS
10
26.1938
20
-17.8094
11
44.0532
21
-17.8094
0
LINE
8
BLACK
6
CONTINUOUS
10
44.0532
20
-17.8094
11
44.0547
21
-17.81
0
LINE
8
BLACK
6
CONTINUOUS
10
44.0547
20
-17.81
11
44.0563
21
-17.8095
0
LINE
8
BLACK
6
CONTINUOUS
10
44.0563
20
-17.8095
11
63.1063
21
-19.0001
0
LINE
8
BLACK
6
CONTINUOUS
10
63.1063
20
-19.0001
11
63.1075
21
-19.0007
0
LINE
8
BLACK
6
CONTINUOUS
10
63.1075
20
-19.0007
11
63.1087
21
-19.0003
0
LINE
8
BLACK
6
CONTINUOUS
10
63.1087
20
-19.0003
11
84.54
21
-21.3816
0
LINE
8
BLACK
6
CONTINUOUS
10
84.54
20
-21.3816
11
84.5408
21
-21.382
0
LINE
8
BLACK
6
CONTINUOUS
10
84.5408
20
-21.382
11
84.5417
21
-21.3818
0
LINE
8
BLACK
6
CONTINUOUS
10
84.5417
20
-21.3818
11
104.782
21
-24.3584
0
LINE
8
BLACK
6
CONTINUOUS
10
104.782
20
-24.3584
11
104.784
21
-24.3595
0
LINE
8
BLACK
6
CONTINUOUS
10
104.784
20
-24.3595
11
104.786
21
-24.3591
0
LINE
8
BLACK
6
CONTINUOUS
10
104.786
20
-24.3591
11
122.64
21
-28.525
0
LINE
8
BLACK
6
CONTINUOUS
10
122.64
20
-28.525
11
146.442
21
-28.525
0
LINE
8
BLACK
6
CONTINUOUS
10
146.442
20
-28.525
11
164.297
21
-24.9541
0
LINE
8
BLACK
6
CONTINUOUS
10
164.297
20
-24.9541
11
164.297
21
-24.9542
0
LINE
8
BLACK
6
CONTINUOUS
10
164.297
20
-24.9542
11
164.298
21
-24.9539
0
LINE
8
BLACK
6
CONTINUOUS
10
164.298
20
-24.9539
11
184.538
21
-21.382
0
LINE
8
BLACK
6
CONTINUOUS
10
184.538
20
-21.382
11
184.54
21
-21.3824
0
LINE
8
BLACK
6
CONTINUOUS
10
184.54
20
-21.3824
11
184.541
21
-21.3816
0
LINE
8
BLACK
6
CONTINUOUS
10
184.541
20
-21.3816
11
204.782
21
-19.0004
0
LINE
8
BLACK
6
CONTINUOUS
10
204.782
20
-19.0004
11
204.783
21
-19.0008
0
LINE
8
BLACK
6
CONTINUOUS
10
204.783
20
-19.0008
11
204.785
21
-19.0001
0
LINE
8
BLACK
6
CONTINUOUS
10
204.785
20
-19.0001
11
225.025
21
-17.8095
0
LINE
8
BLACK
6
CONTINUOUS
10
225.025
20
-17.8095
11
225.027
21
-17.81
0
LINE
8
BLACK
6
CONTINUOUS
10
225.027
20
-17.81
11
225.028
21
-17.8094
0
LINE
8
BLACK
6
CONTINUOUS
10
225.028
20
-17.8094
11
247.65
21
-17.8094
0
LINE
8
BLACK
6
CONTINUOUS
10
247.65
20
-17.8094
11
247.943
21
-17.8271
0
LINE
8
BLACK
6
CONTINUOUS
10
247.943
20
-17.8271
11
248.232
21
-17.88
0
LINE
8
BLACK
6
CONTINUOUS
10
248.232
20
-17.88
11
248.512
21
-17.9674
0
LINE
8
BLACK
6
CONTINUOUS
10
248.512
20
-17.9674
11
248.78
21
-18.0879
0
LINE
8
BLACK
6
CONTINUOUS
10
248.78
20
-18.0879
11
249.031
21
-18.2398
0
LINE
8
BLACK
6
CONTINUOUS
10
249.031
20
-18.2398
11
249.262
21
-18.4208
0
LINE
8
BLACK
6
CONTINUOUS
10
249.262
20
-18.4208
11
249.47
21
-18.6284
0
LINE
8
BLACK
6
CONTINUOUS
10
249.47
20
-18.6284
11
249.651
21
-18.8595
0
LINE
8
BLACK
6
CONTINUOUS
10
249.651
20
-18.8595
11
249.803
21
-19.1108
0
LINE
8
BLACK
6
CONTINUOUS
10
249.803
20
-19.1108
11
249.923
21
-19.3785
0
LINE
8
BLACK
6
CONTINUOUS
10
249.923
20
-19.3785
11
250.011
21
-19.6588
0
LINE
8
BLACK
6
CONTINUOUS
10
250.011
20
-19.6588
11
250.064
21
-19.9476
0
LINE
8
BLACK
6
CONTINUOUS
10
250.064
20
-19.9476
11
250.081
21
-20.2405
0
LINE
8
BLACK
6
CONTINUOUS
10
250.081
20
-20.2405
11
250.081
21
-20.2406
0
LINE
8
BLACK
6
CONTINUOUS
10
250.081
20
-20.2406
11
250.081
21
-36.8624
0
LINE
8
BLACK
6
CONTINUOUS
10
250.081
20
-36.8624
11
250.325
21
-36.8771
0
LINE
8
BLACK
6
CONTINUOUS
10
250.325
20
-36.8771
11
250.613
21
-36.93
0
LINE
8
BLACK
6
CONTINUOUS
10
250.613
20
-36.93
11
250.894
21
-37.0174
0
LINE
8
BLACK
6
CONTINUOUS
10
250.894
20
-37.0174
11
251.161
21
-37.1379
0
LINE
8
BLACK
6
CONTINUOUS
10
251.161
20
-37.1379
11
251.413
21
-37.2898
0
LINE
8
BLACK
6
CONTINUOUS
10
251.413
20
-37.2898
11
251.644
21
-37.4708
0
LINE
8
BLACK
6
CONTINUOUS
10
251.644
20
-37.4708
11
251.851
21
-37.6784
0
LINE
8
BLACK
6
CONTINUOUS
10
251.851
20
-37.6784
11
252.032
21
-37.9095
0
LINE
8
BLACK
6
CONTINUOUS
10
252.032
20
-37.9095
11
252.184
21
-38.1608
0
LINE
8
BLACK
6
CONTINUOUS
10
252.184
20
-38.1608
11
252.305
21
-38.4285
0
LINE
8
BLACK
6
CONTINUOUS
10
252.305
20
-38.4285
11
252.392
21
-38.7088
0
LINE
8
BLACK
6
CONTINUOUS
10
252.392
20
-38.7088
11
252.445
21
-38.9976
0
LINE
8
BLACK
6
CONTINUOUS
10
252.445
20
-38.9976
11
252.463
21
-39.2907
0
LINE
8
BLACK
6
CONTINUOUS
10
252.463
20
-39.2907
11
252.463
21
-39.2907
0
LINE
8
BLACK
6
CONTINUOUS
10
252.463
20
-39.2907
11
252.463
21
-39.2907
0
LINE
8
BLACK
6
CONTINUOUS
10
252.463
20
-39.2907
11
252.463
21
-55.9594
0
LINE
8
BLACK
6
CONTINUOUS
10
252.463
20
-55.9594
11
252.463
21
-56.5047
0
LINE
8
BLACK
6
CONTINUOUS
10
252.463
20
-56.5047
11
254.794
21
-56.5047
0
LINE
8
BLACK
6
CONTINUOUS
10
254.794
20
-56.5047
11
255.087
21
-56.5225
0
LINE
8
BLACK
6
CONTINUOUS
10
255.087
20
-56.5225
11
255.376
21
-56.5754
0
LINE
8
BLACK
6
CONTINUOUS
10
255.376
20
-56.5754
11
255.656
21
-56.6627
0
LINE
8
BLACK
6
CONTINUOUS
10
255.656
20
-56.6627
11
255.924
21
-56.7832
0
LINE
8
BLACK
6
CONTINUOUS
10
255.924
20
-56.7832
11
256.175
21
-56.9351
0
LINE
8
BLACK
6
CONTINUOUS
10
256.175
20
-56.9351
11
256.406
21
-57.1162
0
LINE
8
BLACK
6
CONTINUOUS
10
256.406
20
-57.1162
11
256.614
21
-57.3238
0
LINE
8
BLACK
6
CONTINUOUS
10
256.614
20
-57.3238
11
256.795
21
-57.5549
0
LINE
8
BLACK
6
CONTINUOUS
10
256.795
20
-57.5549
11
256.947
21
-57.8061
0
LINE
8
BLACK
6
CONTINUOUS
10
256.947
20
-57.8061
11
257.067
21
-58.0738
0
LINE
8
BLACK
6
CONTINUOUS
10
257.067
20
-58.0738
11
257.155
21
-58.3541
0
LINE
8
BLACK
6
CONTINUOUS
10
257.155
20
-58.3541
11
257.208
21
-58.6429
0
LINE
8
BLACK
6
CONTINUOUS
10
257.208
20
-58.6429
11
257.225
21
-58.936
0
LINE
8
BLACK
6
CONTINUOUS
10
257.225
20
-58.936
11
257.225
21
-58.936
0
LINE
8
BLACK
6
CONTINUOUS
10
257.225
20
-58.936
11
257.225
21
-73.2235
0
LINE
8
BLACK
6
CONTINUOUS
10
257.225
20
-73.2235
11
257.207
21
-73.5166
0
LINE
8
BLACK
6
CONTINUOUS
10
257.207
20
-73.5166
11
257.155
21
-73.8053
0
LINE
8
BLACK
6
CONTINUOUS
10
257.155
20
-73.8053
11
257.067
21
-74.0856
0
LINE
8
BLACK
6
CONTINUOUS
10
257.067
20
-74.0856
11
256.947
21
-74.3534
0
LINE
8
BLACK
6
CONTINUOUS
10
256.947
20
-74.3534
11
256.795
21
-74.6046
0
LINE
8
BLACK
6
CONTINUOUS
10
256.795
20
-74.6046
11
256.614
21
-74.8357
0
LINE
8
BLACK
6
CONTINUOUS
10
256.614
20
-74.8357
11
256.406
21
-75.0433
0
LINE
8
BLACK
6
CONTINUOUS
10
256.406
20
-75.0433
11
256.175
21
-75.2244
0
LINE
8
BLACK
6
CONTINUOUS
10
256.175
20
-75.2244
11
255.924
21
-75.3762
0
LINE
8
BLACK
6
CONTINUOUS
10
255.924
20
-75.3762
11
255.656
21
-75.4967
0
LINE
8
BLACK
6
CONTINUOUS
10
255.656
20
-75.4967
11
255.376
21
-75.5841
0
LINE
8
BLACK
6
CONTINUOUS
10
255.376
20
-75.5841
11
255.087
21
-75.637
0
LINE
8
BLACK
6
CONTINUOUS
10
255.087
20
-75.637
11
254.794
21
-75.6547
0
LINE
8
BLACK
6
CONTINUOUS
10
254.794
20
-75.6547
11
254.794
21
-75.6547
0
LINE
8
BLACK
6
CONTINUOUS
10
254.794
20
-75.6547
11
252.463
21
-75.6548
0
LINE
8
BLACK
6
CONTINUOUS
10
252.463
20
-75.6548
11
252.463
21
-92.2735
0
LINE
8
BLACK
6
CONTINUOUS
10
252.463
20
-92.2735
11
252.445
21
-92.5666
0
LINE
8
BLACK
6
CONTINUOUS
10
252.445
20
-92.5666
11
252.392
21
-92.8553
0
LINE
8
BLACK
6
CONTINUOUS
10
252.392
20
-92.8553
11
252.305
21
-93.1356
0
LINE
8
BLACK
6
CONTINUOUS
10
252.305
20
-93.1356
11
252.184
21
-93.4034
0
LINE
8
BLACK
6
CONTINUOUS
10
252.184
20
-93.4034
11
252.032
21
-93.6546
0
LINE
8
BLACK
6
CONTINUOUS
10
252.032
20
-93.6546
11
251.851
21
-93.8857
0
LINE
8
BLACK
6
CONTINUOUS
10
251.851
20
-93.8857
11
251.644
21
-94.0933
0
LINE
8
BLACK
6
CONTINUOUS
10
251.644
20
-94.0933
11
251.413
21
-94.2744
0
LINE
8
BLACK
6
CONTINUOUS
10
251.413
20
-94.2744
11
251.161
21
-94.4262
0
LINE
8
BLACK
6
CONTINUOUS
10
251.161
20
-94.4262
11
250.894
21
-94.5467
0
LINE
8
BLACK
6
CONTINUOUS
10
250.894
20
-94.5467
11
250.613
21
-94.6341
0
LINE
8
BLACK
6
CONTINUOUS
10
250.613
20
-94.6341
11
250.325
21
-94.687
0
LINE
8
BLACK
6
CONTINUOUS
10
250.325
20
-94.687
11
250.032
21
-94.7047
0
LINE
8
BLACK
6
CONTINUOUS
10
250.032
20
-94.7047
11
250.031
21
-94.7048
0
LINE
8
BLACK
6
CONTINUOUS
10
250.031
20
-94.7048
11
228.646
21
-94.7048
0
LINE
8
BLACK
6
CONTINUOUS
10
228.646
20
-94.7048
11
228.635
21
-94.8488
0
LINE
8
BLACK
6
CONTINUOUS
10
228.635
20
-94.8488
11
228.589
21
-95.0381
0
LINE
8
BLACK
6
CONTINUOUS
10
228.589
20
-95.0381
11
228.515
21
-95.218
0
LINE
8
BLACK
6
CONTINUOUS
10
228.515
20
-95.218
11
228.413
21
-95.384
0
LINE
8
BLACK
6
CONTINUOUS
10
228.413
20
-95.384
11
228.287
21
-95.532
0
LINE
8
BLACK
6
CONTINUOUS
10
228.287
20
-95.532
11
228.139
21
-95.6585
0
LINE
8
BLACK
6
CONTINUOUS
10
228.139
20
-95.6585
11
227.973
21
-95.7602
0
LINE
8
BLACK
6
CONTINUOUS
10
227.973
20
-95.7602
11
227.793
21
-95.8347
0
LINE
8
BLACK
6
CONTINUOUS
10
227.793
20
-95.8347
11
227.604
21
-95.8801
0
LINE
8
BLACK
6
CONTINUOUS
10
227.604
20
-95.8801
11
227.413
21
-95.8951
0
LINE
8
BLACK
6
CONTINUOUS
10
227.413
20
-95.8951
11
227.413
21
-95.8953
0
LINE
8
BLACK
6
CONTINUOUS
10
227.413
20
-95.8953
11
209.556
21
-97.0858
0
LINE
8
BLACK
6
CONTINUOUS
10
209.556
20
-97.0858
11
189.915
21
-100.062
0
LINE
8
BLACK
6
CONTINUOUS
10
189.915
20
-100.062
11
157.175
21
-108.395
0
LINE
8
BLACK
6
CONTINUOUS
10
157.175
20
-108.395
11
157.169
21
-108.394
0
LINE
8
BLACK
6
CONTINUOUS
10
157.169
20
-108.394
11
157.163
21
-108.397
0
LINE
8
BLACK
6
CONTINUOUS
10
157.163
20
-108.397
11
121.444
21
-108.397
0
LINE
8
BLACK
6
CONTINUOUS
10
121.444
20
-108.397
11
121.439
21
-108.395
0
LINE
8
BLACK
6
CONTINUOUS
10
121.439
20
-108.395
11
121.433
21
-108.396
0
LINE
8
BLACK
6
CONTINUOUS
10
121.433
20
-108.396
11
88.6926
21
-101.252
0
LINE
8
BLACK
6
CONTINUOUS
10
88.6926
20
-101.252
11
69.0508
21
-98.2764
0
LINE
8
BLACK
6
CONTINUOUS
10
69.0508
20
-98.2764
11
51.7888
21
-97.0859
0
LINE
8
BLACK
6
CONTINUOUS
10
51.7888
20
-97.0859
11
51.7885
21
-97.0858
0
LINE
8
BLACK
6
CONTINUOUS
10
51.7885
20
-97.0858
11
51.5526
21
-97.0703
0
LINE
8
BLACK
6
CONTINUOUS
10
51.5526
20
-97.0703
11
51.3171
21
-97.0235
0
LINE
8
BLACK
6
CONTINUOUS
10
51.3171
20
-97.0235
11
51.0896
21
-96.9463
0
LINE
8
BLACK
6
CONTINUOUS
10
51.0896
20
-96.9463
11
50.8743
21
-96.8401
0
LINE
8
BLACK
6
CONTINUOUS
10
50.8743
20
-96.8401
11
50.6746
21
-96.7066
0
LINE
8
BLACK
6
CONTINUOUS
10
50.6746
20
-96.7066
11
50.494
21
-96.5483
0
LINE
8
BLACK
6
CONTINUOUS
10
50.494
20
-96.5483
11
50.3357
21
-96.3677
0
LINE
8
BLACK
6
CONTINUOUS
10
50.3357
20
-96.3677
11
50.2022
21
-96.1681
0
LINE
8
BLACK
6
CONTINUOUS
10
50.2022
20
-96.1681
11
50.096
21
-95.9527
0
LINE
8
BLACK
6
CONTINUOUS
10
50.096
20
-95.9527
11
50.0188
21
-95.7253
0
LINE
8
BLACK
6
CONTINUOUS
10
50.0188
20
-95.7253
11
49.972
21
-95.4897
0
LINE
8
BLACK
6
CONTINUOUS
10
49.972
20
-95.4897
11
49.9596
21
-95.3001
0
LINE
8
BLACK
6
CONTINUOUS
10
49.9596
20
-95.3001
11
28.575
21
-95.3001
0
LINE
8
BLACK
6
CONTINUOUS
10
28.575
20
-95.3001
11
28.282
21
-95.2824
0
LINE
8
BLACK
6
CONTINUOUS
10
23.8479
20
-37.5401
11
23.8125
21
-37.5547
0
LINE
8
BLACK
6
CONTINUOUS
10
23.8125
20
-37.5547
11
23.8035
21
-37.551
0
LINE
8
BLACK
6
CONTINUOUS
10
23.8035
20
-37.551
11
23.531
21
-37.5675
0
LINE
8
BLACK
6
CONTINUOUS
10
23.531
20
-37.5675
11
23.2536
21
-37.6183
0
LINE
8
BLACK
6
CONTINUOUS
10
23.2536
20
-37.6183
11
22.9843
21
-37.7022
0
LINE
8
BLACK
6
CONTINUOUS
10
22.9843
20
-37.7022
11
22.7272
21
-37.818
0
LINE
8
BLACK
6
CONTINUOUS
10
22.7272
20
-37.818
11
22.4858
21
-37.9639
0
LINE
8
BLACK
6
CONTINUOUS
10
22.4858
20
-37.9639
11
22.2638
21
-38.1378
0
LINE
8
BLACK
6
CONTINUOUS
10
22.2638
20
-38.1378
11
22.0644
21
-38.3372
0
LINE
8
BLACK
6
CONTINUOUS
10
22.0644
20
-38.3372
11
21.8904
21
-38.5592
0
LINE
8
BLACK
6
CONTINUOUS
10
21.8904
20
-38.5592
11
21.7445
21
-38.8006
0
LINE
8
BLACK
6
CONTINUOUS
10
21.7445
20
-38.8006
11
21.6288
21
-39.0578
0
LINE
8
BLACK
6
CONTINUOUS
10
21.6288
20
-39.0578
11
21.5449
21
-39.327
0
LINE
8
BLACK
6
CONTINUOUS
10
21.5449
20
-39.327
11
21.494
21
-39.6045
0
LINE
8
BLACK
6
CONTINUOUS
10
21.494
20
-39.6045
11
21.4776
21
-39.877
0
LINE
8
BLACK
6
CONTINUOUS
10
21.4776
20
-39.877
11
21.4813
21
-39.886
0
LINE
8
BLACK
6
CONTINUOUS
10
21.4813
20
-39.886
11
21.4813
21
-57.15
0
LINE
8
BLACK
6
CONTINUOUS
10
21.4813
20
-57.15
11
21.4666
21
-57.1854
0
LINE
8
BLACK
6
CONTINUOUS
10
21.4666
20
-57.1854
11
21.4313
21
-57.2
0
LINE
8
BLACK
6
CONTINUOUS
10
21.4313
20
-57.2
11
19.05
21
-57.2
0
LINE
8
BLACK
6
CONTINUOUS
10
19.05
20
-57.2
11
19.0411
21
-57.1963
0
LINE
8
BLACK
6
CONTINUOUS
10
19.0411
20
-57.1963
11
18.7685
21
-57.2128
0
LINE
8
BLACK
6
CONTINUOUS
10
18.7685
20
-57.2128
11
18.4911
21
-57.2637
0
LINE
8
BLACK
6
CONTINUOUS
10
18.4911
20
-57.2637
11
18.2218
21
-57.3476
0
LINE
8
BLACK
6
CONTINUOUS
10
18.2218
20
-57.3476
11
17.9647
21
-57.4633
0
LINE
8
BLACK
6
CONTINUOUS
10
17.9647
20
-57.4633
11
17.7233
21
-57.6092
0
LINE
8
BLACK
6
CONTINUOUS
10
17.7233
20
-57.6092
11
17.5013
21
-57.7832
0
LINE
8
BLACK
6
CONTINUOUS
10
17.5013
20
-57.7832
11
17.3019
21
-57.9826
0
LINE
8
BLACK
6
CONTINUOUS
10
17.3019
20
-57.9826
11
17.1279
21
-58.2046
0
LINE
8
BLACK
6
CONTINUOUS
10
17.1279
20
-58.2046
11
16.982
21
-58.4459
0
LINE
8
BLACK
6
CONTINUOUS
10
16.982
20
-58.4459
11
16.8663
21
-58.7031
0
LINE
8
BLACK
6
CONTINUOUS
10
16.8663
20
-58.7031
11
16.7824
21
-58.9724
0
LINE
8
BLACK
6
CONTINUOUS
10
16.7824
20
-58.9724
11
16.7315
21
-59.2498
0
LINE
8
BLACK
6
CONTINUOUS
10
16.7315
20
-59.2498
11
16.715
21
-59.5223
0
LINE
8
BLACK
6
CONTINUOUS
10
16.715
20
-59.5223
11
16.7188
21
-59.5313
0
LINE
8
BLACK
6
CONTINUOUS
10
16.7188
20
-59.5313
11
16.7188
21
-73.8188
0
LINE
8
BLACK
6
CONTINUOUS
10
16.7188
20
-73.8188
11
16.715
21
-73.8278
0
LINE
8
BLACK
6
CONTINUOUS
10
16.715
20
-73.8278
11
16.7315
21
-74.1003
0
LINE
8
BLACK
6
CONTINUOUS
10
16.7315
20
-74.1003
11
16.7823
21
-74.3777
0
LINE
8
BLACK
6
CONTINUOUS
10
16.7823
20
-74.3777
11
16.8663
21
-74.647
0
LINE
8
BLACK
6
CONTINUOUS
10
16.8663
20
-74.647
11
16.982
21
-74.9042
0
LINE
8
BLACK
6
CONTINUOUS
10
16.982
20
-74.9042
11
17.1279
21
-75.1455
0
LINE
8
BLACK
6
CONTINUOUS
10
17.1279
20
-75.1455
11
17.3018
21
-75.3675
0
LINE
8
BLACK
6
CONTINUOUS
10
17.3018
20
-75.3675
11
17.5013
21
-75.567
0
LINE
8
BLACK
6
CONTINUOUS
10
17.5013
20
-75.567
11
17.7233
21
-75.7409
0
LINE
8
BLACK
6
CONTINUOUS
10
17.7233
20
-75.7409
11
17.9646
21
-75.8868
0
LINE
8
BLACK
6
CONTINUOUS
10
17.9646
20
-75.8868
11
18.2218
21
-76.0026
0
LINE
8
BLACK
6
CONTINUOUS
10
18.2218
20
-76.0026
11
18.4911
21
-76.0865
0
LINE
8
BLACK
6
CONTINUOUS
10
18.4911
20
-76.0865
11
18.7685
21
-76.1373
0
LINE
8
BLACK
6
CONTINUOUS
10
18.7685
20
-76.1373
11
19.041
21
-76.1538
0
LINE
8
BLACK
6
CONTINUOUS
10
19.041
20
-76.1538
11
19.05
21
-76.1501
0
LINE
8
BLACK
6
CONTINUOUS
10
19.05
20
-76.1501
11
26.1938
21
-76.1501
0
LINE
8
BLACK
6
CONTINUOUS
10
26.1938
20
-76.1501
11
26.2291
21
-76.1647
0
LINE
8
BLACK
6
CONTINUOUS
10
26.2291
20
-76.1647
11
26.2438
21
-76.2001
0
LINE
8
BLACK
6
CONTINUOUS
10
26.2438
20
-76.2001
11
26.2438
21
-92.8688
0
LINE
8
BLACK
6
CONTINUOUS
10
26.2438
20
-92.8688
11
26.24
21
-92.8779
0
LINE
8
BLACK
6
CONTINUOUS
10
26.24
20
-92.8779
11
26.2565
21
-93.1503
0
LINE
8
BLACK
6
CONTINUOUS
10
26.2565
20
-93.1503
11
26.3073
21
-93.4278
0
LINE
8
BLACK
6
CONTINUOUS
10
26.3073
20
-93.4278
11
26.3912
21
-93.697
0
LINE
8
BLACK
6
CONTINUOUS
10
26.3912
20
-93.697
11
26.507
21
-93.9542
0
LINE
8
BLACK
6
CONTINUOUS
10
26.507
20
-93.9542
11
26.6529
21
-94.1956
0
LINE
8
BLACK
6
CONTINUOUS
10
26.6529
20
-94.1956
11
26.8268
21
-94.4176
0
LINE
8
BLACK
6
CONTINUOUS
10
26.8268
20
-94.4176
11
27.0263
21
-94.617
0
LINE
8
BLACK
6
CONTINUOUS
10
27.0263
20
-94.617
11
27.2483
21
-94.7909
0
LINE
8
BLACK
6
CONTINUOUS
10
27.2483
20
-94.7909
11
27.4896
21
-94.9368
0
LINE
8
BLACK
6
CONTINUOUS
10
27.4896
20
-94.9368
11
27.7468
21
-95.0526
0
LINE
8
BLACK
6
CONTINUOUS
10
27.7468
20
-95.0526
11
28.0161
21
-95.1365
0
LINE
8
BLACK
6
CONTINUOUS
10
28.0161
20
-95.1365
11
28.2935
21
-95.1873
0
LINE
8
BLACK
6
CONTINUOUS
10
28.2935
20
-95.1873
11
28.566
21
-95.2038
0
LINE
8
BLACK
6
CONTINUOUS
10
28.566
20
-95.2038
11
28.575
21
-95.2001
0
LINE
8
BLACK
6
CONTINUOUS
10
28.575
20
-95.2001
11
50.0063
21
-95.2001
0
LINE
8
BLACK
6
CONTINUOUS
10
50.0063
20
-95.2001
11
50.0153
21
-95.2038
0
LINE
8
BLACK
6
CONTINUOUS
10
50.0153
20
-95.2038
11
50.0416
21
-95.2147
0
LINE
8
BLACK
6
CONTINUOUS
10
50.0416
20
-95.2147
11
50.0563
21
-95.2501
0
LINE
8
BLACK
6
CONTINUOUS
10
50.0563
20
-95.2501
11
50.0563
21
-95.2501
0
LINE
8
BLACK
6
CONTINUOUS
10
50.0563
20
-95.2501
11
50.0525
21
-95.2592
0
LINE
8
BLACK
6
CONTINUOUS
10
50.0525
20
-95.2592
11
50.0696
21
-95.4978
0
LINE
8
BLACK
6
CONTINUOUS
10
50.0696
20
-95.4978
11
50.1223
21
-95.7404
0
LINE
8
BLACK
6
CONTINUOUS
10
50.1223
20
-95.7404
11
50.2091
21
-95.9731
0
LINE
8
BLACK
6
CONTINUOUS
10
50.2091
20
-95.9731
11
50.3281
21
-96.191
0
LINE
8
BLACK
6
CONTINUOUS
10
50.3281
20
-96.191
11
50.4769
21
-96.3898
0
LINE
8
BLACK
6
CONTINUOUS
10
50.4769
20
-96.3898
11
50.6525
21
-96.5654
0
LINE
8
BLACK
6
CONTINUOUS
10
50.6525
20
-96.5654
11
50.8513
21
-96.7142
0
LINE
8
BLACK
6
CONTINUOUS
10
50.8513
20
-96.7142
11
51.0692
21
-96.8332
0
LINE
8
BLACK
6
CONTINUOUS
10
51.0692
20
-96.8332
11
51.3019
21
-96.92
0
LINE
8
BLACK
6
CONTINUOUS
10
51.3019
20
-96.92
11
51.5445
21
-96.9727
0
LINE
8
BLACK
6
CONTINUOUS
10
51.5445
20
-96.9727
11
51.7831
21
-96.9898
0
LINE
8
BLACK
6
CONTINUOUS
10
51.7831
20
-96.9898
11
51.7922
21
-96.986
0
LINE
8
BLACK
6
CONTINUOUS
10
51.7922
20
-96.986
11
51.7939
21
-96.9867
0
LINE
8
BLACK
6
CONTINUOUS
10
51.7939
20
-96.9867
11
51.7957
21
-96.9861
0
LINE
8
BLACK
6
CONTINUOUS
10
51.7957
20
-96.9861
11
69.0597
21
-98.1768
0
LINE
8
BLACK
6
CONTINUOUS
10
69.0597
20
-98.1768
11
69.0617
21
-98.1777
0
LINE
8
BLACK
6
CONTINUOUS
10
69.0617
20
-98.1777
11
69.0638
21
-98.1772
0
LINE
8
BLACK
6
CONTINUOUS
10
69.0638
20
-98.1772
11
88.7091
21
-101.154
0
LINE
8
BLACK
6
CONTINUOUS
10
88.7091
20
-101.154
11
88.7106
21
-101.155
0
LINE
8
BLACK
6
CONTINUOUS
10
88.7106
20
-101.155
11
88.7123
21
-101.154
0
LINE
8
BLACK
6
CONTINUOUS
10
88.7123
20
-101.154
11
121.449
21
-108.297
0
LINE
8
BLACK
6
CONTINUOUS
10
121.449
20
-108.297
11
157.156
21
-108.297
0
LINE
8
BLACK
6
CONTINUOUS
10
157.156
20
-108.297
11
189.893
21
-99.9641
0
LINE
8
BLACK
6
CONTINUOUS
10
189.893
20
-99.9641
11
189.895
21
-99.9645
0
LINE
8
BLACK
6
CONTINUOUS
10
189.895
20
-99.9645
11
189.897
21
-99.9631
0
LINE
8
BLACK
6
CONTINUOUS
10
189.897
20
-99.9631
11
209.543
21
-96.9866
0
LINE
8
BLACK
6
CONTINUOUS
10
209.543
20
-96.9866
11
209.545
21
-96.9871
0
LINE
8
BLACK
6
CONTINUOUS
10
209.545
20
-96.9871
11
209.547
21
-96.9861
0
LINE
8
BLACK
6
CONTINUOUS
10
209.547
20
-96.9861
11
227.406
21
-95.7955
0
LINE
8
BLACK
6
CONTINUOUS
10
227.406
20
-95.7955
11
227.408
21
-95.7961
0
LINE
8
BLACK
6
CONTINUOUS
10
227.408
20
-95.7961
11
227.41
21
-95.7954
0
LINE
8
BLACK
6
CONTINUOUS
10
227.41
20
-95.7954
11
227.418
21
-95.799
0
LINE
8
BLACK
6
CONTINUOUS
10
227.418
20
-95.799
11
227.608
21
-95.7824
0
LINE
8
BLACK
6
CONTINUOUS
10
227.608
20
-95.7824
11
227.801
21
-95.7307
0
LINE
8
BLACK
6
CONTINUOUS
10
227.801
20
-95.7307
11
227.982
21
-95.6464
0
LINE
8
BLACK
6
CONTINUOUS
10
227.982
20
-95.6464
11
228.146
21
-95.5319
0
LINE
8
BLACK
6
CONTINUOUS
10
228.146
20
-95.5319
11
228.287
21
-95.3908
0
LINE
8
BLACK
6
CONTINUOUS
10
228.287
20
-95.3908
11
228.401
21
-95.2273
0
LINE
8
BLACK
6
CONTINUOUS
10
228.401
20
-95.2273
11
228.486
21
-95.0464
0
LINE
8
BLACK
6
CONTINUOUS
10
228.486
20
-95.0464
11
228.537
21
-94.8536
0
LINE
8
BLACK
6
CONTINUOUS
10
228.537
20
-94.8536
11
228.554
21
-94.6635
0
LINE
8
BLACK
6
CONTINUOUS
10
228.554
20
-94.6635
11
228.55
21
-94.6548
0
LINE
8
BLACK
6
CONTINUOUS
10
228.55
20
-94.6548
11
228.55
21
-94.6548
0
LINE
8
BLACK
6
CONTINUOUS
10
228.55
20
-94.6548
11
228.559
21
-94.6341
0
LINE
8
BLACK
6
CONTINUOUS
10
228.559
20
-94.6341
11
228.565
21
-94.6194
0
LINE
8
BLACK
6
CONTINUOUS
10
228.565
20
-94.6194
11
228.565
21
-94.6194
0
LINE
8
BLACK
6
CONTINUOUS
10
228.565
20
-94.6194
11
228.565
21
-94.6194
0
LINE
8
BLACK
6
CONTINUOUS
10
228.565
20
-94.6194
11
228.586
21
-94.6108
0
LINE
8
BLACK
6
CONTINUOUS
10
228.586
20
-94.6108
11
228.6
21
-94.6048
0
LINE
8
BLACK
6
CONTINUOUS
10
228.6
20
-94.6048
11
228.6
21
-94.6048
0
LINE
8
BLACK
6
CONTINUOUS
10
228.6
20
-94.6048
11
250.031
21
-94.6048
0
LINE
8
BLACK
6
CONTINUOUS
10
250.031
20
-94.6048
11
250.031
21
-94.6048
0
LINE
8
BLACK
6
CONTINUOUS
10
250.031
20
-94.6048
11
250.04
21
-94.6084
0
LINE
8
BLACK
6
CONTINUOUS
10
250.04
20
-94.6084
11
250.313
21
-94.5919
0
LINE
8
BLACK
6
CONTINUOUS
10
250.313
20
-94.5919
11
250.59
21
-94.5411
0
LINE
8
BLACK
6
CONTINUOUS
10
250.59
20
-94.5411
11
250.86
21
-94.4572
0
LINE
8
BLACK
6
CONTINUOUS
10
250.86
20
-94.4572
11
251.117
21
-94.3415
0
LINE
8
BLACK
6
CONTINUOUS
10
251.117
20
-94.3415
11
251.358
21
-94.1956
0
LINE
8
BLACK
6
CONTINUOUS
10
251.358
20
-94.1956
11
251.58
21
-94.0216
0
LINE
8
BLACK
6
CONTINUOUS
10
251.58
20
-94.0216
11
251.78
21
-93.8222
0
LINE
8
BLACK
6
CONTINUOUS
10
251.78
20
-93.8222
11
251.954
21
-93.6002
0
LINE
8
BLACK
6
CONTINUOUS
10
251.954
20
-93.6002
11
252.099
21
-93.3589
0
LINE
8
BLACK
6
CONTINUOUS
10
252.099
20
-93.3589
11
252.215
21
-93.1017
0
LINE
8
BLACK
6
CONTINUOUS
10
252.215
20
-93.1017
11
252.299
21
-92.8324
0
LINE
8
BLACK
6
CONTINUOUS
10
252.299
20
-92.8324
11
252.35
21
-92.555
0
LINE
8
BLACK
6
CONTINUOUS
10
252.35
20
-92.555
11
252.366
21
-92.2825
0
LINE
8
BLACK
6
CONTINUOUS
10
252.366
20
-92.2825
11
252.363
21
-92.2735
0
LINE
8
BLACK
6
CONTINUOUS
10
252.363
20
-92.2735
11
252.363
21
-75.6048
0
LINE
8
BLACK
6
CONTINUOUS
10
252.363
20
-75.6048
11
252.377
21
-75.5694
0
LINE
8
BLACK
6
CONTINUOUS
10
252.377
20
-75.5694
11
252.413
21
-75.5548
0
LINE
8
BLACK
6
CONTINUOUS
10
252.413
20
-75.5548
11
254.794
21
-75.5547
0
LINE
8
BLACK
6
CONTINUOUS
10
254.794
20
-75.5547
11
254.794
21
-75.5547
0
LINE
8
BLACK
6
CONTINUOUS
10
254.794
20
-75.5547
11
254.803
21
-75.5584
0
LINE
8
BLACK
6
CONTINUOUS
10
254.803
20
-75.5584
11
255.075
21
-75.542
0
LINE
8
BLACK
6
CONTINUOUS
10
255.075
20
-75.542
11
255.353
21
-75.4911
0
LINE
8
BLACK
6
CONTINUOUS
10
255.353
20
-75.4911
11
255.622
21
-75.4072
0
LINE
8
BLACK
6
CONTINUOUS
10
255.622
20
-75.4072
11
255.879
21
-75.2915
0
LINE
8
BLACK
6
CONTINUOUS
10
255.879
20
-75.2915
11
256.121
21
-75.1456
0
LINE
8
BLACK
6
CONTINUOUS
10
256.121
20
-75.1456
11
256.343
21
-74.9716
0
LINE
8
BLACK
6
CONTINUOUS
10
256.343
20
-74.9716
11
256.542
21
-74.7722
0
LINE
8
BLACK
6
CONTINUOUS
10
256.542
20
-74.7722
11
256.716
21
-74.5502
0
LINE
8
BLACK
6
CONTINUOUS
10
256.716
20
-74.5502
11
256.862
21
-74.3089
0
LINE
8
BLACK
6
CONTINUOUS
10
256.862
20
-74.3089
11
256.978
21
-74.0517
0
LINE
8
BLACK
6
CONTINUOUS
10
256.978
20
-74.0517
11
257.062
21
-73.7824
0
LINE
8
BLACK
6
CONTINUOUS
10
257.062
20
-73.7824
11
257.112
21
-73.505
0
LINE
8
BLACK
6
CONTINUOUS
10
257.112
20
-73.505
11
257.129
21
-73.2325
0
LINE
8
BLACK
6
CONTINUOUS
10
257.129
20
-73.2325
11
257.125
21
-73.2235
0
LINE
8
BLACK
6
CONTINUOUS
10
257.125
20
-73.2235
11
257.125
21
-58.936
0
LINE
8
BLACK
6
CONTINUOUS
10
257.125
20
-58.936
11
257.129
21
-58.9269
0
LINE
8
BLACK
6
CONTINUOUS
10
257.129
20
-58.9269
11
257.112
21
-58.6545
0
LINE
8
BLACK
6
CONTINUOUS
10
257.112
20
-58.6545
11
257.062
21
-58.3771
0
LINE
8
BLACK
6
CONTINUOUS
10
257.062
20
-58.3771
11
256.978
21
-58.1078
0
LINE
8
BLACK
6
CONTINUOUS
10
256.978
20
-58.1078
11
256.862
21
-57.8506
0
LINE
8
BLACK
6
CONTINUOUS
10
256.862
20
-57.8506
11
256.716
21
-57.6093
0
LINE
8
BLACK
6
CONTINUOUS
10
256.716
20
-57.6093
11
256.542
21
-57.3872
0
LINE
8
BLACK
6
CONTINUOUS
10
256.542
20
-57.3872
11
256.343
21
-57.1878
0
LINE
8
BLACK
6
CONTINUOUS
10
256.343
20
-57.1878
11
256.121
21
-57.0139
0
LINE
8
BLACK
6
CONTINUOUS
10
256.121
20
-57.0139
11
255.879
21
-56.868
0
LINE
8
BLACK
6
CONTINUOUS
10
255.879
20
-56.868
11
255.622
21
-56.7522
0
LINE
8
BLACK
6
CONTINUOUS
10
255.622
20
-56.7522
11
255.353
21
-56.6683
0
LINE
8
BLACK
6
CONTINUOUS
10
255.353
20
-56.6683
11
255.075
21
-56.6175
0
LINE
8
BLACK
6
CONTINUOUS
10
255.075
20
-56.6175
11
254.803
21
-56.601
0
LINE
8
BLACK
6
CONTINUOUS
10
254.803
20
-56.601
11
254.794
21
-56.6047
0
LINE
8
BLACK
6
CONTINUOUS
10
254.794
20
-56.6047
11
254.794
21
-56.6047
0
LINE
8
BLACK
6
CONTINUOUS
10
254.794
20
-56.6047
11
252.413
21
-56.6047
0
LINE
8
BLACK
6
CONTINUOUS
10
252.413
20
-56.6047
11
252.377
21
-56.5901
0
LINE
8
BLACK
6
CONTINUOUS
10
252.377
20
-56.5901
11
252.363
21
-56.5547
0
LINE
8
BLACK
6
CONTINUOUS
10
252.363
20
-56.5547
11
252.363
21
-55.9594
0
LINE
8
BLACK
6
CONTINUOUS
10
252.363
20
-55.9594
11
252.363
21
-39.2907
0
LINE
8
BLACK
6
CONTINUOUS
10
252.363
20
-39.2907
11
252.367
21
-39.2815
0
LINE
8
BLACK
6
CONTINUOUS
10
252.367
20
-39.2815
11
252.35
21
-39.0091
0
LINE
8
BLACK
6
CONTINUOUS
10
252.35
20
-39.0091
11
252.299
21
-38.7317
0
LINE
8
BLACK
6
CONTINUOUS
10
252.299
20
-38.7317
11
252.215
21
-38.4625
0
LINE
8
BLACK
6
CONTINUOUS
10
252.215
20
-38.4625
11
252.1
21
-38.2053
0
LINE
8
BLACK
6
CONTINUOUS
10
252.1
20
-38.2053
11
251.954
21
-37.9639
0
LINE
8
BLACK
6
CONTINUOUS
10
251.954
20
-37.9639
11
251.78
21
-37.7419
0
LINE
8
BLACK
6
CONTINUOUS
10
251.78
20
-37.7419
11
251.58
21
-37.5425
0
LINE
8
BLACK
6
CONTINUOUS
10
251.58
20
-37.5425
11
251.358
21
-37.3686
0
LINE
8
BLACK
6
CONTINUOUS
10
251.358
20
-37.3686
11
251.117
21
-37.2227
0
LINE
8
BLACK
6
CONTINUOUS
10
251.117
20
-37.2227
11
250.86
21
-37.1069
0
LINE
8
BLACK
6
CONTINUOUS
10
250.86
20
-37.1069
11
250.59
21
-37.023
0
LINE
8
BLACK
6
CONTINUOUS
10
250.59
20
-37.023
11
250.313
21
-36.9722
0
LINE
8
BLACK
6
CONTINUOUS
10
250.313
20
-36.9722
11
250.04
21
-36.9557
0
LINE
8
BLACK
6
CONTINUOUS
10
250.04
20
-36.9557
11
250.031
21
-36.9594
0
LINE
8
BLACK
6
CONTINUOUS
10
250.031
20
-36.9594
11
249.996
21
-36.9448
0
LINE
8
BLACK
6
CONTINUOUS
10
249.996
20
-36.9448
11
249.981
21
-36.9094
0
LINE
8
BLACK
6
CONTINUOUS
10
249.981
20
-36.9094
11
249.981
21
-36.9094
0
LINE
8
BLACK
6
CONTINUOUS
10
249.981
20
-36.9094
11
249.981
21
-20.2406
0
LINE
8
BLACK
6
CONTINUOUS
10
249.981
20
-20.2406
11
249.985
21
-20.2318
0
LINE
8
BLACK
6
CONTINUOUS
10
249.985
20
-20.2318
11
249.969
21
-19.9591
0
LINE
8
BLACK
6
CONTINUOUS
10
249.969
20
-19.9591
11
249.918
21
-19.6817
0
LINE
8
BLACK
6
CONTINUOUS
10
249.918
20
-19.6817
11
249.834
21
-19.4125
0
LINE
8
BLACK
6
CONTINUOUS
10
249.834
20
-19.4125
11
249.718
21
-19.1553
0
LINE
8
BLACK
6
CONTINUOUS
10
249.718
20
-19.1553
11
249.572
21
-18.9139
0
LINE
8
BLACK
6
CONTINUOUS
10
249.572
20
-18.9139
11
249.398
21
-18.6919
0
LINE
8
BLACK
6
CONTINUOUS
10
249.398
20
-18.6919
11
249.199
21
-18.4925
0
LINE
8
BLACK
6
CONTINUOUS
10
249.199
20
-18.4925
11
248.977
21
-18.3186
0
LINE
8
BLACK
6
CONTINUOUS
10
248.977
20
-18.3186
11
248.736
21
-18.1727
0
LINE
8
BLACK
6
CONTINUOUS
10
248.736
20
-18.1727
11
248.478
21
-18.0569
0
LINE
8
BLACK
6
CONTINUOUS
10
248.478
20
-18.0569
11
248.209
21
-17.973
0
LINE
8
BLACK
6
CONTINUOUS
10
248.209
20
-17.973
11
247.932
21
-17.9222
0
LINE
8
BLACK
6
CONTINUOUS
10
247.932
20
-17.9222
11
247.659
21
-17.9057
0
LINE
8
BLACK
6
CONTINUOUS
10
247.659
20
-17.9057
11
247.65
21
-17.9094
0
LINE
8
BLACK
6
CONTINUOUS
10
247.65
20
-17.9094
11
225.03
21
-17.9094
0
LINE
8
BLACK
6
CONTINUOUS
10
225.03
20
-17.9094
11
204.792
21
-19.0998
0
LINE
8
BLACK
6
CONTINUOUS
10
204.792
20
-19.0998
11
184.554
21
-21.4808
0
LINE
8
BLACK
6
CONTINUOUS
10
184.554
20
-21.4808
11
164.316
21
-25.0523
0
LINE
8
BLACK
6
CONTINUOUS
10
164.316
20
-25.0523
11
146.457
21
-28.6241
0
LINE
8
BLACK
6
CONTINUOUS
10
146.457
20
-28.6241
11
146.452
21
-28.6231
0
LINE
8
BLACK
6
CONTINUOUS
10
146.452
20
-28.6231
11
146.447
21
-28.625
0
LINE
8
BLACK
6
CONTINUOUS
10
146.447
20
-28.625
11
122.634
21
-28.625
0
LINE
8
BLACK
6
CONTINUOUS
10
122.634
20
-28.625
11
122.629
21
-28.6227
0
LINE
8
BLACK
6
CONTINUOUS
10
122.629
20
-28.6227
11
122.623
21
-28.6237
0
LINE
8
BLACK
6
CONTINUOUS
10
122.623
20
-28.6237
11
104.766
21
-24.457
0
LINE
8
BLACK
6
CONTINUOUS
10
104.766
20
-24.457
11
84.528
21
-21.4809
0
LINE
8
BLACK
6
CONTINUOUS
10
84.528
20
-21.4809
11
63.0989
21
-19.0998
0
LINE
8
BLACK
6
CONTINUOUS
10
63.0989
20
-19.0998
11
44.0516
21
-17.9094
0
LINE
8
BLACK
6
CONTINUOUS
10
44.0516
20
-17.9094
11
26.1938
21
-17.9094
0
LINE
8
BLACK
6
CONTINUOUS
10
26.1938
20
-17.9094
11
26.1848
21
-17.9057
0
LINE
8
BLACK
6
CONTINUOUS
10
26.1848
20
-17.9057
11
25.9123
21
-17.9222
0
LINE
8
BLACK
6
CONTINUOUS
10
25.9123
20
-17.9222
11
25.6348
21
-17.973
0
LINE
8
BLACK
6
CONTINUOUS
10
25.6348
20
-17.973
11
25.3656
21
-18.0569
0
LINE
8
BLACK
6
CONTINUOUS
10
25.3656
20
-18.0569
11
25.1084
21
-18.1726
0
LINE
8
BLACK
6
CONTINUOUS
10
25.1084
20
-18.1726
11
24.867
21
-18.3186
0
LINE
8
BLACK
6
CONTINUOUS
10
24.867
20
-18.3186
11
24.645
21
-18.4925
0
LINE
8
BLACK
6
CONTINUOUS
10
24.645
20
-18.4925
11
24.4456
21
-18.6919
0
LINE
8
BLACK
6
CONTINUOUS
10
24.4456
20
-18.6919
11
24.2717
21
-18.9139
0
LINE
8
BLACK
6
CONTINUOUS
10
24.2717
20
-18.9139
11
24.1258
21
-19.1553
0
LINE
8
BLACK
6
CONTINUOUS
10
24.1258
20
-19.1553
11
24.01
21
-19.4125
0
LINE
8
BLACK
6
CONTINUOUS
10
24.01
20
-19.4125
11
23.9261
21
-19.6817
0
LINE
8
BLACK
6
CONTINUOUS
10
23.9261
20
-19.6817
11
23.8753
21
-19.9591
0
LINE
8
BLACK
6
CONTINUOUS
10
23.8753
20
-19.9591
11
23.8588
21
-20.2317
0
LINE
8
BLACK
6
CONTINUOUS
10
23.8588
20
-20.2317
11
23.8625
21
-20.2406
0
LINE
8
BLACK
6
CONTINUOUS
10
23.8625
20
-20.2406
11
23.8625
21
-36.9094
0
LINE
8
BLACK
6
CONTINUOUS
10
23.8625
20
-36.9094
11
23.8625
21
-37.5047
0
LINE
8
BLACK
6
CONTINUOUS
10
23.8625
20
-37.5047
11
23.8479
21
-37.5401
0
LINE
8
BLACK
6
CONTINUOUS
10
90.6511
20
-85.5068
11
90.7131
21
-85.3114
0
LINE
8
BLACK
6
CONTINUOUS
10
90.7131
20
-85.3114
11
90.8118
21
-85.1319
0
LINE
8
BLACK
6
CONTINUOUS
10
90.8118
20
-85.1319
11
90.9436
21
-84.9749
0
LINE
8
BLACK
6
CONTINUOUS
10
90.9436
20
-84.9749
11
91.1033
21
-84.8465
0
LINE
8
BLACK
6
CONTINUOUS
10
91.1033
20
-84.8465
11
91.2849
21
-84.7515
0
LINE
8
BLACK
6
CONTINUOUS
10
91.2849
20
-84.7515
11
91.4815
21
-84.6937
0
LINE
8
BLACK
6
CONTINUOUS
10
91.4815
20
-84.6937
11
91.6855
21
-84.6751
0
LINE
8
BLACK
6
CONTINUOUS
10
91.6855
20
-84.6751
11
91.8893
21
-84.6965
0
LINE
8
BLACK
6
CONTINUOUS
10
91.8893
20
-84.6965
11
92.0851
21
-84.7571
0
LINE
8
BLACK
6
CONTINUOUS
10
92.0851
20
-84.7571
11
92.2654
21
-84.8546
0
LINE
8
BLACK
6
CONTINUOUS
10
92.2654
20
-84.8546
11
92.4233
21
-84.9852
0
LINE
8
BLACK
6
CONTINUOUS
10
92.4233
20
-84.9852
11
92.5528
21
-85.144
0
LINE
8
BLACK
6
CONTINUOUS
10
92.5528
20
-85.144
11
92.649
21
-85.3249
0
LINE
8
BLACK
6
CONTINUOUS
10
92.649
20
-85.3249
11
92.7082
21
-85.5211
0
LINE
8
BLACK
6
CONTINUOUS
10
92.7082
20
-85.5211
11
92.7282
21
-85.7251
0
LINE
8
BLACK
6
CONTINUOUS
10
92.7282
20
-85.7251
11
92.7278
21
-85.7544
0
LINE
8
BLACK
6
CONTINUOUS
10
92.7278
20
-85.7544
11
92.7021
21
-85.9577
0
LINE
8
BLACK
6
CONTINUOUS
10
92.7021
20
-85.9577
11
92.6374
21
-86.1521
0
LINE
8
BLACK
6
CONTINUOUS
10
92.6374
20
-86.1521
11
92.5362
21
-86.3303
0
LINE
8
BLACK
6
CONTINUOUS
10
92.5362
20
-86.3303
11
92.4023
21
-86.4855
0
LINE
8
BLACK
6
CONTINUOUS
10
92.4023
20
-86.4855
11
92.2408
21
-86.6116
0
LINE
8
BLACK
6
CONTINUOUS
10
92.2408
20
-86.6116
11
92.0579
21
-86.704
0
LINE
8
BLACK
6
CONTINUOUS
10
92.0579
20
-86.704
11
91.8605
21
-86.7591
0
LINE
8
BLACK
6
CONTINUOUS
10
91.8605
20
-86.7591
11
91.6562
21
-86.7748
0
LINE
8
BLACK
6
CONTINUOUS
10
91.6562
20
-86.7748
11
91.4527
21
-86.7506
0
LINE
8
BLACK
6
CONTINUOUS
10
91.4527
20
-86.7506
11
91.2578
21
-86.6873
0
LINE
8
BLACK
6
CONTINUOUS
10
91.2578
20
-86.6873
11
91.079
21
-86.5873
0
LINE
8
BLACK
6
CONTINUOUS
10
91.079
20
-86.5873
11
90.9229
21
-86.4545
0
LINE
8
BLACK
6
CONTINUOUS
10
90.9229
20
-86.4545
11
90.7956
21
-86.2939
0
LINE
8
BLACK
6
CONTINUOUS
10
90.7956
20
-86.2939
11
90.7019
21
-86.1116
0
LINE
8
BLACK
6
CONTINUOUS
10
90.7019
20
-86.1116
11
90.6455
21
-85.9146
0
LINE
8
BLACK
6
CONTINUOUS
10
90.6455
20
-85.9146
11
90.6284
21
-85.7117
0
LINE
8
BLACK
6
CONTINUOUS
10
90.6284
20
-85.7117
11
90.6283
21
-85.7104
0
LINE
8
BLACK
6
CONTINUOUS
10
90.6283
20
-85.7104
11
90.6511
21
-85.5068
0
LINE
8
BLACK
6
CONTINUOUS
10
90.7906
20
-86.0765
11
90.8758
21
-86.2422
0
LINE
8
BLACK
6
CONTINUOUS
10
90.8758
20
-86.2422
11
90.9915
21
-86.3882
0
LINE
8
BLACK
6
CONTINUOUS
10
90.9915
20
-86.3882
11
91.1334
21
-86.5089
0
LINE
8
BLACK
6
CONTINUOUS
10
91.1334
20
-86.5089
11
91.296
21
-86.5998
0
LINE
8
BLACK
6
CONTINUOUS
10
91.296
20
-86.5998
11
91.4732
21
-86.6574
0
LINE
8
BLACK
6
CONTINUOUS
10
91.4732
20
-86.6574
11
91.6582
21
-86.6795
0
LINE
8
BLACK
6
CONTINUOUS
10
91.6582
20
-86.6795
11
91.844
21
-86.6652
0
LINE
8
BLACK
6
CONTINUOUS
10
91.844
20
-86.6652
11
92.0234
21
-86.6151
0
LINE
8
BLACK
6
CONTINUOUS
10
92.0234
20
-86.6151
11
92.1897
21
-86.5311
0
LINE
8
BLACK
6
CONTINUOUS
10
92.1897
20
-86.5311
11
92.3365
21
-86.4164
0
LINE
8
BLACK
6
CONTINUOUS
10
92.3365
20
-86.4164
11
92.4582
21
-86.2753
0
LINE
8
BLACK
6
CONTINUOUS
10
92.4582
20
-86.2753
11
92.5503
21
-86.1133
0
LINE
8
BLACK
6
CONTINUOUS
10
92.5503
20
-86.1133
11
92.6091
21
-85.9366
0
LINE
8
BLACK
6
CONTINUOUS
10
92.6091
20
-85.9366
11
92.6324
21
-85.7517
0
LINE
8
BLACK
6
CONTINUOUS
10
92.6324
20
-85.7517
11
92.6328
21
-85.7251
0
LINE
8
BLACK
6
CONTINUOUS
10
92.6328
20
-85.7251
11
92.6146
21
-85.5397
0
LINE
8
BLACK
6
CONTINUOUS
10
92.6146
20
-85.5397
11
92.5608
21
-85.3613
0
LINE
8
BLACK
6
CONTINUOUS
10
92.5608
20
-85.3613
11
92.4733
21
-85.1968
0
LINE
8
BLACK
6
CONTINUOUS
10
92.4733
20
-85.1968
11
92.3556
21
-85.0524
0
LINE
8
BLACK
6
CONTINUOUS
10
92.3556
20
-85.0524
11
92.212
21
-84.9337
0
LINE
8
BLACK
6
CONTINUOUS
10
92.212
20
-84.9337
11
92.0481
21
-84.8451
0
LINE
8
BLACK
6
CONTINUOUS
10
92.0481
20
-84.8451
11
91.8701
21
-84.79
0
LINE
8
BLACK
6
CONTINUOUS
10
91.8701
20
-84.79
11
91.6849
21
-84.7705
0
LINE
8
BLACK
6
CONTINUOUS
10
91.6849
20
-84.7705
11
91.4993
21
-84.7874
0
LINE
8
BLACK
6
CONTINUOUS
10
91.4993
20
-84.7874
11
91.3206
21
-84.84
0
LINE
8
BLACK
6
CONTINUOUS
10
91.3206
20
-84.84
11
91.1555
21
-84.9263
0
LINE
8
BLACK
6
CONTINUOUS
10
91.1555
20
-84.9263
11
91.0103
21
-85.043
0
LINE
8
BLACK
6
CONTINUOUS
10
91.0103
20
-85.043
11
90.8906
21
-85.1858
0
LINE
8
BLACK
6
CONTINUOUS
10
90.8906
20
-85.1858
11
90.8008
21
-85.349
0
LINE
8
BLACK
6
CONTINUOUS
10
90.8008
20
-85.349
11
90.7445
21
-85.5266
0
LINE
8
BLACK
6
CONTINUOUS
10
90.7445
20
-85.5266
11
90.7237
21
-85.7117
0
LINE
8
BLACK
6
CONTINUOUS
10
90.7237
20
-85.7117
11
90.7393
21
-85.8974
0
LINE
8
BLACK
6
CONTINUOUS
10
90.7393
20
-85.8974
11
90.7906
21
-86.0765
0
LINE
8
BLACK
6
CONTINUOUS
10
185.901
20
-83.7208
11
185.963
21
-83.5255
0
LINE
8
BLACK
6
CONTINUOUS
10
185.963
20
-83.5255
11
186.062
21
-83.3459
0
LINE
8
BLACK
6
CONTINUOUS
10
186.062
20
-83.3459
11
186.194
21
-83.1889
0
LINE
8
BLACK
6
CONTINUOUS
10
186.194
20
-83.1889
11
186.353
21
-83.0605
0
LINE
8
BLACK
6
CONTINUOUS
10
186.353
20
-83.0605
11
186.535
21
-82.9656
0
LINE
8
BLACK
6
CONTINUOUS
10
186.535
20
-82.9656
11
186.732
21
-82.9077
0
LINE
8
BLACK
6
CONTINUOUS
10
186.732
20
-82.9077
11
186.936
21
-82.8892
0
LINE
8
BLACK
6
CONTINUOUS
10
186.936
20
-82.8892
11
187.139
21
-82.9106
0
LINE
8
BLACK
6
CONTINUOUS
10
187.139
20
-82.9106
11
187.335
21
-82.9712
0
LINE
8
BLACK
6
CONTINUOUS
10
187.335
20
-82.9712
11
187.515
21
-83.0686
0
LINE
8
BLACK
6
CONTINUOUS
10
187.515
20
-83.0686
11
187.673
21
-83.1993
0
LINE
8
BLACK
6
CONTINUOUS
10
187.673
20
-83.1993
11
187.803
21
-83.3581
0
LINE
8
BLACK
6
CONTINUOUS
10
187.803
20
-83.3581
11
187.899
21
-83.539
0
LINE
8
BLACK
6
CONTINUOUS
10
187.899
20
-83.539
11
187.958
21
-83.7352
0
LINE
8
BLACK
6
CONTINUOUS
10
187.958
20
-83.7352
11
187.978
21
-83.9391
0
LINE
8
BLACK
6
CONTINUOUS
10
187.978
20
-83.9391
11
187.978
21
-83.9685
0
LINE
8
BLACK
6
CONTINUOUS
10
187.978
20
-83.9685
11
187.952
21
-84.1718
0
LINE
8
BLACK
6
CONTINUOUS
10
187.952
20
-84.1718
11
187.888
21
-84.3662
0
LINE
8
BLACK
6
CONTINUOUS
10
187.888
20
-84.3662
11
187.786
21
-84.5444
0
LINE
8
BLACK
6
CONTINUOUS
10
187.786
20
-84.5444
11
187.652
21
-84.6995
0
LINE
8
BLACK
6
CONTINUOUS
10
187.652
20
-84.6995
11
187.491
21
-84.8257
0
LINE
8
BLACK
6
CONTINUOUS
10
187.491
20
-84.8257
11
187.308
21
-84.9181
0
LINE
8
BLACK
6
CONTINUOUS
10
187.308
20
-84.9181
11
187.111
21
-84.9732
0
LINE
8
BLACK
6
CONTINUOUS
10
187.111
20
-84.9732
11
186.906
21
-84.9889
0
LINE
8
BLACK
6
CONTINUOUS
10
186.906
20
-84.9889
11
186.703
21
-84.9646
0
LINE
8
BLACK
6
CONTINUOUS
10
186.703
20
-84.9646
11
186.508
21
-84.9013
0
LINE
8
BLACK
6
CONTINUOUS
10
186.508
20
-84.9013
11
186.329
21
-84.8013
0
LINE
8
BLACK
6
CONTINUOUS
10
186.329
20
-84.8013
11
186.173
21
-84.6685
0
LINE
8
BLACK
6
CONTINUOUS
10
186.173
20
-84.6685
11
186.046
21
-84.5079
0
LINE
8
BLACK
6
CONTINUOUS
10
186.046
20
-84.5079
11
185.952
21
-84.3257
0
LINE
8
BLACK
6
CONTINUOUS
10
185.952
20
-84.3257
11
185.896
21
-84.1287
0
LINE
8
BLACK
6
CONTINUOUS
10
185.896
20
-84.1287
11
185.878
21
-83.9258
0
LINE
8
BLACK
6
CONTINUOUS
10
185.878
20
-83.9258
11
185.878
21
-83.9245
0
LINE
8
BLACK
6
CONTINUOUS
10
185.878
20
-83.9245
11
185.901
21
-83.7208
0
LINE
8
BLACK
6
CONTINUOUS
10
186.041
20
-84.2905
11
186.126
21
-84.4562
0
LINE
8
BLACK
6
CONTINUOUS
10
186.126
20
-84.4562
11
186.242
21
-84.6023
0
LINE
8
BLACK
6
CONTINUOUS
10
186.242
20
-84.6023
11
186.383
21
-84.723
0
LINE
8
BLACK
6
CONTINUOUS
10
186.383
20
-84.723
11
186.546
21
-84.8139
0
LINE
8
BLACK
6
CONTINUOUS
10
186.546
20
-84.8139
11
186.723
21
-84.8715
0
LINE
8
BLACK
6
CONTINUOUS
10
186.723
20
-84.8715
11
186.908
21
-84.8935
0
LINE
8
BLACK
6
CONTINUOUS
10
186.908
20
-84.8935
11
187.094
21
-84.8792
0
LINE
8
BLACK
6
CONTINUOUS
10
187.094
20
-84.8792
11
187.273
21
-84.8291
0
LINE
8
BLACK
6
CONTINUOUS
10
187.273
20
-84.8291
11
187.44
21
-84.7451
0
LINE
8
BLACK
6
CONTINUOUS
10
187.44
20
-84.7451
11
187.587
21
-84.6304
0
LINE
8
BLACK
6
CONTINUOUS
10
187.587
20
-84.6304
11
187.708
21
-84.4894
0
LINE
8
BLACK
6
CONTINUOUS
10
187.708
20
-84.4894
11
187.8
21
-84.3274
0
LINE
8
BLACK
6
CONTINUOUS
10
187.8
20
-84.3274
11
187.859
21
-84.1506
0
LINE
8
BLACK
6
CONTINUOUS
10
187.859
20
-84.1506
11
187.883
21
-83.9658
0
LINE
8
BLACK
6
CONTINUOUS
10
187.883
20
-83.9658
11
187.883
21
-83.9391
0
LINE
8
BLACK
6
CONTINUOUS
10
187.883
20
-83.9391
11
187.865
21
-83.7537
0
LINE
8
BLACK
6
CONTINUOUS
10
187.865
20
-83.7537
11
187.811
21
-83.5754
0
LINE
8
BLACK
6
CONTINUOUS
10
187.811
20
-83.5754
11
187.723
21
-83.4109
0
LINE
8
BLACK
6
CONTINUOUS
10
187.723
20
-83.4109
11
187.606
21
-83.2665
0
LINE
8
BLACK
6
CONTINUOUS
10
187.606
20
-83.2665
11
187.462
21
-83.1477
0
LINE
8
BLACK
6
CONTINUOUS
10
187.462
20
-83.1477
11
187.298
21
-83.0591
0
LINE
8
BLACK
6
CONTINUOUS
10
187.298
20
-83.0591
11
187.12
21
-83.004
0
LINE
8
BLACK
6
CONTINUOUS
10
187.12
20
-83.004
11
186.935
21
-82.9846
0
LINE
8
BLACK
6
CONTINUOUS
10
186.935
20
-82.9846
11
186.749
21
-83.0014
0
LINE
8
BLACK
6
CONTINUOUS
10
186.749
20
-83.0014
11
186.571
21
-83.054
0
LINE
8
BLACK
6
CONTINUOUS
10
186.571
20
-83.054
11
186.406
21
-83.1404
0
LINE
8
BLACK
6
CONTINUOUS
10
186.406
20
-83.1404
11
186.26
21
-83.2571
0
LINE
8
BLACK
6
CONTINUOUS
10
186.26
20
-83.2571
11
186.141
21
-83.3998
0
LINE
8
BLACK
6
CONTINUOUS
10
186.141
20
-83.3998
11
186.051
21
-83.5631
0
LINE
8
BLACK
6
CONTINUOUS
10
186.051
20
-83.5631
11
185.995
21
-83.7407
0
LINE
8
BLACK
6
CONTINUOUS
10
185.995
20
-83.7407
11
185.974
21
-83.9258
0
LINE
8
BLACK
6
CONTINUOUS
10
185.974
20
-83.9258
11
185.989
21
-84.1115
0
LINE
8
BLACK
6
CONTINUOUS
10
185.989
20
-84.1115
11
186.041
21
-84.2905
0
LINE
8
BLACK
6
CONTINUOUS
10
228.168
20
-77.7677
11
228.23
21
-77.5724
0
LINE
8
BLACK
6
CONTINUOUS
10
228.23
20
-77.5724
11
228.329
21
-77.3928
0
LINE
8
BLACK
6
CONTINUOUS
10
228.329
20
-77.3928
11
228.461
21
-77.2358
0
LINE
8
BLACK
6
CONTINUOUS
10
228.461
20
-77.2358
11
228.621
21
-77.1074
0
LINE
8
BLACK
6
CONTINUOUS
10
228.621
20
-77.1074
11
228.802
21
-77.0125
0
LINE
8
BLACK
6
CONTINUOUS
10
228.802
20
-77.0125
11
228.999
21
-76.9546
0
LINE
8
BLACK
6
CONTINUOUS
10
228.999
20
-76.9546
11
229.203
21
-76.936
0
LINE
8
BLACK
6
CONTINUOUS
10
229.203
20
-76.936
11
229.407
21
-76.9574
0
LINE
8
BLACK
6
CONTINUOUS
10
229.407
20
-76.9574
11
229.602
21
-77.018
0
LINE
8
BLACK
6
CONTINUOUS
10
229.602
20
-77.018
11
229.783
21
-77.1155
0
LINE
8
BLACK
6
CONTINUOUS
10
229.783
20
-77.1155
11
229.941
21
-77.2461
0
LINE
8
BLACK
6
CONTINUOUS
10
229.941
20
-77.2461
11
230.07
21
-77.4049
0
LINE
8
BLACK
6
CONTINUOUS
10
230.07
20
-77.4049
11
230.166
21
-77.5859
0
LINE
8
BLACK
6
CONTINUOUS
10
230.166
20
-77.5859
11
230.226
21
-77.7821
0
LINE
8
BLACK
6
CONTINUOUS
10
230.226
20
-77.7821
11
230.246
21
-77.986
0
LINE
8
BLACK
6
CONTINUOUS
10
230.246
20
-77.986
11
230.245
21
-78.0153
0
LINE
8
BLACK
6
CONTINUOUS
10
230.245
20
-78.0153
11
230.219
21
-78.2186
0
LINE
8
BLACK
6
CONTINUOUS
10
230.219
20
-78.2186
11
230.155
21
-78.4131
0
LINE
8
BLACK
6
CONTINUOUS
10
230.155
20
-78.4131
11
230.054
21
-78.5913
0
LINE
8
BLACK
6
CONTINUOUS
10
230.054
20
-78.5913
11
229.92
21
-78.7464
0
LINE
8
BLACK
6
CONTINUOUS
10
229.92
20
-78.7464
11
229.758
21
-78.8725
0
LINE
8
BLACK
6
CONTINUOUS
10
229.758
20
-78.8725
11
229.575
21
-78.9649
0
LINE
8
BLACK
6
CONTINUOUS
10
229.575
20
-78.9649
11
229.378
21
-79.0201
0
LINE
8
BLACK
6
CONTINUOUS
10
229.378
20
-79.0201
11
229.174
21
-79.0358
0
LINE
8
BLACK
6
CONTINUOUS
10
229.174
20
-79.0358
11
228.97
21
-79.0115
0
LINE
8
BLACK
6
CONTINUOUS
10
228.97
20
-79.0115
11
228.775
21
-78.9482
0
LINE
8
BLACK
6
CONTINUOUS
10
228.775
20
-78.9482
11
228.596
21
-78.8482
0
LINE
8
BLACK
6
CONTINUOUS
10
228.596
20
-78.8482
11
228.44
21
-78.7154
0
LINE
8
BLACK
6
CONTINUOUS
10
228.44
20
-78.7154
11
228.313
21
-78.5548
0
LINE
8
BLACK
6
CONTINUOUS
10
228.313
20
-78.5548
11
228.219
21
-78.3725
0
LINE
8
BLACK
6
CONTINUOUS
10
228.219
20
-78.3725
11
228.163
21
-78.1755
0
LINE
8
BLACK
6
CONTINUOUS
10
228.163
20
-78.1755
11
228.146
21
-77.9727
0
LINE
8
BLACK
6
CONTINUOUS
10
228.146
20
-77.9727
11
228.146
21
-77.9713
0
LINE
8
BLACK
6
CONTINUOUS
10
228.146
20
-77.9713
11
228.168
21
-77.7677
0
LINE
8
BLACK
6
CONTINUOUS
10
228.308
20
-78.3374
11
228.393
21
-78.5031
0
LINE
8
BLACK
6
CONTINUOUS
10
228.393
20
-78.5031
11
228.509
21
-78.6491
0
LINE
8
BLACK
6
CONTINUOUS
10
228.509
20
-78.6491
11
228.651
21
-78.7699
0
LINE
8
BLACK
6
CONTINUOUS
10
228.651
20
-78.7699
11
228.813
21
-78.8608
0
LINE
8
BLACK
6
CONTINUOUS
10
228.813
20
-78.8608
11
228.991
21
-78.9183
0
LINE
8
BLACK
6
CONTINUOUS
10
228.991
20
-78.9183
11
229.176
21
-78.9404
0
LINE
8
BLACK
6
CONTINUOUS
10
229.176
20
-78.9404
11
229.361
21
-78.9261
0
LINE
8
BLACK
6
CONTINUOUS
10
229.361
20
-78.9261
11
229.541
21
-78.876
0
LINE
8
BLACK
6
CONTINUOUS
10
229.541
20
-78.876
11
229.707
21
-78.792
0
LINE
8
BLACK
6
CONTINUOUS
10
229.707
20
-78.792
11
229.854
21
-78.6773
0
LINE
8
BLACK
6
CONTINUOUS
10
229.854
20
-78.6773
11
229.976
21
-78.5363
0
LINE
8
BLACK
6
CONTINUOUS
10
229.976
20
-78.5363
11
230.068
21
-78.3743
0
LINE
8
BLACK
6
CONTINUOUS
10
230.068
20
-78.3743
11
230.126
21
-78.1975
0
LINE
8
BLACK
6
CONTINUOUS
10
230.126
20
-78.1975
11
230.15
21
-78.0127
0
LINE
8
BLACK
6
CONTINUOUS
10
230.15
20
-78.0127
11
230.15
21
-77.986
0
LINE
8
BLACK
6
CONTINUOUS
10
230.15
20
-77.986
11
230.132
21
-77.8006
0
LINE
8
BLACK
6
CONTINUOUS
10
230.132
20
-77.8006
11
230.078
21
-77.6222
0
LINE
8
BLACK
6
CONTINUOUS
10
230.078
20
-77.6222
11
229.991
21
-77.4577
0
LINE
8
BLACK
6
CONTINUOUS
10
229.991
20
-77.4577
11
229.873
21
-77.3134
0
LINE
8
BLACK
6
CONTINUOUS
10
229.873
20
-77.3134
11
229.729
21
-77.1946
0
LINE
8
BLACK
6
CONTINUOUS
10
229.729
20
-77.1946
11
229.565
21
-77.106
0
LINE
8
BLACK
6
CONTINUOUS
10
229.565
20
-77.106
11
229.387
21
-77.0509
0
LINE
8
BLACK
6
CONTINUOUS
10
229.387
20
-77.0509
11
229.202
21
-77.0314
0
LINE
8
BLACK
6
CONTINUOUS
10
229.202
20
-77.0314
11
229.017
21
-77.0483
0
LINE
8
BLACK
6
CONTINUOUS
10
229.017
20
-77.0483
11
228.838
21
-77.1009
0
LINE
8
BLACK
6
CONTINUOUS
10
228.838
20
-77.1009
11
228.673
21
-77.1872
0
LINE
8
BLACK
6
CONTINUOUS
10
228.673
20
-77.1872
11
228.528
21
-77.304
0
LINE
8
BLACK
6
CONTINUOUS
10
228.528
20
-77.304
11
228.408
21
-77.4467
0
LINE
8
BLACK
6
CONTINUOUS
10
228.408
20
-77.4467
11
228.318
21
-77.6099
0
LINE
8
BLACK
6
CONTINUOUS
10
228.318
20
-77.6099
11
228.262
21
-77.7875
0
LINE
8
BLACK
6
CONTINUOUS
10
228.262
20
-77.7875
11
228.241
21
-77.9727
0
LINE
8
BLACK
6
CONTINUOUS
10
228.241
20
-77.9727
11
228.257
21
-78.1583
0
LINE
8
BLACK
6
CONTINUOUS
10
228.257
20
-78.1583
11
228.308
21
-78.3374
0
LINE
8
BLACK
6
CONTINUOUS
10
48.3839
20
-77.7677
11
48.4459
21
-77.5724
0
LINE
8
BLACK
6
CONTINUOUS
10
48.4459
20
-77.5724
11
48.5446
21
-77.3928
0
LINE
8
BLACK
6
CONTINUOUS
10
48.5446
20
-77.3928
11
48.6763
21
-77.2358
0
LINE
8
BLACK
6
CONTINUOUS
10
48.6763
20
-77.2358
11
48.836
21
-77.1074
0
LINE
8
BLACK
6
CONTINUOUS
10
48.836
20
-77.1074
11
49.0176
21
-77.0125
0
LINE
8
BLACK
6
CONTINUOUS
10
49.0176
20
-77.0125
11
49.2142
21
-76.9546
0
LINE
8
BLACK
6
CONTINUOUS
10
49.2142
20
-76.9546
11
49.4183
21
-76.936
0
LINE
8
BLACK
6
CONTINUOUS
10
49.4183
20
-76.936
11
49.6221
21
-76.9574
0
LINE
8
BLACK
6
CONTINUOUS
10
49.6221
20
-76.9574
11
49.8179
21
-77.018
0
LINE
8
BLACK
6
CONTINUOUS
10
49.8179
20
-77.018
11
49.9981
21
-77.1155
0
LINE
8
BLACK
6
CONTINUOUS
10
49.9981
20
-77.1155
11
50.156
21
-77.2461
0
LINE
8
BLACK
6
CONTINUOUS
10
50.156
20
-77.2461
11
50.2855
21
-77.4049
0
LINE
8
BLACK
6
CONTINUOUS
10
50.2855
20
-77.4049
11
50.3818
21
-77.5859
0
LINE
8
BLACK
6
CONTINUOUS
10
50.3818
20
-77.5859
11
50.441
21
-77.7821
0
LINE
8
BLACK
6
CONTINUOUS
10
50.441
20
-77.7821
11
50.461
21
-77.986
0
LINE
8
BLACK
6
CONTINUOUS
10
50.461
20
-77.986
11
50.4606
21
-78.0153
0
LINE
8
BLACK
6
CONTINUOUS
10
50.4606
20
-78.0153
11
50.4349
21
-78.2186
0
LINE
8
BLACK
6
CONTINUOUS
10
50.4349
20
-78.2186
11
50.3702
21
-78.4131
0
LINE
8
BLACK
6
CONTINUOUS
10
50.3702
20
-78.4131
11
50.269
21
-78.5913
0
LINE
8
BLACK
6
CONTINUOUS
10
50.269
20
-78.5913
11
50.1351
21
-78.7464
0
LINE
8
BLACK
6
CONTINUOUS
10
50.1351
20
-78.7464
11
49.9736
21
-78.8725
0
LINE
8
BLACK
6
CONTINUOUS
10
49.9736
20
-78.8725
11
49.7907
21
-78.9649
0
LINE
8
BLACK
6
CONTINUOUS
10
49.7907
20
-78.9649
11
49.5933
21
-79.0201
0
LINE
8
BLACK
6
CONTINUOUS
10
49.5933
20
-79.0201
11
49.389
21
-79.0358
0
LINE
8
BLACK
6
CONTINUOUS
10
49.389
20
-79.0358
11
49.1855
21
-79.0115
0
LINE
8
BLACK
6
CONTINUOUS
10
49.1855
20
-79.0115
11
48.9906
21
-78.9482
0
LINE
8
BLACK
6
CONTINUOUS
10
48.9906
20
-78.9482
11
48.8117
21
-78.8482
0
LINE
8
BLACK
6
CONTINUOUS
10
48.8117
20
-78.8482
11
48.6557
21
-78.7154
0
LINE
8
BLACK
6
CONTINUOUS
10
48.6557
20
-78.7154
11
48.5284
21
-78.5548
0
LINE
8
BLACK
6
CONTINUOUS
10
48.5284
20
-78.5548
11
48.4347
21
-78.3725
0
LINE
8
BLACK
6
CONTINUOUS
10
48.4347
20
-78.3725
11
48.3782
21
-78.1755
0
LINE
8
BLACK
6
CONTINUOUS
10
48.3782
20
-78.1755
11
48.3612
21
-77.9727
0
LINE
8
BLACK
6
CONTINUOUS
10
48.3612
20
-77.9727
11
48.3611
21
-77.9713
0
LINE
8
BLACK
6
CONTINUOUS
10
48.3611
20
-77.9713
11
48.3839
21
-77.7677
0
LINE
8
BLACK
6
CONTINUOUS
10
48.5234
20
-78.3374
11
48.6086
21
-78.5031
0
LINE
8
BLACK
6
CONTINUOUS
10
48.6086
20
-78.5031
11
48.7243
21
-78.6491
0
LINE
8
BLACK
6
CONTINUOUS
10
48.7243
20
-78.6491
11
48.8662
21
-78.7699
0
LINE
8
BLACK
6
CONTINUOUS
10
48.8662
20
-78.7699
11
49.0288
21
-78.8608
0
LINE
8
BLACK
6
CONTINUOUS
10
49.0288
20
-78.8608
11
49.206
21
-78.9183
0
LINE
8
BLACK
6
CONTINUOUS
10
49.206
20
-78.9183
11
49.391
21
-78.9404
0
LINE
8
BLACK
6
CONTINUOUS
10
49.391
20
-78.9404
11
49.5767
21
-78.9261
0
LINE
8
BLACK
6
CONTINUOUS
10
49.5767
20
-78.9261
11
49.7562
21
-78.876
0
LINE
8
BLACK
6
CONTINUOUS
10
49.7562
20
-78.876
11
49.9225
21
-78.792
0
LINE
8
BLACK
6
CONTINUOUS
10
49.9225
20
-78.792
11
50.0693
21
-78.6773
0
LINE
8
BLACK
6
CONTINUOUS
10
50.0693
20
-78.6773
11
50.191
21
-78.5363
0
LINE
8
BLACK
6
CONTINUOUS
10
50.191
20
-78.5363
11
50.283
21
-78.3743
0
LINE
8
BLACK
6
CONTINUOUS
10
50.283
20
-78.3743
11
50.3419
21
-78.1975
0
LINE
8
BLACK
6
CONTINUOUS
10
50.3419
20
-78.1975
11
50.3652
21
-78.0127
0
LINE
8
BLACK
6
CONTINUOUS
10
50.3652
20
-78.0127
11
50.3656
21
-77.986
0
LINE
8
BLACK
6
CONTINUOUS
10
50.3656
20
-77.986
11
50.3474
21
-77.8006
0
LINE
8
BLACK
6
CONTINUOUS
10
50.3474
20
-77.8006
11
50.2935
21
-77.6222
0
LINE
8
BLACK
6
CONTINUOUS
10
50.2935
20
-77.6222
11
50.2061
21
-77.4577
0
LINE
8
BLACK
6
CONTINUOUS
10
50.2061
20
-77.4577
11
50.0883
21
-77.3134
0
LINE
8
BLACK
6
CONTINUOUS
10
50.0883
20
-77.3134
11
49.9448
21
-77.1946
0
LINE
8
BLACK
6
CONTINUOUS
10
49.9448
20
-77.1946
11
49.7809
21
-77.106
0
LINE
8
BLACK
6
CONTINUOUS
10
49.7809
20
-77.106
11
49.6029
21
-77.0509
0
LINE
8
BLACK
6
CONTINUOUS
10
49.6029
20
-77.0509
11
49.4176
21
-77.0314
0
LINE
8
BLACK
6
CONTINUOUS
10
49.4176
20
-77.0314
11
49.2321
21
-77.0483
0
LINE
8
BLACK
6
CONTINUOUS
10
49.2321
20
-77.0483
11
49.0534
21
-77.1009
0
LINE
8
BLACK
6
CONTINUOUS
10
49.0534
20
-77.1009
11
48.8883
21
-77.1872
0
LINE
8
BLACK
6
CONTINUOUS
10
48.8883
20
-77.1872
11
48.7431
21
-77.304
0
LINE
8
BLACK
6
CONTINUOUS
10
48.7431
20
-77.304
11
48.6233
21
-77.4467
0
LINE
8
BLACK
6
CONTINUOUS
10
48.6233
20
-77.4467
11
48.5336
21
-77.6099
0
LINE
8
BLACK
6
CONTINUOUS
10
48.5336
20
-77.6099
11
48.4772
21
-77.7875
0
LINE
8
BLACK
6
CONTINUOUS
10
48.4772
20
-77.7875
11
48.4565
21
-77.9727
0
LINE
8
BLACK
6
CONTINUOUS
10
48.4565
20
-77.9727
11
48.4721
21
-78.1583
0
LINE
8
BLACK
6
CONTINUOUS
10
48.4721
20
-78.1583
11
48.5234
21
-78.3374
0
LINE
8
BLACK
6
CONTINUOUS
10
104.343
20
-44.4302
11
104.405
21
-44.2348
0
LINE
8
BLACK
6
CONTINUOUS
10
104.405
20
-44.2348
11
104.504
21
-44.0553
0
LINE
8
BLACK
6
CONTINUOUS
10
104.504
20
-44.0553
11
104.636
21
-43.8983
0
LINE
8
BLACK
6
CONTINUOUS
10
104.636
20
-43.8983
11
104.795
21
-43.7699
0
LINE
8
BLACK
6
CONTINUOUS
10
104.795
20
-43.7699
11
104.977
21
-43.6749
0
LINE
8
BLACK
6
CONTINUOUS
10
104.977
20
-43.6749
11
105.174
21
-43.6171
0
LINE
8
BLACK
6
CONTINUOUS
10
105.174
20
-43.6171
11
105.378
21
-43.5985
0
LINE
8
BLACK
6
CONTINUOUS
10
105.378
20
-43.5985
11
105.582
21
-43.6199
0
LINE
8
BLACK
6
CONTINUOUS
10
105.582
20
-43.6199
11
105.777
21
-43.6805
0
LINE
8
BLACK
6
CONTINUOUS
10
105.777
20
-43.6805
11
105.958
21
-43.778
0
LINE
8
BLACK
6
CONTINUOUS
10
105.958
20
-43.778
11
106.115
21
-43.9086
0
LINE
8
BLACK
6
CONTINUOUS
10
106.115
20
-43.9086
11
106.245
21
-44.0674
0
LINE
8
BLACK
6
CONTINUOUS
10
106.245
20
-44.0674
11
106.341
21
-44.2484
0
LINE
8
BLACK
6
CONTINUOUS
10
106.341
20
-44.2484
11
106.4
21
-44.4445
0
LINE
8
BLACK
6
CONTINUOUS
10
106.4
20
-44.4445
11
106.42
21
-44.6485
0
LINE
8
BLACK
6
CONTINUOUS
10
106.42
20
-44.6485
11
106.42
21
-44.6778
0
LINE
8
BLACK
6
CONTINUOUS
10
106.42
20
-44.6778
11
106.394
21
-44.8811
0
LINE
8
BLACK
6
CONTINUOUS
10
106.394
20
-44.8811
11
106.33
21
-45.0755
0
LINE
8
BLACK
6
CONTINUOUS
10
106.33
20
-45.0755
11
106.228
21
-45.2537
0
LINE
8
BLACK
6
CONTINUOUS
10
106.228
20
-45.2537
11
106.095
21
-45.4089
0
LINE
8
BLACK
6
CONTINUOUS
10
106.095
20
-45.4089
11
105.933
21
-45.535
0
LINE
8
BLACK
6
CONTINUOUS
10
105.933
20
-45.535
11
105.75
21
-45.6274
0
LINE
8
BLACK
6
CONTINUOUS
10
105.75
20
-45.6274
11
105.553
21
-45.6825
0
LINE
8
BLACK
6
CONTINUOUS
10
105.553
20
-45.6825
11
105.348
21
-45.6982
0
LINE
8
BLACK
6
CONTINUOUS
10
105.348
20
-45.6982
11
105.145
21
-45.674
0
LINE
8
BLACK
6
CONTINUOUS
10
105.145
20
-45.674
11
104.95
21
-45.6107
0
LINE
8
BLACK
6
CONTINUOUS
10
104.95
20
-45.6107
11
104.771
21
-45.5107
0
LINE
8
BLACK
6
CONTINUOUS
10
104.771
20
-45.5107
11
104.615
21
-45.3779
0
LINE
8
BLACK
6
CONTINUOUS
10
104.615
20
-45.3779
11
104.488
21
-45.2173
0
LINE
8
BLACK
6
CONTINUOUS
10
104.488
20
-45.2173
11
104.394
21
-45.035
0
LINE
8
BLACK
6
CONTINUOUS
10
104.394
20
-45.035
11
104.338
21
-44.838
0
LINE
8
BLACK
6
CONTINUOUS
10
104.338
20
-44.838
11
104.321
21
-44.6351
0
LINE
8
BLACK
6
CONTINUOUS
10
104.321
20
-44.6351
11
104.321
21
-44.6338
0
LINE
8
BLACK
6
CONTINUOUS
10
104.321
20
-44.6338
11
104.343
21
-44.4302
0
LINE
8
BLACK
6
CONTINUOUS
10
104.483
20
-44.9999
11
104.568
21
-45.1656
0
LINE
8
BLACK
6
CONTINUOUS
10
104.568
20
-45.1656
11
104.684
21
-45.3116
0
LINE
8
BLACK
6
CONTINUOUS
10
104.684
20
-45.3116
11
104.826
21
-45.4323
0
LINE
8
BLACK
6
CONTINUOUS
10
104.826
20
-45.4323
11
104.988
21
-45.5232
0
LINE
8
BLACK
6
CONTINUOUS
10
104.988
20
-45.5232
11
105.165
21
-45.5808
0
LINE
8
BLACK
6
CONTINUOUS
10
105.165
20
-45.5808
11
105.35
21
-45.6029
0
LINE
8
BLACK
6
CONTINUOUS
10
105.35
20
-45.6029
11
105.536
21
-45.5886
0
LINE
8
BLACK
6
CONTINUOUS
10
105.536
20
-45.5886
11
105.716
21
-45.5385
0
LINE
8
BLACK
6
CONTINUOUS
10
105.716
20
-45.5385
11
105.882
21
-45.4545
0
LINE
8
BLACK
6
CONTINUOUS
10
105.882
20
-45.4545
11
106.029
21
-45.3398
0
LINE
8
BLACK
6
CONTINUOUS
10
106.029
20
-45.3398
11
106.15
21
-45.1987
0
LINE
8
BLACK
6
CONTINUOUS
10
106.15
20
-45.1987
11
106.242
21
-45.0367
0
LINE
8
BLACK
6
CONTINUOUS
10
106.242
20
-45.0367
11
106.301
21
-44.86
0
LINE
8
BLACK
6
CONTINUOUS
10
106.301
20
-44.86
11
106.325
21
-44.6751
0
LINE
8
BLACK
6
CONTINUOUS
10
106.325
20
-44.6751
11
106.325
21
-44.6485
0
LINE
8
BLACK
6
CONTINUOUS
10
106.325
20
-44.6485
11
106.307
21
-44.4631
0
LINE
8
BLACK
6
CONTINUOUS
10
106.307
20
-44.4631
11
106.253
21
-44.2847
0
LINE
8
BLACK
6
CONTINUOUS
10
106.253
20
-44.2847
11
106.166
21
-44.1202
0
LINE
8
BLACK
6
CONTINUOUS
10
106.166
20
-44.1202
11
106.048
21
-43.9758
0
LINE
8
BLACK
6
CONTINUOUS
10
106.048
20
-43.9758
11
105.904
21
-43.8571
0
LINE
8
BLACK
6
CONTINUOUS
10
105.904
20
-43.8571
11
105.74
21
-43.7685
0
LINE
8
BLACK
6
CONTINUOUS
10
105.74
20
-43.7685
11
105.562
21
-43.7134
0
LINE
8
BLACK
6
CONTINUOUS
10
105.562
20
-43.7134
11
105.377
21
-43.6939
0
LINE
8
BLACK
6
CONTINUOUS
10
105.377
20
-43.6939
11
105.192
21
-43.7108
0
LINE
8
BLACK
6
CONTINUOUS
10
105.192
20
-43.7108
11
105.013
21
-43.7634
0
LINE
8
BLACK
6
CONTINUOUS
10
105.013
20
-43.7634
11
104.848
21
-43.8497
0
LINE
8
BLACK
6
CONTINUOUS
10
104.848
20
-43.8497
11
104.703
21
-43.9664
0
LINE
8
BLACK
6
CONTINUOUS
10
104.703
20
-43.9664
11
104.583
21
-44.1092
0
LINE
8
BLACK
6
CONTINUOUS
10
104.583
20
-44.1092
11
104.493
21
-44.2724
0
LINE
8
BLACK
6
CONTINUOUS
10
104.493
20
-44.2724
11
104.437
21
-44.45
0
LINE
8
BLACK
6
CONTINUOUS
10
104.437
20
-44.45
11
104.416
21
-44.6351
0
LINE
8
BLACK
6
CONTINUOUS
10
104.416
20
-44.6351
11
104.431
21
-44.8208
0
LINE
8
BLACK
6
CONTINUOUS
10
104.431
20
-44.8208
11
104.483
21
-44.9999
0
LINE
8
BLACK
6
CONTINUOUS
10
170.423
20
-43.8349
11
170.485
21
-43.6395
0
LINE
8
BLACK
6
CONTINUOUS
10
170.485
20
-43.6395
11
170.584
21
-43.4599
0
LINE
8
BLACK
6
CONTINUOUS
10
170.584
20
-43.4599
11
170.715
21
-43.303
0
LINE
8
BLACK
6
CONTINUOUS
10
170.715
20
-43.303
11
170.875
21
-43.1746
0
LINE
8
BLACK
6
CONTINUOUS
10
170.875
20
-43.1746
11
171.057
21
-43.0796
0
LINE
8
BLACK
6
CONTINUOUS
10
171.057
20
-43.0796
11
171.253
21
-43.0218
0
LINE
8
BLACK
6
CONTINUOUS
10
171.253
20
-43.0218
11
171.457
21
-43.0032
0
LINE
8
BLACK
6
CONTINUOUS
10
171.457
20
-43.0032
11
171.661
21
-43.0246
0
LINE
8
BLACK
6
CONTINUOUS
10
171.661
20
-43.0246
11
171.857
21
-43.0852
0
LINE
8
BLACK
6
CONTINUOUS
10
171.857
20
-43.0852
11
172.037
21
-43.1827
0
LINE
8
BLACK
6
CONTINUOUS
10
172.037
20
-43.1827
11
172.195
21
-43.3133
0
LINE
8
BLACK
6
CONTINUOUS
10
172.195
20
-43.3133
11
172.325
21
-43.4721
0
LINE
8
BLACK
6
CONTINUOUS
10
172.325
20
-43.4721
11
172.421
21
-43.653
0
LINE
8
BLACK
6
CONTINUOUS
10
172.421
20
-43.653
11
172.48
21
-43.8492
0
LINE
8
BLACK
6
CONTINUOUS
10
172.48
20
-43.8492
11
172.5
21
-44.0532
0
LINE
8
BLACK
6
CONTINUOUS
10
172.5
20
-44.0532
11
172.5
21
-44.0825
0
LINE
8
BLACK
6
CONTINUOUS
10
172.5
20
-44.0825
11
172.474
21
-44.2858
0
LINE
8
BLACK
6
CONTINUOUS
10
172.474
20
-44.2858
11
172.409
21
-44.4802
0
LINE
8
BLACK
6
CONTINUOUS
10
172.409
20
-44.4802
11
172.308
21
-44.6584
0
LINE
8
BLACK
6
CONTINUOUS
10
172.308
20
-44.6584
11
172.174
21
-44.8135
0
LINE
8
BLACK
6
CONTINUOUS
10
172.174
20
-44.8135
11
172.013
21
-44.9397
0
LINE
8
BLACK
6
CONTINUOUS
10
172.013
20
-44.9397
11
171.83
21
-45.0321
0
LINE
8
BLACK
6
CONTINUOUS
10
171.83
20
-45.0321
11
171.632
21
-45.0872
0
LINE
8
BLACK
6
CONTINUOUS
10
171.632
20
-45.0872
11
171.428
21
-45.1029
0
LINE
8
BLACK
6
CONTINUOUS
10
171.428
20
-45.1029
11
171.225
21
-45.0787
0
LINE
8
BLACK
6
CONTINUOUS
10
171.225
20
-45.0787
11
171.03
21
-45.0153
0
LINE
8
BLACK
6
CONTINUOUS
10
171.03
20
-45.0153
11
170.851
21
-44.9154
0
LINE
8
BLACK
6
CONTINUOUS
10
170.851
20
-44.9154
11
170.695
21
-44.7826
0
LINE
8
BLACK
6
CONTINUOUS
10
170.695
20
-44.7826
11
170.568
21
-44.622
0
LINE
8
BLACK
6
CONTINUOUS
10
170.568
20
-44.622
11
170.474
21
-44.4397
0
LINE
8
BLACK
6
CONTINUOUS
10
170.474
20
-44.4397
11
170.417
21
-44.2427
0
LINE
8
BLACK
6
CONTINUOUS
10
170.417
20
-44.2427
11
170.4
21
-44.0398
0
LINE
8
BLACK
6
CONTINUOUS
10
170.4
20
-44.0398
11
170.4
21
-44.0385
0
LINE
8
BLACK
6
CONTINUOUS
10
170.4
20
-44.0385
11
170.423
21
-43.8349
0
LINE
8
BLACK
6
CONTINUOUS
10
170.563
20
-44.4046
11
170.648
21
-44.5703
0
LINE
8
BLACK
6
CONTINUOUS
10
170.648
20
-44.5703
11
170.763
21
-44.7163
0
LINE
8
BLACK
6
CONTINUOUS
10
170.763
20
-44.7163
11
170.905
21
-44.837
0
LINE
8
BLACK
6
CONTINUOUS
10
170.905
20
-44.837
11
171.068
21
-44.9279
0
LINE
8
BLACK
6
CONTINUOUS
10
171.068
20
-44.9279
11
171.245
21
-44.9855
0
LINE
8
BLACK
6
CONTINUOUS
10
171.245
20
-44.9855
11
171.43
21
-45.0075
0
LINE
8
BLACK
6
CONTINUOUS
10
171.43
20
-45.0075
11
171.616
21
-44.9933
0
LINE
8
BLACK
6
CONTINUOUS
10
171.616
20
-44.9933
11
171.795
21
-44.9432
0
LINE
8
BLACK
6
CONTINUOUS
10
171.795
20
-44.9432
11
171.962
21
-44.8592
0
LINE
8
BLACK
6
CONTINUOUS
10
171.962
20
-44.8592
11
172.108
21
-44.7445
0
LINE
8
BLACK
6
CONTINUOUS
10
172.108
20
-44.7445
11
172.23
21
-44.6034
0
LINE
8
BLACK
6
CONTINUOUS
10
172.23
20
-44.6034
11
172.322
21
-44.4414
0
LINE
8
BLACK
6
CONTINUOUS
10
172.322
20
-44.4414
11
172.381
21
-44.2647
0
LINE
8
BLACK
6
CONTINUOUS
10
172.381
20
-44.2647
11
172.404
21
-44.0798
0
LINE
8
BLACK
6
CONTINUOUS
10
172.404
20
-44.0798
11
172.405
21
-44.0532
0
LINE
8
BLACK
6
CONTINUOUS
10
172.405
20
-44.0532
11
172.387
21
-43.8677
0
LINE
8
BLACK
6
CONTINUOUS
10
172.387
20
-43.8677
11
172.333
21
-43.6894
0
LINE
8
BLACK
6
CONTINUOUS
10
172.333
20
-43.6894
11
172.245
21
-43.5249
0
LINE
8
BLACK
6
CONTINUOUS
10
172.245
20
-43.5249
11
172.127
21
-43.3805
0
LINE
8
BLACK
6
CONTINUOUS
10
172.127
20
-43.3805
11
171.984
21
-43.2618
0
LINE
8
BLACK
6
CONTINUOUS
10
171.984
20
-43.2618
11
171.82
21
-43.1732
0
LINE
8
BLACK
6
CONTINUOUS
10
171.82
20
-43.1732
11
171.642
21
-43.1181
0
LINE
8
BLACK
6
CONTINUOUS
10
171.642
20
-43.1181
11
171.457
21
-43.0986
0
LINE
8
BLACK
6
CONTINUOUS
10
171.457
20
-43.0986
11
171.271
21
-43.1155
0
LINE
8
BLACK
6
CONTINUOUS
10
171.271
20
-43.1155
11
171.093
21
-43.1681
0
LINE
8
BLACK
6
CONTINUOUS
10
171.093
20
-43.1681
11
170.927
21
-43.2544
0
LINE
8
BLACK
6
CONTINUOUS
10
170.927
20
-43.2544
11
170.782
21
-43.3711
0
LINE
8
BLACK
6
CONTINUOUS
10
170.782
20
-43.3711
11
170.662
21
-43.5138
0
LINE
8
BLACK
6
CONTINUOUS
10
170.662
20
-43.5138
11
170.573
21
-43.6771
0
LINE
8
BLACK
6
CONTINUOUS
10
170.573
20
-43.6771
11
170.516
21
-43.8547
0
LINE
8
BLACK
6
CONTINUOUS
10
170.516
20
-43.8547
11
170.496
21
-44.0398
0
LINE
8
BLACK
6
CONTINUOUS
10
170.496
20
-44.0398
11
170.511
21
-44.2255
0
LINE
8
BLACK
6
CONTINUOUS
10
170.511
20
-44.2255
11
170.563
21
-44.4046
0
LINE
8
BLACK
6
CONTINUOUS
10
231.74
20
-39.0724
11
231.802
21
-38.877
0
LINE
8
BLACK
6
CONTINUOUS
10
231.802
20
-38.877
11
231.901
21
-38.6974
0
LINE
8
BLACK
6
CONTINUOUS
10
231.901
20
-38.6974
11
232.033
21
-38.5405
0
LINE
8
BLACK
6
CONTINUOUS
10
232.033
20
-38.5405
11
232.192
21
-38.4121
0
LINE
8
BLACK
6
CONTINUOUS
10
232.192
20
-38.4121
11
232.374
21
-38.3171
0
LINE
8
BLACK
6
CONTINUOUS
10
232.374
20
-38.3171
11
232.571
21
-38.2593
0
LINE
8
BLACK
6
CONTINUOUS
10
232.571
20
-38.2593
11
232.775
21
-38.2407
0
LINE
8
BLACK
6
CONTINUOUS
10
232.775
20
-38.2407
11
232.979
21
-38.2621
0
LINE
8
BLACK
6
CONTINUOUS
10
232.979
20
-38.2621
11
233.174
21
-38.3227
0
LINE
8
BLACK
6
CONTINUOUS
10
233.174
20
-38.3227
11
233.355
21
-38.4202
0
LINE
8
BLACK
6
CONTINUOUS
10
233.355
20
-38.4202
11
233.512
21
-38.5508
0
LINE
8
BLACK
6
CONTINUOUS
10
233.512
20
-38.5508
11
233.642
21
-38.7096
0
LINE
8
BLACK
6
CONTINUOUS
10
233.642
20
-38.7096
11
233.738
21
-38.8905
0
LINE
8
BLACK
6
CONTINUOUS
10
233.738
20
-38.8905
11
233.797
21
-39.0867
0
LINE
8
BLACK
6
CONTINUOUS
10
233.797
20
-39.0867
11
233.817
21
-39.2907
0
LINE
8
BLACK
6
CONTINUOUS
10
233.817
20
-39.2907
11
233.817
21
-39.32
0
LINE
8
BLACK
6
CONTINUOUS
10
233.817
20
-39.32
11
233.791
21
-39.5233
0
LINE
8
BLACK
6
CONTINUOUS
10
233.791
20
-39.5233
11
233.727
21
-39.7177
0
LINE
8
BLACK
6
CONTINUOUS
10
233.727
20
-39.7177
11
233.625
21
-39.8959
0
LINE
8
BLACK
6
CONTINUOUS
10
233.625
20
-39.8959
11
233.491
21
-40.051
0
LINE
8
BLACK
6
CONTINUOUS
10
233.491
20
-40.051
11
233.33
21
-40.1772
0
LINE
8
BLACK
6
CONTINUOUS
10
233.33
20
-40.1772
11
233.147
21
-40.2696
0
LINE
8
BLACK
6
CONTINUOUS
10
233.147
20
-40.2696
11
232.95
21
-40.3247
0
LINE
8
BLACK
6
CONTINUOUS
10
232.95
20
-40.3247
11
232.745
21
-40.3404
0
LINE
8
BLACK
6
CONTINUOUS
10
232.745
20
-40.3404
11
232.542
21
-40.3162
0
LINE
8
BLACK
6
CONTINUOUS
10
232.542
20
-40.3162
11
232.347
21
-40.2528
0
LINE
8
BLACK
6
CONTINUOUS
10
232.347
20
-40.2528
11
232.168
21
-40.1529
0
LINE
8
BLACK
6
CONTINUOUS
10
232.168
20
-40.1529
11
232.012
21
-40.02
0
LINE
8
BLACK
6
CONTINUOUS
10
232.012
20
-40.02
11
231.885
21
-39.8595
0
LINE
8
BLACK
6
CONTINUOUS
10
231.885
20
-39.8595
11
231.791
21
-39.6772
0
LINE
8
BLACK
6
CONTINUOUS
10
231.791
20
-39.6772
11
231.735
21
-39.4802
0
LINE
8
BLACK
6
CONTINUOUS
10
231.735
20
-39.4802
11
231.718
21
-39.2773
0
LINE
8
BLACK
6
CONTINUOUS
10
231.718
20
-39.2773
11
231.717
21
-39.276
0
LINE
8
BLACK
6
CONTINUOUS
10
231.717
20
-39.276
11
231.74
21
-39.0724
0
LINE
8
BLACK
6
CONTINUOUS
10
231.88
20
-39.6421
11
231.965
21
-39.8078
0
LINE
8
BLACK
6
CONTINUOUS
10
231.965
20
-39.8078
11
232.081
21
-39.9538
0
LINE
8
BLACK
6
CONTINUOUS
10
232.081
20
-39.9538
11
232.223
21
-40.0745
0
LINE
8
BLACK
6
CONTINUOUS
10
232.223
20
-40.0745
11
232.385
21
-40.1654
0
LINE
8
BLACK
6
CONTINUOUS
10
232.385
20
-40.1654
11
232.562
21
-40.223
0
LINE
8
BLACK
6
CONTINUOUS
10
232.562
20
-40.223
11
232.747
21
-40.245
0
LINE
8
BLACK
6
CONTINUOUS
10
232.747
20
-40.245
11
232.933
21
-40.2308
0
LINE
8
BLACK
6
CONTINUOUS
10
232.933
20
-40.2308
11
233.113
21
-40.1807
0
LINE
8
BLACK
6
CONTINUOUS
10
233.113
20
-40.1807
11
233.279
21
-40.0967
0
LINE
8
BLACK
6
CONTINUOUS
10
233.279
20
-40.0967
11
233.426
21
-39.9819
0
LINE
8
BLACK
6
CONTINUOUS
10
233.426
20
-39.9819
11
233.547
21
-39.8409
0
LINE
8
BLACK
6
CONTINUOUS
10
233.547
20
-39.8409
11
233.639
21
-39.6789
0
LINE
8
BLACK
6
CONTINUOUS
10
233.639
20
-39.6789
11
233.698
21
-39.5021
0
LINE
8
BLACK
6
CONTINUOUS
10
233.698
20
-39.5021
11
233.722
21
-39.3173
0
LINE
8
BLACK
6
CONTINUOUS
10
233.722
20
-39.3173
11
233.722
21
-39.2907
0
LINE
8
BLACK
6
CONTINUOUS
10
233.722
20
-39.2907
11
233.704
21
-39.1052
0
LINE
8
BLACK
6
CONTINUOUS
10
233.704
20
-39.1052
11
233.65
21
-38.9269
0
LINE
8
BLACK
6
CONTINUOUS
10
233.65
20
-38.9269
11
233.562
21
-38.7624
0
LINE
8
BLACK
6
CONTINUOUS
10
233.562
20
-38.7624
11
233.445
21
-38.618
0
LINE
8
BLACK
6
CONTINUOUS
10
233.445
20
-38.618
11
233.301
21
-38.4993
0
LINE
8
BLACK
6
CONTINUOUS
10
233.301
20
-38.4993
11
233.137
21
-38.4106
0
LINE
8
BLACK
6
CONTINUOUS
10
233.137
20
-38.4106
11
232.959
21
-38.3556
0
LINE
8
BLACK
6
CONTINUOUS
10
232.959
20
-38.3556
11
232.774
21
-38.3361
0
LINE
8
BLACK
6
CONTINUOUS
10
232.774
20
-38.3361
11
232.589
21
-38.353
0
LINE
8
BLACK
6
CONTINUOUS
10
232.589
20
-38.353
11
232.41
21
-38.4056
0
LINE
8
BLACK
6
CONTINUOUS
10
232.41
20
-38.4056
11
232.245
21
-38.4919
0
LINE
8
BLACK
6
CONTINUOUS
10
232.245
20
-38.4919
11
232.099
21
-38.6086
0
LINE
8
BLACK
6
CONTINUOUS
10
232.099
20
-38.6086
11
231.98
21
-38.7513
0
LINE
8
BLACK
6
CONTINUOUS
10
231.98
20
-38.7513
11
231.89
21
-38.9146
0
LINE
8
BLACK
6
CONTINUOUS
10
231.89
20
-38.9146
11
231.834
21
-39.0922
0
LINE
8
BLACK
6
CONTINUOUS
10
231.834
20
-39.0922
11
231.813
21
-39.2773
0
LINE
8
BLACK
6
CONTINUOUS
10
231.813
20
-39.2773
11
231.828
21
-39.463
0
LINE
8
BLACK
6
CONTINUOUS
10
231.828
20
-39.463
11
231.88
21
-39.6421
0
LINE
8
BLACK
6
CONTINUOUS
10
43.6214
20
-39.0724
11
43.6834
21
-38.877
0
LINE
8
BLACK
6
CONTINUOUS
10
43.6834
20
-38.877
11
43.7821
21
-38.6974
0
LINE
8
BLACK
6
CONTINUOUS
10
43.7821
20
-38.6974
11
43.9138
21
-38.5405
0
LINE
8
BLACK
6
CONTINUOUS
10
43.9138
20
-38.5405
11
44.0735
21
-38.4121
0
LINE
8
BLACK
6
CONTINUOUS
10
44.0735
20
-38.4121
11
44.2551
21
-38.3171
0
LINE
8
BLACK
6
CONTINUOUS
10
44.2551
20
-38.3171
11
44.4517
21
-38.2593
0
LINE
8
BLACK
6
CONTINUOUS
10
44.4517
20
-38.2593
11
44.6558
21
-38.2407
0
LINE
8
BLACK
6
CONTINUOUS
10
44.6558
20
-38.2407
11
44.8596
21
-38.2621
0
LINE
8
BLACK
6
CONTINUOUS
10
44.8596
20
-38.2621
11
45.0554
21
-38.3227
0
LINE
8
BLACK
6
CONTINUOUS
10
45.0554
20
-38.3227
11
45.2356
21
-38.4202
0
LINE
8
BLACK
6
CONTINUOUS
10
45.2356
20
-38.4202
11
45.3935
21
-38.5508
0
LINE
8
BLACK
6
CONTINUOUS
10
45.3935
20
-38.5508
11
45.523
21
-38.7096
0
LINE
8
BLACK
6
CONTINUOUS
10
45.523
20
-38.7096
11
45.6192
21
-38.8905
0
LINE
8
BLACK
6
CONTINUOUS
10
45.6192
20
-38.8905
11
45.6785
21
-39.0867
0
LINE
8
BLACK
6
CONTINUOUS
10
45.6785
20
-39.0867
11
45.6985
21
-39.2907
0
LINE
8
BLACK
6
CONTINUOUS
10
45.6985
20
-39.2907
11
45.6981
21
-39.32
0
LINE
8
BLACK
6
CONTINUOUS
10
45.6981
20
-39.32
11
45.6724
21
-39.5233
0
LINE
8
BLACK
6
CONTINUOUS
10
45.6724
20
-39.5233
11
45.6077
21
-39.7177
0
LINE
8
BLACK
6
CONTINUOUS
10
45.6077
20
-39.7177
11
45.5065
21
-39.8959
0
LINE
8
BLACK
6
CONTINUOUS
10
45.5065
20
-39.8959
11
45.3726
21
-40.051
0
LINE
8
BLACK
6
CONTINUOUS
10
45.3726
20
-40.051
11
45.2111
21
-40.1772
0
LINE
8
BLACK
6
CONTINUOUS
10
45.2111
20
-40.1772
11
45.0282
21
-40.2696
0
LINE
8
BLACK
6
CONTINUOUS
10
45.0282
20
-40.2696
11
44.8308
21
-40.3247
0
LINE
8
BLACK
6
CONTINUOUS
10
44.8308
20
-40.3247
11
44.6265
21
-40.3404
0
LINE
8
BLACK
6
CONTINUOUS
10
44.6265
20
-40.3404
11
44.423
21
-40.3162
0
LINE
8
BLACK
6
CONTINUOUS
10
44.423
20
-40.3162
11
44.2281
21
-40.2528
0
LINE
8
BLACK
6
CONTINUOUS
10
44.2281
20
-40.2528
11
44.0492
21
-40.1529
0
LINE
8
BLACK
6
CONTINUOUS
10
44.0492
20
-40.1529
11
43.8932
21
-40.02
0
LINE
8
BLACK
6
CONTINUOUS
10
43.8932
20
-40.02
11
43.7659
21
-39.8595
0
LINE
8
BLACK
6
CONTINUOUS
10
43.7659
20
-39.8595
11
43.6722
21
-39.6772
0
LINE
8
BLACK
6
CONTINUOUS
10
43.6722
20
-39.6772
11
43.6157
21
-39.4802
0
LINE
8
BLACK
6
CONTINUOUS
10
43.6157
20
-39.4802
11
43.5987
21
-39.2773
0
LINE
8
BLACK
6
CONTINUOUS
10
43.5987
20
-39.2773
11
43.5986
21
-39.276
0
LINE
8
BLACK
6
CONTINUOUS
10
43.5986
20
-39.276
11
43.6214
21
-39.0724
0
LINE
8
BLACK
6
CONTINUOUS
10
43.7609
20
-39.6421
11
43.8461
21
-39.8078
0
LINE
8
BLACK
6
CONTINUOUS
10
43.8461
20
-39.8078
11
43.9618
21
-39.9538
0
LINE
8
BLACK
6
CONTINUOUS
10
43.9618
20
-39.9538
11
44.1037
21
-40.0745
0
LINE
8
BLACK
6
CONTINUOUS
10
44.1037
20
-40.0745
11
44.2663
21
-40.1654
0
LINE
8
BLACK
6
CONTINUOUS
10
44.2663
20
-40.1654
11
44.4435
21
-40.223
0
LINE
8
BLACK
6
CONTINUOUS
10
44.4435
20
-40.223
11
44.6285
21
-40.245
0
LINE
8
BLACK
6
CONTINUOUS
10
44.6285
20
-40.245
11
44.8142
21
-40.2308
0
LINE
8
BLACK
6
CONTINUOUS
10
44.8142
20
-40.2308
11
44.9937
21
-40.1807
0
LINE
8
BLACK
6
CONTINUOUS
10
44.9937
20
-40.1807
11
45.16
21
-40.0967
0
LINE
8
BLACK
6
CONTINUOUS
10
45.16
20
-40.0967
11
45.3068
21
-39.9819
0
LINE
8
BLACK
6
CONTINUOUS
10
45.3068
20
-39.9819
11
45.4285
21
-39.8409
0
LINE
8
BLACK
6
CONTINUOUS
10
45.4285
20
-39.8409
11
45.5205
21
-39.6789
0
LINE
8
BLACK
6
CONTINUOUS
10
45.5205
20
-39.6789
11
45.5793
21
-39.5021
0
LINE
8
BLACK
6
CONTINUOUS
10
45.5793
20
-39.5021
11
45.6027
21
-39.3173
0
LINE
8
BLACK
6
CONTINUOUS
10
45.6027
20
-39.3173
11
45.6031
21
-39.2907
0
LINE
8
BLACK
6
CONTINUOUS
10
45.6031
20
-39.2907
11
45.5849
21
-39.1052
0
LINE
8
BLACK
6
CONTINUOUS
10
45.5849
20
-39.1052
11
45.531
21
-38.9269
0
LINE
8
BLACK
6
CONTINUOUS
10
45.531
20
-38.9269
11
45.4436
21
-38.7624
0
LINE
8
BLACK
6
CONTINUOUS
10
45.4436
20
-38.7624
11
45.3258
21
-38.618
0
LINE
8
BLACK
6
CONTINUOUS
10
45.3258
20
-38.618
11
45.1823
21
-38.4993
0
LINE
8
BLACK
6
CONTINUOUS
10
45.1823
20
-38.4993
11
45.0184
21
-38.4106
0
LINE
8
BLACK
6
CONTINUOUS
10
45.0184
20
-38.4106
11
44.8404
21
-38.3556
0
LINE
8
BLACK
6
CONTINUOUS
10
44.8404
20
-38.3556
11
44.6551
21
-38.3361
0
LINE
8
BLACK
6
CONTINUOUS
10
44.6551
20
-38.3361
11
44.4696
21
-38.353
0
LINE
8
BLACK
6
CONTINUOUS
10
44.4696
20
-38.353
11
44.2909
21
-38.4056
0
LINE
8
BLACK
6
CONTINUOUS
10
44.2909
20
-38.4056
11
44.1258
21
-38.4919
0
LINE
8
BLACK
6
CONTINUOUS
10
44.1258
20
-38.4919
11
43.9806
21
-38.6086
0
LINE
8
BLACK
6
CONTINUOUS
10
43.9806
20
-38.6086
11
43.8608
21
-38.7513
0
LINE
8
BLACK
6
CONTINUOUS
10
43.8608
20
-38.7513
11
43.7711
21
-38.9146
0
LINE
8
BLACK
6
CONTINUOUS
10
43.7711
20
-38.9146
11
43.7147
21
-39.0922
0
LINE
8
BLACK
6
CONTINUOUS
10
43.7147
20
-39.0922
11
43.694
21
-39.2773
0
LINE
8
BLACK
6
CONTINUOUS
10
43.694
20
-39.2773
11
43.7096
21
-39.463
0
LINE
8
BLACK
6
CONTINUOUS
10
43.7096
20
-39.463
11
43.7609
21
-39.6421
  0
ENDSEC
  0
EOF
