  0
SECTION
  2
HEADER
  9
$ANGBASE
  50
0.0
  9
$ANGDIR
  70
1
  9
$MEASUREMENT
  70
1
  0
ENDSEC
  0
SECTION
  2
TABLES
  0
TABLE
  2
LTYPE
  70
4
  0
LTYPE
  5
40F
  2
CONTINUOUS
  70
0
  3
Solid line
  72
65
  73
0
  40
0.0
  0
LTYPE
  5
410
  2
DASHDOT
 70
0
  3
Dash Dot ____ _ ____ _
 72
65
 73
4
 40
2.0
 49
1.25
 49
-0.25
 49
0.25
 49
-0.25
  0
LTYPE
  5
411
  2
DASHED
 70
0
  3
Dashed __ __ __ __ __
 72
65
 73
2
 40
0.75
 49
0.5
 49
-0.25
  0
LTYPE
  5
43B
  2
DOTTED
 70
0
  3
Dotted .  .  .  .
 72
65
 73
2
 40
0.2
 49
0.0
 49
-0.2
  0
ENDTAB
  0
TABLE
  2
STYLE
  70
4
  0
STYLE
  2
KICAD
  70
0
  40
0
  41
1
  42
1
  50
0
  71
0
  3
isocp.shx
  0
STYLE
  2
KICADB
  70
0
  40
0
  41
1
  42
1
  50
0
  71
0
  3
isocp.shx
  0
STYLE
  2
KICADI
  70
0
  40
0
  41
1
  42
1
  50
15
  71
0
  3
isocp.shx
  0
STYLE
  2
KICADBI
  70
0
  40
0
  41
1
  42
1
  50
15
  71
0
  3
isocp.shx
  0
ENDTAB
  0
TABLE
  2
LAYER
  70
1
  0
LAYER
  2
BLACK
  70
0
  62
7
  6
CONTINUOUS
  0
ENDTAB
  0
ENDSEC
  0
SECTION
  2
ENTITIES
0
LINE
8
BLACK
6
CONTINUOUS
10
155.7
20
-63.628
11
155.707
21
-63.6345
0
LINE
8
BLACK
6
CONTINUOUS
10
155.707
20
-63.6345
11
155.717
21
-63.6371
0
LINE
8
BLACK
6
CONTINUOUS
10
155.717
20
-63.6371
11
155.727
21
-63.6505
0
LINE
8
BLACK
6
CONTINUOUS
10
155.727
20
-63.6505
11
155.739
21
-63.661
0
LINE
8
BLACK
6
CONTINUOUS
10
155.739
20
-63.661
11
155.741
21
-63.6709
0
LINE
8
BLACK
6
CONTINUOUS
10
155.741
20
-63.6709
11
155.747
21
-63.6792
0
LINE
8
BLACK
6
CONTINUOUS
10
155.747
20
-63.6792
11
156.348
21
-65.9338
0
LINE
8
BLACK
6
CONTINUOUS
10
156.348
20
-65.9338
11
156.35
21
-65.9598
0
LINE
8
BLACK
6
CONTINUOUS
10
156.35
20
-65.9598
11
156.328
21
-66.0062
0
LINE
8
BLACK
6
CONTINUOUS
10
156.328
20
-66.0062
11
156.282
21
-66.0279
0
LINE
8
BLACK
6
CONTINUOUS
10
156.282
20
-66.0279
11
156.251
21
-66.0196
0
LINE
8
BLACK
6
CONTINUOUS
10
156.251
20
-66.0196
11
147.612
21
-67.8559
0
LINE
8
BLACK
6
CONTINUOUS
10
147.612
20
-67.8559
11
151.676
21
-86.9768
0
LINE
8
BLACK
6
CONTINUOUS
10
151.676
20
-86.9768
11
151.691
21
-86.9908
0
LINE
8
BLACK
6
CONTINUOUS
10
151.691
20
-86.9908
11
152.552
21
-88.6272
0
LINE
8
BLACK
6
CONTINUOUS
10
152.552
20
-88.6272
11
152.56
21
-88.652
0
LINE
8
BLACK
6
CONTINUOUS
10
152.56
20
-88.652
11
152.553
21
-88.6857
0
LINE
8
BLACK
6
CONTINUOUS
10
152.553
20
-88.6857
11
157.089
21
-108.334
0
LINE
8
BLACK
6
CONTINUOUS
10
157.089
20
-108.334
11
157.104
21
-108.346
0
LINE
8
BLACK
6
CONTINUOUS
10
157.104
20
-108.346
11
157.113
21
-108.397
0
LINE
8
BLACK
6
CONTINUOUS
10
157.113
20
-108.397
11
157.087
21
-108.441
0
LINE
8
BLACK
6
CONTINUOUS
10
157.087
20
-108.441
11
157.039
21
-108.459
0
LINE
8
BLACK
6
CONTINUOUS
10
157.039
20
-108.459
11
121.835
21
-108.49
0
LINE
8
BLACK
6
CONTINUOUS
10
121.835
20
-108.49
11
121.81
21
-108.485
0
LINE
8
BLACK
6
CONTINUOUS
10
121.81
20
-108.485
11
121.77
21
-108.452
0
LINE
8
BLACK
6
CONTINUOUS
10
121.77
20
-108.452
11
121.761
21
-108.402
0
LINE
8
BLACK
6
CONTINUOUS
10
121.761
20
-108.402
11
121.787
21
-108.357
0
LINE
8
BLACK
6
CONTINUOUS
10
121.787
20
-108.357
11
126.053
21
-89.878
0
LINE
8
BLACK
6
CONTINUOUS
10
126.053
20
-89.878
11
126.047
21
-89.8687
0
LINE
8
BLACK
6
CONTINUOUS
10
126.047
20
-89.8687
11
126.054
21
-89.8179
0
LINE
8
BLACK
6
CONTINUOUS
10
126.054
20
-89.8179
11
126.915
21
-88.1815
0
LINE
8
BLACK
6
CONTINUOUS
10
126.915
20
-88.1815
11
126.931
21
-88.1609
0
LINE
8
BLACK
6
CONTINUOUS
10
126.931
20
-88.1609
11
126.932
21
-88.1605
0
LINE
8
BLACK
6
CONTINUOUS
10
126.932
20
-88.1605
11
130.995
21
-69.0466
0
LINE
8
BLACK
6
CONTINUOUS
10
130.995
20
-69.0466
11
122.361
21
-67.2113
0
LINE
8
BLACK
6
CONTINUOUS
10
122.361
20
-67.2113
11
122.357
21
-67.2142
0
LINE
8
BLACK
6
CONTINUOUS
10
122.357
20
-67.2142
11
122.306
21
-67.2143
0
LINE
8
BLACK
6
CONTINUOUS
10
122.306
20
-67.2143
11
122.266
21
-67.1814
0
LINE
8
BLACK
6
CONTINUOUS
10
122.266
20
-67.1814
11
122.257
21
-67.1309
0
LINE
8
BLACK
6
CONTINUOUS
10
122.257
20
-67.1309
11
122.858
21
-63.6856
0
LINE
8
BLACK
6
CONTINUOUS
10
122.858
20
-63.6856
11
122.858
21
-63.6855
0
LINE
8
BLACK
6
CONTINUOUS
10
122.858
20
-63.6855
11
122.858
21
-63.6855
0
LINE
8
BLACK
6
CONTINUOUS
10
122.858
20
-63.6855
11
122.858
21
-63.6853
0
LINE
8
BLACK
6
CONTINUOUS
10
122.858
20
-63.6853
11
122.867
21
-63.6611
0
LINE
8
BLACK
6
CONTINUOUS
10
122.867
20
-63.6611
11
122.877
21
-63.6525
0
LINE
8
BLACK
6
CONTINUOUS
10
122.877
20
-63.6525
11
122.884
21
-63.641
0
LINE
8
BLACK
6
CONTINUOUS
10
122.884
20
-63.641
11
122.896
21
-63.6365
0
LINE
8
BLACK
6
CONTINUOUS
10
122.896
20
-63.6365
11
122.906
21
-63.6281
0
LINE
8
BLACK
6
CONTINUOUS
10
122.906
20
-63.6281
11
122.919
21
-63.628
0
LINE
8
BLACK
6
CONTINUOUS
10
122.919
20
-63.628
11
122.932
21
-63.6235
0
LINE
8
BLACK
6
CONTINUOUS
10
122.932
20
-63.6235
11
155.674
21
-63.6235
0
LINE
8
BLACK
6
CONTINUOUS
10
155.674
20
-63.6235
11
155.7
21
-63.628
0
LINE
8
BLACK
6
CONTINUOUS
10
122.995
20
-63.7735
11
122.415
21
-67.1002
0
LINE
8
BLACK
6
CONTINUOUS
10
122.415
20
-67.1002
11
131.078
21
-68.9417
0
LINE
8
BLACK
6
CONTINUOUS
10
131.078
20
-68.9417
11
131.078
21
-68.9417
0
LINE
8
BLACK
6
CONTINUOUS
10
131.078
20
-68.9417
11
131.116
21
-68.9677
0
LINE
8
BLACK
6
CONTINUOUS
10
131.116
20
-68.9677
11
131.125
21
-69.0128
0
LINE
8
BLACK
6
CONTINUOUS
10
131.125
20
-69.0128
11
127.048
21
-88.1903
0
LINE
8
BLACK
6
CONTINUOUS
10
127.048
20
-88.1903
11
127.055
21
-88.2005
0
LINE
8
BLACK
6
CONTINUOUS
10
127.055
20
-88.2005
11
127.048
21
-88.2513
0
LINE
8
BLACK
6
CONTINUOUS
10
127.048
20
-88.2513
11
126.187
21
-89.8877
0
LINE
8
BLACK
6
CONTINUOUS
10
126.187
20
-89.8877
11
126.171
21
-89.9083
0
LINE
8
BLACK
6
CONTINUOUS
10
126.171
20
-89.9083
11
126.169
21
-89.909
0
LINE
8
BLACK
6
CONTINUOUS
10
126.169
20
-89.909
11
121.914
21
-108.339
0
LINE
8
BLACK
6
CONTINUOUS
10
121.914
20
-108.339
11
156.96
21
-108.309
0
LINE
8
BLACK
6
CONTINUOUS
10
156.96
20
-108.309
11
152.436
21
-88.7118
0
LINE
8
BLACK
6
CONTINUOUS
10
152.436
20
-88.7118
11
152.42
21
-88.6971
0
LINE
8
BLACK
6
CONTINUOUS
10
152.42
20
-88.6971
11
151.559
21
-87.0607
0
LINE
8
BLACK
6
CONTINUOUS
10
151.559
20
-87.0607
11
151.551
21
-87.0359
0
LINE
8
BLACK
6
CONTINUOUS
10
151.551
20
-87.0359
11
151.558
21
-87.0007
0
LINE
8
BLACK
6
CONTINUOUS
10
151.558
20
-87.0007
11
147.482
21
-67.8222
0
LINE
8
BLACK
6
CONTINUOUS
10
147.482
20
-67.8222
11
147.49
21
-67.777
0
LINE
8
BLACK
6
CONTINUOUS
10
147.49
20
-67.777
11
147.528
21
-67.751
0
LINE
8
BLACK
6
CONTINUOUS
10
147.528
20
-67.751
11
156.186
21
-65.9107
0
LINE
8
BLACK
6
CONTINUOUS
10
156.186
20
-65.9107
11
155.616
21
-63.7735
0
LINE
8
BLACK
6
CONTINUOUS
10
155.616
20
-63.7735
11
122.995
21
-63.7735
0
LINE
8
BLACK
6
CONTINUOUS
10
136.626
20
-77.0383
11
136.688
21
-76.7192
0
LINE
8
BLACK
6
CONTINUOUS
10
136.688
20
-76.7192
11
136.788
21
-76.4099
0
LINE
8
BLACK
6
CONTINUOUS
10
136.788
20
-76.4099
11
136.924
21
-76.1148
0
LINE
8
BLACK
6
CONTINUOUS
10
136.924
20
-76.1148
11
137.094
21
-75.8382
0
LINE
8
BLACK
6
CONTINUOUS
10
137.094
20
-75.8382
11
137.297
21
-75.584
0
LINE
8
BLACK
6
CONTINUOUS
10
137.297
20
-75.584
11
137.528
21
-75.3561
0
LINE
8
BLACK
6
CONTINUOUS
10
137.528
20
-75.3561
11
137.786
21
-75.1576
0
LINE
8
BLACK
6
CONTINUOUS
10
137.786
20
-75.1576
11
138.065
21
-74.9914
0
LINE
8
BLACK
6
CONTINUOUS
10
138.065
20
-74.9914
11
138.362
21
-74.86
0
LINE
8
BLACK
6
CONTINUOUS
10
138.362
20
-74.86
11
138.673
21
-74.7653
0
LINE
8
BLACK
6
CONTINUOUS
10
138.673
20
-74.7653
11
138.993
21
-74.7086
0
LINE
8
BLACK
6
CONTINUOUS
10
138.993
20
-74.7086
11
139.317
21
-74.6907
0
LINE
8
BLACK
6
CONTINUOUS
10
139.317
20
-74.6907
11
139.642
21
-74.712
0
LINE
8
BLACK
6
CONTINUOUS
10
139.642
20
-74.712
11
139.961
21
-74.772
0
LINE
8
BLACK
6
CONTINUOUS
10
139.961
20
-74.772
11
140.271
21
-74.87
0
LINE
8
BLACK
6
CONTINUOUS
10
140.271
20
-74.87
11
140.567
21
-75.0045
0
LINE
8
BLACK
6
CONTINUOUS
10
140.567
20
-75.0045
11
140.844
21
-75.1736
0
LINE
8
BLACK
6
CONTINUOUS
10
140.844
20
-75.1736
11
141.099
21
-75.3748
0
LINE
8
BLACK
6
CONTINUOUS
10
141.099
20
-75.3748
11
141.329
21
-75.6051
0
LINE
8
BLACK
6
CONTINUOUS
10
141.329
20
-75.6051
11
141.528
21
-75.8614
0
LINE
8
BLACK
6
CONTINUOUS
10
141.528
20
-75.8614
11
141.696
21
-76.1398
0
LINE
8
BLACK
6
CONTINUOUS
10
141.696
20
-76.1398
11
141.829
21
-76.4363
0
LINE
8
BLACK
6
CONTINUOUS
10
141.829
20
-76.4363
11
141.925
21
-76.7467
0
LINE
8
BLACK
6
CONTINUOUS
10
141.925
20
-76.7467
11
141.984
21
-77.0663
0
LINE
8
BLACK
6
CONTINUOUS
10
141.984
20
-77.0663
11
142.003
21
-77.3907
0
LINE
8
BLACK
6
CONTINUOUS
10
142.003
20
-77.3907
11
142.003
21
-77.4472
0
LINE
8
BLACK
6
CONTINUOUS
10
142.003
20
-77.4472
11
141.976
21
-77.7711
0
LINE
8
BLACK
6
CONTINUOUS
10
141.976
20
-77.7711
11
141.911
21
-78.0895
0
LINE
8
BLACK
6
CONTINUOUS
10
141.911
20
-78.0895
11
141.808
21
-78.3978
0
LINE
8
BLACK
6
CONTINUOUS
10
141.808
20
-78.3978
11
141.669
21
-78.6914
0
LINE
8
BLACK
6
CONTINUOUS
10
141.669
20
-78.6914
11
141.496
21
-78.9663
0
LINE
8
BLACK
6
CONTINUOUS
10
141.496
20
-78.9663
11
141.291
21
-79.2183
0
LINE
8
BLACK
6
CONTINUOUS
10
141.291
20
-79.2183
11
141.057
21
-79.4438
0
LINE
8
BLACK
6
CONTINUOUS
10
141.057
20
-79.4438
11
140.797
21
-79.6396
0
LINE
8
BLACK
6
CONTINUOUS
10
140.797
20
-79.6396
11
140.516
21
-79.8028
0
LINE
8
BLACK
6
CONTINUOUS
10
140.516
20
-79.8028
11
140.218
21
-79.9311
0
LINE
8
BLACK
6
CONTINUOUS
10
140.218
20
-79.9311
11
139.906
21
-80.0225
0
LINE
8
BLACK
6
CONTINUOUS
10
139.906
20
-80.0225
11
139.585
21
-80.0759
0
LINE
8
BLACK
6
CONTINUOUS
10
139.585
20
-80.0759
11
139.261
21
-80.0904
0
LINE
8
BLACK
6
CONTINUOUS
10
139.261
20
-80.0904
11
138.937
21
-80.0657
0
LINE
8
BLACK
6
CONTINUOUS
10
138.937
20
-80.0657
11
138.618
21
-80.0023
0
LINE
8
BLACK
6
CONTINUOUS
10
138.618
20
-80.0023
11
138.309
21
-79.9011
0
LINE
8
BLACK
6
CONTINUOUS
10
138.309
20
-79.9011
11
138.015
21
-79.7635
0
LINE
8
BLACK
6
CONTINUOUS
10
138.015
20
-79.7635
11
137.739
21
-79.5915
0
LINE
8
BLACK
6
CONTINUOUS
10
137.739
20
-79.5915
11
137.486
21
-79.3877
0
LINE
8
BLACK
6
CONTINUOUS
10
137.486
20
-79.3877
11
137.259
21
-79.1549
0
LINE
8
BLACK
6
CONTINUOUS
10
137.259
20
-79.1549
11
137.062
21
-78.8966
0
LINE
8
BLACK
6
CONTINUOUS
10
137.062
20
-78.8966
11
136.898
21
-78.6165
0
LINE
8
BLACK
6
CONTINUOUS
10
136.898
20
-78.6165
11
136.768
21
-78.3186
0
LINE
8
BLACK
6
CONTINUOUS
10
136.768
20
-78.3186
11
136.675
21
-78.0072
0
LINE
8
BLACK
6
CONTINUOUS
10
136.675
20
-78.0072
11
136.62
21
-77.687
0
LINE
8
BLACK
6
CONTINUOUS
10
136.62
20
-77.687
11
136.603
21
-77.3634
0
LINE
8
BLACK
6
CONTINUOUS
10
136.603
20
-77.3634
11
136.603
21
-77.3624
0
LINE
8
BLACK
6
CONTINUOUS
10
136.603
20
-77.3624
11
136.626
21
-77.0383
0
LINE
8
BLACK
6
CONTINUOUS
10
136.767
20
-77.9855
11
136.857
21
-78.2858
0
LINE
8
BLACK
6
CONTINUOUS
10
136.857
20
-78.2858
11
136.982
21
-78.5732
0
LINE
8
BLACK
6
CONTINUOUS
10
136.982
20
-78.5732
11
137.141
21
-78.8435
0
LINE
8
BLACK
6
CONTINUOUS
10
137.141
20
-78.8435
11
137.331
21
-79.0927
0
LINE
8
BLACK
6
CONTINUOUS
10
137.331
20
-79.0927
11
137.55
21
-79.3172
0
LINE
8
BLACK
6
CONTINUOUS
10
137.55
20
-79.3172
11
137.794
21
-79.5139
0
LINE
8
BLACK
6
CONTINUOUS
10
137.794
20
-79.5139
11
138.06
21
-79.6798
0
LINE
8
BLACK
6
CONTINUOUS
10
138.06
20
-79.6798
11
138.344
21
-79.8125
0
LINE
8
BLACK
6
CONTINUOUS
10
138.344
20
-79.8125
11
138.642
21
-79.9102
0
LINE
8
BLACK
6
CONTINUOUS
10
138.642
20
-79.9102
11
138.95
21
-79.9713
0
LINE
8
BLACK
6
CONTINUOUS
10
138.95
20
-79.9713
11
139.262
21
-79.9951
0
LINE
8
BLACK
6
CONTINUOUS
10
139.262
20
-79.9951
11
139.576
21
-79.9812
0
LINE
8
BLACK
6
CONTINUOUS
10
139.576
20
-79.9812
11
139.885
21
-79.9297
0
LINE
8
BLACK
6
CONTINUOUS
10
139.885
20
-79.9297
11
140.186
21
-79.8415
0
LINE
8
BLACK
6
CONTINUOUS
10
140.186
20
-79.8415
11
140.474
21
-79.7177
0
LINE
8
BLACK
6
CONTINUOUS
10
140.474
20
-79.7177
11
140.745
21
-79.5602
0
LINE
8
BLACK
6
CONTINUOUS
10
140.745
20
-79.5602
11
140.995
21
-79.3714
0
LINE
8
BLACK
6
CONTINUOUS
10
140.995
20
-79.3714
11
141.221
21
-79.1538
0
LINE
8
BLACK
6
CONTINUOUS
10
141.221
20
-79.1538
11
141.419
21
-78.9107
0
LINE
8
BLACK
6
CONTINUOUS
10
141.419
20
-78.9107
11
141.586
21
-78.6455
0
LINE
8
BLACK
6
CONTINUOUS
10
141.586
20
-78.6455
11
141.72
21
-78.3622
0
LINE
8
BLACK
6
CONTINUOUS
10
141.72
20
-78.3622
11
141.819
21
-78.0648
0
LINE
8
BLACK
6
CONTINUOUS
10
141.819
20
-78.0648
11
141.882
21
-77.7577
0
LINE
8
BLACK
6
CONTINUOUS
10
141.882
20
-77.7577
11
141.907
21
-77.4452
0
LINE
8
BLACK
6
CONTINUOUS
10
141.907
20
-77.4452
11
141.908
21
-77.3907
0
LINE
8
BLACK
6
CONTINUOUS
10
141.908
20
-77.3907
11
141.889
21
-77.0778
0
LINE
8
BLACK
6
CONTINUOUS
10
141.889
20
-77.0778
11
141.833
21
-76.7694
0
LINE
8
BLACK
6
CONTINUOUS
10
141.833
20
-76.7694
11
141.74
21
-76.47
0
LINE
8
BLACK
6
CONTINUOUS
10
141.74
20
-76.47
11
141.612
21
-76.1839
0
LINE
8
BLACK
6
CONTINUOUS
10
141.612
20
-76.1839
11
141.45
21
-75.9153
0
LINE
8
BLACK
6
CONTINUOUS
10
141.45
20
-75.9153
11
141.257
21
-75.6681
0
LINE
8
BLACK
6
CONTINUOUS
10
141.257
20
-75.6681
11
141.036
21
-75.4459
0
LINE
8
BLACK
6
CONTINUOUS
10
141.036
20
-75.4459
11
140.79
21
-75.2518
0
LINE
8
BLACK
6
CONTINUOUS
10
140.79
20
-75.2518
11
140.522
21
-75.0887
0
LINE
8
BLACK
6
CONTINUOUS
10
140.522
20
-75.0887
11
140.237
21
-74.9589
0
LINE
8
BLACK
6
CONTINUOUS
10
140.237
20
-74.9589
11
139.938
21
-74.8644
0
LINE
8
BLACK
6
CONTINUOUS
10
139.938
20
-74.8644
11
139.63
21
-74.8065
0
LINE
8
BLACK
6
CONTINUOUS
10
139.63
20
-74.8065
11
139.317
21
-74.786
0
LINE
8
BLACK
6
CONTINUOUS
10
139.317
20
-74.786
11
139.004
21
-74.8032
0
LINE
8
BLACK
6
CONTINUOUS
10
139.004
20
-74.8032
11
138.695
21
-74.8579
0
LINE
8
BLACK
6
CONTINUOUS
10
138.695
20
-74.8579
11
138.395
21
-74.9493
0
LINE
8
BLACK
6
CONTINUOUS
10
138.395
20
-74.9493
11
138.109
21
-75.0761
0
LINE
8
BLACK
6
CONTINUOUS
10
138.109
20
-75.0761
11
137.839
21
-75.2364
0
LINE
8
BLACK
6
CONTINUOUS
10
137.839
20
-75.2364
11
137.591
21
-75.4278
0
LINE
8
BLACK
6
CONTINUOUS
10
137.591
20
-75.4278
11
137.368
21
-75.6478
0
LINE
8
BLACK
6
CONTINUOUS
10
137.368
20
-75.6478
11
137.172
21
-75.8929
0
LINE
8
BLACK
6
CONTINUOUS
10
137.172
20
-75.8929
11
137.008
21
-76.1598
0
LINE
8
BLACK
6
CONTINUOUS
10
137.008
20
-76.1598
11
136.876
21
-76.4445
0
LINE
8
BLACK
6
CONTINUOUS
10
136.876
20
-76.4445
11
136.78
21
-76.7429
0
LINE
8
BLACK
6
CONTINUOUS
10
136.78
20
-76.7429
11
136.721
21
-77.0507
0
LINE
8
BLACK
6
CONTINUOUS
10
136.721
20
-77.0507
11
136.699
21
-77.3634
0
LINE
8
BLACK
6
CONTINUOUS
10
136.699
20
-77.3634
11
136.714
21
-77.6765
0
LINE
8
BLACK
6
CONTINUOUS
10
136.714
20
-77.6765
11
136.767
21
-77.9855
  0
ENDSEC
  0
EOF
