  0
SECTION
  2
HEADER
  9
$ANGBASE
  50
0.0
  9
$ANGDIR
  70
1
  9
$MEASUREMENT
  70
1
  0
ENDSEC
  0
SECTION
  2
TABLES
  0
TABLE
  2
LTYPE
  70
4
  0
LTYPE
  5
40F
  2
CONTINUOUS
  70
0
  3
Solid line
  72
65
  73
0
  40
0.0
  0
LTYPE
  5
410
  2
DASHDOT
 70
0
  3
Dash Dot ____ _ ____ _
 72
65
 73
4
 40
2.0
 49
1.25
 49
-0.25
 49
0.25
 49
-0.25
  0
LTYPE
  5
411
  2
DASHED
 70
0
  3
Dashed __ __ __ __ __
 72
65
 73
2
 40
0.75
 49
0.5
 49
-0.25
  0
LTYPE
  5
43B
  2
DOTTED
 70
0
  3
Dotted .  .  .  .
 72
65
 73
2
 40
0.2
 49
0.0
 49
-0.2
  0
ENDTAB
  0
TABLE
  2
STYLE
  70
4
  0
STYLE
  2
KICAD
  70
0
  40
0
  41
1
  42
1
  50
0
  71
0
  3
isocp.shx
  0
STYLE
  2
KICADB
  70
0
  40
0
  41
1
  42
1
  50
0
  71
0
  3
isocp.shx
  0
STYLE
  2
KICADI
  70
0
  40
0
  41
1
  42
1
  50
15
  71
0
  3
isocp.shx
  0
STYLE
  2
KICADBI
  70
0
  40
0
  41
1
  42
1
  50
15
  71
0
  3
isocp.shx
  0
ENDTAB
  0
TABLE
  2
LAYER
  70
1
  0
LAYER
  2
BLACK
  70
0
  62
7
  6
CONTINUOUS
  0
ENDTAB
  0
ENDSEC
  0
SECTION
  2
ENTITIES
0
LINE
8
BLACK
6
CONTINUOUS
10
559.031
20
-72.3259
11
558.978
21
-72.6147
0
LINE
8
BLACK
6
CONTINUOUS
10
558.978
20
-72.6147
11
558.891
21
-72.895
0
LINE
8
BLACK
6
CONTINUOUS
10
558.891
20
-72.895
11
558.771
21
-73.1627
0
LINE
8
BLACK
6
CONTINUOUS
10
558.771
20
-73.1627
11
558.619
21
-73.414
0
LINE
8
BLACK
6
CONTINUOUS
10
558.619
20
-73.414
11
558.438
21
-73.6451
0
LINE
8
BLACK
6
CONTINUOUS
10
558.438
20
-73.6451
11
558.23
21
-73.8527
0
LINE
8
BLACK
6
CONTINUOUS
10
558.23
20
-73.8527
11
557.999
21
-74.0338
0
LINE
8
BLACK
6
CONTINUOUS
10
557.999
20
-74.0338
11
557.748
21
-74.1856
0
LINE
8
BLACK
6
CONTINUOUS
10
557.748
20
-74.1856
11
557.48
21
-74.3061
0
LINE
8
BLACK
6
CONTINUOUS
10
557.48
20
-74.3061
11
557.2
21
-74.3935
0
LINE
8
BLACK
6
CONTINUOUS
10
557.2
20
-74.3935
11
556.911
21
-74.4464
0
LINE
8
BLACK
6
CONTINUOUS
10
556.911
20
-74.4464
11
556.618
21
-74.4641
0
LINE
8
BLACK
6
CONTINUOUS
10
556.618
20
-74.4641
11
556.618
21
-74.4641
0
LINE
8
BLACK
6
CONTINUOUS
10
556.618
20
-74.4641
11
554.287
21
-74.4641
0
LINE
8
BLACK
6
CONTINUOUS
10
554.287
20
-74.4641
11
554.287
21
-91.0829
0
LINE
8
BLACK
6
CONTINUOUS
10
554.287
20
-91.0829
11
554.269
21
-91.3759
0
LINE
8
BLACK
6
CONTINUOUS
10
554.269
20
-91.3759
11
554.216
21
-91.6647
0
LINE
8
BLACK
6
CONTINUOUS
10
554.216
20
-91.6647
11
554.129
21
-91.945
0
LINE
8
BLACK
6
CONTINUOUS
10
554.129
20
-91.945
11
554.008
21
-92.2127
0
LINE
8
BLACK
6
CONTINUOUS
10
554.008
20
-92.2127
11
553.856
21
-92.464
0
LINE
8
BLACK
6
CONTINUOUS
10
553.856
20
-92.464
11
553.675
21
-92.6951
0
LINE
8
BLACK
6
CONTINUOUS
10
553.675
20
-92.6951
11
553.467
21
-92.9027
0
LINE
8
BLACK
6
CONTINUOUS
10
553.467
20
-92.9027
11
553.236
21
-93.0838
0
LINE
8
BLACK
6
CONTINUOUS
10
553.236
20
-93.0838
11
552.985
21
-93.2356
0
LINE
8
BLACK
6
CONTINUOUS
10
552.985
20
-93.2356
11
552.717
21
-93.3561
0
LINE
8
BLACK
6
CONTINUOUS
10
552.717
20
-93.3561
11
552.437
21
-93.4435
0
LINE
8
BLACK
6
CONTINUOUS
10
552.437
20
-93.4435
11
552.148
21
-93.4964
0
LINE
8
BLACK
6
CONTINUOUS
10
552.148
20
-93.4964
11
551.855
21
-93.5141
0
LINE
8
BLACK
6
CONTINUOUS
10
551.855
20
-93.5141
11
551.855
21
-93.5141
0
LINE
8
BLACK
6
CONTINUOUS
10
551.855
20
-93.5141
11
530.47
21
-93.5141
0
LINE
8
BLACK
6
CONTINUOUS
10
530.47
20
-93.5141
11
530.459
21
-93.6582
0
LINE
8
BLACK
6
CONTINUOUS
10
530.459
20
-93.6582
11
530.413
21
-93.8475
0
LINE
8
BLACK
6
CONTINUOUS
10
530.413
20
-93.8475
11
530.339
21
-94.0274
0
LINE
8
BLACK
6
CONTINUOUS
10
530.339
20
-94.0274
11
530.237
21
-94.1933
0
LINE
8
BLACK
6
CONTINUOUS
10
530.237
20
-94.1933
11
530.111
21
-94.3414
0
LINE
8
BLACK
6
CONTINUOUS
10
530.111
20
-94.3414
11
529.963
21
-94.4678
0
LINE
8
BLACK
6
CONTINUOUS
10
529.963
20
-94.4678
11
529.797
21
-94.5695
0
LINE
8
BLACK
6
CONTINUOUS
10
529.797
20
-94.5695
11
529.617
21
-94.644
0
LINE
8
BLACK
6
CONTINUOUS
10
529.617
20
-94.644
11
529.427
21
-94.6894
0
LINE
8
BLACK
6
CONTINUOUS
10
529.427
20
-94.6894
11
529.237
21
-94.7044
0
LINE
8
BLACK
6
CONTINUOUS
10
529.237
20
-94.7044
11
529.237
21
-94.7047
0
LINE
8
BLACK
6
CONTINUOUS
10
529.237
20
-94.7047
11
511.379
21
-95.8951
0
LINE
8
BLACK
6
CONTINUOUS
10
511.379
20
-95.8951
11
491.739
21
-98.871
0
LINE
8
BLACK
6
CONTINUOUS
10
491.739
20
-98.871
11
458.999
21
-107.205
0
LINE
8
BLACK
6
CONTINUOUS
10
458.999
20
-107.205
11
458.992
21
-107.204
0
LINE
8
BLACK
6
CONTINUOUS
10
458.992
20
-107.204
11
458.986
21
-107.206
0
LINE
8
BLACK
6
CONTINUOUS
10
458.986
20
-107.206
11
423.268
21
-107.206
0
LINE
8
BLACK
6
CONTINUOUS
10
423.268
20
-107.206
11
423.262
21
-107.204
0
LINE
8
BLACK
6
CONTINUOUS
10
423.262
20
-107.204
11
423.257
21
-107.205
0
LINE
8
BLACK
6
CONTINUOUS
10
423.257
20
-107.205
11
390.516
21
-100.062
0
LINE
8
BLACK
6
CONTINUOUS
10
390.516
20
-100.062
11
370.875
21
-97.0858
0
LINE
8
BLACK
6
CONTINUOUS
10
370.875
20
-97.0858
11
353.613
21
-95.8953
0
LINE
8
BLACK
6
CONTINUOUS
10
353.613
20
-95.8953
11
353.612
21
-95.8952
0
LINE
8
BLACK
6
CONTINUOUS
10
353.612
20
-95.8952
11
353.376
21
-95.8797
0
LINE
8
BLACK
6
CONTINUOUS
10
353.376
20
-95.8797
11
353.141
21
-95.8328
0
LINE
8
BLACK
6
CONTINUOUS
10
353.141
20
-95.8328
11
352.913
21
-95.7556
0
LINE
8
BLACK
6
CONTINUOUS
10
352.913
20
-95.7556
11
352.698
21
-95.6494
0
LINE
8
BLACK
6
CONTINUOUS
10
352.698
20
-95.6494
11
352.498
21
-95.516
0
LINE
8
BLACK
6
CONTINUOUS
10
352.498
20
-95.516
11
352.318
21
-95.3577
0
LINE
8
BLACK
6
CONTINUOUS
10
352.318
20
-95.3577
11
352.159
21
-95.1771
0
LINE
8
BLACK
6
CONTINUOUS
10
352.159
20
-95.1771
11
352.026
21
-94.9774
0
LINE
8
BLACK
6
CONTINUOUS
10
352.026
20
-94.9774
11
351.92
21
-94.762
0
LINE
8
BLACK
6
CONTINUOUS
10
351.92
20
-94.762
11
351.843
21
-94.5346
0
LINE
8
BLACK
6
CONTINUOUS
10
351.843
20
-94.5346
11
351.796
21
-94.2991
0
LINE
8
BLACK
6
CONTINUOUS
10
351.796
20
-94.2991
11
351.783
21
-94.1095
0
LINE
8
BLACK
6
CONTINUOUS
10
351.783
20
-94.1095
11
330.399
21
-94.1095
0
LINE
8
BLACK
6
CONTINUOUS
10
330.399
20
-94.1095
11
330.106
21
-94.0917
0
LINE
8
BLACK
6
CONTINUOUS
10
330.106
20
-94.0917
11
329.817
21
-94.0388
0
LINE
8
BLACK
6
CONTINUOUS
10
329.817
20
-94.0388
11
329.537
21
-93.9515
0
LINE
8
BLACK
6
CONTINUOUS
10
329.537
20
-93.9515
11
329.269
21
-93.831
0
LINE
8
BLACK
6
CONTINUOUS
10
329.269
20
-93.831
11
329.018
21
-93.6791
0
LINE
8
BLACK
6
CONTINUOUS
10
329.018
20
-93.6791
11
328.787
21
-93.498
0
LINE
8
BLACK
6
CONTINUOUS
10
328.787
20
-93.498
11
328.579
21
-93.2904
0
LINE
8
BLACK
6
CONTINUOUS
10
328.579
20
-93.2904
11
328.398
21
-93.0593
0
LINE
8
BLACK
6
CONTINUOUS
10
328.398
20
-93.0593
11
328.246
21
-92.8081
0
LINE
8
BLACK
6
CONTINUOUS
10
328.246
20
-92.8081
11
328.126
21
-92.5403
0
LINE
8
BLACK
6
CONTINUOUS
10
328.126
20
-92.5403
11
328.038
21
-92.26
0
LINE
8
BLACK
6
CONTINUOUS
10
328.038
20
-92.26
11
327.985
21
-91.9713
0
LINE
8
BLACK
6
CONTINUOUS
10
327.985
20
-91.9713
11
327.968
21
-91.6782
0
LINE
8
BLACK
6
CONTINUOUS
10
327.968
20
-91.6782
11
327.968
21
-91.6782
0
LINE
8
BLACK
6
CONTINUOUS
10
327.968
20
-91.6782
11
327.968
21
-75.0594
0
LINE
8
BLACK
6
CONTINUOUS
10
327.968
20
-75.0594
11
320.874
21
-75.0594
0
LINE
8
BLACK
6
CONTINUOUS
10
320.874
20
-75.0594
11
320.581
21
-75.0417
0
LINE
8
BLACK
6
CONTINUOUS
10
320.581
20
-75.0417
11
320.292
21
-74.9888
0
LINE
8
BLACK
6
CONTINUOUS
10
320.292
20
-74.9888
11
320.012
21
-74.9015
0
LINE
8
BLACK
6
CONTINUOUS
10
320.012
20
-74.9015
11
319.744
21
-74.781
0
LINE
8
BLACK
6
CONTINUOUS
10
319.744
20
-74.781
11
319.493
21
-74.6291
0
LINE
8
BLACK
6
CONTINUOUS
10
319.493
20
-74.6291
11
319.262
21
-74.448
0
LINE
8
BLACK
6
CONTINUOUS
10
319.262
20
-74.448
11
319.054
21
-74.2404
0
LINE
8
BLACK
6
CONTINUOUS
10
319.054
20
-74.2404
11
318.873
21
-74.0093
0
LINE
8
BLACK
6
CONTINUOUS
10
318.873
20
-74.0093
11
318.721
21
-73.758
0
LINE
8
BLACK
6
CONTINUOUS
10
318.721
20
-73.758
11
318.601
21
-73.4903
0
LINE
8
BLACK
6
CONTINUOUS
10
318.601
20
-73.4903
11
318.513
21
-73.21
0
LINE
8
BLACK
6
CONTINUOUS
10
318.513
20
-73.21
11
318.46
21
-72.9212
0
LINE
8
BLACK
6
CONTINUOUS
10
318.46
20
-72.9212
11
318.443
21
-72.6282
0
LINE
8
BLACK
6
CONTINUOUS
10
318.443
20
-72.6282
11
318.443
21
-72.6282
0
LINE
8
BLACK
6
CONTINUOUS
10
318.443
20
-72.6282
11
318.443
21
-58.3407
0
LINE
8
BLACK
6
CONTINUOUS
10
318.443
20
-58.3407
11
318.443
21
-58.3407
0
LINE
8
BLACK
6
CONTINUOUS
10
318.443
20
-58.3407
11
318.46
21
-58.0476
0
LINE
8
BLACK
6
CONTINUOUS
10
318.46
20
-58.0476
11
318.513
21
-57.7588
0
LINE
8
BLACK
6
CONTINUOUS
10
318.513
20
-57.7588
11
318.601
21
-57.4785
0
LINE
8
BLACK
6
CONTINUOUS
10
318.601
20
-57.4785
11
318.721
21
-57.2108
0
LINE
8
BLACK
6
CONTINUOUS
10
318.721
20
-57.2108
11
318.873
21
-56.9596
0
LINE
8
BLACK
6
CONTINUOUS
10
318.873
20
-56.9596
11
319.054
21
-56.7285
0
LINE
8
BLACK
6
CONTINUOUS
10
319.054
20
-56.7285
11
319.262
21
-56.5209
0
LINE
8
BLACK
6
CONTINUOUS
10
319.262
20
-56.5209
11
319.493
21
-56.3398
0
LINE
8
BLACK
6
CONTINUOUS
10
319.493
20
-56.3398
11
319.744
21
-56.1879
0
LINE
8
BLACK
6
CONTINUOUS
10
319.744
20
-56.1879
11
320.012
21
-56.0675
0
LINE
8
BLACK
6
CONTINUOUS
10
320.012
20
-56.0675
11
320.292
21
-55.9801
0
LINE
8
BLACK
6
CONTINUOUS
10
320.292
20
-55.9801
11
320.581
21
-55.9272
0
LINE
8
BLACK
6
CONTINUOUS
10
320.581
20
-55.9272
11
320.874
21
-55.9095
0
LINE
8
BLACK
6
CONTINUOUS
10
320.874
20
-55.9095
11
320.874
21
-55.9094
0
LINE
8
BLACK
6
CONTINUOUS
10
320.874
20
-55.9094
11
323.205
21
-55.9094
0
LINE
8
BLACK
6
CONTINUOUS
10
323.205
20
-55.9094
11
323.205
21
-38.6953
0
LINE
8
BLACK
6
CONTINUOUS
10
323.205
20
-38.6953
11
323.205
21
-38.6953
0
LINE
8
BLACK
6
CONTINUOUS
10
323.205
20
-38.6953
11
323.223
21
-38.4023
0
LINE
8
BLACK
6
CONTINUOUS
10
323.223
20
-38.4023
11
323.276
21
-38.1135
0
LINE
8
BLACK
6
CONTINUOUS
10
323.276
20
-38.1135
11
323.363
21
-37.8332
0
LINE
8
BLACK
6
CONTINUOUS
10
323.363
20
-37.8332
11
323.484
21
-37.5655
0
LINE
8
BLACK
6
CONTINUOUS
10
323.484
20
-37.5655
11
323.635
21
-37.3142
0
LINE
8
BLACK
6
CONTINUOUS
10
323.635
20
-37.3142
11
323.816
21
-37.0831
0
LINE
8
BLACK
6
CONTINUOUS
10
323.816
20
-37.0831
11
324.024
21
-36.8755
0
LINE
8
BLACK
6
CONTINUOUS
10
324.024
20
-36.8755
11
324.255
21
-36.6944
0
LINE
8
BLACK
6
CONTINUOUS
10
324.255
20
-36.6944
11
324.506
21
-36.5426
0
LINE
8
BLACK
6
CONTINUOUS
10
324.506
20
-36.5426
11
324.774
21
-36.4221
0
LINE
8
BLACK
6
CONTINUOUS
10
324.774
20
-36.4221
11
325.054
21
-36.3347
0
LINE
8
BLACK
6
CONTINUOUS
10
325.054
20
-36.3347
11
325.343
21
-36.2818
0
LINE
8
BLACK
6
CONTINUOUS
10
325.343
20
-36.2818
11
325.586
21
-36.2671
0
LINE
8
BLACK
6
CONTINUOUS
10
325.586
20
-36.2671
11
325.586
21
-35.7188
0
LINE
8
BLACK
6
CONTINUOUS
10
325.586
20
-35.7188
11
325.586
21
-19.05
0
LINE
8
BLACK
6
CONTINUOUS
10
325.586
20
-19.05
11
325.604
21
-18.757
0
LINE
8
BLACK
6
CONTINUOUS
10
325.604
20
-18.757
11
325.657
21
-18.4682
0
LINE
8
BLACK
6
CONTINUOUS
10
325.657
20
-18.4682
11
325.744
21
-18.1879
0
LINE
8
BLACK
6
CONTINUOUS
10
325.744
20
-18.1879
11
325.865
21
-17.9201
0
LINE
8
BLACK
6
CONTINUOUS
10
325.865
20
-17.9201
11
326.017
21
-17.6689
0
LINE
8
BLACK
6
CONTINUOUS
10
326.017
20
-17.6689
11
326.198
21
-17.4378
0
LINE
8
BLACK
6
CONTINUOUS
10
326.198
20
-17.4378
11
326.405
21
-17.2302
0
LINE
8
BLACK
6
CONTINUOUS
10
326.405
20
-17.2302
11
326.636
21
-17.0491
0
LINE
8
BLACK
6
CONTINUOUS
10
326.636
20
-17.0491
11
326.888
21
-16.8972
0
LINE
8
BLACK
6
CONTINUOUS
10
326.888
20
-16.8972
11
327.155
21
-16.7767
0
LINE
8
BLACK
6
CONTINUOUS
10
327.155
20
-16.7767
11
327.436
21
-16.6894
0
LINE
8
BLACK
6
CONTINUOUS
10
327.436
20
-16.6894
11
327.725
21
-16.6365
0
LINE
8
BLACK
6
CONTINUOUS
10
327.725
20
-16.6365
11
328.018
21
-16.6187
0
LINE
8
BLACK
6
CONTINUOUS
10
328.018
20
-16.6187
11
328.018
21
-16.6188
0
LINE
8
BLACK
6
CONTINUOUS
10
328.018
20
-16.6188
11
345.877
21
-16.6188
0
LINE
8
BLACK
6
CONTINUOUS
10
345.877
20
-16.6188
11
345.879
21
-16.6194
0
LINE
8
BLACK
6
CONTINUOUS
10
345.879
20
-16.6194
11
345.88
21
-16.6189
0
LINE
8
BLACK
6
CONTINUOUS
10
345.88
20
-16.6189
11
364.93
21
-17.8095
0
LINE
8
BLACK
6
CONTINUOUS
10
364.93
20
-17.8095
11
364.931
21
-17.8101
0
LINE
8
BLACK
6
CONTINUOUS
10
364.931
20
-17.8101
11
364.933
21
-17.8097
0
LINE
8
BLACK
6
CONTINUOUS
10
364.933
20
-17.8097
11
386.364
21
-20.1909
0
LINE
8
BLACK
6
CONTINUOUS
10
386.364
20
-20.1909
11
386.365
21
-20.1914
0
LINE
8
BLACK
6
CONTINUOUS
10
386.365
20
-20.1914
11
386.366
21
-20.1912
0
LINE
8
BLACK
6
CONTINUOUS
10
386.366
20
-20.1912
11
406.606
21
-23.1677
0
LINE
8
BLACK
6
CONTINUOUS
10
406.606
20
-23.1677
11
406.608
21
-23.1689
0
LINE
8
BLACK
6
CONTINUOUS
10
406.608
20
-23.1689
11
406.61
21
-23.1685
0
LINE
8
BLACK
6
CONTINUOUS
10
406.61
20
-23.1685
11
424.464
21
-27.3344
0
LINE
8
BLACK
6
CONTINUOUS
10
424.464
20
-27.3344
11
448.266
21
-27.3344
0
LINE
8
BLACK
6
CONTINUOUS
10
448.266
20
-27.3344
11
466.12
21
-23.7635
0
LINE
8
BLACK
6
CONTINUOUS
10
466.12
20
-23.7635
11
466.121
21
-23.7636
0
LINE
8
BLACK
6
CONTINUOUS
10
466.121
20
-23.7636
11
466.122
21
-23.7633
0
LINE
8
BLACK
6
CONTINUOUS
10
466.122
20
-23.7633
11
486.362
21
-20.1914
0
LINE
8
BLACK
6
CONTINUOUS
10
486.362
20
-20.1914
11
486.364
21
-20.1917
0
LINE
8
BLACK
6
CONTINUOUS
10
486.364
20
-20.1917
11
486.365
21
-20.191
0
LINE
8
BLACK
6
CONTINUOUS
10
486.365
20
-20.191
11
506.606
21
-17.8097
0
LINE
8
BLACK
6
CONTINUOUS
10
506.606
20
-17.8097
11
506.607
21
-17.8102
0
LINE
8
BLACK
6
CONTINUOUS
10
506.607
20
-17.8102
11
506.609
21
-17.8095
0
LINE
8
BLACK
6
CONTINUOUS
10
506.609
20
-17.8095
11
526.849
21
-16.6188
0
LINE
8
BLACK
6
CONTINUOUS
10
526.849
20
-16.6188
11
526.851
21
-16.6194
0
LINE
8
BLACK
6
CONTINUOUS
10
526.851
20
-16.6194
11
526.852
21
-16.6188
0
LINE
8
BLACK
6
CONTINUOUS
10
526.852
20
-16.6188
11
549.474
21
-16.6188
0
LINE
8
BLACK
6
CONTINUOUS
10
549.474
20
-16.6188
11
549.767
21
-16.6365
0
LINE
8
BLACK
6
CONTINUOUS
10
549.767
20
-16.6365
11
550.056
21
-16.6894
0
LINE
8
BLACK
6
CONTINUOUS
10
550.056
20
-16.6894
11
550.336
21
-16.7768
0
LINE
8
BLACK
6
CONTINUOUS
10
550.336
20
-16.7768
11
550.604
21
-16.8973
0
LINE
8
BLACK
6
CONTINUOUS
10
550.604
20
-16.8973
11
550.855
21
-17.0491
0
LINE
8
BLACK
6
CONTINUOUS
10
550.855
20
-17.0491
11
551.086
21
-17.2302
0
LINE
8
BLACK
6
CONTINUOUS
10
551.086
20
-17.2302
11
551.294
21
-17.4378
0
LINE
8
BLACK
6
CONTINUOUS
10
551.294
20
-17.4378
11
551.475
21
-17.6689
0
LINE
8
BLACK
6
CONTINUOUS
10
551.475
20
-17.6689
11
551.627
21
-17.9202
0
LINE
8
BLACK
6
CONTINUOUS
10
551.627
20
-17.9202
11
551.747
21
-18.1879
0
LINE
8
BLACK
6
CONTINUOUS
10
551.747
20
-18.1879
11
551.835
21
-18.4682
0
LINE
8
BLACK
6
CONTINUOUS
10
551.835
20
-18.4682
11
551.888
21
-18.757
0
LINE
8
BLACK
6
CONTINUOUS
10
551.888
20
-18.757
11
551.905
21
-19.0499
0
LINE
8
BLACK
6
CONTINUOUS
10
551.905
20
-19.0499
11
551.905
21
-19.05
0
LINE
8
BLACK
6
CONTINUOUS
10
551.905
20
-19.05
11
551.905
21
-35.6718
0
LINE
8
BLACK
6
CONTINUOUS
10
551.905
20
-35.6718
11
552.148
21
-35.6865
0
LINE
8
BLACK
6
CONTINUOUS
10
552.148
20
-35.6865
11
552.437
21
-35.7394
0
LINE
8
BLACK
6
CONTINUOUS
10
552.437
20
-35.7394
11
552.717
21
-35.8268
0
LINE
8
BLACK
6
CONTINUOUS
10
552.717
20
-35.8268
11
552.985
21
-35.9473
0
LINE
8
BLACK
6
CONTINUOUS
10
552.985
20
-35.9473
11
553.236
21
-36.0991
0
LINE
8
BLACK
6
CONTINUOUS
10
553.236
20
-36.0991
11
553.467
21
-36.2802
0
LINE
8
BLACK
6
CONTINUOUS
10
553.467
20
-36.2802
11
553.675
21
-36.4878
0
LINE
8
BLACK
6
CONTINUOUS
10
553.675
20
-36.4878
11
553.856
21
-36.7189
0
LINE
8
BLACK
6
CONTINUOUS
10
553.856
20
-36.7189
11
554.008
21
-36.9702
0
LINE
8
BLACK
6
CONTINUOUS
10
554.008
20
-36.9702
11
554.129
21
-37.2379
0
LINE
8
BLACK
6
CONTINUOUS
10
554.129
20
-37.2379
11
554.216
21
-37.5182
0
LINE
8
BLACK
6
CONTINUOUS
10
554.216
20
-37.5182
11
554.269
21
-37.807
0
LINE
8
BLACK
6
CONTINUOUS
10
554.269
20
-37.807
11
554.287
21
-38.1
0
LINE
8
BLACK
6
CONTINUOUS
10
554.287
20
-38.1
11
554.287
21
-38.1
0
LINE
8
BLACK
6
CONTINUOUS
10
554.287
20
-38.1
11
554.287
21
-54.7688
0
LINE
8
BLACK
6
CONTINUOUS
10
554.287
20
-54.7688
11
554.287
21
-55.3141
0
LINE
8
BLACK
6
CONTINUOUS
10
554.287
20
-55.3141
11
556.618
21
-55.3141
0
LINE
8
BLACK
6
CONTINUOUS
10
556.618
20
-55.3141
11
556.911
21
-55.3318
0
LINE
8
BLACK
6
CONTINUOUS
10
556.911
20
-55.3318
11
557.2
21
-55.3848
0
LINE
8
BLACK
6
CONTINUOUS
10
557.2
20
-55.3848
11
557.48
21
-55.4721
0
LINE
8
BLACK
6
CONTINUOUS
10
557.48
20
-55.4721
11
557.748
21
-55.5926
0
LINE
8
BLACK
6
CONTINUOUS
10
557.748
20
-55.5926
11
557.999
21
-55.7445
0
LINE
8
BLACK
6
CONTINUOUS
10
557.999
20
-55.7445
11
558.23
21
-55.9255
0
LINE
8
BLACK
6
CONTINUOUS
10
558.23
20
-55.9255
11
558.438
21
-56.1331
0
LINE
8
BLACK
6
CONTINUOUS
10
558.438
20
-56.1331
11
558.619
21
-56.3642
0
LINE
8
BLACK
6
CONTINUOUS
10
558.619
20
-56.3642
11
558.771
21
-56.6155
0
LINE
8
BLACK
6
CONTINUOUS
10
558.771
20
-56.6155
11
558.891
21
-56.8832
0
LINE
8
BLACK
6
CONTINUOUS
10
558.891
20
-56.8832
11
558.978
21
-57.1635
0
LINE
8
BLACK
6
CONTINUOUS
10
558.978
20
-57.1635
11
559.031
21
-57.4523
0
LINE
8
BLACK
6
CONTINUOUS
10
559.031
20
-57.4523
11
559.049
21
-57.7454
0
LINE
8
BLACK
6
CONTINUOUS
10
559.049
20
-57.7454
11
559.049
21
-57.7454
0
LINE
8
BLACK
6
CONTINUOUS
10
559.049
20
-57.7454
11
559.049
21
-72.0329
0
LINE
8
BLACK
6
CONTINUOUS
10
559.049
20
-72.0329
11
559.031
21
-72.3259
0
LINE
8
BLACK
6
CONTINUOUS
10
325.672
20
-36.3494
11
325.636
21
-36.3641
0
LINE
8
BLACK
6
CONTINUOUS
10
325.636
20
-36.3641
11
325.627
21
-36.3604
0
LINE
8
BLACK
6
CONTINUOUS
10
325.627
20
-36.3604
11
325.355
21
-36.3768
0
LINE
8
BLACK
6
CONTINUOUS
10
325.355
20
-36.3768
11
325.077
21
-36.4277
0
LINE
8
BLACK
6
CONTINUOUS
10
325.077
20
-36.4277
11
324.808
21
-36.5116
0
LINE
8
BLACK
6
CONTINUOUS
10
324.808
20
-36.5116
11
324.551
21
-36.6273
0
LINE
8
BLACK
6
CONTINUOUS
10
324.551
20
-36.6273
11
324.31
21
-36.7732
0
LINE
8
BLACK
6
CONTINUOUS
10
324.31
20
-36.7732
11
324.088
21
-36.9472
0
LINE
8
BLACK
6
CONTINUOUS
10
324.088
20
-36.9472
11
323.888
21
-37.1466
0
LINE
8
BLACK
6
CONTINUOUS
10
323.888
20
-37.1466
11
323.714
21
-37.3686
0
LINE
8
BLACK
6
CONTINUOUS
10
323.714
20
-37.3686
11
323.568
21
-37.61
0
LINE
8
BLACK
6
CONTINUOUS
10
323.568
20
-37.61
11
323.453
21
-37.8672
0
LINE
8
BLACK
6
CONTINUOUS
10
323.453
20
-37.8672
11
323.369
21
-38.1364
0
LINE
8
BLACK
6
CONTINUOUS
10
323.369
20
-38.1364
11
323.318
21
-38.4138
0
LINE
8
BLACK
6
CONTINUOUS
10
323.318
20
-38.4138
11
323.301
21
-38.6864
0
LINE
8
BLACK
6
CONTINUOUS
10
323.301
20
-38.6864
11
323.305
21
-38.6953
0
LINE
8
BLACK
6
CONTINUOUS
10
323.305
20
-38.6953
11
323.305
21
-38.6953
0
LINE
8
BLACK
6
CONTINUOUS
10
323.305
20
-38.6953
11
323.305
21
-55.9594
0
LINE
8
BLACK
6
CONTINUOUS
10
323.305
20
-55.9594
11
323.29
21
-55.9948
0
LINE
8
BLACK
6
CONTINUOUS
10
323.29
20
-55.9948
11
323.255
21
-56.0094
0
LINE
8
BLACK
6
CONTINUOUS
10
323.255
20
-56.0094
11
320.874
21
-56.0094
0
LINE
8
BLACK
6
CONTINUOUS
10
320.874
20
-56.0094
11
320.865
21
-56.0057
0
LINE
8
BLACK
6
CONTINUOUS
10
320.865
20
-56.0057
11
320.592
21
-56.0222
0
LINE
8
BLACK
6
CONTINUOUS
10
320.592
20
-56.0222
11
320.315
21
-56.0731
0
LINE
8
BLACK
6
CONTINUOUS
10
320.315
20
-56.0731
11
320.046
21
-56.157
0
LINE
8
BLACK
6
CONTINUOUS
10
320.046
20
-56.157
11
319.788
21
-56.2727
0
LINE
8
BLACK
6
CONTINUOUS
10
319.788
20
-56.2727
11
319.547
21
-56.4186
0
LINE
8
BLACK
6
CONTINUOUS
10
319.547
20
-56.4186
11
319.325
21
-56.5925
0
LINE
8
BLACK
6
CONTINUOUS
10
319.325
20
-56.5925
11
319.126
21
-56.792
0
LINE
8
BLACK
6
CONTINUOUS
10
319.126
20
-56.792
11
318.952
21
-57.014
0
LINE
8
BLACK
6
CONTINUOUS
10
318.952
20
-57.014
11
318.806
21
-57.2553
0
LINE
8
BLACK
6
CONTINUOUS
10
318.806
20
-57.2553
11
318.69
21
-57.5125
0
LINE
8
BLACK
6
CONTINUOUS
10
318.69
20
-57.5125
11
318.606
21
-57.7818
0
LINE
8
BLACK
6
CONTINUOUS
10
318.606
20
-57.7818
11
318.555
21
-58.0592
0
LINE
8
BLACK
6
CONTINUOUS
10
318.555
20
-58.0592
11
318.539
21
-58.3317
0
LINE
8
BLACK
6
CONTINUOUS
10
318.539
20
-58.3317
11
318.543
21
-58.3407
0
LINE
8
BLACK
6
CONTINUOUS
10
318.543
20
-58.3407
11
318.543
21
-72.6282
0
LINE
8
BLACK
6
CONTINUOUS
10
318.543
20
-72.6282
11
318.539
21
-72.6372
0
LINE
8
BLACK
6
CONTINUOUS
10
318.539
20
-72.6372
11
318.555
21
-72.9097
0
LINE
8
BLACK
6
CONTINUOUS
10
318.555
20
-72.9097
11
318.606
21
-73.1871
0
LINE
8
BLACK
6
CONTINUOUS
10
318.606
20
-73.1871
11
318.69
21
-73.4564
0
LINE
8
BLACK
6
CONTINUOUS
10
318.69
20
-73.4564
11
318.806
21
-73.7136
0
LINE
8
BLACK
6
CONTINUOUS
10
318.806
20
-73.7136
11
318.952
21
-73.9549
0
LINE
8
BLACK
6
CONTINUOUS
10
318.952
20
-73.9549
11
319.126
21
-74.1769
0
LINE
8
BLACK
6
CONTINUOUS
10
319.126
20
-74.1769
11
319.325
21
-74.3764
0
LINE
8
BLACK
6
CONTINUOUS
10
319.325
20
-74.3764
11
319.547
21
-74.5503
0
LINE
8
BLACK
6
CONTINUOUS
10
319.547
20
-74.5503
11
319.788
21
-74.6962
0
LINE
8
BLACK
6
CONTINUOUS
10
319.788
20
-74.6962
11
320.046
21
-74.8119
0
LINE
8
BLACK
6
CONTINUOUS
10
320.046
20
-74.8119
11
320.315
21
-74.8958
0
LINE
8
BLACK
6
CONTINUOUS
10
320.315
20
-74.8958
11
320.592
21
-74.9467
0
LINE
8
BLACK
6
CONTINUOUS
10
320.592
20
-74.9467
11
320.865
21
-74.9632
0
LINE
8
BLACK
6
CONTINUOUS
10
320.865
20
-74.9632
11
320.874
21
-74.9594
0
LINE
8
BLACK
6
CONTINUOUS
10
320.874
20
-74.9594
11
328.018
21
-74.9594
0
LINE
8
BLACK
6
CONTINUOUS
10
328.018
20
-74.9594
11
328.053
21
-74.9741
0
LINE
8
BLACK
6
CONTINUOUS
10
328.053
20
-74.9741
11
328.068
21
-75.0094
0
LINE
8
BLACK
6
CONTINUOUS
10
328.068
20
-75.0094
11
328.068
21
-91.6782
0
LINE
8
BLACK
6
CONTINUOUS
10
328.068
20
-91.6782
11
328.064
21
-91.6872
0
LINE
8
BLACK
6
CONTINUOUS
10
328.064
20
-91.6872
11
328.08
21
-91.9597
0
LINE
8
BLACK
6
CONTINUOUS
10
328.08
20
-91.9597
11
328.131
21
-92.2371
0
LINE
8
BLACK
6
CONTINUOUS
10
328.131
20
-92.2371
11
328.215
21
-92.5064
0
LINE
8
BLACK
6
CONTINUOUS
10
328.215
20
-92.5064
11
328.331
21
-92.7636
0
LINE
8
BLACK
6
CONTINUOUS
10
328.331
20
-92.7636
11
328.477
21
-93.0049
0
LINE
8
BLACK
6
CONTINUOUS
10
328.477
20
-93.0049
11
328.651
21
-93.2269
0
LINE
8
BLACK
6
CONTINUOUS
10
328.651
20
-93.2269
11
328.85
21
-93.4264
0
LINE
8
BLACK
6
CONTINUOUS
10
328.85
20
-93.4264
11
329.072
21
-93.6003
0
LINE
8
BLACK
6
CONTINUOUS
10
329.072
20
-93.6003
11
329.313
21
-93.7462
0
LINE
8
BLACK
6
CONTINUOUS
10
329.313
20
-93.7462
11
329.571
21
-93.862
0
LINE
8
BLACK
6
CONTINUOUS
10
329.571
20
-93.862
11
329.84
21
-93.9459
0
LINE
8
BLACK
6
CONTINUOUS
10
329.84
20
-93.9459
11
330.117
21
-93.9967
0
LINE
8
BLACK
6
CONTINUOUS
10
330.117
20
-93.9967
11
330.39
21
-94.0132
0
LINE
8
BLACK
6
CONTINUOUS
10
330.39
20
-94.0132
11
330.399
21
-94.0095
0
LINE
8
BLACK
6
CONTINUOUS
10
330.399
20
-94.0095
11
351.83
21
-94.0095
0
LINE
8
BLACK
6
CONTINUOUS
10
351.83
20
-94.0095
11
351.839
21
-94.0132
0
LINE
8
BLACK
6
CONTINUOUS
10
351.839
20
-94.0132
11
351.865
21
-94.0241
0
LINE
8
BLACK
6
CONTINUOUS
10
351.865
20
-94.0241
11
351.865
21
-94.0241
0
LINE
8
BLACK
6
CONTINUOUS
10
351.865
20
-94.0241
11
351.865
21
-94.0241
0
LINE
8
BLACK
6
CONTINUOUS
10
351.865
20
-94.0241
11
351.874
21
-94.0448
0
LINE
8
BLACK
6
CONTINUOUS
10
351.874
20
-94.0448
11
351.88
21
-94.0595
0
LINE
8
BLACK
6
CONTINUOUS
10
351.88
20
-94.0595
11
351.88
21
-94.0595
0
LINE
8
BLACK
6
CONTINUOUS
10
351.88
20
-94.0595
11
351.876
21
-94.0686
0
LINE
8
BLACK
6
CONTINUOUS
10
351.876
20
-94.0686
11
351.893
21
-94.3071
0
LINE
8
BLACK
6
CONTINUOUS
10
351.893
20
-94.3071
11
351.946
21
-94.5498
0
LINE
8
BLACK
6
CONTINUOUS
10
351.946
20
-94.5498
11
352.033
21
-94.7824
0
LINE
8
BLACK
6
CONTINUOUS
10
352.033
20
-94.7824
11
352.152
21
-95.0004
0
LINE
8
BLACK
6
CONTINUOUS
10
352.152
20
-95.0004
11
352.301
21
-95.1992
0
LINE
8
BLACK
6
CONTINUOUS
10
352.301
20
-95.1992
11
352.476
21
-95.3748
0
LINE
8
BLACK
6
CONTINUOUS
10
352.476
20
-95.3748
11
352.675
21
-95.5236
0
LINE
8
BLACK
6
CONTINUOUS
10
352.675
20
-95.5236
11
352.893
21
-95.6426
0
LINE
8
BLACK
6
CONTINUOUS
10
352.893
20
-95.6426
11
353.126
21
-95.7293
0
LINE
8
BLACK
6
CONTINUOUS
10
353.126
20
-95.7293
11
353.368
21
-95.7821
0
LINE
8
BLACK
6
CONTINUOUS
10
353.368
20
-95.7821
11
353.607
21
-95.7992
0
LINE
8
BLACK
6
CONTINUOUS
10
353.607
20
-95.7992
11
353.616
21
-95.7954
0
LINE
8
BLACK
6
CONTINUOUS
10
353.616
20
-95.7954
11
353.618
21
-95.7961
0
LINE
8
BLACK
6
CONTINUOUS
10
353.618
20
-95.7961
11
353.619
21
-95.7955
0
LINE
8
BLACK
6
CONTINUOUS
10
353.619
20
-95.7955
11
370.884
21
-96.9861
0
LINE
8
BLACK
6
CONTINUOUS
10
370.884
20
-96.9861
11
370.885
21
-96.9871
0
LINE
8
BLACK
6
CONTINUOUS
10
370.885
20
-96.9871
11
370.888
21
-96.9866
0
LINE
8
BLACK
6
CONTINUOUS
10
370.888
20
-96.9866
11
390.533
21
-99.9631
0
LINE
8
BLACK
6
CONTINUOUS
10
390.533
20
-99.9631
11
390.534
21
-99.964
0
LINE
8
BLACK
6
CONTINUOUS
10
390.534
20
-99.964
11
390.536
21
-99.9637
0
LINE
8
BLACK
6
CONTINUOUS
10
390.536
20
-99.9637
11
423.273
21
-107.106
0
LINE
8
BLACK
6
CONTINUOUS
10
423.273
20
-107.106
11
458.98
21
-107.106
0
LINE
8
BLACK
6
CONTINUOUS
10
458.98
20
-107.106
11
491.716
21
-98.7735
0
LINE
8
BLACK
6
CONTINUOUS
10
491.716
20
-98.7735
11
491.719
21
-98.7739
0
LINE
8
BLACK
6
CONTINUOUS
10
491.719
20
-98.7739
11
491.721
21
-98.7725
0
LINE
8
BLACK
6
CONTINUOUS
10
491.721
20
-98.7725
11
511.366
21
-95.796
0
LINE
8
BLACK
6
CONTINUOUS
10
511.366
20
-95.796
11
511.369
21
-95.7965
0
LINE
8
BLACK
6
CONTINUOUS
10
511.369
20
-95.7965
11
511.371
21
-95.7955
0
LINE
8
BLACK
6
CONTINUOUS
10
511.371
20
-95.7955
11
529.23
21
-94.6049
0
LINE
8
BLACK
6
CONTINUOUS
10
529.23
20
-94.6049
11
529.232
21
-94.6054
0
LINE
8
BLACK
6
CONTINUOUS
10
529.232
20
-94.6054
11
529.233
21
-94.6048
0
LINE
8
BLACK
6
CONTINUOUS
10
529.233
20
-94.6048
11
529.242
21
-94.6083
0
LINE
8
BLACK
6
CONTINUOUS
10
529.242
20
-94.6083
11
529.432
21
-94.5917
0
LINE
8
BLACK
6
CONTINUOUS
10
529.432
20
-94.5917
11
529.625
21
-94.54
0
LINE
8
BLACK
6
CONTINUOUS
10
529.625
20
-94.54
11
529.806
21
-94.4557
0
LINE
8
BLACK
6
CONTINUOUS
10
529.806
20
-94.4557
11
529.969
21
-94.3412
0
LINE
8
BLACK
6
CONTINUOUS
10
529.969
20
-94.3412
11
530.11
21
-94.2001
0
LINE
8
BLACK
6
CONTINUOUS
10
530.11
20
-94.2001
11
530.225
21
-94.0366
0
LINE
8
BLACK
6
CONTINUOUS
10
530.225
20
-94.0366
11
530.309
21
-93.8557
0
LINE
8
BLACK
6
CONTINUOUS
10
530.309
20
-93.8557
11
530.361
21
-93.663
0
LINE
8
BLACK
6
CONTINUOUS
10
530.361
20
-93.663
11
530.378
21
-93.4728
0
LINE
8
BLACK
6
CONTINUOUS
10
530.378
20
-93.4728
11
530.374
21
-93.4641
0
LINE
8
BLACK
6
CONTINUOUS
10
530.374
20
-93.4641
11
530.374
21
-93.4641
0
LINE
8
BLACK
6
CONTINUOUS
10
530.374
20
-93.4641
11
530.389
21
-93.4288
0
LINE
8
BLACK
6
CONTINUOUS
10
530.389
20
-93.4288
11
530.389
21
-93.4288
0
LINE
8
BLACK
6
CONTINUOUS
10
530.389
20
-93.4288
11
530.389
21
-93.4288
0
LINE
8
BLACK
6
CONTINUOUS
10
530.389
20
-93.4288
11
530.389
21
-93.4288
0
LINE
8
BLACK
6
CONTINUOUS
10
530.389
20
-93.4288
11
530.403
21
-93.4227
0
LINE
8
BLACK
6
CONTINUOUS
10
530.403
20
-93.4227
11
530.424
21
-93.4141
0
LINE
8
BLACK
6
CONTINUOUS
10
530.424
20
-93.4141
11
551.855
21
-93.4141
0
LINE
8
BLACK
6
CONTINUOUS
10
551.855
20
-93.4141
11
551.855
21
-93.4141
0
LINE
8
BLACK
6
CONTINUOUS
10
551.855
20
-93.4141
11
551.864
21
-93.4178
0
LINE
8
BLACK
6
CONTINUOUS
10
551.864
20
-93.4178
11
552.137
21
-93.4014
0
LINE
8
BLACK
6
CONTINUOUS
10
552.137
20
-93.4014
11
552.414
21
-93.3505
0
LINE
8
BLACK
6
CONTINUOUS
10
552.414
20
-93.3505
11
552.683
21
-93.2666
0
LINE
8
BLACK
6
CONTINUOUS
10
552.683
20
-93.2666
11
552.941
21
-93.1509
0
LINE
8
BLACK
6
CONTINUOUS
10
552.941
20
-93.1509
11
553.182
21
-93.005
0
LINE
8
BLACK
6
CONTINUOUS
10
553.182
20
-93.005
11
553.404
21
-92.831
0
LINE
8
BLACK
6
CONTINUOUS
10
553.404
20
-92.831
11
553.603
21
-92.6316
0
LINE
8
BLACK
6
CONTINUOUS
10
553.603
20
-92.6316
11
553.777
21
-92.4096
0
LINE
8
BLACK
6
CONTINUOUS
10
553.777
20
-92.4096
11
553.923
21
-92.1683
0
LINE
8
BLACK
6
CONTINUOUS
10
553.923
20
-92.1683
11
554.039
21
-91.9111
0
LINE
8
BLACK
6
CONTINUOUS
10
554.039
20
-91.9111
11
554.123
21
-91.6418
0
LINE
8
BLACK
6
CONTINUOUS
10
554.123
20
-91.6418
11
554.174
21
-91.3644
0
LINE
8
BLACK
6
CONTINUOUS
10
554.174
20
-91.3644
11
554.19
21
-91.0919
0
LINE
8
BLACK
6
CONTINUOUS
10
554.19
20
-91.0919
11
554.187
21
-91.0829
0
LINE
8
BLACK
6
CONTINUOUS
10
554.187
20
-91.0829
11
554.187
21
-74.4141
0
LINE
8
BLACK
6
CONTINUOUS
10
554.187
20
-74.4141
11
554.201
21
-74.3788
0
LINE
8
BLACK
6
CONTINUOUS
10
554.201
20
-74.3788
11
554.237
21
-74.3641
0
LINE
8
BLACK
6
CONTINUOUS
10
554.237
20
-74.3641
11
556.618
21
-74.3641
0
LINE
8
BLACK
6
CONTINUOUS
10
556.618
20
-74.3641
11
556.618
21
-74.3641
0
LINE
8
BLACK
6
CONTINUOUS
10
556.618
20
-74.3641
11
556.627
21
-74.3678
0
LINE
8
BLACK
6
CONTINUOUS
10
556.627
20
-74.3678
11
556.899
21
-74.3514
0
LINE
8
BLACK
6
CONTINUOUS
10
556.899
20
-74.3514
11
557.177
21
-74.3005
0
LINE
8
BLACK
6
CONTINUOUS
10
557.177
20
-74.3005
11
557.446
21
-74.2166
0
LINE
8
BLACK
6
CONTINUOUS
10
557.446
20
-74.2166
11
557.703
21
-74.1009
0
LINE
8
BLACK
6
CONTINUOUS
10
557.703
20
-74.1009
11
557.944
21
-73.955
0
LINE
8
BLACK
6
CONTINUOUS
10
557.944
20
-73.955
11
558.167
21
-73.781
0
LINE
8
BLACK
6
CONTINUOUS
10
558.167
20
-73.781
11
558.366
21
-73.5816
0
LINE
8
BLACK
6
CONTINUOUS
10
558.366
20
-73.5816
11
558.54
21
-73.3596
0
LINE
8
BLACK
6
CONTINUOUS
10
558.54
20
-73.3596
11
558.686
21
-73.1182
0
LINE
8
BLACK
6
CONTINUOUS
10
558.686
20
-73.1182
11
558.802
21
-72.8611
0
LINE
8
BLACK
6
CONTINUOUS
10
558.802
20
-72.8611
11
558.885
21
-72.5918
0
LINE
8
BLACK
6
CONTINUOUS
10
558.885
20
-72.5918
11
558.936
21
-72.3144
0
LINE
8
BLACK
6
CONTINUOUS
10
558.936
20
-72.3144
11
558.953
21
-72.0418
0
LINE
8
BLACK
6
CONTINUOUS
10
558.953
20
-72.0418
11
558.949
21
-72.0329
0
LINE
8
BLACK
6
CONTINUOUS
10
558.949
20
-72.0329
11
558.949
21
-57.7454
0
LINE
8
BLACK
6
CONTINUOUS
10
558.949
20
-57.7454
11
558.953
21
-57.7362
0
LINE
8
BLACK
6
CONTINUOUS
10
558.953
20
-57.7362
11
558.936
21
-57.4638
0
LINE
8
BLACK
6
CONTINUOUS
10
558.936
20
-57.4638
11
558.885
21
-57.1864
0
LINE
8
BLACK
6
CONTINUOUS
10
558.885
20
-57.1864
11
558.802
21
-56.9172
0
LINE
8
BLACK
6
CONTINUOUS
10
558.802
20
-56.9172
11
558.686
21
-56.66
0
LINE
8
BLACK
6
CONTINUOUS
10
558.686
20
-56.66
11
558.54
21
-56.4186
0
LINE
8
BLACK
6
CONTINUOUS
10
558.54
20
-56.4186
11
558.366
21
-56.1966
0
LINE
8
BLACK
6
CONTINUOUS
10
558.366
20
-56.1966
11
558.167
21
-55.9972
0
LINE
8
BLACK
6
CONTINUOUS
10
558.167
20
-55.9972
11
557.945
21
-55.8233
0
LINE
8
BLACK
6
CONTINUOUS
10
557.945
20
-55.8233
11
557.703
21
-55.6774
0
LINE
8
BLACK
6
CONTINUOUS
10
557.703
20
-55.6774
11
557.446
21
-55.5616
0
LINE
8
BLACK
6
CONTINUOUS
10
557.446
20
-55.5616
11
557.177
21
-55.4777
0
LINE
8
BLACK
6
CONTINUOUS
10
557.177
20
-55.4777
11
556.899
21
-55.4269
0
LINE
8
BLACK
6
CONTINUOUS
10
556.899
20
-55.4269
11
556.627
21
-55.4104
0
LINE
8
BLACK
6
CONTINUOUS
10
556.627
20
-55.4104
11
556.618
21
-55.4141
0
LINE
8
BLACK
6
CONTINUOUS
10
556.618
20
-55.4141
11
556.618
21
-55.4141
0
LINE
8
BLACK
6
CONTINUOUS
10
556.618
20
-55.4141
11
554.237
21
-55.4141
0
LINE
8
BLACK
6
CONTINUOUS
10
554.237
20
-55.4141
11
554.201
21
-55.3995
0
LINE
8
BLACK
6
CONTINUOUS
10
554.201
20
-55.3995
11
554.187
21
-55.3641
0
LINE
8
BLACK
6
CONTINUOUS
10
554.187
20
-55.3641
11
554.187
21
-54.7688
0
LINE
8
BLACK
6
CONTINUOUS
10
554.187
20
-54.7688
11
554.187
21
-38.1
0
LINE
8
BLACK
6
CONTINUOUS
10
554.187
20
-38.1
11
554.19
21
-38.0911
0
LINE
8
BLACK
6
CONTINUOUS
10
554.19
20
-38.0911
11
554.174
21
-37.8185
0
LINE
8
BLACK
6
CONTINUOUS
10
554.174
20
-37.8185
11
554.123
21
-37.5411
0
LINE
8
BLACK
6
CONTINUOUS
10
554.123
20
-37.5411
11
554.039
21
-37.2718
0
LINE
8
BLACK
6
CONTINUOUS
10
554.039
20
-37.2718
11
553.923
21
-37.0147
0
LINE
8
BLACK
6
CONTINUOUS
10
553.923
20
-37.0147
11
553.777
21
-36.7733
0
LINE
8
BLACK
6
CONTINUOUS
10
553.777
20
-36.7733
11
553.603
21
-36.5513
0
LINE
8
BLACK
6
CONTINUOUS
10
553.603
20
-36.5513
11
553.404
21
-36.3519
0
LINE
8
BLACK
6
CONTINUOUS
10
553.404
20
-36.3519
11
553.182
21
-36.1779
0
LINE
8
BLACK
6
CONTINUOUS
10
553.182
20
-36.1779
11
552.941
21
-36.032
0
LINE
8
BLACK
6
CONTINUOUS
10
552.941
20
-36.032
11
552.683
21
-35.9163
0
LINE
8
BLACK
6
CONTINUOUS
10
552.683
20
-35.9163
11
552.414
21
-35.8324
0
LINE
8
BLACK
6
CONTINUOUS
10
552.414
20
-35.8324
11
552.137
21
-35.7815
0
LINE
8
BLACK
6
CONTINUOUS
10
552.137
20
-35.7815
11
551.864
21
-35.7651
0
LINE
8
BLACK
6
CONTINUOUS
10
551.864
20
-35.7651
11
551.855
21
-35.7688
0
LINE
8
BLACK
6
CONTINUOUS
10
551.855
20
-35.7688
11
551.82
21
-35.7541
0
LINE
8
BLACK
6
CONTINUOUS
10
551.82
20
-35.7541
11
551.805
21
-35.7188
0
LINE
8
BLACK
6
CONTINUOUS
10
551.805
20
-35.7188
11
551.805
21
-35.7188
0
LINE
8
BLACK
6
CONTINUOUS
10
551.805
20
-35.7188
11
551.805
21
-19.05
0
LINE
8
BLACK
6
CONTINUOUS
10
551.805
20
-19.05
11
551.809
21
-19.0411
0
LINE
8
BLACK
6
CONTINUOUS
10
551.809
20
-19.0411
11
551.792
21
-18.7685
0
LINE
8
BLACK
6
CONTINUOUS
10
551.792
20
-18.7685
11
551.742
21
-18.4911
0
LINE
8
BLACK
6
CONTINUOUS
10
551.742
20
-18.4911
11
551.658
21
-18.2218
0
LINE
8
BLACK
6
CONTINUOUS
10
551.658
20
-18.2218
11
551.542
21
-17.9647
0
LINE
8
BLACK
6
CONTINUOUS
10
551.542
20
-17.9647
11
551.396
21
-17.7233
0
LINE
8
BLACK
6
CONTINUOUS
10
551.396
20
-17.7233
11
551.222
21
-17.5013
0
LINE
8
BLACK
6
CONTINUOUS
10
551.222
20
-17.5013
11
551.023
21
-17.3019
0
LINE
8
BLACK
6
CONTINUOUS
10
551.023
20
-17.3019
11
550.801
21
-17.1279
0
LINE
8
BLACK
6
CONTINUOUS
10
550.801
20
-17.1279
11
550.559
21
-16.982
0
LINE
8
BLACK
6
CONTINUOUS
10
550.559
20
-16.982
11
550.302
21
-16.8663
0
LINE
8
BLACK
6
CONTINUOUS
10
550.302
20
-16.8663
11
550.033
21
-16.7824
0
LINE
8
BLACK
6
CONTINUOUS
10
550.033
20
-16.7824
11
549.756
21
-16.7315
0
LINE
8
BLACK
6
CONTINUOUS
10
549.756
20
-16.7315
11
549.483
21
-16.715
0
LINE
8
BLACK
6
CONTINUOUS
10
549.483
20
-16.715
11
549.474
21
-16.7188
0
LINE
8
BLACK
6
CONTINUOUS
10
549.474
20
-16.7188
11
526.854
21
-16.7188
0
LINE
8
BLACK
6
CONTINUOUS
10
526.854
20
-16.7188
11
506.616
21
-17.9092
0
LINE
8
BLACK
6
CONTINUOUS
10
506.616
20
-17.9092
11
486.378
21
-20.2901
0
LINE
8
BLACK
6
CONTINUOUS
10
486.378
20
-20.2901
11
466.139
21
-23.8617
0
LINE
8
BLACK
6
CONTINUOUS
10
466.139
20
-23.8617
11
448.281
21
-27.4334
0
LINE
8
BLACK
6
CONTINUOUS
10
448.281
20
-27.4334
11
448.276
21
-27.4324
0
LINE
8
BLACK
6
CONTINUOUS
10
448.276
20
-27.4324
11
448.271
21
-27.4344
0
LINE
8
BLACK
6
CONTINUOUS
10
448.271
20
-27.4344
11
424.458
21
-27.4344
0
LINE
8
BLACK
6
CONTINUOUS
10
424.458
20
-27.4344
11
424.453
21
-27.4321
0
LINE
8
BLACK
6
CONTINUOUS
10
424.453
20
-27.4321
11
424.447
21
-27.4331
0
LINE
8
BLACK
6
CONTINUOUS
10
424.447
20
-27.4331
11
406.59
21
-23.2664
0
LINE
8
BLACK
6
CONTINUOUS
10
406.59
20
-23.2664
11
386.352
21
-20.2902
0
LINE
8
BLACK
6
CONTINUOUS
10
386.352
20
-20.2902
11
364.923
21
-17.9092
0
LINE
8
BLACK
6
CONTINUOUS
10
364.923
20
-17.9092
11
345.875
21
-16.7188
0
LINE
8
BLACK
6
CONTINUOUS
10
345.875
20
-16.7188
11
328.018
21
-16.7188
0
LINE
8
BLACK
6
CONTINUOUS
10
328.018
20
-16.7188
11
328.009
21
-16.715
0
LINE
8
BLACK
6
CONTINUOUS
10
328.009
20
-16.715
11
327.736
21
-16.7315
0
LINE
8
BLACK
6
CONTINUOUS
10
327.736
20
-16.7315
11
327.459
21
-16.7823
0
LINE
8
BLACK
6
CONTINUOUS
10
327.459
20
-16.7823
11
327.189
21
-16.8662
0
LINE
8
BLACK
6
CONTINUOUS
10
327.189
20
-16.8662
11
326.932
21
-16.982
0
LINE
8
BLACK
6
CONTINUOUS
10
326.932
20
-16.982
11
326.691
21
-17.1279
0
LINE
8
BLACK
6
CONTINUOUS
10
326.691
20
-17.1279
11
326.469
21
-17.3018
0
LINE
8
BLACK
6
CONTINUOUS
10
326.469
20
-17.3018
11
326.269
21
-17.5013
0
LINE
8
BLACK
6
CONTINUOUS
10
326.269
20
-17.5013
11
326.095
21
-17.7233
0
LINE
8
BLACK
6
CONTINUOUS
10
326.095
20
-17.7233
11
325.95
21
-17.9646
0
LINE
8
BLACK
6
CONTINUOUS
10
325.95
20
-17.9646
11
325.834
21
-18.2218
0
LINE
8
BLACK
6
CONTINUOUS
10
325.834
20
-18.2218
11
325.75
21
-18.4911
0
LINE
8
BLACK
6
CONTINUOUS
10
325.75
20
-18.4911
11
325.699
21
-18.7685
0
LINE
8
BLACK
6
CONTINUOUS
10
325.699
20
-18.7685
11
325.683
21
-19.041
0
LINE
8
BLACK
6
CONTINUOUS
10
325.683
20
-19.041
11
325.686
21
-19.05
0
LINE
8
BLACK
6
CONTINUOUS
10
325.686
20
-19.05
11
325.686
21
-35.7188
0
LINE
8
BLACK
6
CONTINUOUS
10
325.686
20
-35.7188
11
325.686
21
-36.3141
0
LINE
8
BLACK
6
CONTINUOUS
10
325.686
20
-36.3141
11
325.672
21
-36.3494
0
LINE
8
BLACK
6
CONTINUOUS
10
415.069
20
-98.9897
11
415.061
21
-98.9446
0
LINE
8
BLACK
6
CONTINUOUS
10
415.061
20
-98.9446
11
416.412
21
-92.5866
0
LINE
8
BLACK
6
CONTINUOUS
10
416.412
20
-92.5866
11
416.438
21
-92.5488
0
LINE
8
BLACK
6
CONTINUOUS
10
416.438
20
-92.5488
11
416.484
21
-92.5404
0
LINE
8
BLACK
6
CONTINUOUS
10
416.484
20
-92.5404
11
419.418
21
-93.1641
0
LINE
8
BLACK
6
CONTINUOUS
10
419.418
20
-93.1641
11
419.456
21
-93.1901
0
LINE
8
BLACK
6
CONTINUOUS
10
419.456
20
-93.1901
11
419.464
21
-93.2353
0
LINE
8
BLACK
6
CONTINUOUS
10
419.464
20
-93.2353
11
418.113
21
-99.5933
0
LINE
8
BLACK
6
CONTINUOUS
10
418.113
20
-99.5933
11
418.087
21
-99.6311
0
LINE
8
BLACK
6
CONTINUOUS
10
418.087
20
-99.6311
11
418.042
21
-99.6395
0
LINE
8
BLACK
6
CONTINUOUS
10
418.042
20
-99.6395
11
415.107
21
-99.0157
0
LINE
8
BLACK
6
CONTINUOUS
10
415.107
20
-99.0157
11
415.069
21
-98.9897
0
LINE
8
BLACK
6
CONTINUOUS
10
415.191
20
-98.9108
11
418.008
21
-99.5096
0
LINE
8
BLACK
6
CONTINUOUS
10
418.008
20
-99.5096
11
419.334
21
-93.269
0
LINE
8
BLACK
6
CONTINUOUS
10
419.334
20
-93.269
11
416.517
21
-92.6702
0
LINE
8
BLACK
6
CONTINUOUS
10
416.517
20
-92.6702
11
415.191
21
-98.9108
0
LINE
8
BLACK
6
CONTINUOUS
10
416.546
20
-89.0735
11
416.583
21
-89.1002
0
LINE
8
BLACK
6
CONTINUOUS
10
416.583
20
-89.1002
11
416.591
21
-89.1455
0
LINE
8
BLACK
6
CONTINUOUS
10
416.591
20
-89.1455
11
414.622
21
-97.6712
0
LINE
8
BLACK
6
CONTINUOUS
10
414.622
20
-97.6712
11
414.596
21
-97.7086
0
LINE
8
BLACK
6
CONTINUOUS
10
414.596
20
-97.7086
11
414.55
21
-97.7162
0
LINE
8
BLACK
6
CONTINUOUS
10
414.55
20
-97.7162
11
402.371
21
-94.9043
0
LINE
8
BLACK
6
CONTINUOUS
10
402.371
20
-94.9043
11
402.333
21
-94.8776
0
LINE
8
BLACK
6
CONTINUOUS
10
402.333
20
-94.8776
11
402.326
21
-94.8323
0
LINE
8
BLACK
6
CONTINUOUS
10
402.326
20
-94.8323
11
404.294
21
-86.3066
0
LINE
8
BLACK
6
CONTINUOUS
10
404.294
20
-86.3066
11
404.321
21
-86.2692
0
LINE
8
BLACK
6
CONTINUOUS
10
404.321
20
-86.2692
11
404.366
21
-86.2616
0
LINE
8
BLACK
6
CONTINUOUS
10
404.366
20
-86.2616
11
416.546
21
-89.0735
0
LINE
8
BLACK
6
CONTINUOUS
10
402.456
20
-94.8009
11
414.519
21
-97.5858
0
LINE
8
BLACK
6
CONTINUOUS
10
414.519
20
-97.5858
11
416.46
21
-89.177
0
LINE
8
BLACK
6
CONTINUOUS
10
416.46
20
-89.177
11
404.397
21
-86.3921
0
LINE
8
BLACK
6
CONTINUOUS
10
404.397
20
-86.3921
11
402.456
21
-94.8009
0
LINE
8
BLACK
6
CONTINUOUS
10
477.933
20
-85.0786
11
477.96
21
-85.116
0
LINE
8
BLACK
6
CONTINUOUS
10
477.96
20
-85.116
11
479.928
21
-93.6417
0
LINE
8
BLACK
6
CONTINUOUS
10
479.928
20
-93.6417
11
479.921
21
-93.687
0
LINE
8
BLACK
6
CONTINUOUS
10
479.921
20
-93.687
11
479.883
21
-93.7137
0
LINE
8
BLACK
6
CONTINUOUS
10
479.883
20
-93.7137
11
467.704
21
-96.5256
0
LINE
8
BLACK
6
CONTINUOUS
10
467.704
20
-96.5256
11
467.658
21
-96.518
0
LINE
8
BLACK
6
CONTINUOUS
10
467.658
20
-96.518
11
467.632
21
-96.4806
0
LINE
8
BLACK
6
CONTINUOUS
10
467.632
20
-96.4806
11
465.663
21
-87.9549
0
LINE
8
BLACK
6
CONTINUOUS
10
465.663
20
-87.9549
11
465.671
21
-87.9096
0
LINE
8
BLACK
6
CONTINUOUS
10
465.671
20
-87.9096
11
465.708
21
-87.8829
0
LINE
8
BLACK
6
CONTINUOUS
10
465.708
20
-87.8829
11
477.888
21
-85.071
0
LINE
8
BLACK
6
CONTINUOUS
10
477.888
20
-85.071
11
477.933
21
-85.0786
0
LINE
8
BLACK
6
CONTINUOUS
10
465.794
20
-87.9863
11
467.735
21
-96.3951
0
LINE
8
BLACK
6
CONTINUOUS
10
467.735
20
-96.3951
11
479.798
21
-93.6103
0
LINE
8
BLACK
6
CONTINUOUS
10
479.798
20
-93.6103
11
477.857
21
-85.2014
0
LINE
8
BLACK
6
CONTINUOUS
10
477.857
20
-85.2014
11
465.794
21
-87.9863
0
LINE
8
BLACK
6
CONTINUOUS
10
482.484
20
-87.7863
11
482.511
21
-87.8241
0
LINE
8
BLACK
6
CONTINUOUS
10
482.511
20
-87.8241
11
483.862
21
-94.1821
0
LINE
8
BLACK
6
CONTINUOUS
10
483.862
20
-94.1821
11
483.854
21
-94.2272
0
LINE
8
BLACK
6
CONTINUOUS
10
483.854
20
-94.2272
11
483.816
21
-94.2532
0
LINE
8
BLACK
6
CONTINUOUS
10
483.816
20
-94.2532
11
480.881
21
-94.877
0
LINE
8
BLACK
6
CONTINUOUS
10
480.881
20
-94.877
11
480.836
21
-94.8686
0
LINE
8
BLACK
6
CONTINUOUS
10
480.836
20
-94.8686
11
480.81
21
-94.8307
0
LINE
8
BLACK
6
CONTINUOUS
10
480.81
20
-94.8307
11
479.459
21
-88.4728
0
LINE
8
BLACK
6
CONTINUOUS
10
479.459
20
-88.4728
11
479.467
21
-88.4276
0
LINE
8
BLACK
6
CONTINUOUS
10
479.467
20
-88.4276
11
479.505
21
-88.4016
0
LINE
8
BLACK
6
CONTINUOUS
10
479.505
20
-88.4016
11
482.439
21
-87.7779
0
LINE
8
BLACK
6
CONTINUOUS
10
482.439
20
-87.7779
11
482.484
21
-87.7863
0
LINE
8
BLACK
6
CONTINUOUS
10
479.589
20
-88.5065
11
480.915
21
-94.7471
0
LINE
8
BLACK
6
CONTINUOUS
10
480.915
20
-94.7471
11
483.732
21
-94.1483
0
LINE
8
BLACK
6
CONTINUOUS
10
483.732
20
-94.1483
11
482.406
21
-87.9077
0
LINE
8
BLACK
6
CONTINUOUS
10
482.406
20
-87.9077
11
479.589
21
-88.5065
0
LINE
8
BLACK
6
CONTINUOUS
10
436.739
20
-94.1253
11
436.722
21
-94.0829
0
LINE
8
BLACK
6
CONTINUOUS
10
436.722
20
-94.0829
11
436.722
21
-88.0829
0
LINE
8
BLACK
6
CONTINUOUS
10
436.722
20
-88.0829
11
436.739
21
-88.0405
0
LINE
8
BLACK
6
CONTINUOUS
10
436.739
20
-88.0405
11
436.782
21
-88.0229
0
LINE
8
BLACK
6
CONTINUOUS
10
436.782
20
-88.0229
11
444.282
21
-88.0229
0
LINE
8
BLACK
6
CONTINUOUS
10
444.282
20
-88.0229
11
444.324
21
-88.0405
0
LINE
8
BLACK
6
CONTINUOUS
10
444.324
20
-88.0405
11
444.342
21
-88.0829
0
LINE
8
BLACK
6
CONTINUOUS
10
444.342
20
-88.0829
11
444.342
21
-94.0829
0
LINE
8
BLACK
6
CONTINUOUS
10
444.342
20
-94.0829
11
444.324
21
-94.1253
0
LINE
8
BLACK
6
CONTINUOUS
10
444.324
20
-94.1253
11
444.282
21
-94.1429
0
LINE
8
BLACK
6
CONTINUOUS
10
444.282
20
-94.1429
11
436.782
21
-94.1429
0
LINE
8
BLACK
6
CONTINUOUS
10
436.782
20
-94.1429
11
436.739
21
-94.1253
0
LINE
8
BLACK
6
CONTINUOUS
10
436.842
20
-88.1429
11
436.842
21
-94.0229
0
LINE
8
BLACK
6
CONTINUOUS
10
436.842
20
-94.0229
11
444.222
21
-94.0229
0
LINE
8
BLACK
6
CONTINUOUS
10
444.222
20
-94.0229
11
444.222
21
-88.1429
0
LINE
8
BLACK
6
CONTINUOUS
10
444.222
20
-88.1429
11
436.842
21
-88.1429
0
LINE
8
BLACK
6
CONTINUOUS
10
388.026
20
-92.6586
11
388.013
21
-92.6146
0
LINE
8
BLACK
6
CONTINUOUS
10
388.013
20
-92.6146
11
388.692
21
-86.1502
0
LINE
8
BLACK
6
CONTINUOUS
10
388.692
20
-86.1502
11
388.714
21
-86.1098
0
LINE
8
BLACK
6
CONTINUOUS
10
388.714
20
-86.1098
11
388.758
21
-86.0968
0
LINE
8
BLACK
6
CONTINUOUS
10
388.758
20
-86.0968
11
388.758
21
-86.0968
0
LINE
8
BLACK
6
CONTINUOUS
10
388.758
20
-86.0968
11
391.742
21
-86.4104
0
LINE
8
BLACK
6
CONTINUOUS
10
391.742
20
-86.4104
11
391.742
21
-86.4104
0
LINE
8
BLACK
6
CONTINUOUS
10
391.742
20
-86.4104
11
391.782
21
-86.4323
0
LINE
8
BLACK
6
CONTINUOUS
10
391.782
20
-86.4323
11
391.795
21
-86.4763
0
LINE
8
BLACK
6
CONTINUOUS
10
391.795
20
-86.4763
11
391.116
21
-92.9407
0
LINE
8
BLACK
6
CONTINUOUS
10
391.116
20
-92.9407
11
391.094
21
-92.981
0
LINE
8
BLACK
6
CONTINUOUS
10
391.094
20
-92.981
11
391.05
21
-92.9941
0
LINE
8
BLACK
6
CONTINUOUS
10
391.05
20
-92.9941
11
388.066
21
-92.6805
0
LINE
8
BLACK
6
CONTINUOUS
10
388.066
20
-92.6805
11
388.026
21
-92.6586
0
LINE
8
BLACK
6
CONTINUOUS
10
388.138
20
-92.5674
11
391.003
21
-92.8685
0
LINE
8
BLACK
6
CONTINUOUS
10
391.003
20
-92.8685
11
391.669
21
-86.5234
0
LINE
8
BLACK
6
CONTINUOUS
10
391.669
20
-86.5234
11
388.805
21
-86.2224
0
LINE
8
BLACK
6
CONTINUOUS
10
388.805
20
-86.2224
11
388.138
21
-92.5674
0
LINE
8
BLACK
6
CONTINUOUS
10
388.497
20
-82.8309
11
388.497
21
-82.8309
0
LINE
8
BLACK
6
CONTINUOUS
10
388.497
20
-82.8309
11
388.511
21
-82.8386
0
LINE
8
BLACK
6
CONTINUOUS
10
388.511
20
-82.8386
11
388.538
21
-82.8528
0
LINE
8
BLACK
6
CONTINUOUS
10
388.538
20
-82.8528
11
388.538
21
-82.8528
0
LINE
8
BLACK
6
CONTINUOUS
10
388.538
20
-82.8528
11
388.551
21
-82.8968
0
LINE
8
BLACK
6
CONTINUOUS
10
388.551
20
-82.8968
11
387.636
21
-91.5989
0
LINE
8
BLACK
6
CONTINUOUS
10
387.636
20
-91.5989
11
387.614
21
-91.6392
0
LINE
8
BLACK
6
CONTINUOUS
10
387.614
20
-91.6392
11
387.57
21
-91.6523
0
LINE
8
BLACK
6
CONTINUOUS
10
387.57
20
-91.6523
11
375.139
21
-90.3457
0
LINE
8
BLACK
6
CONTINUOUS
10
375.139
20
-90.3457
11
375.098
21
-90.3238
0
LINE
8
BLACK
6
CONTINUOUS
10
375.098
20
-90.3238
11
375.085
21
-90.2797
0
LINE
8
BLACK
6
CONTINUOUS
10
375.085
20
-90.2797
11
376
21
-81.5777
0
LINE
8
BLACK
6
CONTINUOUS
10
376
20
-81.5777
11
376
21
-81.5777
0
LINE
8
BLACK
6
CONTINUOUS
10
376
20
-81.5777
11
376.022
21
-81.5373
0
LINE
8
BLACK
6
CONTINUOUS
10
376.022
20
-81.5373
11
376.066
21
-81.5243
0
LINE
8
BLACK
6
CONTINUOUS
10
376.066
20
-81.5243
11
388.497
21
-82.8309
0
LINE
8
BLACK
6
CONTINUOUS
10
375.211
20
-90.2326
11
387.523
21
-91.5267
0
LINE
8
BLACK
6
CONTINUOUS
10
387.523
20
-91.5267
11
388.425
21
-82.9439
0
LINE
8
BLACK
6
CONTINUOUS
10
388.425
20
-82.9439
11
376.113
21
-81.6499
0
LINE
8
BLACK
6
CONTINUOUS
10
376.113
20
-81.6499
11
375.211
21
-90.2326
0
LINE
8
BLACK
6
CONTINUOUS
10
368.601
20
-90.9876
11
368.559
21
-90.9679
0
LINE
8
BLACK
6
CONTINUOUS
10
368.559
20
-90.9679
11
368.544
21
-90.9246
0
LINE
8
BLACK
6
CONTINUOUS
10
368.544
20
-90.9246
11
368.884
21
-84.4335
0
LINE
8
BLACK
6
CONTINUOUS
10
368.884
20
-84.4335
11
368.904
21
-84.392
0
LINE
8
BLACK
6
CONTINUOUS
10
368.904
20
-84.392
11
368.947
21
-84.3767
0
LINE
8
BLACK
6
CONTINUOUS
10
368.947
20
-84.3767
11
371.943
21
-84.5337
0
LINE
8
BLACK
6
CONTINUOUS
10
371.943
20
-84.5337
11
371.984
21
-84.5535
0
LINE
8
BLACK
6
CONTINUOUS
10
371.984
20
-84.5535
11
372
21
-84.5968
0
LINE
8
BLACK
6
CONTINUOUS
10
372
20
-84.5968
11
371.659
21
-91.0879
0
LINE
8
BLACK
6
CONTINUOUS
10
371.659
20
-91.0879
11
371.64
21
-91.1293
0
LINE
8
BLACK
6
CONTINUOUS
10
371.64
20
-91.1293
11
371.596
21
-91.1446
0
LINE
8
BLACK
6
CONTINUOUS
10
371.596
20
-91.1446
11
371.596
21
-91.1446
0
LINE
8
BLACK
6
CONTINUOUS
10
371.596
20
-91.1446
11
368.601
21
-90.9876
0
LINE
8
BLACK
6
CONTINUOUS
10
368.667
20
-90.8709
11
371.543
21
-91.0217
0
LINE
8
BLACK
6
CONTINUOUS
10
371.543
20
-91.0217
11
371.877
21
-84.6504
0
LINE
8
BLACK
6
CONTINUOUS
10
371.877
20
-84.6504
11
369.001
21
-84.4997
0
LINE
8
BLACK
6
CONTINUOUS
10
369.001
20
-84.4997
11
368.667
21
-90.8709
0
LINE
8
BLACK
6
CONTINUOUS
10
506.232
20
-80.3467
11
506.254
21
-80.387
0
LINE
8
BLACK
6
CONTINUOUS
10
506.254
20
-80.387
11
507.169
21
-89.0891
0
LINE
8
BLACK
6
CONTINUOUS
10
507.169
20
-89.0891
11
507.156
21
-89.1331
0
LINE
8
BLACK
6
CONTINUOUS
10
507.156
20
-89.1331
11
507.14
21
-89.142
0
LINE
8
BLACK
6
CONTINUOUS
10
507.14
20
-89.142
11
507.116
21
-89.1551
0
LINE
8
BLACK
6
CONTINUOUS
10
507.116
20
-89.1551
11
507.116
21
-89.1551
0
LINE
8
BLACK
6
CONTINUOUS
10
507.116
20
-89.1551
11
494.684
21
-90.4617
0
LINE
8
BLACK
6
CONTINUOUS
10
494.684
20
-90.4617
11
494.64
21
-90.4486
0
LINE
8
BLACK
6
CONTINUOUS
10
494.64
20
-90.4486
11
494.618
21
-90.4083
0
LINE
8
BLACK
6
CONTINUOUS
10
494.618
20
-90.4083
11
494.618
21
-90.4083
0
LINE
8
BLACK
6
CONTINUOUS
10
494.618
20
-90.4083
11
493.703
21
-81.7062
0
LINE
8
BLACK
6
CONTINUOUS
10
493.703
20
-81.7062
11
493.717
21
-81.6622
0
LINE
8
BLACK
6
CONTINUOUS
10
493.717
20
-81.6622
11
493.757
21
-81.6403
0
LINE
8
BLACK
6
CONTINUOUS
10
493.757
20
-81.6403
11
506.188
21
-80.3336
0
LINE
8
BLACK
6
CONTINUOUS
10
506.188
20
-80.3336
11
506.232
21
-80.3467
0
LINE
8
BLACK
6
CONTINUOUS
10
493.829
20
-81.7533
11
494.731
21
-90.336
0
LINE
8
BLACK
6
CONTINUOUS
10
494.731
20
-90.336
11
507.043
21
-89.042
0
LINE
8
BLACK
6
CONTINUOUS
10
507.043
20
-89.042
11
506.141
21
-80.4593
0
LINE
8
BLACK
6
CONTINUOUS
10
506.141
20
-80.4593
11
493.829
21
-81.7533
0
LINE
8
BLACK
6
CONTINUOUS
10
510.209
20
-83.1334
11
510.231
21
-83.1738
0
LINE
8
BLACK
6
CONTINUOUS
10
510.231
20
-83.1738
11
510.91
21
-89.6381
0
LINE
8
BLACK
6
CONTINUOUS
10
510.91
20
-89.6381
11
510.897
21
-89.6822
0
LINE
8
BLACK
6
CONTINUOUS
10
510.897
20
-89.6822
11
510.857
21
-89.7041
0
LINE
8
BLACK
6
CONTINUOUS
10
510.857
20
-89.7041
11
510.857
21
-89.7041
0
LINE
8
BLACK
6
CONTINUOUS
10
510.857
20
-89.7041
11
507.873
21
-90.0177
0
LINE
8
BLACK
6
CONTINUOUS
10
507.873
20
-90.0177
11
507.873
21
-90.0177
0
LINE
8
BLACK
6
CONTINUOUS
10
507.873
20
-90.0177
11
507.829
21
-90.0046
0
LINE
8
BLACK
6
CONTINUOUS
10
507.829
20
-90.0046
11
507.807
21
-89.9643
0
LINE
8
BLACK
6
CONTINUOUS
10
507.807
20
-89.9643
11
507.128
21
-83.4999
0
LINE
8
BLACK
6
CONTINUOUS
10
507.128
20
-83.4999
11
507.141
21
-83.4559
0
LINE
8
BLACK
6
CONTINUOUS
10
507.141
20
-83.4559
11
507.181
21
-83.4339
0
LINE
8
BLACK
6
CONTINUOUS
10
507.181
20
-83.4339
11
510.165
21
-83.1204
0
LINE
8
BLACK
6
CONTINUOUS
10
510.165
20
-83.1204
11
510.209
21
-83.1334
0
LINE
8
BLACK
6
CONTINUOUS
10
507.253
20
-83.547
11
507.92
21
-89.8921
0
LINE
8
BLACK
6
CONTINUOUS
10
507.92
20
-89.8921
11
510.784
21
-89.591
0
LINE
8
BLACK
6
CONTINUOUS
10
510.784
20
-89.591
11
510.118
21
-83.246
0
LINE
8
BLACK
6
CONTINUOUS
10
510.118
20
-83.246
11
507.253
21
-83.547
0
LINE
8
BLACK
6
CONTINUOUS
10
355.547
20
-88.8757
11
355.531
21
-88.8324
0
LINE
8
BLACK
6
CONTINUOUS
10
355.531
20
-88.8324
11
355.989
21
-80.0944
0
LINE
8
BLACK
6
CONTINUOUS
10
355.989
20
-80.0944
11
356.009
21
-80.0529
0
LINE
8
BLACK
6
CONTINUOUS
10
356.009
20
-80.0529
11
356.052
21
-80.0376
0
LINE
8
BLACK
6
CONTINUOUS
10
356.052
20
-80.0376
11
368.535
21
-80.6918
0
LINE
8
BLACK
6
CONTINUOUS
10
368.535
20
-80.6918
11
368.577
21
-80.7116
0
LINE
8
BLACK
6
CONTINUOUS
10
368.577
20
-80.7116
11
368.592
21
-80.7548
0
LINE
8
BLACK
6
CONTINUOUS
10
368.592
20
-80.7548
11
368.134
21
-89.4929
0
LINE
8
BLACK
6
CONTINUOUS
10
368.134
20
-89.4929
11
368.114
21
-89.5343
0
LINE
8
BLACK
6
CONTINUOUS
10
368.114
20
-89.5343
11
368.071
21
-89.5496
0
LINE
8
BLACK
6
CONTINUOUS
10
368.071
20
-89.5496
11
355.588
21
-88.8954
0
LINE
8
BLACK
6
CONTINUOUS
10
355.588
20
-88.8954
11
355.547
21
-88.8757
0
LINE
8
BLACK
6
CONTINUOUS
10
355.654
20
-88.7787
11
368.017
21
-89.4267
0
LINE
8
BLACK
6
CONTINUOUS
10
368.017
20
-89.4267
11
368.469
21
-80.8085
0
LINE
8
BLACK
6
CONTINUOUS
10
368.469
20
-80.8085
11
356.106
21
-80.1606
0
LINE
8
BLACK
6
CONTINUOUS
10
356.106
20
-80.1606
11
355.654
21
-88.7787
0
LINE
8
BLACK
6
CONTINUOUS
10
530.019
20
-82.0108
11
530.039
21
-82.0522
0
LINE
8
BLACK
6
CONTINUOUS
10
530.039
20
-82.0522
11
530.379
21
-88.5433
0
LINE
8
BLACK
6
CONTINUOUS
10
530.379
20
-88.5433
11
530.364
21
-88.5866
0
LINE
8
BLACK
6
CONTINUOUS
10
530.364
20
-88.5866
11
530.322
21
-88.6064
0
LINE
8
BLACK
6
CONTINUOUS
10
530.322
20
-88.6064
11
527.326
21
-88.7634
0
LINE
8
BLACK
6
CONTINUOUS
10
527.326
20
-88.7634
11
527.283
21
-88.7481
0
LINE
8
BLACK
6
CONTINUOUS
10
527.283
20
-88.7481
11
527.263
21
-88.7066
0
LINE
8
BLACK
6
CONTINUOUS
10
527.263
20
-88.7066
11
526.923
21
-82.2155
0
LINE
8
BLACK
6
CONTINUOUS
10
526.923
20
-82.2155
11
526.939
21
-82.1722
0
LINE
8
BLACK
6
CONTINUOUS
10
526.939
20
-82.1722
11
526.98
21
-82.1525
0
LINE
8
BLACK
6
CONTINUOUS
10
526.98
20
-82.1525
11
529.976
21
-81.9954
0
LINE
8
BLACK
6
CONTINUOUS
10
529.976
20
-81.9954
11
529.976
21
-81.9954
0
LINE
8
BLACK
6
CONTINUOUS
10
529.976
20
-81.9954
11
530.019
21
-82.0108
0
LINE
8
BLACK
6
CONTINUOUS
10
527.046
20
-82.2692
11
527.38
21
-88.6404
0
LINE
8
BLACK
6
CONTINUOUS
10
527.38
20
-88.6404
11
530.256
21
-88.4897
0
LINE
8
BLACK
6
CONTINUOUS
10
530.256
20
-88.4897
11
529.922
21
-82.1184
0
LINE
8
BLACK
6
CONTINUOUS
10
529.922
20
-82.1184
11
527.046
21
-82.2692
0
LINE
8
BLACK
6
CONTINUOUS
10
514.12
20
-88.3022
11
513.662
21
-79.5642
0
LINE
8
BLACK
6
CONTINUOUS
10
513.662
20
-79.5642
11
513.677
21
-79.5209
0
LINE
8
BLACK
6
CONTINUOUS
10
513.677
20
-79.5209
11
513.719
21
-79.5012
0
LINE
8
BLACK
6
CONTINUOUS
10
513.719
20
-79.5012
11
526.202
21
-78.847
0
LINE
8
BLACK
6
CONTINUOUS
10
526.202
20
-78.847
11
526.245
21
-78.8623
0
LINE
8
BLACK
6
CONTINUOUS
10
526.245
20
-78.8623
11
526.26
21
-78.8944
0
LINE
8
BLACK
6
CONTINUOUS
10
526.26
20
-78.8944
11
526.265
21
-78.9037
0
LINE
8
BLACK
6
CONTINUOUS
10
526.265
20
-78.9037
11
526.723
21
-87.6417
0
LINE
8
BLACK
6
CONTINUOUS
10
526.723
20
-87.6417
11
526.707
21
-87.685
0
LINE
8
BLACK
6
CONTINUOUS
10
526.707
20
-87.685
11
526.666
21
-87.7048
0
LINE
8
BLACK
6
CONTINUOUS
10
526.666
20
-87.7048
11
514.183
21
-88.359
0
LINE
8
BLACK
6
CONTINUOUS
10
514.183
20
-88.359
11
514.14
21
-88.3437
0
LINE
8
BLACK
6
CONTINUOUS
10
514.14
20
-88.3437
11
514.12
21
-88.3022
0
LINE
8
BLACK
6
CONTINUOUS
10
513.785
20
-79.6179
11
514.237
21
-88.236
0
LINE
8
BLACK
6
CONTINUOUS
10
514.237
20
-88.236
11
526.6
21
-87.5881
0
LINE
8
BLACK
6
CONTINUOUS
10
526.6
20
-87.5881
11
526.148
21
-78.9699
0
LINE
8
BLACK
6
CONTINUOUS
10
526.148
20
-78.9699
11
513.785
21
-79.6179
0
LINE
8
BLACK
6
CONTINUOUS
10
346.716
20
-88.0769
11
346.698
21
-88.0344
0
LINE
8
BLACK
6
CONTINUOUS
10
346.698
20
-88.0344
11
346.698
21
-81.5344
0
LINE
8
BLACK
6
CONTINUOUS
10
346.698
20
-81.5344
11
346.716
21
-81.492
0
LINE
8
BLACK
6
CONTINUOUS
10
346.716
20
-81.492
11
346.758
21
-81.4744
0
LINE
8
BLACK
6
CONTINUOUS
10
346.758
20
-81.4744
11
349.758
21
-81.4744
0
LINE
8
BLACK
6
CONTINUOUS
10
349.758
20
-81.4744
11
349.801
21
-81.492
0
LINE
8
BLACK
6
CONTINUOUS
10
349.801
20
-81.492
11
349.818
21
-81.5344
0
LINE
8
BLACK
6
CONTINUOUS
10
349.818
20
-81.5344
11
349.818
21
-88.0344
0
LINE
8
BLACK
6
CONTINUOUS
10
349.818
20
-88.0344
11
349.801
21
-88.0769
0
LINE
8
BLACK
6
CONTINUOUS
10
349.801
20
-88.0769
11
349.758
21
-88.0944
0
LINE
8
BLACK
6
CONTINUOUS
10
349.758
20
-88.0944
11
346.758
21
-88.0944
0
LINE
8
BLACK
6
CONTINUOUS
10
346.758
20
-88.0944
11
346.716
21
-88.0769
0
LINE
8
BLACK
6
CONTINUOUS
10
346.818
20
-81.5944
11
346.818
21
-87.9744
0
LINE
8
BLACK
6
CONTINUOUS
10
346.818
20
-87.9744
11
349.698
21
-87.9744
0
LINE
8
BLACK
6
CONTINUOUS
10
349.698
20
-87.9744
11
349.698
21
-81.5944
0
LINE
8
BLACK
6
CONTINUOUS
10
349.698
20
-81.5944
11
346.818
21
-81.5944
0
LINE
8
BLACK
6
CONTINUOUS
10
549.122
20
-87.4816
11
549.105
21
-87.4391
0
LINE
8
BLACK
6
CONTINUOUS
10
549.105
20
-87.4391
11
549.105
21
-80.9391
0
LINE
8
BLACK
6
CONTINUOUS
10
549.105
20
-80.9391
11
549.122
21
-80.8967
0
LINE
8
BLACK
6
CONTINUOUS
10
549.122
20
-80.8967
11
549.165
21
-80.8791
0
LINE
8
BLACK
6
CONTINUOUS
10
549.165
20
-80.8791
11
552.165
21
-80.8791
0
LINE
8
BLACK
6
CONTINUOUS
10
552.165
20
-80.8791
11
552.207
21
-80.8967
0
LINE
8
BLACK
6
CONTINUOUS
10
552.207
20
-80.8967
11
552.225
21
-80.9391
0
LINE
8
BLACK
6
CONTINUOUS
10
552.225
20
-80.9391
11
552.225
21
-87.4391
0
LINE
8
BLACK
6
CONTINUOUS
10
552.225
20
-87.4391
11
552.207
21
-87.4816
0
LINE
8
BLACK
6
CONTINUOUS
10
552.207
20
-87.4816
11
552.165
21
-87.4991
0
LINE
8
BLACK
6
CONTINUOUS
10
552.165
20
-87.4991
11
549.165
21
-87.4991
0
LINE
8
BLACK
6
CONTINUOUS
10
549.165
20
-87.4991
11
549.122
21
-87.4816
0
LINE
8
BLACK
6
CONTINUOUS
10
549.225
20
-80.9991
11
549.225
21
-87.3791
0
LINE
8
BLACK
6
CONTINUOUS
10
549.225
20
-87.3791
11
552.105
21
-87.3791
0
LINE
8
BLACK
6
CONTINUOUS
10
552.105
20
-87.3791
11
552.105
21
-80.9991
0
LINE
8
BLACK
6
CONTINUOUS
10
552.105
20
-80.9991
11
549.225
21
-80.9991
0
LINE
8
BLACK
6
CONTINUOUS
10
333.631
20
-86.8269
11
333.614
21
-86.7844
0
LINE
8
BLACK
6
CONTINUOUS
10
333.614
20
-86.7844
11
333.614
21
-78.0344
0
LINE
8
BLACK
6
CONTINUOUS
10
333.614
20
-78.0344
11
333.631
21
-77.992
0
LINE
8
BLACK
6
CONTINUOUS
10
333.631
20
-77.992
11
333.674
21
-77.9744
0
LINE
8
BLACK
6
CONTINUOUS
10
333.674
20
-77.9744
11
346.174
21
-77.9744
0
LINE
8
BLACK
6
CONTINUOUS
10
346.174
20
-77.9744
11
346.216
21
-77.992
0
LINE
8
BLACK
6
CONTINUOUS
10
346.216
20
-77.992
11
346.234
21
-78.0344
0
LINE
8
BLACK
6
CONTINUOUS
10
346.234
20
-78.0344
11
346.234
21
-86.7844
0
LINE
8
BLACK
6
CONTINUOUS
10
346.234
20
-86.7844
11
346.216
21
-86.8269
0
LINE
8
BLACK
6
CONTINUOUS
10
346.216
20
-86.8269
11
346.174
21
-86.8444
0
LINE
8
BLACK
6
CONTINUOUS
10
346.174
20
-86.8444
11
333.674
21
-86.8444
0
LINE
8
BLACK
6
CONTINUOUS
10
333.674
20
-86.8444
11
333.631
21
-86.8269
0
LINE
8
BLACK
6
CONTINUOUS
10
333.734
20
-78.0944
11
333.734
21
-86.7244
0
LINE
8
BLACK
6
CONTINUOUS
10
333.734
20
-86.7244
11
346.114
21
-86.7244
0
LINE
8
BLACK
6
CONTINUOUS
10
346.114
20
-86.7244
11
346.114
21
-78.0944
0
LINE
8
BLACK
6
CONTINUOUS
10
346.114
20
-78.0944
11
333.734
21
-78.0944
0
LINE
8
BLACK
6
CONTINUOUS
10
536.038
20
-86.2316
11
536.02
21
-86.1891
0
LINE
8
BLACK
6
CONTINUOUS
10
536.02
20
-86.1891
11
536.02
21
-77.4391
0
LINE
8
BLACK
6
CONTINUOUS
10
536.02
20
-77.4391
11
536.038
21
-77.3967
0
LINE
8
BLACK
6
CONTINUOUS
10
536.038
20
-77.3967
11
536.08
21
-77.3791
0
LINE
8
BLACK
6
CONTINUOUS
10
536.08
20
-77.3791
11
548.58
21
-77.3791
0
LINE
8
BLACK
6
CONTINUOUS
10
548.58
20
-77.3791
11
548.623
21
-77.3967
0
LINE
8
BLACK
6
CONTINUOUS
10
548.623
20
-77.3967
11
548.64
21
-77.4391
0
LINE
8
BLACK
6
CONTINUOUS
10
548.64
20
-77.4391
11
548.64
21
-86.1891
0
LINE
8
BLACK
6
CONTINUOUS
10
548.64
20
-86.1891
11
548.623
21
-86.2316
0
LINE
8
BLACK
6
CONTINUOUS
10
548.623
20
-86.2316
11
548.58
21
-86.2491
0
LINE
8
BLACK
6
CONTINUOUS
10
548.58
20
-86.2491
11
536.08
21
-86.2491
0
LINE
8
BLACK
6
CONTINUOUS
10
536.08
20
-86.2491
11
536.038
21
-86.2316
0
LINE
8
BLACK
6
CONTINUOUS
10
536.14
20
-77.4991
11
536.14
21
-86.1291
0
LINE
8
BLACK
6
CONTINUOUS
10
536.14
20
-86.1291
11
548.52
21
-86.1291
0
LINE
8
BLACK
6
CONTINUOUS
10
548.52
20
-86.1291
11
548.52
21
-77.4991
0
LINE
8
BLACK
6
CONTINUOUS
10
548.52
20
-77.4991
11
536.14
21
-77.4991
0
LINE
8
BLACK
6
CONTINUOUS
10
421.022
20
-85.2975
11
421.014
21
-85.2524
0
LINE
8
BLACK
6
CONTINUOUS
10
421.014
20
-85.2524
11
422.365
21
-78.8944
0
LINE
8
BLACK
6
CONTINUOUS
10
422.365
20
-78.8944
11
422.391
21
-78.8566
0
LINE
8
BLACK
6
CONTINUOUS
10
422.391
20
-78.8566
11
422.437
21
-78.8482
0
LINE
8
BLACK
6
CONTINUOUS
10
422.437
20
-78.8482
11
425.371
21
-79.4719
0
LINE
8
BLACK
6
CONTINUOUS
10
425.371
20
-79.4719
11
425.409
21
-79.4979
0
LINE
8
BLACK
6
CONTINUOUS
10
425.409
20
-79.4979
11
425.417
21
-79.5431
0
LINE
8
BLACK
6
CONTINUOUS
10
425.417
20
-79.5431
11
424.066
21
-85.9011
0
LINE
8
BLACK
6
CONTINUOUS
10
424.066
20
-85.9011
11
424.04
21
-85.9389
0
LINE
8
BLACK
6
CONTINUOUS
10
424.04
20
-85.9389
11
423.995
21
-85.9473
0
LINE
8
BLACK
6
CONTINUOUS
10
423.995
20
-85.9473
11
421.06
21
-85.3235
0
LINE
8
BLACK
6
CONTINUOUS
10
421.06
20
-85.3235
11
421.022
21
-85.2975
0
LINE
8
BLACK
6
CONTINUOUS
10
421.144
20
-85.2186
11
423.961
21
-85.8174
0
LINE
8
BLACK
6
CONTINUOUS
10
423.961
20
-85.8174
11
425.287
21
-79.5768
0
LINE
8
BLACK
6
CONTINUOUS
10
425.287
20
-79.5768
11
422.47
21
-78.978
0
LINE
8
BLACK
6
CONTINUOUS
10
422.47
20
-78.978
11
421.144
21
-85.2186
0
LINE
8
BLACK
6
CONTINUOUS
10
467.006
20
-77.0706
11
467.032
21
-77.1085
0
LINE
8
BLACK
6
CONTINUOUS
10
467.032
20
-77.1085
11
468.384
21
-83.4664
0
LINE
8
BLACK
6
CONTINUOUS
10
468.384
20
-83.4664
11
468.375
21
-83.5116
0
LINE
8
BLACK
6
CONTINUOUS
10
468.375
20
-83.5116
11
468.338
21
-83.5376
0
LINE
8
BLACK
6
CONTINUOUS
10
468.338
20
-83.5376
11
465.403
21
-84.1613
0
LINE
8
BLACK
6
CONTINUOUS
10
465.403
20
-84.1613
11
465.358
21
-84.153
0
LINE
8
BLACK
6
CONTINUOUS
10
465.358
20
-84.153
11
465.332
21
-84.1151
0
LINE
8
BLACK
6
CONTINUOUS
10
465.332
20
-84.1151
11
463.981
21
-77.7572
0
LINE
8
BLACK
6
CONTINUOUS
10
463.981
20
-77.7572
11
463.989
21
-77.712
0
LINE
8
BLACK
6
CONTINUOUS
10
463.989
20
-77.712
11
464.027
21
-77.686
0
LINE
8
BLACK
6
CONTINUOUS
10
464.027
20
-77.686
11
466.961
21
-77.0623
0
LINE
8
BLACK
6
CONTINUOUS
10
466.961
20
-77.0623
11
467.006
21
-77.0706
0
LINE
8
BLACK
6
CONTINUOUS
10
464.11
20
-77.7909
11
465.437
21
-84.0315
0
LINE
8
BLACK
6
CONTINUOUS
10
465.437
20
-84.0315
11
468.254
21
-83.4327
0
LINE
8
BLACK
6
CONTINUOUS
10
468.254
20
-83.4327
11
466.927
21
-77.1921
0
LINE
8
BLACK
6
CONTINUOUS
10
466.927
20
-77.1921
11
464.11
21
-77.7909
0
LINE
8
BLACK
6
CONTINUOUS
10
401.545
20
-82.4342
11
401.534
21
-82.3895
0
LINE
8
BLACK
6
CONTINUOUS
10
401.534
20
-82.3895
11
402.551
21
-75.9695
0
LINE
8
BLACK
6
CONTINUOUS
10
402.551
20
-75.9695
11
402.575
21
-75.9304
0
LINE
8
BLACK
6
CONTINUOUS
10
402.575
20
-75.9304
11
402.619
21
-75.9196
0
LINE
8
BLACK
6
CONTINUOUS
10
402.619
20
-75.9196
11
402.619
21
-75.9197
0
LINE
8
BLACK
6
CONTINUOUS
10
402.619
20
-75.9197
11
405.583
21
-76.389
0
LINE
8
BLACK
6
CONTINUOUS
10
405.583
20
-76.389
11
405.583
21
-76.389
0
LINE
8
BLACK
6
CONTINUOUS
10
405.583
20
-76.389
11
405.622
21
-76.4129
0
LINE
8
BLACK
6
CONTINUOUS
10
405.622
20
-76.4129
11
405.632
21
-76.4576
0
LINE
8
BLACK
6
CONTINUOUS
10
405.632
20
-76.4576
11
404.616
21
-82.8776
0
LINE
8
BLACK
6
CONTINUOUS
10
404.616
20
-82.8776
11
404.592
21
-82.9167
0
LINE
8
BLACK
6
CONTINUOUS
10
404.592
20
-82.9167
11
404.547
21
-82.9275
0
LINE
8
BLACK
6
CONTINUOUS
10
404.547
20
-82.9275
11
401.584
21
-82.4581
0
LINE
8
BLACK
6
CONTINUOUS
10
401.584
20
-82.4581
11
401.545
21
-82.4342
0
LINE
8
BLACK
6
CONTINUOUS
10
401.662
20
-82.349
11
404.506
21
-82.7995
0
LINE
8
BLACK
6
CONTINUOUS
10
404.506
20
-82.7995
11
405.505
21
-76.4981
0
LINE
8
BLACK
6
CONTINUOUS
10
405.505
20
-76.4981
11
402.66
21
-76.0476
0
LINE
8
BLACK
6
CONTINUOUS
10
402.66
20
-76.0476
11
401.662
21
-82.349
0
LINE
8
BLACK
6
CONTINUOUS
10
486.228
20
-73.5491
11
486.252
21
-73.5883
0
LINE
8
BLACK
6
CONTINUOUS
10
486.252
20
-73.5883
11
487.269
21
-80.0082
0
LINE
8
BLACK
6
CONTINUOUS
10
487.269
20
-80.0082
11
487.258
21
-80.0529
0
LINE
8
BLACK
6
CONTINUOUS
10
487.258
20
-80.0529
11
487.219
21
-80.0769
0
LINE
8
BLACK
6
CONTINUOUS
10
487.219
20
-80.0769
11
487.219
21
-80.0769
0
LINE
8
BLACK
6
CONTINUOUS
10
487.219
20
-80.0769
11
484.256
21
-80.5462
0
LINE
8
BLACK
6
CONTINUOUS
10
484.256
20
-80.5462
11
484.256
21
-80.5462
0
LINE
8
BLACK
6
CONTINUOUS
10
484.256
20
-80.5462
11
484.211
21
-80.5355
0
LINE
8
BLACK
6
CONTINUOUS
10
484.211
20
-80.5355
11
484.187
21
-80.4963
0
LINE
8
BLACK
6
CONTINUOUS
10
484.187
20
-80.4963
11
483.17
21
-74.0763
0
LINE
8
BLACK
6
CONTINUOUS
10
483.17
20
-74.0763
11
483.181
21
-74.0317
0
LINE
8
BLACK
6
CONTINUOUS
10
483.181
20
-74.0317
11
483.22
21
-74.0077
0
LINE
8
BLACK
6
CONTINUOUS
10
483.22
20
-74.0077
11
486.183
21
-73.5384
0
LINE
8
BLACK
6
CONTINUOUS
10
486.183
20
-73.5384
11
486.228
21
-73.5491
0
LINE
8
BLACK
6
CONTINUOUS
10
483.298
20
-74.1168
11
484.296
21
-80.4183
0
LINE
8
BLACK
6
CONTINUOUS
10
484.296
20
-80.4183
11
487.141
21
-79.9678
0
LINE
8
BLACK
6
CONTINUOUS
10
487.141
20
-79.9678
11
486.143
21
-73.6663
0
LINE
8
BLACK
6
CONTINUOUS
10
486.143
20
-73.6663
11
483.298
21
-74.1168
0
LINE
8
BLACK
6
CONTINUOUS
10
382.073
20
-79.5619
11
382.06
21
-79.5178
0
LINE
8
BLACK
6
CONTINUOUS
10
382.06
20
-79.5178
11
382.739
21
-73.0534
0
LINE
8
BLACK
6
CONTINUOUS
10
382.739
20
-73.0534
11
382.761
21
-73.0131
0
LINE
8
BLACK
6
CONTINUOUS
10
382.761
20
-73.0131
11
382.805
21
-73
0
LINE
8
BLACK
6
CONTINUOUS
10
382.805
20
-73
11
382.805
21
-73
0
LINE
8
BLACK
6
CONTINUOUS
10
382.805
20
-73
11
385.789
21
-73.3136
0
LINE
8
BLACK
6
CONTINUOUS
10
385.789
20
-73.3136
11
385.789
21
-73.3136
0
LINE
8
BLACK
6
CONTINUOUS
10
385.789
20
-73.3136
11
385.829
21
-73.3355
0
LINE
8
BLACK
6
CONTINUOUS
10
385.829
20
-73.3355
11
385.842
21
-73.3796
0
LINE
8
BLACK
6
CONTINUOUS
10
385.842
20
-73.3796
11
385.163
21
-79.844
0
LINE
8
BLACK
6
CONTINUOUS
10
385.163
20
-79.844
11
385.141
21
-79.8843
0
LINE
8
BLACK
6
CONTINUOUS
10
385.141
20
-79.8843
11
385.097
21
-79.8974
0
LINE
8
BLACK
6
CONTINUOUS
10
385.097
20
-79.8974
11
382.113
21
-79.5838
0
LINE
8
BLACK
6
CONTINUOUS
10
382.113
20
-79.5838
11
382.073
21
-79.5619
0
LINE
8
BLACK
6
CONTINUOUS
10
382.185
20
-79.4707
11
385.05
21
-79.7717
0
LINE
8
BLACK
6
CONTINUOUS
10
385.05
20
-79.7717
11
385.716
21
-73.4267
0
LINE
8
BLACK
6
CONTINUOUS
10
385.716
20
-73.4267
11
382.852
21
-73.1256
0
LINE
8
BLACK
6
CONTINUOUS
10
382.852
20
-73.1256
11
382.185
21
-79.4707
0
LINE
8
BLACK
6
CONTINUOUS
10
414.255
20
-76.5388
11
414.246
21
-76.4937
0
LINE
8
BLACK
6
CONTINUOUS
10
414.246
20
-76.4937
11
416.066
21
-67.9349
0
LINE
8
BLACK
6
CONTINUOUS
10
416.066
20
-67.9349
11
416.066
21
-67.9349
0
LINE
8
BLACK
6
CONTINUOUS
10
416.066
20
-67.9349
11
416.092
21
-67.897
0
LINE
8
BLACK
6
CONTINUOUS
10
416.092
20
-67.897
11
416.137
21
-67.8887
0
LINE
8
BLACK
6
CONTINUOUS
10
416.137
20
-67.8887
11
428.364
21
-70.4876
0
LINE
8
BLACK
6
CONTINUOUS
10
428.364
20
-70.4876
11
428.402
21
-70.5136
0
LINE
8
BLACK
6
CONTINUOUS
10
428.402
20
-70.5136
11
428.41
21
-70.5587
0
LINE
8
BLACK
6
CONTINUOUS
10
428.41
20
-70.5587
11
426.591
21
-79.1175
0
LINE
8
BLACK
6
CONTINUOUS
10
426.591
20
-79.1175
11
426.565
21
-79.1554
0
LINE
8
BLACK
6
CONTINUOUS
10
426.565
20
-79.1554
11
426.52
21
-79.1637
0
LINE
8
BLACK
6
CONTINUOUS
10
426.52
20
-79.1637
11
414.293
21
-76.5648
0
LINE
8
BLACK
6
CONTINUOUS
10
414.293
20
-76.5648
11
414.255
21
-76.5388
0
LINE
8
BLACK
6
CONTINUOUS
10
414.376
20
-76.4599
11
426.486
21
-79.0339
0
LINE
8
BLACK
6
CONTINUOUS
10
426.486
20
-79.0339
11
428.28
21
-70.5925
0
LINE
8
BLACK
6
CONTINUOUS
10
428.28
20
-70.5925
11
416.171
21
-68.0185
0
LINE
8
BLACK
6
CONTINUOUS
10
416.171
20
-68.0185
11
414.376
21
-76.4599
0
LINE
8
BLACK
6
CONTINUOUS
10
466.162
20
-66.7064
11
466.188
21
-66.7442
0
LINE
8
BLACK
6
CONTINUOUS
10
466.188
20
-66.7442
11
468.008
21
-75.303
0
LINE
8
BLACK
6
CONTINUOUS
10
468.008
20
-75.303
11
467.999
21
-75.3482
0
LINE
8
BLACK
6
CONTINUOUS
10
467.999
20
-75.3482
11
467.961
21
-75.3742
0
LINE
8
BLACK
6
CONTINUOUS
10
467.961
20
-75.3742
11
455.735
21
-77.9731
0
LINE
8
BLACK
6
CONTINUOUS
10
455.735
20
-77.9731
11
455.689
21
-77.9647
0
LINE
8
BLACK
6
CONTINUOUS
10
455.689
20
-77.9647
11
455.663
21
-77.9269
0
LINE
8
BLACK
6
CONTINUOUS
10
455.663
20
-77.9269
11
455.663
21
-77.9269
0
LINE
8
BLACK
6
CONTINUOUS
10
455.663
20
-77.9269
11
453.844
21
-69.3681
0
LINE
8
BLACK
6
CONTINUOUS
10
453.844
20
-69.3681
11
453.853
21
-69.3229
0
LINE
8
BLACK
6
CONTINUOUS
10
453.853
20
-69.3229
11
453.89
21
-69.2969
0
LINE
8
BLACK
6
CONTINUOUS
10
453.89
20
-69.2969
11
466.117
21
-66.698
0
LINE
8
BLACK
6
CONTINUOUS
10
466.117
20
-66.698
11
466.162
21
-66.7064
0
LINE
8
BLACK
6
CONTINUOUS
10
453.974
20
-69.4018
11
455.768
21
-77.8432
0
LINE
8
BLACK
6
CONTINUOUS
10
455.768
20
-77.8432
11
467.878
21
-75.2693
0
LINE
8
BLACK
6
CONTINUOUS
10
467.878
20
-75.2693
11
466.083
21
-66.8279
0
LINE
8
BLACK
6
CONTINUOUS
10
466.083
20
-66.8279
11
453.974
21
-69.4018
0
LINE
8
BLACK
6
CONTINUOUS
10
505.446
20
-70.6318
11
505.468
21
-70.6722
0
LINE
8
BLACK
6
CONTINUOUS
10
505.468
20
-70.6722
11
506.148
21
-77.1366
0
LINE
8
BLACK
6
CONTINUOUS
10
506.148
20
-77.1366
11
506.134
21
-77.1806
0
LINE
8
BLACK
6
CONTINUOUS
10
506.134
20
-77.1806
11
506.094
21
-77.2025
0
LINE
8
BLACK
6
CONTINUOUS
10
506.094
20
-77.2025
11
506.094
21
-77.2025
0
LINE
8
BLACK
6
CONTINUOUS
10
506.094
20
-77.2025
11
503.111
21
-77.5161
0
LINE
8
BLACK
6
CONTINUOUS
10
503.111
20
-77.5161
11
503.111
21
-77.5161
0
LINE
8
BLACK
6
CONTINUOUS
10
503.111
20
-77.5161
11
503.067
21
-77.5031
0
LINE
8
BLACK
6
CONTINUOUS
10
503.067
20
-77.5031
11
503.045
21
-77.4627
0
LINE
8
BLACK
6
CONTINUOUS
10
503.045
20
-77.4627
11
502.365
21
-70.9983
0
LINE
8
BLACK
6
CONTINUOUS
10
502.365
20
-70.9983
11
502.378
21
-70.9543
0
LINE
8
BLACK
6
CONTINUOUS
10
502.378
20
-70.9543
11
502.419
21
-70.9324
0
LINE
8
BLACK
6
CONTINUOUS
10
502.419
20
-70.9324
11
505.402
21
-70.6188
0
LINE
8
BLACK
6
CONTINUOUS
10
505.402
20
-70.6188
11
505.446
21
-70.6318
0
LINE
8
BLACK
6
CONTINUOUS
10
502.491
20
-71.0454
11
503.158
21
-77.3905
0
LINE
8
BLACK
6
CONTINUOUS
10
503.158
20
-77.3905
11
506.022
21
-77.0894
0
LINE
8
BLACK
6
CONTINUOUS
10
506.022
20
-77.0894
11
505.355
21
-70.7444
0
LINE
8
BLACK
6
CONTINUOUS
10
505.355
20
-70.7444
11
502.491
21
-71.0454
0
LINE
8
BLACK
6
CONTINUOUS
10
388.078
20
-77.0159
11
388.061
21
-76.9735
0
LINE
8
BLACK
6
CONTINUOUS
10
388.061
20
-76.9735
11
388.061
21
-69.4735
0
LINE
8
BLACK
6
CONTINUOUS
10
388.061
20
-69.4735
11
388.078
21
-69.4311
0
LINE
8
BLACK
6
CONTINUOUS
10
388.078
20
-69.4311
11
388.121
21
-69.4135
0
LINE
8
BLACK
6
CONTINUOUS
10
388.121
20
-69.4135
11
394.121
21
-69.4135
0
LINE
8
BLACK
6
CONTINUOUS
10
394.121
20
-69.4135
11
394.163
21
-69.4311
0
LINE
8
BLACK
6
CONTINUOUS
10
394.163
20
-69.4311
11
394.181
21
-69.4735
0
LINE
8
BLACK
6
CONTINUOUS
10
394.181
20
-69.4735
11
394.181
21
-76.9735
0
LINE
8
BLACK
6
CONTINUOUS
10
394.181
20
-76.9735
11
394.163
21
-77.0159
0
LINE
8
BLACK
6
CONTINUOUS
10
394.163
20
-77.0159
11
394.121
21
-77.0335
0
LINE
8
BLACK
6
CONTINUOUS
10
394.121
20
-77.0335
11
388.121
21
-77.0335
0
LINE
8
BLACK
6
CONTINUOUS
10
388.121
20
-77.0335
11
388.078
21
-77.0159
0
LINE
8
BLACK
6
CONTINUOUS
10
388.181
20
-69.5335
11
388.181
21
-76.9135
0
LINE
8
BLACK
6
CONTINUOUS
10
388.181
20
-76.9135
11
394.061
21
-76.9135
0
LINE
8
BLACK
6
CONTINUOUS
10
394.061
20
-76.9135
11
394.061
21
-69.5335
0
LINE
8
BLACK
6
CONTINUOUS
10
394.061
20
-69.5335
11
388.181
21
-69.5335
0
LINE
8
BLACK
6
CONTINUOUS
10
363.243
20
-76.7001
11
363.201
21
-76.6803
0
LINE
8
BLACK
6
CONTINUOUS
10
363.201
20
-76.6803
11
363.186
21
-76.6371
0
LINE
8
BLACK
6
CONTINUOUS
10
363.186
20
-76.6371
11
363.526
21
-70.146
0
LINE
8
BLACK
6
CONTINUOUS
10
363.526
20
-70.146
11
363.546
21
-70.1045
0
LINE
8
BLACK
6
CONTINUOUS
10
363.546
20
-70.1045
11
363.589
21
-70.0892
0
LINE
8
BLACK
6
CONTINUOUS
10
363.589
20
-70.0892
11
366.585
21
-70.2462
0
LINE
8
BLACK
6
CONTINUOUS
10
366.585
20
-70.2462
11
366.627
21
-70.266
0
LINE
8
BLACK
6
CONTINUOUS
10
366.627
20
-70.266
11
366.642
21
-70.3093
0
LINE
8
BLACK
6
CONTINUOUS
10
366.642
20
-70.3093
11
366.302
21
-76.8003
0
LINE
8
BLACK
6
CONTINUOUS
10
366.302
20
-76.8003
11
366.282
21
-76.8418
0
LINE
8
BLACK
6
CONTINUOUS
10
366.282
20
-76.8418
11
366.239
21
-76.8571
0
LINE
8
BLACK
6
CONTINUOUS
10
366.239
20
-76.8571
11
366.239
21
-76.8571
0
LINE
8
BLACK
6
CONTINUOUS
10
366.239
20
-76.8571
11
363.243
21
-76.7001
0
LINE
8
BLACK
6
CONTINUOUS
10
363.309
20
-76.5834
11
366.185
21
-76.7341
0
LINE
8
BLACK
6
CONTINUOUS
10
366.185
20
-76.7341
11
366.519
21
-70.3629
0
LINE
8
BLACK
6
CONTINUOUS
10
366.519
20
-70.3629
11
363.643
21
-70.2122
0
LINE
8
BLACK
6
CONTINUOUS
10
363.643
20
-70.2122
11
363.309
21
-76.5834
0
LINE
8
BLACK
6
CONTINUOUS
10
525.257
20
-69.5092
11
525.276
21
-69.5507
0
LINE
8
BLACK
6
CONTINUOUS
10
525.276
20
-69.5507
11
525.617
21
-76.0417
0
LINE
8
BLACK
6
CONTINUOUS
10
525.617
20
-76.0417
11
525.601
21
-76.085
0
LINE
8
BLACK
6
CONTINUOUS
10
525.601
20
-76.085
11
525.56
21
-76.1048
0
LINE
8
BLACK
6
CONTINUOUS
10
525.56
20
-76.1048
11
522.564
21
-76.2618
0
LINE
8
BLACK
6
CONTINUOUS
10
522.564
20
-76.2618
11
522.521
21
-76.2465
0
LINE
8
BLACK
6
CONTINUOUS
10
522.521
20
-76.2465
11
522.501
21
-76.205
0
LINE
8
BLACK
6
CONTINUOUS
10
522.501
20
-76.205
11
522.161
21
-69.7139
0
LINE
8
BLACK
6
CONTINUOUS
10
522.161
20
-69.7139
11
522.176
21
-69.6707
0
LINE
8
BLACK
6
CONTINUOUS
10
522.176
20
-69.6707
11
522.217
21
-69.6509
0
LINE
8
BLACK
6
CONTINUOUS
10
522.217
20
-69.6509
11
525.213
21
-69.4939
0
LINE
8
BLACK
6
CONTINUOUS
10
525.213
20
-69.4939
11
525.213
21
-69.4939
0
LINE
8
BLACK
6
CONTINUOUS
10
525.213
20
-69.4939
11
525.257
21
-69.5092
0
LINE
8
BLACK
6
CONTINUOUS
10
522.284
20
-69.7676
11
522.618
21
-76.1388
0
LINE
8
BLACK
6
CONTINUOUS
10
522.618
20
-76.1388
11
525.494
21
-75.9881
0
LINE
8
BLACK
6
CONTINUOUS
10
525.494
20
-75.9881
11
525.16
21
-69.6169
0
LINE
8
BLACK
6
CONTINUOUS
10
525.16
20
-69.6169
11
522.284
21
-69.7676
0
LINE
8
BLACK
6
CONTINUOUS
10
337.191
20
-75.5753
11
337.173
21
-75.5329
0
LINE
8
BLACK
6
CONTINUOUS
10
337.173
20
-75.5329
11
337.173
21
-69.0329
0
LINE
8
BLACK
6
CONTINUOUS
10
337.173
20
-69.0329
11
337.191
21
-68.9904
0
LINE
8
BLACK
6
CONTINUOUS
10
337.191
20
-68.9904
11
337.233
21
-68.9729
0
LINE
8
BLACK
6
CONTINUOUS
10
337.233
20
-68.9729
11
340.233
21
-68.9729
0
LINE
8
BLACK
6
CONTINUOUS
10
340.233
20
-68.9729
11
340.276
21
-68.9904
0
LINE
8
BLACK
6
CONTINUOUS
10
340.276
20
-68.9904
11
340.293
21
-69.0329
0
LINE
8
BLACK
6
CONTINUOUS
10
340.293
20
-69.0329
11
340.293
21
-75.5329
0
LINE
8
BLACK
6
CONTINUOUS
10
340.293
20
-75.5329
11
340.276
21
-75.5753
0
LINE
8
BLACK
6
CONTINUOUS
10
340.276
20
-75.5753
11
340.233
21
-75.5929
0
LINE
8
BLACK
6
CONTINUOUS
10
340.233
20
-75.5929
11
337.233
21
-75.5929
0
LINE
8
BLACK
6
CONTINUOUS
10
337.233
20
-75.5929
11
337.191
21
-75.5753
0
LINE
8
BLACK
6
CONTINUOUS
10
337.293
20
-69.0929
11
337.293
21
-75.4729
0
LINE
8
BLACK
6
CONTINUOUS
10
337.293
20
-75.4729
11
340.173
21
-75.4729
0
LINE
8
BLACK
6
CONTINUOUS
10
340.173
20
-75.4729
11
340.173
21
-69.0929
0
LINE
8
BLACK
6
CONTINUOUS
10
340.173
20
-69.0929
11
337.293
21
-69.0929
0
LINE
8
BLACK
6
CONTINUOUS
10
394.668
20
-73.3127
11
394.657
21
-73.2681
0
LINE
8
BLACK
6
CONTINUOUS
10
394.657
20
-73.2681
11
396.026
21
-64.6258
0
LINE
8
BLACK
6
CONTINUOUS
10
396.026
20
-64.6258
11
396.041
21
-64.5999
0
LINE
8
BLACK
6
CONTINUOUS
10
396.041
20
-64.5999
11
396.05
21
-64.5866
0
LINE
8
BLACK
6
CONTINUOUS
10
396.05
20
-64.5866
11
396.094
21
-64.5759
0
LINE
8
BLACK
6
CONTINUOUS
10
396.094
20
-64.5759
11
408.44
21
-66.5314
0
LINE
8
BLACK
6
CONTINUOUS
10
408.44
20
-66.5314
11
408.479
21
-66.5553
0
LINE
8
BLACK
6
CONTINUOUS
10
408.479
20
-66.5553
11
408.49
21
-66.6
0
LINE
8
BLACK
6
CONTINUOUS
10
408.49
20
-66.6
11
408.49
21
-66.6
0
LINE
8
BLACK
6
CONTINUOUS
10
408.49
20
-66.6
11
407.121
21
-75.2423
0
LINE
8
BLACK
6
CONTINUOUS
10
407.121
20
-75.2423
11
407.121
21
-75.2423
0
LINE
8
BLACK
6
CONTINUOUS
10
407.121
20
-75.2423
11
407.097
21
-75.2814
0
LINE
8
BLACK
6
CONTINUOUS
10
407.097
20
-75.2814
11
407.053
21
-75.2921
0
LINE
8
BLACK
6
CONTINUOUS
10
407.053
20
-75.2921
11
394.707
21
-73.3367
0
LINE
8
BLACK
6
CONTINUOUS
10
394.707
20
-73.3367
11
394.668
21
-73.3127
0
LINE
8
BLACK
6
CONTINUOUS
10
394.785
20
-73.2276
11
407.012
21
-75.1642
0
LINE
8
BLACK
6
CONTINUOUS
10
407.012
20
-75.1642
11
408.362
21
-66.6405
0
LINE
8
BLACK
6
CONTINUOUS
10
408.362
20
-66.6405
11
396.135
21
-64.7038
0
LINE
8
BLACK
6
CONTINUOUS
10
396.135
20
-64.7038
11
394.785
21
-73.2276
0
LINE
8
BLACK
6
CONTINUOUS
10
546.741
20
-74.98
11
546.723
21
-74.9376
0
LINE
8
BLACK
6
CONTINUOUS
10
546.723
20
-74.9376
11
546.723
21
-68.4376
0
LINE
8
BLACK
6
CONTINUOUS
10
546.723
20
-68.4376
11
546.741
21
-68.3951
0
LINE
8
BLACK
6
CONTINUOUS
10
546.741
20
-68.3951
11
546.783
21
-68.3776
0
LINE
8
BLACK
6
CONTINUOUS
10
546.783
20
-68.3776
11
549.783
21
-68.3776
0
LINE
8
BLACK
6
CONTINUOUS
10
549.783
20
-68.3776
11
549.826
21
-68.3951
0
LINE
8
BLACK
6
CONTINUOUS
10
549.826
20
-68.3951
11
549.843
21
-68.4376
0
LINE
8
BLACK
6
CONTINUOUS
10
549.843
20
-68.4376
11
549.843
21
-74.9376
0
LINE
8
BLACK
6
CONTINUOUS
10
549.843
20
-74.9376
11
549.826
21
-74.98
0
LINE
8
BLACK
6
CONTINUOUS
10
549.826
20
-74.98
11
549.783
21
-74.9976
0
LINE
8
BLACK
6
CONTINUOUS
10
549.783
20
-74.9976
11
546.783
21
-74.9976
0
LINE
8
BLACK
6
CONTINUOUS
10
546.783
20
-74.9976
11
546.741
21
-74.98
0
LINE
8
BLACK
6
CONTINUOUS
10
546.843
20
-68.4976
11
546.843
21
-74.8776
0
LINE
8
BLACK
6
CONTINUOUS
10
546.843
20
-74.8776
11
549.723
21
-74.8776
0
LINE
8
BLACK
6
CONTINUOUS
10
549.723
20
-74.8776
11
549.723
21
-68.4976
0
LINE
8
BLACK
6
CONTINUOUS
10
549.723
20
-68.4976
11
546.843
21
-68.4976
0
LINE
8
BLACK
6
CONTINUOUS
10
488.091
20
-74.6347
11
488.073
21
-74.5922
0
LINE
8
BLACK
6
CONTINUOUS
10
488.073
20
-74.5922
11
488.073
21
-67.0922
0
LINE
8
BLACK
6
CONTINUOUS
10
488.073
20
-67.0922
11
488.091
21
-67.0498
0
LINE
8
BLACK
6
CONTINUOUS
10
488.091
20
-67.0498
11
488.133
21
-67.0322
0
LINE
8
BLACK
6
CONTINUOUS
10
488.133
20
-67.0322
11
494.133
21
-67.0322
0
LINE
8
BLACK
6
CONTINUOUS
10
494.133
20
-67.0322
11
494.176
21
-67.0498
0
LINE
8
BLACK
6
CONTINUOUS
10
494.176
20
-67.0498
11
494.193
21
-67.0922
0
LINE
8
BLACK
6
CONTINUOUS
10
494.193
20
-67.0922
11
494.193
21
-74.5922
0
LINE
8
BLACK
6
CONTINUOUS
10
494.193
20
-74.5922
11
494.176
21
-74.6347
0
LINE
8
BLACK
6
CONTINUOUS
10
494.176
20
-74.6347
11
494.133
21
-74.6522
0
LINE
8
BLACK
6
CONTINUOUS
10
494.133
20
-74.6522
11
488.133
21
-74.6522
0
LINE
8
BLACK
6
CONTINUOUS
10
488.133
20
-74.6522
11
488.091
21
-74.6347
0
LINE
8
BLACK
6
CONTINUOUS
10
488.193
20
-67.1522
11
488.193
21
-74.5322
0
LINE
8
BLACK
6
CONTINUOUS
10
488.193
20
-74.5322
11
494.073
21
-74.5322
0
LINE
8
BLACK
6
CONTINUOUS
10
494.073
20
-74.5322
11
494.073
21
-67.1522
0
LINE
8
BLACK
6
CONTINUOUS
10
494.073
20
-67.1522
11
488.193
21
-67.1522
0
LINE
8
BLACK
6
CONTINUOUS
10
486.205
20
-63.396
11
486.229
21
-63.4352
0
LINE
8
BLACK
6
CONTINUOUS
10
486.229
20
-63.4352
11
486.229
21
-63.4352
0
LINE
8
BLACK
6
CONTINUOUS
10
486.229
20
-63.4352
11
487.597
21
-72.0774
0
LINE
8
BLACK
6
CONTINUOUS
10
487.597
20
-72.0774
11
487.597
21
-72.0774
0
LINE
8
BLACK
6
CONTINUOUS
10
487.597
20
-72.0774
11
487.587
21
-72.1221
0
LINE
8
BLACK
6
CONTINUOUS
10
487.587
20
-72.1221
11
487.547
21
-72.1461
0
LINE
8
BLACK
6
CONTINUOUS
10
487.547
20
-72.1461
11
475.201
21
-74.1015
0
LINE
8
BLACK
6
CONTINUOUS
10
475.201
20
-74.1015
11
475.157
21
-74.0908
0
LINE
8
BLACK
6
CONTINUOUS
10
475.157
20
-74.0908
11
475.133
21
-74.0516
0
LINE
8
BLACK
6
CONTINUOUS
10
475.133
20
-74.0516
11
473.764
21
-65.4094
0
LINE
8
BLACK
6
CONTINUOUS
10
473.764
20
-65.4094
11
473.775
21
-65.3647
0
LINE
8
BLACK
6
CONTINUOUS
10
473.775
20
-65.3647
11
473.814
21
-65.3407
0
LINE
8
BLACK
6
CONTINUOUS
10
473.814
20
-65.3407
11
486.16
21
-63.3853
0
LINE
8
BLACK
6
CONTINUOUS
10
486.16
20
-63.3853
11
486.205
21
-63.396
0
LINE
8
BLACK
6
CONTINUOUS
10
473.892
20
-65.4499
11
475.242
21
-73.9736
0
LINE
8
BLACK
6
CONTINUOUS
10
475.242
20
-73.9736
11
487.469
21
-72.037
0
LINE
8
BLACK
6
CONTINUOUS
10
487.469
20
-72.037
11
486.119
21
-63.5132
0
LINE
8
BLACK
6
CONTINUOUS
10
486.119
20
-63.5132
11
473.892
21
-65.4499
0
LINE
8
BLACK
6
CONTINUOUS
10
346.406
20
-72.8487
11
346.389
21
-72.8062
0
LINE
8
BLACK
6
CONTINUOUS
10
346.389
20
-72.8062
11
346.389
21
-65.3062
0
LINE
8
BLACK
6
CONTINUOUS
10
346.389
20
-65.3062
11
346.406
21
-65.2638
0
LINE
8
BLACK
6
CONTINUOUS
10
346.406
20
-65.2638
11
346.449
21
-65.2462
0
LINE
8
BLACK
6
CONTINUOUS
10
346.449
20
-65.2462
11
352.449
21
-65.2462
0
LINE
8
BLACK
6
CONTINUOUS
10
352.449
20
-65.2462
11
352.491
21
-65.2638
0
LINE
8
BLACK
6
CONTINUOUS
10
352.491
20
-65.2638
11
352.509
21
-65.3062
0
LINE
8
BLACK
6
CONTINUOUS
10
352.509
20
-65.3062
11
352.509
21
-72.8062
0
LINE
8
BLACK
6
CONTINUOUS
10
352.509
20
-72.8062
11
352.491
21
-72.8487
0
LINE
8
BLACK
6
CONTINUOUS
10
352.491
20
-72.8487
11
352.449
21
-72.8662
0
LINE
8
BLACK
6
CONTINUOUS
10
352.449
20
-72.8662
11
346.449
21
-72.8662
0
LINE
8
BLACK
6
CONTINUOUS
10
346.449
20
-72.8662
11
346.406
21
-72.8487
0
LINE
8
BLACK
6
CONTINUOUS
10
346.509
20
-65.3662
11
346.509
21
-72.7462
0
LINE
8
BLACK
6
CONTINUOUS
10
346.509
20
-72.7462
11
352.389
21
-72.7462
0
LINE
8
BLACK
6
CONTINUOUS
10
352.389
20
-72.7462
11
352.389
21
-65.3662
0
LINE
8
BLACK
6
CONTINUOUS
10
352.389
20
-65.3662
11
346.509
21
-65.3662
0
LINE
8
BLACK
6
CONTINUOUS
10
529.763
20
-72.2534
11
529.745
21
-72.211
0
LINE
8
BLACK
6
CONTINUOUS
10
529.745
20
-72.211
11
529.745
21
-64.711
0
LINE
8
BLACK
6
CONTINUOUS
10
529.745
20
-64.711
11
529.763
21
-64.6686
0
LINE
8
BLACK
6
CONTINUOUS
10
529.763
20
-64.6686
11
529.805
21
-64.651
0
LINE
8
BLACK
6
CONTINUOUS
10
529.805
20
-64.651
11
535.805
21
-64.651
0
LINE
8
BLACK
6
CONTINUOUS
10
535.805
20
-64.651
11
535.847
21
-64.6686
0
LINE
8
BLACK
6
CONTINUOUS
10
535.847
20
-64.6686
11
535.865
21
-64.711
0
LINE
8
BLACK
6
CONTINUOUS
10
535.865
20
-64.711
11
535.865
21
-72.211
0
LINE
8
BLACK
6
CONTINUOUS
10
535.865
20
-72.211
11
535.847
21
-72.2534
0
LINE
8
BLACK
6
CONTINUOUS
10
535.847
20
-72.2534
11
535.805
21
-72.271
0
LINE
8
BLACK
6
CONTINUOUS
10
535.805
20
-72.271
11
529.805
21
-72.271
0
LINE
8
BLACK
6
CONTINUOUS
10
529.805
20
-72.271
11
529.763
21
-72.2534
0
LINE
8
BLACK
6
CONTINUOUS
10
529.865
20
-64.771
11
529.865
21
-72.151
0
LINE
8
BLACK
6
CONTINUOUS
10
529.865
20
-72.151
11
535.745
21
-72.151
0
LINE
8
BLACK
6
CONTINUOUS
10
535.745
20
-72.151
11
535.745
21
-64.771
0
LINE
8
BLACK
6
CONTINUOUS
10
535.745
20
-64.771
11
529.865
21
-64.771
0
LINE
8
BLACK
6
CONTINUOUS
10
388.497
20
-63.1855
11
388.497
21
-63.1855
0
LINE
8
BLACK
6
CONTINUOUS
10
388.497
20
-63.1855
11
388.511
21
-63.1933
0
LINE
8
BLACK
6
CONTINUOUS
10
388.511
20
-63.1933
11
388.538
21
-63.2075
0
LINE
8
BLACK
6
CONTINUOUS
10
388.538
20
-63.2075
11
388.538
21
-63.2075
0
LINE
8
BLACK
6
CONTINUOUS
10
388.538
20
-63.2075
11
388.551
21
-63.2515
0
LINE
8
BLACK
6
CONTINUOUS
10
388.551
20
-63.2515
11
387.636
21
-71.9536
0
LINE
8
BLACK
6
CONTINUOUS
10
387.636
20
-71.9536
11
387.614
21
-71.9939
0
LINE
8
BLACK
6
CONTINUOUS
10
387.614
20
-71.9939
11
387.57
21
-72.007
0
LINE
8
BLACK
6
CONTINUOUS
10
387.57
20
-72.007
11
375.139
21
-70.7004
0
LINE
8
BLACK
6
CONTINUOUS
10
375.139
20
-70.7004
11
375.098
21
-70.6784
0
LINE
8
BLACK
6
CONTINUOUS
10
375.098
20
-70.6784
11
375.085
21
-70.6344
0
LINE
8
BLACK
6
CONTINUOUS
10
375.085
20
-70.6344
11
376
21
-61.9323
0
LINE
8
BLACK
6
CONTINUOUS
10
376
20
-61.9323
11
376
21
-61.9323
0
LINE
8
BLACK
6
CONTINUOUS
10
376
20
-61.9323
11
376.022
21
-61.892
0
LINE
8
BLACK
6
CONTINUOUS
10
376.022
20
-61.892
11
376.066
21
-61.8789
0
LINE
8
BLACK
6
CONTINUOUS
10
376.066
20
-61.8789
11
388.497
21
-63.1855
0
LINE
8
BLACK
6
CONTINUOUS
10
375.211
20
-70.5873
11
387.523
21
-71.8813
0
LINE
8
BLACK
6
CONTINUOUS
10
387.523
20
-71.8813
11
388.425
21
-63.2986
0
LINE
8
BLACK
6
CONTINUOUS
10
388.425
20
-63.2986
11
376.113
21
-62.0046
0
LINE
8
BLACK
6
CONTINUOUS
10
376.113
20
-62.0046
11
375.211
21
-70.5873
0
LINE
8
BLACK
6
CONTINUOUS
10
506.232
20
-60.7014
11
506.254
21
-60.7417
0
LINE
8
BLACK
6
CONTINUOUS
10
506.254
20
-60.7417
11
507.169
21
-69.4438
0
LINE
8
BLACK
6
CONTINUOUS
10
507.169
20
-69.4438
11
507.156
21
-69.4878
0
LINE
8
BLACK
6
CONTINUOUS
10
507.156
20
-69.4878
11
507.14
21
-69.4967
0
LINE
8
BLACK
6
CONTINUOUS
10
507.14
20
-69.4967
11
507.116
21
-69.5097
0
LINE
8
BLACK
6
CONTINUOUS
10
507.116
20
-69.5097
11
507.116
21
-69.5097
0
LINE
8
BLACK
6
CONTINUOUS
10
507.116
20
-69.5097
11
494.684
21
-70.8163
0
LINE
8
BLACK
6
CONTINUOUS
10
494.684
20
-70.8163
11
494.64
21
-70.8033
0
LINE
8
BLACK
6
CONTINUOUS
10
494.64
20
-70.8033
11
494.635
21
-70.7944
0
LINE
8
BLACK
6
CONTINUOUS
10
494.635
20
-70.7944
11
494.618
21
-70.7629
0
LINE
8
BLACK
6
CONTINUOUS
10
494.618
20
-70.7629
11
494.618
21
-70.7629
0
LINE
8
BLACK
6
CONTINUOUS
10
494.618
20
-70.7629
11
493.703
21
-62.0609
0
LINE
8
BLACK
6
CONTINUOUS
10
493.703
20
-62.0609
11
493.717
21
-62.0168
0
LINE
8
BLACK
6
CONTINUOUS
10
493.717
20
-62.0168
11
493.757
21
-61.9949
0
LINE
8
BLACK
6
CONTINUOUS
10
493.757
20
-61.9949
11
506.188
21
-60.6883
0
LINE
8
BLACK
6
CONTINUOUS
10
506.188
20
-60.6883
11
506.232
21
-60.7014
0
LINE
8
BLACK
6
CONTINUOUS
10
493.829
20
-62.108
11
494.731
21
-70.6907
0
LINE
8
BLACK
6
CONTINUOUS
10
494.731
20
-70.6907
11
507.043
21
-69.3967
0
LINE
8
BLACK
6
CONTINUOUS
10
507.043
20
-69.3967
11
506.141
21
-60.8139
0
LINE
8
BLACK
6
CONTINUOUS
10
506.141
20
-60.8139
11
493.829
21
-62.108
0
LINE
8
BLACK
6
CONTINUOUS
10
355.547
20
-68.635
11
355.531
21
-68.5917
0
LINE
8
BLACK
6
CONTINUOUS
10
355.531
20
-68.5917
11
355.989
21
-59.8537
0
LINE
8
BLACK
6
CONTINUOUS
10
355.989
20
-59.8537
11
356.009
21
-59.8123
0
LINE
8
BLACK
6
CONTINUOUS
10
356.009
20
-59.8123
11
356.052
21
-59.7969
0
LINE
8
BLACK
6
CONTINUOUS
10
356.052
20
-59.7969
11
368.535
21
-60.4511
0
LINE
8
BLACK
6
CONTINUOUS
10
368.535
20
-60.4511
11
368.577
21
-60.4709
0
LINE
8
BLACK
6
CONTINUOUS
10
368.577
20
-60.4709
11
368.592
21
-60.5142
0
LINE
8
BLACK
6
CONTINUOUS
10
368.592
20
-60.5142
11
368.134
21
-69.2522
0
LINE
8
BLACK
6
CONTINUOUS
10
368.134
20
-69.2522
11
368.114
21
-69.2937
0
LINE
8
BLACK
6
CONTINUOUS
10
368.114
20
-69.2937
11
368.071
21
-69.309
0
LINE
8
BLACK
6
CONTINUOUS
10
368.071
20
-69.309
11
355.588
21
-68.6548
0
LINE
8
BLACK
6
CONTINUOUS
10
355.588
20
-68.6548
11
355.547
21
-68.635
0
LINE
8
BLACK
6
CONTINUOUS
10
355.654
20
-68.5381
11
368.017
21
-69.186
0
LINE
8
BLACK
6
CONTINUOUS
10
368.017
20
-69.186
11
368.469
21
-60.5678
0
LINE
8
BLACK
6
CONTINUOUS
10
368.469
20
-60.5678
11
356.106
21
-59.9199
0
LINE
8
BLACK
6
CONTINUOUS
10
356.106
20
-59.9199
11
355.654
21
-68.5381
0
LINE
8
BLACK
6
CONTINUOUS
10
526.245
20
-59.217
11
526.257
21
-59.2409
0
LINE
8
BLACK
6
CONTINUOUS
10
526.257
20
-59.2409
11
526.265
21
-59.2584
0
LINE
8
BLACK
6
CONTINUOUS
10
526.265
20
-59.2584
11
526.723
21
-67.9964
0
LINE
8
BLACK
6
CONTINUOUS
10
526.723
20
-67.9964
11
526.707
21
-68.0397
0
LINE
8
BLACK
6
CONTINUOUS
10
526.707
20
-68.0397
11
526.666
21
-68.0595
0
LINE
8
BLACK
6
CONTINUOUS
10
526.666
20
-68.0595
11
514.183
21
-68.7137
0
LINE
8
BLACK
6
CONTINUOUS
10
514.183
20
-68.7137
11
514.14
21
-68.6983
0
LINE
8
BLACK
6
CONTINUOUS
10
514.14
20
-68.6983
11
514.12
21
-68.6569
0
LINE
8
BLACK
6
CONTINUOUS
10
514.12
20
-68.6569
11
513.662
21
-59.9189
0
LINE
8
BLACK
6
CONTINUOUS
10
513.662
20
-59.9189
11
513.677
21
-59.8756
0
LINE
8
BLACK
6
CONTINUOUS
10
513.677
20
-59.8756
11
513.719
21
-59.8558
0
LINE
8
BLACK
6
CONTINUOUS
10
513.719
20
-59.8558
11
526.202
21
-59.2016
0
LINE
8
BLACK
6
CONTINUOUS
10
526.202
20
-59.2016
11
526.245
21
-59.217
0
LINE
8
BLACK
6
CONTINUOUS
10
513.785
20
-59.9725
11
514.237
21
-68.5907
0
LINE
8
BLACK
6
CONTINUOUS
10
514.237
20
-68.5907
11
526.6
21
-67.9428
0
LINE
8
BLACK
6
CONTINUOUS
10
526.6
20
-67.9428
11
526.148
21
-59.3246
0
LINE
8
BLACK
6
CONTINUOUS
10
526.148
20
-59.3246
11
513.785
21
-59.9725
0
LINE
8
BLACK
6
CONTINUOUS
10
328.869
20
-67.7769
11
328.851
21
-67.7344
0
LINE
8
BLACK
6
CONTINUOUS
10
328.851
20
-67.7344
11
328.851
21
-58.9844
0
LINE
8
BLACK
6
CONTINUOUS
10
328.851
20
-58.9844
11
328.869
21
-58.942
0
LINE
8
BLACK
6
CONTINUOUS
10
328.869
20
-58.942
11
328.911
21
-58.9244
0
LINE
8
BLACK
6
CONTINUOUS
10
328.911
20
-58.9244
11
341.411
21
-58.9244
0
LINE
8
BLACK
6
CONTINUOUS
10
341.411
20
-58.9244
11
341.454
21
-58.942
0
LINE
8
BLACK
6
CONTINUOUS
10
341.454
20
-58.942
11
341.471
21
-58.9844
0
LINE
8
BLACK
6
CONTINUOUS
10
341.471
20
-58.9844
11
341.471
21
-67.7344
0
LINE
8
BLACK
6
CONTINUOUS
10
341.471
20
-67.7344
11
341.454
21
-67.7769
0
LINE
8
BLACK
6
CONTINUOUS
10
341.454
20
-67.7769
11
341.411
21
-67.7944
0
LINE
8
BLACK
6
CONTINUOUS
10
341.411
20
-67.7944
11
328.911
21
-67.7944
0
LINE
8
BLACK
6
CONTINUOUS
10
328.911
20
-67.7944
11
328.869
21
-67.7769
0
LINE
8
BLACK
6
CONTINUOUS
10
328.971
20
-59.0444
11
328.971
21
-67.6744
0
LINE
8
BLACK
6
CONTINUOUS
10
328.971
20
-67.6744
11
341.351
21
-67.6744
0
LINE
8
BLACK
6
CONTINUOUS
10
341.351
20
-67.6744
11
341.351
21
-59.0444
0
LINE
8
BLACK
6
CONTINUOUS
10
341.351
20
-59.0444
11
328.971
21
-59.0444
0
LINE
8
BLACK
6
CONTINUOUS
10
538.419
20
-67.1815
11
538.402
21
-67.1391
0
LINE
8
BLACK
6
CONTINUOUS
10
538.402
20
-67.1391
11
538.402
21
-58.3891
0
LINE
8
BLACK
6
CONTINUOUS
10
538.402
20
-58.3891
11
538.419
21
-58.3467
0
LINE
8
BLACK
6
CONTINUOUS
10
538.419
20
-58.3467
11
538.462
21
-58.3291
0
LINE
8
BLACK
6
CONTINUOUS
10
538.462
20
-58.3291
11
550.962
21
-58.3291
0
LINE
8
BLACK
6
CONTINUOUS
10
550.962
20
-58.3291
11
551.004
21
-58.3467
0
LINE
8
BLACK
6
CONTINUOUS
10
551.004
20
-58.3467
11
551.022
21
-58.3891
0
LINE
8
BLACK
6
CONTINUOUS
10
551.022
20
-58.3891
11
551.022
21
-67.1391
0
LINE
8
BLACK
6
CONTINUOUS
10
551.022
20
-67.1391
11
551.004
21
-67.1815
0
LINE
8
BLACK
6
CONTINUOUS
10
551.004
20
-67.1815
11
550.962
21
-67.1991
0
LINE
8
BLACK
6
CONTINUOUS
10
550.962
20
-67.1991
11
538.462
21
-67.1991
0
LINE
8
BLACK
6
CONTINUOUS
10
538.462
20
-67.1991
11
538.419
21
-67.1815
0
LINE
8
BLACK
6
CONTINUOUS
10
538.522
20
-58.4491
11
538.522
21
-67.0791
0
LINE
8
BLACK
6
CONTINUOUS
10
538.522
20
-67.0791
11
550.902
21
-67.0791
0
LINE
8
BLACK
6
CONTINUOUS
10
550.902
20
-67.0791
11
550.902
21
-58.4491
0
LINE
8
BLACK
6
CONTINUOUS
10
550.902
20
-58.4491
11
538.522
21
-58.4491
0
LINE
8
BLACK
6
CONTINUOUS
10
415.665
20
-65.0569
11
415.656
21
-65.0117
0
LINE
8
BLACK
6
CONTINUOUS
10
415.656
20
-65.0117
11
417.008
21
-58.6538
0
LINE
8
BLACK
6
CONTINUOUS
10
417.008
20
-58.6538
11
417.034
21
-58.6159
0
LINE
8
BLACK
6
CONTINUOUS
10
417.034
20
-58.6159
11
417.079
21
-58.6076
0
LINE
8
BLACK
6
CONTINUOUS
10
417.079
20
-58.6076
11
420.013
21
-59.2313
0
LINE
8
BLACK
6
CONTINUOUS
10
420.013
20
-59.2313
11
420.051
21
-59.2573
0
LINE
8
BLACK
6
CONTINUOUS
10
420.051
20
-59.2573
11
420.059
21
-59.3025
0
LINE
8
BLACK
6
CONTINUOUS
10
420.059
20
-59.3025
11
418.708
21
-65.6604
0
LINE
8
BLACK
6
CONTINUOUS
10
418.708
20
-65.6604
11
418.682
21
-65.6983
0
LINE
8
BLACK
6
CONTINUOUS
10
418.682
20
-65.6983
11
418.637
21
-65.7066
0
LINE
8
BLACK
6
CONTINUOUS
10
418.637
20
-65.7066
11
415.702
21
-65.0829
0
LINE
8
BLACK
6
CONTINUOUS
10
415.702
20
-65.0829
11
415.665
21
-65.0569
0
LINE
8
BLACK
6
CONTINUOUS
10
415.786
20
-64.978
11
418.603
21
-65.5768
0
LINE
8
BLACK
6
CONTINUOUS
10
418.603
20
-65.5768
11
419.93
21
-59.3362
0
LINE
8
BLACK
6
CONTINUOUS
10
419.93
20
-59.3362
11
417.113
21
-58.7374
0
LINE
8
BLACK
6
CONTINUOUS
10
417.113
20
-58.7374
11
415.786
21
-64.978
0
LINE
8
BLACK
6
CONTINUOUS
10
471.769
20
-55.6394
11
471.795
21
-55.6772
0
LINE
8
BLACK
6
CONTINUOUS
10
471.795
20
-55.6772
11
473.146
21
-62.0352
0
LINE
8
BLACK
6
CONTINUOUS
10
473.146
20
-62.0352
11
473.138
21
-62.0803
0
LINE
8
BLACK
6
CONTINUOUS
10
473.138
20
-62.0803
11
473.1
21
-62.1063
0
LINE
8
BLACK
6
CONTINUOUS
10
473.1
20
-62.1063
11
470.166
21
-62.7301
0
LINE
8
BLACK
6
CONTINUOUS
10
470.166
20
-62.7301
11
470.12
21
-62.7217
0
LINE
8
BLACK
6
CONTINUOUS
10
470.12
20
-62.7217
11
470.094
21
-62.6838
0
LINE
8
BLACK
6
CONTINUOUS
10
470.094
20
-62.6838
11
468.743
21
-56.3259
0
LINE
8
BLACK
6
CONTINUOUS
10
468.743
20
-56.3259
11
468.751
21
-56.2807
0
LINE
8
BLACK
6
CONTINUOUS
10
468.751
20
-56.2807
11
468.789
21
-56.2547
0
LINE
8
BLACK
6
CONTINUOUS
10
468.789
20
-56.2547
11
471.724
21
-55.631
0
LINE
8
BLACK
6
CONTINUOUS
10
471.724
20
-55.631
11
471.769
21
-55.6394
0
LINE
8
BLACK
6
CONTINUOUS
10
468.873
20
-56.3596
11
470.199
21
-62.6002
0
LINE
8
BLACK
6
CONTINUOUS
10
470.199
20
-62.6002
11
473.016
21
-62.0014
0
LINE
8
BLACK
6
CONTINUOUS
10
473.016
20
-62.0014
11
471.69
21
-55.7608
0
LINE
8
BLACK
6
CONTINUOUS
10
471.69
20
-55.7608
11
468.873
21
-56.3596
0
LINE
8
BLACK
6
CONTINUOUS
10
396.782
20
-61.5982
11
396.772
21
-61.5535
0
LINE
8
BLACK
6
CONTINUOUS
10
396.772
20
-61.5535
11
397.788
21
-55.1336
0
LINE
8
BLACK
6
CONTINUOUS
10
397.788
20
-55.1336
11
397.812
21
-55.0944
0
LINE
8
BLACK
6
CONTINUOUS
10
397.812
20
-55.0944
11
397.857
21
-55.0837
0
LINE
8
BLACK
6
CONTINUOUS
10
397.857
20
-55.0837
11
397.857
21
-55.0837
0
LINE
8
BLACK
6
CONTINUOUS
10
397.857
20
-55.0837
11
400.82
21
-55.553
0
LINE
8
BLACK
6
CONTINUOUS
10
400.82
20
-55.553
11
400.82
21
-55.553
0
LINE
8
BLACK
6
CONTINUOUS
10
400.82
20
-55.553
11
400.859
21
-55.577
0
LINE
8
BLACK
6
CONTINUOUS
10
400.859
20
-55.577
11
400.87
21
-55.6216
0
LINE
8
BLACK
6
CONTINUOUS
10
400.87
20
-55.6216
11
399.853
21
-62.0416
0
LINE
8
BLACK
6
CONTINUOUS
10
399.853
20
-62.0416
11
399.829
21
-62.0808
0
LINE
8
BLACK
6
CONTINUOUS
10
399.829
20
-62.0808
11
399.784
21
-62.0915
0
LINE
8
BLACK
6
CONTINUOUS
10
399.784
20
-62.0915
11
396.821
21
-61.6222
0
LINE
8
BLACK
6
CONTINUOUS
10
396.821
20
-61.6222
11
396.782
21
-61.5982
0
LINE
8
BLACK
6
CONTINUOUS
10
396.899
20
-61.5131
11
399.744
21
-61.9636
0
LINE
8
BLACK
6
CONTINUOUS
10
399.744
20
-61.9636
11
400.742
21
-55.6621
0
LINE
8
BLACK
6
CONTINUOUS
10
400.742
20
-55.6621
11
397.897
21
-55.2116
0
LINE
8
BLACK
6
CONTINUOUS
10
397.897
20
-55.2116
11
396.899
21
-61.5131
0
LINE
8
BLACK
6
CONTINUOUS
10
443.417
20
-61.6244
11
443.4
21
-61.582
0
LINE
8
BLACK
6
CONTINUOUS
10
443.4
20
-61.582
11
443.4
21
-31.082
0
LINE
8
BLACK
6
CONTINUOUS
10
443.4
20
-31.082
11
443.417
21
-31.0396
0
LINE
8
BLACK
6
CONTINUOUS
10
443.417
20
-31.0396
11
443.46
21
-31.022
0
LINE
8
BLACK
6
CONTINUOUS
10
443.46
20
-31.022
11
445.71
21
-31.022
0
LINE
8
BLACK
6
CONTINUOUS
10
445.71
20
-31.022
11
445.752
21
-31.0396
0
LINE
8
BLACK
6
CONTINUOUS
10
445.752
20
-31.0396
11
445.77
21
-31.082
0
LINE
8
BLACK
6
CONTINUOUS
10
445.77
20
-31.082
11
445.77
21
-61.582
0
LINE
8
BLACK
6
CONTINUOUS
10
445.77
20
-61.582
11
445.752
21
-61.6244
0
LINE
8
BLACK
6
CONTINUOUS
10
445.752
20
-61.6244
11
445.71
21
-61.642
0
LINE
8
BLACK
6
CONTINUOUS
10
445.71
20
-61.642
11
443.46
21
-61.642
0
LINE
8
BLACK
6
CONTINUOUS
10
443.46
20
-61.642
11
443.417
21
-61.6244
0
LINE
8
BLACK
6
CONTINUOUS
10
443.52
20
-31.142
11
443.52
21
-61.522
0
LINE
8
BLACK
6
CONTINUOUS
10
443.52
20
-61.522
11
445.65
21
-61.522
0
LINE
8
BLACK
6
CONTINUOUS
10
445.65
20
-61.522
11
445.65
21
-31.142
0
LINE
8
BLACK
6
CONTINUOUS
10
445.65
20
-31.142
11
443.52
21
-31.142
0
LINE
8
BLACK
6
CONTINUOUS
10
428.167
20
-61.6244
11
428.15
21
-61.582
0
LINE
8
BLACK
6
CONTINUOUS
10
428.15
20
-61.582
11
428.15
21
-31.082
0
LINE
8
BLACK
6
CONTINUOUS
10
428.15
20
-31.082
11
428.167
21
-31.0396
0
LINE
8
BLACK
6
CONTINUOUS
10
428.167
20
-31.0396
11
428.21
21
-31.022
0
LINE
8
BLACK
6
CONTINUOUS
10
428.21
20
-31.022
11
430.46
21
-31.022
0
LINE
8
BLACK
6
CONTINUOUS
10
430.46
20
-31.022
11
430.502
21
-31.0396
0
LINE
8
BLACK
6
CONTINUOUS
10
430.502
20
-31.0396
11
430.52
21
-31.082
0
LINE
8
BLACK
6
CONTINUOUS
10
430.52
20
-31.082
11
430.52
21
-61.582
0
LINE
8
BLACK
6
CONTINUOUS
10
430.52
20
-61.582
11
430.502
21
-61.6244
0
LINE
8
BLACK
6
CONTINUOUS
10
430.502
20
-61.6244
11
430.46
21
-61.642
0
LINE
8
BLACK
6
CONTINUOUS
10
430.46
20
-61.642
11
428.21
21
-61.642
0
LINE
8
BLACK
6
CONTINUOUS
10
428.21
20
-61.642
11
428.167
21
-61.6244
0
LINE
8
BLACK
6
CONTINUOUS
10
428.27
20
-31.142
11
428.27
21
-61.522
0
LINE
8
BLACK
6
CONTINUOUS
10
428.27
20
-61.522
11
430.4
21
-61.522
0
LINE
8
BLACK
6
CONTINUOUS
10
430.4
20
-61.522
11
430.4
21
-31.142
0
LINE
8
BLACK
6
CONTINUOUS
10
430.4
20
-31.142
11
428.27
21
-31.142
0
LINE
8
BLACK
6
CONTINUOUS
10
490.99
20
-52.7132
11
491.014
21
-52.7523
0
LINE
8
BLACK
6
CONTINUOUS
10
491.014
20
-52.7523
11
492.031
21
-59.1723
0
LINE
8
BLACK
6
CONTINUOUS
10
492.031
20
-59.1723
11
492.02
21
-59.2169
0
LINE
8
BLACK
6
CONTINUOUS
10
492.02
20
-59.2169
11
491.981
21
-59.2409
0
LINE
8
BLACK
6
CONTINUOUS
10
491.981
20
-59.2409
11
491.981
21
-59.2409
0
LINE
8
BLACK
6
CONTINUOUS
10
491.981
20
-59.2409
11
489.018
21
-59.7102
0
LINE
8
BLACK
6
CONTINUOUS
10
489.018
20
-59.7102
11
489.018
21
-59.7102
0
LINE
8
BLACK
6
CONTINUOUS
10
489.018
20
-59.7102
11
488.973
21
-59.6995
0
LINE
8
BLACK
6
CONTINUOUS
10
488.973
20
-59.6995
11
488.949
21
-59.6604
0
LINE
8
BLACK
6
CONTINUOUS
10
488.949
20
-59.6604
11
487.933
21
-53.2404
0
LINE
8
BLACK
6
CONTINUOUS
10
487.933
20
-53.2404
11
487.943
21
-53.1957
0
LINE
8
BLACK
6
CONTINUOUS
10
487.943
20
-53.1957
11
487.982
21
-53.1717
0
LINE
8
BLACK
6
CONTINUOUS
10
487.982
20
-53.1717
11
490.946
21
-52.7024
0
LINE
8
BLACK
6
CONTINUOUS
10
490.946
20
-52.7024
11
490.99
21
-52.7132
0
LINE
8
BLACK
6
CONTINUOUS
10
488.061
20
-53.2809
11
489.059
21
-59.5823
0
LINE
8
BLACK
6
CONTINUOUS
10
489.059
20
-59.5823
11
491.903
21
-59.1318
0
LINE
8
BLACK
6
CONTINUOUS
10
491.903
20
-59.1318
11
490.905
21
-52.8304
0
LINE
8
BLACK
6
CONTINUOUS
10
490.905
20
-52.8304
11
488.061
21
-53.2809
0
LINE
8
BLACK
6
CONTINUOUS
10
377.31
20
-58.7259
11
377.297
21
-58.6819
0
LINE
8
BLACK
6
CONTINUOUS
10
377.297
20
-58.6819
11
377.977
21
-52.2175
0
LINE
8
BLACK
6
CONTINUOUS
10
377.977
20
-52.2175
11
377.999
21
-52.1771
0
LINE
8
BLACK
6
CONTINUOUS
10
377.999
20
-52.1771
11
378.043
21
-52.1641
0
LINE
8
BLACK
6
CONTINUOUS
10
378.043
20
-52.1641
11
378.043
21
-52.1641
0
LINE
8
BLACK
6
CONTINUOUS
10
378.043
20
-52.1641
11
381.026
21
-52.4777
0
LINE
8
BLACK
6
CONTINUOUS
10
381.026
20
-52.4777
11
381.026
21
-52.4777
0
LINE
8
BLACK
6
CONTINUOUS
10
381.026
20
-52.4777
11
381.066
21
-52.4996
0
LINE
8
BLACK
6
CONTINUOUS
10
381.066
20
-52.4996
11
381.08
21
-52.5436
0
LINE
8
BLACK
6
CONTINUOUS
10
381.08
20
-52.5436
11
380.4
21
-59.008
0
LINE
8
BLACK
6
CONTINUOUS
10
380.4
20
-59.008
11
380.378
21
-59.0484
0
LINE
8
BLACK
6
CONTINUOUS
10
380.378
20
-59.0484
11
380.334
21
-59.0614
0
LINE
8
BLACK
6
CONTINUOUS
10
380.334
20
-59.0614
11
377.351
21
-58.7478
0
LINE
8
BLACK
6
CONTINUOUS
10
377.351
20
-58.7478
11
377.31
21
-58.7259
0
LINE
8
BLACK
6
CONTINUOUS
10
377.423
20
-58.6347
11
380.287
21
-58.9358
0
LINE
8
BLACK
6
CONTINUOUS
10
380.287
20
-58.9358
11
380.954
21
-52.5907
0
LINE
8
BLACK
6
CONTINUOUS
10
380.954
20
-52.5907
11
378.09
21
-52.2897
0
LINE
8
BLACK
6
CONTINUOUS
10
378.09
20
-52.2897
11
377.423
21
-58.6347
0
LINE
8
BLACK
6
CONTINUOUS
10
423.601
20
-49.6516
11
423.639
21
-49.6776
0
LINE
8
BLACK
6
CONTINUOUS
10
423.639
20
-49.6776
11
423.647
21
-49.7228
0
LINE
8
BLACK
6
CONTINUOUS
10
423.647
20
-49.7228
11
421.828
21
-58.2816
0
LINE
8
BLACK
6
CONTINUOUS
10
421.828
20
-58.2816
11
421.802
21
-58.3194
0
LINE
8
BLACK
6
CONTINUOUS
10
421.802
20
-58.3194
11
421.757
21
-58.3278
0
LINE
8
BLACK
6
CONTINUOUS
10
421.757
20
-58.3278
11
409.53
21
-55.7289
0
LINE
8
BLACK
6
CONTINUOUS
10
409.53
20
-55.7289
11
409.492
21
-55.7029
0
LINE
8
BLACK
6
CONTINUOUS
10
409.492
20
-55.7029
11
409.484
21
-55.6577
0
LINE
8
BLACK
6
CONTINUOUS
10
409.484
20
-55.6577
11
411.303
21
-47.0989
0
LINE
8
BLACK
6
CONTINUOUS
10
411.303
20
-47.0989
11
411.303
21
-47.0989
0
LINE
8
BLACK
6
CONTINUOUS
10
411.303
20
-47.0989
11
411.329
21
-47.0611
0
LINE
8
BLACK
6
CONTINUOUS
10
411.329
20
-47.0611
11
411.374
21
-47.0527
0
LINE
8
BLACK
6
CONTINUOUS
10
411.374
20
-47.0527
11
423.601
21
-49.6516
0
LINE
8
BLACK
6
CONTINUOUS
10
409.614
20
-55.624
11
421.723
21
-58.1979
0
LINE
8
BLACK
6
CONTINUOUS
10
421.723
20
-58.1979
11
423.518
21
-49.7565
0
LINE
8
BLACK
6
CONTINUOUS
10
423.518
20
-49.7565
11
411.408
21
-47.1826
0
LINE
8
BLACK
6
CONTINUOUS
10
411.408
20
-47.1826
11
409.614
21
-55.624
0
LINE
8
BLACK
6
CONTINUOUS
10
510.804
20
-50.3912
11
510.826
21
-50.4315
0
LINE
8
BLACK
6
CONTINUOUS
10
510.826
20
-50.4315
11
511.505
21
-56.8959
0
LINE
8
BLACK
6
CONTINUOUS
10
511.505
20
-56.8959
11
511.492
21
-56.94
0
LINE
8
BLACK
6
CONTINUOUS
10
511.492
20
-56.94
11
511.452
21
-56.9619
0
LINE
8
BLACK
6
CONTINUOUS
10
511.452
20
-56.9619
11
511.452
21
-56.9619
0
LINE
8
BLACK
6
CONTINUOUS
10
511.452
20
-56.9619
11
508.468
21
-57.2755
0
LINE
8
BLACK
6
CONTINUOUS
10
508.468
20
-57.2755
11
508.468
21
-57.2755
0
LINE
8
BLACK
6
CONTINUOUS
10
508.468
20
-57.2755
11
508.424
21
-57.2624
0
LINE
8
BLACK
6
CONTINUOUS
10
508.424
20
-57.2624
11
508.402
21
-57.2221
0
LINE
8
BLACK
6
CONTINUOUS
10
508.402
20
-57.2221
11
507.723
21
-50.7577
0
LINE
8
BLACK
6
CONTINUOUS
10
507.723
20
-50.7577
11
507.736
21
-50.7136
0
LINE
8
BLACK
6
CONTINUOUS
10
507.736
20
-50.7136
11
507.776
21
-50.6917
0
LINE
8
BLACK
6
CONTINUOUS
10
507.776
20
-50.6917
11
510.76
21
-50.3781
0
LINE
8
BLACK
6
CONTINUOUS
10
510.76
20
-50.3781
11
510.804
21
-50.3912
0
LINE
8
BLACK
6
CONTINUOUS
10
507.849
20
-50.8048
11
508.516
21
-57.1498
0
LINE
8
BLACK
6
CONTINUOUS
10
508.516
20
-57.1498
11
511.38
21
-56.8488
0
LINE
8
BLACK
6
CONTINUOUS
10
511.38
20
-56.8488
11
510.713
21
-50.5038
0
LINE
8
BLACK
6
CONTINUOUS
10
510.713
20
-50.5038
11
507.849
21
-50.8048
0
LINE
8
BLACK
6
CONTINUOUS
10
478.715
20
-46.2563
11
478.715
21
-53.7563
0
LINE
8
BLACK
6
CONTINUOUS
10
478.715
20
-53.7563
11
478.697
21
-53.7987
0
LINE
8
BLACK
6
CONTINUOUS
10
478.697
20
-53.7987
11
478.655
21
-53.8163
0
LINE
8
BLACK
6
CONTINUOUS
10
478.655
20
-53.8163
11
472.655
21
-53.8163
0
LINE
8
BLACK
6
CONTINUOUS
10
472.655
20
-53.8163
11
472.63
21
-53.8057
0
LINE
8
BLACK
6
CONTINUOUS
10
472.63
20
-53.8057
11
472.77
21
-54.4671
0
LINE
8
BLACK
6
CONTINUOUS
10
472.77
20
-54.4671
11
472.762
21
-54.5122
0
LINE
8
BLACK
6
CONTINUOUS
10
472.762
20
-54.5122
11
472.724
21
-54.5382
0
LINE
8
BLACK
6
CONTINUOUS
10
472.724
20
-54.5382
11
460.497
21
-57.1371
0
LINE
8
BLACK
6
CONTINUOUS
10
460.497
20
-57.1371
11
460.452
21
-57.1288
0
LINE
8
BLACK
6
CONTINUOUS
10
460.452
20
-57.1288
11
460.426
21
-57.0909
0
LINE
8
BLACK
6
CONTINUOUS
10
460.426
20
-57.0909
11
460.426
21
-57.0909
0
LINE
8
BLACK
6
CONTINUOUS
10
460.426
20
-57.0909
11
458.607
21
-48.5321
0
LINE
8
BLACK
6
CONTINUOUS
10
458.607
20
-48.5321
11
458.615
21
-48.487
0
LINE
8
BLACK
6
CONTINUOUS
10
458.615
20
-48.487
11
458.653
21
-48.461
0
LINE
8
BLACK
6
CONTINUOUS
10
458.653
20
-48.461
11
470.88
21
-45.8621
0
LINE
8
BLACK
6
CONTINUOUS
10
470.88
20
-45.8621
11
470.925
21
-45.8704
0
LINE
8
BLACK
6
CONTINUOUS
10
470.925
20
-45.8704
11
470.951
21
-45.9083
0
LINE
8
BLACK
6
CONTINUOUS
10
470.951
20
-45.9083
11
472.595
21
-53.6435
0
LINE
8
BLACK
6
CONTINUOUS
10
472.595
20
-53.6435
11
472.595
21
-46.2563
0
LINE
8
BLACK
6
CONTINUOUS
10
472.595
20
-46.2563
11
472.613
21
-46.2139
0
LINE
8
BLACK
6
CONTINUOUS
10
472.613
20
-46.2139
11
472.655
21
-46.1963
0
LINE
8
BLACK
6
CONTINUOUS
10
472.655
20
-46.1963
11
478.655
21
-46.1963
0
LINE
8
BLACK
6
CONTINUOUS
10
478.655
20
-46.1963
11
478.697
21
-46.2139
0
LINE
8
BLACK
6
CONTINUOUS
10
478.697
20
-46.2139
11
478.715
21
-46.2563
0
LINE
8
BLACK
6
CONTINUOUS
10
458.737
20
-48.5659
11
460.531
21
-57.0073
0
LINE
8
BLACK
6
CONTINUOUS
10
460.531
20
-57.0073
11
472.64
21
-54.4333
0
LINE
8
BLACK
6
CONTINUOUS
10
472.64
20
-54.4333
11
470.846
21
-45.9919
0
LINE
8
BLACK
6
CONTINUOUS
10
470.846
20
-45.9919
11
458.737
21
-48.5659
0
LINE
8
BLACK
6
CONTINUOUS
10
472.715
20
-46.3163
11
472.715
21
-53.6963
0
LINE
8
BLACK
6
CONTINUOUS
10
472.715
20
-53.6963
11
478.595
21
-53.6963
0
LINE
8
BLACK
6
CONTINUOUS
10
478.595
20
-53.6963
11
478.595
21
-46.3163
0
LINE
8
BLACK
6
CONTINUOUS
10
478.595
20
-46.3163
11
472.715
21
-46.3163
0
LINE
8
BLACK
6
CONTINUOUS
10
358.48
20
-56.4595
11
358.439
21
-56.4397
0
LINE
8
BLACK
6
CONTINUOUS
10
358.439
20
-56.4397
11
358.423
21
-56.3964
0
LINE
8
BLACK
6
CONTINUOUS
10
358.423
20
-56.3964
11
358.764
21
-49.9053
0
LINE
8
BLACK
6
CONTINUOUS
10
358.764
20
-49.9053
11
358.783
21
-49.8639
0
LINE
8
BLACK
6
CONTINUOUS
10
358.783
20
-49.8639
11
358.827
21
-49.8485
0
LINE
8
BLACK
6
CONTINUOUS
10
358.827
20
-49.8485
11
361.823
21
-50.0056
0
LINE
8
BLACK
6
CONTINUOUS
10
361.823
20
-50.0056
11
361.864
21
-50.0253
0
LINE
8
BLACK
6
CONTINUOUS
10
361.864
20
-50.0253
11
361.879
21
-50.0686
0
LINE
8
BLACK
6
CONTINUOUS
10
361.879
20
-50.0686
11
361.539
21
-56.5597
0
LINE
8
BLACK
6
CONTINUOUS
10
361.539
20
-56.5597
11
361.519
21
-56.6012
0
LINE
8
BLACK
6
CONTINUOUS
10
361.519
20
-56.6012
11
361.476
21
-56.6165
0
LINE
8
BLACK
6
CONTINUOUS
10
361.476
20
-56.6165
11
361.476
21
-56.6165
0
LINE
8
BLACK
6
CONTINUOUS
10
361.476
20
-56.6165
11
358.48
21
-56.4595
0
LINE
8
BLACK
6
CONTINUOUS
10
358.546
20
-56.3428
11
361.422
21
-56.4935
0
LINE
8
BLACK
6
CONTINUOUS
10
361.422
20
-56.4935
11
361.756
21
-50.1223
0
LINE
8
BLACK
6
CONTINUOUS
10
361.756
20
-50.1223
11
358.88
21
-49.9715
0
LINE
8
BLACK
6
CONTINUOUS
10
358.88
20
-49.9715
11
358.546
21
-56.3428
0
LINE
8
BLACK
6
CONTINUOUS
10
337.191
20
-55.93
11
337.173
21
-55.8875
0
LINE
8
BLACK
6
CONTINUOUS
10
337.173
20
-55.8875
11
337.173
21
-49.3875
0
LINE
8
BLACK
6
CONTINUOUS
10
337.173
20
-49.3875
11
337.191
21
-49.3451
0
LINE
8
BLACK
6
CONTINUOUS
10
337.191
20
-49.3451
11
337.233
21
-49.3275
0
LINE
8
BLACK
6
CONTINUOUS
10
337.233
20
-49.3275
11
340.233
21
-49.3275
0
LINE
8
BLACK
6
CONTINUOUS
10
340.233
20
-49.3275
11
340.276
21
-49.3451
0
LINE
8
BLACK
6
CONTINUOUS
10
340.276
20
-49.3451
11
340.293
21
-49.3875
0
LINE
8
BLACK
6
CONTINUOUS
10
340.293
20
-49.3875
11
340.293
21
-55.8875
0
LINE
8
BLACK
6
CONTINUOUS
10
340.293
20
-55.8875
11
340.276
21
-55.93
0
LINE
8
BLACK
6
CONTINUOUS
10
340.276
20
-55.93
11
340.233
21
-55.9475
0
LINE
8
BLACK
6
CONTINUOUS
10
340.233
20
-55.9475
11
337.233
21
-55.9475
0
LINE
8
BLACK
6
CONTINUOUS
10
337.233
20
-55.9475
11
337.191
21
-55.93
0
LINE
8
BLACK
6
CONTINUOUS
10
337.293
20
-49.4475
11
337.293
21
-55.8275
0
LINE
8
BLACK
6
CONTINUOUS
10
337.293
20
-55.8275
11
340.173
21
-55.8275
0
LINE
8
BLACK
6
CONTINUOUS
10
340.173
20
-55.8275
11
340.173
21
-49.4475
0
LINE
8
BLACK
6
CONTINUOUS
10
340.173
20
-49.4475
11
337.293
21
-49.4475
0
LINE
8
BLACK
6
CONTINUOUS
10
530.019
20
-48.6732
11
530.039
21
-48.7147
0
LINE
8
BLACK
6
CONTINUOUS
10
530.039
20
-48.7147
11
530.379
21
-55.2058
0
LINE
8
BLACK
6
CONTINUOUS
10
530.379
20
-55.2058
11
530.364
21
-55.2491
0
LINE
8
BLACK
6
CONTINUOUS
10
530.364
20
-55.2491
11
530.322
21
-55.2688
0
LINE
8
BLACK
6
CONTINUOUS
10
530.322
20
-55.2688
11
527.326
21
-55.4259
0
LINE
8
BLACK
6
CONTINUOUS
10
527.326
20
-55.4259
11
527.283
21
-55.4105
0
LINE
8
BLACK
6
CONTINUOUS
10
527.283
20
-55.4105
11
527.263
21
-55.3691
0
LINE
8
BLACK
6
CONTINUOUS
10
527.263
20
-55.3691
11
526.923
21
-48.878
0
LINE
8
BLACK
6
CONTINUOUS
10
526.923
20
-48.878
11
526.939
21
-48.8347
0
LINE
8
BLACK
6
CONTINUOUS
10
526.939
20
-48.8347
11
526.98
21
-48.8149
0
LINE
8
BLACK
6
CONTINUOUS
10
526.98
20
-48.8149
11
529.976
21
-48.6579
0
LINE
8
BLACK
6
CONTINUOUS
10
529.976
20
-48.6579
11
529.976
21
-48.6579
0
LINE
8
BLACK
6
CONTINUOUS
10
529.976
20
-48.6579
11
530.019
21
-48.6732
0
LINE
8
BLACK
6
CONTINUOUS
10
527.046
20
-48.9316
11
527.38
21
-55.3029
0
LINE
8
BLACK
6
CONTINUOUS
10
527.38
20
-55.3029
11
530.256
21
-55.1522
0
LINE
8
BLACK
6
CONTINUOUS
10
530.256
20
-55.1522
11
529.922
21
-48.7809
0
LINE
8
BLACK
6
CONTINUOUS
10
529.922
20
-48.7809
11
527.046
21
-48.9316
0
LINE
8
BLACK
6
CONTINUOUS
10
546.146
20
-55.3347
11
546.128
21
-55.2922
0
LINE
8
BLACK
6
CONTINUOUS
10
546.128
20
-55.2922
11
546.128
21
-48.7922
0
LINE
8
BLACK
6
CONTINUOUS
10
546.128
20
-48.7922
11
546.146
21
-48.7498
0
LINE
8
BLACK
6
CONTINUOUS
10
546.146
20
-48.7498
11
546.188
21
-48.7322
0
LINE
8
BLACK
6
CONTINUOUS
10
546.188
20
-48.7322
11
549.188
21
-48.7322
0
LINE
8
BLACK
6
CONTINUOUS
10
549.188
20
-48.7322
11
549.231
21
-48.7498
0
LINE
8
BLACK
6
CONTINUOUS
10
549.231
20
-48.7498
11
549.248
21
-48.7922
0
LINE
8
BLACK
6
CONTINUOUS
10
549.248
20
-48.7922
11
549.248
21
-55.2922
0
LINE
8
BLACK
6
CONTINUOUS
10
549.248
20
-55.2922
11
549.231
21
-55.3347
0
LINE
8
BLACK
6
CONTINUOUS
10
549.231
20
-55.3347
11
549.188
21
-55.3522
0
LINE
8
BLACK
6
CONTINUOUS
10
549.188
20
-55.3522
11
546.188
21
-55.3522
0
LINE
8
BLACK
6
CONTINUOUS
10
546.188
20
-55.3522
11
546.146
21
-55.3347
0
LINE
8
BLACK
6
CONTINUOUS
10
546.248
20
-48.8522
11
546.248
21
-55.2322
0
LINE
8
BLACK
6
CONTINUOUS
10
546.248
20
-55.2322
11
549.128
21
-55.2322
0
LINE
8
BLACK
6
CONTINUOUS
10
549.128
20
-55.2322
11
549.128
21
-48.8522
0
LINE
8
BLACK
6
CONTINUOUS
10
549.128
20
-48.8522
11
546.248
21
-48.8522
0
LINE
8
BLACK
6
CONTINUOUS
10
409.659
20
-46.8516
11
409.659
21
-54.3516
0
LINE
8
BLACK
6
CONTINUOUS
10
409.659
20
-54.3516
11
409.641
21
-54.394
0
LINE
8
BLACK
6
CONTINUOUS
10
409.641
20
-54.394
11
409.599
21
-54.4116
0
LINE
8
BLACK
6
CONTINUOUS
10
409.599
20
-54.4116
11
403.599
21
-54.4116
0
LINE
8
BLACK
6
CONTINUOUS
10
403.599
20
-54.4116
11
403.556
21
-54.394
0
LINE
8
BLACK
6
CONTINUOUS
10
403.556
20
-54.394
11
403.539
21
-54.3516
0
LINE
8
BLACK
6
CONTINUOUS
10
403.539
20
-54.3516
11
403.539
21
-46.9567
0
LINE
8
BLACK
6
CONTINUOUS
10
403.539
20
-46.9567
11
402.359
21
-54.4063
0
LINE
8
BLACK
6
CONTINUOUS
10
402.359
20
-54.4063
11
402.359
21
-54.4063
0
LINE
8
BLACK
6
CONTINUOUS
10
402.359
20
-54.4063
11
402.335
21
-54.4455
0
LINE
8
BLACK
6
CONTINUOUS
10
402.335
20
-54.4455
11
402.29
21
-54.4562
0
LINE
8
BLACK
6
CONTINUOUS
10
402.29
20
-54.4562
11
389.944
21
-52.5008
0
LINE
8
BLACK
6
CONTINUOUS
10
389.944
20
-52.5008
11
389.905
21
-52.4768
0
LINE
8
BLACK
6
CONTINUOUS
10
389.905
20
-52.4768
11
389.894
21
-52.4321
0
LINE
8
BLACK
6
CONTINUOUS
10
389.894
20
-52.4321
11
391.263
21
-43.7898
0
LINE
8
BLACK
6
CONTINUOUS
10
391.263
20
-43.7898
11
391.279
21
-43.764
0
LINE
8
BLACK
6
CONTINUOUS
10
391.279
20
-43.764
11
391.287
21
-43.7507
0
LINE
8
BLACK
6
CONTINUOUS
10
391.287
20
-43.7507
11
391.332
21
-43.74
0
LINE
8
BLACK
6
CONTINUOUS
10
391.332
20
-43.74
11
403.678
21
-45.6954
0
LINE
8
BLACK
6
CONTINUOUS
10
403.678
20
-45.6954
11
403.717
21
-45.7194
0
LINE
8
BLACK
6
CONTINUOUS
10
403.717
20
-45.7194
11
403.728
21
-45.764
0
LINE
8
BLACK
6
CONTINUOUS
10
403.728
20
-45.764
11
403.728
21
-45.764
0
LINE
8
BLACK
6
CONTINUOUS
10
403.728
20
-45.764
11
403.563
21
-46.8066
0
LINE
8
BLACK
6
CONTINUOUS
10
403.563
20
-46.8066
11
403.599
21
-46.7916
0
LINE
8
BLACK
6
CONTINUOUS
10
403.599
20
-46.7916
11
409.599
21
-46.7916
0
LINE
8
BLACK
6
CONTINUOUS
10
409.599
20
-46.7916
11
409.641
21
-46.8092
0
LINE
8
BLACK
6
CONTINUOUS
10
409.641
20
-46.8092
11
409.659
21
-46.8516
0
LINE
8
BLACK
6
CONTINUOUS
10
390.022
20
-52.3916
11
402.25
21
-54.3283
0
LINE
8
BLACK
6
CONTINUOUS
10
402.25
20
-54.3283
11
403.6
21
-45.8045
0
LINE
8
BLACK
6
CONTINUOUS
10
403.6
20
-45.8045
11
391.372
21
-43.8679
0
LINE
8
BLACK
6
CONTINUOUS
10
391.372
20
-43.8679
11
390.022
21
-52.3916
0
LINE
8
BLACK
6
CONTINUOUS
10
403.659
20
-46.9116
11
403.659
21
-54.2916
0
LINE
8
BLACK
6
CONTINUOUS
10
403.659
20
-54.2916
11
409.539
21
-54.2916
0
LINE
8
BLACK
6
CONTINUOUS
10
409.539
20
-54.2916
11
409.539
21
-46.9116
0
LINE
8
BLACK
6
CONTINUOUS
10
409.539
20
-46.9116
11
403.659
21
-46.9116
0
LINE
8
BLACK
6
CONTINUOUS
10
490.967
20
-42.5601
11
490.991
21
-42.5992
0
LINE
8
BLACK
6
CONTINUOUS
10
490.991
20
-42.5992
11
490.991
21
-42.5992
0
LINE
8
BLACK
6
CONTINUOUS
10
490.991
20
-42.5992
11
492.36
21
-51.2415
0
LINE
8
BLACK
6
CONTINUOUS
10
492.36
20
-51.2415
11
492.36
21
-51.2415
0
LINE
8
BLACK
6
CONTINUOUS
10
492.36
20
-51.2415
11
492.349
21
-51.2861
0
LINE
8
BLACK
6
CONTINUOUS
10
492.349
20
-51.2861
11
492.31
21
-51.3101
0
LINE
8
BLACK
6
CONTINUOUS
10
492.31
20
-51.3101
11
479.964
21
-53.2656
0
LINE
8
BLACK
6
CONTINUOUS
10
479.964
20
-53.2656
11
479.919
21
-53.2548
0
LINE
8
BLACK
6
CONTINUOUS
10
479.919
20
-53.2548
11
479.895
21
-53.2157
0
LINE
8
BLACK
6
CONTINUOUS
10
479.895
20
-53.2157
11
478.526
21
-44.5734
0
LINE
8
BLACK
6
CONTINUOUS
10
478.526
20
-44.5734
11
478.537
21
-44.5288
0
LINE
8
BLACK
6
CONTINUOUS
10
478.537
20
-44.5288
11
478.576
21
-44.5048
0
LINE
8
BLACK
6
CONTINUOUS
10
478.576
20
-44.5048
11
490.922
21
-42.5493
0
LINE
8
BLACK
6
CONTINUOUS
10
490.922
20
-42.5493
11
490.967
21
-42.5601
0
LINE
8
BLACK
6
CONTINUOUS
10
478.654
20
-44.6139
11
480.004
21
-53.1377
0
LINE
8
BLACK
6
CONTINUOUS
10
480.004
20
-53.1377
11
492.232
21
-51.201
0
LINE
8
BLACK
6
CONTINUOUS
10
492.232
20
-51.201
11
490.882
21
-42.6772
0
LINE
8
BLACK
6
CONTINUOUS
10
490.882
20
-42.6772
11
478.654
21
-44.6139
0
LINE
8
BLACK
6
CONTINUOUS
10
383.735
20
-42.3496
11
383.735
21
-42.3496
0
LINE
8
BLACK
6
CONTINUOUS
10
383.735
20
-42.3496
11
383.749
21
-42.3573
0
LINE
8
BLACK
6
CONTINUOUS
10
383.749
20
-42.3573
11
383.775
21
-42.3715
0
LINE
8
BLACK
6
CONTINUOUS
10
383.775
20
-42.3715
11
383.775
21
-42.3715
0
LINE
8
BLACK
6
CONTINUOUS
10
383.775
20
-42.3715
11
383.788
21
-42.4155
0
LINE
8
BLACK
6
CONTINUOUS
10
383.788
20
-42.4155
11
382.873
21
-51.1176
0
LINE
8
BLACK
6
CONTINUOUS
10
382.873
20
-51.1176
11
382.852
21
-51.158
0
LINE
8
BLACK
6
CONTINUOUS
10
382.852
20
-51.158
11
382.808
21
-51.171
0
LINE
8
BLACK
6
CONTINUOUS
10
382.808
20
-51.171
11
370.376
21
-49.8644
0
LINE
8
BLACK
6
CONTINUOUS
10
370.376
20
-49.8644
11
370.336
21
-49.8425
0
LINE
8
BLACK
6
CONTINUOUS
10
370.336
20
-49.8425
11
370.323
21
-49.7985
0
LINE
8
BLACK
6
CONTINUOUS
10
370.323
20
-49.7985
11
371.237
21
-41.0964
0
LINE
8
BLACK
6
CONTINUOUS
10
371.237
20
-41.0964
11
371.237
21
-41.0964
0
LINE
8
BLACK
6
CONTINUOUS
10
371.237
20
-41.0964
11
371.259
21
-41.056
0
LINE
8
BLACK
6
CONTINUOUS
10
371.259
20
-41.056
11
371.303
21
-41.043
0
LINE
8
BLACK
6
CONTINUOUS
10
371.303
20
-41.043
11
383.735
21
-42.3496
0
LINE
8
BLACK
6
CONTINUOUS
10
370.448
20
-49.7513
11
382.76
21
-51.0454
0
LINE
8
BLACK
6
CONTINUOUS
10
382.76
20
-51.0454
11
383.662
21
-42.4627
0
LINE
8
BLACK
6
CONTINUOUS
10
383.662
20
-42.4627
11
371.35
21
-41.1686
0
LINE
8
BLACK
6
CONTINUOUS
10
371.35
20
-41.1686
11
370.448
21
-49.7513
0
LINE
8
BLACK
6
CONTINUOUS
10
510.995
20
-40.4607
11
511.017
21
-40.5011
0
LINE
8
BLACK
6
CONTINUOUS
10
511.017
20
-40.5011
11
511.931
21
-49.2031
0
LINE
8
BLACK
6
CONTINUOUS
10
511.931
20
-49.2031
11
511.918
21
-49.2472
0
LINE
8
BLACK
6
CONTINUOUS
10
511.918
20
-49.2472
11
511.902
21
-49.256
0
LINE
8
BLACK
6
CONTINUOUS
10
511.902
20
-49.256
11
511.878
21
-49.2691
0
LINE
8
BLACK
6
CONTINUOUS
10
511.878
20
-49.2691
11
511.878
21
-49.2691
0
LINE
8
BLACK
6
CONTINUOUS
10
511.878
20
-49.2691
11
499.447
21
-50.5757
0
LINE
8
BLACK
6
CONTINUOUS
10
499.447
20
-50.5757
11
499.403
21
-50.5626
0
LINE
8
BLACK
6
CONTINUOUS
10
499.403
20
-50.5626
11
499.381
21
-50.5223
0
LINE
8
BLACK
6
CONTINUOUS
10
499.381
20
-50.5223
11
499.381
21
-50.5223
0
LINE
8
BLACK
6
CONTINUOUS
10
499.381
20
-50.5223
11
498.466
21
-41.8202
0
LINE
8
BLACK
6
CONTINUOUS
10
498.466
20
-41.8202
11
498.479
21
-41.7762
0
LINE
8
BLACK
6
CONTINUOUS
10
498.479
20
-41.7762
11
498.519
21
-41.7543
0
LINE
8
BLACK
6
CONTINUOUS
10
498.519
20
-41.7543
11
510.951
21
-40.4477
0
LINE
8
BLACK
6
CONTINUOUS
10
510.951
20
-40.4477
11
510.995
21
-40.4607
0
LINE
8
BLACK
6
CONTINUOUS
10
498.592
20
-41.8673
11
499.494
21
-50.4501
0
LINE
8
BLACK
6
CONTINUOUS
10
499.494
20
-50.4501
11
511.806
21
-49.156
0
LINE
8
BLACK
6
CONTINUOUS
10
511.806
20
-49.156
11
510.904
21
-40.5733
0
LINE
8
BLACK
6
CONTINUOUS
10
510.904
20
-40.5733
11
498.592
21
-41.8673
0
LINE
8
BLACK
6
CONTINUOUS
10
363.773
20
-40.2105
11
363.814
21
-40.2303
0
LINE
8
BLACK
6
CONTINUOUS
10
363.814
20
-40.2303
11
363.829
21
-40.2736
0
LINE
8
BLACK
6
CONTINUOUS
10
363.829
20
-40.2736
11
363.372
21
-49.0116
0
LINE
8
BLACK
6
CONTINUOUS
10
363.372
20
-49.0116
11
363.352
21
-49.053
0
LINE
8
BLACK
6
CONTINUOUS
10
363.352
20
-49.053
11
363.308
21
-49.0683
0
LINE
8
BLACK
6
CONTINUOUS
10
363.308
20
-49.0683
11
350.826
21
-48.4141
0
LINE
8
BLACK
6
CONTINUOUS
10
350.826
20
-48.4141
11
350.784
21
-48.3944
0
LINE
8
BLACK
6
CONTINUOUS
10
350.784
20
-48.3944
11
350.769
21
-48.3511
0
LINE
8
BLACK
6
CONTINUOUS
10
350.769
20
-48.3511
11
351.227
21
-39.6131
0
LINE
8
BLACK
6
CONTINUOUS
10
351.227
20
-39.6131
11
351.247
21
-39.5716
0
LINE
8
BLACK
6
CONTINUOUS
10
351.247
20
-39.5716
11
351.29
21
-39.5563
0
LINE
8
BLACK
6
CONTINUOUS
10
351.29
20
-39.5563
11
363.773
21
-40.2105
0
LINE
8
BLACK
6
CONTINUOUS
10
350.892
20
-48.2975
11
363.255
21
-48.9454
0
LINE
8
BLACK
6
CONTINUOUS
10
363.255
20
-48.9454
11
363.706
21
-40.3272
0
LINE
8
BLACK
6
CONTINUOUS
10
363.706
20
-40.3272
11
351.343
21
-39.6793
0
LINE
8
BLACK
6
CONTINUOUS
10
351.343
20
-39.6793
11
350.892
21
-48.2975
0
LINE
8
BLACK
6
CONTINUOUS
10
518.883
20
-48.4163
11
518.425
21
-39.6782
0
LINE
8
BLACK
6
CONTINUOUS
10
518.425
20
-39.6782
11
518.44
21
-39.635
0
LINE
8
BLACK
6
CONTINUOUS
10
518.44
20
-39.635
11
518.481
21
-39.6152
0
LINE
8
BLACK
6
CONTINUOUS
10
518.481
20
-39.6152
11
530.964
21
-38.961
0
LINE
8
BLACK
6
CONTINUOUS
10
530.964
20
-38.961
11
531.008
21
-38.9763
0
LINE
8
BLACK
6
CONTINUOUS
10
531.008
20
-38.9763
11
531.027
21
-39.0167
0
LINE
8
BLACK
6
CONTINUOUS
10
531.027
20
-39.0167
11
531.027
21
-39.0178
0
LINE
8
BLACK
6
CONTINUOUS
10
531.027
20
-39.0178
11
531.485
21
-47.7558
0
LINE
8
BLACK
6
CONTINUOUS
10
531.485
20
-47.7558
11
531.47
21
-47.7991
0
LINE
8
BLACK
6
CONTINUOUS
10
531.47
20
-47.7991
11
531.429
21
-47.8188
0
LINE
8
BLACK
6
CONTINUOUS
10
531.429
20
-47.8188
11
518.946
21
-48.473
0
LINE
8
BLACK
6
CONTINUOUS
10
518.946
20
-48.473
11
518.902
21
-48.4577
0
LINE
8
BLACK
6
CONTINUOUS
10
518.902
20
-48.4577
11
518.883
21
-48.4163
0
LINE
8
BLACK
6
CONTINUOUS
10
518.548
20
-39.7319
11
518.999
21
-48.3501
0
LINE
8
BLACK
6
CONTINUOUS
10
518.999
20
-48.3501
11
531.362
21
-47.7021
0
LINE
8
BLACK
6
CONTINUOUS
10
531.362
20
-47.7021
11
530.911
21
-39.084
0
LINE
8
BLACK
6
CONTINUOUS
10
530.911
20
-39.084
11
518.548
21
-39.7319
0
LINE
8
BLACK
6
CONTINUOUS
10
435.703
20
-48.4409
11
435.686
21
-48.3985
0
LINE
8
BLACK
6
CONTINUOUS
10
435.686
20
-48.3985
11
435.686
21
-40.8985
0
LINE
8
BLACK
6
CONTINUOUS
10
435.686
20
-40.8985
11
435.703
21
-40.856
0
LINE
8
BLACK
6
CONTINUOUS
10
435.703
20
-40.856
11
435.746
21
-40.8385
0
LINE
8
BLACK
6
CONTINUOUS
10
435.746
20
-40.8385
11
441.746
21
-40.8385
0
LINE
8
BLACK
6
CONTINUOUS
10
441.746
20
-40.8385
11
441.788
21
-40.856
0
LINE
8
BLACK
6
CONTINUOUS
10
441.788
20
-40.856
11
441.806
21
-40.8985
0
LINE
8
BLACK
6
CONTINUOUS
10
441.806
20
-40.8985
11
441.806
21
-48.3985
0
LINE
8
BLACK
6
CONTINUOUS
10
441.806
20
-48.3985
11
441.788
21
-48.4409
0
LINE
8
BLACK
6
CONTINUOUS
10
441.788
20
-48.4409
11
441.746
21
-48.4585
0
LINE
8
BLACK
6
CONTINUOUS
10
441.746
20
-48.4585
11
435.746
21
-48.4585
0
LINE
8
BLACK
6
CONTINUOUS
10
435.746
20
-48.4585
11
435.703
21
-48.4409
0
LINE
8
BLACK
6
CONTINUOUS
10
435.806
20
-40.9585
11
435.806
21
-48.3385
0
LINE
8
BLACK
6
CONTINUOUS
10
435.806
20
-48.3385
11
441.686
21
-48.3385
0
LINE
8
BLACK
6
CONTINUOUS
10
441.686
20
-48.3385
11
441.686
21
-40.9585
0
LINE
8
BLACK
6
CONTINUOUS
10
441.686
20
-40.9585
11
435.806
21
-40.9585
0
LINE
8
BLACK
6
CONTINUOUS
10
328.869
20
-48.1315
11
328.851
21
-48.0891
0
LINE
8
BLACK
6
CONTINUOUS
10
328.851
20
-48.0891
11
328.851
21
-39.3391
0
LINE
8
BLACK
6
CONTINUOUS
10
328.851
20
-39.3391
11
328.869
21
-39.2967
0
LINE
8
BLACK
6
CONTINUOUS
10
328.869
20
-39.2967
11
328.911
21
-39.2791
0
LINE
8
BLACK
6
CONTINUOUS
10
328.911
20
-39.2791
11
341.411
21
-39.2791
0
LINE
8
BLACK
6
CONTINUOUS
10
341.411
20
-39.2791
11
341.454
21
-39.2967
0
LINE
8
BLACK
6
CONTINUOUS
10
341.454
20
-39.2967
11
341.471
21
-39.3391
0
LINE
8
BLACK
6
CONTINUOUS
10
341.471
20
-39.3391
11
341.471
21
-48.0891
0
LINE
8
BLACK
6
CONTINUOUS
10
341.471
20
-48.0891
11
341.454
21
-48.1315
0
LINE
8
BLACK
6
CONTINUOUS
10
341.454
20
-48.1315
11
341.411
21
-48.1491
0
LINE
8
BLACK
6
CONTINUOUS
10
341.411
20
-48.1491
11
328.911
21
-48.1491
0
LINE
8
BLACK
6
CONTINUOUS
10
328.911
20
-48.1491
11
328.869
21
-48.1315
0
LINE
8
BLACK
6
CONTINUOUS
10
328.971
20
-39.3991
11
328.971
21
-48.0291
0
LINE
8
BLACK
6
CONTINUOUS
10
328.971
20
-48.0291
11
341.351
21
-48.0291
0
LINE
8
BLACK
6
CONTINUOUS
10
341.351
20
-48.0291
11
341.351
21
-39.3991
0
LINE
8
BLACK
6
CONTINUOUS
10
341.351
20
-39.3991
11
328.971
21
-39.3991
0
LINE
8
BLACK
6
CONTINUOUS
10
538.419
20
-47.5362
11
538.402
21
-47.4938
0
LINE
8
BLACK
6
CONTINUOUS
10
538.402
20
-47.4938
11
538.402
21
-38.7438
0
LINE
8
BLACK
6
CONTINUOUS
10
538.402
20
-38.7438
11
538.419
21
-38.7014
0
LINE
8
BLACK
6
CONTINUOUS
10
538.419
20
-38.7014
11
538.462
21
-38.6838
0
LINE
8
BLACK
6
CONTINUOUS
10
538.462
20
-38.6838
11
550.962
21
-38.6838
0
LINE
8
BLACK
6
CONTINUOUS
10
550.962
20
-38.6838
11
551.004
21
-38.7014
0
LINE
8
BLACK
6
CONTINUOUS
10
551.004
20
-38.7014
11
551.022
21
-38.7438
0
LINE
8
BLACK
6
CONTINUOUS
10
551.022
20
-38.7438
11
551.022
21
-47.4938
0
LINE
8
BLACK
6
CONTINUOUS
10
551.022
20
-47.4938
11
551.004
21
-47.5362
0
LINE
8
BLACK
6
CONTINUOUS
10
551.004
20
-47.5362
11
550.962
21
-47.5538
0
LINE
8
BLACK
6
CONTINUOUS
10
550.962
20
-47.5538
11
538.462
21
-47.5538
0
LINE
8
BLACK
6
CONTINUOUS
10
538.462
20
-47.5538
11
538.419
21
-47.5362
0
LINE
8
BLACK
6
CONTINUOUS
10
538.522
20
-38.8038
11
538.522
21
-47.4338
0
LINE
8
BLACK
6
CONTINUOUS
10
538.522
20
-47.4338
11
550.902
21
-47.4338
0
LINE
8
BLACK
6
CONTINUOUS
10
550.902
20
-47.4338
11
550.902
21
-38.8038
0
LINE
8
BLACK
6
CONTINUOUS
10
550.902
20
-38.8038
11
538.522
21
-38.8038
0
LINE
8
BLACK
6
CONTINUOUS
10
413.283
20
-44.8162
11
413.275
21
-44.7711
0
LINE
8
BLACK
6
CONTINUOUS
10
413.275
20
-44.7711
11
414.626
21
-38.4131
0
LINE
8
BLACK
6
CONTINUOUS
10
414.626
20
-38.4131
11
414.652
21
-38.3753
0
LINE
8
BLACK
6
CONTINUOUS
10
414.652
20
-38.3753
11
414.698
21
-38.3669
0
LINE
8
BLACK
6
CONTINUOUS
10
414.698
20
-38.3669
11
417.632
21
-38.9906
0
LINE
8
BLACK
6
CONTINUOUS
10
417.632
20
-38.9906
11
417.67
21
-39.0167
0
LINE
8
BLACK
6
CONTINUOUS
10
417.67
20
-39.0167
11
417.678
21
-39.0618
0
LINE
8
BLACK
6
CONTINUOUS
10
417.678
20
-39.0618
11
416.327
21
-45.4198
0
LINE
8
BLACK
6
CONTINUOUS
10
416.327
20
-45.4198
11
416.301
21
-45.4576
0
LINE
8
BLACK
6
CONTINUOUS
10
416.301
20
-45.4576
11
416.256
21
-45.466
0
LINE
8
BLACK
6
CONTINUOUS
10
416.256
20
-45.466
11
413.321
21
-44.8422
0
LINE
8
BLACK
6
CONTINUOUS
10
413.321
20
-44.8422
11
413.283
21
-44.8162
0
LINE
8
BLACK
6
CONTINUOUS
10
413.405
20
-44.7373
11
416.222
21
-45.3361
0
LINE
8
BLACK
6
CONTINUOUS
10
416.222
20
-45.3361
11
417.548
21
-39.0955
0
LINE
8
BLACK
6
CONTINUOUS
10
417.548
20
-39.0955
11
414.731
21
-38.4968
0
LINE
8
BLACK
6
CONTINUOUS
10
414.731
20
-38.4968
11
413.405
21
-44.7373
0
LINE
8
BLACK
6
CONTINUOUS
10
464.625
20
-37.1847
11
464.651
21
-37.2225
0
LINE
8
BLACK
6
CONTINUOUS
10
464.651
20
-37.2225
11
466.003
21
-43.5805
0
LINE
8
BLACK
6
CONTINUOUS
10
466.003
20
-43.5805
11
465.994
21
-43.6256
0
LINE
8
BLACK
6
CONTINUOUS
10
465.994
20
-43.6256
11
465.956
21
-43.6516
0
LINE
8
BLACK
6
CONTINUOUS
10
465.956
20
-43.6516
11
463.022
21
-44.2754
0
LINE
8
BLACK
6
CONTINUOUS
10
463.022
20
-44.2754
11
462.977
21
-44.267
0
LINE
8
BLACK
6
CONTINUOUS
10
462.977
20
-44.267
11
462.951
21
-44.2291
0
LINE
8
BLACK
6
CONTINUOUS
10
462.951
20
-44.2291
11
461.599
21
-37.8712
0
LINE
8
BLACK
6
CONTINUOUS
10
461.599
20
-37.8712
11
461.608
21
-37.826
0
LINE
8
BLACK
6
CONTINUOUS
10
461.608
20
-37.826
11
461.646
21
-37.8
0
LINE
8
BLACK
6
CONTINUOUS
10
461.646
20
-37.8
11
464.58
21
-37.1763
0
LINE
8
BLACK
6
CONTINUOUS
10
464.58
20
-37.1763
11
464.625
21
-37.1847
0
LINE
8
BLACK
6
CONTINUOUS
10
461.729
20
-37.9049
11
463.056
21
-44.1455
0
LINE
8
BLACK
6
CONTINUOUS
10
463.056
20
-44.1455
11
465.873
21
-43.5467
0
LINE
8
BLACK
6
CONTINUOUS
10
465.873
20
-43.5467
11
464.546
21
-37.3061
0
LINE
8
BLACK
6
CONTINUOUS
10
464.546
20
-37.3061
11
461.729
21
-37.9049
0
LINE
8
BLACK
6
CONTINUOUS
10
511.903
20
-43.0831
11
511.886
21
-43.0407
0
LINE
8
BLACK
6
CONTINUOUS
10
511.886
20
-43.0407
11
511.886
21
-35.5407
0
LINE
8
BLACK
6
CONTINUOUS
10
511.886
20
-35.5407
11
511.903
21
-35.4982
0
LINE
8
BLACK
6
CONTINUOUS
10
511.903
20
-35.4982
11
511.946
21
-35.4807
0
LINE
8
BLACK
6
CONTINUOUS
10
511.946
20
-35.4807
11
517.946
21
-35.4807
0
LINE
8
BLACK
6
CONTINUOUS
10
517.946
20
-35.4807
11
517.988
21
-35.4982
0
LINE
8
BLACK
6
CONTINUOUS
10
517.988
20
-35.4982
11
518.006
21
-35.5407
0
LINE
8
BLACK
6
CONTINUOUS
10
518.006
20
-35.5407
11
518.006
21
-43.0407
0
LINE
8
BLACK
6
CONTINUOUS
10
518.006
20
-43.0407
11
517.988
21
-43.0831
0
LINE
8
BLACK
6
CONTINUOUS
10
517.988
20
-43.0831
11
517.946
21
-43.1007
0
LINE
8
BLACK
6
CONTINUOUS
10
517.946
20
-43.1007
11
511.946
21
-43.1007
0
LINE
8
BLACK
6
CONTINUOUS
10
511.946
20
-43.1007
11
511.903
21
-43.0831
0
LINE
8
BLACK
6
CONTINUOUS
10
512.006
20
-35.6007
11
512.006
21
-42.9807
0
LINE
8
BLACK
6
CONTINUOUS
10
512.006
20
-42.9807
11
517.886
21
-42.9807
0
LINE
8
BLACK
6
CONTINUOUS
10
517.886
20
-42.9807
11
517.886
21
-35.6007
0
LINE
8
BLACK
6
CONTINUOUS
10
517.886
20
-35.6007
11
512.006
21
-35.6007
0
LINE
8
BLACK
6
CONTINUOUS
10
364.266
20
-43.0831
11
364.248
21
-43.0407
0
LINE
8
BLACK
6
CONTINUOUS
10
364.248
20
-43.0407
11
364.248
21
-35.5407
0
LINE
8
BLACK
6
CONTINUOUS
10
364.248
20
-35.5407
11
364.266
21
-35.4982
0
LINE
8
BLACK
6
CONTINUOUS
10
364.266
20
-35.4982
11
364.308
21
-35.4807
0
LINE
8
BLACK
6
CONTINUOUS
10
364.308
20
-35.4807
11
370.308
21
-35.4807
0
LINE
8
BLACK
6
CONTINUOUS
10
370.308
20
-35.4807
11
370.351
21
-35.4982
0
LINE
8
BLACK
6
CONTINUOUS
10
370.351
20
-35.4982
11
370.368
21
-35.5407
0
LINE
8
BLACK
6
CONTINUOUS
10
370.368
20
-35.5407
11
370.368
21
-43.0407
0
LINE
8
BLACK
6
CONTINUOUS
10
370.368
20
-43.0407
11
370.351
21
-43.0831
0
LINE
8
BLACK
6
CONTINUOUS
10
370.351
20
-43.0831
11
370.308
21
-43.1007
0
LINE
8
BLACK
6
CONTINUOUS
10
370.308
20
-43.1007
11
364.308
21
-43.1007
0
LINE
8
BLACK
6
CONTINUOUS
10
364.308
20
-43.1007
11
364.266
21
-43.0831
0
LINE
8
BLACK
6
CONTINUOUS
10
364.368
20
-35.6007
11
364.368
21
-42.9807
0
LINE
8
BLACK
6
CONTINUOUS
10
364.368
20
-42.9807
11
370.248
21
-42.9807
0
LINE
8
BLACK
6
CONTINUOUS
10
370.248
20
-42.9807
11
370.248
21
-35.6007
0
LINE
8
BLACK
6
CONTINUOUS
10
370.248
20
-35.6007
11
364.368
21
-35.6007
0
LINE
8
BLACK
6
CONTINUOUS
10
394.401
20
-41.3576
11
394.39
21
-41.3129
0
LINE
8
BLACK
6
CONTINUOUS
10
394.39
20
-41.3129
11
395.407
21
-34.8929
0
LINE
8
BLACK
6
CONTINUOUS
10
395.407
20
-34.8929
11
395.431
21
-34.8538
0
LINE
8
BLACK
6
CONTINUOUS
10
395.431
20
-34.8538
11
395.476
21
-34.8431
0
LINE
8
BLACK
6
CONTINUOUS
10
395.476
20
-34.8431
11
395.476
21
-34.8431
0
LINE
8
BLACK
6
CONTINUOUS
10
395.476
20
-34.8431
11
398.439
21
-35.3124
0
LINE
8
BLACK
6
CONTINUOUS
10
398.439
20
-35.3124
11
398.439
21
-35.3124
0
LINE
8
BLACK
6
CONTINUOUS
10
398.439
20
-35.3124
11
398.478
21
-35.3364
0
LINE
8
BLACK
6
CONTINUOUS
10
398.478
20
-35.3364
11
398.489
21
-35.381
0
LINE
8
BLACK
6
CONTINUOUS
10
398.489
20
-35.381
11
397.472
21
-41.801
0
LINE
8
BLACK
6
CONTINUOUS
10
397.472
20
-41.801
11
397.448
21
-41.8401
0
LINE
8
BLACK
6
CONTINUOUS
10
397.448
20
-41.8401
11
397.403
21
-41.8509
0
LINE
8
BLACK
6
CONTINUOUS
10
397.403
20
-41.8509
11
394.44
21
-41.3815
0
LINE
8
BLACK
6
CONTINUOUS
10
394.44
20
-41.3815
11
394.401
21
-41.3576
0
LINE
8
BLACK
6
CONTINUOUS
10
394.518
20
-41.2724
11
397.363
21
-41.7229
0
LINE
8
BLACK
6
CONTINUOUS
10
397.363
20
-41.7229
11
398.361
21
-35.4215
0
LINE
8
BLACK
6
CONTINUOUS
10
398.361
20
-35.4215
11
395.516
21
-34.971
0
LINE
8
BLACK
6
CONTINUOUS
10
395.516
20
-34.971
11
394.518
21
-41.2724
0
LINE
8
BLACK
6
CONTINUOUS
10
483.846
20
-34.2585
11
483.87
21
-34.2976
0
LINE
8
BLACK
6
CONTINUOUS
10
483.87
20
-34.2976
11
484.887
21
-40.7176
0
LINE
8
BLACK
6
CONTINUOUS
10
484.887
20
-40.7176
11
484.877
21
-40.7622
0
LINE
8
BLACK
6
CONTINUOUS
10
484.877
20
-40.7622
11
484.837
21
-40.7862
0
LINE
8
BLACK
6
CONTINUOUS
10
484.837
20
-40.7862
11
484.837
21
-40.7862
0
LINE
8
BLACK
6
CONTINUOUS
10
484.837
20
-40.7862
11
481.874
21
-41.2555
0
LINE
8
BLACK
6
CONTINUOUS
10
481.874
20
-41.2555
11
481.874
21
-41.2555
0
LINE
8
BLACK
6
CONTINUOUS
10
481.874
20
-41.2555
11
481.83
21
-41.2448
0
LINE
8
BLACK
6
CONTINUOUS
10
481.83
20
-41.2448
11
481.806
21
-41.2057
0
LINE
8
BLACK
6
CONTINUOUS
10
481.806
20
-41.2057
11
480.789
21
-34.7857
0
LINE
8
BLACK
6
CONTINUOUS
10
480.789
20
-34.7857
11
480.8
21
-34.741
0
LINE
8
BLACK
6
CONTINUOUS
10
480.8
20
-34.741
11
480.839
21
-34.717
0
LINE
8
BLACK
6
CONTINUOUS
10
480.839
20
-34.717
11
483.802
21
-34.2477
0
LINE
8
BLACK
6
CONTINUOUS
10
483.802
20
-34.2477
11
483.846
21
-34.2585
0
LINE
8
BLACK
6
CONTINUOUS
10
480.917
20
-34.8262
11
481.915
21
-41.1276
0
LINE
8
BLACK
6
CONTINUOUS
10
481.915
20
-41.1276
11
484.759
21
-40.6771
0
LINE
8
BLACK
6
CONTINUOUS
10
484.759
20
-40.6771
11
483.761
21
-34.3756
0
LINE
8
BLACK
6
CONTINUOUS
10
483.761
20
-34.3756
11
480.917
21
-34.8262
0
LINE
8
BLACK
6
CONTINUOUS
10
374.929
20
-38.4853
11
374.916
21
-38.4412
0
LINE
8
BLACK
6
CONTINUOUS
10
374.916
20
-38.4412
11
375.595
21
-31.9768
0
LINE
8
BLACK
6
CONTINUOUS
10
375.595
20
-31.9768
11
375.617
21
-31.9365
0
LINE
8
BLACK
6
CONTINUOUS
10
375.617
20
-31.9365
11
375.661
21
-31.9234
0
LINE
8
BLACK
6
CONTINUOUS
10
375.661
20
-31.9234
11
375.661
21
-31.9234
0
LINE
8
BLACK
6
CONTINUOUS
10
375.661
20
-31.9234
11
378.645
21
-32.237
0
LINE
8
BLACK
6
CONTINUOUS
10
378.645
20
-32.237
11
378.645
21
-32.237
0
LINE
8
BLACK
6
CONTINUOUS
10
378.645
20
-32.237
11
378.685
21
-32.2589
0
LINE
8
BLACK
6
CONTINUOUS
10
378.685
20
-32.2589
11
378.698
21
-32.303
0
LINE
8
BLACK
6
CONTINUOUS
10
378.698
20
-32.303
11
378.019
21
-38.7674
0
LINE
8
BLACK
6
CONTINUOUS
10
378.019
20
-38.7674
11
377.997
21
-38.8077
0
LINE
8
BLACK
6
CONTINUOUS
10
377.997
20
-38.8077
11
377.953
21
-38.8208
0
LINE
8
BLACK
6
CONTINUOUS
10
377.953
20
-38.8208
11
374.969
21
-38.5072
0
LINE
8
BLACK
6
CONTINUOUS
10
374.969
20
-38.5072
11
374.929
21
-38.4853
0
LINE
8
BLACK
6
CONTINUOUS
10
375.042
20
-38.3941
11
377.906
21
-38.6951
0
LINE
8
BLACK
6
CONTINUOUS
10
377.906
20
-38.6951
11
378.573
21
-32.3501
0
LINE
8
BLACK
6
CONTINUOUS
10
378.573
20
-32.3501
11
375.708
21
-32.0491
0
LINE
8
BLACK
6
CONTINUOUS
10
375.708
20
-32.0491
11
375.042
21
-38.3941
0
LINE
8
BLACK
6
CONTINUOUS
10
463.781
20
-27.4157
11
463.807
21
-27.4536
0
LINE
8
BLACK
6
CONTINUOUS
10
463.807
20
-27.4536
11
465.626
21
-36.0124
0
LINE
8
BLACK
6
CONTINUOUS
10
465.626
20
-36.0124
11
465.618
21
-36.0575
0
LINE
8
BLACK
6
CONTINUOUS
10
465.618
20
-36.0575
11
465.58
21
-36.0835
0
LINE
8
BLACK
6
CONTINUOUS
10
465.58
20
-36.0835
11
453.353
21
-38.6824
0
LINE
8
BLACK
6
CONTINUOUS
10
453.353
20
-38.6824
11
453.308
21
-38.6741
0
LINE
8
BLACK
6
CONTINUOUS
10
453.308
20
-38.6741
11
453.282
21
-38.6362
0
LINE
8
BLACK
6
CONTINUOUS
10
453.282
20
-38.6362
11
453.282
21
-38.6362
0
LINE
8
BLACK
6
CONTINUOUS
10
453.282
20
-38.6362
11
451.463
21
-30.0774
0
LINE
8
BLACK
6
CONTINUOUS
10
451.463
20
-30.0774
11
451.471
21
-30.0323
0
LINE
8
BLACK
6
CONTINUOUS
10
451.471
20
-30.0323
11
451.509
21
-30.0063
0
LINE
8
BLACK
6
CONTINUOUS
10
451.509
20
-30.0063
11
463.736
21
-27.4074
0
LINE
8
BLACK
6
CONTINUOUS
10
463.736
20
-27.4074
11
463.781
21
-27.4157
0
LINE
8
BLACK
6
CONTINUOUS
10
451.593
20
-30.1112
11
453.387
21
-38.5526
0
LINE
8
BLACK
6
CONTINUOUS
10
453.387
20
-38.5526
11
465.496
21
-35.9786
0
LINE
8
BLACK
6
CONTINUOUS
10
465.496
20
-35.9786
11
463.702
21
-27.5372
0
LINE
8
BLACK
6
CONTINUOUS
10
463.702
20
-27.5372
11
451.593
21
-30.1112
0
LINE
8
BLACK
6
CONTINUOUS
10
503.065
20
-31.3412
11
503.087
21
-31.3815
0
LINE
8
BLACK
6
CONTINUOUS
10
503.087
20
-31.3815
11
503.766
21
-37.8459
0
LINE
8
BLACK
6
CONTINUOUS
10
503.766
20
-37.8459
11
503.753
21
-37.8899
0
LINE
8
BLACK
6
CONTINUOUS
10
503.753
20
-37.8899
11
503.713
21
-37.9119
0
LINE
8
BLACK
6
CONTINUOUS
10
503.713
20
-37.9119
11
503.713
21
-37.9119
0
LINE
8
BLACK
6
CONTINUOUS
10
503.713
20
-37.9119
11
500.729
21
-38.2254
0
LINE
8
BLACK
6
CONTINUOUS
10
500.729
20
-38.2254
11
500.729
21
-38.2254
0
LINE
8
BLACK
6
CONTINUOUS
10
500.729
20
-38.2254
11
500.685
21
-38.2124
0
LINE
8
BLACK
6
CONTINUOUS
10
500.685
20
-38.2124
11
500.663
21
-38.172
0
LINE
8
BLACK
6
CONTINUOUS
10
500.663
20
-38.172
11
499.984
21
-31.7077
0
LINE
8
BLACK
6
CONTINUOUS
10
499.984
20
-31.7077
11
499.997
21
-31.6636
0
LINE
8
BLACK
6
CONTINUOUS
10
499.997
20
-31.6636
11
500.037
21
-31.6417
0
LINE
8
BLACK
6
CONTINUOUS
10
500.037
20
-31.6417
11
503.021
21
-31.3281
0
LINE
8
BLACK
6
CONTINUOUS
10
503.021
20
-31.3281
11
503.065
21
-31.3412
0
LINE
8
BLACK
6
CONTINUOUS
10
500.11
20
-31.7548
11
500.776
21
-38.0998
0
LINE
8
BLACK
6
CONTINUOUS
10
500.776
20
-38.0998
11
503.641
21
-37.7988
0
LINE
8
BLACK
6
CONTINUOUS
10
503.641
20
-37.7988
11
502.974
21
-31.4537
0
LINE
8
BLACK
6
CONTINUOUS
10
502.974
20
-31.4537
11
500.11
21
-31.7548
0
LINE
8
BLACK
6
CONTINUOUS
10
407.111
20
-35.4622
11
407.103
21
-35.4171
0
LINE
8
BLACK
6
CONTINUOUS
10
407.103
20
-35.4171
11
408.922
21
-26.8583
0
LINE
8
BLACK
6
CONTINUOUS
10
408.922
20
-26.8583
11
408.922
21
-26.8583
0
LINE
8
BLACK
6
CONTINUOUS
10
408.922
20
-26.8583
11
408.948
21
-26.8204
0
LINE
8
BLACK
6
CONTINUOUS
10
408.948
20
-26.8204
11
408.993
21
-26.8121
0
LINE
8
BLACK
6
CONTINUOUS
10
408.993
20
-26.8121
11
421.22
21
-29.411
0
LINE
8
BLACK
6
CONTINUOUS
10
421.22
20
-29.411
11
421.258
21
-29.437
0
LINE
8
BLACK
6
CONTINUOUS
10
421.258
20
-29.437
11
421.266
21
-29.4821
0
LINE
8
BLACK
6
CONTINUOUS
10
421.266
20
-29.4821
11
419.447
21
-38.0409
0
LINE
8
BLACK
6
CONTINUOUS
10
419.447
20
-38.0409
11
419.421
21
-38.0788
0
LINE
8
BLACK
6
CONTINUOUS
10
419.421
20
-38.0788
11
419.376
21
-38.0871
0
LINE
8
BLACK
6
CONTINUOUS
10
419.376
20
-38.0871
11
407.149
21
-35.4882
0
LINE
8
BLACK
6
CONTINUOUS
10
407.149
20
-35.4882
11
407.111
21
-35.4622
0
LINE
8
BLACK
6
CONTINUOUS
10
407.233
20
-35.3833
11
419.342
21
-37.9573
0
LINE
8
BLACK
6
CONTINUOUS
10
419.342
20
-37.9573
11
421.136
21
-29.5159
0
LINE
8
BLACK
6
CONTINUOUS
10
421.136
20
-29.5159
11
409.027
21
-26.9419
0
LINE
8
BLACK
6
CONTINUOUS
10
409.027
20
-26.9419
11
407.233
21
-35.3833
0
LINE
8
BLACK
6
CONTINUOUS
10
356.099
20
-36.8141
11
356.058
21
-36.7944
0
LINE
8
BLACK
6
CONTINUOUS
10
356.058
20
-36.7944
11
356.042
21
-36.7511
0
LINE
8
BLACK
6
CONTINUOUS
10
356.042
20
-36.7511
11
356.382
21
-30.26
0
LINE
8
BLACK
6
CONTINUOUS
10
356.382
20
-30.26
11
356.402
21
-30.2185
0
LINE
8
BLACK
6
CONTINUOUS
10
356.402
20
-30.2185
11
356.445
21
-30.2032
0
LINE
8
BLACK
6
CONTINUOUS
10
356.445
20
-30.2032
11
359.441
21
-30.3602
0
LINE
8
BLACK
6
CONTINUOUS
10
359.441
20
-30.3602
11
359.483
21
-30.38
0
LINE
8
BLACK
6
CONTINUOUS
10
359.483
20
-30.38
11
359.498
21
-30.4233
0
LINE
8
BLACK
6
CONTINUOUS
10
359.498
20
-30.4233
11
359.158
21
-36.9144
0
LINE
8
BLACK
6
CONTINUOUS
10
359.158
20
-36.9144
11
359.138
21
-36.9558
0
LINE
8
BLACK
6
CONTINUOUS
10
359.138
20
-36.9558
11
359.095
21
-36.9712
0
LINE
8
BLACK
6
CONTINUOUS
10
359.095
20
-36.9712
11
359.095
21
-36.9712
0
LINE
8
BLACK
6
CONTINUOUS
10
359.095
20
-36.9712
11
356.099
21
-36.8141
0
LINE
8
BLACK
6
CONTINUOUS
10
356.165
20
-36.6974
11
359.041
21
-36.8482
0
LINE
8
BLACK
6
CONTINUOUS
10
359.041
20
-36.8482
11
359.375
21
-30.4769
0
LINE
8
BLACK
6
CONTINUOUS
10
359.375
20
-30.4769
11
356.499
21
-30.3262
0
LINE
8
BLACK
6
CONTINUOUS
10
356.499
20
-30.3262
11
356.165
21
-36.6974
0
LINE
8
BLACK
6
CONTINUOUS
10
522.875
20
-30.2185
11
522.895
21
-30.26
0
LINE
8
BLACK
6
CONTINUOUS
10
522.895
20
-30.26
11
523.235
21
-36.7511
0
LINE
8
BLACK
6
CONTINUOUS
10
523.235
20
-36.7511
11
523.22
21
-36.7944
0
LINE
8
BLACK
6
CONTINUOUS
10
523.22
20
-36.7944
11
523.179
21
-36.8141
0
LINE
8
BLACK
6
CONTINUOUS
10
523.179
20
-36.8141
11
520.183
21
-36.9712
0
LINE
8
BLACK
6
CONTINUOUS
10
520.183
20
-36.9712
11
520.139
21
-36.9558
0
LINE
8
BLACK
6
CONTINUOUS
10
520.139
20
-36.9558
11
520.12
21
-36.9144
0
LINE
8
BLACK
6
CONTINUOUS
10
520.12
20
-36.9144
11
519.779
21
-30.4233
0
LINE
8
BLACK
6
CONTINUOUS
10
519.779
20
-30.4233
11
519.795
21
-30.38
0
LINE
8
BLACK
6
CONTINUOUS
10
519.795
20
-30.38
11
519.836
21
-30.3602
0
LINE
8
BLACK
6
CONTINUOUS
10
519.836
20
-30.3602
11
522.832
21
-30.2032
0
LINE
8
BLACK
6
CONTINUOUS
10
522.832
20
-30.2032
11
522.832
21
-30.2032
0
LINE
8
BLACK
6
CONTINUOUS
10
522.832
20
-30.2032
11
522.875
21
-30.2185
0
LINE
8
BLACK
6
CONTINUOUS
10
519.902
20
-30.4769
11
520.236
21
-36.8482
0
LINE
8
BLACK
6
CONTINUOUS
10
520.236
20
-36.8482
11
523.112
21
-36.6974
0
LINE
8
BLACK
6
CONTINUOUS
10
523.112
20
-36.6974
11
522.778
21
-30.3262
0
LINE
8
BLACK
6
CONTINUOUS
10
522.778
20
-30.3262
11
519.902
21
-30.4769
0
LINE
8
BLACK
6
CONTINUOUS
10
337.191
20
-36.2846
11
337.173
21
-36.2422
0
LINE
8
BLACK
6
CONTINUOUS
10
337.173
20
-36.2422
11
337.173
21
-29.7422
0
LINE
8
BLACK
6
CONTINUOUS
10
337.173
20
-29.7422
11
337.191
21
-29.6998
0
LINE
8
BLACK
6
CONTINUOUS
10
337.191
20
-29.6998
11
337.233
21
-29.6822
0
LINE
8
BLACK
6
CONTINUOUS
10
337.233
20
-29.6822
11
340.233
21
-29.6822
0
LINE
8
BLACK
6
CONTINUOUS
10
340.233
20
-29.6822
11
340.276
21
-29.6998
0
LINE
8
BLACK
6
CONTINUOUS
10
340.276
20
-29.6998
11
340.293
21
-29.7422
0
LINE
8
BLACK
6
CONTINUOUS
10
340.293
20
-29.7422
11
340.293
21
-36.2422
0
LINE
8
BLACK
6
CONTINUOUS
10
340.293
20
-36.2422
11
340.276
21
-36.2846
0
LINE
8
BLACK
6
CONTINUOUS
10
340.276
20
-36.2846
11
340.233
21
-36.3022
0
LINE
8
BLACK
6
CONTINUOUS
10
340.233
20
-36.3022
11
337.233
21
-36.3022
0
LINE
8
BLACK
6
CONTINUOUS
10
337.233
20
-36.3022
11
337.191
21
-36.2846
0
LINE
8
BLACK
6
CONTINUOUS
10
337.293
20
-29.8022
11
337.293
21
-36.1822
0
LINE
8
BLACK
6
CONTINUOUS
10
337.293
20
-36.1822
11
340.173
21
-36.1822
0
LINE
8
BLACK
6
CONTINUOUS
10
340.173
20
-36.1822
11
340.173
21
-29.8022
0
LINE
8
BLACK
6
CONTINUOUS
10
340.173
20
-29.8022
11
337.293
21
-29.8022
0
LINE
8
BLACK
6
CONTINUOUS
10
541.383
20
-36.2846
11
541.366
21
-36.2422
0
LINE
8
BLACK
6
CONTINUOUS
10
541.366
20
-36.2422
11
541.366
21
-29.7422
0
LINE
8
BLACK
6
CONTINUOUS
10
541.366
20
-29.7422
11
541.383
21
-29.6998
0
LINE
8
BLACK
6
CONTINUOUS
10
541.383
20
-29.6998
11
541.426
21
-29.6822
0
LINE
8
BLACK
6
CONTINUOUS
10
541.426
20
-29.6822
11
544.426
21
-29.6822
0
LINE
8
BLACK
6
CONTINUOUS
10
544.426
20
-29.6822
11
544.468
21
-29.6998
0
LINE
8
BLACK
6
CONTINUOUS
10
544.468
20
-29.6998
11
544.486
21
-29.7422
0
LINE
8
BLACK
6
CONTINUOUS
10
544.486
20
-29.7422
11
544.486
21
-36.2422
0
LINE
8
BLACK
6
CONTINUOUS
10
544.486
20
-36.2422
11
544.468
21
-36.2846
0
LINE
8
BLACK
6
CONTINUOUS
10
544.468
20
-36.2846
11
544.426
21
-36.3022
0
LINE
8
BLACK
6
CONTINUOUS
10
544.426
20
-36.3022
11
541.426
21
-36.3022
0
LINE
8
BLACK
6
CONTINUOUS
10
541.426
20
-36.3022
11
541.383
21
-36.2846
0
LINE
8
BLACK
6
CONTINUOUS
10
541.486
20
-29.8022
11
541.486
21
-36.1822
0
LINE
8
BLACK
6
CONTINUOUS
10
541.486
20
-36.1822
11
544.366
21
-36.1822
0
LINE
8
BLACK
6
CONTINUOUS
10
544.366
20
-36.1822
11
544.366
21
-29.8022
0
LINE
8
BLACK
6
CONTINUOUS
10
544.366
20
-29.8022
11
541.486
21
-29.8022
0
LINE
8
BLACK
6
CONTINUOUS
10
483.823
20
-24.1054
11
483.847
21
-24.1445
0
LINE
8
BLACK
6
CONTINUOUS
10
483.847
20
-24.1445
11
483.847
21
-24.1445
0
LINE
8
BLACK
6
CONTINUOUS
10
483.847
20
-24.1445
11
485.216
21
-32.7868
0
LINE
8
BLACK
6
CONTINUOUS
10
485.216
20
-32.7868
11
485.216
21
-32.7868
0
LINE
8
BLACK
6
CONTINUOUS
10
485.216
20
-32.7868
11
485.205
21
-32.8314
0
LINE
8
BLACK
6
CONTINUOUS
10
485.205
20
-32.8314
11
485.166
21
-32.8554
0
LINE
8
BLACK
6
CONTINUOUS
10
485.166
20
-32.8554
11
472.82
21
-34.8109
0
LINE
8
BLACK
6
CONTINUOUS
10
472.82
20
-34.8109
11
472.775
21
-34.8001
0
LINE
8
BLACK
6
CONTINUOUS
10
472.775
20
-34.8001
11
472.751
21
-34.761
0
LINE
8
BLACK
6
CONTINUOUS
10
472.751
20
-34.761
11
471.383
21
-26.1187
0
LINE
8
BLACK
6
CONTINUOUS
10
471.383
20
-26.1187
11
471.393
21
-26.0741
0
LINE
8
BLACK
6
CONTINUOUS
10
471.393
20
-26.0741
11
471.433
21
-26.0501
0
LINE
8
BLACK
6
CONTINUOUS
10
471.433
20
-26.0501
11
483.779
21
-24.0946
0
LINE
8
BLACK
6
CONTINUOUS
10
483.779
20
-24.0946
11
483.823
21
-24.1054
0
LINE
8
BLACK
6
CONTINUOUS
10
471.511
20
-26.1592
11
472.861
21
-34.683
0
LINE
8
BLACK
6
CONTINUOUS
10
472.861
20
-34.683
11
485.088
21
-32.7463
0
LINE
8
BLACK
6
CONTINUOUS
10
485.088
20
-32.7463
11
483.738
21
-24.2225
0
LINE
8
BLACK
6
CONTINUOUS
10
483.738
20
-24.2225
11
471.511
21
-26.1592
0
LINE
8
BLACK
6
CONTINUOUS
10
387.524
20
-32.2361
11
387.513
21
-32.1915
0
LINE
8
BLACK
6
CONTINUOUS
10
387.513
20
-32.1915
11
388.882
21
-23.5492
0
LINE
8
BLACK
6
CONTINUOUS
10
388.882
20
-23.5492
11
388.898
21
-23.5233
0
LINE
8
BLACK
6
CONTINUOUS
10
388.898
20
-23.5233
11
388.906
21
-23.51
0
LINE
8
BLACK
6
CONTINUOUS
10
388.906
20
-23.51
11
388.95
21
-23.4993
0
LINE
8
BLACK
6
CONTINUOUS
10
388.95
20
-23.4993
11
401.297
21
-25.4548
0
LINE
8
BLACK
6
CONTINUOUS
10
401.297
20
-25.4548
11
401.336
21
-25.4787
0
LINE
8
BLACK
6
CONTINUOUS
10
401.336
20
-25.4787
11
401.346
21
-25.5234
0
LINE
8
BLACK
6
CONTINUOUS
10
401.346
20
-25.5234
11
401.346
21
-25.5234
0
LINE
8
BLACK
6
CONTINUOUS
10
401.346
20
-25.5234
11
399.978
21
-34.1657
0
LINE
8
BLACK
6
CONTINUOUS
10
399.978
20
-34.1657
11
399.978
21
-34.1657
0
LINE
8
BLACK
6
CONTINUOUS
10
399.978
20
-34.1657
11
399.954
21
-34.2048
0
LINE
8
BLACK
6
CONTINUOUS
10
399.954
20
-34.2048
11
399.909
21
-34.2156
0
LINE
8
BLACK
6
CONTINUOUS
10
399.909
20
-34.2156
11
387.563
21
-32.2601
0
LINE
8
BLACK
6
CONTINUOUS
10
387.563
20
-32.2601
11
387.524
21
-32.2361
0
LINE
8
BLACK
6
CONTINUOUS
10
387.641
20
-32.151
11
399.869
21
-34.0876
0
LINE
8
BLACK
6
CONTINUOUS
10
399.869
20
-34.0876
11
401.219
21
-25.5639
0
LINE
8
BLACK
6
CONTINUOUS
10
401.219
20
-25.5639
11
388.991
21
-23.6272
0
LINE
8
BLACK
6
CONTINUOUS
10
388.991
20
-23.6272
11
387.641
21
-32.151
0
LINE
8
BLACK
6
CONTINUOUS
10
367.954
20
-30.1972
11
367.941
21
-30.1531
0
LINE
8
BLACK
6
CONTINUOUS
10
367.941
20
-30.1531
11
368.856
21
-21.4511
0
LINE
8
BLACK
6
CONTINUOUS
10
368.856
20
-21.4511
11
368.856
21
-21.4511
0
LINE
8
BLACK
6
CONTINUOUS
10
368.856
20
-21.4511
11
368.878
21
-21.4107
0
LINE
8
BLACK
6
CONTINUOUS
10
368.878
20
-21.4107
11
368.922
21
-21.3977
0
LINE
8
BLACK
6
CONTINUOUS
10
368.922
20
-21.3977
11
381.353
21
-22.7043
0
LINE
8
BLACK
6
CONTINUOUS
10
381.353
20
-22.7043
11
381.353
21
-22.7043
0
LINE
8
BLACK
6
CONTINUOUS
10
381.353
20
-22.7043
11
381.368
21
-22.712
0
LINE
8
BLACK
6
CONTINUOUS
10
381.368
20
-22.712
11
381.394
21
-22.7262
0
LINE
8
BLACK
6
CONTINUOUS
10
381.394
20
-22.7262
11
381.394
21
-22.7262
0
LINE
8
BLACK
6
CONTINUOUS
10
381.394
20
-22.7262
11
381.407
21
-22.7702
0
LINE
8
BLACK
6
CONTINUOUS
10
381.407
20
-22.7702
11
380.492
21
-31.4723
0
LINE
8
BLACK
6
CONTINUOUS
10
380.492
20
-31.4723
11
380.492
21
-31.4723
0
LINE
8
BLACK
6
CONTINUOUS
10
380.492
20
-31.4723
11
380.47
21
-31.5126
0
LINE
8
BLACK
6
CONTINUOUS
10
380.47
20
-31.5126
11
380.426
21
-31.5257
0
LINE
8
BLACK
6
CONTINUOUS
10
380.426
20
-31.5257
11
367.995
21
-30.2191
0
LINE
8
BLACK
6
CONTINUOUS
10
367.995
20
-30.2191
11
367.954
21
-30.1972
0
LINE
8
BLACK
6
CONTINUOUS
10
368.067
20
-30.106
11
380.379
21
-31.4001
0
LINE
8
BLACK
6
CONTINUOUS
10
380.379
20
-31.4001
11
381.281
21
-22.8173
0
LINE
8
BLACK
6
CONTINUOUS
10
381.281
20
-22.8173
11
368.969
21
-21.5233
0
LINE
8
BLACK
6
CONTINUOUS
10
368.969
20
-21.5233
11
368.067
21
-30.106
0
LINE
8
BLACK
6
CONTINUOUS
10
503.851
20
-21.4107
11
503.873
21
-21.4511
0
LINE
8
BLACK
6
CONTINUOUS
10
503.873
20
-21.4511
11
504.788
21
-30.1531
0
LINE
8
BLACK
6
CONTINUOUS
10
504.788
20
-30.1531
11
504.775
21
-30.1972
0
LINE
8
BLACK
6
CONTINUOUS
10
504.775
20
-30.1972
11
504.758
21
-30.206
0
LINE
8
BLACK
6
CONTINUOUS
10
504.758
20
-30.206
11
504.734
21
-30.2191
0
LINE
8
BLACK
6
CONTINUOUS
10
504.734
20
-30.2191
11
504.734
21
-30.2191
0
LINE
8
BLACK
6
CONTINUOUS
10
504.734
20
-30.2191
11
492.303
21
-31.5257
0
LINE
8
BLACK
6
CONTINUOUS
10
492.303
20
-31.5257
11
492.259
21
-31.5126
0
LINE
8
BLACK
6
CONTINUOUS
10
492.259
20
-31.5126
11
492.237
21
-31.4723
0
LINE
8
BLACK
6
CONTINUOUS
10
492.237
20
-31.4723
11
492.237
21
-31.4723
0
LINE
8
BLACK
6
CONTINUOUS
10
492.237
20
-31.4723
11
491.322
21
-22.7702
0
LINE
8
BLACK
6
CONTINUOUS
10
491.322
20
-22.7702
11
491.335
21
-22.7262
0
LINE
8
BLACK
6
CONTINUOUS
10
491.335
20
-22.7262
11
491.376
21
-22.7043
0
LINE
8
BLACK
6
CONTINUOUS
10
491.376
20
-22.7043
11
503.807
21
-21.3977
0
LINE
8
BLACK
6
CONTINUOUS
10
503.807
20
-21.3977
11
503.851
21
-21.4107
0
LINE
8
BLACK
6
CONTINUOUS
10
491.448
20
-22.8173
11
492.35
21
-31.4001
0
LINE
8
BLACK
6
CONTINUOUS
10
492.35
20
-31.4001
11
504.662
21
-30.106
0
LINE
8
BLACK
6
CONTINUOUS
10
504.662
20
-30.106
11
503.76
21
-21.5233
0
LINE
8
BLACK
6
CONTINUOUS
10
503.76
20
-21.5233
11
491.448
21
-22.8173
0
LINE
8
BLACK
6
CONTINUOUS
10
361.391
20
-20.5652
11
361.433
21
-20.5849
0
LINE
8
BLACK
6
CONTINUOUS
10
361.433
20
-20.5849
11
361.448
21
-20.6282
0
LINE
8
BLACK
6
CONTINUOUS
10
361.448
20
-20.6282
11
360.99
21
-29.3662
0
LINE
8
BLACK
6
CONTINUOUS
10
360.99
20
-29.3662
11
360.97
21
-29.4077
0
LINE
8
BLACK
6
CONTINUOUS
10
360.97
20
-29.4077
11
360.927
21
-29.423
0
LINE
8
BLACK
6
CONTINUOUS
10
360.927
20
-29.423
11
348.444
21
-28.7688
0
LINE
8
BLACK
6
CONTINUOUS
10
348.444
20
-28.7688
11
348.403
21
-28.749
0
LINE
8
BLACK
6
CONTINUOUS
10
348.403
20
-28.749
11
348.388
21
-28.7058
0
LINE
8
BLACK
6
CONTINUOUS
10
348.388
20
-28.7058
11
348.845
21
-19.9678
0
LINE
8
BLACK
6
CONTINUOUS
10
348.845
20
-19.9678
11
348.865
21
-19.9263
0
LINE
8
BLACK
6
CONTINUOUS
10
348.865
20
-19.9263
11
348.909
21
-19.911
0
LINE
8
BLACK
6
CONTINUOUS
10
348.909
20
-19.911
11
361.391
21
-20.5652
0
LINE
8
BLACK
6
CONTINUOUS
10
348.511
20
-28.6521
11
360.874
21
-29.3
0
LINE
8
BLACK
6
CONTINUOUS
10
360.874
20
-29.3
11
361.325
21
-20.6819
0
LINE
8
BLACK
6
CONTINUOUS
10
361.325
20
-20.6819
11
348.962
21
-20.034
0
LINE
8
BLACK
6
CONTINUOUS
10
348.962
20
-20.034
11
348.511
21
-28.6521
0
LINE
8
BLACK
6
CONTINUOUS
10
523.864
20
-19.9263
11
523.884
21
-19.9678
0
LINE
8
BLACK
6
CONTINUOUS
10
523.884
20
-19.9678
11
523.884
21
-19.9678
0
LINE
8
BLACK
6
CONTINUOUS
10
523.884
20
-19.9678
11
524.342
21
-28.7058
0
LINE
8
BLACK
6
CONTINUOUS
10
524.342
20
-28.7058
11
524.326
21
-28.7491
0
LINE
8
BLACK
6
CONTINUOUS
10
524.326
20
-28.7491
11
524.285
21
-28.7688
0
LINE
8
BLACK
6
CONTINUOUS
10
524.285
20
-28.7688
11
511.802
21
-29.423
0
LINE
8
BLACK
6
CONTINUOUS
10
511.802
20
-29.423
11
511.759
21
-29.4077
0
LINE
8
BLACK
6
CONTINUOUS
10
511.759
20
-29.4077
11
511.739
21
-29.3662
0
LINE
8
BLACK
6
CONTINUOUS
10
511.739
20
-29.3662
11
511.281
21
-20.6282
0
LINE
8
BLACK
6
CONTINUOUS
10
511.281
20
-20.6282
11
511.296
21
-20.5849
0
LINE
8
BLACK
6
CONTINUOUS
10
511.296
20
-20.5849
11
511.338
21
-20.5652
0
LINE
8
BLACK
6
CONTINUOUS
10
511.338
20
-20.5652
11
523.821
21
-19.911
0
LINE
8
BLACK
6
CONTINUOUS
10
523.821
20
-19.911
11
523.864
21
-19.9263
0
LINE
8
BLACK
6
CONTINUOUS
10
511.404
20
-20.6819
11
511.856
21
-29.3
0
LINE
8
BLACK
6
CONTINUOUS
10
511.856
20
-29.3
11
524.219
21
-28.6521
0
LINE
8
BLACK
6
CONTINUOUS
10
524.219
20
-28.6521
11
523.767
21
-20.034
0
LINE
8
BLACK
6
CONTINUOUS
10
523.767
20
-20.034
11
511.404
21
-20.6819
0
LINE
8
BLACK
6
CONTINUOUS
10
533.657
20
-28.4862
11
533.639
21
-28.4438
0
LINE
8
BLACK
6
CONTINUOUS
10
533.639
20
-28.4438
11
533.639
21
-19.6938
0
LINE
8
BLACK
6
CONTINUOUS
10
533.639
20
-19.6938
11
533.657
21
-19.6513
0
LINE
8
BLACK
6
CONTINUOUS
10
533.657
20
-19.6513
11
533.699
21
-19.6338
0
LINE
8
BLACK
6
CONTINUOUS
10
533.699
20
-19.6338
11
546.199
21
-19.6338
0
LINE
8
BLACK
6
CONTINUOUS
10
546.199
20
-19.6338
11
546.241
21
-19.6513
0
LINE
8
BLACK
6
CONTINUOUS
10
546.241
20
-19.6513
11
546.259
21
-19.6938
0
LINE
8
BLACK
6
CONTINUOUS
10
546.259
20
-19.6938
11
546.259
21
-28.4438
0
LINE
8
BLACK
6
CONTINUOUS
10
546.259
20
-28.4438
11
546.241
21
-28.4862
0
LINE
8
BLACK
6
CONTINUOUS
10
546.241
20
-28.4862
11
546.199
21
-28.5038
0
LINE
8
BLACK
6
CONTINUOUS
10
546.199
20
-28.5038
11
533.699
21
-28.5038
0
LINE
8
BLACK
6
CONTINUOUS
10
533.699
20
-28.5038
11
533.657
21
-28.4862
0
LINE
8
BLACK
6
CONTINUOUS
10
533.759
20
-19.7538
11
533.759
21
-28.3838
0
LINE
8
BLACK
6
CONTINUOUS
10
533.759
20
-28.3838
11
546.139
21
-28.3838
0
LINE
8
BLACK
6
CONTINUOUS
10
546.139
20
-28.3838
11
546.139
21
-19.7538
0
LINE
8
BLACK
6
CONTINUOUS
10
546.139
20
-19.7538
11
533.759
21
-19.7538
0
LINE
8
BLACK
6
CONTINUOUS
10
328.869
20
-28.4862
11
328.851
21
-28.4438
0
LINE
8
BLACK
6
CONTINUOUS
10
328.851
20
-28.4438
11
328.851
21
-19.6938
0
LINE
8
BLACK
6
CONTINUOUS
10
328.851
20
-19.6938
11
328.869
21
-19.6513
0
LINE
8
BLACK
6
CONTINUOUS
10
328.869
20
-19.6513
11
328.911
21
-19.6338
0
LINE
8
BLACK
6
CONTINUOUS
10
328.911
20
-19.6338
11
341.411
21
-19.6338
0
LINE
8
BLACK
6
CONTINUOUS
10
341.411
20
-19.6338
11
341.454
21
-19.6513
0
LINE
8
BLACK
6
CONTINUOUS
10
341.454
20
-19.6513
11
341.471
21
-19.6938
0
LINE
8
BLACK
6
CONTINUOUS
10
341.471
20
-19.6938
11
341.471
21
-28.4438
0
LINE
8
BLACK
6
CONTINUOUS
10
341.471
20
-28.4438
11
341.454
21
-28.4862
0
LINE
8
BLACK
6
CONTINUOUS
10
341.454
20
-28.4862
11
341.411
21
-28.5038
0
LINE
8
BLACK
6
CONTINUOUS
10
341.411
20
-28.5038
11
328.911
21
-28.5038
0
LINE
8
BLACK
6
CONTINUOUS
10
328.911
20
-28.5038
11
328.869
21
-28.4862
0
LINE
8
BLACK
6
CONTINUOUS
10
328.971
20
-19.7538
11
328.971
21
-28.3838
0
LINE
8
BLACK
6
CONTINUOUS
10
328.971
20
-28.3838
11
341.351
21
-28.3838
0
LINE
8
BLACK
6
CONTINUOUS
10
341.351
20
-28.3838
11
341.351
21
-19.7538
0
LINE
8
BLACK
6
CONTINUOUS
10
341.351
20
-19.7538
11
328.971
21
-19.7538
0
LINE
8
BLACK
6
CONTINUOUS
10
392.45
20
-84.3109
11
392.509
21
-84.1231
0
LINE
8
BLACK
6
CONTINUOUS
10
392.509
20
-84.1231
11
392.6
21
-83.949
0
LINE
8
BLACK
6
CONTINUOUS
10
392.6
20
-83.949
11
392.722
21
-83.7945
0
LINE
8
BLACK
6
CONTINUOUS
10
392.722
20
-83.7945
11
392.87
21
-83.6648
0
LINE
8
BLACK
6
CONTINUOUS
10
392.87
20
-83.6648
11
393.039
21
-83.5642
0
LINE
8
BLACK
6
CONTINUOUS
10
393.039
20
-83.5642
11
393.224
21
-83.4961
0
LINE
8
BLACK
6
CONTINUOUS
10
393.224
20
-83.4961
11
393.418
21
-83.4628
0
LINE
8
BLACK
6
CONTINUOUS
10
393.418
20
-83.4628
11
393.614
21
-83.4653
0
LINE
8
BLACK
6
CONTINUOUS
10
393.614
20
-83.4653
11
393.807
21
-83.5037
0
LINE
8
BLACK
6
CONTINUOUS
10
393.807
20
-83.5037
11
393.99
21
-83.5766
0
LINE
8
BLACK
6
CONTINUOUS
10
393.99
20
-83.5766
11
394.156
21
-83.6816
0
LINE
8
BLACK
6
CONTINUOUS
10
394.156
20
-83.6816
11
394.301
21
-83.8151
0
LINE
8
BLACK
6
CONTINUOUS
10
394.301
20
-83.8151
11
394.419
21
-83.9728
0
LINE
8
BLACK
6
CONTINUOUS
10
394.419
20
-83.9728
11
394.506
21
-84.1492
0
LINE
8
BLACK
6
CONTINUOUS
10
394.506
20
-84.1492
11
394.559
21
-84.3385
0
LINE
8
BLACK
6
CONTINUOUS
10
394.559
20
-84.3385
11
394.577
21
-84.5344
0
LINE
8
BLACK
6
CONTINUOUS
10
394.577
20
-84.5344
11
394.576
21
-84.5907
0
LINE
8
BLACK
6
CONTINUOUS
10
394.576
20
-84.5907
11
394.547
21
-84.7854
0
LINE
8
BLACK
6
CONTINUOUS
10
394.547
20
-84.7854
11
394.484
21
-84.9717
0
LINE
8
BLACK
6
CONTINUOUS
10
394.484
20
-84.9717
11
394.388
21
-85.1433
0
LINE
8
BLACK
6
CONTINUOUS
10
394.388
20
-85.1433
11
394.262
21
-85.2946
0
LINE
8
BLACK
6
CONTINUOUS
10
394.262
20
-85.2946
11
394.111
21
-85.4204
0
LINE
8
BLACK
6
CONTINUOUS
10
394.111
20
-85.4204
11
393.939
21
-85.5165
0
LINE
8
BLACK
6
CONTINUOUS
10
393.939
20
-85.5165
11
393.753
21
-85.5797
0
LINE
8
BLACK
6
CONTINUOUS
10
393.753
20
-85.5797
11
393.558
21
-85.608
0
LINE
8
BLACK
6
CONTINUOUS
10
393.558
20
-85.608
11
393.362
21
-85.6002
0
LINE
8
BLACK
6
CONTINUOUS
10
393.362
20
-85.6002
11
393.17
21
-85.5568
0
LINE
8
BLACK
6
CONTINUOUS
10
393.17
20
-85.5568
11
392.989
21
-85.4792
0
LINE
8
BLACK
6
CONTINUOUS
10
392.989
20
-85.4792
11
392.825
21
-85.3699
0
LINE
8
BLACK
6
CONTINUOUS
10
392.825
20
-85.3699
11
392.685
21
-85.2326
0
LINE
8
BLACK
6
CONTINUOUS
10
392.685
20
-85.2326
11
392.571
21
-85.0719
0
LINE
8
BLACK
6
CONTINUOUS
10
392.571
20
-85.0719
11
392.489
21
-84.8933
0
LINE
8
BLACK
6
CONTINUOUS
10
392.489
20
-84.8933
11
392.44
21
-84.7026
0
LINE
8
BLACK
6
CONTINUOUS
10
392.44
20
-84.7026
11
392.429
21
-84.5344
0
LINE
8
BLACK
6
CONTINUOUS
10
392.429
20
-84.5344
11
392.427
21
-84.5063
0
LINE
8
BLACK
6
CONTINUOUS
10
392.427
20
-84.5063
11
392.45
21
-84.3109
0
LINE
8
BLACK
6
CONTINUOUS
10
392.652
20
-84.9128
11
392.75
21
-85.0811
0
LINE
8
BLACK
6
CONTINUOUS
10
392.75
20
-85.0811
11
392.88
21
-85.2256
0
LINE
8
BLACK
6
CONTINUOUS
10
392.88
20
-85.2256
11
393.037
21
-85.3399
0
LINE
8
BLACK
6
CONTINUOUS
10
393.037
20
-85.3399
11
393.215
21
-85.419
0
LINE
8
BLACK
6
CONTINUOUS
10
393.215
20
-85.419
11
393.405
21
-85.4594
0
LINE
8
BLACK
6
CONTINUOUS
10
393.405
20
-85.4594
11
393.599
21
-85.4594
0
LINE
8
BLACK
6
CONTINUOUS
10
393.599
20
-85.4594
11
393.789
21
-85.419
0
LINE
8
BLACK
6
CONTINUOUS
10
393.789
20
-85.419
11
393.967
21
-85.3399
0
LINE
8
BLACK
6
CONTINUOUS
10
393.967
20
-85.3399
11
394.124
21
-85.2256
0
LINE
8
BLACK
6
CONTINUOUS
10
394.124
20
-85.2256
11
394.254
21
-85.0811
0
LINE
8
BLACK
6
CONTINUOUS
10
394.254
20
-85.0811
11
394.352
21
-84.9128
0
LINE
8
BLACK
6
CONTINUOUS
10
394.352
20
-84.9128
11
394.412
21
-84.7278
0
LINE
8
BLACK
6
CONTINUOUS
10
394.412
20
-84.7278
11
394.432
21
-84.5344
0
LINE
8
BLACK
6
CONTINUOUS
10
394.432
20
-84.5344
11
394.412
21
-84.3411
0
LINE
8
BLACK
6
CONTINUOUS
10
394.412
20
-84.3411
11
394.352
21
-84.1561
0
LINE
8
BLACK
6
CONTINUOUS
10
394.352
20
-84.1561
11
394.254
21
-83.9877
0
LINE
8
BLACK
6
CONTINUOUS
10
394.254
20
-83.9877
11
394.124
21
-83.8433
0
LINE
8
BLACK
6
CONTINUOUS
10
394.124
20
-83.8433
11
393.967
21
-83.729
0
LINE
8
BLACK
6
CONTINUOUS
10
393.967
20
-83.729
11
393.789
21
-83.6499
0
LINE
8
BLACK
6
CONTINUOUS
10
393.789
20
-83.6499
11
393.599
21
-83.6094
0
LINE
8
BLACK
6
CONTINUOUS
10
393.599
20
-83.6094
11
393.405
21
-83.6094
0
LINE
8
BLACK
6
CONTINUOUS
10
393.405
20
-83.6094
11
393.215
21
-83.6499
0
LINE
8
BLACK
6
CONTINUOUS
10
393.215
20
-83.6499
11
393.037
21
-83.729
0
LINE
8
BLACK
6
CONTINUOUS
10
393.037
20
-83.729
11
392.88
21
-83.8433
0
LINE
8
BLACK
6
CONTINUOUS
10
392.88
20
-83.8433
11
392.75
21
-83.9877
0
LINE
8
BLACK
6
CONTINUOUS
10
392.75
20
-83.9877
11
392.652
21
-84.1561
0
LINE
8
BLACK
6
CONTINUOUS
10
392.652
20
-84.1561
11
392.592
21
-84.3411
0
LINE
8
BLACK
6
CONTINUOUS
10
392.592
20
-84.3411
11
392.572
21
-84.5344
0
LINE
8
BLACK
6
CONTINUOUS
10
392.572
20
-84.5344
11
392.592
21
-84.7278
0
LINE
8
BLACK
6
CONTINUOUS
10
392.592
20
-84.7278
11
392.652
21
-84.9128
0
LINE
8
BLACK
6
CONTINUOUS
10
487.701
20
-82.525
11
487.759
21
-82.3371
0
LINE
8
BLACK
6
CONTINUOUS
10
487.759
20
-82.3371
11
487.851
21
-82.163
0
LINE
8
BLACK
6
CONTINUOUS
10
487.851
20
-82.163
11
487.972
21
-82.0085
0
LINE
8
BLACK
6
CONTINUOUS
10
487.972
20
-82.0085
11
488.12
21
-81.8788
0
LINE
8
BLACK
6
CONTINUOUS
10
488.12
20
-81.8788
11
488.289
21
-81.7782
0
LINE
8
BLACK
6
CONTINUOUS
10
488.289
20
-81.7782
11
488.474
21
-81.7101
0
LINE
8
BLACK
6
CONTINUOUS
10
488.474
20
-81.7101
11
488.668
21
-81.6768
0
LINE
8
BLACK
6
CONTINUOUS
10
488.668
20
-81.6768
11
488.864
21
-81.6794
0
LINE
8
BLACK
6
CONTINUOUS
10
488.864
20
-81.6794
11
489.057
21
-81.7178
0
LINE
8
BLACK
6
CONTINUOUS
10
489.057
20
-81.7178
11
489.24
21
-81.7907
0
LINE
8
BLACK
6
CONTINUOUS
10
489.24
20
-81.7907
11
489.407
21
-81.8957
0
LINE
8
BLACK
6
CONTINUOUS
10
489.407
20
-81.8957
11
489.551
21
-82.0292
0
LINE
8
BLACK
6
CONTINUOUS
10
489.551
20
-82.0292
11
489.669
21
-82.1868
0
LINE
8
BLACK
6
CONTINUOUS
10
489.669
20
-82.1868
11
489.756
21
-82.3633
0
LINE
8
BLACK
6
CONTINUOUS
10
489.756
20
-82.3633
11
489.809
21
-82.5526
0
LINE
8
BLACK
6
CONTINUOUS
10
489.809
20
-82.5526
11
489.827
21
-82.7485
0
LINE
8
BLACK
6
CONTINUOUS
10
489.827
20
-82.7485
11
489.826
21
-82.8048
0
LINE
8
BLACK
6
CONTINUOUS
10
489.826
20
-82.8048
11
489.797
21
-82.9995
0
LINE
8
BLACK
6
CONTINUOUS
10
489.797
20
-82.9995
11
489.734
21
-83.1857
0
LINE
8
BLACK
6
CONTINUOUS
10
489.734
20
-83.1857
11
489.638
21
-83.3574
0
LINE
8
BLACK
6
CONTINUOUS
10
489.638
20
-83.3574
11
489.512
21
-83.5086
0
LINE
8
BLACK
6
CONTINUOUS
10
489.512
20
-83.5086
11
489.361
21
-83.6344
0
LINE
8
BLACK
6
CONTINUOUS
10
489.361
20
-83.6344
11
489.189
21
-83.7306
0
LINE
8
BLACK
6
CONTINUOUS
10
489.189
20
-83.7306
11
489.003
21
-83.7938
0
LINE
8
BLACK
6
CONTINUOUS
10
489.003
20
-83.7938
11
488.808
21
-83.822
0
LINE
8
BLACK
6
CONTINUOUS
10
488.808
20
-83.822
11
488.612
21
-83.8143
0
LINE
8
BLACK
6
CONTINUOUS
10
488.612
20
-83.8143
11
488.42
21
-83.7709
0
LINE
8
BLACK
6
CONTINUOUS
10
488.42
20
-83.7709
11
488.239
21
-83.6932
0
LINE
8
BLACK
6
CONTINUOUS
10
488.239
20
-83.6932
11
488.076
21
-83.5839
0
LINE
8
BLACK
6
CONTINUOUS
10
488.076
20
-83.5839
11
487.935
21
-83.4467
0
LINE
8
BLACK
6
CONTINUOUS
10
487.935
20
-83.4467
11
487.821
21
-83.286
0
LINE
8
BLACK
6
CONTINUOUS
10
487.821
20
-83.286
11
487.739
21
-83.1073
0
LINE
8
BLACK
6
CONTINUOUS
10
487.739
20
-83.1073
11
487.69
21
-82.9167
0
LINE
8
BLACK
6
CONTINUOUS
10
487.69
20
-82.9167
11
487.679
21
-82.7485
0
LINE
8
BLACK
6
CONTINUOUS
10
487.679
20
-82.7485
11
487.677
21
-82.7204
0
LINE
8
BLACK
6
CONTINUOUS
10
487.677
20
-82.7204
11
487.701
21
-82.525
0
LINE
8
BLACK
6
CONTINUOUS
10
487.902
20
-83.1268
11
488
21
-83.2952
0
LINE
8
BLACK
6
CONTINUOUS
10
488
20
-83.2952
11
488.13
21
-83.4397
0
LINE
8
BLACK
6
CONTINUOUS
10
488.13
20
-83.4397
11
488.287
21
-83.554
0
LINE
8
BLACK
6
CONTINUOUS
10
488.287
20
-83.554
11
488.465
21
-83.6331
0
LINE
8
BLACK
6
CONTINUOUS
10
488.465
20
-83.6331
11
488.655
21
-83.6735
0
LINE
8
BLACK
6
CONTINUOUS
10
488.655
20
-83.6735
11
488.849
21
-83.6735
0
LINE
8
BLACK
6
CONTINUOUS
10
488.849
20
-83.6735
11
489.04
21
-83.6331
0
LINE
8
BLACK
6
CONTINUOUS
10
489.04
20
-83.6331
11
489.217
21
-83.554
0
LINE
8
BLACK
6
CONTINUOUS
10
489.217
20
-83.554
11
489.374
21
-83.4397
0
LINE
8
BLACK
6
CONTINUOUS
10
489.374
20
-83.4397
11
489.505
21
-83.2952
0
LINE
8
BLACK
6
CONTINUOUS
10
489.505
20
-83.2952
11
489.602
21
-83.1268
0
LINE
8
BLACK
6
CONTINUOUS
10
489.602
20
-83.1268
11
489.662
21
-82.9419
0
LINE
8
BLACK
6
CONTINUOUS
10
489.662
20
-82.9419
11
489.682
21
-82.7485
0
LINE
8
BLACK
6
CONTINUOUS
10
489.682
20
-82.7485
11
489.662
21
-82.5551
0
LINE
8
BLACK
6
CONTINUOUS
10
489.662
20
-82.5551
11
489.602
21
-82.3702
0
LINE
8
BLACK
6
CONTINUOUS
10
489.602
20
-82.3702
11
489.505
21
-82.2018
0
LINE
8
BLACK
6
CONTINUOUS
10
489.505
20
-82.2018
11
489.374
21
-82.0573
0
LINE
8
BLACK
6
CONTINUOUS
10
489.374
20
-82.0573
11
489.217
21
-81.943
0
LINE
8
BLACK
6
CONTINUOUS
10
489.217
20
-81.943
11
489.04
21
-81.8639
0
LINE
8
BLACK
6
CONTINUOUS
10
489.04
20
-81.8639
11
488.849
21
-81.8235
0
LINE
8
BLACK
6
CONTINUOUS
10
488.849
20
-81.8235
11
488.655
21
-81.8235
0
LINE
8
BLACK
6
CONTINUOUS
10
488.655
20
-81.8235
11
488.465
21
-81.8639
0
LINE
8
BLACK
6
CONTINUOUS
10
488.465
20
-81.8639
11
488.287
21
-81.943
0
LINE
8
BLACK
6
CONTINUOUS
10
488.287
20
-81.943
11
488.13
21
-82.0573
0
LINE
8
BLACK
6
CONTINUOUS
10
488.13
20
-82.0573
11
488
21
-82.2018
0
LINE
8
BLACK
6
CONTINUOUS
10
488
20
-82.2018
11
487.902
21
-82.3702
0
LINE
8
BLACK
6
CONTINUOUS
10
487.902
20
-82.3702
11
487.842
21
-82.5551
0
LINE
8
BLACK
6
CONTINUOUS
10
487.842
20
-82.5551
11
487.822
21
-82.7485
0
LINE
8
BLACK
6
CONTINUOUS
10
487.822
20
-82.7485
11
487.842
21
-82.9419
0
LINE
8
BLACK
6
CONTINUOUS
10
487.842
20
-82.9419
11
487.902
21
-83.1268
0
LINE
8
BLACK
6
CONTINUOUS
10
529.968
20
-76.5719
11
530.026
21
-76.384
0
LINE
8
BLACK
6
CONTINUOUS
10
530.026
20
-76.384
11
530.118
21
-76.2099
0
LINE
8
BLACK
6
CONTINUOUS
10
530.118
20
-76.2099
11
530.24
21
-76.0554
0
LINE
8
BLACK
6
CONTINUOUS
10
530.24
20
-76.0554
11
530.387
21
-75.9257
0
LINE
8
BLACK
6
CONTINUOUS
10
530.387
20
-75.9257
11
530.557
21
-75.8251
0
LINE
8
BLACK
6
CONTINUOUS
10
530.557
20
-75.8251
11
530.741
21
-75.757
0
LINE
8
BLACK
6
CONTINUOUS
10
530.741
20
-75.757
11
530.935
21
-75.7237
0
LINE
8
BLACK
6
CONTINUOUS
10
530.935
20
-75.7237
11
531.132
21
-75.7263
0
LINE
8
BLACK
6
CONTINUOUS
10
531.132
20
-75.7263
11
531.325
21
-75.7646
0
LINE
8
BLACK
6
CONTINUOUS
10
531.325
20
-75.7646
11
531.507
21
-75.8375
0
LINE
8
BLACK
6
CONTINUOUS
10
531.507
20
-75.8375
11
531.674
21
-75.9425
0
LINE
8
BLACK
6
CONTINUOUS
10
531.674
20
-75.9425
11
531.818
21
-76.0761
0
LINE
8
BLACK
6
CONTINUOUS
10
531.818
20
-76.0761
11
531.936
21
-76.2337
0
LINE
8
BLACK
6
CONTINUOUS
10
531.936
20
-76.2337
11
532.023
21
-76.4101
0
LINE
8
BLACK
6
CONTINUOUS
10
532.023
20
-76.4101
11
532.076
21
-76.5995
0
LINE
8
BLACK
6
CONTINUOUS
10
532.076
20
-76.5995
11
532.094
21
-76.7954
0
LINE
8
BLACK
6
CONTINUOUS
10
532.094
20
-76.7954
11
532.093
21
-76.8516
0
LINE
8
BLACK
6
CONTINUOUS
10
532.093
20
-76.8516
11
532.065
21
-77.0463
0
LINE
8
BLACK
6
CONTINUOUS
10
532.065
20
-77.0463
11
532.001
21
-77.2326
0
LINE
8
BLACK
6
CONTINUOUS
10
532.001
20
-77.2326
11
531.905
21
-77.4043
0
LINE
8
BLACK
6
CONTINUOUS
10
531.905
20
-77.4043
11
531.779
21
-77.5555
0
LINE
8
BLACK
6
CONTINUOUS
10
531.779
20
-77.5555
11
531.628
21
-77.6813
0
LINE
8
BLACK
6
CONTINUOUS
10
531.628
20
-77.6813
11
531.457
21
-77.7774
0
LINE
8
BLACK
6
CONTINUOUS
10
531.457
20
-77.7774
11
531.27
21
-77.8407
0
LINE
8
BLACK
6
CONTINUOUS
10
531.27
20
-77.8407
11
531.076
21
-77.8689
0
LINE
8
BLACK
6
CONTINUOUS
10
531.076
20
-77.8689
11
530.879
21
-77.8612
0
LINE
8
BLACK
6
CONTINUOUS
10
530.879
20
-77.8612
11
530.687
21
-77.8178
0
LINE
8
BLACK
6
CONTINUOUS
10
530.687
20
-77.8178
11
530.506
21
-77.7401
0
LINE
8
BLACK
6
CONTINUOUS
10
530.506
20
-77.7401
11
530.343
21
-77.6308
0
LINE
8
BLACK
6
CONTINUOUS
10
530.343
20
-77.6308
11
530.202
21
-77.4935
0
LINE
8
BLACK
6
CONTINUOUS
10
530.202
20
-77.4935
11
530.088
21
-77.3329
0
LINE
8
BLACK
6
CONTINUOUS
10
530.088
20
-77.3329
11
530.006
21
-77.1542
0
LINE
8
BLACK
6
CONTINUOUS
10
530.006
20
-77.1542
11
529.958
21
-76.9635
0
LINE
8
BLACK
6
CONTINUOUS
10
529.958
20
-76.9635
11
529.947
21
-76.7954
0
LINE
8
BLACK
6
CONTINUOUS
10
529.947
20
-76.7954
11
529.945
21
-76.7672
0
LINE
8
BLACK
6
CONTINUOUS
10
529.945
20
-76.7672
11
529.968
21
-76.5719
0
LINE
8
BLACK
6
CONTINUOUS
10
530.17
20
-77.1737
11
530.267
21
-77.3421
0
LINE
8
BLACK
6
CONTINUOUS
10
530.267
20
-77.3421
11
530.397
21
-77.4866
0
LINE
8
BLACK
6
CONTINUOUS
10
530.397
20
-77.4866
11
530.554
21
-77.6009
0
LINE
8
BLACK
6
CONTINUOUS
10
530.554
20
-77.6009
11
530.732
21
-77.6799
0
LINE
8
BLACK
6
CONTINUOUS
10
530.732
20
-77.6799
11
530.922
21
-77.7204
0
LINE
8
BLACK
6
CONTINUOUS
10
530.922
20
-77.7204
11
531.117
21
-77.7204
0
LINE
8
BLACK
6
CONTINUOUS
10
531.117
20
-77.7204
11
531.307
21
-77.6799
0
LINE
8
BLACK
6
CONTINUOUS
10
531.307
20
-77.6799
11
531.484
21
-77.6009
0
LINE
8
BLACK
6
CONTINUOUS
10
531.484
20
-77.6009
11
531.642
21
-77.4866
0
LINE
8
BLACK
6
CONTINUOUS
10
531.642
20
-77.4866
11
531.772
21
-77.3421
0
LINE
8
BLACK
6
CONTINUOUS
10
531.772
20
-77.3421
11
531.869
21
-77.1737
0
LINE
8
BLACK
6
CONTINUOUS
10
531.869
20
-77.1737
11
531.929
21
-76.9888
0
LINE
8
BLACK
6
CONTINUOUS
10
531.929
20
-76.9888
11
531.949
21
-76.7954
0
LINE
8
BLACK
6
CONTINUOUS
10
531.949
20
-76.7954
11
531.929
21
-76.602
0
LINE
8
BLACK
6
CONTINUOUS
10
531.929
20
-76.602
11
531.869
21
-76.4171
0
LINE
8
BLACK
6
CONTINUOUS
10
531.869
20
-76.4171
11
531.772
21
-76.2487
0
LINE
8
BLACK
6
CONTINUOUS
10
531.772
20
-76.2487
11
531.642
21
-76.1042
0
LINE
8
BLACK
6
CONTINUOUS
10
531.642
20
-76.1042
11
531.484
21
-75.9899
0
LINE
8
BLACK
6
CONTINUOUS
10
531.484
20
-75.9899
11
531.307
21
-75.9108
0
LINE
8
BLACK
6
CONTINUOUS
10
531.307
20
-75.9108
11
531.117
21
-75.8704
0
LINE
8
BLACK
6
CONTINUOUS
10
531.117
20
-75.8704
11
530.922
21
-75.8704
0
LINE
8
BLACK
6
CONTINUOUS
10
530.922
20
-75.8704
11
530.732
21
-75.9108
0
LINE
8
BLACK
6
CONTINUOUS
10
530.732
20
-75.9108
11
530.554
21
-75.9899
0
LINE
8
BLACK
6
CONTINUOUS
10
530.554
20
-75.9899
11
530.397
21
-76.1042
0
LINE
8
BLACK
6
CONTINUOUS
10
530.397
20
-76.1042
11
530.267
21
-76.2487
0
LINE
8
BLACK
6
CONTINUOUS
10
530.267
20
-76.2487
11
530.17
21
-76.4171
0
LINE
8
BLACK
6
CONTINUOUS
10
530.17
20
-76.4171
11
530.11
21
-76.602
0
LINE
8
BLACK
6
CONTINUOUS
10
530.11
20
-76.602
11
530.089
21
-76.7954
0
LINE
8
BLACK
6
CONTINUOUS
10
530.089
20
-76.7954
11
530.11
21
-76.9888
0
LINE
8
BLACK
6
CONTINUOUS
10
530.11
20
-76.9888
11
530.17
21
-77.1737
0
LINE
8
BLACK
6
CONTINUOUS
10
350.183
20
-76.5719
11
350.242
21
-76.384
0
LINE
8
BLACK
6
CONTINUOUS
10
350.242
20
-76.384
11
350.333
21
-76.2099
0
LINE
8
BLACK
6
CONTINUOUS
10
350.333
20
-76.2099
11
350.455
21
-76.0554
0
LINE
8
BLACK
6
CONTINUOUS
10
350.455
20
-76.0554
11
350.603
21
-75.9257
0
LINE
8
BLACK
6
CONTINUOUS
10
350.603
20
-75.9257
11
350.772
21
-75.8251
0
LINE
8
BLACK
6
CONTINUOUS
10
350.772
20
-75.8251
11
350.957
21
-75.757
0
LINE
8
BLACK
6
CONTINUOUS
10
350.957
20
-75.757
11
351.15
21
-75.7237
0
LINE
8
BLACK
6
CONTINUOUS
10
351.15
20
-75.7237
11
351.347
21
-75.7263
0
LINE
8
BLACK
6
CONTINUOUS
10
351.347
20
-75.7263
11
351.54
21
-75.7646
0
LINE
8
BLACK
6
CONTINUOUS
10
351.54
20
-75.7646
11
351.723
21
-75.8375
0
LINE
8
BLACK
6
CONTINUOUS
10
351.723
20
-75.8375
11
351.889
21
-75.9425
0
LINE
8
BLACK
6
CONTINUOUS
10
351.889
20
-75.9425
11
352.034
21
-76.0761
0
LINE
8
BLACK
6
CONTINUOUS
10
352.034
20
-76.0761
11
352.151
21
-76.2337
0
LINE
8
BLACK
6
CONTINUOUS
10
352.151
20
-76.2337
11
352.238
21
-76.4101
0
LINE
8
BLACK
6
CONTINUOUS
10
352.238
20
-76.4101
11
352.292
21
-76.5995
0
LINE
8
BLACK
6
CONTINUOUS
10
352.292
20
-76.5995
11
352.31
21
-76.7954
0
LINE
8
BLACK
6
CONTINUOUS
10
352.31
20
-76.7954
11
352.308
21
-76.8516
0
LINE
8
BLACK
6
CONTINUOUS
10
352.308
20
-76.8516
11
352.28
21
-77.0463
0
LINE
8
BLACK
6
CONTINUOUS
10
352.28
20
-77.0463
11
352.217
21
-77.2326
0
LINE
8
BLACK
6
CONTINUOUS
10
352.217
20
-77.2326
11
352.121
21
-77.4043
0
LINE
8
BLACK
6
CONTINUOUS
10
352.121
20
-77.4043
11
351.995
21
-77.5555
0
LINE
8
BLACK
6
CONTINUOUS
10
351.995
20
-77.5555
11
351.844
21
-77.6813
0
LINE
8
BLACK
6
CONTINUOUS
10
351.844
20
-77.6813
11
351.672
21
-77.7774
0
LINE
8
BLACK
6
CONTINUOUS
10
351.672
20
-77.7774
11
351.486
21
-77.8407
0
LINE
8
BLACK
6
CONTINUOUS
10
351.486
20
-77.8407
11
351.291
21
-77.8689
0
LINE
8
BLACK
6
CONTINUOUS
10
351.291
20
-77.8689
11
351.094
21
-77.8612
0
LINE
8
BLACK
6
CONTINUOUS
10
351.094
20
-77.8612
11
350.903
21
-77.8178
0
LINE
8
BLACK
6
CONTINUOUS
10
350.903
20
-77.8178
11
350.722
21
-77.7401
0
LINE
8
BLACK
6
CONTINUOUS
10
350.722
20
-77.7401
11
350.558
21
-77.6308
0
LINE
8
BLACK
6
CONTINUOUS
10
350.558
20
-77.6308
11
350.417
21
-77.4935
0
LINE
8
BLACK
6
CONTINUOUS
10
350.417
20
-77.4935
11
350.304
21
-77.3329
0
LINE
8
BLACK
6
CONTINUOUS
10
350.304
20
-77.3329
11
350.221
21
-77.1542
0
LINE
8
BLACK
6
CONTINUOUS
10
350.221
20
-77.1542
11
350.173
21
-76.9635
0
LINE
8
BLACK
6
CONTINUOUS
10
350.173
20
-76.9635
11
350.162
21
-76.7954
0
LINE
8
BLACK
6
CONTINUOUS
10
350.162
20
-76.7954
11
350.16
21
-76.7672
0
LINE
8
BLACK
6
CONTINUOUS
10
350.16
20
-76.7672
11
350.183
21
-76.5719
0
LINE
8
BLACK
6
CONTINUOUS
10
350.385
20
-77.1737
11
350.482
21
-77.3421
0
LINE
8
BLACK
6
CONTINUOUS
10
350.482
20
-77.3421
11
350.612
21
-77.4866
0
LINE
8
BLACK
6
CONTINUOUS
10
350.612
20
-77.4866
11
350.77
21
-77.6009
0
LINE
8
BLACK
6
CONTINUOUS
10
350.77
20
-77.6009
11
350.947
21
-77.6799
0
LINE
8
BLACK
6
CONTINUOUS
10
350.947
20
-77.6799
11
351.138
21
-77.7204
0
LINE
8
BLACK
6
CONTINUOUS
10
351.138
20
-77.7204
11
351.332
21
-77.7204
0
LINE
8
BLACK
6
CONTINUOUS
10
351.332
20
-77.7204
11
351.522
21
-77.6799
0
LINE
8
BLACK
6
CONTINUOUS
10
351.522
20
-77.6799
11
351.7
21
-77.6009
0
LINE
8
BLACK
6
CONTINUOUS
10
351.7
20
-77.6009
11
351.857
21
-77.4866
0
LINE
8
BLACK
6
CONTINUOUS
10
351.857
20
-77.4866
11
351.987
21
-77.3421
0
LINE
8
BLACK
6
CONTINUOUS
10
351.987
20
-77.3421
11
352.084
21
-77.1737
0
LINE
8
BLACK
6
CONTINUOUS
10
352.084
20
-77.1737
11
352.145
21
-76.9888
0
LINE
8
BLACK
6
CONTINUOUS
10
352.145
20
-76.9888
11
352.165
21
-76.7954
0
LINE
8
BLACK
6
CONTINUOUS
10
352.165
20
-76.7954
11
352.145
21
-76.602
0
LINE
8
BLACK
6
CONTINUOUS
10
352.145
20
-76.602
11
352.084
21
-76.4171
0
LINE
8
BLACK
6
CONTINUOUS
10
352.084
20
-76.4171
11
351.987
21
-76.2487
0
LINE
8
BLACK
6
CONTINUOUS
10
351.987
20
-76.2487
11
351.857
21
-76.1042
0
LINE
8
BLACK
6
CONTINUOUS
10
351.857
20
-76.1042
11
351.7
21
-75.9899
0
LINE
8
BLACK
6
CONTINUOUS
10
351.7
20
-75.9899
11
351.522
21
-75.9108
0
LINE
8
BLACK
6
CONTINUOUS
10
351.522
20
-75.9108
11
351.332
21
-75.8704
0
LINE
8
BLACK
6
CONTINUOUS
10
351.332
20
-75.8704
11
351.138
21
-75.8704
0
LINE
8
BLACK
6
CONTINUOUS
10
351.138
20
-75.8704
11
350.947
21
-75.9108
0
LINE
8
BLACK
6
CONTINUOUS
10
350.947
20
-75.9108
11
350.77
21
-75.9899
0
LINE
8
BLACK
6
CONTINUOUS
10
350.77
20
-75.9899
11
350.612
21
-76.1042
0
LINE
8
BLACK
6
CONTINUOUS
10
350.612
20
-76.1042
11
350.482
21
-76.2487
0
LINE
8
BLACK
6
CONTINUOUS
10
350.482
20
-76.2487
11
350.385
21
-76.4171
0
LINE
8
BLACK
6
CONTINUOUS
10
350.385
20
-76.4171
11
350.325
21
-76.602
0
LINE
8
BLACK
6
CONTINUOUS
10
350.325
20
-76.602
11
350.305
21
-76.7954
0
LINE
8
BLACK
6
CONTINUOUS
10
350.305
20
-76.7954
11
350.325
21
-76.9888
0
LINE
8
BLACK
6
CONTINUOUS
10
350.325
20
-76.9888
11
350.385
21
-77.1737
0
LINE
8
BLACK
6
CONTINUOUS
10
406.143
20
-43.2343
11
406.201
21
-43.0465
0
LINE
8
BLACK
6
CONTINUOUS
10
406.201
20
-43.0465
11
406.293
21
-42.8724
0
LINE
8
BLACK
6
CONTINUOUS
10
406.293
20
-42.8724
11
406.414
21
-42.7179
0
LINE
8
BLACK
6
CONTINUOUS
10
406.414
20
-42.7179
11
406.562
21
-42.5882
0
LINE
8
BLACK
6
CONTINUOUS
10
406.562
20
-42.5882
11
406.731
21
-42.4876
0
LINE
8
BLACK
6
CONTINUOUS
10
406.731
20
-42.4876
11
406.916
21
-42.4195
0
LINE
8
BLACK
6
CONTINUOUS
10
406.916
20
-42.4195
11
407.11
21
-42.3862
0
LINE
8
BLACK
6
CONTINUOUS
10
407.11
20
-42.3862
11
407.307
21
-42.3887
0
LINE
8
BLACK
6
CONTINUOUS
10
407.307
20
-42.3887
11
407.5
21
-42.4271
0
LINE
8
BLACK
6
CONTINUOUS
10
407.5
20
-42.4271
11
407.682
21
-42.5
0
LINE
8
BLACK
6
CONTINUOUS
10
407.682
20
-42.5
11
407.849
21
-42.605
0
LINE
8
BLACK
6
CONTINUOUS
10
407.849
20
-42.605
11
407.993
21
-42.7385
0
LINE
8
BLACK
6
CONTINUOUS
10
407.993
20
-42.7385
11
408.111
21
-42.8962
0
LINE
8
BLACK
6
CONTINUOUS
10
408.111
20
-42.8962
11
408.198
21
-43.0726
0
LINE
8
BLACK
6
CONTINUOUS
10
408.198
20
-43.0726
11
408.251
21
-43.2619
0
LINE
8
BLACK
6
CONTINUOUS
10
408.251
20
-43.2619
11
408.269
21
-43.4578
0
LINE
8
BLACK
6
CONTINUOUS
10
408.269
20
-43.4578
11
408.268
21
-43.5141
0
LINE
8
BLACK
6
CONTINUOUS
10
408.268
20
-43.5141
11
408.24
21
-43.7088
0
LINE
8
BLACK
6
CONTINUOUS
10
408.24
20
-43.7088
11
408.176
21
-43.8951
0
LINE
8
BLACK
6
CONTINUOUS
10
408.176
20
-43.8951
11
408.08
21
-44.0667
0
LINE
8
BLACK
6
CONTINUOUS
10
408.08
20
-44.0667
11
407.954
21
-44.218
0
LINE
8
BLACK
6
CONTINUOUS
10
407.954
20
-44.218
11
407.803
21
-44.3438
0
LINE
8
BLACK
6
CONTINUOUS
10
407.803
20
-44.3438
11
407.631
21
-44.4399
0
LINE
8
BLACK
6
CONTINUOUS
10
407.631
20
-44.4399
11
407.445
21
-44.5031
0
LINE
8
BLACK
6
CONTINUOUS
10
407.445
20
-44.5031
11
407.25
21
-44.5314
0
LINE
8
BLACK
6
CONTINUOUS
10
407.25
20
-44.5314
11
407.054
21
-44.5237
0
LINE
8
BLACK
6
CONTINUOUS
10
407.054
20
-44.5237
11
406.862
21
-44.4802
0
LINE
8
BLACK
6
CONTINUOUS
10
406.862
20
-44.4802
11
406.681
21
-44.4026
0
LINE
8
BLACK
6
CONTINUOUS
10
406.681
20
-44.4026
11
406.518
21
-44.2933
0
LINE
8
BLACK
6
CONTINUOUS
10
406.518
20
-44.2933
11
406.377
21
-44.156
0
LINE
8
BLACK
6
CONTINUOUS
10
406.377
20
-44.156
11
406.263
21
-43.9953
0
LINE
8
BLACK
6
CONTINUOUS
10
406.263
20
-43.9953
11
406.181
21
-43.8167
0
LINE
8
BLACK
6
CONTINUOUS
10
406.181
20
-43.8167
11
406.132
21
-43.626
0
LINE
8
BLACK
6
CONTINUOUS
10
406.132
20
-43.626
11
406.121
21
-43.4578
0
LINE
8
BLACK
6
CONTINUOUS
10
406.121
20
-43.4578
11
406.12
21
-43.4297
0
LINE
8
BLACK
6
CONTINUOUS
10
406.12
20
-43.4297
11
406.143
21
-43.2343
0
LINE
8
BLACK
6
CONTINUOUS
10
406.345
20
-43.8362
11
406.442
21
-44.0045
0
LINE
8
BLACK
6
CONTINUOUS
10
406.442
20
-44.0045
11
406.572
21
-44.149
0
LINE
8
BLACK
6
CONTINUOUS
10
406.572
20
-44.149
11
406.729
21
-44.2633
0
LINE
8
BLACK
6
CONTINUOUS
10
406.729
20
-44.2633
11
406.907
21
-44.3424
0
LINE
8
BLACK
6
CONTINUOUS
10
406.907
20
-44.3424
11
407.097
21
-44.3828
0
LINE
8
BLACK
6
CONTINUOUS
10
407.097
20
-44.3828
11
407.291
21
-44.3828
0
LINE
8
BLACK
6
CONTINUOUS
10
407.291
20
-44.3828
11
407.482
21
-44.3424
0
LINE
8
BLACK
6
CONTINUOUS
10
407.482
20
-44.3424
11
407.659
21
-44.2633
0
LINE
8
BLACK
6
CONTINUOUS
10
407.659
20
-44.2633
11
407.817
21
-44.149
0
LINE
8
BLACK
6
CONTINUOUS
10
407.817
20
-44.149
11
407.947
21
-44.0045
0
LINE
8
BLACK
6
CONTINUOUS
10
407.947
20
-44.0045
11
408.044
21
-43.8362
0
LINE
8
BLACK
6
CONTINUOUS
10
408.044
20
-43.8362
11
408.104
21
-43.6512
0
LINE
8
BLACK
6
CONTINUOUS
10
408.104
20
-43.6512
11
408.124
21
-43.4578
0
LINE
8
BLACK
6
CONTINUOUS
10
408.124
20
-43.4578
11
408.104
21
-43.2645
0
LINE
8
BLACK
6
CONTINUOUS
10
408.104
20
-43.2645
11
408.044
21
-43.0795
0
LINE
8
BLACK
6
CONTINUOUS
10
408.044
20
-43.0795
11
407.947
21
-42.9112
0
LINE
8
BLACK
6
CONTINUOUS
10
407.947
20
-42.9112
11
407.817
21
-42.7667
0
LINE
8
BLACK
6
CONTINUOUS
10
407.817
20
-42.7667
11
407.659
21
-42.6524
0
LINE
8
BLACK
6
CONTINUOUS
10
407.659
20
-42.6524
11
407.482
21
-42.5733
0
LINE
8
BLACK
6
CONTINUOUS
10
407.482
20
-42.5733
11
407.291
21
-42.5328
0
LINE
8
BLACK
6
CONTINUOUS
10
407.291
20
-42.5328
11
407.097
21
-42.5328
0
LINE
8
BLACK
6
CONTINUOUS
10
407.097
20
-42.5328
11
406.907
21
-42.5733
0
LINE
8
BLACK
6
CONTINUOUS
10
406.907
20
-42.5733
11
406.729
21
-42.6524
0
LINE
8
BLACK
6
CONTINUOUS
10
406.729
20
-42.6524
11
406.572
21
-42.7667
0
LINE
8
BLACK
6
CONTINUOUS
10
406.572
20
-42.7667
11
406.442
21
-42.9112
0
LINE
8
BLACK
6
CONTINUOUS
10
406.442
20
-42.9112
11
406.345
21
-43.0795
0
LINE
8
BLACK
6
CONTINUOUS
10
406.345
20
-43.0795
11
406.284
21
-43.2645
0
LINE
8
BLACK
6
CONTINUOUS
10
406.284
20
-43.2645
11
406.264
21
-43.4578
0
LINE
8
BLACK
6
CONTINUOUS
10
406.264
20
-43.4578
11
406.284
21
-43.6512
0
LINE
8
BLACK
6
CONTINUOUS
10
406.284
20
-43.6512
11
406.345
21
-43.8362
0
LINE
8
BLACK
6
CONTINUOUS
10
472.222
20
-42.639
11
472.281
21
-42.4512
0
LINE
8
BLACK
6
CONTINUOUS
10
472.281
20
-42.4512
11
472.372
21
-42.277
0
LINE
8
BLACK
6
CONTINUOUS
10
472.372
20
-42.277
11
472.494
21
-42.1226
0
LINE
8
BLACK
6
CONTINUOUS
10
472.494
20
-42.1226
11
472.642
21
-41.9928
0
LINE
8
BLACK
6
CONTINUOUS
10
472.642
20
-41.9928
11
472.811
21
-41.8923
0
LINE
8
BLACK
6
CONTINUOUS
10
472.811
20
-41.8923
11
472.996
21
-41.8242
0
LINE
8
BLACK
6
CONTINUOUS
10
472.996
20
-41.8242
11
473.19
21
-41.7908
0
LINE
8
BLACK
6
CONTINUOUS
10
473.19
20
-41.7908
11
473.386
21
-41.7934
0
LINE
8
BLACK
6
CONTINUOUS
10
473.386
20
-41.7934
11
473.579
21
-41.8318
0
LINE
8
BLACK
6
CONTINUOUS
10
473.579
20
-41.8318
11
473.762
21
-41.9047
0
LINE
8
BLACK
6
CONTINUOUS
10
473.762
20
-41.9047
11
473.928
21
-42.0097
0
LINE
8
BLACK
6
CONTINUOUS
10
473.928
20
-42.0097
11
474.073
21
-42.1432
0
LINE
8
BLACK
6
CONTINUOUS
10
474.073
20
-42.1432
11
474.191
21
-42.3008
0
LINE
8
BLACK
6
CONTINUOUS
10
474.191
20
-42.3008
11
474.278
21
-42.4773
0
LINE
8
BLACK
6
CONTINUOUS
10
474.278
20
-42.4773
11
474.331
21
-42.6666
0
LINE
8
BLACK
6
CONTINUOUS
10
474.331
20
-42.6666
11
474.349
21
-42.8625
0
LINE
8
BLACK
6
CONTINUOUS
10
474.349
20
-42.8625
11
474.347
21
-42.9188
0
LINE
8
BLACK
6
CONTINUOUS
10
474.347
20
-42.9188
11
474.319
21
-43.1135
0
LINE
8
BLACK
6
CONTINUOUS
10
474.319
20
-43.1135
11
474.256
21
-43.2998
0
LINE
8
BLACK
6
CONTINUOUS
10
474.256
20
-43.2998
11
474.16
21
-43.4714
0
LINE
8
BLACK
6
CONTINUOUS
10
474.16
20
-43.4714
11
474.034
21
-43.6227
0
LINE
8
BLACK
6
CONTINUOUS
10
474.034
20
-43.6227
11
473.883
21
-43.7485
0
LINE
8
BLACK
6
CONTINUOUS
10
473.883
20
-43.7485
11
473.711
21
-43.8446
0
LINE
8
BLACK
6
CONTINUOUS
10
473.711
20
-43.8446
11
473.525
21
-43.9078
0
LINE
8
BLACK
6
CONTINUOUS
10
473.525
20
-43.9078
11
473.33
21
-43.9361
0
LINE
8
BLACK
6
CONTINUOUS
10
473.33
20
-43.9361
11
473.134
21
-43.9283
0
LINE
8
BLACK
6
CONTINUOUS
10
473.134
20
-43.9283
11
472.942
21
-43.8849
0
LINE
8
BLACK
6
CONTINUOUS
10
472.942
20
-43.8849
11
472.761
21
-43.8073
0
LINE
8
BLACK
6
CONTINUOUS
10
472.761
20
-43.8073
11
472.597
21
-43.698
0
LINE
8
BLACK
6
CONTINUOUS
10
472.597
20
-43.698
11
472.457
21
-43.5607
0
LINE
8
BLACK
6
CONTINUOUS
10
472.457
20
-43.5607
11
472.343
21
-43.4
0
LINE
8
BLACK
6
CONTINUOUS
10
472.343
20
-43.4
11
472.261
21
-43.2214
0
LINE
8
BLACK
6
CONTINUOUS
10
472.261
20
-43.2214
11
472.212
21
-43.0307
0
LINE
8
BLACK
6
CONTINUOUS
10
472.212
20
-43.0307
11
472.201
21
-42.8625
0
LINE
8
BLACK
6
CONTINUOUS
10
472.201
20
-42.8625
11
472.199
21
-42.8344
0
LINE
8
BLACK
6
CONTINUOUS
10
472.199
20
-42.8344
11
472.222
21
-42.639
0
LINE
8
BLACK
6
CONTINUOUS
10
472.424
20
-43.2408
11
472.521
21
-43.4092
0
LINE
8
BLACK
6
CONTINUOUS
10
472.521
20
-43.4092
11
472.652
21
-43.5537
0
LINE
8
BLACK
6
CONTINUOUS
10
472.652
20
-43.5537
11
472.809
21
-43.668
0
LINE
8
BLACK
6
CONTINUOUS
10
472.809
20
-43.668
11
472.987
21
-43.7471
0
LINE
8
BLACK
6
CONTINUOUS
10
472.987
20
-43.7471
11
473.177
21
-43.7875
0
LINE
8
BLACK
6
CONTINUOUS
10
473.177
20
-43.7875
11
473.371
21
-43.7875
0
LINE
8
BLACK
6
CONTINUOUS
10
473.371
20
-43.7875
11
473.561
21
-43.7471
0
LINE
8
BLACK
6
CONTINUOUS
10
473.561
20
-43.7471
11
473.739
21
-43.668
0
LINE
8
BLACK
6
CONTINUOUS
10
473.739
20
-43.668
11
473.896
21
-43.5537
0
LINE
8
BLACK
6
CONTINUOUS
10
473.896
20
-43.5537
11
474.026
21
-43.4092
0
LINE
8
BLACK
6
CONTINUOUS
10
474.026
20
-43.4092
11
474.124
21
-43.2408
0
LINE
8
BLACK
6
CONTINUOUS
10
474.124
20
-43.2408
11
474.184
21
-43.0559
0
LINE
8
BLACK
6
CONTINUOUS
10
474.184
20
-43.0559
11
474.204
21
-42.8625
0
LINE
8
BLACK
6
CONTINUOUS
10
474.204
20
-42.8625
11
474.184
21
-42.6692
0
LINE
8
BLACK
6
CONTINUOUS
10
474.184
20
-42.6692
11
474.124
21
-42.4842
0
LINE
8
BLACK
6
CONTINUOUS
10
474.124
20
-42.4842
11
474.026
21
-42.3158
0
LINE
8
BLACK
6
CONTINUOUS
10
474.026
20
-42.3158
11
473.896
21
-42.1713
0
LINE
8
BLACK
6
CONTINUOUS
10
473.896
20
-42.1713
11
473.739
21
-42.057
0
LINE
8
BLACK
6
CONTINUOUS
10
473.739
20
-42.057
11
473.561
21
-41.978
0
LINE
8
BLACK
6
CONTINUOUS
10
473.561
20
-41.978
11
473.371
21
-41.9375
0
LINE
8
BLACK
6
CONTINUOUS
10
473.371
20
-41.9375
11
473.177
21
-41.9375
0
LINE
8
BLACK
6
CONTINUOUS
10
473.177
20
-41.9375
11
472.987
21
-41.978
0
LINE
8
BLACK
6
CONTINUOUS
10
472.987
20
-41.978
11
472.809
21
-42.057
0
LINE
8
BLACK
6
CONTINUOUS
10
472.809
20
-42.057
11
472.652
21
-42.1713
0
LINE
8
BLACK
6
CONTINUOUS
10
472.652
20
-42.1713
11
472.521
21
-42.3158
0
LINE
8
BLACK
6
CONTINUOUS
10
472.521
20
-42.3158
11
472.424
21
-42.4842
0
LINE
8
BLACK
6
CONTINUOUS
10
472.424
20
-42.4842
11
472.364
21
-42.6692
0
LINE
8
BLACK
6
CONTINUOUS
10
472.364
20
-42.6692
11
472.344
21
-42.8625
0
LINE
8
BLACK
6
CONTINUOUS
10
472.344
20
-42.8625
11
472.364
21
-43.0559
0
LINE
8
BLACK
6
CONTINUOUS
10
472.364
20
-43.0559
11
472.424
21
-43.2408
0
LINE
8
BLACK
6
CONTINUOUS
10
533.54
20
-37.8765
11
533.598
21
-37.6886
0
LINE
8
BLACK
6
CONTINUOUS
10
533.598
20
-37.6886
11
533.69
21
-37.5145
0
LINE
8
BLACK
6
CONTINUOUS
10
533.69
20
-37.5145
11
533.811
21
-37.3601
0
LINE
8
BLACK
6
CONTINUOUS
10
533.811
20
-37.3601
11
533.959
21
-37.2303
0
LINE
8
BLACK
6
CONTINUOUS
10
533.959
20
-37.2303
11
534.128
21
-37.1298
0
LINE
8
BLACK
6
CONTINUOUS
10
534.128
20
-37.1298
11
534.313
21
-37.0617
0
LINE
8
BLACK
6
CONTINUOUS
10
534.313
20
-37.0617
11
534.507
21
-37.0283
0
LINE
8
BLACK
6
CONTINUOUS
10
534.507
20
-37.0283
11
534.704
21
-37.0309
0
LINE
8
BLACK
6
CONTINUOUS
10
534.704
20
-37.0309
11
534.897
21
-37.0693
0
LINE
8
BLACK
6
CONTINUOUS
10
534.897
20
-37.0693
11
535.079
21
-37.1422
0
LINE
8
BLACK
6
CONTINUOUS
10
535.079
20
-37.1422
11
535.246
21
-37.2472
0
LINE
8
BLACK
6
CONTINUOUS
10
535.246
20
-37.2472
11
535.39
21
-37.3807
0
LINE
8
BLACK
6
CONTINUOUS
10
535.39
20
-37.3807
11
535.508
21
-37.5383
0
LINE
8
BLACK
6
CONTINUOUS
10
535.508
20
-37.5383
11
535.595
21
-37.7148
0
LINE
8
BLACK
6
CONTINUOUS
10
535.595
20
-37.7148
11
535.648
21
-37.9041
0
LINE
8
BLACK
6
CONTINUOUS
10
535.648
20
-37.9041
11
535.666
21
-38.1
0
LINE
8
BLACK
6
CONTINUOUS
10
535.666
20
-38.1
11
535.665
21
-38.1563
0
LINE
8
BLACK
6
CONTINUOUS
10
535.665
20
-38.1563
11
535.636
21
-38.351
0
LINE
8
BLACK
6
CONTINUOUS
10
535.636
20
-38.351
11
535.573
21
-38.5373
0
LINE
8
BLACK
6
CONTINUOUS
10
535.573
20
-38.5373
11
535.477
21
-38.7089
0
LINE
8
BLACK
6
CONTINUOUS
10
535.477
20
-38.7089
11
535.351
21
-38.8602
0
LINE
8
BLACK
6
CONTINUOUS
10
535.351
20
-38.8602
11
535.2
21
-38.986
0
LINE
8
BLACK
6
CONTINUOUS
10
535.2
20
-38.986
11
535.028
21
-39.0821
0
LINE
8
BLACK
6
CONTINUOUS
10
535.028
20
-39.0821
11
534.842
21
-39.1453
0
LINE
8
BLACK
6
CONTINUOUS
10
534.842
20
-39.1453
11
534.647
21
-39.1736
0
LINE
8
BLACK
6
CONTINUOUS
10
534.647
20
-39.1736
11
534.451
21
-39.1658
0
LINE
8
BLACK
6
CONTINUOUS
10
534.451
20
-39.1658
11
534.259
21
-39.1224
0
LINE
8
BLACK
6
CONTINUOUS
10
534.259
20
-39.1224
11
534.078
21
-39.0448
0
LINE
8
BLACK
6
CONTINUOUS
10
534.078
20
-39.0448
11
533.915
21
-38.9355
0
LINE
8
BLACK
6
CONTINUOUS
10
533.915
20
-38.9355
11
533.774
21
-38.7982
0
LINE
8
BLACK
6
CONTINUOUS
10
533.774
20
-38.7982
11
533.66
21
-38.6375
0
LINE
8
BLACK
6
CONTINUOUS
10
533.66
20
-38.6375
11
533.578
21
-38.4589
0
LINE
8
BLACK
6
CONTINUOUS
10
533.578
20
-38.4589
11
533.529
21
-38.2682
0
LINE
8
BLACK
6
CONTINUOUS
10
533.529
20
-38.2682
11
533.518
21
-38.1
0
LINE
8
BLACK
6
CONTINUOUS
10
533.518
20
-38.1
11
533.517
21
-38.0719
0
LINE
8
BLACK
6
CONTINUOUS
10
533.517
20
-38.0719
11
533.54
21
-37.8765
0
LINE
8
BLACK
6
CONTINUOUS
10
533.742
20
-38.4783
11
533.839
21
-38.6467
0
LINE
8
BLACK
6
CONTINUOUS
10
533.839
20
-38.6467
11
533.969
21
-38.7912
0
LINE
8
BLACK
6
CONTINUOUS
10
533.969
20
-38.7912
11
534.126
21
-38.9055
0
LINE
8
BLACK
6
CONTINUOUS
10
534.126
20
-38.9055
11
534.304
21
-38.9846
0
LINE
8
BLACK
6
CONTINUOUS
10
534.304
20
-38.9846
11
534.494
21
-39.025
0
LINE
8
BLACK
6
CONTINUOUS
10
534.494
20
-39.025
11
534.688
21
-39.025
0
LINE
8
BLACK
6
CONTINUOUS
10
534.688
20
-39.025
11
534.879
21
-38.9846
0
LINE
8
BLACK
6
CONTINUOUS
10
534.879
20
-38.9846
11
535.056
21
-38.9055
0
LINE
8
BLACK
6
CONTINUOUS
10
535.056
20
-38.9055
11
535.214
21
-38.7912
0
LINE
8
BLACK
6
CONTINUOUS
10
535.214
20
-38.7912
11
535.344
21
-38.6467
0
LINE
8
BLACK
6
CONTINUOUS
10
535.344
20
-38.6467
11
535.441
21
-38.4783
0
LINE
8
BLACK
6
CONTINUOUS
10
535.441
20
-38.4783
11
535.501
21
-38.2934
0
LINE
8
BLACK
6
CONTINUOUS
10
535.501
20
-38.2934
11
535.521
21
-38.1
0
LINE
8
BLACK
6
CONTINUOUS
10
535.521
20
-38.1
11
535.501
21
-37.9067
0
LINE
8
BLACK
6
CONTINUOUS
10
535.501
20
-37.9067
11
535.441
21
-37.7217
0
LINE
8
BLACK
6
CONTINUOUS
10
535.441
20
-37.7217
11
535.344
21
-37.5533
0
LINE
8
BLACK
6
CONTINUOUS
10
535.344
20
-37.5533
11
535.214
21
-37.4088
0
LINE
8
BLACK
6
CONTINUOUS
10
535.214
20
-37.4088
11
535.056
21
-37.2945
0
LINE
8
BLACK
6
CONTINUOUS
10
535.056
20
-37.2945
11
534.879
21
-37.2155
0
LINE
8
BLACK
6
CONTINUOUS
10
534.879
20
-37.2155
11
534.688
21
-37.175
0
LINE
8
BLACK
6
CONTINUOUS
10
534.688
20
-37.175
11
534.494
21
-37.175
0
LINE
8
BLACK
6
CONTINUOUS
10
534.494
20
-37.175
11
534.304
21
-37.2155
0
LINE
8
BLACK
6
CONTINUOUS
10
534.304
20
-37.2155
11
534.126
21
-37.2945
0
LINE
8
BLACK
6
CONTINUOUS
10
534.126
20
-37.2945
11
533.969
21
-37.4088
0
LINE
8
BLACK
6
CONTINUOUS
10
533.969
20
-37.4088
11
533.839
21
-37.5533
0
LINE
8
BLACK
6
CONTINUOUS
10
533.839
20
-37.5533
11
533.742
21
-37.7217
0
LINE
8
BLACK
6
CONTINUOUS
10
533.742
20
-37.7217
11
533.681
21
-37.9067
0
LINE
8
BLACK
6
CONTINUOUS
10
533.681
20
-37.9067
11
533.661
21
-38.1
0
LINE
8
BLACK
6
CONTINUOUS
10
533.661
20
-38.1
11
533.681
21
-38.2934
0
LINE
8
BLACK
6
CONTINUOUS
10
533.681
20
-38.2934
11
533.742
21
-38.4783
0
LINE
8
BLACK
6
CONTINUOUS
10
345.421
20
-37.8765
11
345.479
21
-37.6886
0
LINE
8
BLACK
6
CONTINUOUS
10
345.479
20
-37.6886
11
345.571
21
-37.5145
0
LINE
8
BLACK
6
CONTINUOUS
10
345.571
20
-37.5145
11
345.693
21
-37.3601
0
LINE
8
BLACK
6
CONTINUOUS
10
345.693
20
-37.3601
11
345.84
21
-37.2303
0
LINE
8
BLACK
6
CONTINUOUS
10
345.84
20
-37.2303
11
346.009
21
-37.1298
0
LINE
8
BLACK
6
CONTINUOUS
10
346.009
20
-37.1298
11
346.194
21
-37.0617
0
LINE
8
BLACK
6
CONTINUOUS
10
346.194
20
-37.0617
11
346.388
21
-37.0283
0
LINE
8
BLACK
6
CONTINUOUS
10
346.388
20
-37.0283
11
346.585
21
-37.0309
0
LINE
8
BLACK
6
CONTINUOUS
10
346.585
20
-37.0309
11
346.778
21
-37.0693
0
LINE
8
BLACK
6
CONTINUOUS
10
346.778
20
-37.0693
11
346.96
21
-37.1422
0
LINE
8
BLACK
6
CONTINUOUS
10
346.96
20
-37.1422
11
347.127
21
-37.2472
0
LINE
8
BLACK
6
CONTINUOUS
10
347.127
20
-37.2472
11
347.271
21
-37.3807
0
LINE
8
BLACK
6
CONTINUOUS
10
347.271
20
-37.3807
11
347.389
21
-37.5383
0
LINE
8
BLACK
6
CONTINUOUS
10
347.389
20
-37.5383
11
347.476
21
-37.7148
0
LINE
8
BLACK
6
CONTINUOUS
10
347.476
20
-37.7148
11
347.529
21
-37.9041
0
LINE
8
BLACK
6
CONTINUOUS
10
347.529
20
-37.9041
11
347.547
21
-38.1
0
LINE
8
BLACK
6
CONTINUOUS
10
347.547
20
-38.1
11
347.546
21
-38.1563
0
LINE
8
BLACK
6
CONTINUOUS
10
347.546
20
-38.1563
11
347.518
21
-38.351
0
LINE
8
BLACK
6
CONTINUOUS
10
347.518
20
-38.351
11
347.454
21
-38.5373
0
LINE
8
BLACK
6
CONTINUOUS
10
347.454
20
-38.5373
11
347.358
21
-38.7089
0
LINE
8
BLACK
6
CONTINUOUS
10
347.358
20
-38.7089
11
347.232
21
-38.8602
0
LINE
8
BLACK
6
CONTINUOUS
10
347.232
20
-38.8602
11
347.081
21
-38.986
0
LINE
8
BLACK
6
CONTINUOUS
10
347.081
20
-38.986
11
346.91
21
-39.0821
0
LINE
8
BLACK
6
CONTINUOUS
10
346.91
20
-39.0821
11
346.723
21
-39.1453
0
LINE
8
BLACK
6
CONTINUOUS
10
346.723
20
-39.1453
11
346.529
21
-39.1736
0
LINE
8
BLACK
6
CONTINUOUS
10
346.529
20
-39.1736
11
346.332
21
-39.1658
0
LINE
8
BLACK
6
CONTINUOUS
10
346.332
20
-39.1658
11
346.14
21
-39.1224
0
LINE
8
BLACK
6
CONTINUOUS
10
346.14
20
-39.1224
11
345.959
21
-39.0448
0
LINE
8
BLACK
6
CONTINUOUS
10
345.959
20
-39.0448
11
345.796
21
-38.9355
0
LINE
8
BLACK
6
CONTINUOUS
10
345.796
20
-38.9355
11
345.655
21
-38.7982
0
LINE
8
BLACK
6
CONTINUOUS
10
345.655
20
-38.7982
11
345.541
21
-38.6375
0
LINE
8
BLACK
6
CONTINUOUS
10
345.541
20
-38.6375
11
345.459
21
-38.4589
0
LINE
8
BLACK
6
CONTINUOUS
10
345.459
20
-38.4589
11
345.411
21
-38.2682
0
LINE
8
BLACK
6
CONTINUOUS
10
345.411
20
-38.2682
11
345.399
21
-38.1
0
LINE
8
BLACK
6
CONTINUOUS
10
345.399
20
-38.1
11
345.398
21
-38.0719
0
LINE
8
BLACK
6
CONTINUOUS
10
345.398
20
-38.0719
11
345.421
21
-37.8765
0
LINE
8
BLACK
6
CONTINUOUS
10
345.623
20
-38.4783
11
345.72
21
-38.6467
0
LINE
8
BLACK
6
CONTINUOUS
10
345.72
20
-38.6467
11
345.85
21
-38.7912
0
LINE
8
BLACK
6
CONTINUOUS
10
345.85
20
-38.7912
11
346.007
21
-38.9055
0
LINE
8
BLACK
6
CONTINUOUS
10
346.007
20
-38.9055
11
346.185
21
-38.9846
0
LINE
8
BLACK
6
CONTINUOUS
10
346.185
20
-38.9846
11
346.375
21
-39.025
0
LINE
8
BLACK
6
CONTINUOUS
10
346.375
20
-39.025
11
346.57
21
-39.025
0
LINE
8
BLACK
6
CONTINUOUS
10
346.57
20
-39.025
11
346.76
21
-38.9846
0
LINE
8
BLACK
6
CONTINUOUS
10
346.76
20
-38.9846
11
346.937
21
-38.9055
0
LINE
8
BLACK
6
CONTINUOUS
10
346.937
20
-38.9055
11
347.095
21
-38.7912
0
LINE
8
BLACK
6
CONTINUOUS
10
347.095
20
-38.7912
11
347.225
21
-38.6467
0
LINE
8
BLACK
6
CONTINUOUS
10
347.225
20
-38.6467
11
347.322
21
-38.4783
0
LINE
8
BLACK
6
CONTINUOUS
10
347.322
20
-38.4783
11
347.382
21
-38.2934
0
LINE
8
BLACK
6
CONTINUOUS
10
347.382
20
-38.2934
11
347.402
21
-38.1
0
LINE
8
BLACK
6
CONTINUOUS
10
347.402
20
-38.1
11
347.382
21
-37.9067
0
LINE
8
BLACK
6
CONTINUOUS
10
347.382
20
-37.9067
11
347.322
21
-37.7217
0
LINE
8
BLACK
6
CONTINUOUS
10
347.322
20
-37.7217
11
347.225
21
-37.5533
0
LINE
8
BLACK
6
CONTINUOUS
10
347.225
20
-37.5533
11
347.095
21
-37.4088
0
LINE
8
BLACK
6
CONTINUOUS
10
347.095
20
-37.4088
11
346.937
21
-37.2945
0
LINE
8
BLACK
6
CONTINUOUS
10
346.937
20
-37.2945
11
346.76
21
-37.2155
0
LINE
8
BLACK
6
CONTINUOUS
10
346.76
20
-37.2155
11
346.57
21
-37.175
0
LINE
8
BLACK
6
CONTINUOUS
10
346.57
20
-37.175
11
346.375
21
-37.175
0
LINE
8
BLACK
6
CONTINUOUS
10
346.375
20
-37.175
11
346.185
21
-37.2155
0
LINE
8
BLACK
6
CONTINUOUS
10
346.185
20
-37.2155
11
346.007
21
-37.2945
0
LINE
8
BLACK
6
CONTINUOUS
10
346.007
20
-37.2945
11
345.85
21
-37.4088
0
LINE
8
BLACK
6
CONTINUOUS
10
345.85
20
-37.4088
11
345.72
21
-37.5533
0
LINE
8
BLACK
6
CONTINUOUS
10
345.72
20
-37.5533
11
345.623
21
-37.7217
0
LINE
8
BLACK
6
CONTINUOUS
10
345.623
20
-37.7217
11
345.563
21
-37.9067
0
LINE
8
BLACK
6
CONTINUOUS
10
345.563
20
-37.9067
11
345.542
21
-38.1
0
LINE
8
BLACK
6
CONTINUOUS
10
345.542
20
-38.1
11
345.563
21
-38.2934
0
LINE
8
BLACK
6
CONTINUOUS
10
345.563
20
-38.2934
11
345.623
21
-38.4783
  0
ENDSEC
  0
EOF
